<?xml version="1.0" encoding="utf-8"?>
<svg viewBox="0 0 256 256" width="256" height="256" xmlns="http://www.w3.org/2000/svg">
  <g transform="matrix(0.847945, 0, 0, 0.847945, -105.13118, -61.075348)" style="">
    <g transform="matrix(0.019486, 0, 0, -0.019486, 102.290741, 441.510437)" fill="#000000" stroke="none" style="">
      <path d="M15440 16104 c-376 -31 -718 -82 -895 -134 -55 -16 -147 -41 -205 -55 -100 -25 -628 -198 -810 -265 -133 -49 -627 -297 -821 -413 -97 -57 -290 -169 -430 -247 -140 -79 -306 -177 -369 -218 -132 -86 -479 -302 -484 -302 -2 0 -179 -81 -393 -181 -311 -145 -437 -198 -633 -266 -135 -47 -309 -108 -386 -135 -78 -27 -182 -59 -232 -71 l-91 -22 232 -266 c128 -146 248 -290 267 -320 19 -29 64 -95 100 -144 36 -50 98 -143 139 -208 l73 -117 57 49 c79 68 305 240 398 302 104 70 265 191 333 249 73 64 533 523 906 906 316 325 402 403 574 524 58 40 150 108 206 151 156 120 609 401 722 448 524 218 691 280 952 352 80 22 163 46 186 54 119 40 622 128 859 149 94 9 238 23 320 31 83 8 182 15 220 15 81 0 115 7 115 24 0 16 -37 50 -78 70 -81 42 -195 56 -437 54 -126 0 -304 -7 -395 -14z" style="fill-rule: nonzero; paint-order: fill; fill: rgb(249, 157, 28);"/>
      <path d="M8116 13964 c-81 -15 -183 -57 -269 -111 -66 -41 -237 -211 -305 -303 -30 -41 -89 -111 -131 -155 -162 -170 -234 -266 -399 -537 -254 -417 -318 -616 -382 -1189 -37 -330 -50 -392 -108 -494 -82 -148 -117 -165 -186 -92 -34 35 -52 72 -103 208 -61 161 -62 168 -88 374 -59 476 -132 809 -234 1076 -45 119 -55 135 -152 255 -134 168 -203 240 -319 333 -300 243 -668 380 -1067 397 -113 5 -160 12 -198 27 -27 11 -75 26 -105 33 -68 17 -331 54 -386 54 -29 0 -58 11 -107 40 -36 22 -70 40 -75 40 -5 0 -35 -19 -68 -42 -101 -71 -158 -84 -215 -51 -26 15 -30 15 -46 1 -22 -20 -572 -216 -703 -251 -52 -14 -180 -44 -285 -66 -279 -59 -392 -102 -557 -213 -152 -102 -258 -270 -258 -409 l0 -69 63 -29 c60 -26 64 -31 70 -67 4 -22 7 -57 7 -79 0 -22 5 -58 12 -80 13 -46 11 -74 -7 -95 -7 -8 -15 -27 -19 -42 -5 -22 -12 -28 -34 -28 -15 0 -36 -7 -46 -15 -18 -13 -18 -20 -7 -87 15 -93 62 -190 122 -249 40 -38 59 -49 125 -67 71 -19 113 -22 439 -26 415 -6 453 -11 775 -90 465 -114 730 -201 944 -309 162 -81 165 -83 321 -227 380 -349 462 -434 649 -669 330 -413 351 -435 596 -623 140 -107 449 -239 720 -308 233 -59 332 -68 865 -79 270 -6 508 -11 530 -11 l40 -1 -50 -45 c-27 -25 -84 -69 -125 -97 -93 -63 -381 -276 -435 -321 -45 -38 -54 -62 -106 -301 -25 -115 -58 -348 -59 -416 0 -9 -26 -43 -58 -75 -66 -67 -74 -87 -92 -259 -6 -55 -18 -140 -27 -189 -23 -131 -14 -273 27 -406 36 -116 58 -155 115 -200 35 -28 44 -30 115 -30 43 0 116 7 163 15 75 13 90 13 127 0 56 -20 123 -19 163 1 52 27 287 217 348 281 51 53 57 64 63 117 6 47 5 62 -8 75 -14 14 -19 14 -39 2 -68 -43 -229 -131 -239 -131 -7 0 -75 -16 -151 -35 -120 -30 -145 -33 -184 -25 -61 14 -83 27 -83 49 0 24 19 31 82 31 l51 0 -7 38 c-3 20 -6 47 -6 58 0 19 -8 22 -58 28 -51 6 -60 10 -76 37 -17 28 -17 33 0 111 13 60 31 103 69 167 l52 86 17 260 c18 278 24 324 57 395 18 39 32 52 102 92 101 57 191 102 467 233 260 123 291 142 450 281 189 164 230 208 230 248 0 41 23 63 86 82 76 23 133 18 195 -16 81 -43 103 -71 96 -117 -8 -53 -163 -357 -334 -656 -177 -310 -187 -335 -178 -442 6 -75 4 -87 -24 -157 -16 -42 -52 -144 -80 -227 -39 -118 -69 -186 -136 -307 -114 -204 -135 -262 -135 -366 0 -58 6 -98 21 -139 l22 -59 47 0 c29 0 52 6 59 14 7 8 17 45 22 82 10 70 72 201 157 334 20 30 54 100 76 155 28 68 47 101 59 103 17 4 18 -8 10 -235 -4 -131 -8 -356 -8 -501 0 -295 -5 -276 76 -302 37 -13 45 -12 77 6 46 24 50 41 62 234 18 285 57 610 76 629 2 2 10 -2 19 -9 19 -16 19 -91 1 -330 -10 -133 -10 -197 -2 -268 11 -89 12 -93 44 -112 18 -11 50 -20 71 -20 32 0 43 6 63 33 25 32 25 32 20 222 -3 158 0 231 22 431 34 319 37 659 6 809 -31 150 -33 144 74 291 85 116 116 149 311 323 202 182 219 200 260 276 118 216 93 457 -59 574 -85 66 -84 63 -34 122 49 58 123 100 256 144 80 26 89 27 250 23 158 -4 172 -6 258 -37 80 -28 103 -43 180 -111 103 -90 199 -196 215 -237 6 -15 17 -61 25 -101 19 -97 34 -124 102 -174 31 -23 89 -70 127 -103 63 -55 173 -115 209 -115 44 0 127 -68 336 -274 124 -122 256 -248 293 -281 96 -83 114 -117 133 -260 8 -66 18 -124 21 -129 4 -6 24 -33 44 -61 78 -104 115 -266 105 -460 -3 -66 -12 -138 -19 -160 l-14 -40 -21 41 c-32 63 -96 74 -133 23 -20 -28 -21 -39 -16 -128 3 -64 12 -114 25 -147 26 -62 34 -166 22 -271 -12 -108 -26 -156 -54 -190 -62 -76 -64 -310 -5 -477 49 -136 93 -176 193 -176 l55 0 14 -47 c12 -42 20 -50 70 -76 31 -17 79 -32 106 -35 63 -6 277 24 362 50 61 19 68 25 101 77 43 67 65 133 74 223 4 50 12 72 28 86 31 28 61 35 101 22 44 -14 65 -53 65 -117 1 -68 16 -128 46 -172 20 -30 35 -41 71 -50 71 -18 260 -41 340 -41 l73 0 0 67 c0 64 -3 72 -89 237 -126 242 -167 348 -196 505 -21 108 -46 174 -107 280 -28 47 -90 165 -138 261 -48 96 -100 198 -116 225 -17 28 -55 124 -86 215 -60 175 -70 230 -99 580 -11 133 -35 233 -79 333 -20 46 -89 117 -114 117 -25 0 -199 121 -264 184 -109 104 -176 216 -248 418 -87 241 -397 760 -472 789 -15 6 -63 14 -107 19 -93 9 -130 21 -144 49 -6 11 -11 55 -11 99 0 86 9 63 -146 362 -51 100 -242 554 -315 749 -28 75 -80 192 -116 261 -68 129 -384 632 -458 730 -23 30 -66 91 -94 135 -29 44 -90 121 -135 170 -232 253 -400 455 -434 520 -41 81 -33 79 -321 86 l-258 6 -85 45 c-101 53 -201 88 -353 123 -128 29 -279 32 -409 9z" style="fill-rule: nonzero; paint-order: fill; fill: rgb(249, 157, 28);"/>
      <path d="M6820 13046 c-105 -37 -177 -84 -269 -175 -135 -135 -258 -294 -334 -433 l-36 -68 18 -62 c22 -74 37 -160 51 -313 27 -270 55 -447 82 -512 14 -32 65 -80 75 -70 10 11 31 131 68 382 56 390 60 409 145 630 71 187 237 487 329 596 17 21 31 40 31 43 0 14 -101 2 -160 -18z" style="fill-rule: nonzero; paint-order: fill; fill: rgb(249, 157, 28);"/>
      <path d="M5351 9783 c-7 -14 8 -41 72 -129 45 -61 123 -156 173 -210 50 -54 133 -151 184 -214 295 -361 694 -767 731 -745 4 3 18 24 32 48 18 32 28 73 41 177 28 223 74 382 138 482 22 35 74 107 114 160 41 54 74 100 74 103 0 3 -78 5 -172 5 -463 -1 -880 95 -1278 295 -49 25 -92 45 -94 45 -3 0 -10 -8 -15 -17z" style="fill-rule: nonzero; paint-order: fill; fill: rgb(249, 157, 28);"/>
      <path d="M7333 8528 c3 -287 -10 -329 -136 -477 -26 -30 -47 -58 -47 -61 0 -4 22 -22 49 -41 40 -27 52 -41 60 -76 6 -23 11 -51 11 -62 0 -27 1 -27 95 10 121 46 192 88 237 138 l40 46 -5 100 c-4 84 -11 119 -46 218 -79 226 -169 399 -215 411 -45 12 -45 17 -43 -206z" style="fill-rule: nonzero; paint-order: fill; fill: rgb(249, 157, 28);"/>
      <path d="M5163 8223 c-30 -11 -12 -48 37 -77 54 -33 140 -129 170 -192 11 -23 27 -74 34 -113 12 -60 12 -79 0 -116 -17 -57 -56 -108 -108 -144 -59 -40 -99 -52 -207 -61 -52 -4 -109 -15 -125 -23 -85 -44 -154 -157 -154 -252 0 -94 -1 -94 -235 -156 -66 -17 -174 -54 -240 -81 -127 -52 -403 -188 -471 -231 -70 -44 -203 -231 -180 -254 14 -15 289 -25 716 -26 386 -2 430 0 484 16 41 13 68 29 89 53 26 29 37 34 76 34 24 0 59 5 76 11 28 11 40 8 116 -27 l84 -39 145 2 145 1 208 61 c115 34 215 61 223 61 25 0 54 -39 54 -73 0 -18 5 -38 12 -45 17 -17 114 -15 174 3 46 13 56 22 135 127 93 122 289 405 289 417 0 4 -28 21 -62 37 -93 44 -157 112 -196 209 -40 98 -68 229 -77 355 -9 145 4 140 -153 58 -75 -39 -168 -89 -207 -111 -77 -43 -259 -91 -307 -81 -40 8 -54 52 -40 123 35 171 -12 294 -154 401 -126 95 -291 158 -351 133z" style="fill-rule: nonzero; paint-order: fill; fill: rgb(249, 157, 28);"/>
    </g>
  </g>
</svg>