<?xml version="1.0" encoding="UTF-8"?>
<svg xmlns="http://www.w3.org/2000/svg" version="1.1" viewBox="0 0 1133.9 226.8">
  <defs>
    <style>
      .cls-1 {
        fill: #ed6c29;
      }
    </style>
  </defs>
  <!-- Generator: Adobe Illustrator 28.7.1, SVG Export Plug-In . SVG Version: 1.2.0 Build 142)  -->
  <g>
    <g id="Warstwa_1">
      <g>
        <path class="cls-1" d="M378.1,77.8c7.6-10.3,16.9-15.6,27.9-16.2v21.1c-7.4.4-13.3,2.8-17.6,7.2-6.6,6.5-10,14.3-10.3,23.3v51.8h-20.3v-100.8h20.3v13.6Z"/>
        <path class="cls-1" d="M513.2,71.3v-7.1h20.4v100.9h-20.4v-12.6c-9.8,10.1-21.2,15.2-34.1,15.2s-28.6-5.4-39.4-16.3c-10.9-10.9-16.3-24-16.3-39.4s5.4-28.6,16.3-39.4c10.9-10.9,24-16.3,39.4-16.3s24.3,5,34.1,15.1ZM513.2,119.4v-14.9c-1.2-6.3-4.3-12.1-9.4-17.2-6.9-6.8-15.1-10.2-24.7-10.2s-17.9,3.4-24.7,10.2c-6.8,6.8-10.2,15-10.2,24.7s3.4,17.8,10.2,24.6c6.8,6.8,15.1,10.2,24.7,10.2s17.8-3.4,24.7-10.2c5.1-5.2,8.2-10.9,9.4-17.2Z"/>
        <path class="cls-1" d="M585.3,152.5v46.4h-20.3V64.2h20.3v9.1c9.8-11.5,21.2-17.2,34.2-17.2s28.6,5.4,39.4,16.3c10.9,10.9,16.3,24,16.3,39.4s-5.4,28.6-16.3,39.5c-10.9,10.9-24,16.4-39.4,16.4s-24.4-5.1-34.2-15.2ZM585.3,104v15.8c1.2,6.2,4.4,11.8,9.5,16.9,6.8,6.8,15,10.2,24.7,10.2s17.9-3.4,24.7-10.2c6.8-6.8,10.2-15.1,10.2-24.7s-3.4-17.8-10.2-24.7c-6.8-6.9-15.1-10.3-24.7-10.3s-17.9,3.4-24.7,10.3c-5.1,5-8.3,10.6-9.5,16.9Z"/>
        <path class="cls-1" d="M712,64.2V26.4h20.3v37.8h18.1v20.3h-18.1v80.5h-20.3v-80.5h-18.1v-20.3h18.1Z"/>
        <path class="cls-1" d="M823.9,56c15.4,0,28.6,5.5,39.4,16.4,10.9,10.9,16.3,24.1,16.3,39.5s-5.4,28.6-16.3,39.5c-10.9,10.9-24,16.4-39.4,16.4s-28.5-5.5-39.4-16.4c-10.9-10.9-16.4-24.1-16.4-39.5s5.5-28.6,16.4-39.5c10.9-10.9,24-16.4,39.4-16.4ZM799.1,87.1c-6.8,6.9-10.2,15.1-10.2,24.7s3.4,17.9,10.2,24.7c6.8,6.8,15.1,10.2,24.7,10.2s17.9-3.4,24.7-10.2c6.8-6.8,10.2-15,10.2-24.7s-3.4-17.8-10.2-24.7c-6.8-6.9-15.1-10.3-24.7-10.3s-17.9,3.4-24.7,10.3Z"/>
        <path class="cls-1" d="M923.4,77.8c7.6-10.3,16.9-15.6,27.9-16.2v21.1c-7.4.4-13.3,2.8-17.6,7.2-6.6,6.5-10,14.3-10.3,23.3v51.8h-20.3v-100.8h20.3v13.6Z"/>
        <path class="cls-1" d="M993.4,143.4c2.4,2.4,5.3,3.5,8.6,3.5s6.2-1.2,8.6-3.5c2.4-2.4,3.6-5.3,3.6-8.7s-1.2-6.2-3.5-8.5c-1.6-1.6-5.1-4.1-10.5-7.5-7.3-4-12.5-7.5-15.6-10.6-5.4-5.4-8-11.8-8-19.3s2.7-14.1,8-19.5c5.4-5.4,11.8-8.1,19.4-8.1s13.9,2.5,18.9,7.6c3.6,3.6,5.9,7.6,6.9,12.1l-19.7,5.7c-.5-1.6-.9-2.7-1.4-3.2-1.2-1.2-2.7-1.8-4.7-1.8s-3.6.7-5,2.1c-1.4,1.4-2.1,3.1-2.1,5s.7,3.6,2.1,5c1.2,1.2,4,3.2,8.4,6,8.1,4.4,14,8.5,17.6,12.2,6.3,6.4,9.5,14,9.5,22.8s-3.2,16.7-9.5,23.1c-6.3,6.4-14,9.6-23,9.6s-16.6-3.2-22.9-9.6c-4.4-4.4-7.3-9.8-8.6-16.4l20.2-4.3c.6,3,1.5,5.1,2.7,6.4Z"/>
      </g>
      <path class="cls-1" d="M1055,81v-40.7h17.6c7.3,0,11.2,5.1,11.2,12.8s-3.9,12.8-11.2,12.8h-9.3v15h-8.3ZM1063.4,58.6h8.2c2.2,0,3.6-1,3.6-3.8v-3.5c0-2.7-1.4-3.8-3.6-3.8h-8.2v11.1Z"/>
      <path class="cls-1" d="M1089.7,81v-40.7h8.3v33.4h13.8v7.3h-22.1Z"/>
      <g>
        <path class="cls-1" d="M22.1,84.8c-.6-2.3,1.2-4.8,2.7-6.5,6.8-6.6,16.9-5.6,25.1-9.4,1.9-.7,3.8-1.4,5.7-2.1,1.4-.4,2.4-.2,3.7-.5,1.2-.2,2.2-1.1,3.4-1.2.8,0,1.5.2,2.2.5,3.8,1,8.1,1.1,11.9,2.4,13,.3,23.9,5.7,31.2,16.7,2.3,4.4,3.4,9.3,4.4,14,.9,4.6,1.1,9.3,2.2,14,.9,2.3,2.4,9.1,5.7,6,3.3-4.3,2.5-10.1,3.5-15.4.7-6,2.8-11.8,6-16.8,2.6-4.5,5.6-8.9,9.3-12.6,2.2-2.7,4.1-5.4,7-7.5,5.3-4,12.3-3.5,18.3-1.1,1.9.8,3.3,1.8,5.4,1.9,2.4.3,5.9-.4,8.1.6,1,.5,1.8,1.9,2.6,2.9,2.6,3.4,5.1,6,8,9.2,4.7,6.3,8.9,12.6,12.7,19.6,2.6,5.5,4.4,11,6.9,16.5.9,2.3,2.4,4.6,3.3,6.8.8,1.8.2,4.4,2.3,5.1,1,.4,2.4.5,3.3,1,1.9,1.2,2.9,3.1,4.1,5,1.8,3.1,3.6,6.2,4.9,9.7,4.7,14.5,13.4,7,13.9,22.5.2,8.5,4.6,15.8,8.5,23,1.9,3,1.9,7,3.5,10.3.7,2.6,6,9,2.4,10.2-2.6,0-6.2.1-7.9-2.2-.7-1.1-.7-2.6-1.3-3.8-.4-.8-1.2-1.2-2-.9-.7.3-1.1,1.1-1.3,2.1-.4,1.7-.9,3.7-2.4,4.8-2.5,1.5-7.3,2.2-9.9.8-.7-.5-1.3-1.2-2-1.7-1-.8-2.6-.9-3.4-2.1-1.6-2.4-1.9-5.3-1.8-8.2.4-2.5,2-4.7,1.9-7.4.4-3.1-1.7-6-.5-9,.3-.7,1-.8,1.6-.6.6.1,1.2.4,1.4,0,1-3,.5-6.4-.4-9.2-.5-1.3-1.4-2.5-1.9-3.8-.6-1.4-.5-3-1.1-4.4-.7-2.1-3.2-3.7-4.7-5.3-2-2-4.5-4.6-6.5-6.4-1-.9-2.2-1.4-3.6-2-2.2-.9-4.1-2.6-5.9-4.1-1-.9-1.6-2.1-1.9-3.5-.5-2.2-1.9-3.9-3.6-5.4-4.6-4.8-13.4-5.1-18.5-1-2.2,1.9,1.2,3.5,1.8,5.4,1.9,4.3-.3,9.3-3.8,12-3.5,3.4-8.2,6.4-9.5,11.2,0,2.7.7,4.2.5,7.3.2,7.2-1.1,14.4-.9,21.7-.1,1.1-.9,1.9-2,1.7-3.5-1.3-.9-9.5-1.5-12.4-1.5-3.7-2,11.7-2.2,12.4,0,1.8-1.7,3.6-3.3,2-1.1-1-.7-3.2-.7-5,0-3.2,0-6.5.2-9.6.1-1.8.5-6.4-1.5-2.3-1.2,2.7-3.2,5.3-4.1,8.1-.3,1.1-.9,3.1-2.3,2.2-2.5-2.6-.6-6.7,1.1-9.8,1.5-2.5,2.4-4.8,3.3-7.8,1.3-2.7,1.5-5.5,1.9-8.4,1.3-3.7,4-7.2,5.7-10.7,1-2.3,3.1-5.2,3.5-7.8.1-2.7-3.7-3.6-5.7-2.4-.8.5-1.3,1.4-1.9,2.1-1.7,2.3-4,3.9-6.2,5.8-4.6,3.2-10.6,5.1-15.5,8.1-4.6,3.4-1.6,10.9-4,15.4-4.3,7.5,1.9,5.8.5,8.5-.9.9-1.8,1.3-.3,1.8,3.6.4,7.1-1.2,10.2-2.8,1-.4,1.7-.1,1.6.8-.5,2.8-3.5,4.3-5.5,6.1-2.4,2.4-5.8,1.4-8.8,1.7-9.5,1.5-7.4-13-6-18.6.5-1.5,1.8-2.6,2.3-4.2.8-4,.9-9,2.9-12.5.3-1.6,13.8-9.3,11-9.6-6.6-.5-14.3,0-21-.7-7.5-1.2-14.9-3.4-20.8-8.1-7.2-5.5-11.2-13.9-18.2-19.7-2.6-2.3-5-4.8-7.7-6.9-5.8-3.7-12.5-5.3-19.3-7.1-7.2-2.3-14.6-2.3-22.1-2.2-3.1,0-6.9-3.4-7.6-6.5s-.3-1.3,1.1-1.6c2.3-.5,1.6-7.3.7-8.2l-.4-.2-1.4-.3c-.3,0-.6-.3-.7-.7Z"/>
        <path class="cls-1" d="M114.5,94.3c.5-2.2,2.1-3.9,3.5-5.7,2.3-2.6,4.9-5.8,8.4-7.2.9-.4,1.9-.7,2.9-.7.4,0,.6.1.6.3,0,.8-1.1,1.7-1.4,2.4-1.3,1.9-2.3,3.6-3.5,5.9-2.1,4.1-3.7,8.4-4.3,13.1-.4,3.1-.8,5.9-1.4,8.9-.4,2.1-1.6,1.5-2.2-.2-1.5-5.5-1.4-11.2-2.6-16.7v-.2Z"/>
        <path class="cls-1" d="M182.4,67.2c5.9-1.8,11.6-3.9,17.4-5.9,4.7-2,9.9-4.6,14.7-6.8,3.4-1.7,6.8-4,10-6.1,4.5-3,9.6-5.5,14.2-8.3,7.9-4.7,15.8-8.8,24.7-11.4,10.4-4,21.4-6.1,32.6-6.6,2.4,0,5.4,0,7.9,0,2.1,0,4.8.3,6.3,1.9.2.3,0,.6-.4.7-3.4.5-7.2.6-10.5,1-14.7,1.1-28.7,5.7-41.9,11.9-10.5,6.2-20.6,13.2-28.7,22.4-3.1,3.4-6.3,6.5-9.6,9.7-3.7,3.9-7.6,7.7-12.1,10.7-2.7,1.9-5.4,3.9-7.9,5.9-.4.3-.9.7-1.4.6-1.1-.2-1.7-1.5-2.3-2.4-1.7-2.6-3.4-5.1-5.2-7.6-1.7-1.9-5.1-5.9-7.3-8.4-.6-.6-.8-1-.6-1.2h0Z"/>
        <path class="cls-1" d="M98.5,144.5c2,3,4.4,5.7,6.8,8.4,2.3,2.8,4.8,5.9,7.3,8.7,1.4,1.7,3.1,3.2,4.5,4.7,1.7,1.8,4.7,5.4,5.4.7.6-4.8,1.3-9.7,4.5-13.4.4-.8,3-3.1.9-3-10.1.5-20.3-2-29.2-6.7"/>
        <path class="cls-1" d="M138,164.4c2.2,2.4,3.1,5.8,4.3,8.9,1.1,3.1,1.3,5.9-2,7.6-1.2.6-3,1.5-4.2,1.6-.7,0-.6-.9-.8-1.4-.2-.6-.6-1-1-1.4-.5-.4-.9-.7-.8-1.1.9-1.6,2.6-3,3-4.8.7-2.8.3-5.7.3-8.5,0-.7.2-1.7,1.1-1h.1Z"/>
        <path class="cls-1" d="M118.2,182.3c-1-.2-1.9.7-2.9,1.1-1.3.6-2.6,1.4-3.8,2-2.2,1-7.1,2.8-6.5-1.3.4-2.6-.4-5.2-2.6-6.9-1.6-1.3-3.7-2.7-5.8-2.9-.9,0-1.7.2-.9,1.1,3.8,2.8,6.5,9,1,11.6-2.8,1.1-6.5.4-7.9,3.8-.7,1.3-.5,3.1-1.5,3.9-.6.6-1.6.8-2.4,1-4.1,1-18.8,6-18.3,10.9.7.9,2.3.4,3.3.6,5.4.9,11.1.3,16.4.5,1.1,0,2.4-.2,3.8-.8,1.4-.7,2.6-1.5,4.2-1.5,2.5,0,4.4,1.6,7.1,1.2,3.6.1,7-1.8,10.5-2.2.7,0,1.2.4,1.6,1,.7,1.1,2.1,1.4,3.4,1,2.2-.7,3.2-2.9,4.6-4.6,8.1-10.5-.7-2.6-2.3-15.8-.3-1.2,0-2.8-.7-3.7h0Z"/>
      </g>
    </g>
  </g>
</svg>