<?xml version="1.0" encoding="UTF-8" standalone="no"?>
<svg
   version="1.1"
   viewBox="0 0 1089.8183 252.75879"
   id="svg16"
   width="1089.8184"
   height="252.75879"
   sodipodi:docname="RAPpl_rca_poziomo_noBG.svg"
   inkscape:export-filename="RAPpl_rca_poziomo_noBG.svg"
   inkscape:export-xdpi="200"
   inkscape:export-ydpi="200"
   inkscape:version="1.4.2 (unknown)"
   xmlns:inkscape="http://www.inkscape.org/namespaces/inkscape"
   xmlns:sodipodi="http://sodipodi.sourceforge.net/DTD/sodipodi-0.dtd"
   xmlns="http://www.w3.org/2000/svg"
   xmlns:svg="http://www.w3.org/2000/svg">
  <sodipodi:namedview
     id="namedview1"
     pagecolor="#ffffff"
     bordercolor="#000000"
     borderopacity="0.25"
     inkscape:showpageshadow="2"
     inkscape:pageopacity="0.0"
     inkscape:pagecheckerboard="0"
     inkscape:deskcolor="#d1d1d1"
     inkscape:zoom="1.0065898"
     inkscape:cx="544.90918"
     inkscape:cy="126.66531"
     inkscape:window-width="1920"
     inkscape:window-height="1008"
     inkscape:window-x="0"
     inkscape:window-y="0"
     inkscape:window-maximized="1"
     inkscape:current-layer="Warstwa_1" />
  <defs
     id="defs1">
    <rect
       x="214.76266"
       y="223.35316"
       width="684.37701"
       height="51.543037"
       id="rect17" />
    <style
       id="style1">
      .cls-1 {
        fill: #ed6c29;
      }
    </style>
  </defs>
  <!-- Generator: Adobe Illustrator 28.7.1, SVG Export Plug-In . SVG Version: 1.2.0 Build 142)  -->
  <g
     id="g16"
     transform="translate(-21.981576,-22.1)">
    <g
       id="Warstwa_1">
      <path
         d="m 234.04707,260.68688 -7.38134,-12.45868 h -5.50401 v 12.45868 h -2.98667 v -29.82403 h 8.96001 q 4.99201,0 7.55201,2.38934 2.60267,2.38933 2.60267,6.272 0,3.24267 -1.87734,5.54668 -1.83467,2.26133 -5.46134,2.944 l 7.68001,12.67201 z M 221.16172,245.7962 h 6.01601 q 3.49867,0 5.248,-1.70667 1.792,-1.70667 1.792,-4.56534 0,-2.944 -1.70666,-4.52267 -1.70667,-1.62133 -5.37601,-1.62133 h -5.97334 z m 32.25602,15.23201 q -3.28533,0 -5.93067,-1.45067 -2.60267,-1.49333 -4.13867,-4.18133 -1.49333,-2.73067 -1.49333,-6.35734 0,-3.62667 1.536,-6.31467 1.536,-2.73067 4.18134,-4.18134 2.64533,-1.49333 5.93067,-1.49333 3.28533,0 5.93067,1.49333 2.688,1.45067 4.18133,4.18134 1.536,2.688 1.536,6.31467 0,3.584 -1.536,6.31467 -1.536,2.73067 -4.224,4.224 -2.688,1.45067 -5.97334,1.45067 z m 0,-2.60267 q 2.304,0 4.26667,-1.024 1.96267,-1.06667 3.15734,-3.15733 1.23733,-2.13334 1.23733,-5.20534 0,-3.072 -1.19466,-5.16267 -1.19467,-2.13334 -3.15734,-3.15734 -1.96267,-1.06667 -4.26667,-1.06667 -2.304,0 -4.26667,1.06667 -1.96267,1.024 -3.15734,3.15734 -1.152,2.09067 -1.152,5.16267 0,3.072 1.152,5.20534 1.19467,2.09066 3.11467,3.15733 1.96267,1.024 4.26667,1.024 z m 25.47203,-0.64 7.85067,-20.39468 h 3.15734 l -9.34401,23.29602 h -3.37067 l -9.344,-23.29602 h 3.2 z m 36.13873,-9.94134 q 0,1.536 -0.0853,2.34667 h -19.32801 q 0.128,2.64533 1.28,4.52267 1.152,1.87733 3.02933,2.85867 1.87734,0.93867 4.09601,0.93867 2.90133,0 4.864,-1.40801 2.00533,-1.408 2.64533,-3.79733 h 3.15734 q -0.85333,3.41333 -3.66934,5.58934 -2.77333,2.13333 -6.99733,2.13333 -3.28534,0 -5.88801,-1.45067 -2.60267,-1.49333 -4.096,-4.18133 -1.45067,-2.73067 -1.45067,-6.35734 0,-3.62667 1.45067,-6.35734 1.45067,-2.73067 4.05333,-4.18134 2.60267,-1.45066 5.93068,-1.45066 3.328,0 5.80267,1.45066 2.51733,1.45067 3.84,3.92534 1.36533,2.432 1.36533,5.41867 z m -3.02933,-0.0853 q 0.0427,-2.60267 -1.06667,-4.43734 -1.06667,-1.83467 -2.944,-2.77333 -1.87734,-0.93867 -4.096,-0.93867 -3.32801,0 -5.67468,2.13333 -2.34666,2.13334 -2.60266,6.01601 z m 11.47733,-6.22934 q 0.98133,-2.176 2.98667,-3.37067 2.048,-1.19467 4.992,-1.19467 v 3.11467 h -0.81067 q -3.24267,0 -5.20533,1.74934 -1.96267,1.74933 -1.96267,5.84533 v 13.01335 h -2.98667 v -23.29602 h 2.98667 z m 22.784,4.224 q 0,-4.39467 1.92,-7.85067 1.92,-3.49867 5.248,-5.41867 3.328,-1.96267 7.42401,-1.96267 4.992,0 8.53334,2.38934 3.584,2.34666 5.20533,6.656 h -3.49867 q -1.28,-3.02933 -3.92533,-4.736 -2.60267,-1.70667 -6.31467,-1.70667 -3.28534,0 -5.93067,1.536 -2.60267,1.536 -4.09601,4.43734 -1.49333,2.85867 -1.49333,6.656 0,3.79734 1.49333,6.65601 1.49334,2.85867 4.09601,4.39467 2.64533,1.536 5.93067,1.536 3.712,0 6.31467,-1.664 2.64533,-1.70667 3.92533,-4.69334 h 3.49867 q -1.62133,4.26667 -5.20533,6.61334 -3.58401,2.34667 -8.53334,2.34667 -4.09601,0 -7.42401,-1.92 -3.328,-1.96267 -5.248,-5.41868 -1.92,-3.456 -1.92,-7.85067 z m 44.4587,15.27468 q -3.28534,0 -5.93067,-1.45067 -2.60267,-1.49333 -4.13867,-4.18133 -1.49334,-2.73067 -1.49334,-6.35734 0,-3.62667 1.536,-6.31467 1.536,-2.73067 4.18134,-4.18134 2.64533,-1.49333 5.93067,-1.49333 3.28534,0 5.93067,1.49333 2.688,1.45067 4.18134,4.18134 1.536,2.688 1.536,6.31467 0,3.584 -1.536,6.31467 -1.536,2.73067 -4.224,4.224 -2.68801,1.45067 -5.97334,1.45067 z m 0,-2.60267 q 2.304,0 4.26667,-1.024 1.96267,-1.06667 3.15733,-3.15733 1.23734,-2.13334 1.23734,-5.20534 0,-3.072 -1.19467,-5.16267 -1.19467,-2.13334 -3.15734,-3.15734 -1.96266,-1.06667 -4.26667,-1.06667 -2.304,0 -4.26667,1.06667 -1.96266,1.024 -3.15733,3.15734 -1.152,2.09067 -1.152,5.16267 0,3.072 1.152,5.20534 1.19467,2.09066 3.11467,3.15733 1.96267,1.024 4.26667,1.024 z m 28.11736,-21.46135 q 4.18134,0 6.82667,2.60267 2.64534,2.56 2.64534,7.46667 v 13.65335 h -2.94401 v -13.31201 q 0,-3.79734 -1.92,-5.80267 -1.87733,-2.00534 -5.16267,-2.00534 -3.37067,0 -5.376,2.13334 -2.00534,2.13333 -2.00534,6.272 v 12.71468 h -2.98666 v -23.29602 h 2.98666 v 3.968 q 1.10934,-2.13333 3.20001,-3.24267 2.09066,-1.152 4.736,-1.152 z m 19.96799,2.944 v 14.46402 q 0,2.13333 0.81067,2.944 0.81066,0.81066 2.85867,0.81066 h 2.73067 v 2.56001 h -3.20001 q -3.15733,0 -4.69333,-1.45067 -1.53601,-1.49334 -1.53601,-4.864 v -14.46402 h -3.24266 v -2.51733 h 3.24266 v -5.84534 h 3.02934 v 5.84534 h 6.40001 v 2.51733 z m 14.29338,1.62134 q 0.98133,-2.176 2.98667,-3.37067 2.048,-1.19467 4.992,-1.19467 v 3.11467 h -0.81067 q -3.24267,0 -5.20534,1.74934 -1.96266,1.74933 -1.96266,5.84533 v 13.01335 h -2.98667 v -23.29602 h 2.98667 z m 22.656,19.49868 q -3.28534,0 -5.93067,-1.45067 -2.60267,-1.49333 -4.13867,-4.18133 -1.49334,-2.73067 -1.49334,-6.35734 0,-3.62667 1.536,-6.31467 1.536,-2.73067 4.18134,-4.18134 2.64533,-1.49333 5.93067,-1.49333 3.28534,0 5.93067,1.49333 2.688,1.45067 4.18134,4.18134 1.536,2.688 1.536,6.31467 0,3.584 -1.536,6.31467 -1.536,2.73067 -4.22401,4.224 -2.688,1.45067 -5.97333,1.45067 z m 0,-2.60267 q 2.304,0 4.26667,-1.024 1.96266,-1.06667 3.15733,-3.15733 1.23734,-2.13334 1.23734,-5.20534 0,-3.072 -1.19467,-5.16267 -1.19467,-2.13334 -3.15734,-3.15734 -1.96267,-1.06667 -4.26667,-1.06667 -2.304,0 -4.26667,1.06667 -1.96266,1.024 -3.15733,3.15734 -1.152,2.09067 -1.152,5.16267 0,3.072 1.152,5.20534 1.19467,2.09066 3.11467,3.15733 1.96266,1.024 4.26667,1.024 z m 20.18135,-29.31202 v 31.57336 h -2.98667 v -31.57336 z m 35.75471,24.49068 h -13.56801 l -2.60267,7.08268 h -3.15733 l 10.88001,-29.44003 h 3.37066 L 537.45,260.68688 h -3.15734 z m -0.896,-2.47466 -5.888,-16.12802 -5.88801,16.12802 z m 14.37869,-8.61868 q 1.10933,-2.34667 3.49867,-3.88267 2.432,-1.57866 5.76,-1.57866 3.15734,0 5.67467,1.49333 2.56,1.45067 3.968,4.18134 1.45067,2.688 1.45067,6.272 0,3.584 -1.45067,6.31467 -1.408,2.73067 -3.968,4.22401 -2.51733,1.49333 -5.67467,1.49333 -3.28534,0 -5.71734,-1.536 -2.432,-1.57867 -3.54133,-3.92534 v 16.12801 h -2.94401 v -34.30402 h 2.94401 z m 17.32268,6.48534 q 0,-2.90133 -1.15201,-4.992 -1.10933,-2.13334 -3.072,-3.24267 -1.96267,-1.10934 -4.43733,-1.10934 -2.38934,0 -4.39467,1.15201 -1.96267,1.152 -3.11467,3.28533 -1.152,2.13334 -1.152,4.94934 0,2.816 1.152,4.94934 1.152,2.13333 3.11467,3.28533 2.00533,1.152 4.39467,1.152 2.47466,0 4.43733,-1.10933 1.96267,-1.152 3.072,-3.28534 1.15201,-2.176 1.15201,-5.03467 z m 11.4773,-6.48534 q 1.10934,-2.34667 3.49867,-3.88267 2.43201,-1.57866 5.76001,-1.57866 3.15733,0 5.67467,1.49333 2.56,1.45067 3.968,4.18134 1.45067,2.688 1.45067,6.272 0,3.584 -1.45067,6.31467 -1.408,2.73067 -3.968,4.22401 -2.51734,1.49333 -5.67467,1.49333 -3.28534,0 -5.71734,-1.536 -2.432,-1.57867 -3.54134,-3.92534 v 16.12801 h -2.944 v -34.30402 h 2.944 z m 17.32268,6.48534 q 0,-2.90133 -1.152,-4.992 -1.10933,-2.13334 -3.072,-3.24267 -1.96267,-1.10934 -4.43734,-1.10934 -2.38933,0 -4.39467,1.15201 -1.96266,1.152 -3.11467,3.28533 -1.152,2.13334 -1.152,4.94934 0,2.816 1.152,4.94934 1.15201,2.13333 3.11467,3.28533 2.00534,1.152 4.39467,1.152 2.47467,0 4.43734,-1.10933 1.96267,-1.152 3.072,-3.28534 1.152,-2.176 1.152,-5.03467 z"
         id="text17"
         style="font-weight:300;font-size:42.6667px;font-family:Poppins;-inkscape-font-specification:'Poppins, Light';white-space:pre;fill:#ed6c29;stroke-width:0"
         transform="matrix(1.692562,0,0,1.692562,15.077378,-185.00161)"
         aria-label="Rover Control App" />
      <g
         id="g17">
        <path
           class="cls-1"
           d="M 1089.7,81 V 40.3 h 8.3 v 33.4 h 13.8 V 81 Z"
           id="path9" />
        <path
           class="cls-1"
           d="M 1055,81 V 40.3 h 17.6 c 7.3,0 11.2,5.1 11.2,12.8 0,7.7 -3.9,12.8 -11.2,12.8 h -9.3 v 15 h -8.3 z m 8.4,-22.4 h 8.2 c 2.2,0 3.6,-1 3.6,-3.8 v -3.5 c 0,-2.7 -1.4,-3.8 -3.6,-3.8 h -8.2 z"
           id="path8" />
      </g>
      <g
         id="g7">
        <path
           class="cls-1"
           d="M 378.1,77.8 C 385.7,67.5 395,62.2 406,61.6 v 21.1 c -7.4,0.4 -13.3,2.8 -17.6,7.2 -6.6,6.5 -10,14.3 -10.3,23.3 V 165 H 357.8 V 64.2 h 20.3 z"
           id="path1" />
        <path
           class="cls-1"
           d="m 513.2,71.3 v -7.1 h 20.4 v 100.9 h -20.4 v -12.6 c -9.8,10.1 -21.2,15.2 -34.1,15.2 -12.9,0 -28.6,-5.4 -39.4,-16.3 -10.9,-10.9 -16.3,-24 -16.3,-39.4 0,-15.4 5.4,-28.6 16.3,-39.4 10.9,-10.9 24,-16.3 39.4,-16.3 15.4,0 24.3,5 34.1,15.1 z m 0,48.1 v -14.9 c -1.2,-6.3 -4.3,-12.1 -9.4,-17.2 -6.9,-6.8 -15.1,-10.2 -24.7,-10.2 -9.6,0 -17.9,3.4 -24.7,10.2 -6.8,6.8 -10.2,15 -10.2,24.7 0,9.7 3.4,17.8 10.2,24.6 6.8,6.8 15.1,10.2 24.7,10.2 9.6,0 17.8,-3.4 24.7,-10.2 5.1,-5.2 8.2,-10.9 9.4,-17.2 z"
           id="path2" />
        <path
           class="cls-1"
           d="m 585.3,152.5 v 46.4 H 565 V 64.2 h 20.3 v 9.1 c 9.8,-11.5 21.2,-17.2 34.2,-17.2 13,0 28.6,5.4 39.4,16.3 10.9,10.9 16.3,24 16.3,39.4 0,15.4 -5.4,28.6 -16.3,39.5 -10.9,10.9 -24,16.4 -39.4,16.4 -15.4,0 -24.4,-5.1 -34.2,-15.2 z m 0,-48.5 v 15.8 c 1.2,6.2 4.4,11.8 9.5,16.9 6.8,6.8 15,10.2 24.7,10.2 9.7,0 17.9,-3.4 24.7,-10.2 6.8,-6.8 10.2,-15.1 10.2,-24.7 0,-9.6 -3.4,-17.8 -10.2,-24.7 C 637.4,80.4 629.1,77 619.5,77 c -9.6,0 -17.9,3.4 -24.7,10.3 -5.1,5 -8.3,10.6 -9.5,16.9 z"
           id="path3" />
        <path
           class="cls-1"
           d="M 712,64.2 V 26.4 h 20.3 v 37.8 h 18.1 V 84.5 H 732.3 V 165 H 712 V 84.5 H 693.9 V 64.2 Z"
           id="path4" />
        <path
           class="cls-1"
           d="m 823.9,56 c 15.4,0 28.6,5.5 39.4,16.4 10.9,10.9 16.3,24.1 16.3,39.5 0,15.4 -5.4,28.6 -16.3,39.5 -10.9,10.9 -24,16.4 -39.4,16.4 -15.4,0 -28.5,-5.5 -39.4,-16.4 -10.9,-10.9 -16.4,-24.1 -16.4,-39.5 0,-15.4 5.5,-28.6 16.4,-39.5 10.9,-10.9 24,-16.4 39.4,-16.4 z m -24.8,31.1 c -6.8,6.9 -10.2,15.1 -10.2,24.7 0,9.6 3.4,17.9 10.2,24.7 6.8,6.8 15.1,10.2 24.7,10.2 9.6,0 17.9,-3.4 24.7,-10.2 6.8,-6.8 10.2,-15 10.2,-24.7 0,-9.7 -3.4,-17.8 -10.2,-24.7 -6.8,-6.9 -15.1,-10.3 -24.7,-10.3 -9.6,0 -17.9,3.4 -24.7,10.3 z"
           id="path5" />
        <path
           class="cls-1"
           d="M 923.4,77.8 C 931,67.5 940.3,62.2 951.3,61.6 v 21.1 c -7.4,0.4 -13.3,2.8 -17.6,7.2 -6.6,6.5 -10,14.3 -10.3,23.3 V 165 H 903.1 V 64.2 h 20.3 z"
           id="path6" />
        <path
           class="cls-1"
           d="m 993.4,143.4 c 2.4,2.4 5.3,3.5 8.6,3.5 3.3,0 6.2,-1.2 8.6,-3.5 2.4,-2.4 3.6,-5.3 3.6,-8.7 0,-3.4 -1.2,-6.2 -3.5,-8.5 -1.6,-1.6 -5.1,-4.1 -10.5,-7.5 -7.3,-4 -12.5,-7.5 -15.6,-10.6 -5.4,-5.4 -8,-11.8 -8,-19.3 0,-7.5 2.7,-14.1 8,-19.5 5.4,-5.4 11.8,-8.1 19.4,-8.1 7.6,0 13.9,2.5 18.9,7.6 3.6,3.6 5.9,7.6 6.9,12.1 l -19.7,5.7 c -0.5,-1.6 -0.9,-2.7 -1.4,-3.2 -1.2,-1.2 -2.7,-1.8 -4.7,-1.8 -2,0 -3.6,0.7 -5,2.1 -1.4,1.4 -2.1,3.1 -2.1,5 0,1.9 0.7,3.6 2.1,5 1.2,1.2 4,3.2 8.4,6 8.1,4.4 14,8.5 17.6,12.2 6.3,6.4 9.5,14 9.5,22.8 0,8.8 -3.2,16.7 -9.5,23.1 -6.3,6.4 -14,9.6 -23,9.6 -9,0 -16.6,-3.2 -22.9,-9.6 -4.4,-4.4 -7.3,-9.8 -8.6,-16.4 l 20.2,-4.3 c 0.6,3 1.5,5.1 2.7,6.4 z"
           id="path7" />
      </g>
      <g
         id="g15">
        <path
           class="cls-1"
           d="m 22.1,84.8 c -0.6,-2.3 1.2,-4.8 2.7,-6.5 6.8,-6.6 16.9,-5.6 25.1,-9.4 1.9,-0.7 3.8,-1.4 5.7,-2.1 1.4,-0.4 2.4,-0.2 3.7,-0.5 1.2,-0.2 2.2,-1.1 3.4,-1.2 0.8,0 1.5,0.2 2.2,0.5 3.8,1 8.1,1.1 11.9,2.4 13,0.3 23.9,5.7 31.2,16.7 2.3,4.4 3.4,9.3 4.4,14 0.9,4.6 1.1,9.3 2.2,14 0.9,2.3 2.4,9.1 5.7,6 3.3,-4.3 2.5,-10.1 3.5,-15.4 0.7,-6 2.8,-11.8 6,-16.8 2.6,-4.5 5.6,-8.9 9.3,-12.6 2.2,-2.7 4.1,-5.4 7,-7.5 5.3,-4 12.3,-3.5 18.3,-1.1 1.9,0.8 3.3,1.8 5.4,1.9 2.4,0.3 5.9,-0.4 8.1,0.6 1,0.5 1.8,1.9 2.6,2.9 2.6,3.4 5.1,6 8,9.2 4.7,6.3 8.9,12.6 12.7,19.6 2.6,5.5 4.4,11 6.9,16.5 0.9,2.3 2.4,4.6 3.3,6.8 0.8,1.8 0.2,4.4 2.3,5.1 1,0.4 2.4,0.5 3.3,1 1.9,1.2 2.9,3.1 4.1,5 1.8,3.1 3.6,6.2 4.9,9.7 4.7,14.5 13.4,7 13.9,22.5 0.2,8.5 4.6,15.8 8.5,23 1.9,3 1.9,7 3.5,10.3 0.7,2.6 6,9 2.4,10.2 -2.6,0 -6.2,0.1 -7.9,-2.2 -0.7,-1.1 -0.7,-2.6 -1.3,-3.8 -0.4,-0.8 -1.2,-1.2 -2,-0.9 -0.7,0.3 -1.1,1.1 -1.3,2.1 -0.4,1.7 -0.9,3.7 -2.4,4.8 -2.5,1.5 -7.3,2.2 -9.9,0.8 -0.7,-0.5 -1.3,-1.2 -2,-1.7 -1,-0.8 -2.6,-0.9 -3.4,-2.1 -1.6,-2.4 -1.9,-5.3 -1.8,-8.2 0.4,-2.5 2,-4.7 1.9,-7.4 0.4,-3.1 -1.7,-6 -0.5,-9 0.3,-0.7 1,-0.8 1.6,-0.6 0.6,0.1 1.2,0.4 1.4,0 1,-3 0.5,-6.4 -0.4,-9.2 -0.5,-1.3 -1.4,-2.5 -1.9,-3.8 -0.6,-1.4 -0.5,-3 -1.1,-4.4 -0.7,-2.1 -3.2,-3.7 -4.7,-5.3 -2,-2 -4.5,-4.6 -6.5,-6.4 -1,-0.9 -2.2,-1.4 -3.6,-2 -2.2,-0.9 -4.1,-2.6 -5.9,-4.1 -1,-0.9 -1.6,-2.1 -1.9,-3.5 -0.5,-2.2 -1.9,-3.9 -3.6,-5.4 -4.6,-4.8 -13.4,-5.1 -18.5,-1 -2.2,1.9 1.2,3.5 1.8,5.4 1.9,4.3 -0.3,9.3 -3.8,12 -3.5,3.4 -8.2,6.4 -9.5,11.2 0,2.7 0.7,4.2 0.5,7.3 0.2,7.2 -1.1,14.4 -0.9,21.7 -0.1,1.1 -0.9,1.9 -2,1.7 -3.5,-1.3 -0.9,-9.5 -1.5,-12.4 -1.5,-3.7 -2,11.7 -2.2,12.4 0,1.8 -1.7,3.6 -3.3,2 -1.1,-1 -0.7,-3.2 -0.7,-5 0,-3.2 0,-6.5 0.2,-9.6 0.1,-1.8 0.5,-6.4 -1.5,-2.3 -1.2,2.7 -3.2,5.3 -4.1,8.1 -0.3,1.1 -0.9,3.1 -2.3,2.2 -2.5,-2.6 -0.6,-6.7 1.1,-9.8 1.5,-2.5 2.4,-4.8 3.3,-7.8 1.3,-2.7 1.5,-5.5 1.9,-8.4 1.3,-3.7 4,-7.2 5.7,-10.7 1,-2.3 3.1,-5.2 3.5,-7.8 0.1,-2.7 -3.7,-3.6 -5.7,-2.4 -0.8,0.5 -1.3,1.4 -1.9,2.1 -1.7,2.3 -4,3.9 -6.2,5.8 -4.6,3.2 -10.6,5.1 -15.5,8.1 -4.6,3.4 -1.6,10.9 -4,15.4 -4.3,7.5 1.9,5.8 0.5,8.5 -0.9,0.9 -1.8,1.3 -0.3,1.8 3.6,0.4 7.1,-1.2 10.2,-2.8 1,-0.4 1.7,-0.1 1.6,0.8 -0.5,2.8 -3.5,4.3 -5.5,6.1 -2.4,2.4 -5.8,1.4 -8.8,1.7 -9.5,1.5 -7.4,-13 -6,-18.6 0.5,-1.5 1.8,-2.6 2.3,-4.2 0.8,-4 0.9,-9 2.9,-12.5 0.3,-1.6 13.8,-9.3 11,-9.6 -6.6,-0.5 -14.3,0 -21,-0.7 -7.5,-1.2 -14.9,-3.4 -20.8,-8.1 -7.2,-5.5 -11.2,-13.9 -18.2,-19.7 -2.6,-2.3 -5,-4.8 -7.7,-6.9 -5.8,-3.7 -12.5,-5.3 -19.3,-7.1 -7.2,-2.3 -14.6,-2.3 -22.1,-2.2 -3.1,0 -6.9,-3.4 -7.6,-6.5 -0.7,-3.1 -0.3,-1.3 1.1,-1.6 2.3,-0.5 1.6,-7.3 0.7,-8.2 l -0.4,-0.2 -1.4,-0.3 c -0.3,0 -0.6,-0.3 -0.7,-0.7 z"
           id="path10" />
        <path
           class="cls-1"
           d="m 114.5,94.3 c 0.5,-2.2 2.1,-3.9 3.5,-5.7 2.3,-2.6 4.9,-5.8 8.4,-7.2 0.9,-0.4 1.9,-0.7 2.9,-0.7 0.4,0 0.6,0.1 0.6,0.3 0,0.8 -1.1,1.7 -1.4,2.4 -1.3,1.9 -2.3,3.6 -3.5,5.9 -2.1,4.1 -3.7,8.4 -4.3,13.1 -0.4,3.1 -0.8,5.9 -1.4,8.9 -0.4,2.1 -1.6,1.5 -2.2,-0.2 -1.5,-5.5 -1.4,-11.2 -2.6,-16.7 v -0.2 z"
           id="path11" />
        <path
           class="cls-1"
           d="m 182.4,67.2 c 5.9,-1.8 11.6,-3.9 17.4,-5.9 4.7,-2 9.9,-4.6 14.7,-6.8 3.4,-1.7 6.8,-4 10,-6.1 4.5,-3 9.6,-5.5 14.2,-8.3 7.9,-4.7 15.8,-8.8 24.7,-11.4 10.4,-4 21.4,-6.1 32.6,-6.6 2.4,0 5.4,0 7.9,0 2.1,0 4.8,0.3 6.3,1.9 0.2,0.3 0,0.6 -0.4,0.7 -3.4,0.5 -7.2,0.6 -10.5,1 -14.7,1.1 -28.7,5.7 -41.9,11.9 -10.5,6.2 -20.6,13.2 -28.7,22.4 -3.1,3.4 -6.3,6.5 -9.6,9.7 -3.7,3.9 -7.6,7.7 -12.1,10.7 -2.7,1.9 -5.4,3.9 -7.9,5.9 -0.4,0.3 -0.9,0.7 -1.4,0.6 -1.1,-0.2 -1.7,-1.5 -2.3,-2.4 -1.7,-2.6 -3.4,-5.1 -5.2,-7.6 -1.7,-1.9 -5.1,-5.9 -7.3,-8.4 -0.6,-0.6 -0.8,-1 -0.6,-1.2 v 0 z"
           id="path12" />
        <path
           class="cls-1"
           d="m 98.5,144.5 c 2,3 4.4,5.7 6.8,8.4 2.3,2.8 4.8,5.9 7.3,8.7 1.4,1.7 3.1,3.2 4.5,4.7 1.7,1.8 4.7,5.4 5.4,0.7 0.6,-4.8 1.3,-9.7 4.5,-13.4 0.4,-0.8 3,-3.1 0.9,-3 -10.1,0.5 -20.3,-2 -29.2,-6.7"
           id="path13" />
        <path
           class="cls-1"
           d="m 138,164.4 c 2.2,2.4 3.1,5.8 4.3,8.9 1.1,3.1 1.3,5.9 -2,7.6 -1.2,0.6 -3,1.5 -4.2,1.6 -0.7,0 -0.6,-0.9 -0.8,-1.4 -0.2,-0.6 -0.6,-1 -1,-1.4 -0.5,-0.4 -0.9,-0.7 -0.8,-1.1 0.9,-1.6 2.6,-3 3,-4.8 0.7,-2.8 0.3,-5.7 0.3,-8.5 0,-0.7 0.2,-1.7 1.1,-1 h 0.1 z"
           id="path14" />
        <path
           class="cls-1"
           d="m 118.2,182.3 c -1,-0.2 -1.9,0.7 -2.9,1.1 -1.3,0.6 -2.6,1.4 -3.8,2 -2.2,1 -7.1,2.8 -6.5,-1.3 0.4,-2.6 -0.4,-5.2 -2.6,-6.9 -1.6,-1.3 -3.7,-2.7 -5.8,-2.9 -0.9,0 -1.7,0.2 -0.9,1.1 3.8,2.8 6.5,9 1,11.6 -2.8,1.1 -6.5,0.4 -7.9,3.8 -0.7,1.3 -0.5,3.1 -1.5,3.9 -0.6,0.6 -1.6,0.8 -2.4,1 -4.1,1 -18.8,6 -18.3,10.9 0.7,0.9 2.3,0.4 3.3,0.6 5.4,0.9 11.1,0.3 16.4,0.5 1.1,0 2.4,-0.2 3.8,-0.8 1.4,-0.7 2.6,-1.5 4.2,-1.5 2.5,0 4.4,1.6 7.1,1.2 3.6,0.1 7,-1.8 10.5,-2.2 0.7,0 1.2,0.4 1.6,1 0.7,1.1 2.1,1.4 3.4,1 2.2,-0.7 3.2,-2.9 4.6,-4.6 8.1,-10.5 -0.7,-2.6 -2.3,-15.8 -0.3,-1.2 0,-2.8 -0.7,-3.7 v 0 z"
           id="path15" />
      </g>
    </g>
  </g>
</svg>
