<?xml version="1.0" encoding="UTF-8" standalone="no"?>
<svg
   version="1.1"
   viewBox="0 0 1266 831"
   width="1266"
   height="831"
   id="svg6"
   xmlns="http://www.w3.org/2000/svg"
   xmlns:svg="http://www.w3.org/2000/svg">
  <defs
     id="defs6" />
  <path
     d="m 575,182 h 22 l 16,3 16,6 8,4 7,2 34,1 8,3 5,4 12,16 13,15 11,12 9,11 13,18 17,26 8,13 10,17 8,16 13,32 12,29 8,17 8,16 4,17 3,3 16,5 9,7 11,17 12,21 9,20 6,15 6,11 11,12 20,14 9,9 5,11 3,13 2,26 4,20 7,20 13,27 12,22 4,8 4,13 6,21 9,19 7,14 1,3 v 9 l -5,4 h -12 l -13,-2 -8,-5 -4,-5 -5,-15 -3,-3 -6,1 -3,5 -5,16 -5,7 -11,5 -16,3 -12,-1 -7,-3 -10,-8 -10,-5 -6,-7 -4,-10 -1,-4 v -23 l 7,-20 1,-13 -3,-16 -1,-6 v -8 l 3,-7 1,-1 10,1 2,-5 1,-6 v -11 l -3,-15 -4,-10 -6,-12 -4,-17 -3,-6 -9,-10 -8,-7 -29,-29 -10,-6 -16,-8 -14,-11 -7,-8 -4,-11 -6,-12 -5,-5 v -2 l -4,-2 -9,-8 -16,-7 -15,-2 -15,1 -13,4 -10,5 -5,5 1,7 9,12 3,9 v 15 l -4,12 -7,11 -12,12 -8,7 -10,9 -10,10 -8,14 -1,3 v 12 l 1,10 v 35 l -3,46 -1,27 -3,6 -2,1 h -6 l -5,-6 -2,-8 v -12 l 1,-9 v -20 l -2,-1 -3,21 -3,38 -3,6 -4,3 -7,-1 -4,-5 -1,-5 1,-54 v -18 l -4,4 -12,23 -6,12 -4,10 -4,4 -5,-2 -3,-4 -1,-3 v -14 l 4,-11 14,-27 7,-20 4,-13 4,-24 8,-16 15,-26 14,-27 2,-7 v -7 l -4,-5 -9,-3 -8,1 -6,4 -10,13 -13,12 -12,9 -16,9 -27,13 -16,8 -9,6 -5,7 -3,12 -2,32 -3,12 -6,12 -1,4 v 8 l 5,6 4,4 -1,5 -3,3 -1,4 h 13 l 16,-4 16,-7 6,-2 3,2 v 7 l -4,6 -4,5 -14,11 -8,6 -7,2 -36,1 -8,-3 -5,-4 -6,-12 -2,-9 v -28 l 3,-19 3,-11 8,-13 6,-36 4,-14 5,-10 14,-11 16,-11 12,-9 4,-2 1,-5 -17,-1 -59,-1 -21,-2 -23,-5 -20,-6 -15,-6 -18,-10 -12,-9 -10,-9 -6,-5 -7,-8 -11,-13 -11,-14 -13,-16 -14,-15 -10,-9 -8,-7 -7,-7 -8,-7 -13,-9 -16,-8 -15,-6 -26,-8 -33,-9 -21,-4 -25,-2 -44,-1 -10,-4 -8,-6 -8,-9 -4,-8 v -8 l 5,-2 h 3 l 3,-10 V 292 L 11,282 1,278 0,277 v -11 l 6,-12 6,-8 13,-10 17,-8 15,-5 44,-10 17,-6 30,-11 16,-2 13,-5 h 7 l 16,4 29,5 12,3 22,2 21,4 16,5 12,5 14,7 15,10 13,11 9,9 11,14 6,9 8,20 5,17 7,34 5,36 3,16 6,16 5,8 4,3 6,-1 6,-8 5,-13 3,-18 3,-30 5,-25 8,-24 13,-25 12,-19 12,-17 13,-15 10,-11 8,-10 15,-15 11,-7 12,-5 z"
     fill="#f76811"
     id="path1" />
  <path
     d="m 1190,0 h 60 l 12,4 4,3 v 4 l -12,2 -54,5 -36,6 -34,8 -31,10 -22,8 -24,10 -20,9 -23,14 -21,14 -14,10 -16,12 -14,12 -10,9 -12,11 -15,16 -7,8 -62,62 -14,11 -12,9 -13,9 -17,13 -8,6 -7,-1 -7,-9 -7,-11 -14,-20 -9,-11 -10,-11 -9,-11 -8,-9 v -4 l 36,-12 37,-13 25,-11 27,-13 18,-8 14,-8 44,-28 27,-15 27,-16 25,-14 16,-8 19,-9 23,-9 36,-12 20,-6 28,-7 36,-6 z"
     fill="#f76811"
     id="path2" />
  <path
     d="m 323,669 h 9 l 9,4 11,7 7,7 4,7 2,8 v 16 l 4,4 h 9 l 14,-5 26,-13 h 5 l 2,4 3,22 4,12 6,10 11,9 2,2 -1,7 -6,10 -16,21 -4,5 -10,5 -9,-1 -5,-5 -3,-2 h -9 l -31,8 h -20 l -14,-4 h -12 l -19,8 -6,1 h -61 l -26,-2 -4,-2 v -7 l 4,-6 10,-9 16,-9 13,-6 24,-9 20,-6 5,-2 3,-11 3,-8 6,-7 11,-4 17,-4 8,-5 4,-6 1,-3 v -10 l -4,-11 -7,-9 -7,-7 z"
     fill="#f76811"
     id="path3" />
  <path
     d="m 337,535 5,2 20,9 17,6 21,6 22,4 21,2 h 24 l 2,3 -4,7 -9,12 -5,10 -5,16 -5,29 -3,5 -1,1 h -5 l -8,-6 -18,-18 -7,-8 -11,-12 -9,-11 -12,-14 -6,-8 -5,-5 -12,-14 -8,-11 z"
     fill="#f76811"
     id="path4" />
  <path
     d="m 465,258 h 9 l -1,5 -10,15 -8,13 -9,19 -7,19 -5,23 -4,27 -3,17 -2,2 -5,-1 -4,-9 -5,-29 -3,-27 -2,-11 v -6 l 6,-11 10,-13 11,-12 11,-11 10,-6 z"
     fill="#f76811"
     id="path5" />
  <path
     d="m 505,624 5,1 7,10 7,16 6,18 1,4 v 13 l -5,8 -9,6 -12,5 h -6 l -5,-10 -5,-5 1,-5 10,-14 2,-6 1,-9 v -29 z"
     fill="#f76811"
     id="path6" />
</svg>
