<?xml version="1.0" encoding="UTF-8" standalone="no"?>
<svg
   version="1.1"
   viewBox="0 0 2000 2000"
   width="2000"
   height="2000"
   id="svg20"
   sodipodi:docname="RAPpl_rca_standard_BG.svg"
   inkscape:version="1.4.2 (unknown)"
   inkscape:export-filename="RAPpl_rca_standard_BG.png"
   inkscape:export-xdpi="96"
   inkscape:export-ydpi="96"
   xmlns:inkscape="http://www.inkscape.org/namespaces/inkscape"
   xmlns:sodipodi="http://sodipodi.sourceforge.net/DTD/sodipodi-0.dtd"
   xmlns="http://www.w3.org/2000/svg"
   xmlns:svg="http://www.w3.org/2000/svg">
  <defs
     id="defs20">
    <rect
       x="297.19854"
       y="1534.7138"
       width="1503.0451"
       height="294.76248"
       id="rect20" />
  </defs>
  <sodipodi:namedview
     id="namedview20"
     pagecolor="#ffffff"
     bordercolor="#000000"
     borderopacity="0.25"
     inkscape:showpageshadow="2"
     inkscape:pageopacity="0.0"
     inkscape:pagecheckerboard="0"
     inkscape:deskcolor="#d1d1d1"
     showguides="true"
     inkscape:zoom="0.31320094"
     inkscape:cx="461.36515"
     inkscape:cy="991.37633"
     inkscape:window-width="1680"
     inkscape:window-height="978"
     inkscape:window-x="0"
     inkscape:window-y="0"
     inkscape:window-maximized="1"
     inkscape:current-layer="svg20" />
  <path
     d="m0 0h2e3v2e3h-2e3z"
     fill="#101010"
     id="path1" />
  <path
     d="m 316.48457,1572.0463 -7.38134,-12.4587 h -5.50401 v 12.4587 h -2.98667 v -29.8241 h 8.96001 q 4.99201,0 7.55201,2.3894 2.60267,2.3893 2.60267,6.272 0,3.2426 -1.87734,5.5466 -1.83467,2.2614 -5.46134,2.944 l 7.68001,12.6721 z m -12.88535,-14.8907 h 6.01601 q 3.49867,0 5.248,-1.7067 1.792,-1.7067 1.792,-4.5653 0,-2.944 -1.70666,-4.5227 -1.70667,-1.6213 -5.37601,-1.6213 h -5.97334 z m 32.25602,15.232 q -3.28533,0 -5.93067,-1.4507 -2.60267,-1.4933 -4.13867,-4.1813 -1.49333,-2.7307 -1.49333,-6.3574 0,-3.6266 1.536,-6.3146 1.536,-2.7307 4.18134,-4.1814 2.64533,-1.4933 5.93067,-1.4933 3.28533,0 5.93067,1.4933 2.688,1.4507 4.18133,4.1814 1.536,2.688 1.536,6.3146 0,3.584 -1.536,6.3147 -1.536,2.7307 -4.224,4.224 -2.688,1.4507 -5.97334,1.4507 z m 0,-2.6027 q 2.304,0 4.26667,-1.024 1.96267,-1.0667 3.15734,-3.1573 1.23733,-2.1334 1.23733,-5.2054 0,-3.072 -1.19466,-5.1626 -1.19467,-2.1334 -3.15734,-3.1574 -1.96267,-1.0666 -4.26667,-1.0666 -2.304,0 -4.26667,1.0666 -1.96267,1.024 -3.15734,3.1574 -1.152,2.0906 -1.152,5.1626 0,3.072 1.152,5.2054 1.19467,2.0906 3.11467,3.1573 1.96267,1.024 4.26667,1.024 z m 25.47203,-0.64 7.85067,-20.3947 h 3.15734 l -9.34401,23.2961 h -3.37067 l -9.344,-23.2961 h 3.2 z m 36.13873,-9.9413 q 0,1.536 -0.0853,2.3466 h -19.32801 q 0.128,2.6454 1.28,4.5227 1.152,1.8773 3.02933,2.8587 1.87734,0.9387 4.09601,0.9387 2.90133,0 4.864,-1.4081 2.00533,-1.408 2.64533,-3.7973 h 3.15734 q -0.85333,3.4133 -3.66934,5.5894 -2.77333,2.1333 -6.99733,2.1333 -3.28534,0 -5.88801,-1.4507 -2.60267,-1.4933 -4.096,-4.1813 -1.45067,-2.7307 -1.45067,-6.3574 0,-3.6266 1.45067,-6.3573 1.45067,-2.7307 4.05333,-4.1813 2.60267,-1.4507 5.93068,-1.4507 3.328,0 5.80267,1.4507 2.51733,1.4506 3.84,3.9253 1.36533,2.432 1.36533,5.4187 z m -3.02933,-0.085 q 0.0427,-2.6026 -1.06667,-4.4373 -1.06667,-1.8347 -2.944,-2.7733 -1.87734,-0.9387 -4.096,-0.9387 -3.32801,0 -5.67468,2.1333 -2.34666,2.1334 -2.60266,6.016 z m 11.47733,-6.2293 q 0.98133,-2.176 2.98667,-3.3707 2.048,-1.1946 4.992,-1.1946 v 3.1146 H 413.082 q -3.24267,0 -5.20533,1.7494 -1.96267,1.7493 -1.96267,5.8453 v 13.0134 h -2.98667 v -23.2961 h 2.98667 z m 22.784,4.224 q 0,-4.3947 1.92,-7.8507 1.92,-3.4986 5.248,-5.4186 3.328,-1.9627 7.42401,-1.9627 4.992,0 8.53334,2.3893 3.584,2.3467 5.20533,6.656 h -3.49867 q -1.28,-3.0293 -3.92533,-4.736 -2.60267,-1.7066 -6.31467,-1.7066 -3.28534,0 -5.93067,1.536 -2.60267,1.536 -4.09601,4.4373 -1.49333,2.8587 -1.49333,6.656 0,3.7973 1.49333,6.656 1.49334,2.8587 4.09601,4.3947 2.64533,1.536 5.93067,1.536 3.712,0 6.31467,-1.664 2.64533,-1.7067 3.92533,-4.6934 h 3.49867 q -1.62133,4.2667 -5.20533,6.6134 -3.58401,2.3467 -8.53334,2.3467 -4.09601,0 -7.42401,-1.92 -3.328,-1.9627 -5.248,-5.4187 -1.92,-3.456 -1.92,-7.8507 z m 44.4587,15.2747 q -3.28534,0 -5.93067,-1.4507 -2.60267,-1.4933 -4.13867,-4.1813 -1.49334,-2.7307 -1.49334,-6.3574 0,-3.6266 1.536,-6.3146 1.536,-2.7307 4.18134,-4.1814 2.64533,-1.4933 5.93067,-1.4933 3.28534,0 5.93067,1.4933 2.688,1.4507 4.18134,4.1814 1.536,2.688 1.536,6.3146 0,3.584 -1.536,6.3147 -1.536,2.7307 -4.224,4.224 -2.68801,1.4507 -5.97334,1.4507 z m 0,-2.6027 q 2.304,0 4.26667,-1.024 1.96267,-1.0667 3.15733,-3.1573 1.23734,-2.1334 1.23734,-5.2054 0,-3.072 -1.19467,-5.1626 -1.19467,-2.1334 -3.15734,-3.1574 -1.96266,-1.0666 -4.26667,-1.0666 -2.304,0 -4.26667,1.0666 -1.96266,1.024 -3.15733,3.1574 -1.152,2.0906 -1.152,5.1626 0,3.072 1.152,5.2054 1.19467,2.0906 3.11467,3.1573 1.96267,1.024 4.26667,1.024 z m 28.11736,-21.4613 q 4.18134,0 6.82667,2.6026 2.64534,2.56 2.64534,7.4667 v 13.6534 h -2.94401 v -13.3121 q 0,-3.7973 -1.92,-5.8026 -1.87733,-2.0054 -5.16267,-2.0054 -3.37067,0 -5.376,2.1334 -2.00534,2.1333 -2.00534,6.272 v 12.7147 h -2.98666 v -23.2961 h 2.98666 v 3.968 q 1.10934,-2.1333 3.20001,-3.2426 2.09066,-1.152 4.736,-1.152 z m 19.96799,2.944 v 14.464 q 0,2.1333 0.81067,2.944 0.81066,0.8106 2.85867,0.8106 h 2.73067 v 2.5601 h -3.20001 q -3.15733,0 -4.69333,-1.4507 -1.53601,-1.4934 -1.53601,-4.864 v -14.464 h -3.24266 v -2.5174 h 3.24266 v -5.8453 h 3.02934 v 5.8453 h 6.40001 v 2.5174 z m 14.29338,1.6213 q 0.98133,-2.176 2.98667,-3.3707 2.048,-1.1946 4.992,-1.1946 v 3.1146 h -0.81067 q -3.24267,0 -5.20534,1.7494 -1.96266,1.7493 -1.96266,5.8453 v 13.0134 h -2.98667 v -23.2961 h 2.98667 z m 22.656,19.4987 q -3.28534,0 -5.93067,-1.4507 -2.60267,-1.4933 -4.13867,-4.1813 -1.49334,-2.7307 -1.49334,-6.3574 0,-3.6266 1.536,-6.3146 1.536,-2.7307 4.18134,-4.1814 2.64533,-1.4933 5.93067,-1.4933 3.28534,0 5.93067,1.4933 2.688,1.4507 4.18134,4.1814 1.536,2.688 1.536,6.3146 0,3.584 -1.536,6.3147 -1.536,2.7307 -4.22401,4.224 -2.688,1.4507 -5.97333,1.4507 z m 0,-2.6027 q 2.304,0 4.26667,-1.024 1.96266,-1.0667 3.15733,-3.1573 1.23734,-2.1334 1.23734,-5.2054 0,-3.072 -1.19467,-5.1626 -1.19467,-2.1334 -3.15734,-3.1574 -1.96267,-1.0666 -4.26667,-1.0666 -2.304,0 -4.26667,1.0666 -1.96266,1.024 -3.15733,3.1574 -1.152,2.0906 -1.152,5.1626 0,3.072 1.152,5.2054 1.19467,2.0906 3.11467,3.1573 1.96266,1.024 4.26667,1.024 z m 20.18135,-29.312 v 31.5734 h -2.98667 v -31.5734 z m 35.75471,24.4907 h -13.56801 l -2.60267,7.0827 h -3.15733 l 10.88001,-29.4401 h 3.37066 l 10.83735,29.4401 h -3.15734 z m -0.896,-2.4747 -5.888,-16.128 -5.88801,16.128 z m 14.37869,-8.6187 q 1.10933,-2.3466 3.49867,-3.8826 2.432,-1.5787 5.76,-1.5787 3.15734,0 5.67467,1.4933 2.56,1.4507 3.968,4.1814 1.45067,2.688 1.45067,6.272 0,3.584 -1.45067,6.3146 -1.408,2.7307 -3.968,4.2241 -2.51733,1.4933 -5.67467,1.4933 -3.28534,0 -5.71734,-1.536 -2.432,-1.5787 -3.54133,-3.9254 v 16.1281 h -2.94401 v -34.3041 h 2.94401 z m 17.32268,6.4854 q 0,-2.9014 -1.15201,-4.992 -1.10933,-2.1334 -3.072,-3.2427 -1.96267,-1.1093 -4.43733,-1.1093 -2.38934,0 -4.39467,1.152 -1.96267,1.152 -3.11467,3.2853 -1.152,2.1333 -1.152,4.9493 0,2.816 1.152,4.9494 1.152,2.1333 3.11467,3.2853 2.00533,1.152 4.39467,1.152 2.47466,0 4.43733,-1.1093 1.96267,-1.152 3.072,-3.2854 1.15201,-2.176 1.15201,-5.0346 z m 11.4773,-6.4854 q 1.10934,-2.3466 3.49867,-3.8826 2.43201,-1.5787 5.76001,-1.5787 3.15733,0 5.67467,1.4933 2.56,1.4507 3.968,4.1814 1.45067,2.688 1.45067,6.272 0,3.584 -1.45067,6.3146 -1.408,2.7307 -3.968,4.2241 -2.51734,1.4933 -5.67467,1.4933 -3.28534,0 -5.71734,-1.536 -2.432,-1.5787 -3.54134,-3.9254 v 16.1281 h -2.944 v -34.3041 h 2.944 z m 17.32268,6.4854 q 0,-2.9014 -1.152,-4.992 -1.10933,-2.1334 -3.072,-3.2427 -1.96267,-1.1093 -4.43734,-1.1093 -2.38933,0 -4.39467,1.152 -1.96266,1.152 -3.11467,3.2853 -1.152,2.1333 -1.152,4.9493 0,2.816 1.152,4.9494 1.15201,2.1333 3.11467,3.2853 2.00534,1.152 4.39467,1.152 2.47467,0 4.43734,-1.1093 1.96267,-1.152 3.072,-3.2854 1.152,-2.176 1.152,-5.0346 z"
     id="text20"
     style="font-weight:300;font-size:42.6667px;font-family:Poppins;-inkscape-font-specification:'Poppins, Light';white-space:pre;fill:#ed6c29;stroke-width:0"
     inkscape:label="text20"
     transform="matrix(3.7637852,0,0,3.7637852,-839.31423,-4138.9906)"
     aria-label="Rover Control App" />
  <path
     d="m 928,395.96 h 24 l 16,3 18,6 13,6 12,2 h 24 l 12,2 8,7 10,13 9,11 10,11 7,8 9,10 10,14 14,20 15,23 9,15 12,21 7,16 10,25 12,29 10,22 8,15 4,13 2,9 4,5 17,5 9,7 9,13 15,26 10,21 8,20 7,12 8,10 11,9 11,7 10,9 6,9 4,11 2,9 2,28 4,21 6,18 12,26 13,25 8,14 5,16 6,22 8,18 9,17 3,9 -1,7 -5,4 h -11 l -11,-1 -9,-3 -8,-7 -3,-7 -3,-10 -4,-5 h -5 l -3,1 -3,10 -4,12 -4,6 -6,5 -11,4 -9,2 h -15 l -10,-3 -11,-9 -13,-7 -6,-8 -4,-13 -1,-6 v -16 l 5,-16 3,-9 1,-16 -4,-23 v -8 l 2,-7 2,-2 11,1 2,-4 1,-6 v -16 l -3,-15 -5,-12 -6,-12 -4,-18 -5,-9 -9,-9 -8,-7 -32,-32 -11,-6 -16,-8 -10,-8 -11,-9 -5,-10 -4,-12 -7,-10 -14,-14 -16,-8 -11,-3 -15,-1 -16,2 -13,5 -10,6 -3,3 v 7 l 10,13 4,11 v 16 l -5,15 -7,10 -5,6 -8,7 -10,9 h -2 v 2 l -8,7 -9,9 -7,10 -4,9 v 17 l 1,8 v 37 l -4,59 -1,24 -4,5 -6,1 -6,-5 -2,-6 v -26 l 1,-21 -2,-3 -3,10 -3,30 -2,24 -3,6 -3,3 h -8 l -5,-6 -1,-3 v -31 l 1,-30 v -19 h -3 l -10,20 -8,14 -4,9 -4,11 -3,2 h -5 l -4,-5 -2,-5 v -12 l 5,-15 13,-24 6,-15 7,-21 6,-32 8,-16 17,-29 15,-30 2,-6 v -7 l -3,-5 -8,-4 h -11 l -6,3 -9,11 -7,8 -10,9 -16,12 -10,6 -52,25 -9,6 -6,8 -3,9 -1,7 -2,33 -3,12 -7,14 -1,4 v 8 l 3,5 6,5 1,5 -5,6 v 3 l 3,1 h 10 l 14,-3 17,-7 8,-4 h 5 l 2,2 -1,8 -4,6 -5,5 -8,7 -11,9 -8,4 -5,1 -37,1 -9,-3 -7,-6 -5,-10 -3,-14 v -24 l 3,-22 4,-15 7,-11 2,-4 6,-38 4,-14 6,-12 18,-14 13,-9 14,-10 6,-6 1,-3 -88,-2 -19,-2 -27,-6 -16,-5 -16,-6 -21,-11 -14,-10 -13,-11 -11,-11 -9,-11 -7,-8 -13,-17 -12,-14 -7,-8 -13,-13 -8,-7 -10,-9 -14,-13 -10,-7 -10,-6 -19,-8 -20,-7 -36,-10 -22,-6 -26,-4 -13,-1 -52,-1 -10,-3 -11,-8 -8,-9 -4,-8 -1,-3 v -7 l 9,-4 3,-7 v -19 l -3,-10 -10,-3 -2,-2 v -12 l 6,-12 9,-11 12,-9 16,-8 14,-5 29,-7 22,-5 21,-7 32,-12 21,-3 9,-4 h 10 l 17,4 29,5 17,4 25,2 20,4 16,5 15,6 16,8 17,12 14,12 7,7 9,11 10,14 8,19 7,24 7,33 5,38 4,20 6,18 6,10 3,2 h 7 l 5,-4 5,-10 4,-13 2,-12 4,-37 3,-17 5,-19 7,-19 10,-20 13,-21 8,-12 12,-16 12,-13 8,-9 8,-10 9,-10 8,-8 14,-9 12,-5 z"
     fill="#f66811"
     id="path2" />
  <path
     d="m 788,1259.96 h 23 l 16,3 19,7 13,8 10,8 13,13 9,13 8,16 5,19 1,6 v 27 l -4,20 -7,16 -6,10 -7,9 -9,10 -12,10 -13,8 -18,7 -14,3 h -31 l -18,-5 -12,-6 -11,-8 -10,-8 v 87 l -1,1 h -36 l -2,-1 v -257 h 39 v 15 l 8,-7 9,-8 11,-7 14,-6 z"
     fill="#f66811"
     id="path3" />
  <path
     d="m 518,1259.96 h 22 l 18,4 17,8 11,8 9,7 v -11 h 39 v 193 h -39 v -23 l -11,9 -10,7 -14,7 -16,4 h -30 l -14,-3 -14,-5 -13,-7 -12,-9 -15,-15 -7,-10 -8,-15 -6,-18 -2,-17 v -14 l 2,-17 5,-16 8,-16 9,-12 12,-13 12,-9 14,-8 17,-6 z"
     fill="#f66811"
     id="path4" />
  <path
     d="m 1175,1259.96 h 29 l 18,4 13,5 11,6 13,10 6,5 7,8 8,11 6,10 7,18 3,17 v 25 l -4,20 -5,13 -6,11 -9,12 -10,11 -14,11 -10,6 -18,7 -15,3 h -32 l -17,-4 -17,-7 -12,-8 -14,-12 -9,-10 -9,-14 -7,-15 -4,-16 -1,-7 v -27 l 3,-15 6,-17 8,-14 9,-11 6,-7 14,-11 11,-7 11,-5 14,-4 z"
     fill="#f66811"
     id="path5" />
  <path
     d="m 1615,196.96 h 39 l 15,2 10,5 2,2 v 3 l -9,2 -35,3 -36,4 -35,6 -32,8 -26,8 -34,12 -26,11 -22,10 -26,16 -12,8 -16,11 -14,10 -14,11 -13,11 -24,22 -16,17 -7,8 -68,68 -11,9 -13,10 -12,8 -19,14 -14,11 -6,1 -6,-5 -9,-14 -11,-16 -10,-14 -11,-12 -9,-11 -11,-12 -6,-8 1,-3 31,-10 26,-9 19,-7 13,-5 16,-7 16,-8 28,-13 16,-8 24,-15 20,-13 24,-14 16,-9 26,-15 24,-14 25,-13 30,-13 25,-9 46,-15 28,-7 20,-4 25,-4 30,-3 z"
     fill="#f66811"
     id="path6" />
  <path
     d="m 654,925.96 h 8 l 11,4 13,9 7,7 5,10 1,4 v 18 l 2,5 2,1 h 11 l 16,-6 28,-14 5,1 2,5 2,17 4,16 5,10 5,5 7,6 5,5 -1,7 -9,14 -16,21 -8,7 -8,3 -7,-1 -8,-7 -6,-2 -21,5 -15,4 -5,1 h -19 l -17,-5 h -11 l -12,5 -10,4 -6,1 h -67 l -28,-2 -5,-2 v -7 l 6,-8 7,-7 13,-8 16,-8 20,-8 21,-7 13,-4 5,-4 5,-16 4,-7 10,-6 25,-6 8,-5 4,-6 1,-4 v -13 l -5,-12 -9,-11 -5,-4 -1,-3 z"
     fill="#f66811"
     id="path7" />
  <path
     d="m 1180,1299.96 h 19 l 12,3 12,5 9,7 7,6 9,12 5,11 3,12 v 21 l -3,12 -8,16 -12,13 -10,7 -11,5 -12,3 -13,1 -18,-3 -11,-5 -11,-7 -11,-11 -8,-13 -4,-12 -2,-13 1,-14 3,-13 7,-13 9,-11 8,-7 14,-8 z"
     fill="#101010"
     id="path8" />
  <path
     d="m 789,1299.96 h 19 l 16,4 11,6 14,12 9,13 5,12 2,9 v 22 l -3,11 -8,16 -11,12 -9,7 -12,6 -18,4 h -11 l -18,-4 -12,-6 -9,-7 -9,-9 -8,-13 -3,-7 -1,-5 v -33 l 5,-13 6,-10 8,-9 h 2 v -2 l 13,-9 12,-5 z"
     fill="#101010"
     id="path9" />
  <path
     d="m 524,1299.96 h 12 l 12,2 10,4 8,4 10,8 9,10 8,15 2,7 v 34 l -5,13 -7,11 -6,7 -10,8 -16,8 -16,3 h -11 l -15,-3 -16,-8 -11,-9 -9,-11 -7,-14 -3,-13 v -18 l 4,-16 7,-13 11,-12 12,-9 12,-5 7,-2 z"
     fill="#101010"
     id="path10" />
  <path
     d="m 1524,1269.96 h 20 l 12,4 10,6 9,9 6,10 2,9 -34,10 h -4 l -3,-6 -4,-2 h -8 l -6,4 -3,6 1,8 5,6 15,10 14,8 16,12 10,11 7,14 3,11 v 21 l -4,14 -6,11 -11,12 -11,8 -9,4 -14,3 h -13 l -14,-3 -16,-8 -11,-10 -9,-14 -4,-12 v -3 l 12,-3 22,-5 h 5 l 3,9 5,5 9,4 h 8 l 9,-4 5,-4 4,-8 v -13 l -4,-8 -8,-7 -19,-12 -13,-8 -9,-7 -7,-7 -6,-10 -4,-11 v -24 l 4,-11 7,-10 5,-6 10,-7 9,-4 z"
     fill="#f66811"
     id="path11" />
  <path
     d="m 976,1202.96 h 37 l 1,1 1,71 34,1 v 38 l -34,1 -1,153 -1,1 h -37 l -1,-2 -1,-152 -33,-1 v -38 l 33,-1 1,-71 z"
     fill="#f66811"
     id="path12" />
  <path
     d="m 382,1270.96 h 8 v 40 l -14,3 -10,4 -9,7 -8,9 -8,16 -3,13 -1,105 -1,1 h -37 l -1,-1 v -192 h 39 v 23 l 12,-12 13,-9 12,-5 z"
     fill="#f66811"
     id="path13" />
  <path
     d="m 1425,1270.96 h 8 v 40 l -14,3 -12,5 -12,11 -7,11 -4,8 -3,12 -1,107 -1,1 h -37 l -1,-1 v -192 h 39 v 23 l 12,-12 13,-9 8,-4 z"
     fill="#f66811"
     id="path14" />
  <path
     d="m 668,780.96 6,1 14,7 26,10 26,7 16,3 15,2 14,1 h 25 l 2,1 -1,5 -13,18 -6,13 -3,9 -4,20 -3,18 -4,6 -7,-1 -9,-7 -11,-12 -17,-17 -7,-8 -11,-13 -14,-17 -7,-8 -12,-14 -14,-18 z"
     fill="#f66811"
     id="path15" />
  <path
     d="m 812,477.96 h 5 l 1,4 -7,11 -10,15 -11,21 -8,20 -6,22 -6,40 -3,17 -2,3 -5,-1 -3,-4 -4,-17 -3,-20 -5,-39 -1,-8 7,-14 13,-16 7,-8 14,-14 14,-8 z"
     fill="#f66811"
     id="path16" />
  <path
     d="m 1632,1229.96 h 39 l 7,3 6,7 3,10 v 9 l -3,10 -6,7 -8,3 -22,1 -1,28 h -15 l -1,-2 v -75 z"
     fill="#f66811"
     id="path17" />
  <path
     d="m 852,876.96 5,2 6,7 8,17 9,27 1,10 -3,9 -5,6 -16,8 -5,2 h -7 l -4,-9 -2,-4 -4,-2 -1,-3 6,-9 7,-10 2,-7 1,-9 v -32 z"
     fill="#f66811"
     id="path18" />
  <path
     d="m 1698,1229.96 h 15 l 1,1 v 63 h 26 v 14 h -42 z"
     fill="#f66811"
     id="path19" />
  <path
     d="m 1648,1243.96 h 18 l 4,3 v 14 l -4,4 h -18 l -1,-1 v -19 z"
     fill="#101010"
     id="path20" />
</svg>
