<?xml version="1.0" encoding="UTF-8"?>
<svg version="1.1" viewBox="0 0 2000 2000" width="2000" height="2000" xmlns="http://www.w3.org/2000/svg">
<path transform="translate(0)" d="m0 0h2e3v2e3h-2e3z" fill="#101010"/>
<path transform="translate(928,514)" d="m0 0h24l16 3 18 6 13 6 12 2h24l12 2 8 7 10 13 9 11 10 11 7 8 9 10 10 14 14 20 15 23 9 15 12 21 7 16 10 25 12 29 10 22 8 15 4 13 2 9 4 5 17 5 9 7 9 13 15 26 10 21 8 20 7 12 8 10 11 9 11 7 10 9 6 9 4 11 2 9 2 28 4 21 6 18 12 26 13 25 8 14 5 16 6 22 8 18 9 17 3 9-1 7-5 4h-11l-11-1-9-3-8-7-3-7-3-10-4-5h-5l-3 1-3 10-4 12-4 6-6 5-11 4-9 2h-15l-10-3-11-9-13-7-6-8-4-13-1-6v-16l5-16 3-9 1-16-4-23v-8l2-7 2-2 11 1 2-4 1-6v-16l-3-15-5-12-6-12-4-18-5-9-9-9-8-7-32-32-11-6-16-8-10-8-11-9-5-10-4-12-7-10-14-14-16-8-11-3-15-1-16 2-13 5-10 6-3 3v7l10 13 4 11v16l-5 15-7 10-5 6-8 7-10 9h-2v2l-8 7-9 9-7 10-4 9v17l1 8v37l-4 59-1 24-4 5-6 1-6-5-2-6v-26l1-21-2-3-3 10-3 30-2 24-3 6-3 3h-8l-5-6-1-3v-31l1-30v-19h-3l-10 20-8 14-4 9-4 11-3 2h-5l-4-5-2-5v-12l5-15 13-24 6-15 7-21 6-32 8-16 17-29 15-30 2-6v-7l-3-5-8-4h-11l-6 3-9 11-7 8-10 9-16 12-10 6-52 25-9 6-6 8-3 9-1 7-2 33-3 12-7 14-1 4v8l3 5 6 5 1 5-5 6v3l3 1h10l14-3 17-7 8-4h5l2 2-1 8-4 6-5 5-8 7-11 9-8 4-5 1-37 1-9-3-7-6-5-10-3-14v-24l3-22 4-15 7-11 2-4 6-38 4-14 6-12 18-14 13-9 14-10 6-6 1-3-88-2-19-2-27-6-16-5-16-6-21-11-14-10-13-11-11-11-9-11-7-8-13-17-12-14-7-8-13-13-8-7-10-9-14-13-10-7-10-6-19-8-20-7-36-10-22-6-26-4-13-1-52-1-10-3-11-8-8-9-4-8-1-3v-7l9-4 3-7v-19l-3-10-10-3-2-2v-12l6-12 9-11 12-9 16-8 14-5 29-7 22-5 21-7 32-12 21-3 9-4h10l17 4 29 5 17 4 25 2 20 4 16 5 15 6 16 8 17 12 14 12 7 7 9 11 10 14 8 19 7 24 7 33 5 38 4 20 6 18 6 10 3 2h7l5-4 5-10 4-13 2-12 4-37 3-17 5-19 7-19 10-20 13-21 8-12 12-16 12-13 8-9 8-10 9-10 8-8 14-9 12-5z" fill="#F66811"/>
<path transform="translate(788,1378)" d="m0 0h23l16 3 19 7 13 8 10 8 13 13 9 13 8 16 5 19 1 6v27l-4 20-7 16-6 10-7 9-9 10-12 10-13 8-18 7-14 3h-31l-18-5-12-6-11-8-10-8v87l-1 1h-36l-2-1v-257h39v15l8-7 9-8 11-7 14-6z" fill="#F66811"/>
<path transform="translate(518,1378)" d="m0 0h22l18 4 17 8 11 8 9 7v-11h39v193h-39v-23l-11 9-10 7-14 7-16 4h-30l-14-3-14-5-13-7-12-9-15-15-7-10-8-15-6-18-2-17v-14l2-17 5-16 8-16 9-12 12-13 12-9 14-8 17-6z" fill="#F66811"/>
<path transform="translate(1175,1378)" d="m0 0h29l18 4 13 5 11 6 13 10 6 5 7 8 8 11 6 10 7 18 3 17v25l-4 20-5 13-6 11-9 12-10 11-14 11-10 6-18 7-15 3h-32l-17-4-17-7-12-8-14-12-9-10-9-14-7-15-4-16-1-7v-27l3-15 6-17 8-14 9-11 6-7 14-11 11-7 11-5 14-4z" fill="#F66811"/>
<path transform="translate(1615,315)" d="m0 0h39l15 2 10 5 2 2v3l-9 2-35 3-36 4-35 6-32 8-26 8-34 12-26 11-22 10-26 16-12 8-16 11-14 10-14 11-13 11-24 22-16 17-7 8-68 68-11 9-13 10-12 8-19 14-14 11-6 1-6-5-9-14-11-16-10-14-11-12-9-11-11-12-6-8 1-3 31-10 26-9 19-7 13-5 16-7 16-8 28-13 16-8 24-15 20-13 24-14 16-9 26-15 24-14 25-13 30-13 25-9 46-15 28-7 20-4 25-4 30-3z" fill="#F66811"/>
<path transform="translate(654,1044)" d="m0 0h8l11 4 13 9 7 7 5 10 1 4v18l2 5 2 1h11l16-6 28-14 5 1 2 5 2 17 4 16 5 10 5 5 7 6 5 5-1 7-9 14-16 21-8 7-8 3-7-1-8-7-6-2-21 5-15 4-5 1h-19l-17-5h-11l-12 5-10 4-6 1h-67l-28-2-5-2v-7l6-8 7-7 13-8 16-8 20-8 21-7 13-4 5-4 5-16 4-7 10-6 25-6 8-5 4-6 1-4v-13l-5-12-9-11-5-4-1-3z" fill="#F66811"/>
<path transform="translate(1180,1418)" d="m0 0h19l12 3 12 5 9 7 7 6 9 12 5 11 3 12v21l-3 12-8 16-12 13-10 7-11 5-12 3-13 1-18-3-11-5-11-7-11-11-8-13-4-12-2-13 1-14 3-13 7-13 9-11 8-7 14-8z" fill="#101010"/>
<path transform="translate(789,1418)" d="m0 0h19l16 4 11 6 14 12 9 13 5 12 2 9v22l-3 11-8 16-11 12-9 7-12 6-18 4h-11l-18-4-12-6-9-7-9-9-8-13-3-7-1-5v-33l5-13 6-10 8-9h2v-2l13-9 12-5z" fill="#101010"/>
<path transform="translate(524,1418)" d="m0 0h12l12 2 10 4 8 4 10 8 9 10 8 15 2 7v34l-5 13-7 11-6 7-10 8-16 8-16 3h-11l-15-3-16-8-11-9-9-11-7-14-3-13v-18l4-16 7-13 11-12 12-9 12-5 7-2z" fill="#101010"/>
<path transform="translate(1524,1388)" d="m0 0h20l12 4 10 6 9 9 6 10 2 9-34 10h-4l-3-6-4-2h-8l-6 4-3 6 1 8 5 6 15 10 14 8 16 12 10 11 7 14 3 11v21l-4 14-6 11-11 12-11 8-9 4-14 3h-13l-14-3-16-8-11-10-9-14-4-12v-3l12-3 22-5h5l3 9 5 5 9 4h8l9-4 5-4 4-8v-13l-4-8-8-7-19-12-13-8-9-7-7-7-6-10-4-11v-24l4-11 7-10 5-6 10-7 9-4z" fill="#F66811"/>
<path transform="translate(976,1321)" d="m0 0h37l1 1 1 71 34 1v38l-34 1-1 153-1 1h-37l-1-2-1-152-33-1v-38l33-1 1-71z" fill="#F66811"/>
<path transform="translate(382,1389)" d="m0 0h8v40l-14 3-10 4-9 7-8 9-8 16-3 13-1 105-1 1h-37l-1-1v-192h39v23l12-12 13-9 12-5z" fill="#F66811"/>
<path transform="translate(1425,1389)" d="m0 0h8v40l-14 3-12 5-12 11-7 11-4 8-3 12-1 107-1 1h-37l-1-1v-192h39v23l12-12 13-9 8-4z" fill="#F66811"/>
<path transform="translate(668,899)" d="m0 0 6 1 14 7 26 10 26 7 16 3 15 2 14 1h25l2 1-1 5-13 18-6 13-3 9-4 20-3 18-4 6-7-1-9-7-11-12-17-17-7-8-11-13-14-17-7-8-12-14-14-18z" fill="#F66811"/>
<path transform="translate(812,596)" d="m0 0h5l1 4-7 11-10 15-11 21-8 20-6 22-6 40-3 17-2 3-5-1-3-4-4-17-3-20-5-39-1-8 7-14 13-16 7-8 14-14 14-8z" fill="#F66811"/>
<path transform="translate(1632,1348)" d="m0 0h39l7 3 6 7 3 10v9l-3 10-6 7-8 3-22 1-1 28h-15l-1-2v-75z" fill="#F66811"/>
<path transform="translate(852,995)" d="m0 0 5 2 6 7 8 17 9 27 1 10-3 9-5 6-16 8-5 2h-7l-4-9-2-4-4-2-1-3 6-9 7-10 2-7 1-9v-32z" fill="#F66811"/>
<path transform="translate(1698,1348)" d="m0 0h15l1 1v63h26v14h-42z" fill="#F66811"/>
<path transform="translate(1648,1362)" d="m0 0h18l4 3v14l-4 4h-18l-1-1v-19z" fill="#101010"/>
</svg>
