<?xml version="1.0" encoding="UTF-8" standalone="no"?>
<svg
   width="23.999916"
   height="24"
   fill="none"
   stroke="currentColor"
   stroke-width="2"
   stroke-linecap="round"
   stroke-linejoin="round"
   version="1.1"
   id="svg1"
   xmlns="http://www.w3.org/2000/svg"
   xmlns:svg="http://www.w3.org/2000/svg">
  <defs
     id="defs1" />
  <path
     d="M 0.508,0.123 C 0.328,0.242 0.14,0.447 0.046,0.627 0.021,0.675 0,0.848 0,1.011 0,1.272 0.014,1.327 0.118,1.483 0.183,1.58 0.767,2.19 1.416,2.837 L 2.595,4.014 2.236,4.105 C 1.241,4.357 0.432,5.14 0.114,6.16 L 0.02,6.46 v 11.08 l 0.094,0.3 a 3.086,3.086 0 0 0 2.046,2.046 l 0.3,0.094 h 12.08 l 0.3,-0.094 c 0.759,-0.237 1.449,-0.795 1.804,-1.461 l 0.126,-0.234 2.845,2.84 c 1.565,1.562 2.903,2.869 2.973,2.905 0.083,0.041 0.232,0.064 0.423,0.064 0.263,0 0.316,-0.014 0.481,-0.123 0.18,-0.119 0.368,-0.324 0.462,-0.504 0.069,-0.133 0.058,-0.634 -0.018,-0.785 -0.047,-0.094 -4.606,-4.72 -7.189,-7.295 L 5.76,4.305 C 4.551,3.081 1.506,0.112 1.412,0.065 1.328,0.023 1.181,0 0.989,0 0.726,0 0.673,0.014 0.508,0.123 M 10.34,4.038 C 9.872,4.163 9.674,4.447 9.672,4.997 9.67,5.348 9.742,5.556 9.931,5.751 10.163,5.991 10.249,6 12.28,6 14.38,6 14.396,6.002 14.697,6.303 14.998,6.604 15,6.62 15,8.717 l 10e-4,1.823 0.095,0.2 c 0.119,0.251 1.329,1.464 1.554,1.558 a 0.96,0.96 0 0 0 0.664,0 c 0.086,-0.035 1.171,-0.797 2.411,-1.694 l 2.255,-1.632 0.02,4.204 0.02,4.204 0.1,0.178 C 22.287,17.856 22.572,18 23,18 c 0.428,0 0.713,-0.144 0.88,-0.442 l 0.1,-0.178 0.011,-5.253 C 23.998,8.566 23.988,6.824 23.96,6.719 23.903,6.508 23.697,6.247 23.464,6.09 23.219,5.925 22.958,5.914 22.66,6.056 22.55,6.109 21.254,7.025 19.781,8.093 17.865,9.481 17.087,10.023 17.053,9.994 17.018,9.965 17.002,9.497 16.991,8.187 16.977,6.468 16.974,6.412 16.884,6.14 A 3.102,3.102 0 0 0 14.861,4.123 L 14.54,4.023 12.5,4.014 C 11.378,4.01 10.406,4.02 10.34,4.038 M 9.79,11.21 15,16.42 v 0.344 c 0,0.572 -0.149,0.892 -0.516,1.108 L 14.3,17.98 H 2.7 L 2.516,17.872 A 1.199,1.199 0 0 1 2.225,17.623 C 1.988,17.312 2,17.608 2,12.022 2,6.24 1.979,6.627 2.304,6.303 2.573,6.033 2.701,6.006 3.72,6.003 L 4.58,6 9.79,11.21"
     fill-rule="evenodd"
     fill="#000"
     stroke="none"
     id="path1"
     style="fill:#762e0b;fill-opacity:1" />
</svg>
