<?xml version="1.0" encoding="UTF-8" standalone="no"?>
<svg
   width="21.959999"
   height="11.96643"
   fill="none"
   stroke="currentColor"
   stroke-width="2"
   stroke-linecap="round"
   stroke-linejoin="round"
   version="1.1"
   id="svg1"
   xmlns="http://www.w3.org/2000/svg"
   xmlns:svg="http://www.w3.org/2000/svg">
  <defs
     id="defs1" />
  <path
     d="m 2.479,0.02943064 c -1.119,0.19 -2.03799998,1.00499996 -2.38499998,2.11699996 l -0.09400000092651,0.3 v 7.08 L 0.09400002,9.8264306 A 3.086,3.086 0 0 0 2.14,11.872431 l 0.3,0.094 h 13.08 l 0.3,-0.094 a 3.086,3.086 0 0 0 2.046,-2.0460004 l 0.094,-0.3 v -7.08 l -0.094,-0.3 A 3.089,3.089 0 0 0 15.841,0.10743064 l -0.321,-0.101 L 9.1,4.3064499e-4 C 5.569,-0.00256936 2.589,0.01043064 2.479,0.02943064 M 15.29,2.0474306 c 0.279,0.083 0.546,0.35 0.629,0.629 0.086,0.29 0.092,6.314 0.006,6.6 a 1.02,1.02 0 0 1 -0.461,0.582 l -0.184,0.108 H 2.68 l -0.184,-0.108 a 1.051,1.051 0 0 1 -0.458,-0.556 c -0.089,-0.253 -0.087,-6.325 0.003,-6.626 0.079,-0.269 0.351,-0.547 0.612,-0.627 0.29,-0.089 12.337,-0.091 12.637,-0.002 m 5.304,1.996 a 0.814,0.814 0 0 0 -0.505,0.396 c -0.086,0.161 -0.089,0.212 -0.101,1.455 -0.008,0.812 0.003,1.346 0.03,1.444 0.106,0.395 0.394,0.609 0.858,0.639 0.485,0.031 0.803,-0.109 0.984,-0.433 l 0.1,-0.178 v -1.38 c 0,-1.35 -0.002,-1.384 -0.089,-1.547 a 0.874,0.874 0 0 0 -0.213,-0.254 c -0.264,-0.189 -0.721,-0.249 -1.064,-0.142"
     fill="#000"
     fill-rule="evenodd"
     stroke="none"
     id="path1"
     style="fill:#ffffff;fill-opacity:1" />
</svg>
