<svg xmlns="http://www.w3.org/2000/svg" width="24" height="24" fill="none" stroke="currentColor" stroke-width="2" stroke-linecap="round" stroke-linejoin="round"><path d="M8.914 2.002c-.274.045-.557.202-.699.388-.101.132-.402.994-1.534 4.387L5.273 11h-1.73c-1.843 0-1.956.01-2.221.199-.222.158-.302.369-.302.801 0 .331.013.403.1.558.11.197.294.34.515.401.089.025.996.041 2.35.041 2.457 0 2.425.003 2.705-.27.194-.189.188-.171 1.335-3.62.525-1.578.964-2.87.975-2.87.011 0 1.16 3.421 2.554 7.603 2.748 8.243 2.598 7.836 2.966 8.025.574.293 1.084.162 1.337-.344.05-.101.717-2.061 1.481-4.354L18.727 13h1.746c1.047 0 1.805-.017 1.892-.041a.842.842 0 0 0 .515-.401c.087-.156.1-.226.099-.558-.001-.433-.081-.645-.301-.801-.271-.193-.347-.199-2.657-.199-2.474 0-2.459-.002-2.731.293a1.442 1.442 0 0 0-.239.39 397.55 397.55 0 0 0-1.055 3.147c-.537 1.612-.985 2.93-.996 2.93-.011 0-1.152-3.397-2.536-7.55-1.383-4.152-2.556-7.633-2.607-7.734-.194-.387-.508-.545-.943-.474" fill="#000" fill-rule="evenodd" stroke="none"/></svg>