<svg xmlns="http://www.w3.org/2000/svg" width="24" height="24" fill="none" stroke="currentColor" stroke-width="2" stroke-linecap="round" stroke-linejoin="round"><path d="M3.499 2.043C2.38 2.232 1.461 3.048 1.114 4.16l-.094.3v11.08l.094.3a3.099 3.099 0 0 0 2.026 2.042c.246.079.388.092 1.16.108.573.012.938.003 1.044-.026a.844.844 0 0 0 .536-.406c.087-.156.1-.226.099-.558-.001-.428-.081-.645-.293-.796-.224-.159-.333-.178-1.166-.201-.799-.022-.825-.026-1.004-.131a1.199 1.199 0 0 1-.291-.249C2.988 15.312 3 15.608 3 10.022c0-5.782-.02-5.395.303-5.719C3.632 3.974 2.892 4 12 4c9.108 0 8.368-.026 8.697.303.323.324.303-.06.303 5.698 0 4.211-.01 5.138-.055 5.289a1.02 1.02 0 0 1-.461.582c-.18.106-.202.108-1.005.128-.783.019-.831.025-1.02.122-.34.175-.481.484-.45.982.03.468.243.752.647.86.106.029.471.038 1.044.026.772-.016.914-.029 1.16-.108a3.099 3.099 0 0 0 2.026-2.042l.094-.3V4.46l-.094-.3a3.089 3.089 0 0 0-2.025-2.039l-.321-.101-8.42-.006c-4.631-.003-8.511.01-8.621.029m8.221 11.943a1.53 1.53 0 0 0-.195.109c-.138.087-5.264 6.197-5.419 6.459-.07.119-.086.21-.086.486 0 .288.015.367.1.518.11.197.294.34.515.401.203.057 10.451.055 10.654-.001.206-.057.466-.264.621-.494a.588.588 0 0 0 .129-.419c0-.134-.031-.289-.075-.385-.042-.088-1.237-1.555-2.657-3.26-2.868-3.443-2.834-3.408-3.286-3.428a1.265 1.265 0 0 0-.301.014m1.722 4.304 1.408 1.69-1.425.011c-.784.005-2.066.005-2.85 0L9.15 19.98l1.408-1.69c.775-.93 1.424-1.69 1.442-1.69.018 0 .667.76 1.442 1.69" fill-rule="evenodd" fill="#000" stroke="none"/></svg>