<svg xmlns="http://www.w3.org/2000/svg" width="24" height="24" fill="none" stroke="currentColor" stroke-width="2" stroke-linecap="round" stroke-linejoin="round"><path d="M4.62 2.046c-.233.12-3.466 3.363-3.581 3.591-.176.353-.087.718.26 1.064.346.347.711.436 1.064.26.247-.124 3.474-3.351 3.598-3.598.176-.353.087-.718-.26-1.064-.34-.34-.734-.432-1.081-.253m14.006-.001c-.206.109-.48.388-.588.599a.795.795 0 0 0 .001.719c.124.247 3.351 3.474 3.598 3.598.353.176.718.087 1.064-.26.347-.346.436-.711.26-1.064-.12-.24-3.35-3.474-3.589-3.593a.884.884 0 0 0-.746.001M11.34 4.024c-.908.094-1.475.209-2.18.442-1.9.628-3.546 1.893-4.692 3.607-.528.789-1.056 2.051-1.265 3.019-.538 2.497.026 5.161 1.524 7.206l.233.319-.915.921C3.07 20.52 2.951 20.68 2.951 21c0 .477.572 1.049 1.049 1.049.32 0 .48-.119 1.463-1.095l.923-.916.177.135c.4.306.969.652 1.497.91a8.947 8.947 0 0 0 7.88 0 9.524 9.524 0 0 0 1.497-.91l.177-.135.923.916c.983.976 1.143 1.095 1.463 1.095.477 0 1.049-.572 1.049-1.049 0-.32-.119-.48-1.095-1.463l-.916-.923.135-.177c.306-.4.652-.969.91-1.497a8.95 8.95 0 0 0 .001-7.88 8.996 8.996 0 0 0-6.764-4.959c-.409-.062-1.658-.11-1.98-.077m1.762 2.074c2.997.453 5.389 2.887 5.822 5.922.066.463.066 1.497 0 1.96-.437 3.067-2.798 5.444-5.904 5.946-.413.066-1.627.066-2.04 0-3.107-.502-5.467-2.879-5.904-5.946-.109-.763-.054-1.887.129-2.64A7.02 7.02 0 0 1 9.62 6.427c.63-.227 1.095-.325 1.92-.404.273-.026 1.186.018 1.562.075m-1.488 1.959a.814.814 0 0 0-.505.396l-.089.167v4.68l.107.18c.154.259 2.289 2.368 2.51 2.48.352.177.717.088 1.064-.259.347-.347.436-.712.259-1.064-.057-.112-.433-.523-1.023-1.117l-.933-.94-.012-1.98c-.012-1.96-.013-1.982-.101-2.147a.874.874 0 0 0-.213-.254c-.264-.189-.721-.249-1.064-.142" fill-rule="evenodd" fill="#000" stroke="none"/></svg>