<svg xmlns="http://www.w3.org/2000/svg" width="24" height="24" fill="none" stroke="currentColor" stroke-width="2" stroke-linecap="round" stroke-linejoin="round"><path d="M1.626 1.045c-.369.194-.675.628-.675.955 0 .307.128.487.902 1.27l.722.73-.722.73C1.079 5.513.951 5.693.951 6c0 .477.572 1.049 1.049 1.049.308 0 .487-.128 1.271-.903l.731-.723.699.698c.384.384.699.714.699.733 0 .019-.113.163-.252.32-1.049 1.193-1.757 2.745-2.055 4.506-.101.597-.1 2.008.002 2.62.255 1.537.821 2.909 1.664 4.035l.206.276-.917.924C3.07 20.52 2.951 20.68 2.951 21c0 .477.572 1.049 1.049 1.049.32 0 .48-.119 1.465-1.097l.924-.917.276.206c1.959 1.467 4.599 2.067 7.015 1.594 1.606-.314 3.178-1.081 4.245-2.07l.215-.199 1.66 1.652c1.125 1.12 1.717 1.682 1.837 1.742.352.177.717.088 1.064-.259.346-.346.435-.711.26-1.064-.122-.245-20.345-20.472-20.589-20.593a.884.884 0 0 0-.746.001m17 1c-.206.109-.48.388-.588.599a.795.795 0 0 0 .001.719c.124.247 3.351 3.474 3.598 3.598.353.176.718.087 1.064-.26.347-.346.436-.711.26-1.064-.12-.24-3.35-3.474-3.589-3.593a.884.884 0 0 0-.746.001M11.28 4.023c-.055.009-.262.036-.46.06-.492.06-1.185.217-1.369.312a.81.81 0 0 0-.43.507c-.097.382.083.99.353 1.196.253.193.432.208 1.031.088.802-.161 1.191-.198 1.835-.174 1.844.071 3.407.755 4.721 2.067a6.378 6.378 0 0 1 1.341 1.894c.556 1.16.795 2.495.662 3.71-.057.526-.014.777.17.987.167.191.41.292.763.319.69.052.973-.253 1.067-1.149.058-.555.026-1.714-.061-2.22-.673-3.919-3.562-6.831-7.443-7.502-.457-.079-1.906-.143-2.18-.095m.519 9.196 4.938 4.938-.174.152a6.93 6.93 0 0 1-1.423.93 6.824 6.824 0 0 1-1.814.63c-.457.097-.586.107-1.326.107-.732-.001-.874-.013-1.321-.107-1.901-.401-3.445-1.428-4.496-2.989-.882-1.309-1.311-3.037-1.14-4.592A7.16 7.16 0 0 1 6.62 8.523c.11-.133.209-.243.22-.243.011 0 2.242 2.222 4.959 4.939" fill-rule="evenodd" fill="#000" stroke="none"/></svg>