<svg xmlns="http://www.w3.org/2000/svg" width="24" height="24" fill="none" stroke="currentColor" stroke-width="2" stroke-linecap="round" stroke-linejoin="round"><path d="M4.499 2.043C3.38 2.232 2.461 3.048 2.114 4.16l-.094.3v15.08l.094.3a3.086 3.086 0 0 0 2.046 2.046l.3.094h15.08l.3-.094a3.086 3.086 0 0 0 2.046-2.046l.094-.3V4.46l-.094-.3a3.089 3.089 0 0 0-2.025-2.039l-.321-.101-7.42-.006c-4.081-.003-7.511.01-7.621.029M10 7.61c0 2.295.015 3.663.041 3.755a.842.842 0 0 0 .401.515c.151.085.229.1.518.1.253-.001.376-.02.48-.075.077-.04.684-.616 1.35-1.278l1.209-1.205 1.231 1.224c1.304 1.298 1.437 1.403 1.771 1.403.308 0 .68-.241.87-.563l.109-.186.011-3.65.011-3.65h.552c.695 0 .892.052 1.143.303.327.328.303-.294.303 7.698 0 5.906-.009 7.137-.055 7.289a1.02 1.02 0 0 1-.461.582l-.184.108H4.7l-.184-.108a1.199 1.199 0 0 1-.291-.249c-.239-.314-.225.172-.225-7.601 0-8.017-.025-7.391.304-7.719.305-.306.216-.297 3.126-.3L10 4v3.61m6-1.322v2.287l-.73-.722c-.414-.409-.803-.759-.898-.808a.866.866 0 0 0-.744 0c-.095.049-.484.399-.898.808l-.73.722V4h4v2.288" fill="#000" fill-rule="evenodd" stroke="none"/></svg>