<svg xmlns="http://www.w3.org/2000/svg" width="24" height="24" fill="none" stroke="currentColor" stroke-width="2" stroke-linecap="round" stroke-linejoin="round"><path d="M7.54 1.061a1.639 1.639 0 0 1-.179.058A370.74 370.74 0 0 0 4.266 4.19C1.807 6.646 1.173 7.3 1.096 7.46l-.095.2V12c.001 4.266.002 4.343.081 4.52.122.27 6.094 6.248 6.378 6.384l.2.095h8.68l.2-.095c.284-.136 6.256-6.114 6.378-6.384.079-.177.08-.253.08-4.52 0-4.267-.001-4.343-.08-4.52-.063-.139-.776-.876-3.13-3.233-1.742-1.744-3.117-3.09-3.208-3.14l-.16-.087-4.36-.009c-3.724-.007-4.383 0-4.52.05M18.37 5.63 21 8.26v7.48l-2.63 2.63L15.74 21H8.26l-2.63-2.63L3 15.74V8.26l2.63-2.63L8.26 3h7.48l2.63 2.63m-6.756 1.427a.814.814 0 0 0-.505.396c-.089.166-.089.176-.1 2.458-.008 1.481.003 2.345.03 2.444.105.392.394.606.857.636.485.031.803-.109.984-.433l.1-.178V7.62l-.089-.167a.874.874 0 0 0-.213-.254c-.264-.189-.721-.249-1.064-.142m0 7.998c-.394.129-.575.382-.605.845-.031.481.11.799.433.98.155.087.227.1.558.1.312 0 .408-.016.54-.086.326-.176.46-.435.46-.894 0-.643-.287-.952-.917-.984-.19-.01-.365.005-.469.039" fill="#000" fill-rule="evenodd" stroke="none"/></svg>