<svg xmlns="http://www.w3.org/2000/svg" width="24" height="24" fill="none" stroke="currentColor" stroke-width="2" stroke-linecap="round" stroke-linejoin="round"><path d="M1.614 1.057a.814.814 0 0 0-.505.396c-.074.139-.089.231-.089.547 0 .331.013.403.1.558.11.197.294.34.515.401.2.056 20.53.056 20.73 0a.842.842 0 0 0 .515-.401c.087-.156.1-.226.099-.558-.001-.433-.081-.645-.301-.801-.294-.21.277-.199-10.694-.196-8.259.002-10.236.012-10.37.054m3.885 3.985A3.047 3.047 0 0 0 3.114 7.16l-.094.3v13.08l.094.3a3.086 3.086 0 0 0 2.046 2.046c.293.092.337.094 1.84.094 1.503 0 1.547-.002 1.84-.094a3.086 3.086 0 0 0 2.046-2.046l.094-.3V7.46l-.094-.3a3.077 3.077 0 0 0-2.025-2.036c-.313-.097-.357-.1-1.741-.109-.781-.005-1.511.007-1.621.027m10 0a3.047 3.047 0 0 0-2.385 2.118l-.094.3v6.08l.094.3a3.086 3.086 0 0 0 2.046 2.046c.293.092.336.094 1.86.094h1.56l.307-.105a3.105 3.105 0 0 0 1.999-2.035l.094-.3V7.46l-.094-.3a3.077 3.077 0 0 0-2.025-2.036c-.313-.097-.357-.1-1.741-.109-.781-.005-1.511.007-1.621.027M8.31 7.061c.279.083.546.35.629.629.053.179.061.961.061 6.311 0 5.058-.009 6.138-.055 6.289a1.02 1.02 0 0 1-.461.582l-.184.108H5.7l-.184-.108a1.051 1.051 0 0 1-.458-.556c-.09-.256-.087-12.323.003-12.626.079-.269.351-.547.612-.627.279-.086 2.35-.088 2.637-.002m10 0c.279.083.546.35.629.629.086.289.092 5.316.006 5.6a1.02 1.02 0 0 1-.461.582l-.184.108h-2.6l-.184-.108a1.051 1.051 0 0 1-.458-.556c-.088-.252-.086-5.326.003-5.626.079-.269.351-.547.612-.627.279-.086 2.35-.088 2.637-.002" fill-rule="evenodd" fill="#000" stroke="none"/></svg>