<svg xmlns="http://www.w3.org/2000/svg" width="24" height="24" fill="none" stroke="currentColor" stroke-width="2" stroke-linecap="round" stroke-linejoin="round"><path d="M5.499 1.042c-1.117.195-2.014.985-2.384 2.098-.093.279-.093.292-.106 2.668-.009 1.581.001 2.441.029 2.544.106.395.394.609.858.639.485.031.803-.109.984-.433l.1-.178L5 6.06c.022-2.6.008-2.472.321-2.777C5.591 3.022 5.72 3 7 3c1.303 0 1.414.02 1.697.303.306.306.303.279.303 2.754 0 1.326.016 2.219.041 2.308.107.385.396.597.855.626.485.031.803-.109.984-.433l.1-.178V3.46l-.094-.3a3.077 3.077 0 0 0-2.025-2.036c-.313-.097-.357-.1-1.741-.109-.781-.005-1.511.007-1.621.027m10 3c-.649.113-1.105.357-1.603.854-.403.403-.605.724-.768 1.217-.093.282-.103.38-.119 1.187-.011.571-.002.938.027 1.044.108.404.392.617.86.647.485.031.803-.109.983-.433.094-.169.101-.221.121-.998.025-.904.049-1.006.301-1.259.273-.272.313-.28 1.611-.293 1.386-.015 1.493.003 1.784.295.261.26.304.437.304 1.254 0 .365.019.728.041.808.107.385.396.597.855.626.485.031.803-.109.984-.433.099-.176.1-.188.1-1.138 0-.895-.006-.98-.094-1.26a3.077 3.077 0 0 0-2.025-2.036c-.313-.097-.357-.1-1.741-.109-.781-.005-1.511.007-1.621.027M1.614 11.057a.814.814 0 0 0-.505.396c-.074.139-.089.231-.089.547 0 .331.013.403.1.558.11.197.294.34.515.401.2.056 20.53.056 20.73 0a.842.842 0 0 0 .515-.401c.087-.156.1-.226.099-.558-.001-.433-.081-.645-.301-.801-.294-.21.277-.199-10.694-.196-8.259.002-10.236.012-10.37.054m2 4a.814.814 0 0 0-.505.396l-.089.167v4.92l.094.3c.184.59.495 1.053.995 1.481.282.242.651.441 1.051.565.293.092.337.094 1.84.094 1.503 0 1.547-.002 1.84-.094a3.086 3.086 0 0 0 2.046-2.046l.094-.3v-4.92l-.091-.17c-.165-.31-.56-.48-1.015-.439-.435.04-.733.263-.833.624-.025.089-.041.983-.041 2.309 0 2.348-.003 2.388-.221 2.674-.061.08-.194.195-.295.254l-.184.108H5.7l-.184-.108a1.146 1.146 0 0 1-.446-.499c-.037-.084-.055-.7-.07-2.433-.02-2.304-.021-2.321-.109-2.487a.874.874 0 0 0-.213-.254c-.264-.189-.721-.249-1.064-.142m10 0a.814.814 0 0 0-.505.396c-.085.159-.089.211-.089 1.127 0 .895.006.98.094 1.26a3.086 3.086 0 0 0 2.046 2.046c.293.092.337.094 1.84.094 1.503 0 1.547-.002 1.84-.094a3.086 3.086 0 0 0 2.046-2.046c.088-.28.094-.365.094-1.26 0-.921-.004-.967-.091-1.13-.165-.31-.56-.48-1.015-.439-.435.04-.733.263-.833.624-.022.08-.041.444-.041.809 0 .918-.095 1.18-.516 1.428l-.184.108h-2.6l-.184-.108a1.126 1.126 0 0 1-.444-.499c-.028-.068-.057-.441-.071-.933-.022-.739-.033-.836-.112-.987a.854.854 0 0 0-.211-.254c-.264-.189-.721-.249-1.064-.142" fill-rule="evenodd" fill="#000" stroke="none"/></svg>