<svg xmlns="http://www.w3.org/2000/svg" width="24" height="24" fill="none" stroke="currentColor" stroke-width="2" stroke-linecap="round" stroke-linejoin="round"><path d="M11.614 1.057a.814.814 0 0 0-.505.396l-.089.167-.01 10.295c-.007 6.807.003 10.345.03 10.444.104.388.395.603.856.632.485.031.803-.109.984-.433l.1-.178V1.62l-.089-.167a.874.874 0 0 0-.213-.254c-.264-.189-.721-.249-1.064-.142M3.499 4.042A3.047 3.047 0 0 0 1.114 6.16l-.094.3v11.08l.094.3a3.086 3.086 0 0 0 2.046 2.046c.293.092.337.094 1.84.094 1.503 0 1.547-.002 1.84-.094a3.086 3.086 0 0 0 2.046-2.046l.094-.3V6.46l-.094-.3a3.077 3.077 0 0 0-2.025-2.036c-.313-.097-.357-.1-1.741-.109-.781-.005-1.511.007-1.621.027M6.31 6.061c.279.083.546.35.629.629.053.178.061.856.061 5.311 0 4.211-.01 5.138-.055 5.289a1.02 1.02 0 0 1-.461.582l-.184.108H3.7l-.184-.108a1.051 1.051 0 0 1-.458-.556c-.089-.255-.087-10.323.003-10.626.079-.269.351-.547.612-.627.279-.086 2.35-.088 2.637-.002m11.189-.019a3.047 3.047 0 0 0-2.385 2.118l-.094.3v7.08l.094.3a3.086 3.086 0 0 0 2.046 2.046c.293.092.337.094 1.84.094 1.503 0 1.547-.002 1.84-.094a3.086 3.086 0 0 0 2.046-2.046l.094-.3V8.46l-.094-.3a3.077 3.077 0 0 0-2.025-2.036c-.313-.097-.357-.1-1.741-.109-.781-.005-1.511.007-1.621.027m2.811 2.019c.279.083.546.35.629.629.086.29.092 6.314.006 6.6a1.02 1.02 0 0 1-.461.582l-.184.108h-2.6l-.184-.108a1.051 1.051 0 0 1-.458-.556c-.089-.253-.087-6.325.003-6.626.079-.269.351-.547.612-.627.279-.086 2.35-.088 2.637-.002" fill-rule="evenodd" fill="#000" stroke="none"/></svg>