<svg xmlns="http://www.w3.org/2000/svg" width="24" height="24" fill="none" stroke="currentColor" stroke-width="2" stroke-linecap="round" stroke-linejoin="round"><path d="M6.614 1.057a.814.814 0 0 0-.505.396c-.085.16-.089.215-.101 1.352L5.996 3.99l-.284.028c-1.216.12-2.227.953-2.598 2.142l-.094.3v11.08l.094.3c.369 1.184 1.397 2.036 2.584 2.144l.302.027v1.105c0 .616.018 1.168.041 1.249.107.385.396.597.855.626.485.031.803-.109.984-.433.099-.177.1-.184.113-1.363l.012-1.184.299-.028c1.185-.107 2.213-.96 2.582-2.143l.094-.3V6.46l-.094-.3a3.073 3.073 0 0 0-.975-1.465 2.967 2.967 0 0 0-1.623-.677l-.283-.028-.012-1.185c-.012-1.136-.017-1.192-.102-1.352a.874.874 0 0 0-.213-.254c-.264-.189-.721-.249-1.064-.142m10 0a.814.814 0 0 0-.505.396c-.088.166-.089.18-.1 2.352l-.012 2.185-.284.028c-1.217.12-2.228.953-2.599 2.142l-.094.3v7.08l.094.3c.369 1.184 1.397 2.036 2.584 2.144l.302.027v2.105c0 1.286.016 2.16.041 2.249.107.385.396.597.855.626.485.031.803-.109.984-.433l.1-.178.012-2.185.011-2.184.3-.027c1.186-.108 2.214-.961 2.583-2.144l.094-.3V8.46l-.094-.3a3.073 3.073 0 0 0-.975-1.465 2.967 2.967 0 0 0-1.624-.677l-.284-.028-.011-2.185c-.012-2.172-.013-2.186-.101-2.352a.874.874 0 0 0-.213-.254c-.264-.189-.721-.249-1.064-.142M8.31 6.061c.279.083.546.35.629.629.053.178.061.856.061 5.311 0 4.211-.01 5.138-.055 5.289a1.02 1.02 0 0 1-.461.582l-.184.108H5.7l-.184-.108a1.051 1.051 0 0 1-.458-.556c-.089-.255-.087-10.323.003-10.626.079-.269.351-.547.612-.627.279-.086 2.35-.088 2.637-.002m10 2c.279.083.546.35.629.629.086.29.092 6.314.006 6.6a1.02 1.02 0 0 1-.461.582l-.184.108h-2.6l-.184-.108a1.051 1.051 0 0 1-.458-.556c-.089-.253-.087-6.325.003-6.626.079-.269.351-.547.612-.627.279-.086 2.35-.088 2.637-.002" fill-rule="evenodd" fill="#000" stroke="none"/></svg>