<svg xmlns="http://www.w3.org/2000/svg" width="24" height="24" fill="none" stroke="currentColor" stroke-width="2" stroke-linecap="round" stroke-linejoin="round"><path d="M8.499 3.042c-1.122.192-2.038 1.006-2.385 2.118-.092.292-.094.338-.094 1.82 0 1.453.014 1.668.124 1.955.022.06-.157.065-2.153.065-2.323 0-2.398.006-2.669.199-.222.158-.302.369-.302.801 0 .331.013.403.1.558.11.197.294.34.515.401.2.056 20.53.056 20.73 0a.842.842 0 0 0 .515-.401c.087-.156.1-.226.099-.558-.001-.433-.081-.645-.301-.801-.271-.193-.346-.199-2.669-.199-1.996 0-2.175-.005-2.153-.065.11-.287.124-.502.124-1.955 0-1.482-.002-1.528-.094-1.82a3.086 3.086 0 0 0-2.025-2.038l-.321-.101-3.42-.007c-1.881-.003-3.511.009-3.621.028m6.811 2.019c.279.083.546.35.629.629.084.282.089 2.325.006 2.6a1.02 1.02 0 0 1-.461.582l-.184.108H8.7l-.184-.108a1.051 1.051 0 0 1-.458-.556c-.086-.245-.084-2.334.003-2.626.079-.269.351-.547.612-.627.288-.088 6.34-.091 6.637-.002m-8.811 7.982c-1.12.19-2.038 1.005-2.385 2.117-.092.292-.094.338-.094 1.82 0 1.453.014 1.668.124 1.955.022.059-.081.065-1.153.065-1.253 0-1.418.02-1.669.199-.222.158-.302.369-.302.801 0 .331.013.403.1.558.11.197.294.34.515.401.2.056 20.53.056 20.73 0a.842.842 0 0 0 .515-.401c.087-.156.1-.226.099-.558-.001-.433-.081-.645-.301-.801-.251-.179-.416-.199-1.669-.199-1.072 0-1.175-.006-1.153-.065.11-.287.124-.502.124-1.955 0-1.482-.002-1.528-.094-1.82a3.089 3.089 0 0 0-2.025-2.039l-.321-.101-5.42-.006c-2.981-.003-5.511.01-5.621.029m10.811 2.018c.279.083.546.35.629.629.084.282.089 2.325.006 2.6a1.02 1.02 0 0 1-.461.582l-.184.108H6.7l-.184-.108a1.199 1.199 0 0 1-.291-.249C6.014 18.347 6 18.245 6 17.022c0-1.324.019-1.435.301-1.716.321-.322-.099-.299 5.662-.303 4.494-.003 5.168.005 5.347.058" fill-rule="evenodd" fill="#000" stroke="none"/></svg>