<svg xmlns="http://www.w3.org/2000/svg" width="24" height="24" fill="none" stroke="currentColor" stroke-width="2" stroke-linecap="round" stroke-linejoin="round"><path d="M21.614 1.057a.814.814 0 0 0-.505.396l-.089.167-.01 10.295c-.007 6.807.003 10.345.03 10.444.104.388.395.603.856.632.485.031.803-.109.984-.433l.1-.178V1.62l-.089-.167a.874.874 0 0 0-.213-.254c-.264-.189-.721-.249-1.064-.142M3.499 3.043c-1.119.19-2.038 1.005-2.385 2.117-.092.293-.094.337-.094 1.84 0 1.503.002 1.547.094 1.84a3.086 3.086 0 0 0 2.046 2.046l.3.094h13.08l.3-.094a3.086 3.086 0 0 0 2.046-2.046c.092-.293.094-.337.094-1.84 0-1.503-.002-1.547-.094-1.84a3.089 3.089 0 0 0-2.025-2.039l-.321-.101-6.42-.006c-3.531-.003-6.511.01-6.621.029M16.31 5.061c.279.083.546.35.629.629.084.282.089 2.325.006 2.6a1.02 1.02 0 0 1-.461.582l-.184.108H3.7l-.184-.108a1.051 1.051 0 0 1-.458-.556c-.086-.245-.084-2.334.003-2.626.079-.269.351-.547.612-.627.29-.089 12.337-.091 12.637-.002m-5.811 7.981c-1.122.193-2.038 1.006-2.385 2.118-.092.293-.094.337-.094 1.84 0 1.503.002 1.547.094 1.84a3.086 3.086 0 0 0 2.046 2.046l.3.094h6.08l.3-.094a3.086 3.086 0 0 0 2.046-2.046c.092-.293.094-.337.094-1.84 0-1.503-.002-1.547-.094-1.84a3.086 3.086 0 0 0-2.025-2.038l-.321-.101-2.92-.007c-1.606-.003-3.011.009-3.121.028m5.811 2.019c.279.083.546.35.629.629.084.282.089 2.325.006 2.6a1.02 1.02 0 0 1-.461.582l-.184.108h-5.6l-.184-.108a1.051 1.051 0 0 1-.458-.556c-.086-.245-.084-2.334.003-2.626.075-.252.343-.537.589-.623.257-.091 5.356-.096 5.66-.006" fill-rule="evenodd" fill="#000" stroke="none"/></svg>