<svg xmlns="http://www.w3.org/2000/svg" width="24" height="24" fill="none" stroke="currentColor" stroke-width="2" stroke-linecap="round" stroke-linejoin="round"><path d="M8.499 3.042a2.951 2.951 0 0 0-1.41.653c-.634.544-1.003 1.233-1.073 2.003L5.989 6H3.401C.637 6 .597 6.003.322 6.199.1 6.357.02 6.568.02 7c0 .331.013.403.1.558.11.197.294.34.515.401.09.025 1.128.041 2.749.041h2.605l.027.302c.108 1.187.96 2.215 2.144 2.584l.3.094h7.08l.3-.094c1.184-.369 2.036-1.397 2.144-2.584L18.011 8h2.105c1.286 0 2.16-.016 2.249-.041a.842.842 0 0 0 .515-.401c.087-.156.1-.226.099-.558-.001-.433-.081-.645-.301-.801-.27-.193-.352-.199-2.579-.199h-2.088l-.027-.302c-.107-1.179-.956-2.209-2.123-2.576l-.321-.101-3.42-.007c-1.881-.003-3.511.009-3.621.028m6.811 2.019c.279.083.546.35.629.629.084.282.089 2.325.006 2.6a1.02 1.02 0 0 1-.461.582l-.184.108H8.7l-.184-.108a1.051 1.051 0 0 1-.458-.556c-.086-.245-.084-2.334.003-2.626.079-.269.351-.547.612-.627.288-.088 6.34-.091 6.637-.002m-8.811 7.982a2.953 2.953 0 0 0-1.41.652c-.634.544-1.003 1.233-1.073 2.003L3.989 16H2.901c-1.157 0-1.331.022-1.579.199-.222.158-.302.369-.302.801 0 .331.013.403.1.558.11.197.294.34.515.401.081.023.633.041 1.249.041h1.105l.027.302c.108 1.187.96 2.215 2.144 2.584l.3.094h11.08l.3-.094c1.184-.369 2.036-1.397 2.144-2.584l.027-.302h1.105c.616 0 1.168-.018 1.249-.041a.842.842 0 0 0 .515-.401c.087-.156.1-.226.099-.558-.001-.433-.081-.645-.301-.801-.248-.177-.422-.199-1.579-.199h-1.088l-.027-.302c-.107-1.178-.955-2.208-2.123-2.577l-.321-.101-5.42-.006c-2.981-.003-5.511.01-5.621.029m10.811 2.018c.279.083.546.35.629.629.084.282.089 2.325.006 2.6a1.02 1.02 0 0 1-.461.582l-.184.108H6.7l-.184-.108a1.199 1.199 0 0 1-.291-.249C6.014 18.347 6 18.245 6 17.022c0-1.324.019-1.435.301-1.716.321-.322-.099-.299 5.662-.303 4.494-.003 5.168.005 5.347.058" fill-rule="evenodd" fill="#000" stroke="none"/></svg>