<svg xmlns="http://www.w3.org/2000/svg" width="24" height="24" fill="none" stroke="currentColor" stroke-width="2" stroke-linecap="round" stroke-linejoin="round"><path d="M11.614 1.057a.814.814 0 0 0-.505.396l-.089.167-.01 10.295c-.007 6.807.003 10.345.03 10.444.104.388.395.603.856.632.485.031.803-.109.984-.433l.1-.178V1.62l-.089-.167a.874.874 0 0 0-.213-.254c-.264-.189-.721-.249-1.064-.142M3.499 3.043c-.639.107-1.104.355-1.603.853-.4.401-.601.717-.771 1.217l-.105.307v1.56c0 1.524.002 1.567.094 1.86a3.111 3.111 0 0 0 2.026 2.045c.279.093.292.093 2.668.106 1.581.009 2.441-.001 2.544-.029a.84.84 0 0 0 .528-.404c.087-.156.1-.226.099-.558-.002-.531-.127-.753-.524-.929-.087-.039-.678-.056-2.435-.071L3.7 8.98l-.184-.108a1.168 1.168 0 0 1-.292-.251c-.217-.284-.23-.383-.216-1.686.011-1.087.019-1.209.089-1.351.099-.199.288-.388.487-.487.147-.073.284-.078 2.476-.097 2.276-.02 2.323-.022 2.48-.106.335-.179.438-.39.438-.894 0-.433-.079-.644-.3-.801-.273-.195-.338-.199-2.734-.194-1.234.002-2.335.02-2.445.038m12.115.013a.823.823 0 0 0-.505.397c-.074.139-.089.231-.089.547 0 .331.013.403.1.558.11.197.294.34.515.401.089.025.982.041 2.308.041 2.475 0 2.448-.003 2.754.303.283.284.303.394.303 1.698 0 1.206-.02 1.353-.221 1.617-.061.08-.194.195-.295.254l-.184.108-2.321.02-2.321.02-.199.102c-.34.175-.481.484-.45.982.03.464.244.752.639.858.103.028.963.038 2.544.029 2.376-.013 2.389-.013 2.668-.106a3.111 3.111 0 0 0 2.026-2.045c.092-.293.094-.337.094-1.84 0-1.503-.002-1.547-.094-1.84a3.084 3.084 0 0 0-2.025-2.038l-.321-.1-2.38-.009c-1.888-.008-2.414.001-2.546.043m-9.115 9.987c-.639.107-1.104.355-1.603.853-.4.401-.601.717-.771 1.217l-.105.307v1.56c0 1.524.002 1.567.094 1.86a3.099 3.099 0 0 0 2.026 2.042c.246.079.388.092 1.16.108.573.012.938.003 1.044-.026a.844.844 0 0 0 .536-.406c.087-.156.1-.226.099-.558-.001-.428-.081-.645-.293-.796-.224-.159-.333-.178-1.166-.201-.799-.022-.825-.026-1.004-.131a1.168 1.168 0 0 1-.292-.251c-.217-.284-.23-.383-.216-1.686.013-1.323.02-1.36.293-1.634.253-.253.355-.277 1.259-.301.733-.02.837-.031.98-.107.334-.177.438-.389.438-.893 0-.314-.015-.409-.088-.547-.104-.197-.267-.322-.519-.398-.207-.062-1.523-.07-1.872-.012m9.115.012c-.239.078-.403.207-.505.398-.074.139-.089.231-.089.547 0 .331.013.403.1.558.11.197.294.34.515.401.08.022.443.041.808.041.816 0 .994.043 1.254.303.283.284.303.394.303 1.698 0 1.206-.02 1.353-.221 1.617-.061.08-.194.195-.295.254-.18.106-.202.108-1.005.128-.783.019-.831.025-1.02.122-.34.175-.481.484-.45.982.03.468.243.752.647.86.106.029.471.038 1.044.026.772-.016.914-.029 1.16-.108a3.099 3.099 0 0 0 2.026-2.042c.092-.293.094-.337.094-1.84 0-1.503-.002-1.547-.094-1.84a3.073 3.073 0 0 0-2.025-2.035c-.29-.088-.406-.098-1.201-.111-.663-.01-.921 0-1.046.041" fill-rule="evenodd" fill="#000" stroke="none"/></svg>