<svg xmlns="http://www.w3.org/2000/svg" width="24" height="24" fill="none" stroke="currentColor" stroke-width="2" stroke-linecap="round" stroke-linejoin="round"><path d="M1.614 2.057a.814.814 0 0 0-.505.396c-.074.139-.089.231-.089.547 0 .331.013.403.1.558.11.197.294.34.515.401.089.025.993.041 2.339.041 2.011 0 2.192.005 2.17.065-.11.287-.124.502-.124 1.955 0 1.482.002 1.528.094 1.82A3.086 3.086 0 0 0 8.16 9.886l.3.094h7.08l.3-.094a3.086 3.086 0 0 0 2.046-2.046c.092-.292.094-.338.094-1.82 0-1.453-.014-1.668-.124-1.955-.022-.06.159-.065 2.17-.065 1.346 0 2.25-.016 2.339-.041a.842.842 0 0 0 .515-.401c.087-.156.1-.226.099-.558-.001-.433-.081-.645-.301-.801-.294-.21.277-.199-10.694-.196-8.259.002-10.236.012-10.37.054M15.31 4.061c.279.083.546.35.629.629.084.282.089 2.325.006 2.6a1.02 1.02 0 0 1-.461.582l-.184.108H8.7l-.184-.108a1.051 1.051 0 0 1-.458-.556c-.086-.245-.084-2.334.003-2.626.079-.269.351-.547.612-.627.288-.088 6.34-.091 6.637-.002m-8.811 9.982c-1.12.19-2.038 1.005-2.385 2.117-.092.292-.094.338-.094 1.82 0 1.453.014 1.668.124 1.955.022.059-.081.065-1.153.065-1.253 0-1.418.02-1.669.199-.222.158-.302.369-.302.801 0 .331.013.403.1.558.11.197.294.34.515.401.2.056 20.53.056 20.73 0a.842.842 0 0 0 .515-.401c.087-.156.1-.226.099-.558-.001-.433-.081-.645-.301-.801-.251-.179-.416-.199-1.669-.199-1.072 0-1.175-.006-1.153-.065.11-.287.124-.502.124-1.955 0-1.482-.002-1.528-.094-1.82a3.089 3.089 0 0 0-2.025-2.039l-.321-.101-5.42-.006c-2.981-.003-5.511.01-5.621.029m10.811 2.018c.279.083.546.35.629.629.084.282.089 2.325.006 2.6a1.02 1.02 0 0 1-.461.582l-.184.108H6.7l-.184-.108a1.199 1.199 0 0 1-.291-.249C6.014 19.347 6 19.245 6 18.022c0-1.324.019-1.435.301-1.716.321-.322-.099-.299 5.662-.303 4.494-.003 5.168.005 5.347.058" fill-rule="evenodd" fill="#000" stroke="none"/></svg>