<svg xmlns="http://www.w3.org/2000/svg" width="24" height="24" fill="none" stroke="currentColor" stroke-width="2" stroke-linecap="round" stroke-linejoin="round"><path d="M2.614 1.057a.814.814 0 0 0-.505.396l-.089.167-.01 10.295c-.007 6.807.003 10.345.03 10.444.104.388.395.603.856.632.485.031.803-.109.984-.433.1-.178.1-.178.113-1.451.011-1.136.019-1.271.075-1.25.283.109.502.123 1.952.123 1.482 0 1.528-.002 1.82-.094a3.086 3.086 0 0 0 2.046-2.046l.094-.3V6.46l-.094-.3c-.309-.991-1.094-1.77-2.064-2.048-.31-.089-.377-.092-1.802-.092-1.423 0-1.561.009-1.947.124-.063.018-.069-.081-.08-1.252-.013-1.226-.016-1.278-.102-1.439a.874.874 0 0 0-.213-.254c-.264-.189-.721-.249-1.064-.142m18 0a.814.814 0 0 0-.505.396c-.089.166-.089.177-.1 2.439-.011 2.127-.016 2.271-.08 2.252-.387-.115-.525-.124-1.949-.124-1.425 0-1.492.003-1.802.092-.97.278-1.755 1.057-2.064 2.048l-.094.3v7.08l.094.3a3.086 3.086 0 0 0 2.046 2.046c.292.092.338.094 1.82.094 1.453 0 1.668-.014 1.955-.124.06-.022.065.159.065 2.17 0 1.346.016 2.25.041 2.339.107.385.396.597.855.626.485.031.803-.109.984-.433l.1-.178V1.62l-.089-.167a.874.874 0 0 0-.213-.254c-.264-.189-.721-.249-1.064-.142M7.31 6.061c.279.083.546.35.629.629.053.178.061.856.061 5.311 0 4.211-.01 5.138-.055 5.289a1.02 1.02 0 0 1-.461.582l-.184.108H4.7l-.184-.108a1.051 1.051 0 0 1-.458-.556c-.089-.255-.087-10.323.003-10.626.079-.269.351-.547.612-.627.279-.086 2.35-.088 2.637-.002m12 2c.279.083.546.35.629.629.086.29.092 6.314.006 6.6a1.02 1.02 0 0 1-.461.582l-.184.108h-2.6l-.184-.108a1.051 1.051 0 0 1-.458-.556c-.089-.253-.087-6.325.003-6.626.079-.269.351-.547.612-.627.279-.086 2.35-.088 2.637-.002" fill-rule="evenodd" fill="#000" stroke="none"/></svg>