<svg xmlns="http://www.w3.org/2000/svg" width="24" height="24" fill="none" stroke="currentColor" stroke-width="2" stroke-linecap="round" stroke-linejoin="round"><path d="M9.614 1.057a.814.814 0 0 0-.505.396c-.086.161-.089.212-.101 1.439-.011 1.175-.017 1.271-.08 1.252-.386-.115-.525-.124-1.948-.124-1.425 0-1.492.003-1.802.092-.97.278-1.755 1.057-2.064 2.048l-.094.3v11.08l.094.3a3.086 3.086 0 0 0 2.046 2.046c.292.092.338.094 1.82.094 1.453 0 1.668-.014 1.955-.124.059-.022.065.083.065 1.17 0 .676.018 1.257.041 1.339.107.385.396.597.855.626.485.031.803-.109.984-.433l.1-.178V1.62l-.089-.167a.874.874 0 0 0-.213-.254c-.264-.189-.721-.249-1.064-.142m10 0a.814.814 0 0 0-.505.396c-.089.166-.089.177-.1 2.439-.011 2.127-.016 2.271-.08 2.252-.387-.115-.525-.124-1.949-.124-1.425 0-1.492.003-1.802.092-.97.278-1.755 1.057-2.064 2.048l-.094.3v7.08l.094.3a3.086 3.086 0 0 0 2.046 2.046c.292.092.338.094 1.82.094 1.453 0 1.668-.014 1.955-.124.06-.022.065.159.065 2.17 0 1.346.016 2.25.041 2.339.107.385.396.597.855.626.485.031.803-.109.984-.433l.1-.178V1.62l-.089-.167a.874.874 0 0 0-.213-.254c-.264-.189-.721-.249-1.064-.142M8.31 6.061c.279.083.546.35.629.629.053.178.061.856.061 5.311 0 4.211-.01 5.138-.055 5.289a1.02 1.02 0 0 1-.461.582l-.184.108H5.7l-.184-.108a1.051 1.051 0 0 1-.458-.556c-.089-.255-.087-10.323.003-10.626.079-.269.351-.547.612-.627.279-.086 2.35-.088 2.637-.002m10 2c.279.083.546.35.629.629.086.29.092 6.314.006 6.6a1.02 1.02 0 0 1-.461.582l-.184.108h-2.6l-.184-.108a1.051 1.051 0 0 1-.458-.556c-.089-.253-.087-6.325.003-6.626.079-.269.351-.547.612-.627.279-.086 2.35-.088 2.637-.002" fill-rule="evenodd" fill="#000" stroke="none"/></svg>