<svg xmlns="http://www.w3.org/2000/svg" width="24" height="24" fill="none" stroke="currentColor" stroke-width="2" stroke-linecap="round" stroke-linejoin="round"><path d="M11.358 1.061c-1.627.254-2.941 1.523-3.275 3.166-.383 1.878.673 3.804 2.457 4.484.176.067.352.132.39.144.066.021.07.345.07 6.057v6.035l-.25-.033c-1.518-.2-3.141-.903-4.38-1.895a9.661 9.661 0 0 1-1.93-2.139c-.667-1.017-1.232-2.545-1.346-3.641L3.069 13h1.075c.597 0 1.14-.018 1.221-.041a.842.842 0 0 0 .515-.401c.087-.156.1-.226.099-.558-.001-.433-.081-.645-.301-.801C5.414 11.011 5.297 11 3.5 11s-1.914.011-2.178.199c-.3.213-.373.648-.285 1.7a11.052 11.052 0 0 0 2.189 5.734c.475.636 1.527 1.683 2.174 2.164 3.964 2.948 9.266 2.937 13.237-.027.609-.454 1.679-1.524 2.133-2.133a11.046 11.046 0 0 0 2.193-5.749c.087-1.034.012-1.478-.285-1.689-.264-.188-.381-.199-2.178-.199s-1.914.011-2.178.199c-.222.158-.302.369-.302.801 0 .331.013.403.1.558.11.197.294.34.515.401.081.023.624.041 1.221.041h1.075l-.025.239c-.114 1.096-.679 2.624-1.346 3.641-.522.796-1.263 1.613-1.96 2.163-1.249.985-2.849 1.673-4.35 1.871l-.25.033v-6.035c0-5.712.004-6.036.07-6.057 1.272-.405 2.167-1.209 2.634-2.367a3.963 3.963 0 0 0 .001-2.972 3.978 3.978 0 0 0-3.1-2.458 3.728 3.728 0 0 0-1.247.003m1.165 2.012a2.011 2.011 0 0 1 1.27 2.807c-.155.318-.566.745-.863.895a2.07 2.07 0 0 1-1.422.165c-.685-.178-1.259-.746-1.435-1.417a2.001 2.001 0 0 1 2.45-2.45" fill-rule="evenodd" fill="#000" stroke="none"/></svg>