<svg xmlns="http://www.w3.org/2000/svg" width="24" height="24" fill="none" stroke="currentColor" stroke-width="2" stroke-linecap="round" stroke-linejoin="round"><path d="m11.28 1.023-.56.06c-1.89.201-3.747.947-5.359 2.154-.56.419-1.362 1.189-1.867 1.791a7.868 7.868 0 0 1-.415.473.585.585 0 0 0-.113.172c-.041.081-.197.345-.347.587-1.477 2.382-1.971 5.354-1.353 8.139.137.615.644 2.158.75 2.278.03.035.121.195.202.357.475.951 1.14 1.849 2.02 2.728 1.664 1.664 3.504 2.626 5.899 3.083 1.114.212 2.598.202 3.846-.027a11.065 11.065 0 0 0 4.65-2.047 13.213 13.213 0 0 0 1.774-1.685c.158-.19.346-.409.417-.486.071-.077.164-.203.207-.28.043-.077.21-.356.371-.62a10.968 10.968 0 0 0 .956-9.387 31.012 31.012 0 0 1-.241-.701c-.044-.137-.097-.26-.119-.273-.022-.014-.11-.163-.195-.332a12.405 12.405 0 0 0-1.033-1.644c-.454-.608-1.523-1.677-2.13-2.128-1.399-1.04-2.879-1.704-4.49-2.014a67.17 67.17 0 0 1-.73-.144c-.197-.041-1.868-.083-2.14-.054m-.016 2.247c-.074.126-.606 1.048-1.183 2.048-.578 1-1.101 1.882-1.164 1.96a1.208 1.208 0 0 0-.166.287c-.045.128-1.359 2.442-1.375 2.423a625.33 625.33 0 0 1-1.111-1.921L5.161 6.154l.229-.258c.928-1.039 2.365-1.965 3.77-2.43.695-.23 1.563-.409 2.049-.421l.188-.005-.133.23m2.936.007a9.084 9.084 0 0 1 5.137 3.513l.15.21-4.023-.002a326.983 326.983 0 0 1-4.024-.014c0-.01 1.5-2.615 2.046-3.554.087-.149.179-.27.206-.27.026 0 .255.053.508.117M5.149 10.14c.66 1.144 1.214 2.125 1.23 2.18a.934.934 0 0 0 .138.24c.06.077.384.617.721 1.2.336.583.636 1.101.668 1.15l.056.091-2.227-.011-2.227-.01-.073-.214c-.278-.816-.412-1.718-.412-2.766 0-1.15.143-2.013.496-3 .161-.452.393-.983.416-.956.008.009.555.952 1.214 2.096m9.431.325c.462.803.84 1.494.84 1.535 0 .041-.378.732-.84 1.535l-.84 1.462h-3.48l-.84-1.462c-.462-.803-.84-1.494-.84-1.536 0-.041.378-.732.84-1.535l.84-1.461h3.48l.84 1.462m5.985-1.231c.278.816.412 1.718.412 2.766 0 1.15-.143 2.013-.496 3-.162.452-.393.983-.416.956-.061-.068-2.421-4.198-2.444-4.276a.912.912 0 0 0-.139-.24c-.06-.077-.384-.617-.72-1.2a97.013 97.013 0 0 0-.668-1.15l-.056-.091 2.227.011 2.227.01.073.214m-2.83 6.7 1.105 1.913-.221.247c-.493.549-1.308 1.215-1.984 1.62a9.45 9.45 0 0 1-2.844 1.103c-.425.085-1.191.186-1.191.157 0-.042 2.392-4.139 2.482-4.25a1.25 1.25 0 0 0 .167-.29c.044-.127 1.359-2.441 1.376-2.421.003.004.503.868 1.11 1.921m-5.175 1.082c0 .023-2.167 3.764-2.2 3.799-.047.049-.563-.072-1.22-.286a10.217 10.217 0 0 1-2.1-1.018 9.475 9.475 0 0 1-2.377-2.301l-.15-.21 4.023.002c2.213.001 4.024.008 4.024.014" fill="#000" fill-rule="evenodd" stroke="none"/></svg>