<svg xmlns="http://www.w3.org/2000/svg" width="24" height="24" fill="none" stroke="currentColor" stroke-width="2" stroke-linecap="round" stroke-linejoin="round"><path d="M3.499 3.043C2.38 3.232 1.461 4.048 1.114 5.16c-.088.282-.094.361-.094 1.34 0 .979.006 1.058.094 1.34.25.801.815 1.474 1.546 1.844l.32.161.02 4.368.02 4.367.094.28c.332.991 1.07 1.722 2.046 2.026l.3.094h13.08l.3-.094c.976-.304 1.714-1.035 2.046-2.026l.094-.28.02-4.367.02-4.368.32-.161a3.111 3.111 0 0 0 1.546-1.844c.088-.282.094-.361.094-1.34 0-.979-.006-1.058-.094-1.34a3.089 3.089 0 0 0-2.025-2.039l-.321-.101-8.42-.006c-4.631-.003-8.511.01-8.621.029M20.31 5.061c.279.083.546.35.629.629.081.271.085 1.338.006 1.6a1.02 1.02 0 0 1-.461.582l-.184.108H3.7l-.184-.108a1.051 1.051 0 0 1-.458-.556c-.082-.235-.081-1.345.003-1.626.079-.269.351-.547.612-.627.16-.049 1.357-.058 8.31-.06 7.161-.003 8.147.004 8.327.058M19 14.054c0 4.399.006 4.266-.221 4.564-.061.08-.194.195-.295.254l-.184.108H5.7l-.184-.108a1.199 1.199 0 0 1-.291-.249C4.99 18.315 5 18.511 5 14.075V10h14v4.054m-9.386-1.997a.814.814 0 0 0-.505.396c-.074.139-.089.231-.089.547 0 .331.013.403.1.558.11.197.294.34.515.401.196.055 4.534.055 4.73 0a.842.842 0 0 0 .515-.401c.087-.156.1-.226.099-.558-.001-.433-.081-.645-.301-.801-.272-.194-.342-.199-2.694-.196-1.691.002-2.243.014-2.37.054" fill-rule="evenodd" fill="#000" stroke="none"/></svg>