<svg xmlns="http://www.w3.org/2000/svg" width="24" height="24" fill="none" stroke="currentColor" stroke-width="2" stroke-linecap="round" stroke-linejoin="round"><path d="m11.28 1.023-.56.06c-1.888.2-3.729.94-5.36 2.152-.609.453-1.676 1.52-2.134 2.132C.728 8.714.301 13.032 2.097 16.78c.546 1.138 1.179 2.021 2.141 2.982.961.962 1.844 1.595 2.982 2.141 3.747 1.796 8.068 1.367 11.417-1.133.609-.454 1.679-1.524 2.133-2.133 2.974-3.985 2.974-9.289 0-13.274-.454-.608-1.523-1.677-2.13-2.128-1.595-1.186-3.275-1.875-5.217-2.139C13 1.038 11.574.99 11.28 1.023m2.04 2.078c2.563.387 4.804 1.83 6.24 4.019.303.463.743 1.359.932 1.9.346.993.485 1.845.485 2.98 0 1.493-.257 2.621-.897 3.94-.705 1.454-1.769 2.667-3.153 3.592-.789.528-2.051 1.056-3.019 1.265a9.053 9.053 0 0 1-7.538-1.778c-1.513-1.212-2.648-2.99-3.103-4.859-.186-.763-.244-1.272-.244-2.16 0-1.493.257-2.621.897-3.94a8.983 8.983 0 0 1 5.24-4.594c.705-.233 1.272-.348 2.18-.442.322-.033 1.571.015 1.98.077m-1.706 3.956a.814.814 0 0 0-.505.396l-.089.167-.011 2.978-.011 2.977-1.229-1.223c-.769-.764-1.292-1.254-1.397-1.307-.352-.177-.733-.087-1.073.254-.347.347-.436.712-.259 1.064.061.121.726.819 2.094 2.198 1.103 1.112 2.04 2.073 2.082 2.135.102.154.545.353.784.353s.682-.199.784-.353c.042-.062.979-1.023 2.082-2.135 1.368-1.379 2.033-2.077 2.094-2.198.177-.352.088-.717-.259-1.064-.34-.341-.721-.431-1.073-.254-.105.053-.628.542-1.397 1.307l-1.229 1.223-.011-2.978-.011-2.977-.089-.167a.874.874 0 0 0-.213-.254c-.264-.189-.721-.249-1.064-.142" fill="#000" fill-rule="evenodd" stroke="none"/></svg>