<svg xmlns="http://www.w3.org/2000/svg" width="24" height="24" fill="none" stroke="currentColor" stroke-width="2" stroke-linecap="round" stroke-linejoin="round"><path d="M6.597 6.05a1.79 1.79 0 0 0-.286.157c-.146.103-.353.534-.347.722.002.072.016 2.453.03 5.291l.026 5.16.1.178c.167.298.452.442.88.442s.713-.144.88-.442l.1-.178.011-3.979.011-3.978 4.229 4.224c3.018 3.015 4.28 4.25 4.406 4.314.353.176.718.087 1.064-.26.347-.346.436-.711.26-1.064-.064-.126-1.299-1.389-4.315-4.407L9.421 8h3.899c2.489 0 3.952-.015 4.045-.041a.842.842 0 0 0 .515-.401c.087-.156.1-.226.099-.558-.001-.315-.016-.409-.091-.55-.104-.198-.313-.348-.568-.408-.121-.028-1.882-.046-5.369-.052-4.864-.009-5.199-.006-5.354.06" fill="#000" fill-rule="evenodd" stroke="none"/></svg>