<svg xmlns="http://www.w3.org/2000/svg" width="24" height="24" fill="none" stroke="currentColor" stroke-width="2" stroke-linecap="round" stroke-linejoin="round"><path d="M11.62 2.046c-.208.107-7.345 7.226-7.493 7.474-.094.157-.107.223-.107.52 0 .288.015.367.1.518.11.197.294.34.515.401.086.024.8.041 1.755.041H8v5.11c0 3.3.015 5.161.041 5.255a.842.842 0 0 0 .401.515l.178.1 3.292.011c2.148.007 3.345-.003 3.444-.03a.84.84 0 0 0 .524-.403l.1-.178.011-5.188.01-5.189 1.65-.011 1.649-.012.186-.109c.478-.282.684-.815.475-1.234-.122-.243-7.347-7.472-7.589-7.593a.894.894 0 0 0-.752.002m2.677 4.671 2.277 2.278-.958.012c-.938.013-.963.015-1.157.115a.796.796 0 0 0-.418.513C14.015 9.729 14 11.59 14 14.89V20h-3.999l-.01-5.19-.011-5.19-.089-.167a.874.874 0 0 0-.213-.254C9.439 9.028 9.243 9 8.304 9H7.42L9.7 6.72A187.994 187.994 0 0 1 12 4.44c.011 0 1.045 1.025 2.297 2.277" fill-rule="evenodd" fill="#000" stroke="none"/></svg>