<svg xmlns="http://www.w3.org/2000/svg" width="24" height="24" fill="none" stroke="currentColor" stroke-width="2" stroke-linecap="round" stroke-linejoin="round"><path d="m11.719 6-5.061.02-.199.102c-.34.175-.481.484-.45.982.029.459.241.748.626.855.093.026 1.556.041 4.045.041h3.899l-4.225 4.23c-3.016 3.018-4.251 4.281-4.315 4.407-.176.353-.087.718.26 1.064.346.347.711.436 1.064.26.126-.064 1.389-1.299 4.407-4.315L16 9.421v3.899c0 2.489.015 3.952.041 4.045.107.385.396.597.855.626.485.031.803-.109.984-.433l.1-.178.026-5.16c.015-2.838.028-5.219.03-5.291.006-.188-.201-.619-.346-.722-.224-.16-.485-.248-.703-.237-.114.005-2.484.018-5.268.03" fill="#000" fill-rule="evenodd" stroke="none"/></svg>