<svg xmlns="http://www.w3.org/2000/svg" width="24" height="24" fill="none" stroke="currentColor" stroke-width="2" stroke-linecap="round" stroke-linejoin="round"><path d="M16.626 2.045c-.369.194-.675.628-.675.955 0 .333.105.467 1.402 1.77L18.577 6h-4.882c-5.233 0-5.087-.005-5.373.199-.222.158-.302.369-.302.801 0 .331.013.403.1.558.11.197.294.34.515.401.094.026 1.885.041 5.044.041h4.898l-1.224 1.23c-.805.809-1.254 1.291-1.313 1.407-.177.352-.088.717.259 1.064.347.347.712.436 1.064.259.121-.061.819-.726 2.198-2.094 1.112-1.103 2.073-2.04 2.135-2.082.154-.102.353-.545.353-.784 0-.255-.198-.679-.373-.799-.075-.051-1.036-.988-2.136-2.083-1.308-1.301-2.058-2.019-2.168-2.074a.884.884 0 0 0-.746.001M6.62 12.046c-.095.049-.968.886-2.16 2.072-1.1 1.095-2.061 2.032-2.136 2.083-.175.12-.373.544-.373.799 0 .239.199.682.353.784.062.042 1.023.979 2.135 2.082 1.379 1.368 2.077 2.033 2.198 2.094.352.177.717.088 1.064-.259.347-.347.436-.712.259-1.064-.059-.116-.508-.598-1.313-1.407L5.423 18h4.898c3.159 0 4.95-.015 5.044-.041a.842.842 0 0 0 .515-.401c.087-.156.1-.226.099-.558-.001-.433-.081-.645-.301-.801-.286-.204-.14-.199-5.373-.199H5.423l1.224-1.23c.805-.809 1.254-1.291 1.313-1.407.177-.352.088-.717-.259-1.064-.34-.34-.734-.432-1.081-.253" fill="#000" fill-rule="evenodd" stroke="none"/></svg>