<svg xmlns="http://www.w3.org/2000/svg" width="24" height="24" fill="none" stroke="currentColor" stroke-width="2" stroke-linecap="round" stroke-linejoin="round"><path d="M11.62 4.046c-.099.051-1.491 1.41-3.66 3.572-1.925 1.92-3.561 3.532-3.636 3.583-.175.12-.373.543-.373.799 0 .239.199.682.353.784.063.042 1.699 1.654 3.635 3.582 2.484 2.474 3.573 3.532 3.698 3.595.353.176.717.087 1.064-.26.347-.347.436-.711.26-1.064-.063-.124-.903-.993-2.814-2.907L7.421 13h5.9c3.828 0 5.95-.015 6.044-.041a.842.842 0 0 0 .515-.401c.087-.156.1-.226.099-.558-.001-.433-.081-.645-.301-.801-.289-.206-.062-.199-6.374-.199H7.421l2.726-2.73c1.911-1.914 2.751-2.783 2.814-2.907.176-.353.087-.717-.26-1.064-.34-.34-.734-.432-1.081-.253" fill="#000" fill-rule="evenodd" stroke="none"/></svg>