<svg xmlns="http://www.w3.org/2000/svg" width="24" height="24" fill="none" stroke="currentColor" stroke-width="2" stroke-linecap="round" stroke-linejoin="round"><path d="M6.626 6.045c-.206.109-.48.388-.588.599a.795.795 0 0 0 .001.719c.064.126 1.299 1.389 4.315 4.407L14.579 16h-3.883c-4.157 0-4.091-.003-4.374.199-.183.13-.292.374-.313.701-.031.481.11.799.433.98l.178.1 5.16.026c2.838.014 5.219.028 5.291.03.152.004.597-.188.697-.301.111-.126.273-.527.268-.666-.002-.071-.015-2.451-.03-5.289l-.026-5.16-.091-.17c-.165-.31-.56-.48-1.015-.439-.435.04-.733.263-.833.624-.026.093-.041 1.556-.041 4.045v3.899l-4.23-4.225c-2.885-2.883-4.284-4.253-4.398-4.31a.884.884 0 0 0-.746.001" fill="#000" fill-rule="evenodd" stroke="none"/></svg>