<svg xmlns="http://www.w3.org/2000/svg" width="24" height="24" fill="none" stroke="currentColor" stroke-width="2" stroke-linecap="round" stroke-linejoin="round"><path d="M8.614 2.057a.814.814 0 0 0-.505.396l-.089.167-.011 5.19-.01 5.19H6.447c-1.787 0-1.844.008-2.141.296-.352.342-.444.711-.267 1.067.125.251 7.347 7.473 7.598 7.598a.807.807 0 0 0 .726 0c.222-.112 7.347-7.209 7.51-7.481.094-.158.107-.221.105-.52-.002-.39-.089-.611-.3-.761-.262-.187-.388-.199-2.084-.199h-1.593l-.01-5.19-.011-5.19-.089-.167c-.106-.197-.269-.322-.52-.398-.262-.078-6.505-.076-6.757.002M14 9.11c0 3.3.015 5.161.041 5.255a.842.842 0 0 0 .401.515c.173.097.206.101 1.148.12l.971.02-2.281 2.28L12 19.58l-2.29-2.29L7.42 15h.9c.495 0 .965-.019 1.045-.041a.842.842 0 0 0 .515-.401l.1-.178.011-5.19.01-5.19H14v5.11" fill-rule="evenodd" fill="#000" stroke="none"/></svg>