<svg xmlns="http://www.w3.org/2000/svg" width="24" height="24" fill="none" stroke="currentColor" stroke-width="2" stroke-linecap="round" stroke-linejoin="round"><path d="M11.626 4.045c-.206.109-.48.388-.588.599a.795.795 0 0 0 .001.719c.063.124.903.993 2.814 2.907L16.579 11h-5.883c-6.312 0-6.085-.007-6.374.199-.222.158-.302.369-.302.801 0 .331.013.403.1.558.11.197.294.34.515.401.094.026 2.216.041 6.044.041h5.9l-2.726 2.73c-1.911 1.914-2.751 2.783-2.814 2.907-.176.353-.087.717.26 1.064.347.347.711.436 1.064.26.125-.063 1.214-1.121 3.698-3.595 1.936-1.928 3.572-3.54 3.635-3.582.154-.102.353-.545.353-.784 0-.256-.198-.679-.373-.799-.075-.051-1.711-1.663-3.636-3.583-2.365-2.359-3.555-3.517-3.668-3.574a.884.884 0 0 0-.746.001" fill="#000" fill-rule="evenodd" stroke="none"/></svg>