<svg xmlns="http://www.w3.org/2000/svg" width="24" height="24" fill="none" stroke="currentColor" stroke-width="2" stroke-linecap="round" stroke-linejoin="round"><path d="M16.62 6.046c-.1.051-1.74 1.661-4.389 4.307l-4.229 4.224-.011-3.978L7.98 6.62l-.089-.167c-.106-.197-.269-.322-.52-.398-.509-.153-1.06.021-1.262.398l-.089.167-.026 5.16a2144.16 2144.16 0 0 1-.03 5.291c-.004.152.188.597.301.697.126.111.527.273.666.268.071-.002 2.451-.016 5.289-.03 4.937-.025 5.166-.029 5.3-.101.356-.19.458-.391.458-.905 0-.433-.079-.644-.3-.801-.283-.202-.217-.199-4.374-.199H9.421l4.225-4.23c3.016-3.018 4.251-4.281 4.315-4.407.176-.353.087-.718-.26-1.064-.34-.34-.733-.432-1.081-.253" fill="#000" fill-rule="evenodd" stroke="none"/></svg>