<svg xmlns="http://www.w3.org/2000/svg" width="24" height="24" fill="none" stroke="currentColor" stroke-width="2" stroke-linecap="round" stroke-linejoin="round"><path d="M11.53 4.083c-.137.067-.281.169-.32.228-.038.059-1.648 1.692-3.576 3.628-2.474 2.484-3.532 3.573-3.595 3.698-.176.353-.087.717.26 1.064.347.347.711.436 1.064.26.124-.063.993-.903 2.907-2.814L11 7.421v5.9c0 3.828.015 5.95.041 6.044.107.385.396.597.855.626.485.031.803-.109.984-.433l.1-.178.011-5.979.01-5.978 2.73 2.724c1.914 1.911 2.782 2.751 2.906 2.814.353.176.717.087 1.064-.26.347-.347.436-.711.26-1.064-.063-.125-1.121-1.214-3.595-3.698-1.928-1.936-3.538-3.569-3.577-3.628-.038-.059-.185-.162-.325-.229-.344-.164-.593-.164-.934.001" fill="#000" fill-rule="evenodd" stroke="none"/></svg>