<svg xmlns="http://www.w3.org/2000/svg" width="24" height="24" fill="none" stroke="currentColor" stroke-width="2" stroke-linecap="round" stroke-linejoin="round"><path d="M9.62 4.046c-.238.122-7.465 7.36-7.581 7.591a.807.807 0 0 0 0 .726c.109.217 7.208 7.347 7.473 7.504a.94.94 0 0 0 .42.122c.443.035.77-.113.948-.431l.1-.178.012-1.69.012-1.69h5.108c3.298 0 5.159-.015 5.253-.041a.842.842 0 0 0 .515-.401l.1-.178V8.62l-.089-.167a.874.874 0 0 0-.213-.254C21.391 7.994 21.554 8 16.095 8h-5.092l-.011-1.65-.012-1.65-.109-.186a1.366 1.366 0 0 0-.539-.489c-.178-.091-.514-.081-.712.021m-.5 5.512c.11.197.294.34.515.401.094.026 1.955.041 5.255.041H20v4h-5.094c-5.461 0-5.297-.006-5.584.199a.874.874 0 0 0-.213.254c-.083.156-.09.231-.109 1.137l-.02.971L6.7 14.28 4.42 12 6.7 9.72l2.28-2.281.02.971c.019.942.023.975.12 1.148" fill-rule="evenodd" fill="#000" stroke="none"/></svg>