<svg xmlns="http://www.w3.org/2000/svg" width="24" height="24" fill="none" stroke="currentColor" stroke-width="2" stroke-linecap="round" stroke-linejoin="round"><path d="M13.66 4.027c-.224.12-.421.3-.531.487l-.109.186-.012 1.65L12.997 8H7.905c-5.459 0-5.296-.006-5.583.199a.874.874 0 0 0-.213.254l-.089.167v6.76l.1.178c.11.197.294.34.515.401.094.026 1.955.041 5.255.041H13v1.61c0 .955.017 1.669.041 1.755a.842.842 0 0 0 .401.515c.151.085.23.1.518.1.297 0 .363-.013.52-.107.272-.163 7.369-7.288 7.481-7.51a.807.807 0 0 0 0-.726c-.122-.243-7.347-7.472-7.589-7.593-.204-.102-.539-.109-.712-.017M17.3 14.28l-2.28 2.281-.02-.971c-.019-.904-.027-.981-.109-1.137a.874.874 0 0 0-.213-.254c-.287-.205-.123-.199-5.584-.199H4v-4h5.11c3.3 0 5.161-.015 5.255-.041a.842.842 0 0 0 .515-.401c.098-.174.1-.199.113-1.155l.013-.977 2.287 2.287L19.58 12l-2.28 2.28" fill-rule="evenodd" fill="#000" stroke="none"/></svg>