<svg xmlns="http://www.w3.org/2000/svg" width="24" height="24" fill="none" stroke="currentColor" stroke-width="2" stroke-linecap="round" stroke-linejoin="round"><path d="M11.614 4.057a.814.814 0 0 0-.505.396l-.089.167-.011 5.979-.01 5.979-2.73-2.725c-1.827-1.825-2.785-2.753-2.897-2.809-.352-.176-.733-.085-1.073.255-.347.347-.436.711-.26 1.064.063.125 1.121 1.214 3.595 3.698 1.928 1.936 3.54 3.572 3.582 3.635.102.154.545.353.784.353s.682-.199.784-.353c.042-.063 1.654-1.699 3.582-3.635 2.474-2.484 3.532-3.573 3.595-3.698.176-.353.087-.717-.26-1.064-.34-.34-.721-.431-1.073-.255-.112.056-1.07.984-2.897 2.809l-2.73 2.724-.01-5.978-.011-5.979-.089-.167a.874.874 0 0 0-.213-.254c-.264-.189-.721-.249-1.064-.142" fill="#000" fill-rule="evenodd" stroke="none"/></svg>