<svg xmlns="http://www.w3.org/2000/svg" width="24" height="24" fill="none" stroke="currentColor" stroke-width="2" stroke-linecap="round" stroke-linejoin="round"><path d="M11.614 5.057a.814.814 0 0 0-.505.396c-.089.166-.089.175-.1 2.481-.01 1.96-.02 2.31-.067 2.292-.031-.012-.872-.493-1.869-1.07-.997-.577-1.899-1.082-2.003-1.122-.377-.146-.694-.06-.98.264a1.597 1.597 0 0 0-.249.408c-.15.402-.089.686.206.957.095.088 1.014.644 2.043 1.237 1.029.593 1.87 1.089 1.87 1.102 0 .013-.841.508-1.87 1.101-1.029.592-1.948 1.148-2.043 1.234-.294.269-.357.556-.207.951.097.259.355.568.563.673.176.09.43.099.644.023.081-.029.993-.541 2.027-1.138a116.675 116.675 0 0 1 1.903-1.086c.013 0 .023 1.003.023 2.23 0 1.37.016 2.286.041 2.375.107.385.396.597.855.626.485.031.803-.109.984-.433l.1-.178.012-2.31c.006-1.27.02-2.31.031-2.31s.867.489 1.902 1.086c1.035.597 1.948 1.109 2.028 1.138a.858.858 0 0 0 .644-.023c.208-.105.466-.414.563-.673.15-.395.087-.682-.207-.951-.095-.086-1.015-.642-2.043-1.234-1.028-.593-1.87-1.088-1.87-1.101 0-.013.842-.509 1.87-1.102 1.028-.594 1.939-1.141 2.023-1.217.408-.367.4-.889-.021-1.378-.283-.33-.602-.418-.982-.271-.104.04-1.006.545-2.003 1.122-.997.577-1.838 1.058-1.868 1.07-.047.018-.058-.338-.067-2.292-.012-2.305-.012-2.315-.101-2.481a.874.874 0 0 0-.213-.254c-.264-.189-.721-.249-1.064-.142" fill-rule="evenodd" fill="#000" stroke="none"/></svg>