<svg xmlns="http://www.w3.org/2000/svg" width="24" height="24" fill="none" stroke="currentColor" stroke-width="2" stroke-linecap="round" stroke-linejoin="round"><path d="m11.28 1.024-.54.059c-1.948.207-3.903 1.008-5.537 2.268-.517.399-1.575 1.478-1.974 2.012-1.393 1.87-2.136 3.981-2.215 6.297-.086 2.498.683 4.919 2.215 6.977.45.605 1.521 1.675 2.134 2.133 2.843 2.124 6.388 2.764 9.777 1.766a10.73 10.73 0 0 0 3.18-1.538c.635-.45.8-.661.8-1.026 0-.245-.136-.528-.366-.765-.273-.28-.528-.369-.825-.289-.091.024-.441.228-.778.453-.71.473-1.152.712-1.786.967-1.486.597-3.164.799-4.689.563a9.043 9.043 0 0 1-5.706-3.294c-.79-.988-1.423-2.276-1.703-3.467-.193-.821-.246-1.294-.242-2.18.004-1.15.162-2.054.535-3.06.963-2.599 3.078-4.629 5.683-5.455 1.001-.318 1.655-.418 2.737-.421.95-.002 1.419.055 2.281.277a8.972 8.972 0 0 1 4.99 3.384c.883 1.199 1.424 2.526 1.651 4.055.083.557.123 2.239.063 2.6a1.913 1.913 0 0 1-.562 1.064c-.401.403-.856.596-1.403.596a2 2 0 0 1-1.688-.937c-.301-.466-.287-.307-.311-3.543l-.021-2.9-.089-.167c-.202-.377-.753-.551-1.262-.398-.37.112-.57.353-.616.744l-.023.193-.265-.171c-.73-.47-1.379-.696-2.255-.785a5.11 5.11 0 0 0-2.222.284 5.097 5.097 0 0 0-2.722 2.465c-.368.748-.506 1.351-.506 2.215 0 .67.058 1.044.248 1.6.578 1.691 1.985 2.925 3.772 3.307.471.101 1.449.101 1.92 0a5.103 5.103 0 0 0 2.521-1.332l.26-.254.18.226c.098.124.31.338.471.476 2.085 1.786 5.287 1.007 6.312-1.535.075-.188.175-.522.22-.744.077-.372.082-.498.064-1.604-.022-1.345-.086-1.899-.326-2.836-.52-2.027-1.526-3.752-3.047-5.224-1.693-1.639-3.799-2.653-6.19-2.981-.43-.059-1.858-.109-2.145-.075m1.581 8.105c.943.276 1.723 1.054 2.014 2.01.083.273.098.403.098.861 0 .458-.015.588-.098.861a3.073 3.073 0 0 1-2.035 2.025c-.434.135-1.246.135-1.68 0a3.073 3.073 0 0 1-2.035-2.025c-.083-.273-.098-.403-.098-.861 0-.458.015-.588.098-.861a3.042 3.042 0 0 1 2.374-2.099c.333-.06 1.001-.017 1.362.089" fill-rule="evenodd" fill="#000" stroke="none"/></svg>