<svg xmlns="http://www.w3.org/2000/svg" width="24" height="24" fill="none" stroke="currentColor" stroke-width="2" stroke-linecap="round" stroke-linejoin="round"><path d="M11.207.043A8.055 8.055 0 0 0 6.9 1.847a7.857 7.857 0 0 0-2.1 2.682 7.994 7.994 0 0 0 .989 8.511c.247.304.9.958 1.189 1.191l.158.127-.573 4.31c-.417 3.143-.567 4.374-.551 4.544.029.323.168.525.451.654.275.127.582.157.817.083.099-.032 1.2-.67 2.446-1.419l2.267-1.362 2.233 1.34c1.229.737 2.301 1.374 2.382 1.416.111.056.234.076.478.076h.33l.225-.232c.226-.232.358-.498.36-.725 0-.057-.255-2.034-.568-4.394l-.568-4.291.157-.127c.087-.07.335-.299.552-.509A7.955 7.955 0 0 0 19.2 4.529a7.857 7.857 0 0 0-2.1-2.682C15.483.494 13.337-.163 11.207.043m1.357 1.996a5.991 5.991 0 0 1 5.107 4.021 6.036 6.036 0 0 1-.543 5.04c-.451.756-1.3 1.618-1.895 1.923a.84.84 0 0 0-.213.137c-.044.071-.699.381-1.08.512-.692.237-1.118.303-1.94.303-.617 0-.81-.015-1.16-.09a6.108 6.108 0 0 1-2.085-.857A5.953 5.953 0 0 1 6.329 9.94c-.497-1.457-.397-3.191.261-4.52a5.833 5.833 0 0 1 1.141-1.615 5.918 5.918 0 0 1 4.833-1.766m-3.06 13.557c1.648.54 3.344.54 4.993 0 .262-.086.48-.152.484-.146.022.027.741 5.562.724 5.578-.011.011-.78-.437-1.709-.994l-1.69-1.014h-.612l-1.69 1.014c-.929.557-1.698 1.005-1.709.995-.015-.016.708-5.589.726-5.589.004 0 .221.07.483.156" fill="#000" fill-rule="evenodd" stroke="none"/></svg>