<svg xmlns="http://www.w3.org/2000/svg" width="24" height="24" fill="none" stroke="currentColor" stroke-width="2" stroke-linecap="round" stroke-linejoin="round"><path d="M12.62 2.046c-.235.121-4.466 4.362-4.581 4.591a.798.798 0 0 0 .002.726c.054.106.379.469.813.908l.723.731-4.022 4.029c-2.662 2.666-4.074 4.109-4.175 4.266a3.053 3.053 0 0 0-.489 1.861 3.009 3.009 0 0 0 1.171 2.281c.544.432 1.069.629 1.78.668a3.03 3.03 0 0 0 1.861-.487c.157-.101 1.599-1.513 4.265-4.174l4.028-4.021.012 1.438.012 1.437.107.204c.201.38.531.572.888.515.219-.034 1.883-.581 2.465-.809 1.144-.448 2.017-1.004 2.875-1.83 1.351-1.301 2.143-2.788 2.545-4.781.194-.958.053-1.369-.529-1.544C22.23 8.013 21.865 8 20.804 8h-1.383l-2.94-2.936c-1.977-1.973-2.996-2.963-3.109-3.02a.894.894 0 0 0-.752.002m3.06 5.057c1.49 1.49 2.739 2.709 2.84 2.77.18.107.18.107 1.205.127l1.026.02-.115.34c-.251.74-.744 1.572-1.295 2.188a6.533 6.533 0 0 1-2.835 1.888c-.261.09-.481.164-.488.164-.007 0-.018-.428-.025-.95-.011-.832-.022-.967-.087-1.09-.041-.077-1.292-1.36-2.78-2.85L10.421 7 11.7 5.72A60.031 60.031 0 0 1 13 4.44c.011 0 1.217 1.198 2.68 2.663M11.8 11.22l.78.78-3.96 3.961c-2.911 2.911-4.008 3.984-4.139 4.048-.537.261-1.204.029-1.481-.514-.129-.251-.14-.708-.023-.955.051-.109 1.329-1.416 4.039-4.13 2.18-2.183 3.973-3.97 3.984-3.97.011 0 .371.351.8.78" fill-rule="evenodd" fill="#000" stroke="none"/></svg>