<svg xmlns="http://www.w3.org/2000/svg" width="24" height="24" fill="none" stroke="currentColor" stroke-width="2" stroke-linecap="round" stroke-linejoin="round"><path d="M11.614 3.057a.814.814 0 0 0-.505.396l-.089.167-.01 8.294c-.007 5.477.003 8.346.03 8.444.104.389.394.604.856.633.485.031.803-.109.984-.433l.1-.178V3.62l-.089-.167a.874.874 0 0 0-.213-.254c-.264-.189-.721-.249-1.064-.142m6 6a.814.814 0 0 0-.505.396l-.089.167-.011 5.294c-.007 3.479.004 5.345.03 5.444.105.389.395.603.857.633.485.031.803-.109.984-.433l.1-.178V9.62l-.089-.167a.874.874 0 0 0-.213-.254c-.264-.189-.721-.249-1.064-.142m-12 4a.814.814 0 0 0-.505.396l-.089.167-.011 3.292c-.007 2.148.003 3.345.03 3.444.105.391.395.605.857.635.485.031.803-.109.984-.433l.1-.178v-6.76l-.089-.167a.874.874 0 0 0-.213-.254c-.264-.189-.721-.249-1.064-.142" fill="#000" fill-rule="evenodd" stroke="none"/></svg>