<svg xmlns="http://www.w3.org/2000/svg" width="24" height="24" fill="none" stroke="currentColor" stroke-width="2" stroke-linecap="round" stroke-linejoin="round"><path d="M11.57 3.042a1.036 1.036 0 0 0-.274.21c-.057.067-.994 1.897-2.083 4.065-1.088 2.169-2.02 4.024-2.071 4.123-.051.099-.555 1.116-1.12 2.26-1.149 2.327-1.159 2.354-.982 2.72.105.217.358.42.672.539.398.152.763.07.996-.224.067-.085.525-.96 1.017-1.945L8.62 13h6.76l.906 1.812c.499.997.957 1.873 1.018 1.946.141.166.384.28.604.281.382.002.899-.302 1.052-.619.177-.366.167-.393-.982-2.72a537.394 537.394 0 0 0-1.12-2.26c-.051-.099-.974-1.936-2.051-4.083-1.078-2.146-2.007-3.959-2.065-4.028-.147-.174-.489-.332-.77-.355-.185-.015-.267-.001-.402.068m1.62 5.578c.644 1.287 1.17 2.349 1.17 2.36 0 .011-1.062.02-2.36.02-1.298 0-2.36-.009-2.36-.02 0-.039 2.34-4.7 2.36-4.7.011 0 .547 1.053 1.19 2.34M3.614 19.057a.814.814 0 0 0-.505.396c-.074.139-.089.231-.089.547 0 .331.013.403.1.558.11.197.294.34.515.401.2.056 16.53.056 16.73 0a.842.842 0 0 0 .515-.401c.087-.156.1-.226.099-.558-.001-.433-.081-.645-.301-.801-.292-.209.121-.199-8.694-.196-6.617.002-8.236.012-8.37.054" fill-rule="evenodd" fill="#000" stroke="none"/></svg>