<svg xmlns="http://www.w3.org/2000/svg" width="24" height="24" fill="none" stroke="currentColor" stroke-width="2" stroke-linecap="round" stroke-linejoin="round"><path d="M3.499 6.043c-1.119.19-2.038 1.005-2.385 2.117l-.094.3v7.08l.094.3a3.086 3.086 0 0 0 2.046 2.046l.3.094h13.08l.3-.094a3.086 3.086 0 0 0 2.046-2.046l.094-.3V8.46l-.094-.3a3.089 3.089 0 0 0-2.025-2.039l-.321-.101-6.42-.006c-3.531-.003-6.511.01-6.621.029M16.31 8.061c.279.083.546.35.629.629.086.29.092 6.314.006 6.6a1.02 1.02 0 0 1-.461.582l-.184.108H3.7l-.184-.108a1.051 1.051 0 0 1-.458-.556c-.089-.253-.087-6.325.003-6.626.079-.269.351-.547.612-.627.29-.089 12.337-.091 12.637-.002m-10.696.996a.814.814 0 0 0-.505.396c-.089.166-.089.176-.1 2.458-.008 1.481.003 2.345.03 2.444.105.392.394.606.857.636.485.031.803-.109.984-.433l.1-.178V9.62l-.089-.167a.874.874 0 0 0-.213-.254c-.264-.189-.721-.249-1.064-.142m4 0a.814.814 0 0 0-.505.396c-.089.166-.089.176-.1 2.458-.008 1.481.003 2.345.03 2.444.105.392.394.606.857.636.485.031.803-.109.984-.433l.1-.178V9.62l-.089-.167a.874.874 0 0 0-.213-.254c-.264-.189-.721-.249-1.064-.142m4 0a.814.814 0 0 0-.505.396c-.089.166-.089.176-.1 2.458-.008 1.481.003 2.345.03 2.444.105.392.394.606.857.636.485.031.803-.109.984-.433l.1-.178V9.62l-.089-.167a.874.874 0 0 0-.213-.254c-.264-.189-.721-.249-1.064-.142m8 1a.814.814 0 0 0-.505.396c-.086.161-.089.212-.101 1.455-.008.812.003 1.346.03 1.444.106.395.394.609.858.639.485.031.803-.109.984-.433l.1-.178V12c0-1.35-.002-1.384-.089-1.547a.874.874 0 0 0-.213-.254c-.264-.189-.721-.249-1.064-.142" fill="#000" fill-rule="evenodd" stroke="none"/></svg>