<svg xmlns="http://www.w3.org/2000/svg" width="24" height="24" fill="none" stroke="currentColor" stroke-width="2" stroke-linecap="round" stroke-linejoin="round"><path d="M10.597 6.039a1.294 1.294 0 0 0-.284.232c-.175.193-3.179 5.192-3.28 5.457-.149.394-.08.671.241.959.334.3.405.313 1.753.313.645 0 1.173.011 1.173.024 0 .013-.471.808-1.047 1.767-.575.959-1.079 1.831-1.12 1.937-.145.383-.08.666.217.939.245.225.478.338.75.362.256.024.414-.037.633-.243.153-.145 3.251-5.286 3.327-5.522.066-.205.028-.613-.077-.819a.809.809 0 0 0-.205-.246c-.252-.18-.414-.199-1.703-.199H9.764l1.064-1.77c.585-.974 1.097-1.856 1.138-1.96.151-.39.081-.668-.242-.959-.357-.321-.822-.433-1.127-.272m-7.098.004C2.383 6.23 1.461 7.048 1.114 8.16l-.094.3v7.08l.094.3a3.108 3.108 0 0 0 2.026 2.044c.265.087.352.092 1.664.107.911.01 1.439.001 1.544-.028a.842.842 0 0 0 .532-.405c.087-.156.1-.226.099-.558-.002-.531-.129-.757-.524-.928-.08-.035-.513-.056-1.435-.071L3.7 15.98l-.184-.108a1.199 1.199 0 0 1-.291-.249c-.231-.303-.225-.2-.225-3.601 0-3.55-.012-3.404.303-3.719C3.601 8.005 3.638 8 5.557 8c.991 0 1.722-.017 1.808-.041a.842.842 0 0 0 .515-.401c.087-.156.1-.226.099-.558-.001-.433-.081-.645-.301-.801-.266-.19-.375-.199-2.234-.194-.959.002-1.835.02-1.945.038m10.115.013c-.238.077-.403.206-.505.397-.074.139-.089.231-.089.547 0 .331.013.403.1.558.11.197.294.34.515.401.082.023.652.041 1.308.041 1.365 0 1.469.018 1.754.303.315.315.303.172.303 3.698 0 3.371.003 3.323-.221 3.617-.061.08-.194.195-.295.254l-.184.108-1.821.02-1.821.02-.199.102c-.34.175-.481.484-.45.982.03.465.243.752.64.859.104.028.798.037 2.044.028 1.846-.014 1.893-.016 2.167-.106a3.111 3.111 0 0 0 2.026-2.045l.094-.3V8.46l-.094-.3a3.077 3.077 0 0 0-2.025-2.036c-.311-.096-.363-.1-1.701-.111-1.07-.008-1.417.001-1.546.043m8 4.001a.814.814 0 0 0-.505.396c-.086.161-.089.212-.101 1.455-.008.812.003 1.346.03 1.444.106.395.394.609.858.639.485.031.803-.109.984-.433l.1-.178V12c0-1.35-.002-1.384-.089-1.547a.874.874 0 0 0-.213-.254c-.264-.189-.721-.249-1.064-.142" fill-rule="evenodd" fill="#000" stroke="none"/></svg>