<svg xmlns="http://www.w3.org/2000/svg" width="24" height="24" fill="none" stroke="currentColor" stroke-width="2" stroke-linecap="round" stroke-linejoin="round"><path d="M4.18 2.039c-.465.12-.666.408-.668.958-.002.351.07.559.259.754.167.172.437.249.876.249h.352l.01 7.79.011 7.79.094.28c.332.991 1.07 1.722 2.046 2.026l.3.094h9.08l.3-.094c.976-.304 1.714-1.035 2.046-2.026l.094-.28.011-7.79.01-7.79h.352c.803 0 1.133-.292 1.133-1.003 0-.506-.183-.801-.577-.933-.173-.058-.938-.064-7.9-.06-4.24.002-7.763.018-7.829.035M17 8.5V13H7V4h10v4.5m0 8.554c0 2.229-.004 2.28-.221 2.564-.061.08-.194.195-.295.254l-.184.108H7.7l-.184-.108a1.199 1.199 0 0 1-.291-.249C7 19.328 7 19.328 7 17.075V15h10v2.054" fill-rule="evenodd" fill="#000" stroke="none"/></svg>