<svg xmlns="http://www.w3.org/2000/svg" width="24" height="24" fill="none" stroke="currentColor" stroke-width="2" stroke-linecap="round" stroke-linejoin="round"><path d="M1.626 1.045c-.206.109-.48.388-.588.599a.792.792 0 0 0 .002.719c.061.121.719.811 2.098 2.197l2.009 2.02-.053.28c-.029.154-.071.757-.093 1.34-.096 2.527-.328 3.922-.896 5.374-.437 1.118-.867 1.8-1.57 2.49-.271.266-.511.533-.534.593-.148.39.097.969.515 1.215l.184.108 6.94.01 6.939.011 2.441 2.435c1.701 1.698 2.494 2.463 2.617 2.524.353.177.717.088 1.064-.259.347-.347.436-.711.259-1.064-.061-.122-.866-.961-2.607-2.717a2387.494 2387.494 0 0 0-2.619-2.64l-7.587-7.568C6.029 4.604 2.615 1.209 2.56 1.167c-.297-.226-.65-.272-.934-.122m9.548-.001a6.85 6.85 0 0 0-2.692.906c-.506.297-.745.524-.821.778a.867.867 0 0 0-.034.324c.066.35.407.817.682.933a.949.949 0 0 0 .671-.021c.088-.04.293-.156.456-.258.732-.454 1.652-.706 2.584-.705 2.326 0 4.365 1.646 4.863 3.925.065.299.089.616.118 1.574.054 1.764.191 2.843.541 4.255.198.798.304 1.011.577 1.162.443.245 1.276-.021 1.463-.468.087-.208.071-.483-.059-1.001A17.687 17.687 0 0 1 19 8.2c-.001-.997-.091-1.597-.364-2.418a7.017 7.017 0 0 0-5.716-4.724 8.857 8.857 0 0 0-1.746-.014M10.8 12.22 14.58 16H5.166l.294-.57c.886-1.717 1.354-3.629 1.505-6.14.028-.468.052-.85.053-.85l3.782 3.78m-.773 7.798c-.084.03-.25.119-.368.197-.641.426-.557 1.095.237 1.889.308.308.423.393.744.55.528.258.803.324 1.36.324s.832-.066 1.36-.324c.321-.157.436-.242.744-.55.808-.809.88-1.471.207-1.907-.386-.249-.676-.297-.971-.161-.174.08-.251.155-.488.471-.189.254-.316.357-.534.434a.927.927 0 0 1-.636 0c-.218-.077-.345-.18-.534-.434-.237-.316-.314-.391-.488-.471a.847.847 0 0 0-.633-.018" fill-rule="evenodd" fill="#000" stroke="none"/></svg>