<svg xmlns="http://www.w3.org/2000/svg" width="24" height="24" fill="none" stroke="currentColor" stroke-width="2" stroke-linecap="round" stroke-linejoin="round"><path d="M11.42 1.026c-1.357.162-2.303.493-3.3 1.157A7.015 7.015 0 0 0 5 7.992c0 1.627-.221 3.401-.578 4.642-.423 1.468-1.021 2.574-1.828 3.377-.238.237-.465.489-.503.56-.051.094-.07.221-.071.469 0 .289.015.367.1.518.11.197.294.34.515.401.095.027 3.3.041 9.328.041 8.412 0 9.199-.006 9.376-.066.482-.164.828-.834.66-1.277-.023-.06-.264-.327-.536-.593-.576-.563-.885-1.004-1.282-1.832-.648-1.351-.979-2.79-1.139-4.952-.048-.645-.087-.797-.25-.983-.196-.223-.326-.273-.712-.275-.376-.002-.581.054-.762.206-.28.235-.327.504-.255 1.458.175 2.347.645 4.15 1.517 5.824l.256.49H5.166l.294-.57c.444-.861.747-1.67.999-2.67.341-1.354.474-2.425.54-4.34.047-1.367.126-1.771.499-2.563.676-1.438 2.065-2.498 3.645-2.782.324-.058 1.084-.068 1.737-.021.438.031.469.028.64-.061.292-.152.48-.532.48-.97-.001-.646-.327-.885-1.337-.981-.415-.04-.981-.047-1.243-.016m3.194 3.031a.814.814 0 0 0-.505.396c-.074.139-.089.231-.089.547 0 .331.013.403.1.558.11.197.294.34.515.401.197.055 6.533.055 6.73 0a.842.842 0 0 0 .515-.401c.087-.156.1-.226.099-.558-.001-.433-.081-.645-.301-.801-.28-.2-.267-.199-3.694-.196-2.512.002-3.24.014-3.37.054m-4.587 15.961c-.084.03-.25.119-.368.197-.641.426-.557 1.095.237 1.889.308.308.423.393.744.55.528.258.803.324 1.36.324s.832-.066 1.36-.324c.321-.157.436-.242.744-.55.808-.809.88-1.471.207-1.907-.386-.249-.676-.297-.971-.161-.174.08-.251.155-.488.471-.189.254-.316.357-.534.434a.927.927 0 0 1-.636 0c-.218-.077-.345-.18-.534-.434-.237-.316-.314-.391-.488-.471a.847.847 0 0 0-.633-.018" fill-rule="evenodd" fill="#000" stroke="none"/></svg>