<svg xmlns="http://www.w3.org/2000/svg" width="24" height="24" fill="none" stroke="currentColor" stroke-width="2" stroke-linecap="round" stroke-linejoin="round"><path d="M11.54 1.023c-.825.079-1.29.177-1.92.404A7.011 7.011 0 0 0 5.456 5.53C5.148 6.337 5.049 6.919 5 8.2c-.049 1.284-.072 1.621-.162 2.34-.188 1.5-.55 2.769-1.109 3.883a5.558 5.558 0 0 1-1.194 1.641c-.271.266-.511.533-.534.593-.148.39.097.969.515 1.215l.184.108 9.254.01c6.116.007 9.306-.003 9.404-.03.373-.1.588-.378.628-.811.042-.44-.036-.593-.563-1.12a5.73 5.73 0 0 1-1.147-1.598c-.587-1.169-.949-2.458-1.133-4.031-.075-.643-.098-1.002-.143-2.2-.048-1.273-.126-1.744-.427-2.58-.857-2.382-2.992-4.147-5.471-4.522-.376-.057-1.289-.101-1.562-.075m1.012 2.02a5.008 5.008 0 0 1 4.128 3.205c.218.566.32 1.243.32 2.12.001.605.088 1.83.179 2.511.232 1.738.678 3.227 1.361 4.551l.294.57H5.166l.294-.57c.683-1.324 1.127-2.809 1.361-4.551.088-.655.178-1.932.179-2.531 0-.857.104-1.539.32-2.1a4.997 4.997 0 0 1 5.232-3.205m-2.525 16.975c-.084.03-.25.119-.368.197-.641.426-.557 1.095.237 1.889.308.308.423.393.744.55.528.258.803.324 1.36.324s.832-.066 1.36-.324c.321-.157.436-.242.744-.55.808-.809.88-1.471.207-1.907-.386-.249-.676-.297-.971-.161-.174.08-.251.155-.488.471-.189.254-.316.357-.534.434a.927.927 0 0 1-.636 0c-.218-.077-.345-.18-.534-.434-.237-.316-.314-.391-.488-.471a.847.847 0 0 0-.633-.018" fill-rule="evenodd" fill="#000" stroke="none"/></svg>