<svg xmlns="http://www.w3.org/2000/svg" width="24" height="24" fill="none" stroke="currentColor" stroke-width="2" stroke-linecap="round" stroke-linejoin="round"><path d="M11.42 1.026c-1.357.162-2.303.493-3.3 1.157A7.015 7.015 0 0 0 5 7.992c0 1.627-.221 3.401-.578 4.642-.423 1.468-1.021 2.574-1.828 3.377-.238.237-.465.489-.503.56-.051.094-.07.221-.071.469 0 .289.015.367.1.518.11.197.294.34.515.401.095.027 3.3.041 9.328.041 8.412 0 9.199-.006 9.376-.066.482-.164.828-.834.66-1.277-.023-.06-.263-.327-.534-.593-.577-.566-.886-1.006-1.28-1.824a10.126 10.126 0 0 1-.729-2.074c-.157-.636-.228-.809-.402-.973-.153-.145-.295-.193-.569-.193-.509 0-.932.233-1.055.581-.088.248-.07.463.093 1.116.227.908.552 1.797.939 2.573l.365.73H5.166l.294-.57c.444-.861.747-1.67.999-2.67.341-1.354.474-2.425.54-4.34.047-1.367.126-1.771.499-2.563.676-1.438 2.065-2.498 3.645-2.782.324-.058 1.084-.068 1.737-.021.438.031.469.028.64-.061.292-.152.48-.532.48-.97-.001-.646-.327-.885-1.337-.981-.415-.04-.981-.047-1.243-.016m6.194.031a.814.814 0 0 0-.505.396c-.085.16-.089.215-.101 1.357L16.996 4h-1.092c-1.16 0-1.334.022-1.582.199-.222.158-.302.369-.302.801 0 .331.013.403.1.558.11.197.294.34.515.401.081.023.635.041 1.255.041H17v1.11c0 .62.018 1.174.041 1.255.107.385.396.597.855.626.485.031.803-.109.984-.433.099-.177.1-.184.113-1.368L19.005 6h1.108c.618 0 1.171-.018 1.252-.041a.842.842 0 0 0 .515-.401c.087-.156.1-.226.099-.558-.001-.433-.081-.645-.301-.801C21.43 4.022 21.256 4 20.096 4h-1.091l-.012-1.19c-.012-1.141-.017-1.197-.102-1.357a.874.874 0 0 0-.213-.254c-.264-.189-.721-.249-1.064-.142m-7.587 18.961c-.084.03-.25.119-.368.197-.641.426-.557 1.095.237 1.889.308.308.423.393.744.55.528.258.803.324 1.36.324s.832-.066 1.36-.324c.321-.157.436-.242.744-.55.808-.809.88-1.471.207-1.907-.386-.249-.676-.297-.971-.161-.174.08-.251.155-.488.471-.189.254-.316.357-.534.434a.927.927 0 0 1-.636 0c-.218-.077-.345-.18-.534-.434-.237-.316-.314-.391-.488-.471a.847.847 0 0 0-.633-.018" fill-rule="evenodd" fill="#000" stroke="none"/></svg>