<svg xmlns="http://www.w3.org/2000/svg" width="24" height="24" fill="none" stroke="currentColor" stroke-width="2" stroke-linecap="round" stroke-linejoin="round"><path d="M14.477 3.073c-.671.176-1.239.75-1.417 1.435a2.07 2.07 0 0 0 .165 1.422c.136.269.576.709.845.845a2.047 2.047 0 0 0 1.86 0c.266-.135.708-.575.841-.838a2.05 2.05 0 0 0 .169-1.408 1.806 1.806 0 0 0-.475-.876 1.984 1.984 0 0 0-1.988-.58M12.636 7.07c-.284.145-4.351 3.204-4.46 3.354-.248.343-.29.632-.136.939.06.118.563.653 1.525 1.618L11 14.422v1.642c0 1.829.012 1.936.249 2.165.193.187.398.258.751.259.368.002.6-.086.787-.299.21-.239.22-.363.206-2.529l-.013-1.96-.107-.18c-.059-.099-.612-.683-1.228-1.297l-1.12-1.117 1.108-.831c.609-.457 1.121-.817 1.138-.8.017.017.368.533.78 1.147.661.986.772 1.131.946 1.237l.197.121 1.251.012c.787.008 1.309-.003 1.407-.03a.84.84 0 0 0 .528-.404c.087-.156.1-.226.099-.558-.001-.433-.081-.645-.301-.801-.236-.169-.438-.199-1.318-.199h-.827l-.89-1.336c-.49-.735-.938-1.381-.997-1.436-.317-.298-.638-.348-1.01-.158M4.9 13.045c-1.469.184-2.849 1.2-3.479 2.564a4.503 4.503 0 0 0 .256 4.255c.61.991 1.565 1.686 2.76 2.007.341.092.458.103 1.063.103s.722-.011 1.063-.103c1.987-.534 3.327-2.16 3.425-4.154.138-2.796-2.286-5.022-5.088-4.672m13 0c-1.469.184-2.849 1.2-3.479 2.564a4.503 4.503 0 0 0 .256 4.255c.61.991 1.565 1.686 2.76 2.007.341.092.458.103 1.063.103s.722-.011 1.063-.103c1.987-.534 3.327-2.16 3.425-4.154.138-2.796-2.286-5.022-5.088-4.672M6.02 15.06a2.502 2.502 0 0 1 1.695 1.302c.372.756.375 1.516.008 2.258a2.53 2.53 0 0 1-1.403 1.248c-.268.097-.355.108-.82.108-.465 0-.552-.011-.82-.108a2.528 2.528 0 0 1-1.62-2.888c.279-1.336 1.614-2.202 2.96-1.92m13 0a2.502 2.502 0 0 1 1.695 1.302c.372.756.375 1.516.008 2.258a2.53 2.53 0 0 1-1.403 1.248c-.268.097-.355.108-.82.108-.465 0-.552-.011-.82-.108a2.53 2.53 0 0 1-1.403-1.248c-.93-1.88.695-3.989 2.743-3.56" fill-rule="evenodd" fill="#000" stroke="none"/></svg>