<svg xmlns="http://www.w3.org/2000/svg" width="24" height="24" fill="none" stroke="currentColor" stroke-width="2" stroke-linecap="round" stroke-linejoin="round"><path d="M5.614 3.057a.814.814 0 0 0-.505.396l-.089.167-.011 3.292c-.007 2.148.003 3.345.03 3.444a.84.84 0 0 0 .403.524l.178.1 2.291.011c1.481.008 2.345-.003 2.444-.03a.841.841 0 0 0 .525-.403l.1-.178V3.62l-.089-.167c-.106-.197-.269-.322-.52-.398-.259-.078-4.507-.076-4.757.002m8 0a.814.814 0 0 0-.505.396c-.074.139-.089.231-.089.547 0 .331.013.403.1.558.11.197.294.34.515.401.08.022.42.041.755.041H15v4h-.594c-.829 0-1.106.097-1.297.453-.074.139-.089.231-.089.547 0 .331.013.403.1.558.11.197.294.34.515.401.196.055 4.534.055 4.73 0a.842.842 0 0 0 .515-.401c.087-.156.1-.226.099-.558-.001-.313-.017-.409-.089-.547-.188-.356-.466-.453-1.295-.453h-.592l-.012-2.69-.011-2.69-.089-.167c-.106-.197-.269-.322-.52-.398-.254-.076-2.512-.074-2.757.002M9 7v2H7V5h2v2m-3.386 6.057a.814.814 0 0 0-.505.396c-.074.139-.089.231-.089.547 0 .331.013.403.1.558.11.197.294.34.515.401.08.022.42.041.755.041H7v4h-.594c-.829 0-1.106.097-1.297.453-.074.139-.089.231-.089.547 0 .331.013.403.1.558.11.197.294.34.515.401.196.055 4.534.055 4.73 0a.842.842 0 0 0 .515-.401c.087-.156.1-.226.099-.558-.001-.313-.017-.409-.089-.547-.188-.356-.466-.453-1.295-.453h-.592l-.012-2.69-.011-2.69-.089-.167c-.106-.197-.269-.322-.52-.398-.254-.076-2.512-.074-2.757.002m8 0a.814.814 0 0 0-.505.396l-.089.167-.011 3.292c-.007 2.148.003 3.345.03 3.444a.84.84 0 0 0 .403.524l.178.1 2.291.011c1.481.008 2.345-.003 2.444-.03a.841.841 0 0 0 .525-.403l.1-.178v-6.76l-.089-.167c-.106-.197-.269-.322-.52-.398-.259-.078-4.507-.076-4.757.002M17 17v2h-2v-4h2v2" fill-rule="evenodd" fill="#000" stroke="none"/></svg>