<svg xmlns="http://www.w3.org/2000/svg" width="24" height="24" fill="none" stroke="currentColor" stroke-width="2" stroke-linecap="round" stroke-linejoin="round"><path d="M10.076 1.733c-.283.15-.381.352-.514 1.064a7.594 7.594 0 0 1-.133.627c-.01.011-.293-.028-.627-.085-.69-.118-.906-.102-1.155.088-.272.208-.436.813-.327 1.213.06.224.284.447.536.532.1.035.417.103.703.152.287.05.521.11.522.133.002.093-2.054 11.725-2.077 11.749-.013.015-.258-.016-.544-.068-.782-.142-1.018-.122-1.279.107-.239.21-.396.803-.303 1.148.057.213.255.44.464.532.128.056 1.156.275 1.295.275.017 0-.011.23-.061.51-.121.668-.122.941-.006 1.171a.83.83 0 0 0 .226.269c.425.282 1.155.274 1.412-.016.132-.147.228-.438.327-.989.056-.305.108-.562.117-.571.014-.014 1.909.306 1.94.328.006.004-.036.284-.094.621-.119.695-.11.859.058 1.125.136.213.36.331.754.397.307.052.51.015.732-.135.205-.138.309-.389.42-1.012.055-.307.109-.598.12-.648.017-.081.044-.09.249-.09.608-.001 1.458-.236 2.026-.561 1.362-.779 2.184-2.152 2.251-3.759.019-.452.008-.613-.063-.987a4.246 4.246 0 0 0-.749-1.773 6.561 6.561 0 0 1-.225-.326c-.006-.014.124-.116.289-.226 1.632-1.094 2.372-3.225 1.774-5.108a4.459 4.459 0 0 0-2.446-2.703 7.443 7.443 0 0 1-.323-.143c-.009-.006.034-.306.095-.665.123-.722.117-.933-.033-1.155-.133-.197-.404-.344-.737-.401-.489-.083-.835.063-1.004.423-.067.144-.286 1.142-.286 1.307 0 .02-.04.037-.09.036-.13-.001-1.834-.309-1.861-.337-.013-.013.016-.245.064-.517.151-.857.097-1.191-.226-1.405-.356-.236-.897-.293-1.211-.127m2.664 4.329c1.668.293 1.793.323 2.24.537a2.392 2.392 0 0 1 1.241 1.413c.129.406.137.987.02 1.444-.301 1.175-1.39 1.914-2.661 1.806a43.309 43.309 0 0 1-1.84-.298l-1.52-.271.013-.117c.013-.126.793-4.578.828-4.727.016-.069.041-.085.11-.069.049.012.755.139 1.569.282m-1.2 6.896c.858.153 1.677.317 1.82.364.859.282 1.509.958 1.7 1.768.105.447.053 1.102-.123 1.55a2.444 2.444 0 0 1-1.734 1.463c-.473.106-.941.064-2.663-.242a59.322 59.322 0 0 1-1.535-.283c-.008-.008.177-1.099.411-2.426.234-1.327.425-2.425.425-2.442-.001-.051.098-.037 1.699.248" fill-rule="evenodd" fill="#000" stroke="none"/></svg>