<svg xmlns="http://www.w3.org/2000/svg" width="24" height="24" fill="none" stroke="currentColor" stroke-width="2" stroke-linecap="round" stroke-linejoin="round"><path d="M1.626 1.045c-.206.109-.48.388-.588.599a.795.795 0 0 0 .001.719c.064.127 1.431 1.521 4.814 4.907L10.579 12l-2.225 2.23c-1.543 1.546-2.253 2.284-2.314 2.407-.177.353-.088.717.259 1.064.347.347.712.436 1.064.259.12-.06.729-.639 1.906-1.813l1.729-1.723.011 3.938.011 3.938.109.186c.282.479.815.684 1.234.474.123-.061.861-.771 2.407-2.313L17 18.422l2.23 2.225c1.546 1.542 2.284 2.252 2.407 2.313.353.177.717.088 1.064-.259.347-.346.436-.711.26-1.064-.076-.151-3.432-3.55-10.214-10.344L7.6 6.167C4.152 2.733 2.486 1.101 2.372 1.044a.884.884 0 0 0-.746.001m10.034-.018c-.224.12-.421.3-.531.487l-.109.186-.013 2.46c-.009 1.749.001 2.521.034 2.673.092.426.422.653.953.655.354.002.561-.069.757-.259.225-.217.249-.38.249-1.666V4.42l1.289 1.289 1.289 1.289-.987.993C13.554 9.033 13.442 9.18 13.442 9.5c0 .233.127.476.375.718.382.374.749.435 1.132.189.289-.186 2.903-2.829 3.011-3.044a.804.804 0 0 0 .001-.726c-.121-.242-5.348-5.473-5.589-5.593-.204-.102-.539-.109-.712-.017m2.63 17.263L13 19.58v-5.16l1.29 1.29L15.58 17l-1.29 1.29" fill-rule="evenodd" fill="#000" stroke="none"/></svg>