<svg xmlns="http://www.w3.org/2000/svg" width="24" height="24" fill="none" stroke="currentColor" stroke-width="2" stroke-linecap="round" stroke-linejoin="round"><path d="M11.614 1.057a.814.814 0 0 0-.505.396l-.089.167-.011 3.978-.011 3.978-1.729-1.723C8.147 6.734 7.481 6.099 7.372 6.044c-.352-.176-.733-.085-1.073.255-.347.347-.436.711-.259 1.064.061.123.771.861 2.313 2.407L10.578 12l-2.225 2.23c-1.542 1.546-2.252 2.284-2.313 2.407-.177.353-.088.717.259 1.064.347.347.712.436 1.064.259.12-.06.729-.639 1.906-1.813l1.729-1.723.011 3.938.011 3.938.109.186c.282.478.815.684 1.234.475.25-.125 5.473-5.348 5.598-5.598a.804.804 0 0 0-.001-.726c-.061-.123-.771-.861-2.313-2.407L13.422 12l2.225-2.23c1.542-1.546 2.252-2.284 2.313-2.407a.804.804 0 0 0 .001-.726c-.062-.125-.876-.965-2.755-2.844-2.582-2.583-2.673-2.668-2.883-2.73a1.176 1.176 0 0 0-.709-.006M14.29 8.29 13 9.58V4.42l1.29 1.29L15.58 7l-1.29 1.29m6.2-.091c-.209.095-.526.406-.631.621-.096.196-.099.511-.007.686.036.07.194.277.35.46.337.397.532.73.671 1.147.09.273.102.372.102.887s-.012.614-.102.887c-.139.417-.334.75-.671 1.147-.352.414-.416.534-.419.786-.003.255.099.464.346.712.339.34.697.43 1.049.265.361-.17.978-.924 1.303-1.592.362-.743.499-1.348.499-2.205 0-.448-.02-.714-.073-.96-.203-.948-.634-1.79-1.245-2.434-.443-.465-.783-.584-1.172-.407m-2.876 2.856c-.394.129-.575.382-.605.845-.031.481.11.799.433.98.155.087.227.1.558.1.312 0 .408-.016.54-.086.326-.176.46-.435.46-.894 0-.643-.287-.952-.917-.984-.19-.01-.365.005-.469.039M14.29 18.29 13 19.58v-5.16l1.29 1.29L15.58 17l-1.29 1.29" fill-rule="evenodd" fill="#000" stroke="none"/></svg>