<svg xmlns="http://www.w3.org/2000/svg" width="24" height="24" fill="none" stroke="currentColor" stroke-width="2" stroke-linecap="round" stroke-linejoin="round"><path d="M11.614 1.057a.814.814 0 0 0-.505.396l-.089.167-.011 3.978-.011 3.978-1.729-1.723C8.147 6.734 7.481 6.099 7.372 6.044c-.352-.176-.733-.085-1.073.255-.347.347-.436.711-.259 1.064.061.123.771.861 2.313 2.407L10.578 12l-2.225 2.23c-1.542 1.546-2.252 2.284-2.313 2.407-.177.353-.088.717.259 1.064.347.347.712.436 1.064.259.12-.06.729-.639 1.906-1.813l1.729-1.723.011 3.938.011 3.938.109.186c.282.478.815.684 1.234.475.25-.125 5.473-5.348 5.598-5.598a.804.804 0 0 0-.001-.726c-.061-.123-.771-.861-2.313-2.407L13.422 12l2.225-2.23c1.542-1.546 2.252-2.284 2.313-2.407a.804.804 0 0 0 .001-.726c-.062-.125-.876-.965-2.755-2.844-2.582-2.583-2.673-2.668-2.883-2.73a1.176 1.176 0 0 0-.709-.006M14.29 8.29 13 9.58V4.42l1.29 1.29L15.58 7l-1.29 1.29m0 10L13 19.58v-5.16l1.29 1.29L15.58 17l-1.29 1.29" fill-rule="evenodd" fill="#000" stroke="none"/></svg>