<svg xmlns="http://www.w3.org/2000/svg" width="24" height="24" fill="none" stroke="currentColor" stroke-width="2" stroke-linecap="round" stroke-linejoin="round"><path d="M5.614 3.057a.814.814 0 0 0-.505.396l-.089.167-.01 8.294c-.007 5.477.003 8.346.03 8.444.06.226.203.411.402.522l.178.1h5c4.684 0 5.021-.005 5.34-.073 1.528-.327 2.788-1.277 3.473-2.619.229-.449.372-.849.474-1.328.101-.471.101-1.449 0-1.92-.283-1.325-1.04-2.458-2.12-3.177l-.353-.234.199-.205c.606-.622 1.073-1.525 1.274-2.464.053-.246.073-.512.073-.96 0-.448-.02-.714-.073-.96-.282-1.319-1.044-2.464-2.107-3.166-.754-.499-1.404-.739-2.248-.831-.607-.067-8.722-.053-8.938.014m9.247 2.065a3.072 3.072 0 0 1 2.014 2.017c.083.273.098.403.098.861 0 .458-.015.588-.098.861-.29.95-1.031 1.695-2.015 2.025l-.28.094-3.79.011-3.79.012V4.997l3.77.012 3.77.012.321.101m1 7.999a3.076 3.076 0 0 1 2.014 2.018c.083.273.098.403.098.861 0 .458-.015.588-.098.861-.289.95-1.031 1.695-2.015 2.025l-.28.094-4.29.011-4.29.011v-6.004l4.27.011 4.27.011.321.101" fill-rule="evenodd" fill="#000" stroke="none"/></svg>