<svg xmlns="http://www.w3.org/2000/svg" width="24" height="24" fill="none" stroke="currentColor" stroke-width="2" stroke-linecap="round" stroke-linejoin="round"><path d="M6.499 2.043c-1.109.188-2.011.981-2.385 2.097l-.094.28-.011 8.358c-.012 9.399-.04 8.566.303 8.947.282.313.552.388.928.255.094-.033 1.653-.907 3.465-1.943L12 18.154l3.29 1.88c2.045 1.168 3.363 1.898 3.482 1.928.333.084.737.001.962-.197a.996.996 0 0 0 .16-.225l.086-.16V4.46l-.094-.3a3.089 3.089 0 0 0-2.025-2.039l-.321-.101-5.42-.006c-2.981-.003-5.511.01-5.621.029M17.31 4.061a.996.996 0 0 1 .63.632c.053.183.059 1.084.05 7.392l-.01 7.184-2.74-1.566c-1.508-.862-2.818-1.597-2.911-1.635A1.086 1.086 0 0 0 12 16c-.087 0-.235.031-.329.068-.093.038-1.403.773-2.911 1.635l-2.74 1.566-.01-7.184c-.011-8.084-.035-7.453.293-7.782.318-.318-.07-.297 5.68-.3 4.475-.003 5.148.005 5.327.058M8.614 9.057a.814.814 0 0 0-.505.396c-.074.139-.089.231-.089.547 0 .331.013.403.1.558.11.197.294.34.515.401.197.055 6.533.055 6.73 0a.842.842 0 0 0 .515-.401c.087-.156.1-.226.099-.558-.001-.433-.081-.645-.301-.801-.28-.2-.267-.199-3.694-.196-2.512.002-3.24.014-3.37.054" fill-rule="evenodd" fill="#000" stroke="none"/></svg>