<svg xmlns="http://www.w3.org/2000/svg" width="24" height="24" fill="none" stroke="currentColor" stroke-width="2" stroke-linecap="round" stroke-linejoin="round"><path d="M5.873 1.063a3.5 3.5 0 0 0-1.915 1.042c-.396.419-.64.844-.828 1.443l-.11.352v16.2l.11.352c.381 1.214 1.204 2.037 2.418 2.418l.352.11 7.153.011c4.754.007 7.204-.003 7.304-.03a.84.84 0 0 0 .523-.403l.1-.178V1.62l-.089-.167c-.106-.197-.269-.322-.52-.398C20.098.973 6.33.98 5.873 1.063M19 9.5V16h-6.375c-6.926 0-6.729-.006-7.329.22a4.26 4.26 0 0 1-.282.1c-.008 0-.011-2.74-.005-6.09l.011-6.09.112-.24c.198-.425.624-.776 1.042-.858.091-.018 3.015-.035 6.496-.038L19 3v6.5m0 10v1.501l-6.43-.011-6.43-.01-.24-.112a1.675 1.675 0 0 1-.765-.764c-.095-.208-.111-.296-.111-.604-.001-.309.015-.394.11-.6.194-.423.621-.776 1.04-.858.091-.018 3.015-.035 6.496-.038L19 18v1.5" fill-rule="evenodd" fill="#000" stroke="none"/></svg>