<svg xmlns="http://www.w3.org/2000/svg" width="24" height="24" fill="none" stroke="currentColor" stroke-width="2" stroke-linecap="round" stroke-linejoin="round"><path d="M1.614 2.057a.814.814 0 0 0-.505.396l-.089.167-.01 7.794c-.007 5.144.003 7.845.03 7.944.06.226.203.411.402.522l.178.1 3.9.021c4.357.023 4.066.003 4.543.311.59.382.934 1.013.936 1.717.001.275.1.561.248.717.333.349 1.207.331 1.539-.032.123-.135.214-.438.216-.725.007-.708.381-1.347 1.012-1.724.45-.27.367-.265 4.494-.265 2.363 0 3.765-.015 3.857-.041a.842.842 0 0 0 .515-.401l.1-.178V2.62l-.089-.167a.874.874 0 0 0-.213-.254C22.398 2 22.407 2 19.012 2c-3.26 0-3.682.016-4.252.162a5.05 5.05 0 0 0-2.404 1.431L12 3.969l-.355-.374c-.843-.891-1.901-1.422-3.093-1.552-.601-.066-6.723-.053-6.938.014m7.247 2.065a3.088 3.088 0 0 1 2.018 2.017l.101.321.011 5.53c.006 3.042.001 5.53-.011 5.53s-.125-.051-.251-.114a3.638 3.638 0 0 0-1.124-.348C9.294 17.012 8.622 17 6.11 17H3V3.996l2.77.013 2.77.013.321.1M21 10.5V17h-3.11c-2.512 0-3.184.012-3.495.058a3.638 3.638 0 0 0-1.124.348 2.172 2.172 0 0 1-.251.114c-.012 0-.017-2.488-.011-5.53l.011-5.53.101-.321c.347-1.096 1.27-1.91 2.378-2.096.11-.018 1.394-.036 2.851-.038L21 4v6.5" fill-rule="evenodd" fill="#000" stroke="none"/></svg>