<svg xmlns="http://www.w3.org/2000/svg" width="24" height="24" fill="none" stroke="currentColor" stroke-width="2" stroke-linecap="round" stroke-linejoin="round"><path d="M11.499 2.04a3.05 3.05 0 0 0-2.385 2.12c-.135.434-.135 1.246 0 1.68a3.1 3.1 0 0 0 1.556 1.848l.33.165v2.144l-3.27.012-3.27.012-.321.101a3.088 3.088 0 0 0-2.025 2.038l-.094.3v7.08l.094.3a3.086 3.086 0 0 0 2.046 2.046l.3.094h15.08l.3-.094a3.086 3.086 0 0 0 2.046-2.046l.094-.3v-7.08l-.094-.3a3.088 3.088 0 0 0-2.025-2.038l-.321-.101-3.27-.012L13 9.997V7.853l.33-.165a3.1 3.1 0 0 0 1.556-1.848c.135-.434.135-1.246 0-1.68-.305-.981-1.076-1.753-2.025-2.031-.361-.106-1.029-.149-1.362-.089m.811 2.021c.378.112.69.537.69.94 0 .33-.216.695-.516.871-.156.091-.23.108-.484.108s-.328-.017-.484-.108c-.581-.342-.683-1.098-.212-1.569.279-.279.612-.359 1.006-.242m7 8c.279.083.546.35.629.629.086.29.092 6.314.006 6.6a1.02 1.02 0 0 1-.461.582l-.184.108H4.7l-.184-.108a1.051 1.051 0 0 1-.458-.556c-.089-.253-.087-6.325.003-6.626.079-.269.351-.547.612-.627.291-.089 14.336-.092 14.637-.002M7.614 15.057c-.391.123-.575.379-.605.843-.044.678.26 1.051.887 1.091.485.031.803-.109.984-.433.087-.156.1-.226.099-.558-.001-.433-.081-.645-.301-.801-.264-.189-.721-.249-1.064-.142m8 0c-.391.123-.575.379-.605.843-.044.678.26 1.051.887 1.091.485.031.803-.109.984-.433.087-.156.1-.226.099-.558-.001-.433-.081-.645-.301-.801-.264-.189-.721-.249-1.064-.142" fill-rule="evenodd" fill="#000" stroke="none"/></svg>