<svg xmlns="http://www.w3.org/2000/svg" width="24" height="24" fill="none" stroke="currentColor" stroke-width="2" stroke-linecap="round" stroke-linejoin="round"><path d="M3.499 1.043A3.043 3.043 0 0 0 1.122 3.14c-.104.339-.15.973-.087 1.204.111.405.393.617.861.647.696.044 1.022-.229 1.1-.919.048-.419.11-.575.305-.771.196-.195.359-.26.761-.301.473-.049.676-.164.842-.48.114-.215.105-.841-.014-1.067-.203-.383-.692-.527-1.391-.41m4.115.014a.814.814 0 0 0-.505.396c-.074.139-.089.231-.089.547 0 .331.013.403.1.558.11.197.294.34.515.401.191.053 2.539.053 2.73 0a.842.842 0 0 0 .515-.401c.087-.156.1-.226.099-.558-.001-.313-.017-.409-.089-.547-.104-.197-.267-.322-.519-.398-.254-.076-2.512-.074-2.757.002m6 0a.814.814 0 0 0-.505.396c-.074.139-.089.231-.089.547 0 .331.013.403.1.558.11.197.294.34.515.401.191.053 2.539.053 2.73 0a.842.842 0 0 0 .515-.401c.087-.156.1-.226.099-.558-.001-.313-.017-.409-.089-.547-.104-.197-.267-.322-.519-.398-.254-.076-2.512-.074-2.757.002m6-.002c-.394.129-.575.382-.605.845-.044.691.239 1.029.924 1.099.407.042.57.106.766.302.196.196.26.359.302.766.067.651.369.933.999.933.428 0 .713-.144.88-.442.091-.162.1-.22.099-.638-.001-.365-.02-.522-.094-.76-.302-.979-1.076-1.755-2.024-2.031-.402-.116-1.01-.153-1.247-.074m-18 6.002a.814.814 0 0 0-.505.396c-.086.161-.089.212-.101 1.455-.008.812.003 1.346.03 1.444.106.395.394.609.858.639.485.031.803-.109.984-.433l.1-.178V9c0-1.35-.002-1.384-.089-1.547a.874.874 0 0 0-.213-.254c-.264-.189-.721-.249-1.064-.142m20 0a.814.814 0 0 0-.505.396c-.086.161-.089.212-.101 1.455-.008.812.003 1.346.03 1.444.106.395.394.609.858.639.485.031.803-.109.984-.433l.1-.178V9c0-1.35-.002-1.384-.089-1.547a.874.874 0 0 0-.213-.254c-.264-.189-.721-.249-1.064-.142m-20 6a.814.814 0 0 0-.505.396c-.086.161-.089.212-.101 1.455-.008.812.003 1.346.03 1.444.106.395.394.609.858.639.485.031.803-.109.984-.433l.1-.178V15c0-1.35-.002-1.384-.089-1.547a.874.874 0 0 0-.213-.254c-.264-.189-.721-.249-1.064-.142m20 0a.814.814 0 0 0-.505.396c-.086.161-.089.212-.101 1.455-.008.812.003 1.346.03 1.444.106.395.394.609.858.639.485.031.803-.109.984-.433l.1-.178V15c0-1.35-.002-1.384-.089-1.547a.874.874 0 0 0-.213-.254c-.264-.189-.721-.249-1.064-.142m-20 6a.814.814 0 0 0-.505.396c-.13.243-.126.956.006 1.387a3.08 3.08 0 0 0 2.025 2.038c.339.104.973.15 1.204.087a.847.847 0 0 0 .536-.407c.087-.156.1-.226.099-.558-.001-.313-.017-.409-.089-.547-.153-.289-.369-.401-.883-.454-.38-.04-.609-.15-.781-.374-.15-.197-.19-.319-.23-.696-.04-.377-.138-.602-.318-.73-.264-.189-.721-.249-1.064-.142m20 0c-.395.124-.56.36-.614.877-.039.376-.079.497-.226.691-.175.228-.4.334-.798.375-.728.076-1.012.399-.967 1.104.03.468.242.75.647.861.231.063.865.017 1.204-.087a3.08 3.08 0 0 0 2.025-2.038c.133-.43.136-1.143.006-1.387a.874.874 0 0 0-.213-.254c-.264-.189-.721-.249-1.064-.142m-14 2a.814.814 0 0 0-.505.396c-.074.139-.089.231-.089.547 0 .331.013.403.1.558.11.197.294.34.515.401.083.023.67.041 1.365.041s1.282-.018 1.365-.041a.842.842 0 0 0 .515-.401c.087-.156.1-.226.099-.558-.001-.313-.017-.409-.089-.547-.104-.197-.267-.322-.519-.398-.254-.076-2.512-.074-2.757.002m6 0a.814.814 0 0 0-.505.396c-.074.139-.089.231-.089.547 0 .331.013.403.1.558.11.197.294.34.515.401.083.023.67.041 1.365.041s1.282-.018 1.365-.041a.842.842 0 0 0 .515-.401c.087-.156.1-.226.099-.558-.001-.313-.017-.409-.089-.547-.104-.197-.267-.322-.519-.398-.254-.076-2.512-.074-2.757.002" fill-rule="evenodd" fill="#000" stroke="none"/></svg>