<svg xmlns="http://www.w3.org/2000/svg" width="24" height="24" fill="none" stroke="currentColor" stroke-width="2" stroke-linecap="round" stroke-linejoin="round"><path d="M11.541 1.042a2.916 2.916 0 0 0-.841.268c-.11.054-1.825 1.027-3.811 2.161C4.64 4.755 3.198 5.602 3.067 5.717c-.276.24-.581.597-.694.811-.05.095-.15.343-.222.552l-.131.38v9.04l.094.3c.236.756.681 1.35 1.307 1.746.326.206 6.896 3.951 7.199 4.104.154.077.397.178.54.224.143.045.332.11.42.143.205.076.635.076.84 0 .088-.033.277-.098.42-.143.143-.046.386-.147.54-.224.303-.153 6.873-3.898 7.199-4.104a2.901 2.901 0 0 0 1.083-1.206c.341-.692.316-.297.33-5.18.014-4.587.013-4.615-.171-5.158-.18-.527-.425-.882-.888-1.285-.207-.18-7.144-4.177-7.694-4.433a3.512 3.512 0 0 0-.496-.182 3.826 3.826 0 0 0-1.202-.06m.743 2.013c.097.03 1.639.892 3.427 1.915l3.251 1.86-3.449 1.995C13.616 9.922 12.035 10.82 12 10.82c-.035 0-1.616-.898-3.513-1.995L5.037 6.83l3.252-1.86c1.788-1.023 3.323-1.884 3.411-1.913a.867.867 0 0 1 .584-.002m-4.75 7.525 3.463 2 .002 3.99c0 2.195-.008 3.99-.019 3.99s-1.49-.84-3.287-1.867c-2.292-1.309-3.312-1.913-3.419-2.024-.285-.294-.274-.121-.274-4.34 0-2.218.015-3.77.036-3.762.02.007 1.594.913 3.498 2.013M20 12.333c0 4.215.011 4.042-.274 4.336-.107.111-1.127.715-3.419 2.024a363.268 363.268 0 0 1-3.287 1.867c-.011 0-.019-1.795-.019-3.99l.002-3.99 3.468-2.007a332.4 332.4 0 0 1 3.499-2.01c.017-.002.03 1.695.03 3.77" fill-rule="evenodd" fill="#000" stroke="none"/></svg>