<svg xmlns="http://www.w3.org/2000/svg" width="24" height="24" fill="none" stroke="currentColor" stroke-width="2" stroke-linecap="round" stroke-linejoin="round"><path d="M18.78 2.004c-.605.058-1.27.307-1.84.687-.152.101-1.808 1.727-4.509 4.425-3.334 3.331-4.286 4.303-4.349 4.444-.161.36-.073.693.276 1.042.351.351.685.439 1.039.272.14-.065 1.177-1.077 4.403-4.295 2.321-2.316 4.299-4.259 4.395-4.318a1.887 1.887 0 0 1 2.283.261c.25.25.47.691.517 1.038.056.415-.037.892-.241 1.236-.048.079-1.989 2.052-4.314 4.384-4.467 4.48-4.401 4.409-4.399 4.77.001.204.119.448.324.671.355.385.762.479 1.135.262.267-.155 8.581-8.482 8.809-8.823.48-.718.706-1.437.704-2.24-.002-1.066-.406-2.023-1.159-2.743-.85-.813-1.913-1.184-3.074-1.073M6.393 14.001c-1.189.201-2.324 1.03-2.858 2.089-.267.53-.406 1.012-.443 1.536-.023.319-.031.342-.158.454-.073.064-.408.256-.744.426-.723.367-.964.574-1.108.955a1.16 1.16 0 0 0 .038.899c.156.307 1.047 1.108 1.745 1.571 1.589 1.053 3.21 1.329 4.762.809a4.947 4.947 0 0 0 2.952-2.627c.338-.715.478-1.364.474-2.193-.002-.45-.02-.607-.108-.94-.404-1.534-1.567-2.638-3.113-2.957-.326-.067-1.103-.079-1.439-.022m1.498 2.128c.52.248.911.683 1.078 1.201.06.186.08.357.079.67-.001.52-.081.879-.29 1.303-.667 1.351-2.161 1.999-3.578 1.551-.466-.148-1.115-.485-1.434-.744l-.115-.093.246-.152c.32-.197.683-.536.855-.797.212-.322.305-.622.347-1.121.046-.53.087-.694.252-.987.238-.423.779-.85 1.214-.958.085-.021.353-.034.595-.03.416.008.457.017.751.157" fill-rule="evenodd" fill="#000" stroke="none"/></svg>