<svg xmlns="http://www.w3.org/2000/svg" width="24" height="24" fill="none" stroke="currentColor" stroke-width="2" stroke-linecap="round" stroke-linejoin="round"><path d="M9.759 3.021c-.275.085-.598.33-.71.539-.164.307-.118.527.275 1.327.182.369.323.679.314.688-.01.009-.189.129-.398.267-.475.314-1.111.944-1.397 1.385l-.213.327-1.082-.722c-.595-.397-1.156-.756-1.245-.796-.213-.097-.506-.097-.697.001-.446.227-.76.899-.608 1.298.084.22.37.444 1.659 1.303L7 9.533V12H5.406c-1.696 0-1.822.012-2.084.199-.222.158-.302.369-.302.801 0 .331.013.403.1.558.11.197.294.34.515.401.086.024.8.041 1.755.041H7v2.467l-1.343.895c-1.289.859-1.575 1.083-1.659 1.303-.152.399.162 1.071.608 1.298.191.098.484.098.697.001.089-.04.65-.399 1.245-.796l1.082-.722.205.314c.696 1.069 1.884 1.864 3.205 2.147.471.101 1.449.101 1.92 0 1.32-.282 2.491-1.067 3.198-2.141l.211-.32 1.083.722c.595.397 1.156.756 1.245.796.213.097.506.097.697-.001.446-.227.76-.899.608-1.298-.084-.22-.37-.444-1.659-1.303L17 16.467V14h1.61c.955 0 1.669-.017 1.755-.041a.842.842 0 0 0 .515-.401c.087-.156.1-.226.099-.558-.001-.433-.081-.645-.301-.801-.262-.187-.388-.199-2.084-.199H17V9.533l1.343-.895c1.289-.859 1.575-1.083 1.659-1.303.152-.399-.162-1.071-.608-1.298-.191-.098-.484-.098-.697-.001-.089.04-.65.399-1.245.796l-1.083.722-.213-.327c-.29-.443-.926-1.076-1.376-1.367a10.64 10.64 0 0 1-.398-.267c-.023-.02.095-.304.3-.719.323-.655.338-.698.338-.956 0-.237-.015-.292-.12-.439-.23-.323-.795-.57-1.149-.504a.964.964 0 0 0-.32.157c-.148.112-.231.247-.614 1.002l-.443.873-.372.006-.372.007-.411-.823c-.227-.453-.459-.879-.517-.947-.22-.261-.565-.345-.943-.229m3.102 4.108c.954.279 1.75 1.084 2.027 2.049l.092.322v7l-.092.322c-.278.97-1.058 1.756-2.048 2.064-.434.135-1.246.135-1.68 0-.99-.308-1.77-1.094-2.048-2.064L9.02 16.5v-7l.092-.322a3.05 3.05 0 0 1 2.387-2.138c.333-.06 1.001-.017 1.362.089" fill-rule="evenodd" fill="#000" stroke="none"/></svg>