<svg xmlns="http://www.w3.org/2000/svg" width="24" height="24" fill="none" stroke="currentColor" stroke-width="2" stroke-linecap="round" stroke-linejoin="round"><path d="M3.499 4.043c-1.109.188-2.011.981-2.385 2.097l-.094.28-.011 5.392c-.007 3.582.003 5.443.03 5.544a.84.84 0 0 0 .403.524c.168.094.218.101.879.113l.701.013.09.347a3.495 3.495 0 0 0 6.777-.003l.09-.35h3.042l.09.35a3.495 3.495 0 0 0 6.778 0l.09-.35h.601c.642 0 .812-.029 1.024-.172.226-.152.33-.436.711-1.948.453-1.798.496-2.044.496-2.88 0-.836-.051-1.123-.57-3.197-.614-2.452-.787-3.096-.921-3.417-.437-1.05-1.491-1.943-2.68-2.272l-.34-.093-7.3-.006c-4.015-.004-7.391.009-7.501.028m14.592 2.016a2.037 2.037 0 0 1 1.338 1.026c.096.191.268.816.687 2.495.307 1.232.586 2.39.621 2.574.08.425.082 1.259.004 1.672-.032.173-.163.732-.289 1.244l-.23.93-.281-.001-.281-.001-.16-.284c-.415-.738-1.239-1.359-2.122-1.6-.447-.122-1.303-.123-1.742-.003-.661.18-1.23.52-1.688 1.01-.233.248-.542.686-.597.846-.006.017-.836.032-1.845.034l-1.834.004-.175-.299c-.441-.753-1.239-1.353-2.119-1.592-.418-.113-1.261-.124-1.671-.022a3.66 3.66 0 0 0-1.64.902c-.255.246-.538.619-.651.856-.066.139-.083.15-.243.15H3v-4.553c0-3.959.008-4.579.061-4.757.079-.269.351-.547.612-.627.28-.086 14.011-.09 14.418-.004M7.119 16.143c.298.136.608.449.746.753.095.209.111.296.111.604s-.016.395-.111.604c-.14.309-.448.616-.765.764-.207.097-.29.112-.6.112s-.393-.015-.6-.112a1.675 1.675 0 0 1-.765-.764c-.095-.208-.111-.296-.111-.604-.001-.309.015-.394.11-.6.193-.422.615-.771 1.04-.861.267-.057.696-.009.945.104m10 0c.298.136.608.449.746.753.095.209.111.296.111.604s-.016.395-.111.604c-.14.309-.448.616-.765.764-.207.097-.29.112-.6.112s-.393-.015-.6-.112a1.675 1.675 0 0 1-.765-.764c-.095-.208-.111-.296-.111-.604-.001-.309.015-.394.11-.6.193-.422.615-.771 1.04-.861.267-.057.696-.009.945.104" fill-rule="evenodd" fill="#000" stroke="none"/></svg>