<svg xmlns="http://www.w3.org/2000/svg" width="24" height="24" fill="none" stroke="currentColor" stroke-width="2" stroke-linecap="round" stroke-linejoin="round"><path d="M7.614 1.057a.814.814 0 0 0-.505.396c-.08.15-.09.236-.102.854l-.014.686-1.266.016c-1.209.016-1.282.021-1.588.115A3.077 3.077 0 0 0 2.114 5.16l-.094.3v15.08l.094.3a3.086 3.086 0 0 0 2.046 2.046l.3.094h15.08l.3-.094a3.086 3.086 0 0 0 2.046-2.046l.094-.3V5.46l-.094-.3a3.077 3.077 0 0 0-2.025-2.036c-.306-.094-.379-.099-1.587-.115l-1.266-.016-.015-.686c-.018-.783-.066-.943-.344-1.125-.45-.295-1.223-.203-1.479.176-.141.21-.17.381-.17 1.032V3H9.008l-.015-.69c-.017-.769-.063-.932-.315-1.111-.264-.189-.721-.249-1.064-.142M7 5.61c0 .336.019.675.041.755.107.385.396.597.855.626.485.031.803-.109.984-.433.094-.167.101-.22.114-.868L9.008 5H15v.61c0 .336.019.675.041.755.107.385.396.597.855.626.485.031.803-.109.984-.433.094-.167.101-.22.114-.868l.014-.69h1.049c1.24 0 1.359.022 1.64.303.296.296.303.347.303 2.144V9H4V7.447c0-1.798.007-1.848.304-2.144.278-.279.376-.297 1.626-.3L7 5v.61m13 9.944c0 4.943.008 4.764-.221 5.064-.061.08-.194.195-.295.254l-.184.108H4.7l-.184-.108a1.199 1.199 0 0 1-.291-.249C3.989 20.314 4 20.557 4 15.575V11h16v4.554" fill="#000" fill-rule="evenodd" stroke="none"/></svg>