<svg xmlns="http://www.w3.org/2000/svg" width="24" height="24" fill="none" stroke="currentColor" stroke-width="2" stroke-linecap="round" stroke-linejoin="round"><path d="M1.626 1.045c-.206.109-.48.388-.588.599a.792.792 0 0 0 .002.719c.06.12.638.728 1.808 1.901l1.718 1.725-.553.022c-.417.016-.632.045-.874.116-.953.283-1.719 1.052-2.025 2.033l-.094.3v10.08l.094.3c.304.976 1.035 1.714 2.026 2.046l.28.094 8.079.011 8.079.01.941.935c.595.591 1.006.967 1.118 1.024.352.177.717.088 1.064-.259.347-.347.436-.712.258-1.064-.071-.141-1.351-1.498-2.211-2.344C20.65 19.196 7.919 6.466 7.76 6.305L5.1 3.667C3.415 1.996 2.482 1.1 2.372 1.044a.884.884 0 0 0-.746.001M9.18 3.039c-.465.12-.666.408-.668.958-.002.351.07.559.259.754.238.247.267.249 2.893.249h2.369l1.164 1.397c.986 1.183 1.193 1.411 1.354 1.49.187.092.206.093 1.949.113 1.974.022 1.919.014 2.217.321.296.306.283.099.283 4.479 0 4.314-.007 4.181.249 4.429.193.187.398.258.751.259.531.003.866-.227.959-.655.034-.155.043-1.325.034-4.313l-.013-4.1-.094-.28c-.33-.983-1.072-1.722-2.025-2.016-.311-.096-.368-.1-1.865-.122l-1.545-.022-1.135-1.359c-.625-.748-1.197-1.4-1.271-1.45a1.178 1.178 0 0 0-.28-.13c-.171-.048-5.401-.049-5.585-.002M7.77 9.19l1.19 1.19-.227.3a3.972 3.972 0 0 0-.778 2.351c.005 1.141.386 2.074 1.163 2.851A3.984 3.984 0 0 0 13 16.916c.366-.1 1.03-.42 1.296-.625l.261-.2c.057-.042.265.151 1.544 1.43l1.479 1.48-6.94-.011-6.94-.01-.184-.108a1.199 1.199 0 0 1-.291-.249C2.989 18.314 3 18.562 3 13.522c0-5.224-.019-4.897.304-5.219.287-.288.347-.297 1.916-.3L6.581 8 7.77 9.19m5.337 5.491c-.433.338-1.184.459-1.75.282a2 2 0 0 1-1.112-2.946l.133-.219 1.408 1.408c1.395 1.395 1.407 1.408 1.321 1.475" fill-rule="evenodd" fill="#000" stroke="none"/></svg>