<svg xmlns="http://www.w3.org/2000/svg" width="24" height="24" fill="none" stroke="currentColor" stroke-width="2" stroke-linecap="round" stroke-linejoin="round"><path d="M9.182 3.06a1.286 1.286 0 0 0-.26.13c-.056.041-.613.686-1.238 1.432L6.549 5.98l-1.545.022c-1.497.022-1.554.026-1.865.122A3.077 3.077 0 0 0 1.114 8.16l-.094.3v10.08l.094.3a3.086 3.086 0 0 0 2.046 2.046l.3.094h17.08l.3-.094a3.086 3.086 0 0 0 2.046-2.046l.094-.3V8.46l-.094-.3a3.077 3.077 0 0 0-2.025-2.036c-.311-.096-.368-.1-1.865-.122l-1.545-.022-1.135-1.359c-.625-.748-1.197-1.4-1.271-1.45a1.178 1.178 0 0 0-.28-.13c-.091-.025-1.134-.04-2.785-.039-2.162.001-2.669.012-2.798.058m6.015 3.337c.986 1.183 1.193 1.411 1.354 1.49.187.092.206.093 1.949.113 1.974.022 1.919.014 2.217.321.299.309.283.021.283 5.18 0 5 .008 4.817-.221 5.117-.061.08-.194.195-.295.254l-.184.108H3.7l-.184-.108a1.199 1.199 0 0 1-.291-.249C2.989 18.314 3 18.562 3 13.522c0-5.183-.016-4.892.283-5.201.298-.307.243-.299 2.217-.321 1.743-.02 1.762-.021 1.949-.113.161-.079.368-.307 1.354-1.49L9.967 5h4.066l1.164 1.397m-3.839 2.664c-1.128.176-2.215.913-2.789 1.892a3.992 3.992 0 0 0 1.943 5.751 3.988 3.988 0 0 0 5.192-2.216 3.963 3.963 0 0 0 .001-2.972 3.978 3.978 0 0 0-3.1-2.458 3.728 3.728 0 0 0-1.247.003m1.165 2.012a2.011 2.011 0 0 1 1.444 1.617c.1.653-.094 1.243-.564 1.714-.401.403-.856.596-1.403.596-.515 0-.962-.178-1.347-.535-1.33-1.236-.464-3.46 1.347-3.46.143 0 .378.031.523.068" fill-rule="evenodd" fill="#000" stroke="none"/></svg>