<svg xmlns="http://www.w3.org/2000/svg" width="24" height="24" fill="none" stroke="currentColor" stroke-width="2" stroke-linecap="round" stroke-linejoin="round"><path d="M4.755 6.042c-.84.126-1.614.646-2.081 1.398-.222.358-1.138 2.27-1.274 2.66a7.597 7.597 0 0 0-.357 1.548c-.056.504-.058 4.518-.002 4.717a.842.842 0 0 0 .401.515c.168.094.218.101.879.113l.701.013.09.347a3.495 3.495 0 0 0 6.777-.003l.09-.35h3.042l.09.35a3.495 3.495 0 0 0 6.778 0l.09-.35H21.1c.627 0 1.184-.018 1.265-.041a.842.842 0 0 0 .515-.401l.1-.178v-3.96l-.108-.269a1.965 1.965 0 0 0-1.012-1.094c-.265-.132-.411-.161-2.776-.556-1.373-.23-2.516-.437-2.54-.461-.024-.024-.629-.82-1.344-1.77-1.16-1.542-1.326-1.745-1.546-1.894a3.189 3.189 0 0 0-.48-.262l-.234-.094-3.98-.006c-2.189-.003-4.081.01-4.205.028m9.153 3.835c1.141 1.522 1.44 1.896 1.58 1.978.15.088.53.161 2.821.543 1.457.243 2.658.442 2.67.442.011 0 .021.486.021 1.08V15l-.67-.001-.67-.001-.16-.284c-.415-.738-1.24-1.36-2.122-1.6-.418-.113-1.261-.124-1.671-.022a3.66 3.66 0 0 0-1.64.902c-.255.246-.538.619-.651.856l-.071.15-1.842-.001-1.843-.001-.16-.284c-.415-.738-1.24-1.36-2.122-1.6-.418-.113-1.261-.124-1.671-.022a3.66 3.66 0 0 0-1.64.902c-.255.246-.538.619-.651.856-.066.14-.083.15-.247.15h-.177l.021-1.61c.022-1.719.036-1.869.244-2.517.135-.425 1.107-2.409 1.256-2.567.111-.118.275-.217.447-.269.055-.016 1.774-.032 3.82-.034L12.5 8l1.408 1.877m-6.789 5.266c.298.136.608.449.746.753.095.209.111.296.111.604s-.016.395-.111.604c-.14.309-.448.616-.765.764-.207.097-.29.112-.6.112s-.393-.015-.6-.112a1.675 1.675 0 0 1-.765-.764c-.095-.208-.111-.296-.111-.604-.001-.309.015-.394.11-.6.193-.422.615-.771 1.04-.861.267-.057.696-.009.945.104m10 0c.298.136.608.449.746.753.095.209.111.296.111.604s-.016.395-.111.604c-.14.309-.448.616-.765.764-.207.097-.29.112-.6.112s-.393-.015-.6-.112a1.675 1.675 0 0 1-.765-.764c-.095-.208-.111-.296-.111-.604-.001-.309.015-.394.11-.6.193-.422.615-.771 1.04-.861.267-.057.696-.009.945.104" fill-rule="evenodd" fill="#000" stroke="none"/></svg>