<svg xmlns="http://www.w3.org/2000/svg" width="24" height="24" fill="none" stroke="currentColor" stroke-width="2" stroke-linecap="round" stroke-linejoin="round"><path d="M14.644 1.062c-.384.167-1.18.911-1.637 1.53-.704.954-1.048 2.03-.994 3.105.014.266.05.594.081.73l.055.248-.447.002A5.458 5.458 0 0 0 8.633 7.68C7.052 8.808 5.365 11.584 3.21 16.6c-.911 2.12-1.919 4.748-1.958 5.104-.043.4.14.69.556.876.387.174.556.155 1.392-.154 3.933-1.454 7.682-3.15 9.94-4.497 1.616-.964 2.814-1.973 3.289-2.769.587-.986.833-1.765.879-2.784l.023-.524.244.055c.417.094 1.192.111 1.625.037a5.271 5.271 0 0 0 2.134-.894c.634-.453 1.441-1.309 1.606-1.703a1.071 1.071 0 0 0 0-.694c-.149-.355-.879-1.156-1.44-1.579a6.487 6.487 0 0 0-1.142-.678c-.648-.275-1.491-.43-2.079-.381l-.305.026.017-.431c.041-1.008-.32-2.1-.998-3.018-.451-.609-1.23-1.343-1.613-1.517-.194-.089-.547-.095-.736-.013m.556 2.481c.629.767.917 1.662.746 2.326-.105.408-.336.832-.8 1.467l-.202.276-.153-.173a3.758 3.758 0 0 1-.645-1.111c-.109-.309-.123-.4-.124-.808-.002-.401.013-.505.112-.809.063-.192.198-.484.3-.649.178-.286.524-.738.566-.738.011 0 .101.099.2.219m4.113 4.6c.181.059.463.191.627.293.286.177.734.521.738.566.003.037-.54.448-.805.608-.138.084-.396.2-.572.258-.274.09-.392.106-.801.107-.416.001-.523-.013-.8-.106a3.533 3.533 0 0 1-1.093-.621l-.214-.18.114-.093c.453-.375 1.272-.841 1.641-.934.26-.066.801-.019 1.165.102m-6.551.637c.436.111.794.309 1.171.648.528.474.899.907 1.052 1.23a3.69 3.69 0 0 1 .19 2.508l-.061.205-.867-.863c-.9-.896-1.073-1.026-1.367-1.026-.199 0-.447.124-.678.34-.345.322-.451.687-.303 1.041.044.107.372.465 1.023 1.118.527.529.958.979.958 1-.001.06-.768.618-1.365.992-1.473.924-3.692 2.013-6.515 3.197-1.311.55-1.958.805-1.981.782-.067-.066 1.546-3.813 2.405-5.588l.377-.778.649.641c.7.691.89.822 1.19.822.477 0 1.049-.572 1.049-1.049 0-.315-.123-.483-1.014-1.382-.459-.463-.835-.855-.835-.871 0-.053.48-.792.768-1.183.76-1.03 1.454-1.575 2.272-1.785.535-.137 1.344-.137 1.882.001" fill-rule="evenodd" fill="#000" stroke="none"/></svg>