<svg xmlns="http://www.w3.org/2000/svg" width="24" height="24" fill="none" stroke="currentColor" stroke-width="2" stroke-linecap="round" stroke-linejoin="round"><path d="M3.499 3.043c-1.109.187-2.02.99-2.383 2.097-.087.265-.092.352-.107 1.664-.01.911-.001 1.439.028 1.544.107.4.393.613.859.643.485.031.803-.109.984-.433.1-.177.1-.182.121-1.498.023-1.483.024-1.489.32-1.777C3.636 4.978 2.95 5 12 5c9.108 0 8.368-.026 8.697.303.326.326.303-.177.303 6.698 0 5.058-.009 6.138-.055 6.289a1.02 1.02 0 0 1-.461.582l-.184.108-3.321.02-3.321.02-.199.102c-.34.175-.481.484-.45.982.03.463.244.752.637.858.102.027 1.296.037 3.544.029l3.39-.012.28-.093c.99-.331 1.722-1.07 2.026-2.046l.094-.3V5.46l-.094-.3a3.089 3.089 0 0 0-2.025-2.039l-.321-.101-8.42-.006c-4.631-.003-8.511.01-8.621.029m-1.845 8.035c-.384.092-.612.426-.645.945-.024.364.053.598.254.774.157.139.396.215.94.301a7.315 7.315 0 0 1 2.225.684 7.852 7.852 0 0 1 3.79 3.79c.375.788.581 1.476.704 2.348.115.807.369 1.082.998 1.078.43-.002.81-.201.946-.498.26-.565-.215-2.583-.945-4.014a9.508 9.508 0 0 0-1.878-2.567 9.813 9.813 0 0 0-5.515-2.8c-.538-.083-.672-.089-.874-.041m-.003 4.041c-.389.092-.651.523-.651 1.07 0 .46.206.713.693.853.682.195.946.293 1.247.462a4.122 4.122 0 0 1 1.556 1.556c.169.301.267.565.463 1.25.093.322.259.548.469.636.198.083.612.068.88-.032.389-.145.611-.44.612-.814 0-.192-.186-.908-.342-1.31-.7-1.815-2.406-3.26-4.306-3.647-.333-.068-.422-.071-.621-.024m-.037 3.936c-.394.129-.575.382-.605.845-.031.481.11.799.433.98.155.087.227.1.558.1.312 0 .408-.016.54-.086.326-.176.46-.435.46-.894 0-.643-.287-.952-.917-.984-.19-.01-.365.005-.469.039" fill-rule="evenodd" fill="#000" stroke="none"/></svg>