<svg xmlns="http://www.w3.org/2000/svg" width="24" height="24" fill="none" stroke="currentColor" stroke-width="2" stroke-linecap="round" stroke-linejoin="round"><path d="M19.62 5.046c-.101.052-2.091 2.011-5.39 5.307L9 15.579l-2.23-2.225c-1.475-1.473-2.287-2.254-2.398-2.31-.352-.176-.733-.085-1.073.255-.346.346-.436.711-.26 1.064.125.25 5.348 5.473 5.598 5.598a.807.807 0 0 0 .726 0c.252-.126 11.472-11.346 11.598-11.598.175-.353.086-.718-.26-1.064-.34-.34-.733-.432-1.081-.253" fill="#000" fill-rule="evenodd" stroke="none"/></svg>