<svg xmlns="http://www.w3.org/2000/svg" width="24" height="24" fill="none" stroke="currentColor" stroke-width="2" stroke-linecap="round" stroke-linejoin="round"><path d="M4.499 2.043C3.383 2.23 2.461 3.048 2.114 4.16l-.094.3v15.08l.094.3a3.086 3.086 0 0 0 2.046 2.046l.3.094h15.08l.3-.094a3.086 3.086 0 0 0 2.046-2.046l.094-.3v-7.92l-.091-.17c-.165-.31-.56-.48-1.015-.439-.435.04-.733.263-.833.624-.026.092-.041 1.478-.041 3.809 0 3.976.005 3.877-.221 4.174-.061.08-.194.195-.295.254l-.184.108H4.7l-.184-.108a1.199 1.199 0 0 1-.291-.249c-.239-.314-.225.172-.225-7.601 0-8.016-.025-7.391.303-7.719C4.628 3.978 4.178 4 10.557 4c3.67 0 5.714-.015 5.808-.041a.842.842 0 0 0 .515-.401c.087-.156.1-.226.099-.558-.001-.433-.081-.645-.301-.801-.289-.206-.07-.199-6.234-.194-3.159.002-5.835.02-5.945.038M21.62 3.046c-.101.051-1.915 1.836-4.889 4.807l-4.73 4.725-1.23-1.224c-.77-.766-1.294-1.256-1.399-1.309-.352-.177-.733-.087-1.073.254-.347.346-.436.711-.26 1.064.124.247 3.351 3.474 3.598 3.598a.807.807 0 0 0 .726 0c.252-.126 10.472-10.346 10.598-10.598.175-.353.086-.718-.26-1.064-.34-.34-.733-.432-1.081-.253" fill-rule="evenodd" fill="#000" stroke="none"/></svg>