<svg xmlns="http://www.w3.org/2000/svg" width="24" height="24" fill="none" stroke="currentColor" stroke-width="2" stroke-linecap="round" stroke-linejoin="round"><path d="M11.16 1.027c-.469.035-1.375.188-1.865.315a11.058 11.058 0 0 0-6.601 4.787c-.33.518-.797 1.472-1.013 2.071-.738 2.042-.871 4.095-.402 6.226.347 1.58 1.088 3.119 2.145 4.454.342.431 1.253 1.341 1.696 1.694 1.227.977 2.828 1.762 4.3 2.109 1.858.438 3.644.41 5.474-.086A10.978 10.978 0 0 0 22.572 15c.316-1.106.405-1.802.407-3.2.001-1.062-.002-1.106-.088-1.267-.106-.197-.269-.322-.52-.398-.51-.153-1.063.022-1.26.398-.081.154-.089.246-.115 1.207-.036 1.343-.11 1.891-.377 2.815-.57 1.97-1.925 3.8-3.659 4.94a8.981 8.981 0 0 1-10.271-.243 10.979 10.979 0 0 1-1.585-1.488 9.032 9.032 0 0 1-2.028-4.644c-.065-.487-.066-1.749-.002-2.24a8.988 8.988 0 0 1 4.983-6.959 8.958 8.958 0 0 1 2.631-.828c.625-.098 1.998-.098 2.612 0 .793.126 1.29.265 2.231.625.648.248.938.223 1.227-.105.258-.294.402-.757.324-1.047-.071-.262-.257-.439-.662-.63-.947-.447-2.258-.786-3.46-.894a15.449 15.449 0 0 0-1.8-.015m10.46 2.019c-.101.051-1.915 1.836-4.889 4.807l-4.729 4.724-1.231-1.221c-.87-.863-1.285-1.247-1.414-1.309-.359-.171-.702-.086-1.058.264-.344.338-.434.71-.257 1.064.061.123.616.703 1.793 1.877 1.648 1.643 1.713 1.702 1.935 1.771.22.069.24.069.46.001.227-.07.289-.13 5.436-5.277 3.745-3.746 5.231-5.257 5.295-5.384.175-.353.086-.718-.26-1.064-.34-.34-.733-.432-1.081-.253" fill-rule="evenodd" fill="#000" stroke="none"/></svg>