<svg xmlns="http://www.w3.org/2000/svg" width="24" height="24" fill="none" stroke="currentColor" stroke-width="2" stroke-linecap="round" stroke-linejoin="round"><path d="M16.62 5.046c-.237.121-6.466 6.36-6.581 6.591a.896.896 0 0 0-.088.363c0 .111.035.256.088.363.125.25 6.348 6.473 6.598 6.598.353.176.718.086 1.064-.26.347-.347.436-.711.26-1.064-.063-.124-.903-.993-2.814-2.907L12.421 12l2.726-2.73c1.911-1.914 2.751-2.783 2.814-2.907.176-.353.087-.717-.26-1.064-.34-.34-.733-.432-1.081-.253m-10.006.011a.814.814 0 0 0-.505.396l-.089.167-.01 6.294c-.007 4.145.003 6.345.029 6.444.105.389.395.603.857.633.485.031.803-.109.984-.433l.1-.178V5.62l-.089-.167a.874.874 0 0 0-.213-.254c-.264-.189-.721-.249-1.064-.142" fill-rule="evenodd" fill="#000" stroke="none"/></svg>