<svg xmlns="http://www.w3.org/2000/svg" width="24" height="24" fill="none" stroke="currentColor" stroke-width="2" stroke-linecap="round" stroke-linejoin="round"><path d="M10.62 6.046c-.236.121-5.466 5.361-5.581 5.591a.807.807 0 0 0 0 .726c.125.25 5.348 5.473 5.598 5.598.353.176.718.086 1.064-.26.347-.347.436-.711.259-1.064-.061-.123-.771-.861-2.313-2.407L7.422 12l2.225-2.23c1.542-1.546 2.252-2.284 2.313-2.407.177-.353.088-.717-.259-1.064-.34-.34-.733-.432-1.081-.253m7 0c-.236.121-5.466 5.361-5.581 5.591a.807.807 0 0 0 0 .726c.125.25 5.348 5.473 5.598 5.598.353.176.718.086 1.064-.26.347-.347.436-.711.259-1.064-.061-.123-.771-.861-2.313-2.407L14.422 12l2.225-2.23c1.542-1.546 2.252-2.284 2.313-2.407.177-.353.088-.717-.259-1.064-.34-.34-.733-.432-1.081-.253" fill="#000" fill-rule="evenodd" stroke="none"/></svg>