<svg xmlns="http://www.w3.org/2000/svg" width="24" height="24" fill="none" stroke="currentColor" stroke-width="2" stroke-linecap="round" stroke-linejoin="round"><path d="M6.626 3.045c-.206.109-.48.388-.588.599a.795.795 0 0 0 .001.719c.125.25 5.348 5.473 5.598 5.598a.807.807 0 0 0 .726 0c.25-.125 5.473-5.348 5.598-5.598.176-.353.086-.718-.26-1.064-.34-.34-.721-.431-1.073-.255-.111.056-.923.837-2.398 2.309L12 7.578 9.77 5.353C8.295 3.881 7.483 3.1 7.372 3.044a.884.884 0 0 0-.746.001m4.994 11.001c-.236.121-5.466 5.361-5.581 5.591-.176.353-.086.718.26 1.064.347.347.711.436 1.064.259.123-.061.861-.771 2.407-2.313L12 16.422l2.23 2.225c1.546 1.542 2.284 2.252 2.407 2.313.353.177.717.088 1.064-.259.346-.346.436-.711.26-1.064-.121-.242-5.348-5.473-5.589-5.593a.894.894 0 0 0-.752.002" fill-rule="evenodd" fill="#000" stroke="none"/></svg>