<svg xmlns="http://www.w3.org/2000/svg" width="24" height="24" fill="none" stroke="currentColor" stroke-width="2" stroke-linecap="round" stroke-linejoin="round"><path d="M5.626 6.045c-.206.109-.48.388-.588.599a.792.792 0 0 0 .002.719c.061.123.771.861 2.313 2.407L9.578 12l-2.225 2.23c-1.542 1.546-2.252 2.284-2.313 2.407-.177.353-.088.717.259 1.064.346.346.711.436 1.064.26.25-.125 5.473-5.348 5.598-5.598a.807.807 0 0 0 0-.726c-.121-.242-5.348-5.473-5.589-5.593a.884.884 0 0 0-.746.001m7 0c-.206.109-.48.388-.588.599a.792.792 0 0 0 .002.719c.061.123.771.861 2.313 2.407L16.578 12l-2.225 2.23c-1.542 1.546-2.252 2.284-2.313 2.407-.177.353-.088.717.259 1.064.346.346.711.436 1.064.26.25-.125 5.473-5.348 5.598-5.598a.807.807 0 0 0 0-.726c-.121-.242-5.348-5.473-5.589-5.593a.884.884 0 0 0-.746.001" fill="#000" fill-rule="evenodd" stroke="none"/></svg>