<svg xmlns="http://www.w3.org/2000/svg" width="24" height="24" fill="none" stroke="currentColor" stroke-width="2" stroke-linecap="round" stroke-linejoin="round"><path d="M6.626 5.045c-.206.109-.48.388-.588.599a.795.795 0 0 0 .001.719c.125.25 5.348 5.473 5.598 5.598a.807.807 0 0 0 .726 0c.25-.125 5.473-5.348 5.598-5.598.176-.353.086-.718-.26-1.064-.34-.34-.721-.431-1.073-.255-.111.056-.923.837-2.398 2.309L12 9.578 9.77 7.353C8.295 5.881 7.483 5.1 7.372 5.044a.884.884 0 0 0-.746.001m0 7c-.206.109-.48.388-.588.599a.795.795 0 0 0 .001.719c.125.25 5.348 5.473 5.598 5.598a.807.807 0 0 0 .726 0c.25-.125 5.473-5.348 5.598-5.598.176-.353.086-.718-.26-1.064-.34-.34-.721-.431-1.073-.255-.111.056-.923.837-2.398 2.309L12 16.578l-2.23-2.225c-1.475-1.472-2.287-2.253-2.398-2.309a.884.884 0 0 0-.746.001" fill="#000" fill-rule="evenodd" stroke="none"/></svg>