<svg xmlns="http://www.w3.org/2000/svg" width="24" height="24" fill="none" stroke="currentColor" stroke-width="2" stroke-linecap="round" stroke-linejoin="round"><path d="M11.62 5.046c-.236.121-5.466 5.361-5.581 5.591-.176.353-.086.718.26 1.064.347.347.711.436 1.064.259.123-.061.861-.771 2.407-2.313L12 7.422l2.23 2.225c1.546 1.542 2.284 2.252 2.407 2.313.353.177.717.088 1.064-.259.346-.346.436-.711.26-1.064-.121-.242-5.348-5.473-5.589-5.593a.894.894 0 0 0-.752.002m0 7c-.236.121-5.466 5.361-5.581 5.591-.176.353-.086.718.26 1.064.347.347.711.436 1.064.259.123-.061.861-.771 2.407-2.313L12 14.422l2.23 2.225c1.546 1.542 2.284 2.252 2.407 2.313.353.177.717.088 1.064-.259.346-.346.436-.711.26-1.064-.121-.242-5.348-5.473-5.589-5.593a.894.894 0 0 0-.752.002" fill="#000" fill-rule="evenodd" stroke="none"/></svg>