<svg xmlns="http://www.w3.org/2000/svg" width="24" height="24" fill="none" stroke="currentColor" stroke-width="2" stroke-linecap="round" stroke-linejoin="round"><path d="M6.626 5.045c-.206.109-.48.388-.588.599a.795.795 0 0 0 .001.719c.063.124.903.993 2.814 2.907L11.579 12l-2.726 2.73c-1.911 1.914-2.751 2.783-2.814 2.907-.176.353-.087.717.26 1.064.346.346.711.436 1.064.26.25-.125 6.473-6.348 6.598-6.598a.896.896 0 0 0 .088-.363.896.896 0 0 0-.088-.363c-.121-.243-6.347-6.473-6.589-6.593a.884.884 0 0 0-.746.001m9.988.012a.814.814 0 0 0-.505.396l-.089.167-.01 6.294c-.007 4.145.003 6.345.029 6.444.105.389.395.603.857.633.485.031.803-.109.984-.433l.1-.178V5.62l-.089-.167a.874.874 0 0 0-.213-.254c-.264-.189-.721-.249-1.064-.142" fill-rule="evenodd" fill="#000" stroke="none"/></svg>