<svg xmlns="http://www.w3.org/2000/svg" width="24" height="24" fill="none" stroke="currentColor" stroke-width="2" stroke-linecap="round" stroke-linejoin="round"><path d="M5.626 8.045c-.206.109-.48.388-.588.599a.795.795 0 0 0 .001.719c.125.25 6.348 6.473 6.598 6.598a.807.807 0 0 0 .726 0c.25-.125 6.473-6.348 6.598-6.598.176-.353.086-.718-.26-1.064-.34-.34-.721-.431-1.073-.255-.112.056-1.07.985-2.898 2.809L12 13.579l-2.73-2.726C7.442 9.029 6.484 8.1 6.372 8.044a.884.884 0 0 0-.746.001" fill="#000" fill-rule="evenodd" stroke="none"/></svg>