<svg xmlns="http://www.w3.org/2000/svg" width="24" height="24" fill="none" stroke="currentColor" stroke-width="2" stroke-linecap="round" stroke-linejoin="round"><path d="M11.62 8.046c-.237.121-6.466 6.36-6.581 6.591-.176.353-.086.718.26 1.064.347.347.711.436 1.064.26.124-.063.993-.903 2.907-2.814L12 10.421l2.73 2.726c1.914 1.911 2.783 2.751 2.907 2.814.353.176.717.087 1.064-.26.346-.346.436-.711.26-1.064-.121-.243-6.347-6.473-6.589-6.593a.894.894 0 0 0-.752.002" fill="#000" fill-rule="evenodd" stroke="none"/></svg>