<svg xmlns="http://www.w3.org/2000/svg" width="24" height="24" fill="none" stroke="currentColor" stroke-width="2" stroke-linecap="round" stroke-linejoin="round"><path d="m11.28 1.023-.56.06c-1.89.201-3.747.947-5.359 2.154-.56.419-1.362 1.189-1.867 1.791a7.868 7.868 0 0 1-.415.473.585.585 0 0 0-.113.172c-.041.081-.197.345-.347.587C1.03 8.823.581 12.084 1.417 14.99c.543 1.886 1.422 3.374 2.821 4.772 1.664 1.664 3.504 2.626 5.899 3.083 1.114.212 2.598.202 3.846-.027 1.675-.307 3.25-1 4.654-2.048.609-.454 1.679-1.524 2.133-2.133 2.246-3.009 2.835-6.84 1.588-10.324a31.012 31.012 0 0 1-.241-.701c-.044-.137-.097-.26-.119-.273-.022-.014-.11-.163-.195-.332a12.405 12.405 0 0 0-1.033-1.644c-.454-.608-1.523-1.677-2.13-2.128-1.595-1.186-3.275-1.875-5.217-2.139C13 1.038 11.574.99 11.28 1.023m2.04 2.078a9.057 9.057 0 0 1 6.017 3.689l.151.21h-3.826c-3.928 0-4.319.013-4.902.162-1.371.35-2.67 1.399-3.227 2.606-.059.128-.117.232-.13.231-.018 0-2.194-3.737-2.234-3.838-.02-.05.803-.856 1.191-1.167 1.298-1.04 2.878-1.714 4.48-1.911.591-.073.645-.076 1.36-.06.385.008.889.043 1.12.078M5.795 11.26c.99 1.716 1.896 3.271 2.013 3.455.434.686 1.154 1.335 1.905 1.718.786.401 1.388.546 2.27.547h.603l-.129.22-1.095 1.9a87.305 87.305 0 0 1-1.002 1.715c-.048.049-.563-.072-1.22-.286a10.217 10.217 0 0 1-2.1-1.018c-1.883-1.262-3.249-3.199-3.773-5.351-.186-.763-.244-1.272-.244-2.16 0-.887.058-1.397.243-2.16.187-.768.625-1.879.693-1.76l1.836 3.18m7.066-2.131a3.042 3.042 0 0 1 2.014 2.01c.139.459.143 1.216.009 1.693-.268.949-1.064 1.749-2.044 2.054-.434.135-1.246.135-1.68 0-.981-.305-1.777-1.107-2.046-2.061-.132-.47-.127-1.23.011-1.686a3.042 3.042 0 0 1 2.374-2.099c.333-.06 1.001-.017 1.362.089m7.704.105c.278.816.412 1.718.412 2.766 0 1.493-.257 2.621-.897 3.94-.705 1.454-1.769 2.667-3.153 3.592-.835.558-2.109 1.08-3.136 1.285-.435.087-1.191.186-1.191.156 0-.006.839-1.464 1.864-3.24a235.937 235.937 0 0 0 2.014-3.531c.361-.72.502-1.34.502-2.202 0-.67-.058-1.043-.248-1.6a5.663 5.663 0 0 0-.577-1.17l-.156-.231 2.247.011 2.246.01.073.214" fill="#000" fill-rule="evenodd" stroke="none"/></svg>