<svg xmlns="http://www.w3.org/2000/svg" width="24" height="24" fill="none" stroke="currentColor" stroke-width="2" stroke-linecap="round" stroke-linejoin="round"><path d="M21.62 1.047c-.09.046-.686.606-1.366 1.283-.86.855-1.222 1.19-1.26 1.167-.03-.019-.225-.162-.434-.319-1.512-1.136-3.272-1.838-5.28-2.105-.491-.065-2.069-.065-2.56 0-2.046.272-3.735.953-5.36 2.162-.609.453-1.676 1.52-2.134 2.132a11.079 11.079 0 0 0-2.045 4.65c-.55 2.98.176 6.106 1.981 8.525.178.239.333.45.345.47.012.02-.518.578-1.178 1.242C1.057 21.532.951 21.667.951 22c0 .477.572 1.049 1.049 1.049.333 0 .468-.106 1.746-1.378.664-.66 1.222-1.19 1.242-1.178.02.012.231.167.47.345 3.557 2.653 8.43 2.879 12.239.567.779-.473 1.347-.924 2.065-1.643 1.395-1.394 2.28-2.891 2.821-4.773.931-3.234.268-6.847-1.75-9.537a18.742 18.742 0 0 1-.327-.445c-.025-.041.289-.38 1.165-1.261.787-.791 1.23-1.267 1.289-1.383.177-.352.088-.717-.259-1.064-.34-.34-.734-.432-1.081-.252m-8.3 2.054c.943.143 1.735.39 2.622.819.53.256 1.436.82 1.587.987.066.073-.159.303-6.245 6.389l-6.312 6.312-.141-.174c-.448-.552-1.046-1.661-1.323-2.454-.346-.993-.485-1.845-.485-2.98 0-1.493.257-2.621.897-3.94a8.983 8.983 0 0 1 5.24-4.594c.705-.233 1.272-.348 2.18-.442.322-.033 1.571.015 1.98.077m6.169 3.917a9.315 9.315 0 0 1 1.244 2.822c.186.763.244 1.272.244 2.16 0 1.493-.257 2.621-.897 3.94-.705 1.454-1.769 2.667-3.153 3.592-.789.528-2.051 1.056-3.019 1.265a9.073 9.073 0 0 1-6.547-1.086 11.797 11.797 0 0 1-.959-.658c-.01-.009 2.824-2.859 6.298-6.333 6.09-6.09 6.32-6.315 6.393-6.249.042.038.22.284.396.547" fill-rule="evenodd" fill="#000" stroke="none"/></svg>