<svg xmlns="http://www.w3.org/2000/svg" width="24" height="24" fill="none" stroke="currentColor" stroke-width="2" stroke-linecap="round" stroke-linejoin="round"><path d="M8.477 1.073c-.671.176-1.239.75-1.417 1.435-.033.126-.06.286-.06.356v.127l-.77.019c-.663.017-.814.033-1.091.116A3.068 3.068 0 0 0 3.114 5.16l-.094.3v15.08l.094.3a3.086 3.086 0 0 0 2.046 2.046l.3.094h13.08l.3-.094a3.086 3.086 0 0 0 2.046-2.046l.094-.3V5.46l-.094-.3a3.068 3.068 0 0 0-2.025-2.034c-.276-.083-.428-.099-1.083-.116l-.761-.019-.049-.304a2.417 2.417 0 0 0-.162-.546c-.141-.302-.485-.677-.789-.86-.469-.282-.381-.276-4.017-.276-2.953 0-3.285.006-3.523.068M15 4v1H9V3h6v1M7 5.132c0 .191.104.558.225.798.136.269.576.709.845.845.452.229.384.225 3.923.225 3.546 0 3.486.003 3.944-.229.26-.132.702-.574.834-.834.117-.23.229-.628.229-.813V5h.553c.696 0 .893.052 1.144.303.327.328.303-.294.303 7.698 0 5.906-.009 7.137-.055 7.289a1.02 1.02 0 0 1-.461.582l-.184.108H5.7l-.184-.108a1.199 1.199 0 0 1-.291-.249c-.239-.314-.225.172-.225-7.601 0-8.017-.025-7.391.304-7.719.25-.251.423-.297 1.126-.3L7 5v.132" fill-rule="evenodd" fill="#000" stroke="none"/></svg>