<svg xmlns="http://www.w3.org/2000/svg" width="24" height="24" fill="none" stroke="currentColor" stroke-width="2" stroke-linecap="round" stroke-linejoin="round"><path d="M10.92 2.045a6.356 6.356 0 0 0-2.22.658A6.684 6.684 0 0 0 5.319 6.57c-.129.387-.132.392-.34.511-.696.398-1.606 1.174-2.156 1.838C.899 11.24.459 14.488 1.691 17.26c.395.887.863 1.57 1.586 2.313 1.225 1.26 2.637 1.996 4.483 2.336.293.054 1.007.065 5.18.08 3.522.012 4.938.004 5.2-.029 1.247-.161 2.316-.675 3.2-1.54 1.619-1.585 2.095-3.925 1.23-6.044-.537-1.314-1.675-2.43-3.031-2.973-.74-.296-1.403-.403-2.491-.403h-.635l-.151-.338c-1.08-2.423-3.491-4.205-6.202-4.583-.421-.059-1.448-.073-1.954-.027l-.354.033.127-.178c.325-.453.985-1.026 1.541-1.338.694-.39 1.291-.54 2.16-.545 1.093-.005 1.939.276 2.811.935.776.586 1.264 1.274 1.668 2.352.06.161.162.344.229.411.253.253.263.255 1.552.282.918.02 1.232.04 1.415.091.741.209 1.449.808 1.647 1.395.035.104.079.351.098.549.063.677.358.961 1 .961.645 0 .954-.298.989-.954.049-.92-.414-1.956-1.224-2.737-.937-.903-2.028-1.306-3.546-1.308L17.697 6l-.118-.25a6.894 6.894 0 0 0-1.325-1.832c-1.485-1.411-3.366-2.071-5.334-1.873M9.603 8.042a5.817 5.817 0 0 1 3.599 1.716c.781.782 1.109 1.326 1.577 2.616a.947.947 0 0 0 .451.531c.134.067.295.077 1.51.099 1.204.022 1.395.034 1.665.107a3.577 3.577 0 0 1 2.273 1.935c.228.486.3.835.3 1.454s-.072.968-.3 1.454c-.446.953-1.219 1.615-2.258 1.938-.28.086-.286.087-5 .1-3.386.009-4.827 0-5.1-.033-2.077-.252-3.788-1.466-4.716-3.344a6.014 6.014 0 0 1-.183-4.821 5.98 5.98 0 0 1 6.182-3.752" fill-rule="evenodd" fill="#000" stroke="none"/></svg>