<svg xmlns="http://www.w3.org/2000/svg" width="24" height="24" fill="none" stroke="currentColor" stroke-width="2" stroke-linecap="round" stroke-linejoin="round"><path d="M8.04 2.044c-1.322.15-2.614.664-3.792 1.51-1.713 1.229-2.872 3.179-3.19 5.365-.083.566-.061 1.868.04 2.401.317 1.679.981 3.005 2.08 4.155.304.319.585.484.822.484.213 0 .519-.164.732-.394.224-.24.315-.432.315-.665 0-.254-.085-.407-.464-.842-.798-.914-1.228-1.755-1.472-2.874-.074-.341-.088-.529-.088-1.204 0-.682.014-.862.091-1.218a6.083 6.083 0 0 1 3.898-4.437c1.317-.465 2.937-.423 4.237.108 1.606.657 2.905 2.045 3.431 3.667.161.497.314.709.598.832.063.027.605.054 1.422.07 1.17.023 1.355.035 1.631.111a3.544 3.544 0 0 1 2.552 2.785c.077.446.029 1.212-.102 1.622a3.465 3.465 0 0 1-1.194 1.733c-.508.41-.598.53-.619.827-.021.281.097.575.335.838.289.32.649.405 1.013.24.393-.178 1.14-.842 1.526-1.356.78-1.038 1.21-2.532 1.082-3.756-.204-1.949-1.276-3.55-2.961-4.419-.896-.463-1.418-.583-2.668-.615l-.885-.023-.175-.384c-.96-2.118-3.019-3.818-5.286-4.365-.917-.221-2.025-.296-2.909-.196M6.614 16.057a.814.814 0 0 0-.505.396c-.074.139-.089.231-.089.547 0 .331.013.403.1.558.11.197.294.34.515.401.199.055 9.531.055 9.73 0a.842.842 0 0 0 .515-.401c.087-.156.1-.226.099-.558-.001-.433-.081-.645-.301-.801-.286-.204-.152-.199-5.194-.196-3.744.002-4.738.013-4.87.054m2 4a.814.814 0 0 0-.505.396c-.074.139-.089.231-.089.547 0 .331.013.403.1.558.11.197.294.34.515.401.198.055 8.532.055 8.73 0a.842.842 0 0 0 .515-.401c.087-.156.1-.226.099-.558-.001-.433-.081-.645-.301-.801-.285-.203-.191-.199-4.694-.196-3.333.002-4.238.013-4.37.054" fill-rule="evenodd" fill="#000" stroke="none"/></svg>