<svg xmlns="http://www.w3.org/2000/svg" width="24" height="24" fill="none" stroke="currentColor" stroke-width="2" stroke-linecap="round" stroke-linejoin="round"><path d="M15.02 2.867c-.066.009-.3.053-.52.099-2.449.515-4.476 2.345-5.262 4.751-.204.626-.322 1.287-.275 1.54.095.504.415.723 1.06.723.318 0 .38-.012.504-.096.261-.18.311-.297.518-1.224.113-.505.375-1.096.71-1.598.371-.558 1.132-1.268 1.692-1.58l.228-.127-.035.133c-.148.569-.149 1.62-.001 2.32a5.784 5.784 0 0 0 6.854 4.485c.07-.019.07-.015.004.113-.282.547-.848 1.188-1.485 1.681-.338.262-.426.353-.515.535-.087.179-.103.254-.083.399.05.362.39.838.688.962.168.07.43.071.626.001.367-.131 1.313-.936 1.791-1.524.85-1.046 1.405-2.327 1.566-3.611.061-.49.024-.684-.183-.966-.164-.224-.318-.341-.532-.405-.273-.082-.477-.023-.93.268-.467.3-.725.422-1.132.535a3.714 3.714 0 0 1-2.654-.243 3.74 3.74 0 0 1-1.927-2.169c-.377-1.139-.219-2.349.431-3.306.225-.331.282-.48.282-.734 0-.444-.196-.803-.509-.935-.12-.05-.61-.065-.911-.027m-8.56 8.174a5.97 5.97 0 0 0-2.04.603 6.127 6.127 0 0 0-2.76 2.736c-.657 1.325-.817 2.685-.477 4.032.607 2.401 2.638 4.16 5.226 4.528.613.087 7.502.088 8.001.001a4.426 4.426 0 0 0 2.821-1.788c.456-.644.769-1.61.769-2.373 0-.51-.209-1.363-.451-1.84-.265-.524-.779-1.134-1.266-1.504a5.083 5.083 0 0 0-1.415-.695c-.389-.11-1.007-.181-1.578-.181-.252 0-.37-.015-.37-.046 0-.025-.084-.192-.186-.37-.905-1.578-2.54-2.732-4.314-3.046-.43-.076-1.513-.107-1.96-.057m1.917 2.095c1.297.336 2.369 1.289 2.882 2.565.189.469.304.638.511.748.161.085.23.092 1.27.115 1.243.028 1.419.061 1.863.348.809.525 1.222 1.427 1.043 2.278-.176.831-.883 1.553-1.71 1.749-.38.089-7.176.091-7.688.001-1.723-.3-3.045-1.473-3.435-3.045-.128-.516-.12-1.249.019-1.78a4.152 4.152 0 0 1 3.411-3.073c.131-.021.507-.031.837-.023.481.012.679.035.997.117" fill-rule="evenodd" fill="#000" stroke="none"/></svg>