<svg xmlns="http://www.w3.org/2000/svg" width="24" height="24" fill="none" stroke="currentColor" stroke-width="2" stroke-linecap="round" stroke-linejoin="round"><path d="M8.12 2.044a7.989 7.989 0 0 0-6.554 4.984c-.432 1.089-.591 2.015-.554 3.223.034 1.094.221 1.94.649 2.931a8.06 8.06 0 0 0 3.012 3.537c.387.247.561.317.799.319.565.006 1.131-.841.926-1.385-.065-.172-.262-.358-.658-.622-1.386-.923-2.248-2.176-2.622-3.811-.106-.464-.149-1.508-.081-1.984a6.654 6.654 0 0 1 .627-2.004c.658-1.306 1.922-2.404 3.348-2.907.693-.244 1.076-.302 1.988-.301.688.002.883.016 1.212.088 1.557.344 2.922 1.271 3.778 2.565.252.383.556 1.008.69 1.423.161.497.314.71.598.832.063.027.619.054 1.462.07 1.2.023 1.396.036 1.665.109a3.577 3.577 0 0 1 2.273 1.935c.228.486.3.835.3 1.454s-.072.968-.3 1.454a3.55 3.55 0 0 1-2.31 1.944 5.501 5.501 0 0 1-.74.101c-.53.038-.71.093-.876.268-.168.176-.239.391-.24.73-.004.859.505 1.133 1.759.944a5.408 5.408 0 0 0 2.492-1.026 5.478 5.478 0 0 0 1.152-7.678 5.52 5.52 0 0 0-2.376-1.834C18.8 7.108 18.136 7 17.052 7h-.632l-.228-.47c-1.214-2.506-3.538-4.148-6.351-4.489a10.307 10.307 0 0 0-1.721.003m3.477 8.995a1.294 1.294 0 0 0-.284.232c-.175.193-3.179 5.192-3.28 5.457-.149.394-.08.671.241.959.348.313.349.313 2.253.313.92 0 1.673.011 1.673.024 0 .013-.471.808-1.047 1.767-.575.959-1.079 1.831-1.12 1.937-.145.383-.08.666.217.939.245.225.478.338.75.362.256.024.414-.037.633-.243.153-.145 3.251-5.286 3.327-5.522.066-.205.028-.613-.077-.819a.809.809 0 0 0-.205-.246c-.264-.189-.38-.199-2.203-.199h-1.711l1.064-1.77c.585-.973 1.097-1.856 1.138-1.96.151-.39.081-.668-.242-.959-.357-.321-.822-.433-1.127-.272" fill-rule="evenodd" fill="#000" stroke="none"/></svg>