<svg xmlns="http://www.w3.org/2000/svg" width="24" height="24" fill="none" stroke="currentColor" stroke-width="2" stroke-linecap="round" stroke-linejoin="round"><path d="M8.18 4.041c-1.782.204-3.424.962-4.668 2.154-1.031.988-1.703 2.044-2.126 3.345-.827 2.54-.3 5.412 1.368 7.46.269.331.828.895 1.166 1.176a8.1 8.1 0 0 0 3.145 1.584c.906.22.669.21 5.875.229 3.522.012 4.938.004 5.2-.029 1.247-.161 2.316-.675 3.2-1.54 1.619-1.585 2.095-3.925 1.23-6.044-.537-1.314-1.675-2.43-3.031-2.973-.74-.296-1.403-.403-2.491-.403h-.635l-.151-.338c-1.064-2.388-3.404-4.144-6.082-4.565-.458-.072-1.583-.103-2-.056m1.423 2.001a5.817 5.817 0 0 1 3.599 1.716c.781.782 1.109 1.326 1.577 2.616a.947.947 0 0 0 .451.531c.134.067.295.077 1.51.099 1.204.022 1.395.034 1.665.107a3.577 3.577 0 0 1 2.273 1.935c.228.486.3.835.3 1.454s-.072.968-.3 1.454c-.446.953-1.219 1.615-2.258 1.938-.28.086-.286.087-5 .1-3.386.009-4.827 0-5.1-.033-2.077-.252-3.788-1.466-4.716-3.344a6.014 6.014 0 0 1-.183-4.821 5.98 5.98 0 0 1 6.182-3.752" fill-rule="evenodd" fill="#000" stroke="none"/></svg>