<svg xmlns="http://www.w3.org/2000/svg" width="24" height="24" fill="none" stroke="currentColor" stroke-width="2" stroke-linecap="round" stroke-linejoin="round"><path d="M11.614 1.057a.814.814 0 0 0-.505.396c-.086.161-.089.212-.101 1.455-.008.812.003 1.346.03 1.444.106.395.394.609.858.639.485.031.803-.109.984-.433l.1-.178V3c0-1.35-.002-1.384-.089-1.547a.874.874 0 0 0-.213-.254c-.264-.189-.721-.249-1.064-.142M4.98 4.207c-.438.164-.821.642-.819 1.022.002.31.122.47 1.051 1.397.566.564.952.918 1.065.974.352.177.717.088 1.064-.259.347-.347.436-.712.259-1.064-.119-.237-1.8-1.917-2.018-2.016-.198-.091-.445-.113-.602-.054m13.56 0c-.233.087-.448.274-1.245 1.079-.493.499-.839.883-.894.991-.178.352-.089.717.258 1.064.347.347.712.436 1.064.258.216-.109 1.786-1.652 1.965-1.932.247-.384.178-.765-.206-1.148-.297-.296-.662-.417-.942-.312m-7.172 2.84c-.955.12-1.972.576-2.596 1.165-.446.42-.439.866.021 1.358.225.241.442.357.665.357.217 0 .397-.077.753-.323.616-.425 1.098-.581 1.789-.579.562.001.849.069 1.348.318.624.312 1.038.74 1.352 1.397.246.513.281.698.272 1.4-.005.344.01.66.035.74.105.341.357.527.821.606.231.039.306.036.499-.02.496-.145.672-.534.673-1.489a4.996 4.996 0 0 0-1.519-3.551 4.984 4.984 0 0 0-4.113-1.379M6.46 11.041a5.97 5.97 0 0 0-2.04.603 6.127 6.127 0 0 0-2.76 2.736c-.657 1.325-.817 2.685-.477 4.032.607 2.401 2.638 4.16 5.226 4.528.613.087 7.502.088 8.001.001a4.426 4.426 0 0 0 2.821-1.788c.456-.644.769-1.61.769-2.373 0-.51-.209-1.363-.451-1.84-.265-.524-.779-1.134-1.266-1.504a5.083 5.083 0 0 0-1.415-.695c-.389-.11-1.007-.181-1.578-.181-.252 0-.37-.015-.37-.046 0-.025-.084-.192-.186-.37-.905-1.578-2.54-2.732-4.314-3.046-.43-.076-1.513-.107-1.96-.057m13.154.016a.814.814 0 0 0-.505.396c-.074.139-.089.231-.089.547 0 .331.013.403.1.558.11.197.294.34.515.401.191.053 2.539.053 2.73 0a.842.842 0 0 0 .515-.401c.087-.156.1-.226.099-.558-.001-.313-.017-.409-.089-.547-.104-.197-.267-.322-.519-.398-.254-.076-2.512-.074-2.757.002M8.377 13.136c1.297.336 2.369 1.289 2.882 2.565.189.469.304.638.511.748.161.085.23.092 1.27.115 1.243.028 1.419.061 1.863.348.809.525 1.222 1.427 1.043 2.278-.176.831-.883 1.553-1.71 1.749-.38.089-7.176.091-7.688.001-1.723-.3-3.045-1.473-3.435-3.045-.128-.516-.12-1.249.019-1.78a4.152 4.152 0 0 1 3.411-3.073c.131-.021.507-.031.837-.023.481.012.679.035.997.117" fill-rule="evenodd" fill="#000" stroke="none"/></svg>