<svg xmlns="http://www.w3.org/2000/svg" width="24" height="24" fill="none" stroke="currentColor" stroke-width="2" stroke-linecap="round" stroke-linejoin="round"><path d="M1.626 1.045c-.206.109-.48.388-.588.599a.792.792 0 0 0 .002.719c.06.119.59.68 1.627 1.721l1.539 1.544-.321.268c-.903.753-1.747 1.896-2.189 2.966-.73 1.768-.842 3.55-.334 5.321a8.007 8.007 0 0 0 3.558 4.665 8.122 8.122 0 0 0 3.328 1.11c.448.049 9.78.055 10.072.006l.18-.03 1.48 1.469c.987.979 1.539 1.498 1.657 1.557.352.177.717.088 1.064-.259.347-.347.436-.712.259-1.064-.06-.12-.629-.719-1.763-1.857C16.915 15.483 2.649 1.236 2.56 1.168c-.296-.226-.65-.273-.934-.123M9.592 4.04c-.326.098-.549.449-.582.916-.034.482.108.765.459.915.105.044.389.12.631.167a5.999 5.999 0 0 1 3.918 2.652c.268.413.442.778.636 1.338.078.225.169.461.203.525.068.133.269.314.421.379.062.026.616.054 1.422.071 1.17.024 1.356.036 1.64.112a3.515 3.515 0 0 1 1.642.97c.307.323.467.557.659.968.231.492.299.83.297 1.467-.002.617-.054.866-.308 1.474-.201.481-.216.707-.063.968.112.19.236.296.501.432.394.201.75.188 1.021-.035.249-.205.55-.869.742-1.637.096-.381.106-.496.108-1.182.001-.843-.032-1.083-.244-1.734-.606-1.869-2.157-3.26-4.112-3.691-.278-.062-.576-.086-1.27-.103l-.906-.023-.069-.184c-.176-.475-.699-1.363-1.082-1.839a10.85 10.85 0 0 0-1.296-1.284 7.88 7.88 0 0 0-3.351-1.579c-.494-.104-.817-.124-1.017-.063m1.528 8.501 5.46 5.461-4.16-.014c-4.615-.015-4.394-.002-5.246-.287-.907-.304-1.639-.763-2.356-1.48-.544-.543-.76-.83-1.074-1.426A6.064 6.064 0 0 1 3.69 9.3c.166-.331.58-.95.837-1.249.29-.34 1.012-.971 1.109-.971.013 0 2.481 2.457 5.484 5.461" fill-rule="evenodd" fill="#000" stroke="none"/></svg>