<svg xmlns="http://www.w3.org/2000/svg" width="24" height="24" fill="none" stroke="currentColor" stroke-width="2" stroke-linecap="round" stroke-linejoin="round"><path d="M9.066 2.039a4.108 4.108 0 0 0-1.661.737C6.541 3.441 6.001 4.558 6 5.684v.305l-.41.021c-.995.054-1.822.416-2.493 1.093A3.607 3.607 0 0 0 2.026 9.72c.004.738.189 1.373.574 1.973l.202.314-.136.186c-.199.273-.41.715-.534 1.115-.098.322-.108.408-.108 1.012 0 .604.01.69.108 1.012.363 1.18 1.231 2.101 2.308 2.448.121.039.228.078.238.087.01.008-.785.82-1.766 1.804-1.217 1.221-1.812 1.845-1.872 1.966-.177.352-.088.717.259 1.064.347.347.712.436 1.064.259.121-.061.749-.659 1.982-1.889l1.806-1.8.07.215c.254.775.882 1.558 1.579 1.969a3.659 3.659 0 0 0 1.92.519 3.581 3.581 0 0 0 1.994-.588l.292-.188.187.136c.273.199.714.41 1.115.534.322.098.408.108 1.012.108.607 0 .689-.009 1.02-.111 1.574-.481 2.638-1.86 2.672-3.46l.008-.394.42-.022c.853-.044 1.499-.29 2.174-.827a4.01 4.01 0 0 0 .854-.982 3.726 3.726 0 0 0-.08-3.892l-.187-.29.155-.229c.225-.332.388-.677.511-1.077.099-.322.109-.408.109-1.012 0-.607-.009-.689-.111-1.02a4.345 4.345 0 0 0-.644-1.259c-.653-.849-1.798-1.397-2.925-1.4L18.012 6l-.026-.45c-.048-.856-.29-1.492-.822-2.162a3.69 3.69 0 0 0-1.258-.987c-.467-.226-.773-.313-1.26-.356a3.677 3.677 0 0 0-2.374.582l-.268.176-.232-.157c-.633-.429-1.194-.607-1.972-.628a5.343 5.343 0 0 0-.734.021m1.301 2.109c.195.091.382.233.691.524.789.744 1.046.75 1.816.046.623-.57.856-.682 1.426-.68.385.001.629.071.918.262.45.299.719.735.765 1.24.035.38-.031.695-.228 1.1-.163.334-.196.371-1.96 2.14L12 10.58l-1.794-1.8c-1.734-1.739-1.8-1.811-1.957-2.128-.202-.409-.265-.701-.238-1.102.047-.685.481-1.235 1.168-1.48.151-.054.291-.069.561-.06.304.011.402.032.627.138M6.178 8.061c.129.034.362.127.518.207.255.131.472.334 2.096 1.949l1.811 1.803-1.691 1.683c-.961.955-1.811 1.766-1.966 1.876a2.14 2.14 0 0 1-1.135.411c-.731.047-1.349-.317-1.664-.981-.118-.249-.127-.3-.127-.689 0-.389.009-.44.127-.687.091-.193.237-.385.525-.691.421-.446.528-.616.557-.88.027-.247-.101-.489-.47-.888-.584-.631-.723-.91-.724-1.459-.002-.375.076-.648.267-.935a1.709 1.709 0 0 1 1.876-.719m12.51-.017a1.7 1.7 0 0 1 1.165.947c.118.249.127.3.127.689 0 .389-.009.44-.127.687-.091.193-.237.385-.525.691-.421.446-.528.616-.557.88-.027.247.101.489.47.888.59.637.723.91.721 1.474-.002.501-.147.85-.5 1.203-.623.623-1.596.658-2.388.086-.14-.1-1.019-.95-1.954-1.887l-1.7-1.703 1.8-1.792c1.616-1.61 1.829-1.807 2.085-1.939.491-.253.915-.322 1.383-.224m-3.049 9.087c.278.411.339.623.34 1.169.001.437-.008.5-.105.707-.193.41-.591.768-1.021.915-.44.152-1.072.077-1.425-.168a7.158 7.158 0 0 1-.499-.442c-.439-.416-.63-.527-.909-.527-.283-.001-.447.093-.912.52-.461.423-.759.593-1.147.653a1.635 1.635 0 0 1-1.446-.481c-.32-.326-.445-.606-.467-1.052-.022-.437.035-.716.223-1.085.129-.251.333-.47 1.945-2.091l1.802-1.81 1.733 1.73c.953.952 1.803 1.835 1.888 1.962" fill-rule="evenodd" fill="#000" stroke="none"/></svg>