<svg xmlns="http://www.w3.org/2000/svg" width="24" height="24" fill="none" stroke="currentColor" stroke-width="2" stroke-linecap="round" stroke-linejoin="round"><path d="M11.575 1.065c-.09.032-.238.121-.328.198-.18.154-9.349 6.125-9.609 6.258-.221.113-.47.371-.565.584C.997 8.278.995 8.394.995 12s.002 3.722.078 3.895c.094.211.344.471.558.58.258.132 9.46 6.124 9.589 6.244.231.215.367.261.78.261.413 0 .549-.046.78-.261.129-.12 9.331-6.112 9.589-6.244.214-.109.464-.369.558-.58.076-.173.078-.289.078-3.895s-.002-3.722-.078-3.895a1.399 1.399 0 0 0-.572-.587c-.281-.144-9.403-6.083-9.587-6.243a1.328 1.328 0 0 0-.357-.212 1.522 1.522 0 0 0-.836.002M11 5.91v2.071l-1.958 1.37a119.48 119.48 0 0 1-2.012 1.391c-.049.018-3.149-2.114-3.192-2.196-.013-.024 7.048-4.667 7.152-4.703.005-.001.01.929.01 2.067m6.52.869c1.419.92 2.602 1.694 2.629 1.718.038.034-.324.307-1.519 1.142-.863.604-1.597 1.098-1.63 1.098-.034 0-.947-.62-2.03-1.378L13 7.981V3.843l.97.631 3.55 2.305m-3.889 4.081A62.755 62.755 0 0 1 15.237 12c0 .011-.728.529-1.618 1.15L12 14.281l-1.619-1.131c-.89-.621-1.618-1.139-1.618-1.15.001-.028 3.212-2.274 3.24-2.266.012.003.745.51 1.628 1.126m-9.458.38c.585.407 1.063.749 1.064.76 0 .018-1.833 1.309-2.122 1.494L3 13.568v-1.566c0-1.32.009-1.561.055-1.534a90.1 90.1 0 0 1 1.118.772m16.818 1.543-.011.782-1.109-.772c-.609-.425-1.108-.782-1.108-.793.001-.011.5-.367 1.109-.791l1.108-.771.011.781c.006.43.006 1.133 0 1.564M9.036 14.647l1.963 1.373v2.069l.001 2.07-.39-.253a1024.138 1024.138 0 0 1-6.758-4.401c-.036-.034.336-.314 1.539-1.156.874-.611 1.609-1.102 1.635-1.092.026.01.931.636 2.01 1.39m9.599-.279c1.175.822 1.549 1.103 1.513 1.136-.026.025-1.416.933-3.088 2.018-1.672 1.085-3.27 2.122-3.55 2.305l-.51.331.001-2.069V16.02l1.989-1.391c1.094-.764 2.01-1.382 2.036-1.372.026.01.75.51 1.609 1.111" fill="#000" fill-rule="evenodd" stroke="none"/></svg>