<svg xmlns="http://www.w3.org/2000/svg" width="24" height="24" fill="none" stroke="currentColor" stroke-width="2" stroke-linecap="round" stroke-linejoin="round"><path d="M11.541 1.042c-.535.084-.665.147-2.629 1.271-.808.462-1.528.852-1.6.867a1.208 1.208 0 0 0-.533.306c-.045.052-.851.534-1.792 1.071C3.262 5.542 3.028 5.7 2.66 6.128c-.244.283-.342.467-.508.952l-.13.38-.021 2.3c-.012 1.265-.011 3.308.001 4.54.021 2.203.023 2.245.114 2.52.24.73.658 1.296 1.244 1.686.099.066.855.504 1.68.974.893.508 1.575.923 1.686 1.024.126.116.258.192.411.237.132.038.829.411 1.694.906 1.665.953 1.963 1.11 2.329 1.227.143.045.332.11.42.143.205.076.635.076.84 0 .088-.033.277-.098.42-.143.366-.117.664-.274 2.329-1.227.865-.495 1.562-.868 1.694-.906.153-.045.285-.121.411-.237.111-.101.793-.516 1.686-1.024.825-.47 1.581-.908 1.68-.974.683-.455 1.124-1.12 1.303-1.964.088-.415.088-8.671 0-9.085-.165-.773-.436-1.24-1.01-1.74-.12-.105-.945-.603-1.92-1.16-.941-.537-1.747-1.019-1.792-1.071a1.208 1.208 0 0 0-.533-.306c-.072-.015-.81-.415-1.64-.89-1.641-.939-1.946-1.096-2.305-1.188a3.829 3.829 0 0 0-1.202-.06m.748 2.011c.164.052 2.11 1.151 2.111 1.193 0 .04-2.33 1.374-2.4 1.374-.07 0-2.4-1.334-2.4-1.374.001-.042 1.947-1.141 2.111-1.193.082-.026.212-.047.289-.047.077 0 .207.021.289.047m-2.82 3.453c1.051.608 2.007 1.15 2.125 1.204.279.13.533.13.812 0 .118-.054 1.076-.597 2.129-1.207l1.915-1.107 1.256.716 1.257.717-3.45 1.996C13.616 9.922 12.035 10.82 12 10.82c-.035 0-1.616-.898-3.513-1.995L5.037 6.83l1.251-.715c.689-.393 1.256-.715 1.261-.715.005 0 .869.498 1.92 1.106M7.534 10.58l3.463 2 .002 3.99c0 2.195-.012 3.989-.029 3.988-.016-.002-.57-.313-1.23-.692l-1.2-.689-.02-2.399c-.019-2.328-.022-2.403-.104-2.578a1.187 1.187 0 0 0-.209-.3c-.068-.066-1.043-.65-2.166-1.297L4 11.425V9.989c0-.833.015-1.43.036-1.422.02.007 1.594.913 3.498 2.013M20 9.993v1.432l-2.042 1.178c-1.269.731-2.099 1.233-2.19 1.326-.273.278-.265.194-.287 2.849l-.021 2.399-1.2.689c-.66.379-1.213.69-1.23.692-.017.001-.029-1.793-.029-3.988l.002-3.99 3.468-2.007a332.4 332.4 0 0 1 3.499-2.01c.017-.002.03.642.03 1.43M5.262 14.464l1.218.704v2.839l-.13-.079c-.071-.043-.534-.309-1.027-.591-.544-.31-.957-.573-1.05-.669-.252-.26-.273-.392-.273-1.735 0-.645.01-1.173.022-1.173.012 0 .57.317 1.24.704M20 14.933c0 1.343-.021 1.475-.273 1.735-.093.096-.506.359-1.05.669-.493.282-.955.548-1.027.591l-.13.079v-2.84l1.21-.702a39.478 39.478 0 0 1 1.24-.703c.017-.001.03.526.03 1.171" fill-rule="evenodd" fill="#000" stroke="none"/></svg>