<svg xmlns="http://www.w3.org/2000/svg" width="24" height="24" fill="none" stroke="currentColor" stroke-width="2" stroke-linecap="round" stroke-linejoin="round"><path d="M14.206 3.007a.761.761 0 0 0-.542.425c-.051.104-1.233 3.833-2.626 8.288-1.856 5.936-2.537 8.164-2.548 8.34-.03.471.264.791.846.92.24.054.326.057.469.019a.807.807 0 0 0 .531-.431c.051-.104 1.235-3.833 2.629-8.288 2.359-7.539 2.534-8.12 2.535-8.387 0-.254-.013-.305-.12-.456-.212-.3-.763-.502-1.174-.43M5.62 7.046c-.235.121-4.466 4.362-4.581 4.591a.807.807 0 0 0 0 .726c.125.249 4.349 4.473 4.598 4.598.353.176.718.087 1.064-.26.347-.347.436-.712.259-1.064-.06-.12-.639-.729-1.813-1.907L3.422 12l1.725-1.73C6.321 9.092 6.9 8.483 6.96 8.363c.177-.352.088-.717-.259-1.064-.34-.34-.733-.432-1.081-.253m12.006-.001c-.206.109-.48.388-.588.599a.792.792 0 0 0 .002.719c.06.12.639.729 1.813 1.907L20.578 12l-1.725 1.73c-1.174 1.178-1.753 1.787-1.813 1.907-.177.352-.088.717.259 1.064.346.347.711.436 1.064.26.249-.125 4.473-4.349 4.598-4.598a.896.896 0 0 0 .088-.363.896.896 0 0 0-.088-.363c-.121-.241-4.349-4.473-4.589-4.593a.884.884 0 0 0-.746.001" fill-rule="evenodd" fill="#000" stroke="none"/></svg>