<svg xmlns="http://www.w3.org/2000/svg" width="24" height="24" fill="none" stroke="currentColor" stroke-width="2" stroke-linecap="round" stroke-linejoin="round"><path d="M7.62 5.046c-.237.121-6.466 6.36-6.581 6.591A.896.896 0 0 0 .951 12c0 .111.035.256.088.363.125.25 6.348 6.473 6.598 6.598.353.176.718.086 1.064-.26.347-.347.436-.711.26-1.064-.063-.124-.903-.993-2.814-2.907L3.421 12l2.726-2.73c1.911-1.914 2.751-2.783 2.814-2.907.176-.353.087-.717-.26-1.064-.34-.34-.733-.432-1.081-.253m8.006-.001c-.206.109-.48.388-.588.599a.795.795 0 0 0 .001.719c.063.124.903.993 2.814 2.907L20.579 12l-2.726 2.73c-1.911 1.914-2.751 2.783-2.814 2.907-.176.353-.087.717.26 1.064.346.346.711.436 1.064.26.25-.125 6.473-6.348 6.598-6.598a.896.896 0 0 0 .088-.363.896.896 0 0 0-.088-.363c-.121-.243-6.347-6.473-6.589-6.593a.884.884 0 0 0-.746.001" fill="#000" fill-rule="evenodd" stroke="none"/></svg>