<svg xmlns="http://www.w3.org/2000/svg" width="24" height="24" fill="none" stroke="currentColor" stroke-width="2" stroke-linecap="round" stroke-linejoin="round"><path d="M5.614.057a.814.814 0 0 0-.505.396c-.088.165-.089.194-.101 1.957-.007 1.147.004 1.845.03 1.944.106.393.395.607.858.637.485.031.803-.109.984-.433l.1-.178V2.5C6.98.633 6.979.619 6.891.453a.874.874 0 0 0-.213-.254C6.414.01 5.957-.05 5.614.057m4 0a.814.814 0 0 0-.505.396c-.088.165-.089.194-.101 1.957-.007 1.147.004 1.845.03 1.944.106.393.395.607.858.637.485.031.803-.109.984-.433l.1-.178V2.5c0-1.867-.001-1.881-.089-2.047a.874.874 0 0 0-.213-.254C10.414.01 9.957-.05 9.614.057m4 0a.814.814 0 0 0-.505.396c-.088.165-.089.194-.101 1.957-.007 1.147.004 1.845.03 1.944.106.393.395.607.858.637.485.031.803-.109.984-.433l.1-.178V2.5c0-1.867-.001-1.881-.089-2.047a.874.874 0 0 0-.213-.254c-.264-.189-.721-.249-1.064-.142m-12 7a.814.814 0 0 0-.505.396l-.089.167v5c0 4.684.005 5.021.073 5.34.433 2.024 1.923 3.514 3.947 3.947.318.068.644.073 4.96.073s4.642-.005 4.96-.073c1.528-.327 2.788-1.277 3.473-2.619a4.985 4.985 0 0 0 .555-1.952l.023-.325.325-.023a5.025 5.025 0 0 0 4.097-2.7c.405-.794.547-1.389.547-2.288 0-.448-.02-.714-.073-.96-.282-1.319-1.044-2.464-2.107-3.166-.754-.499-1.404-.739-2.248-.831-.618-.068-17.72-.054-17.938.014m15.377 6.213-.011 4.27-.101.321a3.089 3.089 0 0 1-2.039 2.025l-.3.094H5.46l-.3-.094a3.089 3.089 0 0 1-2.039-2.025l-.101-.321-.011-4.27L2.998 9h14.004l-.011 4.27m2.885-4.136c.925.268 1.71 1.056 1.999 2.005.083.273.098.403.098.861 0 .458-.015.588-.098.861-.353 1.157-1.393 2.016-2.573 2.123l-.302.027V8.99l.286.028c.157.015.423.068.59.116" fill-rule="evenodd" fill="#000" stroke="none"/></svg>