<svg xmlns="http://www.w3.org/2000/svg" width="24" height="24" fill="none" stroke="currentColor" stroke-width="2" stroke-linecap="round" stroke-linejoin="round"><path d="M7.207.043A8.055 8.055 0 0 0 2.9 1.847 7.857 7.857 0 0 0 .8 4.529a7.94 7.94 0 0 0 .001 6.945 7.632 7.632 0 0 0 1.645 2.267A7.375 7.375 0 0 0 4.529 15.2c2.73 1.319 5.938.984 8.371-.874.339-.259 1.025-.932 1.311-1.286a7.993 7.993 0 0 0 .989-8.511 7.857 7.857 0 0 0-2.1-2.682C11.483.494 9.337-.163 7.207.043m1.357 1.996a5.991 5.991 0 0 1 5.107 4.021c.497 1.457.397 3.191-.261 4.52-.86 1.736-2.354 2.898-4.25 3.305-.606.13-1.714.13-2.32 0-1.899-.407-3.389-1.566-4.25-3.305-.658-1.329-.758-3.063-.261-4.52a5.892 5.892 0 0 1 1.402-2.255 5.918 5.918 0 0 1 4.833-1.766m-1.95 3.018c-.391.123-.575.379-.605.843-.041.632.242 1.022.788 1.087L7 7.011v1.605c0 .951.017 1.663.041 1.749.107.385.396.597.855.626.485.031.803-.109.984-.433l.1-.178V5.62l-.089-.167c-.106-.197-.269-.322-.52-.398-.245-.073-1.52-.072-1.757.002M19.26 8.918c-.186.044-.279.106-.452.303-.41.465-.464.944-.146 1.296.076.084.374.31.663.503.918.614 1.561 1.345 2.038 2.32.411.839.58 1.495.624 2.424a5.94 5.94 0 0 1-2.116 4.819 5.162 5.162 0 0 1-1.251.817c-.804.389-1.489.554-2.442.588-.499.018-.729.008-1.04-.044-1.743-.293-3.164-1.191-4.095-2.588-.516-.773-.655-.89-1.049-.887-.586.006-1.184.601-1.094 1.087.086.467.777 1.44 1.566 2.206.933.906 1.974 1.514 3.274 1.911a8.01 8.01 0 0 0 3.88.163c1.621-.353 2.898-1.043 4.036-2.18 1.137-1.138 1.827-2.415 2.18-4.036.196-.902.215-2.169.045-3.04a8.403 8.403 0 0 0-1.476-3.38c-.279-.385-1.177-1.283-1.565-1.566-.836-.611-1.244-.796-1.58-.716m-2.2 4.369c-.19.071-.441.258-.577.429-.315.398-.321.75-.019 1.146l.109.142-1.122 1.128c-.729.733-1.153 1.19-1.211 1.305-.177.352-.088.717.259 1.064.346.347.711.436 1.064.26.247-.124 3.274-3.151 3.398-3.398a.804.804 0 0 0-.001-.726c-.116-.229-1.087-1.199-1.298-1.296-.198-.091-.445-.113-.602-.054" fill-rule="evenodd" fill="#000" stroke="none"/></svg>