<svg xmlns="http://www.w3.org/2000/svg" width="24" height="24" fill="none" stroke="currentColor" stroke-width="2" stroke-linecap="round" stroke-linejoin="round"><path d="M5.358 2.061c-1.128.176-2.215.913-2.789 1.892a3.992 3.992 0 0 0 1.943 5.751c.627.253.964.296 2.304.296H8v4H6.89c-1.525.001-1.947.07-2.694.443a4.12 4.12 0 0 0-1.627 1.51 3.992 3.992 0 0 0 1.943 5.751 3.988 3.988 0 0 0 5.192-2.216c.253-.627.296-.964.296-2.304V16h4v1.184c0 1.038.01 1.233.083 1.589a3.973 3.973 0 0 0 2.429 2.931 3.988 3.988 0 0 0 5.192-2.216 3.95 3.95 0 0 0 .217-2.245 4.017 4.017 0 0 0-2.676-3.039c-.461-.158-.941-.204-2.135-.204H16v-4h1.184c1.023 0 1.236-.011 1.573-.079 1.36-.278 2.436-1.166 2.947-2.433a3.963 3.963 0 0 0 .001-2.972 3.978 3.978 0 0 0-3.1-2.458 3.416 3.416 0 0 0-1.21 0 3.986 3.986 0 0 0-3.312 3.169c-.073.356-.083.551-.083 1.589V8h-4V6.816c0-1.338-.044-1.678-.295-2.3a3.978 3.978 0 0 0-3.1-2.458 3.728 3.728 0 0 0-1.247.003m1.165 2.012c.499.13.993.526 1.249.998.192.355.227.634.227 1.839L8 8H6.868c-.874 0-1.183-.014-1.36-.06-.685-.178-1.259-.746-1.435-1.417a2.001 2.001 0 0 1 2.45-2.45m12 0a2.011 2.011 0 0 1 1.27 2.807c-.155.318-.566.745-.863.895-.402.204-.572.225-1.798.225H16V6.898c0-1.255.034-1.5.265-1.884.48-.802 1.37-1.173 2.258-.941M14 12v2h-4v-4h4v2m-6.001 5.09c0 1.203-.035 1.481-.227 1.841-.147.277-.581.712-.842.844a1.976 1.976 0 0 1-2.277-.31 1.99 1.99 0 0 1 .334-3.186c.403-.244.61-.274 1.883-.277L8 16l-.001 1.09m10.524-1.017a2.011 2.011 0 0 1 1.27 2.807c-.155.318-.566.745-.863.895a2.044 2.044 0 0 1-1.847.006c-.267-.135-.634-.484-.802-.764-.246-.408-.276-.612-.279-1.887L16 16l1.13.002c.934.002 1.176.015 1.393.071" fill-rule="evenodd" fill="#000" stroke="none"/></svg>