<svg xmlns="http://www.w3.org/2000/svg" width="24" height="24" fill="none" stroke="currentColor" stroke-width="2" stroke-linecap="round" stroke-linejoin="round"><path d="m11.28 1.023-.56.06c-1.888.2-3.729.94-5.36 2.152-.609.453-1.676 1.52-2.134 2.132C.728 8.714.301 13.032 2.097 16.78c.546 1.138 1.179 2.021 2.141 2.982.961.962 1.844 1.595 2.982 2.141 3.747 1.796 8.068 1.367 11.417-1.133.609-.454 1.679-1.524 2.133-2.133 2.974-3.985 2.974-9.289 0-13.274-.454-.608-1.523-1.677-2.13-2.128-1.595-1.186-3.275-1.875-5.217-2.139C13 1.038 11.574.99 11.28 1.023m2.04 2.078c2.563.387 4.804 1.83 6.24 4.019.303.463.743 1.359.932 1.9.346.993.485 1.845.485 2.98 0 1.493-.257 2.621-.897 3.94-.705 1.454-1.769 2.667-3.153 3.592-.789.528-2.051 1.056-3.019 1.265a9.053 9.053 0 0 1-7.538-1.778c-1.513-1.212-2.648-2.99-3.103-4.859-.186-.763-.244-1.272-.244-2.16 0-1.493.257-2.621.897-3.94a8.983 8.983 0 0 1 5.24-4.594c.705-.233 1.272-.348 2.18-.442.322-.033 1.571.015 1.98.077m2.83 3.661c-.246.04-6.513 2.131-6.75 2.252-.354.181-.337.139-1.541 3.749-1.049 3.15-1.108 3.341-1.089 3.555.04.433.331.831.677.924a.79.79 0 0 0 .394.001c.336-.066 6.66-2.185 6.825-2.286a1.11 1.11 0 0 0 .255-.245c.081-.112.427-1.098 1.221-3.48 1.048-3.145 1.107-3.336 1.088-3.55a1.404 1.404 0 0 0-.123-.428c-.207-.408-.511-.564-.957-.492M14.63 9.41l-.649 1.95c-.347 1.045-.651 1.92-.676 1.945-.045.045-3.909 1.344-3.932 1.322-.015-.016 1.253-3.828 1.298-3.905.027-.045 3.802-1.346 3.943-1.359.019-.002.026.02.016.047" fill="#000" fill-rule="evenodd" stroke="none"/></svg>