<svg xmlns="http://www.w3.org/2000/svg" width="24" height="24" fill="none" stroke="currentColor" stroke-width="2" stroke-linecap="round" stroke-linejoin="round"><path d="M7.614 1.057a.814.814 0 0 0-.505.396c-.08.15-.09.236-.102.854l-.014.686-1.266.016c-1.209.016-1.282.021-1.588.115-.497.153-.831.36-1.243.772-.4.4-.6.717-.771 1.217l-.105.307v15.16l.105.307c.171.5.371.817.771 1.217.4.4.717.6 1.217.771l.307.105h15.16l.307-.105c.5-.171.817-.371 1.217-.771.4-.4.6-.717.771-1.217l.105-.307V5.42l-.105-.307c-.171-.5-.371-.817-.771-1.217-.412-.412-.746-.619-1.243-.772-.306-.094-.379-.099-1.587-.115l-1.266-.016-.015-.686c-.018-.783-.066-.943-.344-1.125-.45-.295-1.223-.203-1.479.176-.141.21-.17.381-.17 1.032V3H9.008l-.015-.69c-.017-.769-.063-.932-.315-1.111-.264-.189-.721-.249-1.064-.142m11.802 4.04c.199.099.388.288.487.487.075.153.077.315.077 7.416 0 7.133-.001 7.263-.078 7.418a1.418 1.418 0 0 1-.232.307c-.305.296.287.275-7.67.275s-7.365.021-7.67-.275a1.418 1.418 0 0 1-.232-.307c-.076-.155-.078-.296-.089-7.318-.008-4.964.001-7.213.031-7.333a1.02 1.02 0 0 1 .686-.721c.085-.025 2.773-.037 7.334-.033 7.034.007 7.204.009 7.356.084m-8.058 1.964c-1.128.176-2.215.913-2.789 1.892a3.992 3.992 0 0 0 1.943 5.751 3.988 3.988 0 0 0 5.192-2.216 3.963 3.963 0 0 0 .001-2.972 3.978 3.978 0 0 0-3.1-2.458 3.728 3.728 0 0 0-1.247.003m1.165 2.012a2.011 2.011 0 0 1 1.444 1.617c.1.653-.094 1.243-.564 1.714-.401.403-.856.596-1.403.596-.515 0-.962-.178-1.347-.535-1.33-1.236-.464-3.46 1.347-3.46.143 0 .378.031.523.068m-1.377 6.972c-1.548.118-3.143.656-4.524 1.524-.468.295-.623.481-.652.784-.049.507.405 1.116.886 1.189.209.031.453-.058.909-.332 1.385-.832 2.666-1.187 4.275-1.186 1.637.002 2.931.354 4.111 1.12.445.289.617.373.823.401.34.047.754-.249.973-.695a.695.695 0 0 0 .085-.447c-.024-.335-.152-.501-.647-.837-1.732-1.176-3.889-1.702-6.239-1.521" fill-rule="evenodd" fill="#000" stroke="none"/></svg>