<svg xmlns="http://www.w3.org/2000/svg" width="24" height="24" fill="none" stroke="currentColor" stroke-width="2" stroke-linecap="round" stroke-linejoin="round"><path d="m11.28 1.024-.56.059A10.685 10.685 0 0 0 7.18 2.12c-1.135.551-1.987 1.165-2.942 2.119-.961.959-1.595 1.841-2.141 2.981C.301 10.968.728 15.286 3.226 18.633c.475.636 1.527 1.683 2.174 2.164 3.964 2.948 9.266 2.937 13.237-.027.609-.454 1.679-1.524 2.133-2.133a11.046 11.046 0 0 0 2.193-5.749c.107-1.274-.017-1.66-.592-1.833-.251-.075-.424-.069-.837.029a3.085 3.085 0 0 1-1.824-.124c-.522-.195-1.162-.742-1.465-1.252-.382-.644-.503-1.492-.323-2.256.153-.652.115-.906-.177-1.162-.162-.143-.53-.29-.723-.29-.075 0-.294.038-.488.084a2.966 2.966 0 0 1-2.894-.87 2.758 2.758 0 0 1-.651-1.084c-.101-.293-.124-.428-.139-.83-.011-.3 0-.548.03-.66.101-.384.155-.747.132-.894-.036-.236-.24-.506-.471-.624-.176-.09-.251-.103-.66-.108a8.22 8.22 0 0 0-.601.01m-.48 2.112c0 .218.098.94.164 1.204.524 2.108 2.268 3.617 4.409 3.813.214.02.399.046.41.057.012.011.039.198.061.415.22 2.17 1.7 3.881 3.816 4.411a8.88 8.88 0 0 0 1.232.164c.071 0-.149 1.009-.358 1.64-.627 1.899-1.895 3.547-3.607 4.692-.789.528-2.051 1.056-3.019 1.265a9.053 9.053 0 0 1-7.538-1.778 9.052 9.052 0 0 1-2.45-3.079 8.75 8.75 0 0 1-.826-2.66c-.097-.634-.097-1.926 0-2.56.4-2.615 1.823-4.835 4.026-6.28.824-.54 2.071-1.054 3-1.235l.5-.099c.149-.031.18-.026.18.03M8.042 7.572c-.196.063-.429.31-.485.516-.06.223-.059.604.002.831.216.793 1.666.793 1.882 0 .026-.099.048-.289.049-.423.001-.661-.323-.979-.99-.972a2.207 2.207 0 0 0-.458.048m3.572 3.485c-.393.123-.575.378-.605.849-.047.715.297 1.094.991 1.094.698 0 1.043-.384.989-1.1-.026-.337-.13-.573-.311-.701-.264-.189-.721-.249-1.064-.142m-5 2c-.393.123-.575.378-.605.849C5.962 14.621 6.306 15 7 15c.698 0 1.043-.384.989-1.1-.026-.337-.13-.573-.311-.701-.264-.189-.721-.249-1.064-.142m8.931 1.522c-.374.133-.572.511-.536 1.024.038.524.267.796.745.885.5.093.96-.085 1.13-.437.118-.244.145-.651.061-.939a.814.814 0 0 0-.532-.549c-.213-.059-.682-.05-.868.016m-4.931 1.478c-.393.123-.575.378-.605.849-.047.715.297 1.094.991 1.094.698 0 1.043-.384.989-1.1-.026-.337-.13-.573-.311-.701-.264-.189-.721-.249-1.064-.142" fill-rule="evenodd" fill="#000" stroke="none"/></svg>