<svg xmlns="http://www.w3.org/2000/svg" width="24" height="24" fill="none" stroke="currentColor" stroke-width="2" stroke-linecap="round" stroke-linejoin="round"><path d="m11.28 1.023-.56.06c-1.888.2-3.729.94-5.36 2.152-.609.453-1.676 1.52-2.134 2.132C.728 8.714.301 13.032 2.097 16.78c.546 1.138 1.179 2.021 2.141 2.982.961.962 1.844 1.595 2.982 2.141 3.747 1.796 8.068 1.367 11.417-1.133.609-.454 1.679-1.524 2.133-2.133 2.974-3.985 2.974-9.289 0-13.274-.454-.608-1.523-1.677-2.13-2.128-1.595-1.186-3.275-1.875-5.217-2.139C13 1.038 11.574.99 11.28 1.023m2.04 2.078c2.563.387 4.804 1.83 6.24 4.019.303.463.743 1.359.932 1.9.346.993.485 1.845.485 2.98 0 1.493-.257 2.621-.897 3.94-.705 1.454-1.769 2.667-3.153 3.592-.789.528-2.051 1.056-3.019 1.265a9.053 9.053 0 0 1-7.538-1.778c-1.513-1.212-2.648-2.99-3.103-4.859-.186-.763-.244-1.272-.244-2.16 0-1.493.257-2.621.897-3.94a8.983 8.983 0 0 1 5.24-4.594c.705-.233 1.272-.348 2.18-.442.322-.033 1.571.015 1.98.077m-2.06 3.958c-1.129.18-2.054.655-2.83 1.453-.341.35-.477.598-.477.866 0 .466.586 1.02 1.079 1.022.242 0 .412-.102.862-.517.305-.282.476-.404.76-.543.52-.255.791-.319 1.366-.318.557 0 .869.078 1.4.349.479.244.98.763 1.231 1.272.253.516.319.797.319 1.357 0 .556-.066.841-.312 1.343a2.985 2.985 0 0 1-1.438 1.386c-.484.211-.684.251-1.24.248-.457-.002-.561-.016-.86-.114-.575-.189-.729-.285-1.28-.798-.375-.348-.578-.463-.82-.463-.485 0-1.077.568-1.07 1.027.005.303.168.563.627.998.468.445.933.753 1.473.975 1.418.584 2.884.524 4.248-.174 1.337-.684 2.284-1.943 2.609-3.468.1-.471.1-1.449 0-1.92a5.043 5.043 0 0 0-1.304-2.491c-1.1-1.157-2.791-1.737-4.343-1.49" fill-rule="evenodd" fill="#000" stroke="none"/></svg>