<svg xmlns="http://www.w3.org/2000/svg" width="24" height="24" fill="none" stroke="currentColor" stroke-width="2" stroke-linecap="round" stroke-linejoin="round"><path d="m11.28 1.023-.56.06c-1.888.2-3.729.94-5.36 2.152-.609.453-1.676 1.52-2.134 2.132C.728 8.714.301 13.032 2.097 16.78c.546 1.138 1.179 2.021 2.141 2.982.961.962 1.844 1.595 2.982 2.141 3.747 1.796 8.068 1.367 11.417-1.133.609-.454 1.679-1.524 2.133-2.133 2.974-3.985 2.974-9.289 0-13.274-.454-.608-1.523-1.677-2.13-2.128-1.595-1.186-3.275-1.875-5.217-2.139C13 1.038 11.574.99 11.28 1.023m2.04 2.078c2.563.387 4.804 1.83 6.24 4.019.303.463.743 1.359.932 1.9.346.993.485 1.845.485 2.98 0 1.493-.257 2.621-.897 3.94-.705 1.454-1.769 2.667-3.153 3.592-.789.528-2.051 1.056-3.019 1.265a9.053 9.053 0 0 1-7.538-1.778c-1.513-1.212-2.648-2.99-3.103-4.859-.186-.763-.244-1.272-.244-2.16 0-1.493.257-2.621.897-3.94a8.983 8.983 0 0 1 5.24-4.594c.705-.233 1.272-.348 2.18-.442.322-.033 1.571.015 1.98.077M11.214 7.06A5.086 5.086 0 0 0 7.52 9.783c-.163.318-.35.868-.447 1.317-.068.316-.068 1.484 0 1.8.224 1.038.637 1.832 1.329 2.556.756.791 1.712 1.29 2.849 1.489 1.011.177 2.342-.077 3.269-.624.587-.346 1.295-1.004 1.445-1.344.162-.366.085-.696-.236-1.008-.373-.362-.754-.46-1.099-.284-.092.047-.321.233-.509.413-.595.572-1.217.851-1.981.89-1.197.06-2.288-.592-2.836-1.695a3.004 3.004 0 0 1 0-2.586c.216-.436.622-.922.962-1.154.22-.15.64-.347.936-.439.38-.118 1.112-.129 1.518-.022.497.13.956.393 1.373.785.208.197.452.395.541.44.35.179.733.074 1.109-.302.334-.333.395-.672.193-1.064-.101-.193-.666-.757-1.004-.999a5.263 5.263 0 0 0-1.962-.854c-.432-.091-1.346-.11-1.756-.038" fill-rule="evenodd" fill="#000" stroke="none"/></svg>