<svg xmlns="http://www.w3.org/2000/svg" width="24" height="24" fill="none" stroke="currentColor" stroke-width="2" stroke-linecap="round" stroke-linejoin="round"><path d="M3.614 3.057a.814.814 0 0 0-.505.396l-.089.167v4c0 3.717.005 4.024.073 4.34.43 2.008 1.867 3.46 3.907 3.945.278.067.672.073 5.438.084l5.138.013-1.724 1.729c-1.173 1.177-1.752 1.786-1.812 1.906-.177.352-.088.717.259 1.064.347.347.711.436 1.064.259.123-.061.95-.857 2.698-2.594 1.387-1.378 2.573-2.54 2.635-2.582.154-.102.353-.545.353-.784 0-.256-.198-.679-.373-.799-.075-.051-1.261-1.213-2.636-2.583-1.661-1.654-2.557-2.518-2.668-2.574-.352-.176-.733-.085-1.073.255-.347.347-.436.712-.259 1.064.06.12.64.729 1.814 1.908l1.726 1.731-5.08-.011-5.08-.011-.28-.094c-.983-.33-1.717-1.067-2.018-2.025l-.101-.321-.02-3.96-.021-3.96-.089-.167a.874.874 0 0 0-.213-.254c-.264-.189-.721-.249-1.064-.142" fill-rule="evenodd" fill="#000" stroke="none"/></svg>