<svg xmlns="http://www.w3.org/2000/svg" width="24" height="24" fill="none" stroke="currentColor" stroke-width="2" stroke-linecap="round" stroke-linejoin="round"><path d="M8.62 3.046c-.097.05-1.142 1.061-2.66 2.572-1.375 1.37-2.561 2.532-2.636 2.583-.175.12-.373.543-.373.799 0 .239.199.682.353.784.062.042 1.248 1.204 2.635 2.582 1.748 1.737 2.575 2.533 2.698 2.594.353.177.717.088 1.064-.259.347-.347.436-.712.259-1.064-.06-.12-.64-.729-1.814-1.908L6.42 9.998l5.06.011 5.06.011.321.101a3.086 3.086 0 0 1 2.017 2.018l.101.321.02 3.96.021 3.96.1.178c.167.298.452.442.88.442s.713-.144.88-.442l.1-.178v-4c0-3.717-.005-4.024-.073-4.34-.41-1.914-1.821-3.407-3.667-3.878-.596-.153-.942-.162-5.947-.162H6.422l1.725-1.73C9.321 5.092 9.9 4.483 9.96 4.363c.177-.352.088-.717-.259-1.064-.34-.34-.734-.432-1.081-.253" fill-rule="evenodd" fill="#000" stroke="none"/></svg>