<svg xmlns="http://www.w3.org/2000/svg" width="24" height="24" fill="none" stroke="currentColor" stroke-width="2" stroke-linecap="round" stroke-linejoin="round"><path d="M14.626 3.045c-.206.109-.48.388-.588.599a.792.792 0 0 0 .002.719c.06.12.639.729 1.813 1.907L17.578 8h-4.871c-5.005 0-5.351.009-5.947.162a5.053 5.053 0 0 0-2.376 1.401c-.646.678-1.056 1.454-1.289 2.437-.065.275-.072.633-.084 4.251-.009 2.627 0 4.002.028 4.104.105.392.394.606.857.636.485.031.803-.109.984-.433l.1-.178.021-3.96.02-3.96.101-.321a3.086 3.086 0 0 1 2.017-2.018l.321-.101 5.06-.011 5.06-.011-1.726 1.731c-1.174 1.179-1.754 1.788-1.814 1.908-.177.352-.088.717.259 1.064.347.347.711.436 1.064.259.123-.061.95-.857 2.698-2.594 1.387-1.378 2.573-2.54 2.635-2.582.154-.102.353-.545.353-.784 0-.256-.198-.679-.373-.799-.075-.051-1.261-1.213-2.636-2.583-1.661-1.654-2.557-2.518-2.668-2.574a.884.884 0 0 0-.746.001" fill-rule="evenodd" fill="#000" stroke="none"/></svg>