<svg xmlns="http://www.w3.org/2000/svg" width="24" height="24" fill="none" stroke="currentColor" stroke-width="2" stroke-linecap="round" stroke-linejoin="round"><path d="M3.614 3.057c-.391.123-.575.379-.605.843-.031.481.11.799.433.98l.178.1 3.96.021 3.96.02.321.101a3.086 3.086 0 0 1 2.018 2.017l.101.321.011 5.06.011 5.06-1.731-1.726c-1.123-1.119-1.79-1.755-1.899-1.81-.352-.176-.733-.085-1.073.255-.347.347-.436.711-.259 1.064.061.123.857.95 2.594 2.698 1.378 1.387 2.54 2.573 2.582 2.635.102.154.545.353.784.353s.682-.199.784-.353c.042-.062 1.204-1.248 2.582-2.635 1.737-1.748 2.533-2.575 2.594-2.698.177-.353.088-.717-.259-1.064-.34-.34-.721-.431-1.073-.255-.109.055-.775.69-1.897 1.808l-1.729 1.724-.013-5.138c-.011-4.766-.017-5.16-.084-5.438-.317-1.334-1.058-2.434-2.105-3.126-.754-.499-1.404-.739-2.248-.831-.605-.067-7.722-.053-7.938.014" fill-rule="evenodd" fill="#000" stroke="none"/></svg>