<svg xmlns="http://www.w3.org/2000/svg" width="24" height="24" fill="none" stroke="currentColor" stroke-width="2" stroke-linecap="round" stroke-linejoin="round"><path d="M19.614 3.057a.814.814 0 0 0-.505.396l-.089.167-.021 3.96-.02 3.96-.101.321c-.301.958-1.035 1.695-2.018 2.025l-.28.094-5.08.011-5.08.011 1.726-1.731C9.32 11.092 9.9 10.483 9.96 10.363c.177-.352.088-.717-.259-1.064-.34-.34-.721-.431-1.073-.255-.111.056-1.007.92-2.668 2.574-1.375 1.37-2.561 2.532-2.636 2.583-.175.12-.373.543-.373.799 0 .239.199.682.353.784.062.042 1.248 1.204 2.635 2.582 1.748 1.737 2.575 2.533 2.698 2.594.353.177.717.088 1.064-.259.347-.347.436-.712.259-1.064-.06-.12-.639-.729-1.812-1.906l-1.724-1.729 5.138-.013c4.766-.011 5.16-.017 5.438-.084 1.545-.367 2.756-1.291 3.433-2.617.229-.449.372-.849.474-1.328.068-.316.073-.623.073-4.34v-4l-.089-.167a.874.874 0 0 0-.213-.254c-.264-.189-.721-.249-1.064-.142" fill-rule="evenodd" fill="#000" stroke="none"/></svg>