<svg xmlns="http://www.w3.org/2000/svg" width="24" height="24" fill="none" stroke="currentColor" stroke-width="2" stroke-linecap="round" stroke-linejoin="round"><path d="M8.53 3.083c-.137.067-.281.169-.32.228-.038.059-1.198 1.241-2.576 2.628C3.897 7.687 3.101 8.514 3.04 8.637c-.177.353-.088.717.259 1.064.347.347.712.436 1.064.259.12-.06.729-.639 1.906-1.812l1.729-1.724.013 5.138c.014 5.652-.002 5.276.257 6.038.571 1.673 1.931 2.878 3.732 3.305.275.065.633.072 4.251.084 2.627.009 4.002 0 4.104-.028a.841.841 0 0 0 .525-.403c.087-.156.1-.226.099-.558-.002-.531-.127-.753-.524-.929-.09-.04-.989-.056-4.075-.071l-3.96-.021-.28-.093c-.981-.328-1.715-1.065-2.019-2.025l-.101-.321-.011-5.06-.011-5.06 1.731 1.726C12.908 9.32 13.517 9.9 13.637 9.96c.352.177.717.088 1.064-.259.347-.347.436-.711.259-1.064-.061-.123-.857-.95-2.594-2.698-1.378-1.387-2.538-2.57-2.577-2.628-.038-.059-.185-.162-.325-.229-.344-.164-.593-.164-.934.001" fill-rule="evenodd" fill="#000" stroke="none"/></svg>