<svg xmlns="http://www.w3.org/2000/svg" width="24" height="24" fill="none" stroke="currentColor" stroke-width="2" stroke-linecap="round" stroke-linejoin="round"><path d="M14.53 3.083c-.137.067-.281.169-.32.228-.038.059-1.198 1.241-2.576 2.628C9.897 7.687 9.101 8.514 9.04 8.637c-.177.353-.088.717.259 1.064.347.347.712.436 1.064.259.12-.06.729-.64 1.908-1.814l1.731-1.726-.011 5.06-.011 5.06-.101.321c-.304.96-1.038 1.697-2.019 2.025l-.28.093L7.619 19l-3.961.02-.199.102c-.34.175-.481.484-.45.982.03.463.244.752.636.857.102.028 1.477.037 4.104.028 3.618-.012 3.976-.019 4.251-.084 1.542-.365 2.756-1.291 3.433-2.617.215-.422.361-.82.472-1.288.067-.278.073-.672.084-5.438l.013-5.138 1.729 1.724c1.177 1.173 1.786 1.752 1.906 1.812.352.177.717.088 1.064-.259.347-.347.436-.711.259-1.064-.061-.123-.857-.95-2.594-2.698-1.378-1.387-2.538-2.57-2.577-2.628-.038-.059-.185-.162-.325-.229-.344-.164-.593-.164-.934.001" fill-rule="evenodd" fill="#000" stroke="none"/></svg>