<svg xmlns="http://www.w3.org/2000/svg" width="24" height="24" fill="none" stroke="currentColor" stroke-width="2" stroke-linecap="round" stroke-linejoin="round"><path d="M12.4 3.044c-1.639.185-3.139 1.246-3.874 2.741A5.911 5.911 0 0 0 8.095 7c-.067.278-.073.672-.084 5.438l-.013 5.138-1.729-1.724c-1.122-1.118-1.788-1.753-1.897-1.808-.352-.176-.733-.085-1.073.255-.347.347-.436.711-.259 1.064.061.123.857.95 2.594 2.698 1.378 1.387 2.54 2.573 2.582 2.635.102.154.545.353.784.353s.682-.199.784-.353c.042-.062 1.204-1.248 2.582-2.635 1.737-1.748 2.533-2.575 2.594-2.698.177-.353.088-.717-.259-1.064-.34-.34-.721-.431-1.073-.255-.109.055-.776.691-1.899 1.81L9.998 17.58l.011-5.06.011-5.06.101-.321a3.086 3.086 0 0 1 2.018-2.017l.321-.101 3.96-.02c3.77-.02 3.967-.025 4.1-.096.356-.19.458-.391.458-.905 0-.433-.079-.644-.3-.801-.283-.202-.225-.199-4.234-.194-2.059.003-3.879.021-4.044.039" fill-rule="evenodd" fill="#000" stroke="none"/></svg>