<svg xmlns="http://www.w3.org/2000/svg" width="24" height="24" fill="none" stroke="currentColor" stroke-width="2" stroke-linecap="round" stroke-linejoin="round"><path d="M8.614.057a.814.814 0 0 0-.505.396c-.085.16-.089.215-.101 1.354l-.012 1.186-1.268.016c-1.21.016-1.283.021-1.589.115A3.098 3.098 0 0 0 3.116 5.14c-.085.263-.092.358-.107 1.57L2.993 8h-1.09C.744 8 .57 8.022.322 8.199.1 8.357.02 8.568.02 9c0 .331.013.403.1.558.11.197.294.34.515.401.081.023.635.041 1.255.041H3v3H1.906c-1.162 0-1.336.022-1.584.199C.1 13.357.02 13.568.02 14c0 .331.013.403.1.558.11.197.294.34.515.401.081.023.634.041 1.252.041h1.108l.014 1.79c.014 1.743.017 1.797.107 2.07a3.128 3.128 0 0 0 2.024 2.024c.263.085.358.092 1.57.107l1.29.016v1.106c0 .618.018 1.171.041 1.252.107.385.396.597.855.626.485.031.803-.109.984-.433.099-.177.1-.184.113-1.368l.012-1.19H14v1.11c0 .62.018 1.174.041 1.255.107.385.396.597.855.626.485.031.803-.109.984-.433.099-.177.1-.184.113-1.365l.012-1.186 1.288-.016c1.209-.015 1.304-.022 1.567-.107a3.128 3.128 0 0 0 2.024-2.024c.09-.273.093-.327.107-2.07l.014-1.79h1.108c.618 0 1.171-.018 1.252-.041a.842.842 0 0 0 .515-.401c.087-.156.1-.226.099-.558-.001-.433-.081-.645-.301-.801-.248-.177-.422-.199-1.584-.199H21v-3h1.11c.62 0 1.174-.018 1.255-.041a.842.842 0 0 0 .515-.401c.087-.156.1-.226.099-.558-.001-.433-.081-.645-.301-.801C23.43 8.022 23.256 8 22.097 8h-1.09l-.016-1.29c-.015-1.212-.022-1.307-.107-1.57a3.098 3.098 0 0 0-2.023-2.016c-.306-.094-.379-.099-1.588-.115l-1.268-.016-.012-1.186C15.98.662 15.977.614 15.889.45c-.165-.31-.56-.48-1.015-.439-.435.04-.733.263-.833.624C14.018.716 14 1.27 14 1.89V3h-3.995l-.012-1.19C9.981.669 9.976.613 9.891.453a.874.874 0 0 0-.213-.254C9.414.01 8.957-.05 8.614.057m9.696 5.004c.279.083.546.35.629.629.053.179.061.961.061 6.311 0 5.058-.009 6.138-.055 6.289a1.02 1.02 0 0 1-.461.582l-.184.108H5.7l-.184-.108a1.051 1.051 0 0 1-.458-.556c-.09-.256-.087-12.323.003-12.626.079-.269.351-.547.612-.627.29-.089 12.337-.091 12.637-.002M8.614 8.057a.814.814 0 0 0-.505.396l-.089.167v6.76l.1.178c.11.197.294.34.515.401.197.055 6.533.055 6.73 0a.842.842 0 0 0 .515-.401l.1-.178V8.62l-.089-.167c-.106-.197-.269-.322-.52-.398-.262-.078-6.505-.076-6.757.002M14 12v2h-4v-4h4v2" fill="#000" fill-rule="evenodd" stroke="none"/></svg>