<svg xmlns="http://www.w3.org/2000/svg" width="24" height="24" fill="none" stroke="currentColor" stroke-width="2" stroke-linecap="round" stroke-linejoin="round"><path d="M2.499 3.043C1.381 3.232.461 4.048.114 5.16l-.094.3v13.08l.094.3a3.086 3.086 0 0 0 2.046 2.046l.3.094h19.08l.3-.094a3.086 3.086 0 0 0 2.046-2.046l.094-.3V5.46l-.094-.3a3.089 3.089 0 0 0-2.025-2.039l-.321-.101-9.42-.006c-5.181-.003-9.511.01-9.621.029M21.31 5.061a.893.893 0 0 1 .387.242c.296.296.303.347.303 2.144V9H2V7.447c0-1.798.007-1.848.304-2.144a.93.93 0 0 1 .369-.24c.16-.049 1.487-.058 9.31-.06 8.056-.003 9.146.004 9.327.058m.69 9.493c0 3.856.005 3.768-.221 4.064-.061.08-.194.195-.295.254l-.184.108H2.7l-.184-.108a1.199 1.199 0 0 1-.291-.249C1.992 18.317 2 18.464 2 14.575V11h20v3.554" fill="#000" fill-rule="evenodd" stroke="none"/></svg>