<svg xmlns="http://www.w3.org/2000/svg" width="24" height="24" fill="none" stroke="currentColor" stroke-width="2" stroke-linecap="round" stroke-linejoin="round"><path d="M5.734.055c-.249.081-.397.204-.5.415-.093.189-.093.196-.122 2.385-.016 1.207-.04 2.206-.054 2.22-.013.014-1 .035-2.191.047-2.279.022-2.3.024-2.552.208a.948.948 0 0 0-.199.244c-.082.142-.095.22-.096.546 0 .316.015.408.088.545A.82.82 0 0 0 .6 7.08c.103.028.898.038 2.322.031L5.087 7.1l-.025 1.56c-.014.858-.029 2.991-.034 4.74l-.008 3.18.105.307a3.139 3.139 0 0 0 2.015 1.999l.28.094 4.79.011 4.79.011v2.109c0 1.289.016 2.165.041 2.254.107.385.396.597.855.626.485.031.803-.109.984-.433l.1-.178.012-2.19.011-2.19h2.109c1.289 0 2.164-.016 2.253-.041a.842.842 0 0 0 .515-.401c.087-.156.1-.226.099-.558-.001-.433-.081-.645-.301-.801-.27-.193-.352-.199-2.583-.199h-2.093l-.011-4.79-.011-4.79-.094-.28c-.33-.982-1.065-1.715-2.025-2.019l-.321-.101-1.78.006c-.979.003-3.103.018-4.72.033l-2.94.028.011-2.166C7.118 1.498 7.108.703 7.08.6a.793.793 0 0 0-.412-.486c-.207-.105-.699-.137-.934-.059m10.698 7.037c.073.04.203.145.29.235.293.301.278.031.278 5.121v4.553l-4.65-.01-4.65-.011-.184-.108a1.09 1.09 0 0 1-.464-.561c-.044-.13-.046-.907-.009-4.684.024-2.49.048-4.531.053-4.536.015-.015 7.094-.081 8.184-.076.902.004 1.035.013 1.152.077" fill-rule="evenodd" fill="#000" stroke="none"/></svg>