<svg xmlns="http://www.w3.org/2000/svg" width="24" height="24" fill="none" stroke="currentColor" stroke-width="2" stroke-linecap="round" stroke-linejoin="round"><path d="M10.499 1.042c-1.117.195-2.015.986-2.384 2.098-.092.278-.093.298-.106 2.568l-.013 2.288-2.268.013-2.268.013-.321.1a3.084 3.084 0 0 0-2.025 2.038c-.092.293-.094.336-.094 1.86v1.56l.105.307c.17.5.371.816.771 1.217.401.4.718.601 1.217.771l.307.104 2.288.013 2.288.012.012 2.288.013 2.288.104.307c.17.499.371.816.771 1.217.401.4.717.601 1.217.771l.307.105h1.56c1.524 0 1.567-.002 1.86-.094a3.108 3.108 0 0 0 2.035-1.999l.104-.307.013-2.288.012-2.288 2.288-.013c2.27-.013 2.29-.014 2.568-.106a3.113 3.113 0 0 0 2.026-2.045c.092-.293.094-.337.094-1.84 0-1.503-.002-1.547-.094-1.84a3.084 3.084 0 0 0-2.025-2.038l-.321-.1-2.268-.013-2.268-.013-.013-2.288c-.013-2.27-.014-2.29-.106-2.568-.325-.98-1.07-1.722-2.024-2.016-.313-.097-.357-.1-1.741-.109-.781-.005-1.511.007-1.621.027m2.811 2.019a.893.893 0 0 1 .387.242c.311.312.303.223.303 3.254 0 1.661.016 2.717.041 2.808a.842.842 0 0 0 .401.515l.178.1 2.82.02c3.16.022 2.968.004 3.277.321.261.27.283.399.283 1.68 0 1.206-.02 1.353-.221 1.617-.061.08-.194.195-.295.254l-.184.108-2.821.02-2.821.02-.199.102a.796.796 0 0 0-.418.513c-.025.091-.041 1.148-.041 2.809 0 2.89 0 2.883-.221 3.174-.061.08-.194.195-.295.254l-.184.108-1.213.012c-1.375.014-1.485-.003-1.756-.266-.329-.319-.309-.115-.331-3.286l-.02-2.82-.089-.167a.874.874 0 0 0-.213-.254C9.402 14.002 9.369 14 6.521 14c-2.976 0-2.901.006-3.191-.275-.303-.294-.308-.321-.322-1.637-.015-1.386.003-1.493.295-1.784.312-.312.222-.304 3.254-.304 1.661 0 2.717-.016 2.808-.041a.842.842 0 0 0 .515-.401l.1-.178.02-2.82c.022-3.161.004-2.968.322-3.277.266-.259.375-.277 1.661-.28.895-.002 1.164.009 1.327.058" fill-rule="evenodd" fill="#000" stroke="none"/></svg>