<svg xmlns="http://www.w3.org/2000/svg" width="24" height="24" fill="none" stroke="currentColor" stroke-width="2" stroke-linecap="round" stroke-linejoin="round"><path d="m11.28 1.023-.56.06c-1.888.2-3.729.94-5.36 2.152-.609.453-1.676 1.52-2.134 2.132C.728 8.714.301 13.032 2.097 16.78c.546 1.138 1.179 2.021 2.141 2.982.961.962 1.844 1.595 2.982 2.141 3.747 1.796 8.068 1.367 11.417-1.133.609-.454 1.679-1.524 2.133-2.133 2.974-3.985 2.974-9.289 0-13.274-.454-.608-1.523-1.677-2.13-2.128-1.595-1.186-3.275-1.875-5.217-2.139C13 1.038 11.574.99 11.28 1.023M11 4.65c0 .928.017 1.629.041 1.715.107.385.396.597.855.626.485.031.803-.109.984-.433l.1-.178.012-1.655.012-1.656.237.025c1.094.114 2.623.68 3.639 1.346a9.323 9.323 0 0 1 2.68 2.68c.667 1.017 1.232 2.545 1.346 3.641l.025.239h-1.559c-1.66 0-1.789.012-2.05.199-.222.158-.302.369-.302.801 0 .331.013.403.1.558.11.197.294.34.515.401.086.024.789.041 1.721.041h1.575l-.025.239c-.114 1.096-.679 2.624-1.346 3.641-.522.796-1.263 1.613-1.96 2.163-1.248.984-2.849 1.673-4.348 1.871l-.248.032-.012-1.663c-.012-1.641-.013-1.665-.103-1.833-.165-.31-.56-.48-1.015-.439-.435.04-.733.263-.833.624-.024.086-.041.791-.041 1.728v1.584l-.25-.033c-1.518-.2-3.141-.903-4.38-1.895a9.661 9.661 0 0 1-1.93-2.139c-.667-1.017-1.232-2.545-1.346-3.641L3.069 13h1.575c.932 0 1.635-.017 1.721-.041a.842.842 0 0 0 .515-.401c.087-.156.1-.226.099-.558-.001-.433-.081-.645-.301-.801-.261-.187-.39-.199-2.05-.199H3.069l.025-.239c.114-1.096.679-2.624 1.346-3.641a9.323 9.323 0 0 1 2.68-2.68c.824-.54 2.071-1.054 3-1.235l.5-.099c.044-.009.148-.019.23-.021L11 3.08v1.57" fill="#000" fill-rule="evenodd" stroke="none"/></svg>