<svg xmlns="http://www.w3.org/2000/svg" width="24" height="24" fill="none" stroke="currentColor" stroke-width="2" stroke-linecap="round" stroke-linejoin="round"><path d="M1.64 3.047c-.398.201-.642.558-.639.938.001.085.692 2.915 1.536 6.288 1.68 6.713 1.591 6.409 1.945 6.607l.178.1h14.68l.178-.1c.354-.198.265.106 1.945-6.607 1.208-4.826 1.535-6.188 1.536-6.389.002-.374-.116-.558-.464-.729-.373-.184-.66-.201-.954-.057-.203.099-.421.341-2.806 3.125-1.422 1.659-2.597 3.016-2.611 3.016-.013-.001-.777-1.322-1.697-2.935-1.091-1.913-1.724-2.983-1.82-3.077-.173-.168-.389-.267-.584-.267-.191 0-.533.134-.705.275-.106.088-.57.868-1.82 3.06-.923 1.618-1.689 2.943-1.702 2.944-.014 0-1.186-1.354-2.606-3.01C3.75 4.501 2.577 3.167 2.48 3.1a.858.858 0 0 0-.84-.053m11.978 5.799c1.695 2.972 1.698 2.976 2.082 3.136a.823.823 0 0 0 .694-.03c.153-.078.475-.431 1.811-1.988a189.56 189.56 0 0 1 1.707-1.973c.065-.065-.094.615-.806 3.464L18.22 15H5.78l-.885-3.54c-.487-1.947-.878-3.54-.87-3.54.008 0 .762.872 1.676 1.938 1.501 1.751 1.682 1.947 1.878 2.043.428.21.733.185 1.02-.084.155-.145.476-.68 1.785-2.975.878-1.54 1.605-2.799 1.616-2.799.011 0 .739 1.261 1.618 2.803M4.614 19.057a.814.814 0 0 0-.505.396c-.074.139-.089.231-.089.547 0 .331.013.403.1.558.11.197.294.34.515.401.2.056 14.53.056 14.73 0a.842.842 0 0 0 .515-.401c.087-.156.1-.226.099-.558-.001-.433-.081-.645-.301-.801-.291-.208.042-.199-7.694-.196-5.796.002-7.237.013-7.37.054" fill-rule="evenodd" fill="#000" stroke="none"/></svg>