<svg xmlns="http://www.w3.org/2000/svg" width="24" height="24" fill="none" stroke="currentColor" stroke-width="2" stroke-linecap="round" stroke-linejoin="round"><path d="M10.72 1.025c-2.683.132-5.115.651-6.644 1.416-1.106.554-1.81 1.274-2.015 2.061C2.007 4.708 2 5.609 2 11.963c0 4.616.014 7.304.04 7.442.022.118.114.367.206.553.132.268.237.41.51.684.691.693 1.63 1.17 3.173 1.613 1.133.325 2.281.524 3.891.672.75.07 3.61.07 4.36 0 1.61-.148 2.758-.347 3.891-.672 1.541-.442 2.473-.916 3.172-1.613.274-.273.377-.41.51-.682.092-.187.185-.437.207-.555.026-.138.04-2.826.04-7.442 0-8.02.02-7.422-.27-7.979-.277-.532-.976-1.129-1.806-1.543-1.327-.663-3.3-1.138-5.564-1.342-.666-.059-2.98-.107-3.64-.074m2.66 2.016c2.369.128 4.257.526 5.605 1.18.406.197.58.308.77.488.135.128.245.255.245.282 0 .072-.27.359-.465.492-.956.658-2.872 1.181-5.215 1.424-.939.097-3.701.097-4.64 0-2.306-.239-4.147-.733-5.14-1.378-.248-.16-.54-.452-.54-.538 0-.027.11-.154.245-.282.577-.549 2.164-1.124 3.875-1.404 1.622-.266 3.496-.36 5.26-.264M4.857 7.899c1.284.493 2.816.819 4.743 1.009.995.097 3.805.097 4.8 0 1.556-.153 2.648-.355 3.88-.716.481-.141 1.209-.414 1.513-.568L20 7.519v4.523l-.164.178c-.7.759-2.87 1.423-5.516 1.687-.994.099-3.646.099-4.64 0a19.286 19.286 0 0 1-2.611-.422c-1.473-.358-2.468-.791-2.905-1.265L4 12.042V7.519l.207.105c.114.057.406.181.65.275m-.369 6.858c1.37.587 3.075.962 5.332 1.17.75.07 3.61.07 4.36 0 2.257-.208 3.962-.583 5.332-1.17.252-.108.465-.197.473-.197.008 0 .015 1.008.015 2.241v2.241l-.164.178c-.7.759-2.87 1.423-5.516 1.687-.994.099-3.646.099-4.64 0a19.286 19.286 0 0 1-2.611-.422c-1.473-.358-2.468-.791-2.905-1.265L4 19.042v-2.241c0-1.233.007-2.241.015-2.241s.221.089.473.197" fill-rule="evenodd" fill="#000" stroke="none"/></svg>