<svg xmlns="http://www.w3.org/2000/svg" width="24" height="24" fill="none" stroke="currentColor" stroke-width="2" stroke-linecap="round" stroke-linejoin="round"><path d="M7.678 3.061c-.1.031-.248.116-.328.188-.27.242-7.242 8.249-7.296 8.38-.069.165-.069.577 0 .742.03.071 1.687 1.996 3.683 4.277 3.073 3.513 3.657 4.162 3.816 4.24l.187.092h13.8l.3-.094a3.086 3.086 0 0 0 2.046-2.046l.094-.3V5.46l-.094-.3a3.089 3.089 0 0 0-2.025-2.039l-.321-.101-6.84-.008c-5.795-.006-6.868.001-7.022.049m13.632 2c.279.083.546.35.629.629.053.179.061.961.061 6.311 0 5.058-.009 6.138-.055 6.289a1.02 1.02 0 0 1-.461.582l-.184.108-6.422.01-6.422.011-3.037-3.47C3.749 13.622 2.383 12.033 2.383 12c0-.033 1.366-1.622 3.036-3.53L8.455 5h6.325c5.546 0 6.351.007 6.53.061m-9.684 2.984c-.369.194-.675.628-.675.955 0 .333.105.467 1.402 1.77L13.577 12l-1.224 1.23c-1.297 1.303-1.402 1.437-1.402 1.77 0 .477.572 1.049 1.049 1.049.333 0 .467-.105 1.77-1.402L15 13.423l1.23 1.224c1.303 1.297 1.437 1.402 1.77 1.402.477 0 1.049-.572 1.049-1.049 0-.333-.105-.467-1.402-1.77L16.423 12l1.224-1.23c.805-.809 1.254-1.291 1.313-1.407.177-.352.088-.717-.259-1.064-.34-.341-.721-.431-1.073-.254-.105.053-.629.543-1.398 1.308L15 10.577l-1.23-1.224c-.769-.765-1.293-1.255-1.398-1.308a.877.877 0 0 0-.746 0" fill-rule="evenodd" fill="#000" stroke="none"/></svg>