<svg xmlns="http://www.w3.org/2000/svg" width="24" height="24" fill="none" stroke="currentColor" stroke-width="2" stroke-linecap="round" stroke-linejoin="round"><path d="M11.614.057a.814.814 0 0 0-.505.396c-.087.164-.089.197-.101 1.857L10.997 4h-.849c-.466 0-1.01.02-1.208.044a4.499 4.499 0 0 0-3.928 4.673c.098 1.994 1.441 3.623 3.425 4.154.356.095.46.103 1.473.119l1.09.018V18H8.406c-2.769 0-2.809.003-3.084.199-.222.158-.302.369-.302.801 0 .331.013.403.1.558.11.197.294.34.515.401.09.025 1.13.041 2.755.041H11v1.61c0 .955.017 1.669.041 1.755.107.385.396.597.855.626.485.031.803-.109.984-.433l.1-.178.012-1.686.012-1.686 1.088-.018c1.011-.016 1.115-.024 1.471-.119 1.984-.531 3.327-2.16 3.425-4.154a4.499 4.499 0 0 0-3.928-4.673A14.065 14.065 0 0 0 13.85 11H13V6h2.11c1.29 0 2.166-.016 2.255-.041a.842.842 0 0 0 .515-.401c.087-.156.1-.226.099-.558-.001-.433-.081-.645-.301-.801-.27-.193-.352-.199-2.582-.199h-2.092l-.012-1.69C12.98.651 12.978.617 12.891.453a.874.874 0 0 0-.213-.254c-.264-.189-.721-.249-1.064-.142M11 8.504v2.503l-1.01-.015c-.98-.015-1.019-.019-1.31-.124A2.53 2.53 0 0 1 7.277 9.62c-.367-.742-.364-1.502.008-2.258.23-.465.611-.847 1.077-1.077.491-.242.712-.278 1.748-.282L11 6v2.504m4.02 4.556a2.502 2.502 0 0 1 1.695 1.302c.372.756.375 1.516.008 2.258a2.53 2.53 0 0 1-1.403 1.248c-.291.105-.33.109-1.31.124l-1.01.015V13l.87.001c.607 0 .954.018 1.15.059" fill-rule="evenodd" fill="#000" stroke="none"/></svg>