<svg xmlns="http://www.w3.org/2000/svg" width="24" height="24" fill="none" stroke="currentColor" stroke-width="2" stroke-linecap="round" stroke-linejoin="round"><path d="M11.614 2.057a.814.814 0 0 0-.505.396l-.089.167-.011 4.978-.01 4.979-1.73-1.724C8.147 9.734 7.481 9.099 7.372 9.044c-.352-.176-.733-.085-1.073.255-.347.347-.436.711-.259 1.064.061.123.857.95 2.594 2.698 1.378 1.387 2.54 2.573 2.582 2.635.102.154.545.353.784.353s.682-.199.784-.353c.042-.062 1.204-1.248 2.582-2.635 1.737-1.748 2.533-2.575 2.594-2.698.177-.353.088-.717-.259-1.064-.34-.34-.721-.431-1.073-.255-.109.055-.775.69-1.897 1.809l-1.729 1.723-.011-4.978-.011-4.978-.089-.167a.874.874 0 0 0-.213-.254c-.264-.189-.721-.249-1.064-.142m-9 12a.814.814 0 0 0-.505.396l-.089.167v4.92l.094.3c.184.59.495 1.053.995 1.481.282.242.651.441 1.051.565l.3.094h15.08l.3-.094a3.086 3.086 0 0 0 2.046-2.046l.094-.3v-4.92l-.091-.17c-.165-.31-.56-.48-1.015-.439-.435.04-.733.263-.833.624-.025.089-.041.983-.041 2.309 0 2.348-.003 2.388-.221 2.674-.061.08-.194.195-.295.254l-.184.108H4.7l-.184-.108a1.146 1.146 0 0 1-.446-.499c-.037-.084-.055-.7-.07-2.433-.02-2.304-.021-2.321-.109-2.487a.874.874 0 0 0-.213-.254c-.264-.189-.721-.249-1.064-.142" fill-rule="evenodd" fill="#000" stroke="none"/></svg>