<svg xmlns="http://www.w3.org/2000/svg" width="24" height="24" fill="none" stroke="currentColor" stroke-width="2" stroke-linecap="round" stroke-linejoin="round"><path d="m11.28 1.023-.56.06c-1.888.2-3.729.94-5.36 2.152-.609.453-1.676 1.52-2.134 2.132C.728 8.714.301 13.032 2.097 16.78c.546 1.138 1.179 2.021 2.141 2.982.961.962 1.844 1.595 2.982 2.141 3.747 1.796 8.068 1.367 11.417-1.133.609-.454 1.679-1.524 2.133-2.133 2.974-3.985 2.974-9.289 0-13.274-.454-.608-1.523-1.677-2.13-2.128-1.595-1.186-3.275-1.875-5.217-2.139C13 1.038 11.574.99 11.28 1.023m2.04 2.078a8.7 8.7 0 0 1 2.62.819c.579.28 1.135.623 1.573.971l.253.201-.213.218c-.567.581-1.664 1.434-2.433 1.891-.56.334-1.734.919-1.842.919-.018 0-.109-.139-.203-.31-.511-.93-1.701-2.802-2.63-4.137-.271-.389-.313-.471-.255-.489.082-.024.868-.135 1.13-.159.356-.033 1.589.014 2 .076M8.668 4.63c1.222 1.751 2.716 4.119 2.645 4.191-.023.022-1.323.331-1.753.415-1.408.277-3.218.497-4.96.602l-1.031.064-.332.022.027-.112c.091-.391.421-1.275.654-1.752a9.07 9.07 0 0 1 3.125-3.571c.278-.185 1.026-.607 1.08-.608.012-.001.258.337.545.749m10.829 2.4c.852 1.279 1.334 2.701 1.48 4.363.02.227.015.25-.047.231a21.41 21.41 0 0 0-1.19-.222c-1.188-.184-2.906-.253-4.008-.16-.347.029-.701.054-.786.056l-.154.002-.267-.6c-.148-.33-.288-.636-.313-.679-.042-.074 0-.101.581-.383a15.44 15.44 0 0 0 3.667-2.44c.242-.215.493-.446.557-.514a.597.597 0 0 1 .143-.124c.013 0 .165.211.337.47m-6.973 4.1c.331.723.353.629-.193.828-2.372.864-4.691 2.659-6.68 5.17-.193.244-.392.49-.441.548l-.091.104-.141-.16c-.282-.319-.792-1.128-1.058-1.678-.559-1.156-.832-2.218-.904-3.526l-.027-.485.555-.027c2.43-.118 4.24-.304 5.916-.608a29.48 29.48 0 0 0 2.46-.571 2.53 2.53 0 0 1 .32-.082c.039-.001.139.17.284.487m5.736 2.112c.797.068 2.498.342 2.569.414.034.034-.12.648-.296 1.184a9.02 9.02 0 0 1-2.196 3.539c-.375.374-.973.879-1.003.848a26.4 26.4 0 0 1-.297-1.071 64.556 64.556 0 0 0-1.129-3.836c-.18-.539-.333-1.002-.34-1.028-.016-.06.213-.074 1.352-.084.473-.004 1.076.011 1.34.034m-4.28 1.61a63.794 63.794 0 0 1 1.24 4.281l.295 1.152-.178.076a8.981 8.981 0 0 1-.616.215 8.946 8.946 0 0 1-6.741-.534c-.56-.283-1.238-.7-1.341-.823-.035-.042.04-.162.34-.546.894-1.145 1.995-2.294 2.881-3.007.959-.772 2.241-1.509 3.24-1.862l.44-.156.052.098c.029.054.204.551.388 1.106" fill-rule="evenodd" fill="#000" stroke="none"/></svg>