<svg xmlns="http://www.w3.org/2000/svg" width="24" height="24" fill="none" stroke="currentColor" stroke-width="2" stroke-linecap="round" stroke-linejoin="round"><path d="M13.66 2.035a.68.68 0 0 0-.4.252c-.137.163-.151.202-.338.93a9.425 9.425 0 0 1-1.003 2.488c-.354.619-.399.727-.399.958 0 .241.086.416.306.618.364.335.808.445 1.131.281.225-.115.428-.371.743-.937.154-.276.289-.503.3-.503.011 0 .119.184.24.408a12.657 12.657 0 0 0 2.94 3.6c1.649 1.389 2.409 2.474 2.712 3.87.11.505.116 1.558.013 2.12a6.301 6.301 0 0 1-.528 1.566c-.744 1.486-1.919 2.507-3.486 3.03-.691.231-1.11.299-1.851.299-.741-.001-1.221-.075-1.883-.294-.851-.282-1.463-.639-2.186-1.277-.486-.429-.604-.495-.872-.495-.258 0-.455.094-.704.336-.332.323-.433.678-.291 1.018.08.192.494.624.936.976a8.083 8.083 0 0 0 4.274 1.719c1.409.142 2.852-.13 4.226-.797 1.61-.781 2.889-2.079 3.681-3.736a7.659 7.659 0 0 0 .767-3.665 6.536 6.536 0 0 0-.348-1.96c-.516-1.542-1.408-2.756-3.02-4.107-1.241-1.04-2.137-2.17-2.818-3.553a8.864 8.864 0 0 1-.728-1.98c-.186-.737-.272-.89-.594-1.048-.236-.116-.614-.17-.82-.117M6.814 4.32c-.45.094-.675.33-.812.85-.15.571-.246.838-.443 1.237-.377.759-.817 1.306-1.599 1.986-.705.612-1.142 1.156-1.474 1.832-.424.864-.579 1.869-.428 2.775.187 1.12.652 2.03 1.441 2.823.968.972 2.142 1.461 3.501 1.461 1.357 0 2.534-.491 3.501-1.461.922-.925 1.423-2.052 1.486-3.343.076-1.536-.562-2.856-2.002-4.142-.763-.682-1.128-1.133-1.5-1.857-.221-.428-.298-.64-.528-1.448-.092-.327-.244-.553-.437-.653-.146-.075-.494-.105-.706-.06m.326 3.83c.333.528.814 1.054 1.668 1.825.582.524.918 1.017 1.097 1.607.086.284.099 1.096.022 1.378a3.348 3.348 0 0 1-1.405 1.915c-.849.549-2.195.549-3.044 0-.544-.351-1.026-.92-1.25-1.475-.175-.433-.205-.596-.203-1.12.002-.426.017-.546.105-.811.208-.633.458-.946 1.563-1.965.488-.449.851-.866 1.128-1.296.087-.136.168-.247.179-.248.011 0 .074.086.14.19" fill-rule="evenodd" fill="#000" stroke="none"/></svg>