<svg xmlns="http://www.w3.org/2000/svg" width="24" height="24" fill="none" stroke="currentColor" stroke-width="2" stroke-linecap="round" stroke-linejoin="round"><path d="M11.72 2.037a1.008 1.008 0 0 0-.611.503 2.64 2.64 0 0 0-.126.42 9.667 9.667 0 0 1-.881 2.388C9.404 6.698 8.545 7.75 7.28 8.802 6.077 9.803 5.301 10.751 4.742 11.9c-.481.988-.686 1.788-.73 2.842-.075 1.814.521 3.664 1.662 5.158.259.339.932 1.025 1.286 1.311A8.1 8.1 0 0 0 12 23a8.1 8.1 0 0 0 5.04-1.789c.354-.286 1.027-.972 1.286-1.311 1.141-1.494 1.737-3.344 1.662-5.158a6.718 6.718 0 0 0-.768-2.922c-.575-1.133-1.329-2.043-2.5-3.018-1.265-1.052-2.125-2.105-2.822-3.454A9.55 9.55 0 0 1 13 2.894c-.153-.66-.4-.898-.923-.891a1.885 1.885 0 0 0-.357.034m.32 4.08c0 .074.535.991.841 1.441a12.562 12.562 0 0 0 2.399 2.643c.708.593 1.082.959 1.455 1.424.947 1.181 1.352 2.438 1.232 3.823-.055.631-.129 1.004-.296 1.492-.683 2.004-2.38 3.488-4.511 3.945-.35.075-.543.09-1.16.09-.617 0-.81-.015-1.16-.09-2.134-.458-3.827-1.938-4.511-3.945-.167-.488-.241-.861-.296-1.492-.12-1.385.285-2.642 1.232-3.823.373-.465.747-.831 1.455-1.424.621-.519 1.297-1.2 1.746-1.756.435-.54 1.056-1.473 1.314-1.975.18-.35.26-.459.26-.353" fill-rule="evenodd" fill="#000" stroke="none"/></svg>