<svg xmlns="http://www.w3.org/2000/svg" width="24" height="24" fill="none" stroke="currentColor" stroke-width="2" stroke-linecap="round" stroke-linejoin="round"><path d="M16.16 1.305c-2.18.198-4.257 1.202-5.928 2.866-.856.852-1.465 1.694-1.97 2.724-.855 1.746-1.138 3.539-.804 5.105l.056.26-.727.728-.727.729-.28-.085c-.372-.112-1.298-.122-1.715-.019a3.49 3.49 0 0 0-1.644.936c-.601.6-.93 1.298-1.017 2.157-.146 1.442.632 2.812 1.964 3.456.326.157.328.159.455.433.449.969 1.286 1.66 2.36 1.949.42.113 1.288.104 1.717-.017a3.531 3.531 0 0 0 2.583-3.017c.051-.419.027-.749-.089-1.226l-.082-.336.714-.712.714-.713.179.041c1.014.231 2.205.2 3.361-.088.563-.14.801-.247.991-.445.224-.234.262-.518.127-.95-.196-.625-.181-1.218.047-1.901.427-1.281 1.595-2.42 2.886-2.815a3.02 3.02 0 0 1 1.838 0c.465.142.807.058 1.032-.253.295-.407.56-1.713.558-2.751-.005-3.122-1.967-5.499-4.939-5.982-.369-.06-1.338-.104-1.66-.074m1.14 2.019c2.196.269 3.551 1.95 3.448 4.276a4.87 4.87 0 0 1-.045.56c-.019.048-.12.061-.513.067-1.076.014-2.192.394-3.19 1.084-.495.342-1.341 1.19-1.665 1.669-.69 1.019-1.039 2.037-1.078 3.14l-.019.54-.269.033c-.363.045-1.203.008-1.555-.068-.806-.175-1.415-.497-1.939-1.026-1.058-1.07-1.392-2.625-.949-4.419.248-1.004.848-2.142 1.605-3.045 1.629-1.94 4.096-3.065 6.169-2.811M8.828 14.771c.206.233.548.551.812.757l.138.108-.763.772c-.454.459-.801.845-.857.952-.152.294-.127.515.106.964l.196.376v.44c0 .404-.009.457-.111.651-.443.841-1.436 1.101-2.199.576-.334-.23-.501-.497-.627-1.005-.143-.574-.302-.727-.912-.877a3.002 3.002 0 0 1-.44-.139c-.216-.113-.479-.384-.612-.633-.119-.222-.137-.297-.151-.613-.013-.296 0-.4.07-.586.241-.64.88-1.041 1.562-.981.203.019.338.064.618.209.234.121.428.193.56.206.352.037.503-.066 1.382-.935l.78-.772.12.148c.066.082.213.254.328.382" fill-rule="evenodd" fill="#000" stroke="none"/></svg>