<svg xmlns="http://www.w3.org/2000/svg" width="24" height="24" fill="none" stroke="currentColor" stroke-width="2" stroke-linecap="round" stroke-linejoin="round"><path d="M17.45 1.922a3.049 3.049 0 0 0-1.39.641c-.132.105-3.096 3.05-6.586 6.544-5.936 5.944-6.349 6.366-6.408 6.553C2.928 16.098 2 19.888 2 20.013c0 .192.098.491.218.664.15.217.377.331.655.33.26 0 4.318-.999 4.587-1.128.224-.108 12.947-12.846 13.16-13.176.362-.56.525-1.18.487-1.861a3.982 3.982 0 0 0-.088-.662c-.278-1.024-1.178-1.924-2.199-2.199-.289-.077-1.078-.112-1.37-.059m1.044 2.079c.222.111.388.279.513.519.132.255.132.704-.001.964-.069.135-1.78 1.869-6.32 6.405L6.46 18.11l-1.011.25c-.557.138-1.023.24-1.036.227-.013-.013.089-.479.227-1.036l.25-1.011 6.185-6.193c3.402-3.407 6.251-6.236 6.331-6.288.08-.052.206-.113.28-.135.208-.064.6-.027.808.077m-6.88 15.056a.814.814 0 0 0-.505.396c-.074.139-.089.231-.089.547 0 .331.013.403.1.558.11.197.294.34.515.401.199.055 9.531.055 9.73 0a.842.842 0 0 0 .515-.401c.087-.156.1-.226.099-.558-.001-.433-.081-.645-.301-.801-.286-.204-.152-.199-5.194-.196-3.744.002-4.738.013-4.87.054" fill-rule="evenodd" fill="#000" stroke="none"/></svg>