<svg xmlns="http://www.w3.org/2000/svg" width="24" height="24" fill="none" stroke="currentColor" stroke-width="2" stroke-linecap="round" stroke-linejoin="round"><path d="M19.45.922a3.049 3.049 0 0 0-1.39.641c-.132.105-2.42 2.375-5.086 5.044-4.519 4.527-4.849 4.866-4.908 5.053C7.928 12.097 7 15.887 7 16.013c0 .192.098.491.218.664.15.217.377.331.655.33.26 0 4.318-.999 4.587-1.128.223-.107 9.947-9.847 10.16-10.176.362-.56.525-1.18.487-1.861a3.982 3.982 0 0 0-.088-.662c-.278-1.024-1.178-1.924-2.199-2.199-.289-.077-1.078-.112-1.37-.059m1.044 2.079c.222.111.388.279.513.519.132.255.132.704-.001.964-.069.134-1.392 1.481-4.82 4.906l-4.726 4.72-1.011.25c-.557.138-1.023.24-1.036.227-.013-.013.089-.479.227-1.036l.25-1.011 4.685-4.693c2.577-2.582 4.751-4.736 4.831-4.788.08-.052.206-.113.28-.135.208-.064.6-.027.808.077m-16.995.042C2.383 3.23 1.461 4.048 1.114 5.16l-.094.3v15.08l.094.3a3.086 3.086 0 0 0 2.046 2.046l.3.094h15.08l.3-.094a3.086 3.086 0 0 0 2.046-2.046l.094-.3v-7.92l-.091-.17c-.165-.31-.56-.48-1.015-.439-.435.04-.733.263-.833.624-.026.092-.041 1.478-.041 3.809 0 3.976.005 3.877-.221 4.174-.061.08-.194.195-.295.254l-.184.108H3.7l-.184-.108a1.199 1.199 0 0 1-.291-.249c-.239-.314-.225.172-.225-7.601 0-8.016-.025-7.391.303-7.719C3.621 4.985 3.411 5 7.557 5c2.331 0 3.716-.015 3.808-.041a.842.842 0 0 0 .515-.401c.087-.156.1-.226.099-.558-.001-.433-.081-.645-.301-.801-.283-.202-.225-.199-4.234-.194-2.059.002-3.835.02-3.945.038" fill-rule="evenodd" fill="#000" stroke="none"/></svg>