<svg xmlns="http://www.w3.org/2000/svg" width="24" height="24" fill="none" stroke="currentColor" stroke-width="2" stroke-linecap="round" stroke-linejoin="round"><path d="M18.611 1.204a3.846 3.846 0 0 0-1.747.623c-.428.279-14.148 13.991-14.259 14.251-.094.22-1.556 5.564-1.59 5.814-.051.37.179.861.484 1.033.296.168.393.148 3.485-.698 1.564-.429 2.914-.816 3-.86.095-.05 2.846-2.775 7.08-7.014 7.235-7.245 7.117-7.121 7.416-7.761.347-.741.436-1.732.227-2.532-.482-1.843-2.189-3.033-4.096-2.856m1.013 2.082c1.007.37 1.472 1.525 1.013 2.514-.113.244-.53.669-6.893 7.035l-6.773 6.774-1.75.478c-.962.263-1.757.47-1.766.461-.009-.009.199-.806.462-1.771l.479-1.753 6.772-6.77c6.493-6.491 6.783-6.776 7.046-6.898a1.91 1.91 0 0 1 1.41-.07" fill-rule="evenodd" fill="#000" stroke="none"/></svg>