<svg xmlns="http://www.w3.org/2000/svg" width="24" height="24" fill="none" stroke="currentColor" stroke-width="2" stroke-linecap="round" stroke-linejoin="round"><path d="M11.6 1.025c-1.443.183-2.709.873-4.021 2.191-1.955 1.966-3.48 4.975-3.962 7.817-.213 1.256-.218 2.818-.014 4.205.335 2.281 1.213 4.181 2.547 5.506 1.19 1.183 2.624 1.874 4.49 2.163.642.099 2.078.099 2.72 0 2.847-.441 4.862-1.913 6.085-4.447.811-1.679 1.2-3.835 1.082-6.003-.087-1.611-.404-2.964-1.071-4.564-1.506-3.618-4.132-6.327-6.583-6.792-.346-.066-1.031-.106-1.273-.076m1.143 2.099c.723.223 1.44.7 2.219 1.476 1.23 1.224 2.209 2.816 2.902 4.718.533 1.461.72 2.724.652 4.408-.063 1.572-.363 2.846-.942 4.005-.875 1.75-2.282 2.798-4.237 3.155-.395.072-.625.088-1.337.088-1.008 0-1.511-.074-2.29-.334-2.248-.752-3.664-2.684-4.114-5.613-.151-.987-.167-2.524-.035-3.447.293-2.058 1.331-4.406 2.721-6.16 1.002-1.264 2.298-2.197 3.309-2.381.285-.052.84-.012 1.152.085" fill-rule="evenodd" fill="#000" stroke="none"/></svg>