<svg xmlns="http://www.w3.org/2000/svg" width="24" height="24" fill="none" stroke="currentColor" stroke-width="2" stroke-linecap="round" stroke-linejoin="round"><path d="M18.62 4.046c-.096.05-.941.862-2.101 2.018L14.578 8H9.695c-5.233 0-5.087-.005-5.373.199-.222.158-.302.369-.302.801 0 .331.013.403.1.558.11.197.294.34.515.401.093.026 1.556.041 4.045.041h3.9l-2 2-2 2H6.697c-2.008 0-2.108.008-2.375.199-.222.158-.302.369-.302.801 0 .331.013.403.1.558.11.197.294.34.515.401.08.022.549.041 1.044.041h.898l-1.224 1.23c-.805.809-1.254 1.291-1.313 1.407-.177.352-.088.717.259 1.064.347.347.712.436 1.064.259.121-.061.785-.695 2.118-2.024L9.422 16h4.899c3.158 0 4.95-.015 5.044-.041a.842.842 0 0 0 .515-.401c.087-.156.1-.226.099-.558-.001-.433-.081-.645-.301-.801-.283-.202-.217-.199-4.374-.199H11.42l2-2 2-2h1.9c1.149 0 1.957-.016 2.045-.041a.842.842 0 0 0 .515-.401c.087-.156.1-.226.099-.558-.001-.433-.081-.645-.301-.801-.239-.171-.435-.199-1.373-.199h-.882l1.224-1.23c.805-.809 1.254-1.291 1.313-1.407.177-.352.088-.717-.259-1.064-.34-.34-.734-.432-1.081-.253" fill="#000" fill-rule="evenodd" stroke="none"/></svg>