<svg xmlns="http://www.w3.org/2000/svg" width="24" height="24" fill="none" stroke="currentColor" stroke-width="2" stroke-linecap="round" stroke-linejoin="round"><path d="M13.06 3.042c-3.312.325-6.17 2.454-7.405 5.518l-.169.42-.914.02c-.883.019-.921.024-1.113.122-.34.175-.481.484-.45.982.029.459.241.748.626.855.08.022.424.041.765.041h.62v2h-.604c-.84 0-1.116.096-1.307.453-.074.139-.089.231-.089.547 0 .331.013.403.1.558.11.197.294.34.515.401.08.022.532.041 1.005.041h.86l.096.25c.532 1.395 1.482 2.74 2.597 3.674 2.613 2.191 6.107 2.683 9.167 1.292 1.074-.488 2.377-1.405 2.593-1.825.186-.362.091-.751-.271-1.113-.237-.237-.408-.318-.668-.318-.238 0-.437.097-.794.385-1.844 1.489-4.074 1.999-6.172 1.412a6.9 6.9 0 0 1-2.188-1.063c-.405-.295-1.132-1.018-1.441-1.434-.223-.301-.739-1.158-.739-1.228 0-.018 1.247-.032 2.77-.032 1.732 0 2.824-.016 2.915-.041a.842.842 0 0 0 .515-.401c.087-.156.1-.226.099-.558-.001-.433-.081-.645-.301-.801-.279-.199-.28-.199-3.542-.199H7.085l-.031-.19c-.039-.24-.04-1.553-.001-1.7l.029-.11h4.569c2.937 0 4.621-.015 4.714-.041a.842.842 0 0 0 .515-.401c.087-.156.1-.226.099-.558-.001-.433-.081-.645-.301-.801C16.393 8.996 16.491 9 11.91 9H7.633l.167-.31a7.12 7.12 0 0 1 2.428-2.623c1.726-1.105 3.957-1.357 5.869-.664.728.264 1.378.642 2.067 1.204.426.347.608.44.86.44.228 0 .436-.105.669-.336.327-.327.433-.708.291-1.048-.122-.291-.894-.939-1.701-1.427-1.521-.92-3.47-1.365-5.223-1.194" fill-rule="evenodd" fill="#000" stroke="none"/></svg>