<svg xmlns="http://www.w3.org/2000/svg" width="24" height="24" fill="none" stroke="currentColor" stroke-width="2" stroke-linecap="round" stroke-linejoin="round"><path d="M2.541 2.083a1.888 1.888 0 0 0-.285.16c-.104.085-.296.536-.293.686.002.072.015 1.283.03 2.691l.027 2.56.1.178c.167.298.452.442.88.442s.713-.144.88-.442l.1-.178.012-1.377.013-1.377 2.227 2.223C7.777 9.19 8.514 9.899 8.637 9.96c.353.177.717.088 1.064-.259.347-.347.436-.711.259-1.064-.061-.123-.771-.861-2.313-2.407L5.422 4h1.299c.747 0 1.361-.018 1.444-.041a.842.842 0 0 0 .515-.401c.087-.156.1-.226.099-.558-.001-.315-.016-.409-.091-.55-.104-.198-.314-.348-.568-.407-.112-.026-1.155-.046-2.772-.052L2.757 1.98l-.216.103m15.778-.084-2.461.021-.199.102c-.34.175-.481.484-.45.982.029.459.241.748.626.855.083.023.697.041 1.444.041h1.299l-2.225 2.23c-1.542 1.546-2.252 2.284-2.313 2.407-.177.353-.088.717.259 1.064.347.347.711.436 1.064.259.123-.061.861-.771 2.407-2.313L20 5.422v1.299c0 .747.018 1.361.041 1.444.107.385.396.597.855.626.485.031.803-.109.984-.433l.1-.178.027-2.56.03-2.691c.004-.186-.203-.619-.341-.717-.229-.16-.498-.252-.711-.243-.113.005-1.313.019-2.666.03M8.62 14.046c-.097.05-1.041.962-2.388 2.305l-2.227 2.223-.013-1.377c-.012-1.335-.015-1.382-.101-1.544-.106-.197-.269-.322-.52-.398-.509-.153-1.06.021-1.262.398-.088.166-.089.182-.116 2.727l-.03 2.689c-.004.139.159.541.269.666.099.112.544.305.697.302.072-.002 1.283-.015 2.691-.03 2.515-.027 2.563-.029 2.72-.113.335-.179.438-.39.438-.894 0-.433-.079-.644-.3-.801-.255-.182-.409-.199-1.774-.199H5.422l2.225-2.23c1.542-1.546 2.252-2.284 2.313-2.407.177-.353.088-.717-.259-1.064-.34-.34-.734-.432-1.081-.253m6.006-.001c-.206.109-.48.388-.588.599a.792.792 0 0 0 .002.719c.061.123.771.861 2.313 2.407L18.578 20h-1.282c-1.365 0-1.519.017-1.774.199-.183.13-.292.374-.313.701-.031.481.11.799.433.98l.178.1 2.56.027c1.408.015 2.619.028 2.691.03.153.003.598-.19.697-.302.11-.125.273-.527.269-.666l-.03-2.689c-.027-2.56-.027-2.56-.118-2.73-.165-.31-.56-.48-1.015-.439-.435.04-.733.263-.833.624-.023.083-.041.697-.041 1.444v1.299l-2.23-2.225c-1.475-1.472-2.287-2.253-2.398-2.309a.884.884 0 0 0-.746.001" fill-rule="evenodd" fill="#000" stroke="none"/></svg>