<svg xmlns="http://www.w3.org/2000/svg" width="24" height="24" fill="none" stroke="currentColor" stroke-width="2" stroke-linecap="round" stroke-linejoin="round"><path d="m17.719 1.999-3.061.021-.199.102c-.34.175-.481.484-.45.982.029.459.241.748.626.855.088.025.895.041 2.045.041h1.899l-4.725 4.73c-3.384 3.386-4.751 4.78-4.815 4.907-.176.353-.087.718.26 1.064.346.347.711.436 1.064.26.127-.064 1.521-1.431 4.907-4.815L20 5.421V7.32c0 1.15.016 1.957.041 2.045.107.385.396.597.855.626.485.031.803-.109.984-.433l.1-.178.027-3.16c.015-1.738.028-3.219.03-3.291.004-.189-.202-.619-.347-.722-.224-.159-.485-.248-.703-.238-.114.005-1.585.019-3.268.03M4.499 5.043C3.383 5.23 2.461 6.048 2.114 7.16l-.094.3v12.08l.094.3a3.086 3.086 0 0 0 2.046 2.046l.3.094h12.08l.3-.094a3.086 3.086 0 0 0 2.046-2.046l.094-.3v-6.92l-.091-.17c-.165-.31-.56-.48-1.015-.439-.435.04-.733.263-.833.624-.026.092-.041 1.313-.041 3.309 0 3.432.003 3.38-.221 3.674-.061.08-.194.195-.295.254l-.184.108H4.7l-.184-.108a1.199 1.199 0 0 1-.291-.249c-.238-.312-.225.032-.225-6.101 0-6.34-.022-5.894.303-6.219C4.618 6.988 4.468 7 8.057 7c1.996 0 3.216-.015 3.308-.041a.842.842 0 0 0 .515-.401c.087-.156.1-.226.099-.558-.001-.433-.081-.645-.301-.801-.281-.2-.263-.199-3.734-.194-1.784.002-3.335.02-3.445.038" fill-rule="evenodd" fill="#000" stroke="none"/></svg>