<svg xmlns="http://www.w3.org/2000/svg" width="24" height="24" fill="none" stroke="currentColor" stroke-width="2" stroke-linecap="round" stroke-linejoin="round"><path d="M.508.123C.328.242.14.447.046.627c-.07.133-.058.634.018.785.036.07 1.063 1.128 2.283 2.351l2.218 2.223-.534.481C2.679 7.684 1.336 9.383.344 11.128c-.482.849-.473.973.159 2.03.556.93 1.23 1.877 1.983 2.782.418.504 1.659 1.751 2.134 2.145 1.879 1.561 3.786 2.467 5.9 2.805.706.113 2.049.119 2.78.013a11.34 11.34 0 0 0 4.18-1.456l.34-.203 2.32 2.314c1.276 1.272 2.378 2.342 2.448 2.378.083.041.232.064.423.064.263 0 .316-.014.481-.123.18-.119.368-.324.462-.504.025-.048.046-.221.046-.384 0-.261-.014-.316-.118-.472C23.72 22.275 1.572.144 1.412.064 1.329.023 1.179 0 .989 0 .726 0 .673.014.508.123m10.792 2.9c-.938.094-1.71.239-1.969.371-.422.216-.548.668-.35 1.252.083.241.304.496.483.555.175.058.498.057.76-.002a8.226 8.226 0 0 1 3.449-.014c2.726.555 5.452 2.67 7.6 5.896.663.995.625.842.331 1.328a19.798 19.798 0 0 1-1.317 1.871c-.379.47-.494.687-.494.937 0 .241.093.433.315.649.382.371.776.464 1.139.266.394-.214 1.504-1.704 2.336-3.135.561-.964.558-1.071-.057-2.11a19.731 19.731 0 0 0-3.104-3.989c-1.28-1.279-2.323-2.047-3.742-2.753-1.161-.578-2.247-.914-3.44-1.064-.361-.046-1.671-.084-1.94-.058m-2.893 7.145c-.17.296-.391.981-.45 1.389-.055.381-.031.92.059 1.343a3.99 3.99 0 0 0 3.084 3.084c.895.19 1.79.072 2.638-.35l.318-.158 1.159 1.159 1.158 1.158-.439.22c-1.344.674-2.583.968-4.054.962-.844-.003-1.343-.069-2.06-.274-2.636-.751-5.154-2.82-7.17-5.891-.575-.876-.547-.736-.247-1.229A17.448 17.448 0 0 1 5.442 7.89l.537-.491 1.276 1.276 1.276 1.276-.124.217m2.891 2.55c.681.682 1.23 1.246 1.22 1.255a1.32 1.32 0 0 1-.206.061c-.791.194-1.737-.258-2.144-1.024-.171-.322-.263-.754-.228-1.07.035-.316.064-.46.095-.46.014 0 .583.557 1.263 1.238" fill-rule="evenodd" fill="#000" stroke="none"/></svg>