<svg xmlns="http://www.w3.org/2000/svg" width="24" height="24" fill="none" stroke="currentColor" stroke-width="2" stroke-linecap="round" stroke-linejoin="round"><path d="M11.14 3.041c-2.247.2-4.371 1.124-6.42 2.792-.538.437-1.79 1.692-2.283 2.287a22.13 22.13 0 0 0-1.963 2.767c-.621 1.051-.621 1.175 0 2.226a22.791 22.791 0 0 0 2.012 2.827c.418.504 1.659 1.751 2.134 2.145 2.328 1.934 4.811 2.914 7.38 2.914 2.473 0 4.87-.911 7.125-2.708.6-.479 1.886-1.743 2.39-2.351a22.894 22.894 0 0 0 2.011-2.827c.621-1.051.621-1.175 0-2.226a19.731 19.731 0 0 0-3.104-3.989c-1.28-1.279-2.323-2.047-3.742-2.753-1.155-.575-2.26-.917-3.44-1.064-.483-.06-1.628-.082-2.1-.04m1.603 2.001c2.769.27 5.404 1.942 7.723 4.903.317.405 1.203 1.7 1.331 1.946.07.135.076.122-.447.919-1.864 2.839-4.244 4.895-6.61 5.71-.889.306-1.552.432-2.46.467-1.023.039-1.852-.084-2.898-.431-2.441-.808-4.828-2.846-6.732-5.746-.523-.796-.517-.785-.447-.918.13-.247.87-1.34 1.199-1.772 2.748-3.606 6.045-5.398 9.341-5.078m-1.385 3.019c-1.128.176-2.215.913-2.789 1.892a3.992 3.992 0 0 0 1.943 5.751 3.988 3.988 0 0 0 5.192-2.216 3.963 3.963 0 0 0 .001-2.972 3.978 3.978 0 0 0-3.1-2.458 3.728 3.728 0 0 0-1.247.003m1.165 2.012a2.011 2.011 0 0 1 1.444 1.617c.1.653-.094 1.243-.564 1.714-.401.403-.856.596-1.403.596-.515 0-.962-.178-1.347-.535-1.33-1.236-.464-3.46 1.347-3.46.143 0 .378.031.523.068" fill-rule="evenodd" fill="#000" stroke="none"/></svg>