<svg xmlns="http://www.w3.org/2000/svg" width="24" height="24" fill="none" stroke="currentColor" stroke-width="2" stroke-linecap="round" stroke-linejoin="round"><path d="M14.38 1.043c-2.588.255-4.689 2.163-5.263 4.777-.078.357-.089.55-.106 1.788l-.019 1.388-1.167.012c-1.163.012-1.168.012-1.366.114a.796.796 0 0 0-.418.513c-.055.196-.055 4.534 0 4.73a.842.842 0 0 0 .401.515c.177.1.184.1 1.368.112l1.19.012v3.608c0 2.294.015 3.661.041 3.753a.842.842 0 0 0 .401.515l.178.1 2.291.011c1.481.008 2.345-.003 2.444-.03a.841.841 0 0 0 .525-.403l.1-.178.011-3.688.011-3.688 1.169-.012c1.162-.012 1.17-.013 1.347-.112.328-.184.354-.254.944-2.606.596-2.373.618-2.511.438-2.818-.079-.135-.158-.2-.369-.304l-.269-.132-1.631-.012L15 8.997V7h1.61c.955 0 1.669-.017 1.755-.041a.842.842 0 0 0 .515-.401l.1-.178V1.62l-.089-.167a.874.874 0 0 0-.213-.254c-.266-.19-.374-.199-2.234-.194-.959.003-1.888.02-2.064.038M17 4v1l-1.13.002c-1.275.003-1.479.033-1.887.279-.28.168-.629.535-.764.802C13.01 6.495 13 6.6 13 8.478c0 1.044.017 1.8.041 1.887a.842.842 0 0 0 .401.515l.178.1 1.554.012c1.191.009 1.549.023 1.536.06-.01.026-.123.475-.253.996l-.234.948-1.283.012-1.282.012-.199.102a.796.796 0 0 0-.418.513c-.026.092-.041 1.46-.041 3.755V21h-1.998l-.011-3.69-.011-3.69-.089-.167a.874.874 0 0 0-.213-.254c-.248-.177-.422-.199-1.584-.199H8v-2h1.11c.62 0 1.174-.018 1.255-.041a.842.842 0 0 0 .515-.401l.1-.178.024-1.98c.02-1.621.036-2.03.089-2.255.274-1.164 1.037-2.154 2.067-2.681.768-.393 1.129-.455 2.69-.46L17 3v1" fill-rule="evenodd" fill="#000" stroke="none"/></svg>