<svg xmlns="http://www.w3.org/2000/svg" width="24" height="24" fill="none" stroke="currentColor" stroke-width="2" stroke-linecap="round" stroke-linejoin="round"><path d="M1.536 4.09c-.23.155-.437.415-.494.621-.057.203-.058 14.45-.001 14.654a.842.842 0 0 0 .401.515c.151.085.23.1.518.1.279 0 .367-.016.49-.088.082-.049 2.211-1.693 4.731-3.653 2.961-2.303 4.624-3.622 4.701-3.727l.118-.164v3.436c0 2.178.015 3.489.041 3.581a.842.842 0 0 0 .401.515c.151.085.23.1.518.1.299 0 .362-.013.52-.109.099-.059 2.232-1.706 4.74-3.66 4.997-3.892 4.82-3.739 4.82-4.156 0-.25-.103-.5-.293-.708-.173-.189-9.115-7.134-9.367-7.274-.294-.164-.584-.158-.844.017-.23.155-.437.415-.494.621-.027.097-.042 1.345-.043 3.589-.001 3.161-.006 3.43-.064 3.312-.035-.07-.12-.19-.189-.266-.172-.189-9.116-7.134-9.366-7.273-.294-.164-.584-.158-.844.017m4.677 5.45c1.728 1.342 3.143 2.449 3.143 2.46.001.011-1.429 1.131-3.178 2.489L3 16.958v-4.942c0-2.851.015-4.937.035-4.929A340.8 340.8 0 0 1 6.213 9.54m11 0c1.728 1.342 3.143 2.449 3.143 2.46.001.011-1.429 1.131-3.178 2.489L14 16.958v-4.942c0-2.851.015-4.937.035-4.929a340.8 340.8 0 0 1 3.178 2.453" fill="#000" fill-rule="evenodd" stroke="none"/></svg>