<svg xmlns="http://www.w3.org/2000/svg" width="24" height="24" fill="none" stroke="currentColor" stroke-width="2" stroke-linecap="round" stroke-linejoin="round"><path d="M15.2 1.044a7.033 7.033 0 0 0-3.42 1.369c-.2.149-1.687 1.602-3.954 3.863-2.925 2.917-3.653 3.663-3.73 3.824l-.095.2L4 14.439v4.139l-1.435 1.441c-.962.965-1.465 1.5-1.525 1.618-.177.352-.088.717.259 1.064.347.347.712.436 1.064.259.118-.06.653-.563 1.618-1.525L5.422 20l4.139-.001c4.067-.001 4.142-.002 4.319-.082.135-.06.676-.571 2.18-2.06l2.15-2.129c1.056-1.045 3.149-3.221 3.337-3.469 1.671-2.207 1.913-5.106.628-7.538-.938-1.776-2.669-3.103-4.615-3.541a7.385 7.385 0 0 0-2.36-.136m1.646 2.034a4.868 4.868 0 0 1 2.59 1.301c1.244 1.187 1.772 2.84 1.461 4.572a5.434 5.434 0 0 1-.426 1.269c-.315.631-.524.878-1.986 2.35L17.064 14H11.421l2.726-2.73c1.911-1.914 2.751-2.783 2.814-2.907.176-.353.087-.717-.26-1.064-.34-.34-.721-.431-1.073-.255-.137.069-3.405 3.281-7.376 7.248L7.083 15.48 6 16.58v-5.683l3.39-3.382c3.056-3.049 3.43-3.408 3.791-3.647 1.134-.748 2.366-1.014 3.665-.79M14.859 16.21c-.109.115-.549.566-.978 1l-.78.79h-5.68l.999-1 .999-1h5.638l-.198.21" fill-rule="evenodd" fill="#000" stroke="none"/></svg>