<svg xmlns="http://www.w3.org/2000/svg" width="24" height="24" fill="none" stroke="currentColor" stroke-width="2" stroke-linecap="round" stroke-linejoin="round"><path d="M7.9 1.045c-1.426.178-2.776 1.147-3.436 2.466-.398.794-.554 1.845-.402 2.714A4.467 4.467 0 0 0 5.324 8.67l.331.33-.331.33a4.467 4.467 0 0 0-1.262 2.445 4.434 4.434 0 0 0 .179 2.154 4.34 4.34 0 0 0 1.083 1.741l.331.33-.331.33a4.476 4.476 0 0 0-.647 5.534c.61.991 1.565 1.686 2.76 2.007.341.092.458.103 1.063.103s.722-.011 1.063-.103c1.687-.454 2.849-1.615 3.309-3.308l.105-.383.014-1.966.014-1.966.267.157c.33.193.781.369 1.24.485.291.074.455.088 1.008.086.578-.002.708-.015 1.043-.105 1.193-.32 2.15-1.016 2.76-2.007a4.476 4.476 0 0 0-.647-5.534L18.345 9l.331-.33a4.34 4.34 0 0 0 1.083-1.741 4.4 4.4 0 0 0 0-2.858 4.5 4.5 0 0 0-3.699-3.027c-.436-.053-7.732-.052-8.16.001M11 5.503v2.502l-1.51-.013-1.51-.013-.3-.11A2.536 2.536 0 0 1 6.277 6.62c-.367-.742-.364-1.502.008-2.258.23-.465.611-.847 1.077-1.077.528-.261.667-.278 2.248-.282L11 3v2.503m5.02-2.443a2.502 2.502 0 0 1 1.695 1.302c.372.756.375 1.516.008 2.258a2.536 2.536 0 0 1-1.403 1.249l-.3.11-1.51.013-1.51.013V3l1.37.001c1.047 0 1.436.014 1.65.059M11 12.503v2.502l-1.51-.013-1.51-.013-.3-.11a2.536 2.536 0 0 1-1.403-1.249c-.367-.742-.364-1.502.008-2.258.23-.465.611-.847 1.077-1.077.528-.261.667-.278 2.248-.282L11 10v2.503m5.02-2.443a2.502 2.502 0 0 1 1.695 1.302c.372.756.375 1.516.008 2.258a2.53 2.53 0 0 1-1.403 1.248c-.268.097-.355.108-.82.108-.465 0-.552-.011-.82-.108a2.53 2.53 0 0 1-1.403-1.248c-.93-1.88.695-3.989 2.743-3.56m-5.021 8.31c0 1.56-.022 1.737-.276 2.25a2.53 2.53 0 0 1-1.403 1.248c-.268.097-.355.108-.82.108-.465 0-.552-.011-.82-.108a2.53 2.53 0 0 1-1.403-1.248c-.367-.742-.364-1.502.008-2.258.23-.465.611-.847 1.077-1.077.528-.261.667-.278 2.248-.282L11 17l-.001 1.37" fill-rule="evenodd" fill="#000" stroke="none"/></svg>