<svg xmlns="http://www.w3.org/2000/svg" width="24" height="24" fill="none" stroke="currentColor" stroke-width="2" stroke-linecap="round" stroke-linejoin="round"><path d="M5.499 1.043c-1.109.187-2.014.984-2.384 2.097-.093.279-.093.292-.106 2.668-.009 1.581.001 2.441.029 2.544.106.395.394.609.858.639.485.031.803-.109.984-.433l.1-.178L5 6.06c.022-2.6.008-2.472.321-2.777C5.625 2.989 5.459 3 9.446 3h3.552l.011 2.69.011 2.69.1.178c.11.197.294.34.515.401.09.025 1.13.041 2.755.041H19v5.554c0 4.59-.01 5.585-.055 5.736a1.02 1.02 0 0 1-.461.582l-.184.108-7.321.02-7.321.02-.199.102c-.34.175-.481.484-.45.982.03.462.244.752.634.857.1.027 2.63.037 7.544.03l7.393-.011.28-.094a3.145 3.145 0 0 0 2.026-2.026l.094-.28.011-6.62c.01-6.068.006-6.635-.055-6.8-.055-.152-.514-.63-2.951-3.073-1.652-1.656-2.953-2.93-3.045-2.98l-.16-.087-4.54-.006c-2.497-.003-4.631.01-4.741.029M16.56 5.46 18.1 7H15V5.46c0-.847.005-1.54.01-1.54.006 0 .703.693 1.55 1.54M2.691 11.519c-.229.103-.549.41-.653.624a.843.843 0 0 0-.019.68c.044.107.384.477 1.072 1.167L4.098 15l-1.007 1.01c-1.054 1.057-1.138 1.167-1.138 1.49 0 .233.091.425.315.665.213.23.519.394.732.394.306 0 .496-.146 1.5-1.155.528-.53.978-.964 1-.964.022 0 .472.434 1 .964 1.004 1.009 1.194 1.155 1.5 1.155.213 0 .519-.164.732-.394.224-.24.315-.432.315-.665 0-.323-.084-.433-1.138-1.49L6.902 15l1.007-1.01c.688-.69 1.028-1.06 1.072-1.167.148-.354.042-.719-.303-1.041-.231-.216-.479-.34-.678-.34-.3 0-.463.125-1.481 1.14-.54.538-.998.978-1.019.978-.021 0-.479-.44-1.019-.978C3.463 11.567 3.3 11.442 3 11.442a.897.897 0 0 0-.309.077" fill-rule="evenodd" fill="#000" stroke="none"/></svg>