<svg xmlns="http://www.w3.org/2000/svg" width="24" height="24" fill="none" stroke="currentColor" stroke-width="2" stroke-linecap="round" stroke-linejoin="round"><path d="M8.08 1.062c-.741.161-1.493.779-1.845 1.516-.25.525-.238.138-.226 7.542l.011 6.74.089.26c.136.398.361.749.691 1.08.342.341.694.563 1.1.691l.28.089h10.64l.28-.089c.404-.128.754-.348 1.098-.693.333-.333.558-.682.693-1.078l.089-.26.011-5.26c.01-4.804.006-5.276-.055-5.44-.055-.151-.447-.563-2.451-2.573-1.352-1.357-2.454-2.43-2.545-2.48l-.16-.087-3.72-.007c-3.073-.006-3.765.002-3.98.049M14 5.11c0 1.29.016 2.166.041 2.255a.842.842 0 0 0 .401.515l.178.1 2.19.011 2.19.012v4.241c0 3.057-.013 4.266-.045 4.329-.066.129-.24.306-.363.371-.162.084-10.022.084-10.184 0a1.066 1.066 0 0 1-.363-.371C8.012 16.509 8 14.716 8 10.001c0-5.504.009-6.501.056-6.593.062-.117.237-.291.364-.361.056-.031.902-.045 2.83-.046L14 3v2.11m3.06-.15L18.099 6H16V4.96c0-.572.005-1.04.01-1.04.006 0 .478.468 1.05 1.04M2.614 6.657a.814.814 0 0 0-.505.396l-.089.167v13.6l.089.28c.128.406.35.758.691 1.1.331.33.682.555 1.08.691l.26.089 5.233.011c3.452.007 5.284-.003 5.384-.03a.84.84 0 0 0 .523-.403c.087-.156.1-.226.099-.558-.001-.433-.081-.645-.301-.801-.287-.205-.128-.199-5.527-.199-3.645 0-5.06-.012-5.124-.045a1.181 1.181 0 0 1-.36-.335c-.035-.06-.052-1.779-.067-6.74l-.02-6.66-.089-.167a.874.874 0 0 0-.213-.254c-.264-.189-.721-.249-1.064-.142" fill-rule="evenodd" fill="#000" stroke="none"/></svg>