<svg xmlns="http://www.w3.org/2000/svg" width="24" height="24" fill="none" stroke="currentColor" stroke-width="2" stroke-linecap="round" stroke-linejoin="round"><path d="M5.499 1.043c-1.109.187-2.014.984-2.384 2.097-.093.279-.093.292-.106 2.668-.009 1.581.001 2.441.029 2.544.106.395.394.609.858.639.485.031.803-.109.984-.433l.1-.178L5 6.06c.022-2.6.008-2.472.321-2.777C5.625 2.989 5.459 3 9.446 3h3.552l.011 2.69.011 2.69.1.178c.11.197.294.34.515.401.09.025 1.13.041 2.755.041H19v5.554c0 4.59-.01 5.585-.055 5.736a1.02 1.02 0 0 1-.461.582l-.184.108-7.321.02-7.321.02-.199.102c-.34.175-.481.484-.45.982.03.462.244.752.634.857.1.027 2.63.037 7.544.03l7.393-.011.28-.094a3.145 3.145 0 0 0 2.026-2.026l.094-.28.011-6.62c.01-6.068.006-6.635-.055-6.8-.055-.152-.514-.63-2.951-3.073-1.652-1.656-2.953-2.93-3.045-2.98l-.16-.087-4.54-.006c-2.497-.003-4.631.01-4.741.029M16.56 5.46 18.1 7H15V5.46c0-.847.005-1.54.01-1.54.006 0 .703.693 1.55 1.54M2.614 14.057a.814.814 0 0 0-.505.396c-.074.139-.089.231-.089.547 0 .331.013.403.1.558.11.197.294.34.515.401.197.055 6.533.055 6.73 0a.842.842 0 0 0 .515-.401c.087-.156.1-.226.099-.558-.001-.433-.081-.645-.301-.801-.28-.2-.267-.199-3.694-.196-2.512.002-3.24.014-3.37.054" fill-rule="evenodd" fill="#000" stroke="none"/></svg>