<svg xmlns="http://www.w3.org/2000/svg" width="24" height="24" fill="none" stroke="currentColor" stroke-width="2" stroke-linecap="round" stroke-linejoin="round"><path d="M5.499 1.043C4.38 1.232 3.461 2.048 3.114 3.16l-.094.3v17.08l.094.3a3.086 3.086 0 0 0 2.046 2.046l.3.094h13.08l.3-.094c.976-.304 1.714-1.035 2.046-2.026l.094-.28.011-6.62c.01-6.068.006-6.635-.055-6.8-.055-.152-.514-.63-2.951-3.073-1.652-1.656-2.953-2.93-3.045-2.98l-.16-.087-4.54-.006c-2.497-.003-4.631.01-4.741.029m7.51 4.647.011 2.69.1.178c.11.197.294.34.515.401.09.025 1.13.041 2.755.041H19v5.554c0 4.59-.01 5.585-.055 5.736a1.02 1.02 0 0 1-.461.582l-.184.108H5.7l-.184-.108a1.199 1.199 0 0 1-.291-.249c-.24-.315-.225.265-.225-8.601 0-9.134-.026-8.39.304-8.719.311-.312.105-.297 4.125-.3L12.998 3l.011 2.69m3.551-.23L18.1 7H15V5.46c0-.847.005-1.54.01-1.54.006 0 .703.693 1.55 1.54m-7.3 6.027c-.438.164-.821.642-.819 1.022.002.311.119.464 1.149 1.5l.986.991-.986.991C8.554 17.033 8.442 17.18 8.442 17.5c0 .227.122.468.356.702.352.352.686.439 1.039.272.127-.061.484-.386 1.173-1.068l.989-.982 1.011 1.002c1.108 1.098 1.202 1.166 1.574 1.124.411-.047.927-.572.966-.985.034-.353-.057-.478-1.145-1.575l-.981-.99.981-.99c1.086-1.095 1.179-1.223 1.146-1.572-.049-.504-.715-1.071-1.154-.983-.283.056-.45.191-1.407 1.14l-.99.981-.99-.981c-.622-.616-1.049-1.008-1.148-1.054-.198-.091-.445-.113-.602-.054" fill-rule="evenodd" fill="#000" stroke="none"/></svg>