<svg xmlns="http://www.w3.org/2000/svg" width="24" height="24" fill="none" stroke="currentColor" stroke-width="2" stroke-linecap="round" stroke-linejoin="round"><path d="M3.58 1.058c-1.005.183-1.959.958-2.342 1.901-.232.572-.218-.006-.218 9.041s-.014 8.469.218 9.041c.293.722.999 1.428 1.721 1.721.572.232-.01.218 9.081.218h8.38l.34-.114c.422-.14.702-.293 1.049-.572a3.263 3.263 0 0 0 1.057-1.534l.114-.34V3.58l-.114-.34c-.381-1.144-1.326-1.98-2.465-2.184C19.97.98 4.003.981 3.58 1.058M6 4.5V6H2.994l.013-1.07c.013-1.034.016-1.076.107-1.25a1.24 1.24 0 0 1 .786-.642c.066-.017.565-.032 1.11-.034L6 3v1.5M16 7v4H8V3h8v4m4.34-3.874c.238.127.417.309.546.554.091.174.094.216.107 1.25L21.006 6H18V2.994l1.07.013 1.07.013.2.106M6 9.5V11H3V8h3v1.5m15 0V11h-3V8h3v1.5m-15 5V16H3v-3h3v1.5M16 17v4H8v-8h8v4m5-2.5V16h-3v-3h3v1.5M6 19.502v1.503l-1.07-.013c-1.031-.012-1.077-.015-1.25-.105a1.284 1.284 0 0 1-.554-.547l-.106-.2-.013-1.07L2.994 18H6v1.502m14.993-.432-.013 1.07-.106.2c-.128.24-.311.42-.554.547-.173.09-.219.093-1.25.105l-1.07.013V18h3.006l-.013 1.07" fill="#000" fill-rule="evenodd" stroke="none"/></svg>