<svg xmlns="http://www.w3.org/2000/svg" width="24" height="24" fill="none" stroke="currentColor" stroke-width="2" stroke-linecap="round" stroke-linejoin="round"><path d="M1.614 2.057c-.418.131-.591.39-.593.883-.001.184.022.375.054.45.03.072 1.825 2.223 3.989 4.78l3.934 4.65.001 3.175c.001 2.291.014 3.219.047 3.331.11.367.149.391 2.53 1.581 2.412 1.206 2.437 1.215 2.805 1.075.215-.082.432-.33.542-.62.074-.195.077-.355.078-4.372l.001-4.17 3.945-4.66c2.277-2.691 3.976-4.731 4.02-4.829.197-.437.005-.916-.482-1.203L22.3 2.02l-10.26-.007c-8.343-.007-10.291.002-10.426.044m17.819 2.429c-5.007 5.909-6.254 7.399-6.337 7.574l-.095.2L13 15.81c0 1.952-.009 3.55-.02 3.55-.011 0-.461-.22-1-.49l-.98-.489V15.32l-.001-3.06-.095-.2c-.083-.175-1.288-1.614-6.351-7.59L4.155 4h15.69l-.412.486" fill="#000" fill-rule="evenodd" stroke="none"/></svg>