<svg xmlns="http://www.w3.org/2000/svg" width="24" height="24" fill="none" stroke="currentColor" stroke-width="2" stroke-linecap="round" stroke-linejoin="round"><path d="M6.96 1.041c-1.812.156-3.42.774-3.831 1.473L3.02 2.7l-.01 9.755c-.007 6.447.003 9.805.03 9.903.104.389.395.604.856.633.485.031.803-.109.984-.433l.1-.178.011-3.427.011-3.427.269-.101c.77-.291 1.479-.399 2.609-.4.742 0 .87.01 1.34.109.62.131 1.153.305 2.28.747 1.611.63 2.309.849 3.28 1.025.547.1 2.1.1 2.81.001 1.55-.216 2.921-.809 3.28-1.421l.11-.186V2.62l-.091-.17c-.261-.49-.993-.589-1.536-.208-.64.449-1.614.698-2.913.745-1.311.048-2.055-.121-4.1-.928-1.473-.581-2.27-.823-3.16-.96-.493-.076-1.656-.106-2.22-.058m2.28 2.1c.597.123 1.134.299 2.26.74 1.611.63 2.309.849 3.28 1.025.544.099 2.101.1 2.8.002.43-.06 1.165-.218 1.35-.289.066-.026.07.224.07 4.912v4.94l-.255.103c-.598.239-1.382.38-2.305.413-1.311.048-2.055-.121-4.1-.928-2.332-.92-3.532-1.154-5.24-1.023-.799.062-1.685.213-2.037.348-.057.022-.063-.432-.063-4.916V3.527l.271-.103a6.367 6.367 0 0 1 1.449-.34l.56-.061c.077-.009.437-.009.8-.001.508.012.775.039 1.16.119" fill-rule="evenodd" fill="#000" stroke="none"/></svg>