<svg xmlns="http://www.w3.org/2000/svg" width="24" height="24" fill="none" stroke="currentColor" stroke-width="2" stroke-linecap="round" stroke-linejoin="round"><path d="M6.614 1.055c-.319.104-.486.278-.579.603-.051.177-.047 20.51.005 20.7.104.389.394.604.856.633.485.031.803-.109.984-.433l.1-.178.011-4.88.011-4.881 4.771-2.386c2.625-1.312 4.828-2.433 4.897-2.491.168-.141.33-.482.358-.754a.769.769 0 0 0-.323-.716c-.091-.066-2.469-1.272-5.285-2.68-4.973-2.487-5.127-2.561-5.38-2.576a1.326 1.326 0 0 0-.426.039M11.38 5.31c1.837.918 3.34 1.679 3.34 1.69 0 .02-6.661 3.36-6.7 3.36C8.009 10.36 8 8.848 8 7c0-1.848.009-3.36.02-3.36.011 0 1.523.751 3.36 1.67" fill-rule="evenodd" fill="#000" stroke="none"/></svg>