<svg xmlns="http://www.w3.org/2000/svg" width="24" height="24" fill="none" stroke="currentColor" stroke-width="2" stroke-linecap="round" stroke-linejoin="round"><path d="M16.7 1.056c-.241.077-10.215 5.077-10.405 5.216a.769.769 0 0 0-.323.716c.028.272.19.613.358.754.069.058 2.273 1.179 4.898 2.492L16 12.62v4.8c0 3.092.015 4.851.041 4.945.107.385.396.597.855.626.485.031.803-.109.984-.433l.1-.178.02-5.26c.011-2.893.011-7.564 0-10.38l-.02-5.12-.089-.167c-.198-.369-.726-.545-1.191-.397M16 7c0 1.848-.009 3.36-.02 3.36-.039 0-6.7-3.34-6.7-3.36 0-.022 6.639-3.354 6.69-3.358.017-.001.03 1.51.03 3.358" fill-rule="evenodd" fill="#000" stroke="none"/></svg>