<svg xmlns="http://www.w3.org/2000/svg" width="24" height="24" fill="none" stroke="currentColor" stroke-width="2" stroke-linecap="round" stroke-linejoin="round"><path d="M11.647 2.046c-.096.047-.366.26-.6.474-1.296 1.178-2.121 2.463-2.41 3.754-.136.605-.111 1.419.064 2.078.138.522.252.793.719 1.708.282.551.429.889.474 1.084.167.737.122 1.263-.142 1.659-.297.445-.732.681-1.252.681a1.502 1.502 0 0 1-1.499-1.487c-.002-.375-.221-.711-.594-.91-.289-.154-.538-.168-.794-.043-.463.223-1.085 1.281-1.386 2.356-.578 2.059-.015 4.585 1.447 6.5.259.339.932 1.025 1.286 1.311A8.1 8.1 0 0 0 12 23a8.1 8.1 0 0 0 5.04-1.789c.354-.286 1.027-.972 1.286-1.311 1.141-1.494 1.737-3.344 1.662-5.158a6.718 6.718 0 0 0-.768-2.922c-.575-1.133-1.329-2.043-2.5-3.018-1.265-1.052-2.125-2.105-2.822-3.454a9.678 9.678 0 0 1-.899-2.468 1.634 1.634 0 0 0-.144-.388c-.104-.183-.374-.423-.549-.49a.927.927 0 0 0-.659.044m.011 3.249a12.733 12.733 0 0 0 3.622 4.906c.708.593 1.082.959 1.455 1.424.947 1.181 1.352 2.438 1.232 3.823-.055.631-.129 1.004-.296 1.492-.683 2.004-2.38 3.488-4.511 3.945-.606.13-1.714.13-2.32 0-2.874-.616-4.856-3.062-4.836-5.965.003-.425.022-.44.278-.221.917.787 2.325 1.013 3.482.559a3.537 3.537 0 0 0 2.069-2.204c.132-.408.181-.818.156-1.326-.043-.907-.204-1.435-.778-2.563-.529-1.04-.615-1.291-.64-1.865-.024-.541.041-.848.285-1.358.139-.29.622-1.041.649-1.01.003.005.072.168.153.363" fill-rule="evenodd" fill="#000" stroke="none"/></svg>