<svg xmlns="http://www.w3.org/2000/svg" width="24" height="24" fill="none" stroke="currentColor" stroke-width="2" stroke-linecap="round" stroke-linejoin="round"><path d="M8.18 1.039c-.465.12-.666.408-.668.958-.002.351.07.559.259.754.167.172.437.249.876.249H9v2.81l-.001 2.81-.349.166c-.807.383-1.837 1.204-2.447 1.95a7.474 7.474 0 0 0-1.679 5.211 7.502 7.502 0 0 0 3.316 5.775c1.332.9 3.073 1.359 4.69 1.236 2.949-.225 5.459-2.099 6.483-4.842.352-.942.478-1.679.475-2.776-.006-1.605-.63-3.304-1.691-4.604-.61-.746-1.64-1.567-2.447-1.95l-.349-.166L15 5.81V3h.353c.803 0 1.133-.292 1.133-1.003 0-.506-.183-.801-.577-.933-.171-.057-.602-.064-3.9-.06-2.04.002-3.763.018-3.829.035m4.819 5.279c-.005 3.709-.023 3.462.281 3.737.108.098.254.169.505.245.627.192 1.331.602 1.908 1.112 1.038.918 1.786 2.517 1.787 3.818v.29H6.52v-.29c.001-1.301.749-2.9 1.787-3.818.577-.511 1.323-.945 1.882-1.095.171-.047.37-.123.442-.171.128-.085.286-.289.344-.446.017-.044.028-1.569.026-3.39L10.998 3h2.004l-.003 3.318m4.081 11.243c0 .022-.074.188-.165.368a5.496 5.496 0 0 1-4.003 2.976 6.48 6.48 0 0 1-1.824 0 5.496 5.496 0 0 1-4.003-2.976 2.616 2.616 0 0 1-.165-.368c0-.028 1.646-.041 5.08-.041s5.08.013 5.08.041" fill-rule="evenodd" fill="#000" stroke="none"/></svg>