<svg xmlns="http://www.w3.org/2000/svg" width="24" height="24" fill="none" stroke="currentColor" stroke-width="2" stroke-linecap="round" stroke-linejoin="round"><path d="M5.614 1.057a.814.814 0 0 0-.505.396c-.089.166-.089.177-.102 2.467-.013 2.43-.001 2.648.171 3.153.197.579.411.893 1.122 1.647.316.334.507.573.576.72l.104.22.02 5.46.02 5.46.094.28c.332.991 1.07 1.722 2.046 2.026l.3.094h5.08l.3-.094c.976-.304 1.714-1.035 2.046-2.026l.094-.28.02-5.46.02-5.46.104-.22c.069-.146.261-.388.574-.72.722-.768.928-1.069 1.124-1.647.172-.506.184-.722.171-3.153-.013-2.29-.013-2.301-.102-2.467-.106-.197-.269-.322-.52-.398-.264-.079-12.503-.077-12.757.002M17 4v1H7V3h10v1m-.803 3.39c-.73.769-1.016 1.28-1.155 2.067-.028.158-.042 1.982-.042 5.444 0 4.296-.01 5.238-.055 5.389a1.02 1.02 0 0 1-.461.582l-.184.108H9.7l-.184-.108a1.199 1.199 0 0 1-.291-.249C8.988 20.312 9 20.618 9 14.922c0-3.477-.014-5.307-.042-5.465-.143-.806-.464-1.362-1.252-2.167L7.422 7h9.146l-.371.39m-4.583 3.667c-.391.123-.575.379-.605.843-.044.678.26 1.051.887 1.091.485.031.803-.109.984-.433.087-.156.1-.226.099-.558-.001-.433-.081-.645-.301-.801-.264-.189-.721-.249-1.064-.142" fill-rule="evenodd" fill="#000" stroke="none"/></svg>