<svg xmlns="http://www.w3.org/2000/svg" width="24" height="24" fill="none" stroke="currentColor" stroke-width="2" stroke-linecap="round" stroke-linejoin="round"><path d="M1.626 1.045c-.206.109-.48.388-.588.599a.792.792 0 0 0 .002.719c.061.121.702.793 2.04 2.137 1.783 1.791 1.953 1.974 1.977 2.12.039.236.179.65.304.9.161.322.408.638.939 1.2.316.334.507.573.576.72l.104.22.02 5.46.02 5.46.094.28c.332.991 1.07 1.722 2.046 2.026l.3.094h5.08l.3-.094a3.104 3.104 0 0 0 2.043-2.026c.083-.256.092-.373.108-1.355l.017-1.076 2.226 2.221c1.543 1.54 2.28 2.249 2.403 2.31.353.177.717.088 1.064-.259.347-.347.436-.711.259-1.064-.062-.124-.998-1.093-3.107-3.217l-3.106-3.127L6.76 5.305A1233.9 1233.9 0 0 0 4.6 3.167C3.268 1.849 2.48 1.099 2.372 1.045a.877.877 0 0 0-.746 0m4.988.012a.814.814 0 0 0-.505.396c-.074.139-.089.231-.089.547 0 .331.013.403.1.558.11.197.294.34.515.401C6.729 2.985 8.59 3 11.89 3H17v2h-3.094c-3.307 0-3.305 0-3.584.199-.222.158-.302.369-.302.801 0 .331.013.403.1.558.11.197.294.34.515.401.091.026 1.224.041 3.039.041h2.894l-.371.39c-.73.769-1.016 1.28-1.155 2.067-.053.302-.055 1.716-.001 1.908.107.385.396.597.855.626.485.031.803-.109.983-.433.095-.17.101-.217.121-1.038.027-1.083.029-1.089.698-1.8.722-.768.928-1.069 1.124-1.647.172-.506.184-.722.171-3.153-.013-2.29-.013-2.301-.102-2.467-.106-.197-.269-.322-.52-.398-.264-.079-11.503-.077-11.757.002M15 18.264c0 2.001-.007 2.073-.221 2.354-.061.08-.194.195-.295.254l-.184.108H9.7l-.184-.108a1.199 1.199 0 0 1-.291-.249c-.236-.31-.225-.039-.225-5.338V10.42l3 3 3 3v1.844" fill-rule="evenodd" fill="#000" stroke="none"/></svg>