<svg xmlns="http://www.w3.org/2000/svg" width="24" height="24" fill="none" stroke="currentColor" stroke-width="2" stroke-linecap="round" stroke-linejoin="round"><path d="M8.18 1.039c-.465.12-.666.408-.668.958-.002.351.07.559.259.754.167.172.437.249.876.249H9v6.76l-1.383 2.75c-.76 1.513-1.424 2.831-1.475 2.93-.473.923-2.429 4.932-2.459 5.04-.128.46-.079.934.145 1.4.173.359.482.68.836.869.503.267.031.251 7.336.251 7.305 0 6.833.016 7.336-.251.803-.427 1.223-1.399.981-2.269-.03-.108-1.986-4.117-2.459-5.04-.051-.099-.715-1.417-1.475-2.93L15 9.76V3h.353c.803 0 1.133-.292 1.133-1.003 0-.506-.183-.801-.577-.933-.171-.057-.602-.064-3.9-.06-2.04.002-3.763.018-3.829.035m4.829 5.599.011 3.639 1.17 2.342c.643 1.288 1.17 2.351 1.17 2.362 0 .01-1.512.019-3.36.019-1.848 0-3.36-.009-3.36-.019 0-.011.526-1.074 1.17-2.362l1.17-2.342.011-3.639.01-3.638h1.998l.01 3.638M17.37 18.98c.545 1.089.99 1.989.99 2 0 .011-2.862.02-6.36.02s-6.36-.009-6.36-.02c0-.011.445-.911.99-2L7.62 17h8.76l.99 1.98" fill-rule="evenodd" fill="#000" stroke="none"/></svg>