<svg xmlns="http://www.w3.org/2000/svg" width="24" height="24" fill="none" stroke="currentColor" stroke-width="2" stroke-linecap="round" stroke-linejoin="round"><path d="M3.499 2.043C2.383 2.23 1.461 3.048 1.114 4.16l-.094.3v15.08l.094.3c.304.976 1.035 1.714 2.026 2.046l.28.094 6.92.02c3.806.011 7.071.005 7.255-.013a3.04 3.04 0 0 0 1.154-.375c.324-.179.797-.624 1.003-.941.123-.19.535-1.243 1.695-4.331l1.533-4.08-.002-.32c-.002-.247-.023-.358-.09-.487-.184-.355-.464-.453-1.292-.453h-.591l-.014-1.79c-.014-1.743-.017-1.797-.107-2.07a3.105 3.105 0 0 0-2.023-2.018l-.321-.101-3.504-.012-3.504-.012-.905-1.355c-.53-.794-.956-1.391-1.029-1.443-.277-.198-.303-.199-3.194-.194-1.487.002-2.795.02-2.905.038m5.884 3.326c.822 1.228.937 1.382 1.114 1.49l.197.121 3.783.02c4.239.022 3.927-.001 4.24.321.274.283.283.354.283 2.126V11h-5.562c-4.092 0-5.611.012-5.747.046a.812.812 0 0 0-.372.23c-.182.179-.215.255-1.234 2.807-.575 1.442-1.067 2.723-1.093 2.846-.064.307.001.518.228.737.281.27.823.432 1.118.335a.997.997 0 0 0 .491-.417c.036-.068.465-1.123.954-2.344l.889-2.22 5.944-.01 5.943-.01-.074.19c-.041.104-.592 1.576-1.226 3.27-.633 1.694-1.194 3.137-1.245 3.207-.051.07-.189.173-.305.231l-.213.103L10.677 20c-4.094 0-6.872-.016-6.95-.038a1.012 1.012 0 0 1-.504-.342c-.237-.31-.223.168-.223-7.598 0-8.017-.025-7.391.304-7.719.302-.303.245-.297 2.859-.3L8.465 4l.918 1.369" fill-rule="evenodd" fill="#000" stroke="none"/></svg>