<svg xmlns="http://www.w3.org/2000/svg" width="24" height="24" fill="none" stroke="currentColor" stroke-width="2" stroke-linecap="round" stroke-linejoin="round"><path d="M3.499 2.043C2.383 2.23 1.461 3.048 1.114 4.16l-.094.3v15.08l.094.3a3.086 3.086 0 0 0 2.046 2.046l.3.094h17.08l.3-.094a3.086 3.086 0 0 0 2.046-2.046l.094-.3V7.46l-.094-.3a3.089 3.089 0 0 0-2.025-2.039l-.321-.101-4.504-.011-4.504-.011-.904-1.356c-.531-.794-.957-1.391-1.03-1.443-.277-.198-.303-.199-3.194-.194-1.487.002-2.795.02-2.905.038m5.884 3.326c.822 1.228.937 1.382 1.114 1.49l.197.121 4.783.02c5.36.022 4.924-.004 5.24.321.301.311.283-.091.283 6.18 0 4.635-.01 5.638-.055 5.789a1.02 1.02 0 0 1-.461.582l-.184.108H3.7l-.184-.108a1.199 1.199 0 0 1-.291-.249c-.239-.314-.225.172-.225-7.601 0-8.017-.025-7.391.304-7.719.302-.303.245-.297 2.859-.3L8.465 4l.918 1.369m2.231 4.688a.814.814 0 0 0-.505.396c-.085.16-.089.215-.101 1.357L10.996 13H9.904c-1.16 0-1.334.022-1.582.199-.222.158-.302.369-.302.801 0 .331.013.403.1.558.11.197.294.34.515.401.081.023.635.041 1.255.041H11v1.11c0 .62.018 1.174.041 1.255.107.385.396.597.855.626.485.031.803-.109.984-.433.099-.177.1-.184.113-1.368l.012-1.19h1.108c.618 0 1.171-.018 1.252-.041a.842.842 0 0 0 .515-.401c.087-.156.1-.226.099-.558-.001-.433-.081-.645-.301-.801-.248-.177-.422-.199-1.582-.199h-1.091l-.012-1.19c-.012-1.141-.017-1.197-.102-1.357a.874.874 0 0 0-.213-.254c-.264-.189-.721-.249-1.064-.142" fill-rule="evenodd" fill="#000" stroke="none"/></svg>