<svg xmlns="http://www.w3.org/2000/svg" width="24" height="24" fill="none" stroke="currentColor" stroke-width="2" stroke-linecap="round" stroke-linejoin="round"><path d="M3.499 5.043C2.38 5.232 1.461 6.048 1.114 7.16l-.094.3v9.08l.094.3a3.086 3.086 0 0 0 2.046 2.046l.3.094h17.08l.3-.094a3.086 3.086 0 0 0 2.046-2.046l.094-.3V7.46l-.094-.3a3.089 3.089 0 0 0-2.025-2.039l-.321-.101-8.42-.006c-4.631-.003-8.511.01-8.621.029M20.31 7.061c.279.083.546.35.629.629.053.177.061.751.061 4.311 0 4.457.007 4.318-.221 4.617-.061.08-.194.195-.295.254l-.184.108H3.7l-.184-.108a1.051 1.051 0 0 1-.458-.556c-.089-.254-.087-8.324.003-8.626.079-.269.351-.547.612-.627.16-.049 1.357-.058 8.31-.06 7.161-.003 8.147.004 8.327.058M6.614 11.055c-.394.129-.575.382-.605.845-.031.481.11.799.433.98.155.087.227.1.558.1.312 0 .408-.016.54-.086.326-.176.46-.435.46-.894 0-.643-.287-.952-.917-.984-.19-.01-.365.005-.469.039m5 0c-.394.129-.575.382-.605.845-.031.481.11.799.433.98.155.087.227.1.558.1.312 0 .408-.016.54-.086.326-.176.46-.435.46-.894 0-.643-.287-.952-.917-.984-.19-.01-.365.005-.469.039m5 0c-.394.129-.575.382-.605.845-.031.481.11.799.433.98.155.087.227.1.558.1.312 0 .408-.016.54-.086.326-.176.46-.435.46-.894 0-.643-.287-.952-.917-.984-.19-.01-.365.005-.469.039" fill-rule="evenodd" fill="#000" stroke="none"/></svg>