<svg xmlns="http://www.w3.org/2000/svg" width="24" height="24" fill="none" stroke="currentColor" stroke-width="2" stroke-linecap="round" stroke-linejoin="round"><path d="M4.614 1.057a.81.81 0 0 0-.504.396c-.119.224-.128.774-.016.987.041.077 1.292 1.36 2.78 2.85L9.579 8H7.196c-2.543 0-2.601.004-2.874.199a.874.874 0 0 0-.213.254l-.089.167-.027 3.66c-.014 2.013-.028 3.719-.029 3.791-.005.187.202.622.34.713.063.042 1.699 1.654 3.635 3.582 1.937 1.928 3.579 3.534 3.649 3.57.083.041.232.064.423.064.264 0 .315-.013.484-.125.218-.144.372-.332.448-.545.043-.12.054-.763.055-3.239L13 17.002l3.15-.011 3.15-.011.186-.109c.479-.282.684-.815.475-1.234-.063-.124-.903-.993-2.814-2.907L14.421 10h2.4c1.484 0 2.454-.016 2.544-.041a.842.842 0 0 0 .515-.401l.1-.178V1.62l-.089-.167c-.106-.197-.269-.322-.52-.398-.264-.079-14.503-.077-14.757.002M18 5.5V8h-5.58l-2.5-2.5L7.42 3H18v2.5m-3.92 7 2.5 2.5H6v-5h5.58l2.5 2.5M11 18.78c0 .979-.005 1.78-.01 1.78-.006 0-.811-.801-1.79-1.78L7.42 17H11v1.78" fill-rule="evenodd" fill="#000" stroke="none"/></svg>