<svg xmlns="http://www.w3.org/2000/svg" width="24" height="24" fill="none" stroke="currentColor" stroke-width="2" stroke-linecap="round" stroke-linejoin="round"><path d="M4.499 2.043C3.38 2.232 2.461 3.048 2.114 4.16l-.094.3v15.08l.094.3a3.086 3.086 0 0 0 2.046 2.046l.3.094h15.08l.3-.094a3.086 3.086 0 0 0 2.046-2.046l.094-.3V4.46l-.094-.3a3.089 3.089 0 0 0-2.025-2.039l-.321-.101-7.42-.006c-4.081-.003-7.511.01-7.621.029M19.31 4.061c.279.083.546.35.629.629.054.18.061 1.065.061 7.311 0 5.906-.009 7.137-.055 7.289a1.02 1.02 0 0 1-.461.582l-.184.108H4.7l-.184-.108a1.199 1.199 0 0 1-.291-.249c-.239-.314-.225.172-.225-7.601 0-6.264.007-7.152.061-7.332.079-.269.351-.547.612-.627.291-.089 14.336-.092 14.637-.002m-5.57 1.943a3.26 3.26 0 0 0-2.47 1.778c-.283.566-.424 1.152-.459 1.908l-.023.51H9.8c-1.05 0-1.234.025-1.478.199-.222.158-.302.369-.302.801 0 .331.013.403.1.558.11.197.294.34.515.401.08.022.6.041 1.155.041h1.01l-.001 1.13c-.001 1.453-.044 1.769-.29 2.136-.222.333-.764.534-1.44.534-.473 0-.8.155-.96.453-.074.139-.089.231-.089.547 0 .331.013.403.1.558.202.36.482.462 1.18.429 1.118-.052 1.933-.377 2.544-1.013.402-.418.644-.856.795-1.441.133-.514.158-.853.16-2.123l.001-1.21h1.053c1.188 0 1.362-.027 1.576-.249.189-.195.257-.396.257-.754 0-.506-.183-.801-.577-.933-.156-.052-.387-.064-1.25-.064H12.8l.001-.23c.005-.83.245-1.477.652-1.756.298-.204.447-.231 1.25-.233l.723-.001.17-.113c.264-.174.384-.465.384-.93 0-.327-.011-.379-.108-.526-.14-.212-.433-.354-.845-.409a5.594 5.594 0 0 0-1.287.002" fill-rule="evenodd" fill="#000" stroke="none"/></svg>