<svg xmlns="http://www.w3.org/2000/svg" width="24" height="24" fill="none" stroke="currentColor" stroke-width="2" stroke-linecap="round" stroke-linejoin="round"><path d="M5.96 4.061c-.708.097-1.473.397-2.12.831-.375.252-1.04.918-1.287 1.29a5.255 5.255 0 0 0-.77 1.839c-.074.373-.367 2.868-.542 4.619C1.083 14.226 1 15.349 1 15.914c0 1.709.966 3.166 2.512 3.79 1.228.495 2.509.36 3.488-.368.143-.107.71-.637 1.26-1.18.55-.542 1.063-1.02 1.14-1.061.132-.071.272-.075 2.6-.075 2.328 0 2.468.004 2.6.075.077.041.59.52 1.14 1.063.55.544 1.117 1.075 1.26 1.18.798.586 1.751.788 2.757.583 1.93-.394 3.243-2.016 3.243-4.007 0-.799-.146-2.491-.443-5.154-.298-2.663-.329-2.861-.541-3.455-.248-.695-.603-1.25-1.156-1.808A4.886 4.886 0 0 0 18 4.058c-.595-.08-11.462-.077-12.04.003M17.8 6.043c.654.105 1.109.346 1.62.857.557.557.775 1.006.88 1.813.233 1.782.591 5.286.665 6.511.075 1.243-.029 1.646-.567 2.186-.421.422-.926.62-1.481.581-.502-.036-.608-.112-1.793-1.285-1.265-1.251-1.428-1.373-2.125-1.592l-.299-.094H9.3l-.299.094c-.697.219-.86.341-2.125 1.592-1.185 1.173-1.291 1.249-1.793 1.285-.555.039-1.06-.159-1.48-.581-.318-.319-.494-.647-.566-1.054-.088-.488.043-2.207.427-5.616.295-2.628.304-2.673.605-3.22.174-.316.772-.922 1.098-1.113.266-.156.695-.312.998-.362.316-.052 11.311-.055 11.635-.002M7.614 8.057a.814.814 0 0 0-.505.396c-.08.15-.09.236-.102.857l-.014.69h-.59c-.826 0-1.104.097-1.294.453-.074.139-.089.231-.089.547 0 .331.013.403.1.558.11.197.294.34.515.401.08.022.42.041.755.041H7v.61c0 .335.019.675.041.755.107.385.396.597.855.626.485.031.803-.109.984-.433.094-.167.101-.22.114-.868l.014-.69h.606c.333 0 .671-.019.751-.041a.842.842 0 0 0 .515-.401c.087-.156.1-.226.099-.558-.001-.313-.017-.409-.089-.547-.188-.355-.467-.453-1.292-.453h-.59l-.015-.69c-.017-.769-.063-.932-.315-1.111-.264-.189-.721-.249-1.064-.142m10 .998c-.394.129-.575.382-.605.845-.031.481.11.799.433.98.155.087.227.1.558.1.312 0 .408-.016.54-.086.326-.176.46-.435.46-.894 0-.643-.287-.952-.917-.984-.19-.01-.365.005-.469.039m-3 2c-.394.129-.575.382-.605.845-.031.481.11.799.433.98.155.087.227.1.558.1.312 0 .408-.016.54-.086.326-.176.46-.435.46-.894 0-.643-.287-.952-.917-.984-.19-.01-.365.005-.469.039" fill-rule="evenodd" fill="#000" stroke="none"/></svg>