<svg xmlns="http://www.w3.org/2000/svg" width="24" height="24" fill="none" stroke="currentColor" stroke-width="2" stroke-linecap="round" stroke-linejoin="round"><path d="M11.3 5.024c-.751.076-1.024.114-1.452.201-2.587.526-4.883 2.066-6.312 4.235a9.335 9.335 0 0 0-1.27 7.318c.116.487.449 1.497.574 1.743.119.232.335.429.529.482.237.063.484.021.815-.142.363-.178.504-.364.528-.697.014-.199-.015-.323-.225-.947-.282-.84-.393-1.347-.456-2.086a7.4 7.4 0 0 1 .333-2.816c.933-2.785 3.324-4.745 6.373-5.222.611-.095 1.915-.095 2.526 0 3.047.477 5.441 2.438 6.373 5.222.287.857.411 1.918.331 2.832-.064.729-.195 1.321-.47 2.124-.197.574-.224.689-.209.891.024.335.164.52.528.699.487.239.855.225 1.124-.044.186-.185.263-.347.494-1.025.36-1.057.514-1.864.553-2.892.059-1.582-.265-3.055-.994-4.52-1.412-2.835-4.291-4.842-7.576-5.281-.46-.061-1.787-.109-2.117-.075m3.96 5.463c-.249.093-.488.315-2.286 2.12-1.261 1.266-1.874 1.909-1.934 2.03-.177.352-.088.717.259 1.064.347.347.712.436 1.064.259.216-.108 3.855-3.719 4.045-4.013.247-.383.178-.765-.206-1.148-.297-.296-.662-.417-.942-.312" fill-rule="evenodd" fill="#000" stroke="none"/></svg>