<svg xmlns="http://www.w3.org/2000/svg" width="24" height="24" fill="none" stroke="currentColor" stroke-width="2" stroke-linecap="round" stroke-linejoin="round"><path d="M13.62 1.046c-.237.121-6.466 6.36-6.581 6.591-.176.353-.086.718.26 1.064.342.342.714.436 1.05.264a2.44 2.44 0 0 0 .411-.311l.245-.228.538.537.537.536-3.773 3.78c-2.336 2.341-3.828 3.865-3.915 4.001-.38.591-.491.98-.491 1.72 0 .443.016.597.092.86a3.225 3.225 0 0 0 2.147 2.147c.263.076.417.092.86.092.74 0 1.129-.111 1.72-.491.136-.087 1.66-1.579 4.001-3.915l3.78-3.773.536.537.537.538-.228.245a2.44 2.44 0 0 0-.311.411c-.172.336-.078.708.264 1.05.346.346.711.436 1.064.26.25-.125 6.473-6.348 6.598-6.598.176-.353.086-.718-.26-1.064-.235-.235-.45-.339-.701-.339-.259 0-.445.095-.76.386l-.246.228L17.71 6.29l-3.284-3.284.228-.246c.402-.434.491-.758.308-1.116a1.639 1.639 0 0 0-.597-.601.882.882 0 0 0-.745.003M16.3 7.72 19.58 11l-1.29 1.29L17 13.58l-3.29-3.29L10.42 7l1.28-1.28A60.031 60.031 0 0 1 13 4.44c.011 0 1.496 1.476 3.3 3.28m-6.93 8.491c-2.722 2.722-3.758 3.734-3.889 3.798-.537.261-1.204.029-1.481-.514-.129-.251-.14-.708-.023-.955.051-.109 1.258-1.345 3.799-3.89l3.723-3.73.791.79.79.79-3.71 3.711" fill-rule="evenodd" fill="#000" stroke="none"/></svg>