<svg xmlns="http://www.w3.org/2000/svg" width="24" height="24" fill="none" stroke="currentColor" stroke-width="2" stroke-linecap="round" stroke-linejoin="round"><path d="M8.24 2c-2.627.021-2.584.018-2.847.205-.068.049-.939 1.314-2.07 3.009C2.249 6.823 1.331 8.176 1.281 8.22c-.121.108-.222.317-.276.57-.077.367.063.811.328 1.035.156.131 9.548 12.336 9.694 12.596.131.235.451.524.638.575.237.066.574.052.755-.032.181-.084.445-.349.573-.576.144-.254 9.527-12.44 9.674-12.563.165-.14.25-.295.318-.58.082-.351-.04-.824-.266-1.025-.05-.044-.97-1.398-2.045-3.01-2.081-3.118-2.049-3.077-2.434-3.168-.208-.049-6.063-.073-10-.042m1.12 2.02c0 .011-.445.911-.99 2L7.38 8H3.871l.071-.11 1.332-2L6.533 4h1.414c.777 0 1.413.009 1.413.02m4.01 1.96c.545 1.089.99 1.989.99 2 0 .011-1.062.02-2.36.02-1.298 0-2.36-.009-2.36-.02 0-.011.445-.911.99-2L11.62 4h.76l.99 1.98m5.356-.09 1.332 2 .071.11H16.62l-.99-1.98c-.545-1.089-.99-1.989-.99-2 0-.011.636-.02 1.413-.02h1.414l1.259 1.89M8.329 13.469a326.937 326.937 0 0 1 1.059 3.477c-.007.006-4.966-6.424-5.281-6.847L4.033 10h3.229l1.067 3.469m6.302-3.419c-.01.028-.601 1.944-1.312 4.26-.712 2.315-1.305 4.21-1.319 4.21-.014 0-.607-1.894-1.319-4.21-.711-2.315-1.302-4.232-1.312-4.26-.014-.04.529-.05 2.631-.05s2.645.01 2.631.05m5.262.049c-.315.423-5.274 6.853-5.281 6.847-.004-.005.472-1.57 1.059-3.477L16.738 10h3.229l-.074.099" fill-rule="evenodd" fill="#000" stroke="none"/></svg>