<svg xmlns="http://www.w3.org/2000/svg" width="24" height="24" fill="none" stroke="currentColor" stroke-width="2" stroke-linecap="round" stroke-linejoin="round"><path d="M11.34 1.024c-.908.094-1.475.209-2.18.442-1.9.628-3.546 1.893-4.692 3.607-.528.789-1.056 2.051-1.265 3.019C3 9.035 3 9.041 3 15.86c0 4.137.014 6.411.041 6.505a.842.842 0 0 0 .401.515c.151.085.229.1.518.1.253-.001.376-.02.48-.075.077-.04.684-.616 1.35-1.278l1.209-1.204.992.986c1.04 1.035 1.189 1.148 1.506 1.15.31.002.475-.124 1.513-1.154l.99-.981.991.986c1.04 1.034 1.189 1.147 1.506 1.149.31.002.475-.124 1.513-1.154l.99-.982 1.23 1.224c1.304 1.297 1.437 1.402 1.771 1.402.308 0 .68-.241.87-.563l.109-.186.012-6.34c.008-4.436-.001-6.478-.032-6.8-.301-3.113-2.197-5.863-4.982-7.224a8.923 8.923 0 0 0-2.658-.835c-.409-.062-1.658-.11-1.98-.077m1.762 2.074c2.716.411 5.001 2.495 5.681 5.182.192.761.187.624.205 6.119l.016 5.18-.732-.724c-.415-.411-.805-.761-.9-.81a.866.866 0 0 0-.744 0c-.102.051-.555.469-1.148 1.058l-.98.974-.98-.974c-.592-.588-1.047-1.007-1.148-1.058a.866.866 0 0 0-.744 0c-.102.051-.555.469-1.148 1.058l-.98.974-.98-.974c-.592-.588-1.047-1.007-1.148-1.058a.866.866 0 0 0-.744 0c-.095.049-.485.399-.9.81l-.732.724.015-5.18c.015-5.584.006-5.325.225-6.185.556-2.175 2.242-4.016 4.384-4.787.63-.227 1.095-.325 1.92-.404.273-.026 1.186.018 1.562.075M8.614 9.055c-.394.129-.575.382-.605.845-.031.481.11.799.433.98.155.087.227.1.558.1.312 0 .408-.016.54-.086.326-.176.46-.435.46-.894 0-.643-.287-.952-.917-.984-.19-.01-.365.005-.469.039m6 0c-.394.129-.575.382-.605.845-.031.481.11.799.433.98.155.087.227.1.558.1.312 0 .408-.016.54-.086.326-.176.46-.435.46-.894 0-.643-.287-.952-.917-.984-.19-.01-.365.005-.469.039" fill-rule="evenodd" fill="#000" stroke="none"/></svg>