<svg xmlns="http://www.w3.org/2000/svg" width="24" height="24" fill="none" stroke="currentColor" stroke-width="2" stroke-linecap="round" stroke-linejoin="round"><path d="M6.873 1.063c-2.219.401-3.463 2.751-2.575 4.865.027.063-.068.069-1.306.08l-1.334.012-.199.102a.796.796 0 0 0-.418.513c-.055.197-.055 5.533 0 5.73a.842.842 0 0 0 .401.515c.167.094.219.101.867.113l.69.014.01 4.686.011 4.687.1.178c.11.197.294.34.515.401.2.056 16.53.056 16.73 0a.842.842 0 0 0 .515-.401l.1-.178.011-4.69.011-4.69h.609c.335 0 .674-.019.754-.041a.842.842 0 0 0 .515-.401l.1-.178V6.62l-.089-.167a.874.874 0 0 0-.213-.254C22.424 6.018 22.267 6 20.929 6c-1.182 0-1.256-.004-1.228-.07.444-1.06.384-2.189-.168-3.163-.584-1.029-1.661-1.686-2.873-1.753-.981-.054-2.019.279-2.875.923-.562.424-1.278 1.271-1.666 1.973-.051.094-.105.17-.119.17-.014 0-.068-.076-.12-.17a7.569 7.569 0 0 0-1.206-1.576C9.621 1.312 8.172.828 6.873 1.063m1.271 2.032c.844.225 1.617 1.008 2.215 2.245.127.264.244.521.259.572l.028.091-1.753-.011L7.14 5.98l-.24-.112a1.675 1.675 0 0 1-.765-.764c-.095-.208-.111-.296-.111-.604-.001-.309.015-.394.11-.6.193-.422.615-.77 1.04-.861.207-.044.701-.015.97.056m8.972.047c.301.137.611.449.749.754.095.208.111.296.111.604.001.309-.015.394-.11.6a1.68 1.68 0 0 1-.762.767l-.244.113-1.753.012-1.753.011.028-.091c.062-.205.504-1.071.686-1.345.235-.353.562-.731.829-.958.257-.219.746-.469 1.023-.524l.3-.062c.194-.045.678.02.896.119M11 9.5V11H3V8h8v1.5m10 0V11h-8V8h8v1.5M11 17v4H5v-8h6v4m8 0v4h-6v-8h6v4" fill-rule="evenodd" fill="#000" stroke="none"/></svg>