<svg xmlns="http://www.w3.org/2000/svg" width="24" height="24" fill="none" stroke="currentColor" stroke-width="2" stroke-linecap="round" stroke-linejoin="round"><path d="M5.614 2.057a.814.814 0 0 0-.505.396l-.089.167L5 8.373l-.02 5.753-.26.091c-.896.314-1.696.96-2.151 1.736a3.992 3.992 0 0 0 1.943 5.751 3.988 3.988 0 0 0 5.192-2.216C9.884 19.04 10 18.459 10 18c0-.673-.224-1.475-.579-2.068-.455-.762-1.304-1.44-2.151-1.717l-.229-.075.022-.14c.165-1.038.372-1.723.753-2.5A7.824 7.824 0 0 1 9.9 8.848c.986-.829 2.31-1.461 3.524-1.683.752-.137.736-.136.736-.064 0 .035.057.203.126.372.429 1.043 1.201 1.818 2.226 2.231a3.988 3.988 0 0 0 5.192-2.216 3.963 3.963 0 0 0 .001-2.972 3.978 3.978 0 0 0-3.1-2.458 3.416 3.416 0 0 0-1.21 0 4 4 0 0 0-3.075 2.388 4.236 4.236 0 0 0-.16.433c-.041.153-.045.156-.271.182A10.194 10.194 0 0 0 8.8 7.154c-.399.309-1.298 1.196-1.582 1.561l-.198.255L7 5.795 6.98 2.62l-.089-.167a.874.874 0 0 0-.213-.254c-.264-.189-.721-.249-1.064-.142m12.909 2.016a2.011 2.011 0 0 1 1.27 2.807c-.155.318-.566.745-.863.895a2.07 2.07 0 0 1-1.422.165c-.685-.178-1.259-.746-1.435-1.417a2.001 2.001 0 0 1 2.45-2.45m-.909 9.984a.814.814 0 0 0-.505.396c-.085.16-.089.215-.101 1.357L16.996 17h-1.092c-1.16 0-1.334.022-1.582.199-.222.158-.302.369-.302.801 0 .331.013.403.1.558.11.197.294.34.515.401.081.023.635.041 1.255.041H17v1.11c0 .62.018 1.174.041 1.255.107.385.396.597.855.626.485.031.803-.109.984-.433.099-.177.1-.184.113-1.368l.012-1.19h1.108c.618 0 1.171-.018 1.252-.041a.842.842 0 0 0 .515-.401c.087-.156.1-.226.099-.558-.001-.433-.081-.645-.301-.801-.248-.177-.422-.199-1.582-.199h-1.091l-.012-1.19c-.012-1.141-.017-1.197-.102-1.357a.874.874 0 0 0-.213-.254c-.264-.189-.721-.249-1.064-.142M6.523 16.073a2.011 2.011 0 0 1 1.444 1.617c.1.653-.094 1.243-.564 1.714C7.002 19.807 6.547 20 6 20c-.515 0-.962-.178-1.347-.535-1.33-1.236-.464-3.46 1.347-3.46.143 0 .378.031.523.068" fill-rule="evenodd" fill="#000" stroke="none"/></svg>