<svg xmlns="http://www.w3.org/2000/svg" width="24" height="24" fill="none" stroke="currentColor" stroke-width="2" stroke-linecap="round" stroke-linejoin="round"><path d="M5.358 2.061c-1.627.254-2.941 1.523-3.275 3.166-.383 1.878.673 3.804 2.457 4.484.176.067.351.132.39.144.066.021.07.328.07 5.694 0 3.676.015 5.722.041 5.816.107.385.396.597.855.626.485.031.803-.109.984-.433l.1-.178.02-3.175.02-3.175.198.255c.286.367 1.184 1.254 1.582 1.562 1.475 1.141 3.162 1.849 4.95 2.076l.37.047.041.154c.181.671.683 1.44 1.255 1.921 2.089 1.759 5.268.972 6.288-1.557a3.963 3.963 0 0 0 .001-2.972 3.978 3.978 0 0 0-3.1-2.458 3.416 3.416 0 0 0-1.21 0c-1.162.176-2.242.899-2.826 1.895-.171.291-.409.842-.409.947 0 .055-.03.061-.19.039a8.34 8.34 0 0 1-3.87-1.614c-.353-.27-.91-.815-1.253-1.225-.831-.994-1.46-2.312-1.682-3.524-.135-.738-.135-.736-.072-.736.031 0 .208-.061.392-.135a3.949 3.949 0 0 0 2.219-2.217 3.963 3.963 0 0 0 .001-2.972 3.978 3.978 0 0 0-3.1-2.458 3.728 3.728 0 0 0-1.247.003m1.165 2.012a2.011 2.011 0 0 1 1.27 2.807c-.155.318-.566.745-.863.895a2.07 2.07 0 0 1-1.422.165c-.685-.178-1.259-.746-1.435-1.417a2.001 2.001 0 0 1 2.45-2.45m12 12a2.011 2.011 0 0 1 1.444 1.617c.1.653-.094 1.243-.564 1.714-.401.403-.856.596-1.403.596-.515 0-.962-.178-1.347-.535-1.33-1.236-.464-3.46 1.347-3.46.143 0 .378.031.523.068" fill-rule="evenodd" fill="#000" stroke="none"/></svg>