<svg xmlns="http://www.w3.org/2000/svg" width="24" height="24" fill="none" stroke="currentColor" stroke-width="2" stroke-linecap="round" stroke-linejoin="round"><path d="M5.614 2.057a.814.814 0 0 0-.505.396l-.089.167L5 8.373l-.02 5.753-.26.091c-.896.314-1.696.96-2.151 1.736a3.992 3.992 0 0 0 1.943 5.751 3.969 3.969 0 0 0 2.976 0A3.974 3.974 0 0 0 9.7 19.5c.061-.154.127-.336.146-.405.034-.123.039-.125.404-.172 1.788-.227 3.475-.935 4.95-2.076.437-.338 1.309-1.21 1.647-1.647 1.141-1.475 1.849-3.162 2.076-4.95.047-.365.049-.37.172-.404.936-.261 1.825-.945 2.341-1.802a4.069 4.069 0 0 0 .485-2.801 4.017 4.017 0 0 0-2.676-3.039A5.111 5.111 0 0 0 18 2c-1.365 0-2.747.787-3.431 1.953a3.992 3.992 0 0 0 1.942 5.75c.186.075.365.137.396.137.063 0 .063-.002-.072.736-.221 1.209-.853 2.533-1.682 3.524-.343.41-.9.955-1.253 1.225a8.34 8.34 0 0 1-3.87 1.614c-.151.02-.19.014-.19-.032 0-.1-.265-.718-.419-.975-.456-.764-1.256-1.405-2.141-1.715l-.26-.091L7 8.373 6.98 2.62l-.089-.167a.874.874 0 0 0-.213-.254c-.264-.189-.721-.249-1.064-.142m12.909 2.016a2.011 2.011 0 0 1 1.27 2.807c-.155.318-.566.745-.863.895a2.07 2.07 0 0 1-1.422.165c-.685-.178-1.259-.746-1.435-1.417a2.001 2.001 0 0 1 2.45-2.45m-12 12a2.011 2.011 0 0 1 1.444 1.617c.1.653-.094 1.243-.564 1.714C7.002 19.807 6.547 20 6 20c-.515 0-.962-.178-1.347-.535-1.33-1.236-.464-3.46 1.347-3.46.143 0 .378.031.523.068" fill-rule="evenodd" fill="#000" stroke="none"/></svg>