<svg xmlns="http://www.w3.org/2000/svg" width="24" height="24" fill="none" stroke="currentColor" stroke-width="2" stroke-linecap="round" stroke-linejoin="round"><path d="M11.358 8.061c-1.507.235-2.761 1.354-3.215 2.869-.019.066-.182.07-2.675.07-2.836 0-2.87.002-3.146.199-.222.158-.302.369-.302.801 0 .331.013.403.1.558.11.197.294.34.515.401.091.025 1.15.041 2.816.041 2.51 0 2.673.004 2.692.07.367 1.222 1.219 2.17 2.369 2.634a3.969 3.969 0 0 0 2.976 0 3.936 3.936 0 0 0 2.223-2.244c.067-.176.132-.351.144-.39.021-.066.185-.07 2.694-.07 1.666 0 2.725-.016 2.816-.041a.842.842 0 0 0 .515-.401c.087-.156.1-.226.099-.558-.001-.433-.081-.645-.301-.801-.276-.197-.31-.199-3.146-.199-2.493 0-2.656-.004-2.677-.07a14.09 14.09 0 0 0-.144-.39c-.498-1.308-1.703-2.27-3.106-2.482a3.728 3.728 0 0 0-1.247.003m1.165 2.012a2.011 2.011 0 0 1 1.444 1.617c.1.653-.094 1.243-.564 1.714-.401.403-.856.596-1.403.596-.515 0-.962-.178-1.347-.535-1.33-1.236-.464-3.46 1.347-3.46.143 0 .378.031.523.068" fill="#000" fill-rule="evenodd" stroke="none"/></svg>