<svg xmlns="http://www.w3.org/2000/svg" width="24" height="24" fill="none" stroke="currentColor" stroke-width="2" stroke-linecap="round" stroke-linejoin="round"><path d="M4.651.121c-.274.137-.398.289-.553.681-.425 1.076-.534 2.461-.274 3.487l.058.229-.238.351a6.563 6.563 0 0 0-1.047 2.544c-.126.652-.115 1.927.025 2.883.131.893.484 2.014.826 2.622.915 1.623 2.323 2.665 4.382 3.243.233.065.431.127.441.136.009.01-.022.136-.07.281a4.152 4.152 0 0 0-.2 1.268L8 18.232l-.344.049c-.535.075-1.21.036-1.575-.094-.578-.204-.917-.497-1.691-1.461-.77-.961-1.311-1.413-1.94-1.623-.733-.244-1.206-.053-1.395.563-.192.628.032 1.103.599 1.274.377.114.538.259 1.221 1.1.941 1.159 1.526 1.643 2.389 1.976.59.228.937.284 1.756.284.396 0 .779-.013.85-.029l.13-.029v.989c0 .544.019 1.054.041 1.134.107.385.396.597.855.626.591.037.958-.19 1.068-.662.019-.082.035-1.184.037-2.449.002-2.551.006-2.594.26-3.075.077-.146.23-.371.341-.5.264-.308.328-.464.334-.805.003-.22-.016-.321-.09-.472-.139-.28-.371-.401-.94-.487-2.287-.347-3.668-1.025-4.442-2.181-.675-1.008-.981-2.289-.933-3.911.017-.593.037-.768.122-1.07a4.722 4.722 0 0 1 .984-1.819c.397-.461.436-.692.232-1.369a4.03 4.03 0 0 1-.173-1.431c.027-.378.075-.665.121-.71.045-.046.802.234 1.27.47.261.132.708.385.995.563.738.458.761.462 1.549.278a11.26 11.26 0 0 1 2.869-.33c1.084 0 1.816.084 2.869.33.788.184.811.18 1.549-.278.681-.423 1.373-.77 1.858-.93.316-.104.396-.118.423-.074.018.029.056.234.083.454.075.616.01 1.202-.208 1.862a1.078 1.078 0 0 0-.063.485c.023.26.072.349.392.726a4.84 4.84 0 0 1 .967 1.847c.082.297.09.413.089 1.267-.002.784-.016 1.019-.088 1.42-.328 1.817-1.088 2.926-2.471 3.603-.738.361-1.604.604-2.689.753-.527.072-.694.147-.938.418-.393.437-.361.796.121 1.368.13.155.294.398.363.539.234.475.242.568.243 3.099 0 1.415.016 2.356.041 2.445.107.385.396.597.855.626.485.031.803-.109.984-.433l.1-.178.012-2.42c.013-2.573.001-2.808-.175-3.36a3.99 3.99 0 0 1-.096-.326c-.001-.014.067-.037.149-.052.466-.085 1.377-.404 1.891-.662.746-.375 1.291-.773 1.819-1.326 1.157-1.212 1.782-2.858 1.897-5.001.094-1.764-.238-3.058-1.121-4.364l-.238-.351.058-.229c.26-1.024.15-2.413-.274-3.487-.155-.392-.279-.544-.553-.681C20.121.007 20.081 0 19.632 0c-.543 0-.905.063-1.512.265-.496.164-1.386.587-1.92.912l-.38.231-.28-.063c-.953-.215-1.927-.316-3.04-.316s-2.087.101-3.04.316l-.28.063-.38-.231C8.266.852 7.376.429 6.88.265 6.273.063 5.911 0 5.368 0c-.449 0-.489.007-.717.121" fill-rule="evenodd" fill="#000" stroke="none"/></svg>