<svg xmlns="http://www.w3.org/2000/svg" width="24" height="24" fill="none" stroke="currentColor" stroke-width="2" stroke-linecap="round" stroke-linejoin="round"><path d="M4.837.919c-.38.067-.804.38-.976.719-.051.1-.642 1.874-1.314 3.942C.181 12.862.035 13.325.013 13.6c-.04.484.182 1.064.539 1.409.22.211 10.831 7.93 11.068 8.05a.932.932 0 0 0 .76 0c.202-.103 10.68-7.714 10.989-7.983.459-.399.631-.78.631-1.394v-.396l-.654-1.933A665.79 665.79 0 0 1 21.46 5.62c-.677-2.09-1.266-3.869-1.309-3.954a1.452 1.452 0 0 0-1.019-.747c-.276-.045-.672.009-.893.121-.205.105-.525.425-.615.616-.04.085-.351 1.012-.691 2.06-.34 1.047-.842 2.593-1.117 3.434l-.499 1.53-3.322-.01-3.321-.01-1.13-3.464c-.637-1.954-1.178-3.546-1.24-3.652-.127-.217-.517-.524-.738-.58a1.94 1.94 0 0 0-.729-.045M6.08 7.16c.512 1.573.962 2.924 1.002 3.002.11.218.314.394.534.459.297.088 8.47.088 8.767 0a.987.987 0 0 0 .547-.481c.033-.066.479-1.416.992-3s.943-2.892.955-2.907c.013-.015.382 1.083.82 2.44a520.734 520.734 0 0 0 1.551 4.705c.414 1.23.739 2.25.722 2.266-.145.138-9.924 7.211-9.97 7.211-.042 0-9.817-7.067-9.952-7.194-.012-.012.661-2.106 2.215-6.891.459-1.413.846-2.547.861-2.52.015.028.445 1.337.956 2.91" fill-rule="evenodd" fill="#000" stroke="none"/></svg>