<svg xmlns="http://www.w3.org/2000/svg" width="24" height="24" fill="none" stroke="currentColor" stroke-width="2" stroke-linecap="round" stroke-linejoin="round"><path d="M7.36 4.042c-1.369.163-2.352.886-3.149 2.318-.132.237-2.831 6.701-2.964 7.1-.17.506-.227.894-.227 1.54 0 .67.058 1.044.248 1.6.578 1.691 1.985 2.925 3.772 3.307.471.101 1.449.101 1.92 0 1.528-.327 2.788-1.277 3.473-2.619.348-.684.507-1.268.564-2.088.018-.253.06-.526.094-.607.135-.319.555-.593.909-.593s.774.274.909.593c.034.081.076.354.094.607.018.253.062.604.098.78.405 1.981 1.924 3.496 3.939 3.927.471.101 1.449.101 1.92 0 1.528-.327 2.788-1.277 3.473-2.619.405-.794.547-1.389.547-2.288 0-.646-.057-1.034-.227-1.54-.183-.547-2.855-6.905-3.025-7.198-.84-1.446-1.913-2.147-3.44-2.247-.854-.056-1.235.208-1.279.885-.031.477.11.801.425.974.133.074.269.102.618.13.72.058 1.051.187 1.413.55.374.374.586.768 1.189 2.212.316.756.571 1.378.567 1.383a.486.486 0 0 1-.136-.027 5.678 5.678 0 0 0-.608-.086c-.739-.074-1.576.033-2.229.284-.934.359-1.862 1.088-2.385 1.876a2.433 2.433 0 0 1-.205.284c-.008 0-.128-.062-.267-.138-.418-.229-.811-.319-1.391-.319s-.973.09-1.391.319a3.236 3.236 0 0 1-.268.138c-.009 0-.103-.13-.208-.288-.523-.781-1.421-1.494-2.34-1.855a5.058 5.058 0 0 0-2.27-.301 5.678 5.678 0 0 0-.608.086.486.486 0 0 1-.136.027c-.015-.02 1.102-2.663 1.204-2.849.321-.583.719-1.002 1.077-1.137.259-.096.637-.162.94-.163.428-.001.713-.144.88-.442.087-.156.1-.226.099-.558-.001-.313-.017-.409-.089-.547-.21-.396-.654-.516-1.53-.411m-.499 8.087c.943.276 1.723 1.054 2.014 2.01.083.273.098.403.098.861 0 .458-.015.588-.098.861a3.073 3.073 0 0 1-2.035 2.025c-.434.135-1.246.135-1.68 0a3.073 3.073 0 0 1-2.035-2.025c-.083-.273-.098-.403-.098-.861 0-.458.015-.588.098-.861a3.042 3.042 0 0 1 2.374-2.099c.333-.06 1.001-.017 1.362.089m12 0c.943.276 1.723 1.054 2.014 2.01.083.273.098.403.098.861 0 .458-.015.588-.098.861a3.073 3.073 0 0 1-2.035 2.025c-.434.135-1.246.135-1.68 0a3.073 3.073 0 0 1-2.035-2.025c-.083-.273-.098-.403-.098-.861 0-.458.015-.588.098-.861a3.042 3.042 0 0 1 2.374-2.099c.333-.06 1.001-.017 1.362.089" fill-rule="evenodd" fill="#000" stroke="none"/></svg>