<svg xmlns="http://www.w3.org/2000/svg" width="24" height="24" fill="none" stroke="currentColor" stroke-width="2" stroke-linecap="round" stroke-linejoin="round"><path d="m11.28 1.023-.56.06A10.685 10.685 0 0 0 7.18 2.12c-1.135.551-1.987 1.165-2.942 2.119-.961.959-1.595 1.841-2.141 2.981C.301 10.968.728 15.286 3.226 18.633c.46.615 1.526 1.681 2.141 2.141 1.37 1.022 2.889 1.702 4.49 2.01.288.055.611.126.718.158.235.07 1.671.08 2.385.017a11.114 11.114 0 0 0 5.677-2.189c.609-.454 1.679-1.524 2.133-2.133 2.974-3.985 2.974-9.289 0-13.274-.454-.608-1.523-1.677-2.13-2.128-1.595-1.186-3.275-1.875-5.217-2.139C13 1.038 11.574.99 11.28 1.023m2.04 2.078a9.058 9.058 0 0 1 6.014 3.685l.148.206-1.011.017c-.93.017-1.037.026-1.332.116a3.063 3.063 0 0 0-2.015 2.015c-.046.154-.1.469-.12.7-.02.231-.056.471-.08.533a1.088 1.088 0 0 1-.44.499c-.156.091-.23.108-.484.108s-.328-.017-.484-.108c-.358-.211-.49-.479-.528-1.072-.054-.835-.411-1.534-1.077-2.105-.524-.45-1.064-.641-1.951-.693-.609-.035-.817-.087-1.172-.295-.221-.13-.538-.455-.678-.697l-.109-.19L8 4.874v-.945l.37-.161a9.315 9.315 0 0 1 2.95-.743c.356-.033 1.589.014 2 .076M6.211 6.694c.241.506.462.813.854 1.186.77.734 1.705 1.119 2.718 1.12.45 0 .691.08.914.304.214.214.284.42.319.941.082 1.213.935 2.264 2.144 2.641.258.081.379.094.86.091.488-.003.6-.016.867-.105 1.186-.393 2.016-1.433 2.097-2.627.035-.522.105-.727.319-.942.293-.293.378-.306 1.895-.294l1.294.011.073.214c.117.344.265.99.341 1.486.131.855.078 2.475-.103 3.152l-.029.108-2.157.021-2.157.022-.321.1c-.956.298-1.699 1.038-2.024 2.017-.092.277-.093.304-.106 2.464l-.013 2.185-.388.066a9.582 9.582 0 0 1-1.355.145h-.248l-.014-1.79c-.014-1.743-.017-1.797-.107-2.07a3.137 3.137 0 0 0-.973-1.445c-.479-.411-1.034-.625-1.79-.69-.497-.042-.704-.131-.895-.38-.186-.244-.2-.324-.228-1.285-.024-.794-.04-.958-.117-1.2a3.088 3.088 0 0 0-2.02-2.016c-.302-.092-.389-.099-1.475-.115l-1.154-.016.027-.147c.063-.338.405-1.265.659-1.786a8.826 8.826 0 0 1 1.71-2.406L5.98 5.3l.021.5c.021.495.024.504.21.894m-.903 5.366c.235.07.504.308.603.533.05.114.071.354.092 1.067.023.792.039.959.116 1.2.38 1.194 1.432 2.042 2.636 2.124.521.035.727.105.941.319.294.294.304.359.304 2.029v1.437l-.15-.028c-.677-.127-2.08-.741-2.81-1.23a9.042 9.042 0 0 1-3.12-3.571c-.552-1.138-.824-2.189-.904-3.49L2.989 12h1.058c.826 0 1.103.013 1.261.06m14.732 3.967c0 .014-.075.163-.166.33-.658 1.202-1.732 2.367-2.894 3.139-.316.21-.902.544-.953.544-.015 0-.027-.708-.027-1.573 0-1.817.007-1.868.301-2.161.298-.298.304-.299 2.129-.303.886-.002 1.61.009 1.61.024" fill-rule="evenodd" fill="#000" stroke="none"/></svg>