<svg xmlns="http://www.w3.org/2000/svg" width="24" height="24" fill="none" stroke="currentColor" stroke-width="2" stroke-linecap="round" stroke-linejoin="round"><path d="m11.48 1.004-.74.078c-1.889.194-3.742.935-5.38 2.153-.609.453-1.676 1.52-2.134 2.132C.728 8.714.301 13.032 2.097 16.78c.546 1.138 1.179 2.021 2.141 2.982.961.962 1.844 1.595 2.982 2.141 1.286.616 2.493.937 4.06 1.079.839.076.645.076 1.46 0 2.309-.217 4.149-.907 5.897-2.212.609-.454 1.679-1.524 2.133-2.133 2.974-3.985 2.974-9.289 0-13.274-.454-.608-1.523-1.677-2.13-2.128-1.631-1.213-3.481-1.955-5.36-2.151-1.309-.137-1.298-.136-1.8-.08M9.642 3.41C8.325 5.415 7.388 7.99 7.12 10.34c-.025.22-.054.458-.065.53l-.019.13H3.069l.025-.239c.114-1.096.679-2.624 1.346-3.641a9.104 9.104 0 0 1 4.72-3.657c.297-.099.546-.181.554-.182.008 0-.025.058-.072.129m5.658.219c1.709.668 3.22 1.906 4.26 3.491.667 1.017 1.232 2.545 1.346 3.641l.025.239h-3.967l-.019-.13c-.01-.072-.057-.418-.103-.77a15.933 15.933 0 0 0-1.561-5.06 19.115 19.115 0 0 0-.935-1.648l-.072-.107.333.102c.183.056.495.165.693.242m-3.032.284c.799 1.078 1.592 2.638 2.037 4.007.274.841.531 2.035.598 2.771l.028.309H9.069l.028-.309c.159-1.756.897-3.963 1.884-5.631.399-.675.979-1.505 1.029-1.474.017.011.133.157.258.327M7.055 13.13c.011.072.04.31.065.53.267 2.348 1.206 4.928 2.521 6.927l.084.128-.333-.101A9.071 9.071 0 0 1 4.44 16.88c-.667-1.017-1.232-2.545-1.346-3.641L3.069 13h3.967l.019.13m7.848.179c-.092 1.015-.449 2.461-.882 3.571-.453 1.159-1.395 2.832-1.955 3.469l-.078.089-.235-.321a14.729 14.729 0 0 1-2.059-4.037c-.273-.845-.53-2.037-.597-2.771L9.069 13h5.862l-.028.309m6.003-.07c-.081.778-.408 1.848-.824 2.701a9.012 9.012 0 0 1-5.475 4.674l-.333.101.072-.107c.237-.356.662-1.105.932-1.644a15.913 15.913 0 0 0 1.564-5.064c.046-.352.093-.698.103-.77l.019-.13h3.967l-.025.239" fill-rule="evenodd" fill="#000" stroke="none"/></svg>