<svg xmlns="http://www.w3.org/2000/svg" width="24" height="24" fill="none" stroke="currentColor" stroke-width="2" stroke-linecap="round" stroke-linejoin="round"><path d="M11.499 5.04c-.735.134-1.321.479-1.829 1.08-.111.132-.209.24-.218.24-.008 0-.085-.036-.171-.079a3.274 3.274 0 0 0-.468-.169c-.455-.131-1.22-.124-1.674.013A3.09 3.09 0 0 0 5.116 8.14c-.086.265-.092.353-.107 1.646l-.015 1.365-.207-.058a3.892 3.892 0 0 0-.627-.08c-1.239-.067-2.307.562-2.864 1.687-.297.601-.362 1.235-.237 2.308a9.007 9.007 0 0 0 4.021 6.523c1.127.746 2.516 1.246 3.912 1.41.733.085 5.283.085 6.016 0a8.939 8.939 0 0 0 2.932-.857 9.012 9.012 0 0 0 5.021-7.244c.029-.3.04-1.151.031-2.44-.014-1.943-.016-1.985-.107-2.26-.324-.979-1.075-1.726-2.024-2.015-.534-.162-1.41-.136-1.913.057-.037.015-.071-.034-.105-.15-.182-.615-.763-1.304-1.402-1.664-.444-.249-.819-.34-1.421-.343-.55-.003-.947.075-1.301.256a1.638 1.638 0 0 1-.171.079c-.009 0-.107-.108-.218-.24-.607-.717-1.31-1.067-2.21-1.101a3.935 3.935 0 0 0-.621.021m.811 2.021a.893.893 0 0 1 .387.242c.291.291.303.367.303 1.954 0 .79.017 1.424.041 1.508.107.385.396.597.855.626.485.031.803-.109.984-.433.098-.174.101-.203.121-1.198.023-1.149.033-1.198.32-1.477C15.49 8.12 15.777 8 16 8c.237 0 .514.12.697.303.292.293.303.363.303 1.997 0 1.572.017 1.705.249 1.929.193.187.398.258.748.259.351.002.559-.07.754-.259.179-.173.249-.434.249-.929 0-.537.068-.762.303-.997.183-.183.46-.303.697-.303.238 0 .514.12.697.304.312.312.314.323.292 2.529-.022 2.27-.054 2.542-.416 3.547a7.014 7.014 0 0 1-4.848 4.398c-.78.196-.896.202-3.725.202s-2.945-.006-3.725-.202c-3.021-.759-5.21-3.507-5.249-6.589-.007-.493.042-.646.279-.884a.98.98 0 0 1 1.39 0c.183.184.27.4.303.751.017.178.058.387.091.464.136.313.453.48.911.48.329 0 .577-.082.748-.248.256-.247.252-.203.252-3.192 0-3.061-.011-2.943.306-3.26.18-.179.458-.3.694-.3.237 0 .514.12.697.303.26.26.303.438.303 1.254 0 .365.019.728.041.808.107.385.396.597.855.626.485.031.803-.109.984-.433.1-.177.1-.182.121-1.498.023-1.483.024-1.489.321-1.777.267-.259.606-.336.988-.222" fill-rule="evenodd" fill="#000" stroke="none"/></svg>