<svg xmlns="http://www.w3.org/2000/svg" width="24" height="24" fill="none" stroke="currentColor" stroke-width="2" stroke-linecap="round" stroke-linejoin="round"><path d="M11.68 4.055c-.33.128-10.237 5.107-10.35 5.203-.168.141-.33.482-.358.754a.769.769 0 0 0 .323.716c.091.066.961.518 1.934 1.005l1.769.885.011 2.341.011 2.341.112.191c.127.216.676.711 1.195 1.078 1.128.797 2.598 1.349 4.253 1.597.232.035.736.054 1.42.054.684 0 1.188-.019 1.42-.054 1.655-.248 3.125-.8 4.253-1.597.519-.367 1.068-.862 1.195-1.078l.112-.191.011-2.341.011-2.341.979-.489c.539-.269.988-.489.999-.489.011 0 .02 1.031.02 2.29 0 1.411.016 2.346.041 2.435.107.385.396.597.855.626.485.031.803-.109.984-.433l.1-.178.022-3.32.021-3.32-.101-.217c-.096-.205-.347-.446-.458-.441-.024.001-2.323-1.136-5.109-2.527-4.761-2.377-5.08-2.53-5.3-2.541a1.113 1.113 0 0 0-.375.041m4.18 3.995c2.123 1.061 3.86 1.939 3.86 1.951 0 .012-.49.261-1.09.554-.6.293-1.153.568-1.23.61-.077.042-1.323.67-2.77 1.396L12 13.88l-2.63-1.319a481.212 481.212 0 0 1-2.77-1.396c-.077-.042-.63-.317-1.23-.61s-1.09-.542-1.09-.554c0-.016 7.653-3.866 7.71-3.879.005-.001 1.747.866 3.87 1.928m-6.479 6.76 2.342 1.17h.554l2.342-1.17c1.288-.643 2.351-1.17 2.362-1.17.01 0 .018.662.018 1.47l-.002 1.47-.268.203c-1.24.939-2.922 1.457-4.729 1.457-1.815 0-3.475-.511-4.729-1.457l-.268-.203-.002-1.47c0-.808.008-1.47.018-1.47.011 0 1.074.527 2.362 1.17" fill-rule="evenodd" fill="#000" stroke="none"/></svg>