<svg xmlns="http://www.w3.org/2000/svg" width="24" height="24" fill="none" stroke="currentColor" stroke-width="2" stroke-linecap="round" stroke-linejoin="round"><path d="M4.499 2.043C3.38 2.232 2.461 3.048 2.114 4.16l-.094.3v15.08l.094.3a3.086 3.086 0 0 0 2.046 2.046l.3.094h15.08l.3-.094a3.086 3.086 0 0 0 2.046-2.046l.094-.3V4.46l-.094-.3a3.089 3.089 0 0 0-2.025-2.039l-.321-.101-7.42-.006c-4.081-.003-7.511.01-7.621.029M8 6v2H4V6.447c0-1.798.007-1.848.304-2.144.292-.292.325-.297 2.126-.3L8 4v2m6 0v2h-4V4h4v2m5.31-1.939a.893.893 0 0 1 .387.242c.296.296.303.347.303 2.144V8h-4V4h1.553c1.273 0 1.589.011 1.757.061M8 12v2H4v-4h4v2m6 0v2h-4v-4h4v2m6 0v2h-4v-4h4v2M8 18.002v2.001l-1.65-.011-1.65-.012-.184-.108a1.199 1.199 0 0 1-.291-.249c-.219-.287-.225-.34-.225-2.048V16h4v2.002M14 18v2h-4v-4h4v2m6-.446c0 1.688-.011 1.788-.221 2.064-.061.08-.194.195-.295.254l-.184.108-1.65.012-1.65.011V16h4v1.554" fill="#000" fill-rule="evenodd" stroke="none"/></svg>