<svg xmlns="http://www.w3.org/2000/svg" width="24" height="24" fill="none" stroke="currentColor" stroke-width="2" stroke-linecap="round" stroke-linejoin="round"><path d="M8.614 2.015c-.42.136-.591.392-.593.885-.002.489.055.574.854 1.29.372.332.783.736.913.897.74.909 1.114 1.869 1.195 3.067l.028.414-4.239 4.246c-2.643 2.647-4.292 4.329-4.38 4.466-.38.592-.491.98-.491 1.72 0 .443.016.597.092.86a3.225 3.225 0 0 0 2.147 2.147c.459.132 1.261.132 1.72 0 .379-.109.75-.304 1.08-.569.132-.106 2.103-2.057 4.38-4.335l4.14-4.143h.644l.582.493.582.492-.253.266a2.56 2.56 0 0 0-.338.435c-.174.341-.082.711.262 1.055.346.347.711.436 1.064.26.249-.125 4.833-4.709 4.958-4.958.176-.353.087-.718-.26-1.064-.235-.235-.45-.339-.701-.339-.268 0-.454.099-.802.428l-.282.266-.34-.337c-.409-.406-.596-.675-.726-1.05-.086-.247-.101-.381-.126-1.084-.023-.654-.042-.829-.1-.943-.102-.198-3.215-3.296-3.604-3.586-.873-.651-1.757-1.032-2.88-1.242-.458-.086-4.28-.116-4.526-.037m4.006 1.989a4.747 4.747 0 0 1 1.997.744c.195.128.72.62 1.693 1.587l1.41 1.402v.342c.001.738.171 1.443.502 2.071.212.404.417.673.899 1.183l.373.393-.402.401-.401.402-.816-.691c-.453-.384-.904-.732-1.015-.784-.195-.091-.23-.093-1.32-.094h-1.121l-.715-.716-.716-.717.031-.233c.017-.129.03-.261.028-.294-.093-1.712-.153-2.091-.47-3.003-.226-.649-.547-1.246-1.052-1.96-.053-.075-.043-.077.34-.077.217 0 .557.02.755.044m-.3 7.696.78.78-3.72 3.721c-2.73 2.73-3.768 3.744-3.899 3.808-.537.261-1.204.029-1.481-.514-.129-.251-.14-.708-.023-.955.051-.109 1.258-1.345 3.799-3.89a483.24 483.24 0 0 1 3.744-3.73c.011 0 .371.351.8.78" fill-rule="evenodd" fill="#000" stroke="none"/></svg>