<svg xmlns="http://www.w3.org/2000/svg" width="24" height="24" fill="none" stroke="currentColor" stroke-width="2" stroke-linecap="round" stroke-linejoin="round"><path d="M11.499 1.04c-.73.133-1.311.474-1.82 1.068-.216.252-.442.652-.522.924-.034.116-.068.165-.105.15-.503-.193-1.379-.219-1.913-.057-.949.289-1.696 1.032-2.025 2.015l-.093.28-.012 3.254c-.011 2.87-.019 3.251-.072 3.23-.339-.13-.549-.162-1.037-.16-.592.002-.872.062-1.312.279a3.048 3.048 0 0 0-1.594 1.926c-.109.408-.119 1.117-.02 1.491.094.357.308.797.521 1.071.247.318 4.215 4.259 4.594 4.564 1.41 1.133 2.889 1.703 4.891 1.885.704.064 3.428.051 4.028-.019a8.939 8.939 0 0 0 2.932-.857 9.008 9.008 0 0 0 5.02-7.244c.031-.313.041-1.57.032-3.94l-.013-3.48-.093-.28c-.329-.983-1.076-1.727-2.025-2.015-.534-.162-1.41-.136-1.913.057-.037.015-.071-.034-.105-.15-.246-.831-1.079-1.632-1.982-1.907-.534-.162-1.41-.136-1.913.057-.037.015-.071-.034-.105-.15-.246-.833-1.089-1.642-1.982-1.903-.361-.106-1.029-.149-1.362-.089m.811 2.021c.279.083.546.35.629.629.052.175.061.653.061 3.367 0 1.996.015 3.216.041 3.308.107.385.396.597.855.626.485.031.803-.109.984-.433l.1-.178.02-2.32c.022-2.6.008-2.472.321-2.777C15.49 5.12 15.777 5 16 5c.237 0 .514.12.697.303.311.312.303.223.303 3.254 0 1.661.016 2.717.041 2.808.107.385.396.597.855.626.485.031.803-.109.984-.433l.1-.178.02-1.82c.022-2.041.013-1.978.321-2.277C19.49 7.12 19.777 7 20 7c.238 0 .514.12.697.304.324.323.311.139.29 4.045-.018 3.599-.02 3.643-.204 4.371-.622 2.459-2.604 4.442-5.058 5.058-.747.187-.955.202-2.885.202-1.543 0-1.888-.011-2.263-.07-1.171-.186-1.995-.512-2.907-1.148-.497-.347-4.557-4.369-4.677-4.632a1.171 1.171 0 0 1-.014-.794 1.11 1.11 0 0 1 .481-.508c.223-.119.656-.12.88-.001.088.047.309.245.49.439.681.729 1.593 1.583 1.81 1.694.348.177.714.088 1.061-.259s.436-.713.259-1.062c-.05-.096-.286-.376-.525-.621L7 13.573V9.714c0-4.352-.018-4.089.306-4.414.18-.179.458-.3.694-.3.237 0 .514.12.697.303.309.309.303.252.303 2.997 0 2.666.002 2.69.249 2.929.193.187.398.258.748.259.351.002.559-.07.754-.259.254-.246.249-.165.249-3.929 0-3.86-.014-3.68.304-3.997.279-.279.612-.359 1.006-.242" fill-rule="evenodd" fill="#000" stroke="none"/></svg>