<svg xmlns="http://www.w3.org/2000/svg" width="24" height="24" fill="none" stroke="currentColor" stroke-width="2" stroke-linecap="round" stroke-linejoin="round"><path d="M7.499 2.04c-1.125.204-2.011.984-2.385 2.1l-.094.28-.011 3.754c-.01 3.32-.019 3.751-.072 3.73-.339-.13-.549-.162-1.037-.16-.592.002-.872.062-1.312.279a3.048 3.048 0 0 0-1.594 1.926c-.109.408-.119 1.117-.02 1.491.094.357.308.797.521 1.071.247.318 4.215 4.259 4.594 4.564 1.41 1.133 2.889 1.703 4.891 1.885.704.064 3.428.051 4.028-.019a8.939 8.939 0 0 0 2.932-.857 9.007 9.007 0 0 0 5.02-7.244c.031-.316.041-1.707.032-4.44l-.012-3.98-.094-.28c-.33-.984-1.075-1.726-2.025-2.015-.273-.083-.403-.098-.861-.098-.458 0-.588.015-.861.098a3.006 3.006 0 0 0-2.127 2.666c-.02.314-.034.368-.088.352l-.244-.069c-.101-.028-.401-.05-.68-.051-.528 0-.937.082-1.281.258a1.638 1.638 0 0 1-.171.079c-.009 0-.107-.108-.218-.24-.422-.499-.898-.821-1.469-.995-.267-.081-.409-.098-.841-.1-.307-.001-.594.019-.7.049l-.246.07c-.059.017-.067-.069-.084-.853-.016-.762-.029-.906-.108-1.151-.312-.971-1.081-1.736-2.021-2.011-.361-.106-1.029-.149-1.362-.089m.811 2.021c.279.083.546.35.629.629.052.175.061.653.061 3.367 0 1.996.015 3.216.041 3.308.107.385.396.597.855.626.485.031.803-.109.984-.433.1-.177.1-.182.121-1.498.023-1.483.024-1.489.32-1.777C11.49 8.12 11.777 8 12 8c.237 0 .514.12.697.303.291.291.303.367.303 1.954 0 .79.017 1.424.041 1.508.107.385.396.597.855.626.485.031.803-.109.984-.433.098-.174.101-.203.121-1.198.023-1.149.033-1.198.32-1.477C15.49 9.12 15.777 9 16 9c.237 0 .514.12.697.303.292.293.303.363.303 1.997 0 1.572.017 1.705.249 1.929.193.187.398.258.748.259.351.002.559-.07.754-.259.251-.243.249-.214.249-3.429 0-3.302-.01-3.183.303-3.497.183-.183.46-.303.697-.303.238 0 .514.12.697.304.326.325.31.08.29 4.544-.018 4.143-.017 4.132-.204 4.872-.622 2.459-2.604 4.442-5.058 5.058-.747.187-.955.202-2.885.202-1.543 0-1.888-.011-2.263-.07-1.171-.186-1.995-.512-2.907-1.148-.497-.347-4.557-4.369-4.677-4.632a1.171 1.171 0 0 1-.014-.794 1.11 1.11 0 0 1 .481-.508c.223-.119.656-.12.88-.001.088.047.309.245.49.439.681.729 1.593 1.583 1.81 1.694.348.177.714.088 1.061-.259s.436-.713.259-1.062c-.05-.096-.286-.376-.525-.621L7 13.573V9.214c0-4.912-.02-4.587.307-4.915.275-.275.611-.355 1.003-.238" fill-rule="evenodd" fill="#000" stroke="none"/></svg>