<svg xmlns="http://www.w3.org/2000/svg" width="24" height="24" fill="none" stroke="currentColor" stroke-width="2" stroke-linecap="round" stroke-linejoin="round"><path d="M6.781 3.044c-.788.117-1.586.63-2.035 1.309-.098.147-.927 1.761-1.844 3.587a271.11 271.11 0 0 1-1.774 3.5l-.108.18v6.92l.094.3a3.086 3.086 0 0 0 2.046 2.046l.3.094h17.08l.3-.094a3.086 3.086 0 0 0 2.046-2.046l.094-.3v-6.92l-.108-.18a271.11 271.11 0 0 1-1.774-3.5c-.917-1.826-1.746-3.44-1.844-3.587a3.11 3.11 0 0 0-1.149-1.013c-.703-.345-.2-.318-5.965-.325-2.816-.004-5.227.009-5.359.029m10.318 2.022c.374.127.39.154 1.88 3.132.759 1.518 1.381 2.77 1.381 2.781 0 .012-3.762.021-8.36.021-4.598 0-8.36-.009-8.36-.02 0-.011.623-1.267 1.385-2.79 1.101-2.203 1.416-2.8 1.537-2.916.298-.284-.043-.267 5.421-.271 4.466-.003 4.941.003 5.116.063M21 15.554c0 2.771 0 2.774-.221 3.064-.061.08-.194.195-.295.254l-.184.108H3.7l-.184-.108a1.199 1.199 0 0 1-.291-.249c-.229-.3-.225-.25-.225-3.048V13h18v2.554m-15.386-.499c-.394.129-.575.382-.605.845-.031.481.11.799.433.98.155.087.227.1.558.1.312 0 .408-.016.54-.086.326-.176.46-.435.46-.894 0-.643-.287-.952-.917-.984-.19-.01-.365.005-.469.039m4 0c-.394.129-.575.382-.605.845-.031.481.11.799.433.98.155.087.227.1.558.1.312 0 .408-.016.54-.086.326-.176.46-.435.46-.894 0-.643-.287-.952-.917-.984-.19-.01-.365.005-.469.039" fill-rule="evenodd" fill="#000" stroke="none"/></svg>