<svg xmlns="http://www.w3.org/2000/svg" width="24" height="24" fill="none" stroke="currentColor" stroke-width="2" stroke-linecap="round" stroke-linejoin="round"><path d="M10.477 3.073c-.671.176-1.239.75-1.417 1.435-.033.126-.06.305-.06.399 0 .165-.004.17-.15.193-2.666.427-4.941 2.499-5.614 5.114-.182.704-.202.921-.224 2.368l-.02 1.401-.306.049a2.262 2.262 0 0 0-.566.175c-.318.155-.745.567-.895.863C1.018 15.479 1 15.632 1 17c0 1.368.018 1.521.225 1.93.136.269.576.709.845.845.473.24-.182.225 9.93.225s9.457.015 9.93-.225c.266-.135.708-.575.841-.838.208-.41.229-.585.228-1.923 0-1.341-.024-1.55-.224-1.945-.15-.295-.577-.707-.895-.862a2.262 2.262 0 0 0-.566-.175l-.306-.049-.02-1.401c-.025-1.672-.073-2.01-.415-2.962-.848-2.358-2.97-4.127-5.423-4.52-.142-.022-.15-.032-.151-.172 0-.219-.105-.622-.218-.845-.23-.455-.759-.88-1.258-1.01-.389-.101-2.657-.101-3.046 0M13 7.61c0 1.625.016 2.665.041 2.755.107.385.396.597.855.626.485.031.803-.109.984-.433l.1-.178.012-1.634.012-1.634.148.027c.252.046.732.224 1.088.402a5.035 5.035 0 0 1 2.598 3.219c.123.48.162 1.003.162 2.158V14H5v-1.082c0-1.155.039-1.678.162-2.158A5.04 5.04 0 0 1 7.76 7.541c.357-.179.837-.356 1.09-.402L9 7.111v1.555c0 .917.017 1.613.041 1.699.107.385.396.597.855.626.485.031.803-.109.984-.433l.1-.178.011-2.69.012-2.69H13v2.61M21 17v1H3v-2h18v1" fill-rule="evenodd" fill="#000" stroke="none"/></svg>