<svg xmlns="http://www.w3.org/2000/svg" width="24" height="24" fill="none" stroke="currentColor" stroke-width="2" stroke-linecap="round" stroke-linejoin="round"><path d="M9.58 2.046c-.295.111-.457.309-.536.654-.035.154-.604 5.116-.604 5.267 0 .018-1.041.033-2.314.033-2.468 0-2.531.004-2.804.199-.222.158-.302.369-.302.801 0 .331.013.403.1.558.11.197.294.34.515.401.089.025.998.041 2.355.041 1.825 0 2.21.009 2.21.054 0 .079-.396 3.663-.422 3.816l-.022.13H5.785c-2.102 0-2.195.007-2.463.199-.222.158-.302.369-.302.801 0 .331.013.403.1.558.11.197.294.34.515.401.088.025.89.041 2.027.041h1.883l-.272 2.43c-.149 1.337-.271 2.518-.272 2.625-.002.462.21.762.624.878.685.192 1.163-.019 1.31-.577.05-.187.625-5.09.625-5.323 0-.018.897-.033 1.992-.033h1.993l-.272 2.43c-.149 1.337-.271 2.518-.272 2.625-.002.462.21.762.624.878.685.192 1.163-.019 1.31-.577.05-.187.625-5.09.625-5.323 0-.018 1.048-.033 2.33-.033 1.437 0 2.385-.016 2.475-.041a.842.842 0 0 0 .515-.401c.087-.156.1-.226.099-.558-.001-.433-.081-.645-.301-.801-.271-.194-.345-.199-2.684-.199-1.812 0-2.194-.009-2.194-.054 0-.079.396-3.663.422-3.816l.022-.13h1.988c1.208 0 2.045-.016 2.133-.041a.842.842 0 0 0 .515-.401c.087-.156.1-.226.099-.558-.001-.433-.081-.645-.301-.801-.267-.19-.368-.199-2.357-.199h-1.866l.272-2.43c.149-1.337.271-2.522.272-2.634.002-.404-.147-.658-.475-.81-.293-.135-.817-.149-1.059-.029-.201.1-.359.322-.418.589-.036.164-.607 5.129-.607 5.281 0 .018-.897.033-1.992.033h-1.993l.272-2.43c.149-1.337.271-2.522.272-2.634.003-.577-.33-.886-.991-.919-.173-.009-.361.004-.428.029m4.62 8.008c0 .079-.396 3.663-.422 3.816l-.022.13h-1.978c-1.631 0-1.978-.009-1.978-.054 0-.079.396-3.663.422-3.816l.022-.13h1.978c1.631 0 1.978.009 1.978.054" fill="#000" fill-rule="evenodd" stroke="none"/></svg>