<svg xmlns="http://www.w3.org/2000/svg" width="24" height="24" fill="none" stroke="currentColor" stroke-width="2" stroke-linecap="round" stroke-linejoin="round"><path d="M6.667 2.042c-2.164.252-4.091 1.624-5.025 3.578-.881 1.843-.859 3.903.062 5.82.267.557.495.931.89 1.46.403.541 8.773 8.927 9.043 9.061a.807.807 0 0 0 .726 0c.266-.132 8.633-8.516 9.042-9.061 1.535-2.045 1.981-4.332 1.267-6.5a6.203 6.203 0 0 0-1.548-2.514 6.394 6.394 0 0 0-7.824-.974 6.842 6.842 0 0 0-1.01.759l-.29.256-.29-.256c-.683-.604-1.201-.924-2.013-1.243a6.545 6.545 0 0 0-3.03-.386m1.821 2.091c.871.227 1.424.573 2.312 1.446.71.698.901.83 1.2.83.299 0 .49-.132 1.2-.83.696-.684 1.001-.912 1.585-1.186.962-.451 2.193-.514 3.215-.166a4.464 4.464 0 0 1 2.924 3.353c.072.361.072 1.353 0 1.72-.138.705-.505 1.536-.975 2.209-.193.276-1.064 1.171-4.097 4.211L12 19.58l-3.852-3.86c-3.033-3.04-3.904-3.935-4.097-4.211-.47-.673-.837-1.504-.975-2.209-.072-.367-.072-1.359 0-1.72a4.457 4.457 0 0 1 3.545-3.516c.491-.093 1.37-.06 1.867.069" fill-rule="evenodd" fill="#000" stroke="none"/></svg>