<svg xmlns="http://www.w3.org/2000/svg" width="24" height="24" fill="none" stroke="currentColor" stroke-width="2" stroke-linecap="round" stroke-linejoin="round"><path d="M11.541 1.042a2.916 2.916 0 0 0-.841.268c-.11.054-1.825 1.027-3.811 2.161-2.252 1.286-3.691 2.131-3.822 2.246A3.129 3.129 0 0 0 2.114 7.2l-.094.3v9l.094.3c.236.756.681 1.35 1.307 1.746.43.272 6.978 3.996 7.279 4.139.48.23.765.294 1.3.294s.82-.064 1.3-.294c.301-.143 6.849-3.867 7.279-4.139a2.91 2.91 0 0 0 1.084-1.206c.339-.69.317-.312.317-5.34s.022-4.65-.317-5.34a2.794 2.794 0 0 0-.73-.943c-.207-.18-7.143-4.177-7.694-4.433a3.512 3.512 0 0 0-.496-.182 3.826 3.826 0 0 0-1.202-.06m.715 2.002c.264.073 7.3 4.113 7.473 4.291.283.29.271.086.271 4.665 0 4.584.012 4.374-.274 4.669-.108.111-1.203.758-3.707 2.189-1.955 1.117-3.625 2.056-3.712 2.086a.912.912 0 0 1-.614 0c-.087-.03-1.757-.969-3.712-2.086-2.504-1.431-3.599-2.078-3.707-2.189C3.988 16.374 4 16.584 4 12c0-4.579-.012-4.375.271-4.665.104-.107 1.266-.792 3.736-2.203 1.972-1.126 3.646-2.065 3.719-2.086a.911.911 0 0 1 .53-.002" fill-rule="evenodd" fill="#000" stroke="none"/></svg>