<svg xmlns="http://www.w3.org/2000/svg" width="24" height="24" fill="none" stroke="currentColor" stroke-width="2" stroke-linecap="round" stroke-linejoin="round"><path d="M13.62 3.046c-.177.091-4.819 4.694-5.137 5.094a2.743 2.743 0 0 0-.51.92c-.105.3-.112.362-.114.991l-.002.671-2.844 2.849c-1.565 1.567-2.878 2.912-2.919 2.989-.069.13-.074.266-.074 1.98v1.84l.1.178a.84.84 0 0 0 .523.403c.099.026 1.783.037 4.904.03 4.544-.011 4.759-.014 4.893-.085.077-.041.747-.68 1.489-1.419l1.35-1.344.67-.002c.629-.002.691-.009.991-.114.381-.134.597-.253.92-.51.132-.105 1.314-1.268 2.626-2.584 1.659-1.664 2.413-2.447 2.474-2.57.177-.353.088-.717-.259-1.064-.34-.34-.721-.431-1.073-.255-.111.056-1.004.918-2.648 2.557-2.691 2.682-2.547 2.559-3 2.558-.412 0-.388.021-3.288-2.885-2.066-2.07-2.707-2.736-2.77-2.874a1.046 1.046 0 0 1 .001-.8c.062-.138.655-.756 2.515-2.62 1.695-1.7 2.461-2.494 2.522-2.617.177-.353.088-.717-.259-1.064-.34-.34-.734-.432-1.081-.253M11.3 14.72 13.58 17l-1 1-.999 1H4v-1.58l2.49-2.49A223.976 223.976 0 0 1 9 12.44c.011 0 1.046 1.026 2.3 2.28" fill-rule="evenodd" fill="#000" stroke="none"/></svg>