<svg xmlns="http://www.w3.org/2000/svg" width="24" height="24" fill="none" stroke="currentColor" stroke-width="2" stroke-linecap="round" stroke-linejoin="round"><path d="M2.614 2.057a.814.814 0 0 0-.505.396c-.089.166-.089.179-.116 2.807a737.407 737.407 0 0 1-.03 2.768c-.004.166.137.542.258.686.114.136.516.325.681.321.065-.002 1.324-.015 2.798-.029 2.639-.026 2.682-.027 2.84-.112.335-.179.438-.39.438-.894 0-.531-.126-.755-.523-.929-.082-.036-.506-.056-1.471-.071l-1.356-.02.536-.48c.662-.593.903-.794 1.236-1.028 2.334-1.644 5.451-1.907 8.019-.677 1.918.92 3.335 2.467 4.073 4.445a8.093 8.093 0 0 1 .265 4.685 8.019 8.019 0 0 1-5.857 5.85c-.743.186-1.24.237-2.1.214-.806-.022-1.192-.074-1.857-.251A7.996 7.996 0 0 1 4.079 13.1c-.064-.469-.169-.745-.34-.895-.429-.377-1.383-.207-1.604.286-.196.438.044 1.843.532 3.109 1.1 2.856 3.501 5.092 6.413 5.973A9.571 9.571 0 0 0 12 22c.944-.001 1.488-.066 2.378-.287 1.841-.456 3.366-1.324 4.723-2.689a9.884 9.884 0 0 0 2.779-5.536c.509-3.303-.723-6.701-3.241-8.935-1.719-1.526-3.774-2.373-6.086-2.51A9.845 9.845 0 0 0 7.52 3.085c-1.005.501-1.573.911-2.808 2.03-.368.333-.677.605-.688.605-.011 0-.025-.698-.032-1.55-.012-1.514-.014-1.554-.101-1.717a.874.874 0 0 0-.213-.254c-.264-.189-.721-.249-1.064-.142m9 4a.814.814 0 0 0-.505.396l-.089.167-.012 2.76c-.008 2.004.001 2.806.035 2.928.105.382.135.4 2.533 1.599 2.412 1.206 2.437 1.215 2.805 1.075.313-.12.603-.567.647-1.002a.769.769 0 0 0-.323-.708c-.091-.066-.961-.518-1.934-1.005l-1.768-.885-.012-2.381c-.011-2.375-.011-2.381-.1-2.548a.874.874 0 0 0-.213-.254c-.264-.189-.721-.249-1.064-.142" fill-rule="evenodd" fill="#000" stroke="none"/></svg>