<svg xmlns="http://www.w3.org/2000/svg" width="24" height="24" fill="none" stroke="currentColor" stroke-width="2" stroke-linecap="round" stroke-linejoin="round"><path d="M11.88.989a1.14 1.14 0 0 0-.24.074c-.077.033-2.227 1.684-4.779 3.669C2.392 8.209 2.219 8.348 2.112 8.56L2 8.78l.01 5.9.01 5.9.094.28c.332.991 1.07 1.722 2.046 2.026l.3.094h15.08l.3-.094a3.086 3.086 0 0 0 2.046-2.046l.094-.3V8.738l-.102-.199c-.094-.183-.464-.48-4.74-3.807-2.551-1.985-4.701-3.635-4.778-3.667a.936.936 0 0 0-.48-.076m4.14 5.406L20 9.491v5.308c0 4.382-.01 5.34-.055 5.491a1.02 1.02 0 0 1-.461.582l-.184.108-1.649.012-1.649.011-.011-4.691-.011-4.692-.091-.17c-.105-.197-.313-.347-.569-.409-.125-.031-1.168-.041-3.421-.033l-3.241.012-.199.102a.796.796 0 0 0-.418.513C8.015 11.728 8 13.426 8 16.392v4.611l-1.65-.011-1.65-.012-.184-.108a1.199 1.199 0 0 1-.291-.249c-.237-.311-.225.004-.225-5.802v-5.33l3.99-3.105c2.194-1.707 4.003-3.1 4.02-3.095.016.005 1.821 1.402 4.01 3.104M14 17v4h-4v-8h4v4" fill-rule="evenodd" fill="#000" stroke="none"/></svg>