<svg xmlns="http://www.w3.org/2000/svg" width="24" height="24" fill="none" stroke="currentColor" stroke-width="2" stroke-linecap="round" stroke-linejoin="round"><path d="M1.626 1.045c-.369.194-.675.628-.675.955 0 .294.133.492.753 1.121l.573.581-.094.259c-.191.525-.188.42-.175 8.239l.012 7.38.105.307c.175.513.369.816.791 1.234.54.535.824.675 1.813.892.185.041.315.048.42.024.083-.019 3.27-.036 7.143-.036 7.54-.001 7.252.006 7.804-.204l.2-.075.582.573c.327.323.66.613.759.664.351.178.716.09 1.064-.258.346-.346.435-.711.26-1.064-.122-.245-20.345-20.472-20.589-20.593a.884.884 0 0 0-.746.001m6.988 1.012c-.237.075-.402.204-.505.396-.074.139-.089.231-.089.547 0 .331.013.403.1.558.11.197.294.34.515.401.094.026 1.973.041 5.308.041 5.821 0 5.43-.021 5.754.303.319.319.303.087.303 4.433v3.842l-1.73-1.725c-1.123-1.119-1.789-1.754-1.898-1.809-.352-.176-.733-.085-1.073.255-.347.347-.436.711-.259 1.064.061.123.857.95 2.594 2.698 1.378 1.387 2.54 2.573 2.582 2.635.102.154.545.353.784.353.201 0 .654-.185.768-.314.111-.125.273-.527.268-.666-.002-.071-.015-2.496-.03-5.389l-.026-5.26-.094-.28c-.329-.982-1.065-1.715-2.025-2.019l-.321-.101-5.38-.008c-4.349-.006-5.412.002-5.546.045m-2.51 5.815a2.617 2.617 0 0 0 .205 1.723 2.69 2.69 0 0 0 1.096 1.096 2.57 2.57 0 0 0 1.704.206l.305-.063 1.083 1.083L11.58 13l-3.465 3.464c-2.905 2.905-3.477 3.461-3.546 3.439-.124-.039-.381-.305-.471-.485-.076-.155-.078-.294-.088-7.078l-.011-6.92 1.085 1.085 1.085 1.084-.065.283M15.8 17.22 18.58 20H7.42l2.78-2.78a278.647 278.647 0 0 1 2.8-2.78c.011 0 1.271 1.251 2.8 2.78" fill-rule="evenodd" fill="#000" stroke="none"/></svg>