<svg xmlns="http://www.w3.org/2000/svg" width="24" height="24" fill="none" stroke="currentColor" stroke-width="2" stroke-linecap="round" stroke-linejoin="round"><path d="M4.499 2.043C3.38 2.232 2.461 3.048 2.114 4.16l-.094.3v15.08l.094.3c.311.999 1.145 1.818 2.087 2.05.557.137.815.185.856.158.024-.015 3.301-.037 7.283-.048l7.24-.02.28-.094a3.136 3.136 0 0 0 2.024-2.026c.09-.274.093-.328.121-2.54.016-1.243.028-2.287.027-2.32l-.027-5.32-.025-5.26-.094-.28c-.329-.982-1.065-1.715-2.025-2.019l-.321-.101-7.42-.006c-4.081-.003-7.511.01-7.621.029M19.31 4.061c.279.083.546.35.629.629.053.177.061.723.061 4.046v3.842l-1.73-1.725c-1.123-1.119-1.789-1.754-1.898-1.809a.873.873 0 0 0-.744 0c-.115.057-1.862 1.776-5.578 5.489l-5.409 5.406-.143-.078a1.013 1.013 0 0 1-.261-.225c-.253-.319-.237.202-.237-7.614 0-6.264.007-7.152.061-7.332.079-.269.351-.547.612-.627.291-.089 14.336-.092 14.637-.002M7.96 6.062a2.885 2.885 0 0 0-1.128.577c-.3.268-.593.713-.714 1.083-.084.254-.098.372-.096.798.002.439.016.536.111.8a2.585 2.585 0 0 0 1.547 1.547c.269.098.354.109.82.109.465 0 .552-.011.82-.108a2.589 2.589 0 0 0 1.547-1.548c.098-.269.109-.354.109-.82 0-.465-.011-.552-.108-.82A2.535 2.535 0 0 0 7.96 6.062m.764 2a.488.488 0 0 1 .198.686.485.485 0 0 1-.844 0 .478.478 0 0 1 .174-.67.453.453 0 0 1 .472-.016m9.286 5.368L20 15.42v1.843c0 2.002-.007 2.074-.221 2.355-.061.08-.194.195-.295.254l-.184.108-5.94.01-5.94.011 4.28-4.281a657.296 657.296 0 0 1 4.3-4.28c.011 0 .915.895 2.01 1.99" fill="#000" fill-rule="evenodd" stroke="none"/></svg>