<svg xmlns="http://www.w3.org/2000/svg" width="24" height="24" fill="none" stroke="currentColor" stroke-width="2" stroke-linecap="round" stroke-linejoin="round"><path d="M4.499 2.043C3.383 2.23 2.461 3.048 2.114 4.16l-.094.3v15.08l.094.3c.311.999 1.145 1.818 2.087 2.05.557.137.815.185.856.158.024-.015 3.301-.037 7.283-.048l7.24-.02.28-.094a3.136 3.136 0 0 0 2.024-2.026c.09-.274.093-.328.121-2.54l.029-2.32-.027-2.22c-.027-2.144-.028-2.161-.118-2.33-.165-.31-.56-.48-1.015-.439-.435.04-.733.263-.833.624-.022.08-.041.55-.041 1.044v.899l-1.73-1.725c-1.123-1.119-1.789-1.754-1.898-1.809a.873.873 0 0 0-.744 0c-.115.057-1.862 1.776-5.578 5.489l-5.409 5.406-.143-.078a1.013 1.013 0 0 1-.261-.225c-.253-.319-.237.202-.237-7.614 0-8.016-.025-7.391.303-7.719.321-.32.05-.303 4.754-.303 2.666 0 4.215-.015 4.308-.041a.842.842 0 0 0 .515-.401c.087-.156.1-.226.099-.558-.001-.433-.081-.645-.301-.801-.285-.203-.186-.199-4.734-.194-2.334.002-4.335.02-4.445.038m11.115 2.014a.814.814 0 0 0-.505.396c-.074.139-.089.231-.089.547 0 .331.013.403.1.558.11.197.294.34.515.401.197.055 6.533.055 6.73 0a.842.842 0 0 0 .515-.401c.087-.156.1-.226.099-.558-.001-.433-.081-.645-.301-.801-.28-.2-.267-.199-3.694-.196-2.512.002-3.24.014-3.37.054M7.96 6.062a2.885 2.885 0 0 0-1.128.577c-.3.268-.593.713-.714 1.083-.084.254-.098.372-.096.798.002.439.016.536.111.8a2.585 2.585 0 0 0 1.547 1.547c.269.098.354.109.82.109.465 0 .552-.011.82-.108a2.589 2.589 0 0 0 1.547-1.548c.098-.269.109-.354.109-.82 0-.465-.011-.552-.108-.82A2.535 2.535 0 0 0 7.96 6.062m.764 2a.488.488 0 0 1 .198.686.485.485 0 0 1-.844 0 .478.478 0 0 1 .174-.67.453.453 0 0 1 .472-.016m9.286 5.368L20 15.42v1.843c0 2.002-.007 2.074-.221 2.355-.061.08-.194.195-.295.254l-.184.108-5.94.01-5.94.011 4.28-4.281a657.296 657.296 0 0 1 4.3-4.28c.011 0 .915.895 2.01 1.99" fill-rule="evenodd" fill="#000" stroke="none"/></svg>