<svg xmlns="http://www.w3.org/2000/svg" width="24" height="24" fill="none" stroke="currentColor" stroke-width="2" stroke-linecap="round" stroke-linejoin="round"><path d="M11.614 2.057a.814.814 0 0 0-.505.396l-.089.167-.011 4.978-.01 4.978-1.23-1.223c-.768-.765-1.292-1.255-1.397-1.308-.352-.177-.733-.087-1.073.254-.347.347-.436.712-.259 1.064.061.121.726.819 2.094 2.198 1.103 1.112 2.04 2.073 2.082 2.135.102.154.545.353.784.353s.682-.199.784-.353c.042-.062.979-1.023 2.082-2.135 1.368-1.379 2.033-2.077 2.094-2.198.177-.352.088-.717-.259-1.064-.34-.341-.721-.431-1.073-.254-.105.053-.629.543-1.397 1.307l-1.229 1.224-.011-4.978-.011-4.978-.089-.167a.874.874 0 0 0-.213-.254c-.264-.189-.721-.249-1.064-.142M3.499 4.043C2.383 4.23 1.461 5.048 1.114 6.16l-.094.3v11.08l.094.3a3.086 3.086 0 0 0 2.046 2.046l.3.094h17.08l.3-.094a3.086 3.086 0 0 0 2.046-2.046l.094-.3V6.46l-.094-.3a3.084 3.084 0 0 0-2.025-2.038l-.321-.1-2.34-.013c-2.48-.014-2.571-.009-2.849.173-.246.161-.331.371-.331.818 0 .331.013.403.1.558.11.197.294.34.515.401.089.025.982.041 2.308.041 2.475 0 2.448-.003 2.754.303.323.324.303-.06.303 5.698 0 4.211-.01 5.138-.055 5.289a1.02 1.02 0 0 1-.461.582l-.184.108H3.7l-.184-.108a1.199 1.199 0 0 1-.291-.249C2.988 17.312 3 17.608 3 12.022c0-5.782-.02-5.395.303-5.719C3.609 5.997 3.582 6 6.057 6c1.326 0 2.219-.016 2.308-.041a.842.842 0 0 0 .515-.401c.087-.156.1-.226.099-.558-.001-.433-.081-.645-.301-.801-.273-.195-.338-.199-2.734-.194-1.234.002-2.335.02-2.445.038" fill-rule="evenodd" fill="#000" stroke="none"/></svg>