<svg xmlns="http://www.w3.org/2000/svg" width="24" height="24" fill="none" stroke="currentColor" stroke-width="2" stroke-linecap="round" stroke-linejoin="round"><path d="M10.614 5.057a.814.814 0 0 0-.505.396c-.074.139-.089.231-.089.547 0 .331.013.403.1.558.11.197.294.34.515.401.199.056 10.531.056 10.73 0a.842.842 0 0 0 .515-.401c.087-.156.1-.226.099-.558-.001-.433-.081-.645-.301-.801-.288-.205-.113-.199-5.694-.196-4.154.002-5.238.013-5.37.054M2.626 7.045c-.206.109-.48.388-.588.599a.792.792 0 0 0 .002.719c.06.12.639.729 1.813 1.907L5.578 12l-1.725 1.73C2.679 14.908 2.1 15.517 2.04 15.637c-.177.352-.088.717.259 1.064.346.347.711.436 1.064.26.249-.125 4.473-4.349 4.598-4.598A.896.896 0 0 0 8.049 12a.896.896 0 0 0-.088-.363c-.121-.241-4.349-4.473-4.589-4.593a.884.884 0 0 0-.746.001m7.988 4.012a.814.814 0 0 0-.505.396c-.074.139-.089.231-.089.547 0 .331.013.403.1.558.11.197.294.34.515.401.199.056 10.531.056 10.73 0a.842.842 0 0 0 .515-.401c.087-.156.1-.226.099-.558-.001-.433-.081-.645-.301-.801-.288-.205-.113-.199-5.694-.196-4.154.002-5.238.013-5.37.054m0 6a.814.814 0 0 0-.505.396c-.074.139-.089.231-.089.547 0 .331.013.403.1.558.11.197.294.34.515.401.199.056 10.531.056 10.73 0a.842.842 0 0 0 .515-.401c.087-.156.1-.226.099-.558-.001-.433-.081-.645-.301-.801-.288-.205-.113-.199-5.694-.196-4.154.002-5.238.013-5.37.054" fill="#000" fill-rule="evenodd" stroke="none"/></svg>