<svg xmlns="http://www.w3.org/2000/svg" width="24" height="24" fill="none" stroke="currentColor" stroke-width="2" stroke-linecap="round" stroke-linejoin="round"><path d="M5.614 2.057a.814.814 0 0 0-.505.396c-.074.139-.089.231-.089.547 0 .331.013.403.1.558.11.197.294.34.515.401.087.024.843.041 1.886.041.958 0 1.894.019 2.08.041 1.369.168 2.358.849 2.958 2.037.11.218.321.801.321.887 0 .02-1.549.035-3.534.035-3.78 0-3.743-.002-4.024.199-.222.158-.302.369-.302.801 0 .331.013.403.1.558.11.197.294.34.515.401.092.026 1.44.041 3.695.041 1.994 0 3.55.015 3.55.035 0 .086-.211.669-.321.887-.545 1.079-1.339 1.695-2.564 1.987-.26.063-.532.072-2.283.075l-1.988.005-.221.108a1.033 1.033 0 0 0-.3.209c-.118.149-.25.53-.25.722 0 .238.227.688.399.792.073.044 2.043 1.876 4.378 4.07 2.768 2.601 4.305 4.019 4.417 4.074a.845.845 0 0 0 .665.022c.347-.145.747-.664.748-.97 0-.17-.072-.37-.191-.53-.054-.074-1.612-1.559-3.462-3.3L8.545 14.02l.637-.025c1.028-.041 1.886-.247 2.675-.643 1.543-.776 2.616-2.212 3.004-4.022l.071-.33h1.644c.978 0 1.703-.017 1.789-.041a.842.842 0 0 0 .515-.401c.087-.156.1-.226.099-.558-.001-.433-.081-.645-.301-.801-.263-.187-.385-.199-2.119-.199h-1.627l-.071-.33a6.391 6.391 0 0 0-1.183-2.56L13.593 4h2.314c1.426 0 2.368-.016 2.458-.041a.842.842 0 0 0 .515-.401c.087-.156.1-.226.099-.558-.001-.433-.081-.645-.301-.801-.29-.207-.036-.199-6.694-.196-4.975.002-6.237.013-6.37.054" fill-rule="evenodd" fill="#000" stroke="none"/></svg>