<svg xmlns="http://www.w3.org/2000/svg" width="24" height="24" fill="none" stroke="currentColor" stroke-width="2" stroke-linecap="round" stroke-linejoin="round"><path d="M4.88 7.045c-1.199.139-2.268.795-2.967 1.82-.363.531-.671 1.3-.82 2.041-.099.496-.099 1.692 0 2.188.606 3.025 2.971 4.478 6.001 3.687 1.455-.38 2.721-1.173 4.231-2.652l.666-.652.674.675c1.097 1.095 1.98 1.774 2.875 2.21 1.818.885 3.836.839 5.294-.121 1.066-.702 1.74-1.728 2.052-3.123.135-.603.135-1.633 0-2.236-.347-1.551-1.117-2.618-2.408-3.335-1.152-.639-2.976-.706-4.354-.16-1.175.465-2.15 1.158-3.439 2.442l-.694.692-.666-.65C10.242 8.813 9.446 8.22 8.46 7.736c-1.191-.584-2.433-.824-3.58-.691m1.227 2.017c1.016.151 2.004.643 3.042 1.515.48.404 1.451 1.356 1.451 1.424 0 .025-.244.287-.542.581-1.474 1.456-2.587 2.129-3.895 2.353-.973.167-1.679.006-2.23-.508-.622-.581-.911-1.35-.911-2.427 0-1.067.293-1.851.905-2.426.539-.505 1.192-.659 2.18-.512M19 9.098c.711.193 1.33.712 1.653 1.387.265.553.323.825.323 1.515 0 .695-.059.969-.328 1.52-.258.529-.68.96-1.168 1.191-.478.226-.691.269-1.32.267-.422-.002-.613-.022-.875-.09-.765-.2-1.54-.643-2.345-1.339-.541-.468-1.54-1.475-1.54-1.552 0-.073 1.322-1.382 1.724-1.707.854-.69 1.614-1.075 2.426-1.23.373-.07 1.122-.051 1.45.038" fill-rule="evenodd" fill="#000" stroke="none"/></svg>