<svg xmlns="http://www.w3.org/2000/svg" width="24" height="24" fill="none" stroke="currentColor" stroke-width="2" stroke-linecap="round" stroke-linejoin="round"><path d="M3.499 1.043C2.38 1.232 1.461 2.048 1.114 3.16l-.094.3v14.08l.094.3c.304.976 1.035 1.714 2.026 2.046l.28.094 3.891.011c2.581.008 3.942-.002 4.044-.03a.841.841 0 0 0 .525-.403c.087-.156.1-.226.099-.558-.002-.531-.127-.753-.524-.929-.089-.04-.962-.055-3.935-.071l-3.82-.02-.184-.108a1.199 1.199 0 0 1-.291-.249C2.986 17.31 3 17.748 3 10.522c0-7.457-.024-6.892.303-7.219C3.63 2.976 3.068 3 10.5 3s6.87-.024 7.197.303c.318.318.303.108.303 4.254 0 2.331.015 3.716.041 3.808.107.385.396.597.855.626.485.031.803-.109.984-.433l.1-.178V3.46l-.094-.3a3.089 3.089 0 0 0-2.025-2.039l-.321-.101-6.92-.006c-3.806-.003-7.011.01-7.121.029m8.078 9.993c-.204.092-.395.321-.498.596-.093.249-.1.458-.023.677.031.088 1.004 2.436 2.162 5.218 1.48 3.557 2.142 5.103 2.231 5.211.141.171.388.3.577.301.195.001.637-.15.773-.264.204-.172.293-.379.783-1.835.26-.77.478-1.408.486-1.418.008-.009.549.515 1.203 1.166 1.261 1.254 1.397 1.361 1.729 1.361.477 0 1.049-.572 1.049-1.049 0-.332-.107-.468-1.361-1.729-.651-.654-1.175-1.195-1.166-1.203.01-.008.648-.227 1.418-.487.77-.26 1.476-.508 1.569-.551.352-.162.567-.537.509-.884-.071-.42-.233-.677-.528-.836-.299-.162-10.085-4.229-10.328-4.293-.285-.074-.387-.071-.585.019m4.962 3.938 2.627 1.095-.953.328c-.524.18-1.029.372-1.122.426a.878.878 0 0 0-.268.268c-.054.093-.246.598-.426 1.122l-.328.953-1.095-2.627a341.955 341.955 0 0 1-1.094-2.643c0-.009.007-.016.016-.016.008 0 1.198.492 2.643 1.094" fill-rule="evenodd" fill="#000" stroke="none"/></svg>