<svg xmlns="http://www.w3.org/2000/svg" width="24" height="24" fill="none" stroke="currentColor" stroke-width="2" stroke-linecap="round" stroke-linejoin="round"><path d="M6.38 1.043c-2.597.256-4.686 2.159-5.267 4.797l-.093.42v11.48l.093.42c.537 2.439 2.288 4.19 4.727 4.727l.42.093h11.48l.42-.093c1.224-.269 2.182-.78 3.035-1.618.871-.855 1.417-1.858 1.692-3.109l.093-.42V6.26l-.093-.42c-.269-1.224-.78-2.182-1.618-3.035a5.862 5.862 0 0 0-3.705-1.766C17.1.994 6.84.997 6.38 1.043m11.225 2.015c1.469.222 2.705 1.266 3.192 2.697.201.592.203.645.203 6.245 0 5.602-.002 5.656-.204 6.245-.475 1.387-1.601 2.383-3.023 2.672-.398.081-.507.083-5.773.083s-5.375-.002-5.773-.083a3.986 3.986 0 0 1-3.169-3.312c-.086-.572-.086-10.638 0-11.21.256-1.697 1.617-3.071 3.3-3.334.528-.082 10.703-.085 11.247-.003m-.563 2.514c-.196.063-.429.31-.485.516-.025.095-.046.28-.046.412 0 .353.07.561.249.74.179.179.387.249.74.249.35 0 .574-.073.744-.244.479-.479.291-1.515-.305-1.68-.199-.056-.714-.051-.897.007M11.54 6.987c-.675.082-1.065.197-1.68.494a4.901 4.901 0 0 0-2.57 2.939c-.186.562-.23.858-.229 1.54.002.664.058 1.025.248 1.598.401 1.209 1.353 2.305 2.488 2.864a5.033 5.033 0 0 0 5.315-.516c.31-.239.836-.794 1.047-1.104.341-.503.64-1.195.786-1.822.105-.448.105-1.537 0-2.02-.224-1.026-.633-1.774-1.381-2.525-.798-.8-1.679-1.248-2.785-1.414a5.684 5.684 0 0 0-1.239-.034m1.339 2.094c2.183.618 2.886 3.415 1.261 5.014a3.001 3.001 0 0 1-3.144.666c-1.214-.442-2.021-1.684-1.94-2.981.028-.436.094-.694.279-1.084.34-.714.828-1.184 1.565-1.506.562-.245 1.348-.288 1.979-.109" fill-rule="evenodd" fill="#000" stroke="none"/></svg>