<svg xmlns="http://www.w3.org/2000/svg" width="24" height="24" fill="none" stroke="currentColor" stroke-width="2" stroke-linecap="round" stroke-linejoin="round"><path d="m12.199 3-2.541.02-.199.102C9.144 3.284 9 3.56 9 4c0 .428.144.713.442.88l.178.1 1.964.02 1.964.02-2.622 6.99L8.305 19H6.559c-1.86 0-1.972.01-2.237.199-.222.158-.302.369-.302.801 0 .331.013.403.1.558a.84.84 0 0 0 .524.403c.208.056 9.506.056 9.714 0a.844.844 0 0 0 .522-.403c.087-.156.1-.226.099-.558-.002-.531-.127-.753-.524-.929-.086-.038-.607-.056-2.059-.071l-1.944-.02 2.622-6.99L15.695 5h1.762c1.058 0 1.821-.017 1.908-.041a.842.842 0 0 0 .515-.401c.087-.156.1-.226.099-.558-.001-.315-.016-.409-.091-.55-.104-.198-.313-.348-.568-.408-.217-.051-3.502-.07-7.121-.042" fill="#000" fill-rule="evenodd" stroke="none"/></svg>