<svg xmlns="http://www.w3.org/2000/svg" width="24" height="24" fill="none" stroke="currentColor" stroke-width="2" stroke-linecap="round" stroke-linejoin="round"><path d="M5.65 2.039c-.213.096-.555.434-.635.628a.86.86 0 0 0 .016.662c.044.099.284.399.553.692L8.53 7.214C9.889 8.686 11 9.915 11 9.945c0 .046-.416.055-2.594.055-2.769 0-2.809.003-3.084.199-.222.158-.302.369-.302.801 0 .331.013.403.1.558.11.197.294.34.515.401.09.025 1.13.041 2.755.041H11v2H8.406c-2.769 0-2.809.003-3.084.199-.222.158-.302.369-.302.801 0 .331.013.403.1.558.11.197.294.34.515.401.09.025 1.13.041 2.755.041H11v2.61c0 1.625.016 2.665.041 2.755.107.385.396.597.855.626.485.031.803-.109.984-.433l.1-.178.011-2.69.012-2.69h2.608c1.625 0 2.664-.016 2.754-.041a.842.842 0 0 0 .515-.401c.087-.156.1-.226.099-.558-.001-.433-.081-.645-.301-.801-.275-.196-.315-.199-3.084-.199H13v-2h2.61c1.625 0 2.665-.016 2.755-.041a.842.842 0 0 0 .515-.401c.087-.156.1-.226.099-.558-.001-.433-.081-.645-.301-.801-.275-.196-.315-.199-3.084-.199C13.416 10 13 9.991 13 9.945c0-.03 1.112-1.259 2.47-2.731l2.946-3.193c.269-.293.509-.593.553-.692.159-.36.077-.685-.258-1.021-.356-.357-.746-.443-1.113-.243-.148.081-.81.774-2.882 3.02C13.236 6.688 12.014 8 12 8c-.014 0-1.236-1.312-2.716-2.915-2.072-2.246-2.734-2.939-2.882-3.02a.834.834 0 0 0-.752-.026" fill-rule="evenodd" fill="#000" stroke="none"/></svg>