<svg xmlns="http://www.w3.org/2000/svg" width="24" height="24" fill="none" stroke="currentColor" stroke-width="2" stroke-linecap="round" stroke-linejoin="round"><path d="M20.62 1.046c-.1.051-1.86 1.78-4.73 4.648-4.034 4.029-4.578 4.56-4.64 4.517a9.292 9.292 0 0 0-1.216-.649c-1.367-.571-2.974-.635-4.446-.177-2.093.651-3.774 2.438-4.323 4.595-.215.843-.242 2.053-.065 2.88.45 2.108 1.869 3.847 3.789 4.645 1.508.627 3.085.688 4.608.178a6.51 6.51 0 0 0 4.101-4.134 5.831 5.831 0 0 0 .32-1.989c.002-.709-.035-.997-.219-1.7a6.11 6.11 0 0 0-.866-1.94l-.173-.259 1.369-1.37 1.369-1.369 1.261 1.253c1.05 1.043 1.293 1.265 1.451 1.324.253.096.494.065.739-.092.293-.189 3.903-3.829 4.011-4.044a.8.8 0 0 0 0-.726c-.059-.116-.508-.598-1.313-1.407l-1.223-1.229.723-.731c.433-.438.758-.801.812-.907.178-.351.089-.717-.258-1.064-.34-.34-.733-.432-1.081-.253M19.8 6.22l.779.78-1.039 1.04-1.039 1.04-.791-.79-.79-.789 1.03-1.031A39.185 39.185 0 0 1 19 5.44c.011 0 .371.351.8.78M8.688 11.213c1.259.329 2.345 1.216 2.887 2.359.311.655.433 1.206.433 1.948 0 1.258-.443 2.326-1.326 3.2-.737.729-1.603 1.14-2.7 1.283-1.002.13-2.255-.209-3.102-.841a4.63 4.63 0 0 1-1.669-2.474c-.094-.349-.104-.461-.105-1.108-.001-.652.009-.756.103-1.107a4.538 4.538 0 0 1 1.186-2.078c.646-.645 1.368-1.032 2.316-1.238.511-.112 1.436-.085 1.977.056" fill-rule="evenodd" fill="#000" stroke="none"/></svg>