<svg xmlns="http://www.w3.org/2000/svg" width="24" height="24" fill="none" stroke="currentColor" stroke-width="2" stroke-linecap="round" stroke-linejoin="round"><path d="M3.499 3.043C2.38 3.232 1.461 4.048 1.114 5.16l-.094.3v13.08l.094.3a3.086 3.086 0 0 0 2.046 2.046l.3.094h17.08l.3-.094a3.086 3.086 0 0 0 2.046-2.046l.094-.3V5.46l-.094-.3a3.089 3.089 0 0 0-2.025-2.039l-.321-.101-8.42-.006c-4.631-.003-8.511.01-8.621.029M20.31 5.061c.279.083.546.35.629.629.053.179.061.961.061 6.311 0 5.058-.009 6.138-.055 6.289a1.02 1.02 0 0 1-.461.582l-.184.108H3.7l-.184-.108a1.051 1.051 0 0 1-.458-.556c-.09-.256-.087-12.323.003-12.626.079-.269.351-.547.612-.627.16-.049 1.357-.058 8.31-.06 7.161-.003 8.147.004 8.327.058M5.614 7.055c-.394.129-.575.382-.605.845-.044.678.26 1.051.887 1.091.485.031.803-.109.984-.433.087-.155.1-.227.1-.558 0-.331-.013-.403-.1-.558-.153-.274-.396-.405-.786-.425-.2-.011-.374.003-.48.038m4 0c-.394.129-.575.382-.605.845-.044.678.26 1.051.887 1.091.485.031.803-.109.984-.433.087-.155.1-.227.1-.558 0-.331-.013-.403-.1-.558-.153-.274-.396-.405-.786-.425-.2-.011-.374.003-.48.038m4 0c-.394.129-.575.382-.605.845-.044.678.26 1.051.887 1.091.485.031.803-.109.984-.433.087-.155.1-.227.1-.558 0-.331-.013-.403-.1-.558-.153-.274-.396-.405-.786-.425-.2-.011-.374.003-.48.038m4 0c-.394.129-.575.382-.605.845-.044.678.26 1.051.887 1.091.485.031.803-.109.984-.433.087-.155.1-.227.1-.558 0-.331-.013-.403-.1-.558-.153-.274-.396-.405-.786-.425-.2-.011-.374.003-.48.038m-10 4c-.394.129-.575.382-.605.845-.044.678.26 1.051.887 1.091.485.031.803-.109.984-.433.087-.155.1-.227.1-.558 0-.331-.013-.403-.1-.558-.153-.274-.396-.405-.786-.425-.2-.011-.374.003-.48.038m4 0c-.394.129-.575.382-.605.845-.044.678.26 1.051.887 1.091.485.031.803-.109.984-.433.087-.155.1-.227.1-.558 0-.331-.013-.403-.1-.558-.153-.274-.396-.405-.786-.425-.2-.011-.374.003-.48.038m4 0c-.394.129-.575.382-.605.845-.044.678.26 1.051.887 1.091.485.031.803-.109.984-.433.087-.155.1-.227.1-.558 0-.331-.013-.403-.1-.558-.153-.274-.396-.405-.786-.425-.2-.011-.374.003-.48.038m-9 4.002a.814.814 0 0 0-.505.396c-.074.139-.089.231-.089.547 0 .331.013.403.1.558.11.197.294.34.515.401.199.056 10.531.056 10.73 0a.842.842 0 0 0 .515-.401c.087-.156.1-.226.099-.558-.001-.433-.081-.645-.301-.801-.288-.205-.113-.199-5.694-.196-4.154.002-5.238.013-5.37.054" fill-rule="evenodd" fill="#000" stroke="none"/></svg>