<svg xmlns="http://www.w3.org/2000/svg" width="24" height="24" fill="none" stroke="currentColor" stroke-width="2" stroke-linecap="round" stroke-linejoin="round"><path d="M11.685 1.043c-.111.044-8.12 5.043-8.317 5.191a1.116 1.116 0 0 0-.24.282c-.094.161-.108.227-.108.524 0 .288.015.367.1.518a.836.836 0 0 0 .522.402c.099.027 2.954.037 8.404.03l8.254-.01.184-.108c.437-.257.677-.864.495-1.249a1.217 1.217 0 0 0-.21-.272c-.137-.131-7.961-5.05-8.366-5.259-.189-.098-.536-.122-.718-.049M14.273 4.6l2.207 1.38-2.24.01c-1.232.006-3.248.006-4.48 0l-2.24-.01 2.21-1.387c1.216-.763 2.238-1.384 2.273-1.38.035.004 1.056.628 2.27 1.387m-8.659 5.457a.814.814 0 0 0-.505.396l-.089.167-.011 3.793c-.007 2.481.003 3.845.03 3.944.105.39.395.604.857.634.485.031.803-.109.984-.433l.1-.178v-7.76l-.089-.167a.874.874 0 0 0-.213-.254c-.264-.189-.721-.249-1.064-.142m4 0a.814.814 0 0 0-.505.396l-.089.167-.011 3.793c-.007 2.481.003 3.845.03 3.944.105.39.395.604.857.634.485.031.803-.109.984-.433l.1-.178v-7.76l-.089-.167a.874.874 0 0 0-.213-.254c-.264-.189-.721-.249-1.064-.142m4 0a.814.814 0 0 0-.505.396l-.089.167-.011 3.793c-.007 2.481.003 3.845.03 3.944.105.39.395.604.857.634.485.031.803-.109.984-.433l.1-.178v-7.76l-.089-.167a.874.874 0 0 0-.213-.254c-.264-.189-.721-.249-1.064-.142m4 0a.814.814 0 0 0-.505.396l-.089.167-.011 3.793c-.007 2.481.003 3.845.03 3.944.105.39.395.604.857.634.485.031.803-.109.984-.433l.1-.178v-7.76l-.089-.167a.874.874 0 0 0-.213-.254c-.264-.189-.721-.249-1.064-.142m-15 11a.814.814 0 0 0-.505.396c-.074.139-.089.231-.089.547 0 .331.013.403.1.558.11.197.294.34.515.401.2.056 18.53.056 18.73 0a.842.842 0 0 0 .515-.401c.087-.156.1-.226.099-.558-.001-.433-.081-.645-.301-.801-.293-.209.199-.199-9.694-.196-7.438.002-9.236.012-9.37.054" fill="#000" fill-rule="evenodd" stroke="none"/></svg>