<svg xmlns="http://www.w3.org/2000/svg" width="24" height="24" fill="none" stroke="currentColor" stroke-width="2" stroke-linecap="round" stroke-linejoin="round"><path d="M6.614 1.057a.814.814 0 0 0-.505.396c-.074.139-.089.231-.089.547 0 .331.013.403.1.558.11.197.294.34.515.401.188.053 1.542.053 1.73 0a.842.842 0 0 0 .515-.401c.087-.156.1-.226.099-.558-.001-.313-.017-.409-.089-.547-.104-.197-.267-.322-.519-.398-.245-.073-1.52-.072-1.757.002M6.699 4l-5.041.02-.199.102C1.144 4.284 1 4.56 1 5c0 .428.144.713.442.88l.178.1L5.87 6l4.25.02-.424.64c-.396.597-.484.7-1.309 1.529l-.885.89-.981-.975c-.593-.589-1.048-1.008-1.149-1.059-.351-.177-.732-.087-1.073.254-.347.347-.436.712-.259 1.064.057.113.442.532 1.064 1.157l.973.98-1.474 1.48c-.989.993-1.503 1.538-1.563 1.657-.177.352-.088.717.259 1.064.347.347.712.436 1.064.259.119-.06.664-.574 1.657-1.563l1.48-1.475 1.48 1.475c.994.99 1.538 1.503 1.657 1.563.352.177.717.088 1.064-.259.347-.347.436-.712.259-1.064-.06-.119-.574-.664-1.564-1.658l-1.475-1.481.92-.919.92-.919.886-1.33.886-1.33h.843c.464 0 .909-.019.989-.041a.842.842 0 0 0 .515-.401c.087-.156.1-.226.099-.558-.001-.315-.016-.409-.091-.55a.843.843 0 0 0-.568-.406c-.255-.058-1.865-.067-7.621-.044m10.029 7.036c-.444.153-.366.026-2.014 3.285L13.12 17.48l-1.107 2.24c-1.14 2.305-1.15 2.334-.973 2.7.105.217.358.42.672.539.398.152.763.07.996-.224.067-.085.525-.961 1.017-1.945L14.62 19h4.76l.906 1.812c.499.997.957 1.873 1.018 1.946.141.166.384.28.604.281.382.002.899-.302 1.052-.619.177-.366.167-.393-.982-2.72a537.394 537.394 0 0 0-1.12-2.26c-.051-.099-.758-1.504-1.571-3.123-.814-1.618-1.527-2.998-1.584-3.066a.896.896 0 0 0-.606-.29 1.472 1.472 0 0 0-.369.075m.962 4.584c.369.737.67 1.349.67 1.36 0 .011-.612.02-1.36.02-.748 0-1.36-.009-1.36-.02 0-.04 1.34-2.7 1.36-2.7.011 0 .322.603.69 1.34" fill-rule="evenodd" fill="#000" stroke="none"/></svg>