<svg xmlns="http://www.w3.org/2000/svg" width="24" height="24" fill="none" stroke="currentColor" stroke-width="2" stroke-linecap="round" stroke-linejoin="round"><path d="M4.499 3.043C3.38 3.232 2.461 4.048 2.114 5.16l-.094.3v9.08l.094.3a3.086 3.086 0 0 0 2.046 2.046l.3.094h15.08l.3-.094a3.086 3.086 0 0 0 2.046-2.046l.094-.3V5.46l-.094-.3a3.089 3.089 0 0 0-2.025-2.039l-.321-.101-7.42-.006c-4.081-.003-7.511.01-7.621.029M19.31 5.061c.279.083.546.35.629.629.053.177.061.751.061 4.311 0 4.457.007 4.318-.221 4.617-.061.08-.194.195-.295.254l-.184.108H4.7l-.184-.108a1.209 1.209 0 0 1-.295-.254c-.228-.299-.221-.16-.221-4.617 0-3.56.008-4.134.061-4.311.079-.269.351-.547.612-.627.291-.089 14.336-.092 14.637-.002M1.614 19.057a.814.814 0 0 0-.505.396c-.074.139-.089.231-.089.547 0 .331.013.403.1.558.11.197.294.34.515.401.2.056 20.53.056 20.73 0a.842.842 0 0 0 .515-.401c.087-.156.1-.226.099-.558-.001-.433-.081-.645-.301-.801-.294-.21.277-.199-10.694-.196-8.259.002-10.236.012-10.37.054" fill="#000" fill-rule="evenodd" stroke="none"/></svg>