<svg xmlns="http://www.w3.org/2000/svg" width="24" height="24" fill="none" stroke="currentColor" stroke-width="2" stroke-linecap="round" stroke-linejoin="round"><path d="M5.499 4.043c-1.109.188-2.011.981-2.385 2.097l-.094.28-.02 4.7-.02 4.7-.615 1.22c-.761 1.51-.815 1.676-.727 2.245a2.029 2.029 0 0 0 1.026 1.464c.508.269-.178.251 9.336.251 7.614 0 8.651-.007 8.858-.061 1.112-.29 1.76-1.411 1.444-2.499-.028-.099-.329-.729-.667-1.4l-.615-1.22-.02-4.7-.02-4.7-.094-.28c-.329-.982-1.065-1.715-2.025-2.019l-.321-.101-6.42-.006c-3.531-.003-6.511.01-6.621.029M18.31 6.061c.279.083.546.35.629.629.053.177.061.746.061 4.257V15H5v-4.053c0-4.582-.017-4.324.304-4.644.319-.32-.184-.297 6.679-.3 5.37-.003 6.148.004 6.327.058m1.56 11.919c.27.539.49.989.49 1 0 .011-3.762.02-8.36.02-4.598 0-8.36-.009-8.36-.02 0-.011.22-.461.49-1l.489-.98h14.762l.489.98" fill-rule="evenodd" fill="#000" stroke="none"/></svg>