<svg xmlns="http://www.w3.org/2000/svg" width="24" height="24" fill="none" stroke="currentColor" stroke-width="2" stroke-linecap="round" stroke-linejoin="round"><path d="M10.96 1.043c-4.515.343-8.379 3.006-9.573 6.597a7.67 7.67 0 0 0 .12 5.14c.154.403.522 1.124.749 1.466l.15.225-.099.196c-.217.427-.286.751-.286 1.333 0 .453.015.588.093.84.255.82.823 1.485 1.587 1.862l.362.177.053.291c.175.953.713 2.032 1.415 2.837.286.328.882.824 1.127.938.288.134.555.128.785-.018.494-.313.728-.913.518-1.326-.047-.091-.245-.298-.477-.497-.71-.612-1.12-1.266-1.381-2.204-.018-.067.026-.105.268-.23a3.17 3.17 0 0 0 .514-.343l.225-.193.578.193c1.336.445 2.339.62 3.792.66 2.383.065 4.463-.387 6.392-1.388 2.333-1.211 4.011-3.067 4.742-5.246 1.043-3.111-.07-6.475-2.895-8.75-2.329-1.876-5.512-2.806-8.759-2.56m2.485 2.054c3.457.465 6.225 2.386 7.208 5.003a5.54 5.54 0 0 1 0 3.8c-.976 2.598-3.682 4.492-7.153 5.007-.686.101-2.527.102-3.18 0-.645-.1-1.285-.247-1.832-.421l-.468-.149-.026-.448a3.53 3.53 0 0 0-.114-.739 3.059 3.059 0 0 0-2.019-2.024c-.427-.129-1.174-.144-1.613-.031-.348.089-.299.128-.622-.495-.709-1.366-.815-3.075-.279-4.5.982-2.613 3.796-4.568 7.193-4.997.264-.034.57-.069.68-.078.4-.033 1.772.011 2.225.072M5.334 15.064c.364.124.666.549.666.937 0 .33-.216.695-.516.871-.156.091-.23.108-.484.108s-.328-.017-.484-.108c-.579-.341-.683-1.098-.215-1.566a.957.957 0 0 1 1.033-.242" fill-rule="evenodd" fill="#000" stroke="none"/></svg>