<svg xmlns="http://www.w3.org/2000/svg" width="24" height="24" fill="none" stroke="currentColor" stroke-width="2" stroke-linecap="round" stroke-linejoin="round"><path d="M11.2 1.024c-2.047.176-3.415.539-4.969 1.319C2.167 4.382.19 8.329 1.314 12.16c.193.661.574 1.482.929 2.004.086.128.157.251.157.275 0 .024-.043.129-.096.233-.214.422-.283.748-.283 1.328 0 .453.015.588.093.84.255.82.823 1.485 1.587 1.862l.362.177.053.291c.175.953.713 2.032 1.415 2.837.286.328.882.824 1.127.938.288.134.555.128.785-.018.494-.313.728-.913.518-1.326-.047-.091-.245-.298-.477-.497-.71-.612-1.12-1.266-1.381-2.204-.018-.067.027-.105.268-.23.159-.082.402-.247.541-.365l.252-.215.446.157c.579.204 1.17.367 1.786.492.77.157 1.041.131 1.298-.126.271-.271.387-.894.23-1.233-.148-.32-.364-.446-.964-.56a12.968 12.968 0 0 1-1.524-.403l-.424-.14-.023-.428a3.295 3.295 0 0 0-.11-.709 3.071 3.071 0 0 0-2.018-2.015c-.418-.127-1.215-.142-1.619-.03l-.257.071-.066-.087c-.156-.208-.483-.892-.611-1.279-.217-.657-.283-1.085-.283-1.82 0-.672.034-.932.199-1.514.54-1.911 2.226-3.651 4.457-4.598 2.408-1.023 5.278-1.142 7.778-.323 2.378.779 4.19 2.284 5.05 4.195.333.74.462 1.347.465 2.18.002.654-.047 1.002-.236 1.7a2.917 2.917 0 0 0-.098.475c0 .457.344.787.944.905.435.086.758-.082.949-.493.118-.253.283-.876.367-1.387.709-4.33-2.617-8.505-7.76-9.739-.598-.144-1.1-.234-1.68-.301-.377-.044-1.949-.083-2.26-.056m2.58 9.448a1.54 1.54 0 0 0-.674.681l-.086.187v10.68l.112.228c.294.599 1.024.903 1.636.68.427-.155.465-.202 1.749-2.124l1.202-1.801 2.171-.012 2.17-.011.201-.106c.822-.434.986-1.505.327-2.142-.321-.31-7.443-6.114-7.656-6.239-.16-.094-.242-.112-.55-.124-.333-.013-.381-.004-.602.103m3.634 4.588 2.349 1.92-1.412.021c-1.492.023-1.523.027-1.783.225-.074.057-.434.555-.815 1.128a60.18 60.18 0 0 1-.718 1.064c-.02.022-.035-1.315-.035-3.133 0-1.745.015-3.166.033-3.158.017.007 1.089.877 2.381 1.933m-12.08.004c.364.124.666.549.666.937 0 .33-.216.695-.516.871-.156.091-.23.108-.484.108s-.328-.017-.484-.108c-.579-.341-.683-1.098-.215-1.566a.957.957 0 0 1 1.033-.242" fill-rule="evenodd" fill="#000" stroke="none"/></svg>