<svg xmlns="http://www.w3.org/2000/svg" width="24" height="24" fill="none" stroke="currentColor" stroke-width="2" stroke-linecap="round" stroke-linejoin="round"><path d="M11.68 1.055c-.303.117-10.23 5.104-10.385 5.217a.769.769 0 0 0-.323.716c.028.272.19.613.358.754.069.059 2.436 1.261 5.259 2.672l5.133 2.566h.556l5.131-2.566c2.822-1.411 5.205-2.62 5.296-2.686a.769.769 0 0 0 .323-.716c-.028-.272-.19-.613-.358-.754-.069-.059-2.433-1.26-5.253-2.669-4.825-2.412-5.141-2.564-5.362-2.575a1.113 1.113 0 0 0-.375.041m4.18 3.995c2.123 1.061 3.86 1.939 3.86 1.95 0 .011-1.737.889-3.86 1.95L12 10.88 8.14 8.95C6.017 7.889 4.28 7.011 4.28 7c0-.015 7.656-3.866 7.71-3.878.005-.001 1.747.866 3.87 1.928M1.57 11.042c-.307.156-.555.561-.598.974a.77.77 0 0 0 .323.712c.091.066 2.474 1.275 5.296 2.686l5.131 2.566h.556l5.131-2.566c2.822-1.411 5.205-2.62 5.296-2.686.365-.268.425-.7.167-1.206-.218-.427-.526-.605-.938-.543-.131.019-1.646.757-5.06 2.464L12 15.88l-4.89-2.444c-4.516-2.257-4.908-2.445-5.13-2.462-.193-.015-.274-.002-.41.068m0 5c-.307.156-.555.561-.598.974a.77.77 0 0 0 .323.712c.091.066 2.474 1.275 5.296 2.686l5.131 2.566h.556l5.131-2.566c2.822-1.411 5.205-2.62 5.296-2.686.365-.268.425-.7.167-1.206-.218-.427-.526-.605-.938-.543-.131.019-1.646.757-5.06 2.464L12 20.88l-4.89-2.444c-4.516-2.257-4.908-2.445-5.13-2.462-.193-.015-.274-.002-.41.068" fill="#000" fill-rule="evenodd" stroke="none"/></svg>