<svg xmlns="http://www.w3.org/2000/svg" width="24" height="24" fill="none" stroke="currentColor" stroke-width="2" stroke-linecap="round" stroke-linejoin="round"><path d="M2.614 2.057a.814.814 0 0 0-.505.396l-.089.167v7.76l.1.178c.11.197.294.34.515.401.198.055 7.532.055 7.73 0a.842.842 0 0 0 .515-.401l.1-.178V2.62l-.089-.167c-.106-.197-.269-.322-.52-.398-.262-.079-7.505-.077-7.757.002m11 0a.814.814 0 0 0-.505.396l-.089.167v7.76l.1.178c.11.197.294.34.515.401.198.055 7.532.055 7.73 0a.842.842 0 0 0 .515-.401l.1-.178V2.62l-.089-.167c-.106-.197-.269-.322-.52-.398-.262-.079-7.505-.077-7.757.002M9 6.5V9H4V4h5v2.5m11 0V9h-5V4h5v2.5M2.614 13.057a.814.814 0 0 0-.505.396l-.089.167v7.76l.1.178c.11.197.294.34.515.401.198.055 7.532.055 7.73 0a.842.842 0 0 0 .515-.401l.1-.178v-7.76l-.089-.167c-.106-.197-.269-.322-.52-.398-.262-.079-7.505-.077-7.757.002m11 0a.814.814 0 0 0-.505.396l-.089.167v7.76l.1.178c.11.197.294.34.515.401.198.055 7.532.055 7.73 0a.842.842 0 0 0 .515-.401l.1-.178v-7.76l-.089-.167c-.106-.197-.269-.322-.52-.398-.262-.079-7.505-.077-7.757.002M9 17.5V20H4v-5h5v2.5m11 0V20h-5v-5h5v2.5" fill="#000" fill-rule="evenodd" stroke="none"/></svg>