<svg xmlns="http://www.w3.org/2000/svg" width="24" height="24" fill="none" stroke="currentColor" stroke-width="2" stroke-linecap="round" stroke-linejoin="round"><path d="M2.614 2.057a.814.814 0 0 0-.505.396l-.089.167v9.76l.1.178c.11.197.294.34.515.401.198.055 7.532.055 7.73 0a.842.842 0 0 0 .515-.401l.1-.178V2.62l-.089-.167c-.106-.197-.269-.322-.52-.398-.262-.079-7.505-.077-7.757.002m11 0a.814.814 0 0 0-.505.396l-.089.167v5.76l.1.178c.11.197.294.34.515.401.198.055 7.532.055 7.73 0a.842.842 0 0 0 .515-.401l.1-.178V2.62l-.089-.167c-.106-.197-.269-.322-.52-.398-.262-.079-7.505-.077-7.757.002M9 7.5V11H4V4h5v3.5m11-2V7h-5V4h5v1.5m-6.386 5.557a.814.814 0 0 0-.505.396l-.089.167v9.76l.1.178c.11.197.294.34.515.401.198.055 7.532.055 7.73 0a.842.842 0 0 0 .515-.401l.1-.178v-9.76l-.089-.167c-.106-.197-.269-.322-.52-.398-.262-.079-7.505-.077-7.757.002M20 16.5V20h-5v-7h5v3.5M2.614 15.057a.814.814 0 0 0-.505.396l-.089.167v5.76l.1.178c.11.197.294.34.515.401.198.055 7.532.055 7.73 0a.842.842 0 0 0 .515-.401l.1-.178v-5.76l-.089-.167c-.106-.197-.269-.322-.52-.398-.262-.079-7.505-.077-7.757.002M9 18.5V20H4v-3h5v1.5" fill="#000" fill-rule="evenodd" stroke="none"/></svg>