<svg xmlns="http://www.w3.org/2000/svg" width="24" height="24" fill="none" stroke="currentColor" stroke-width="2" stroke-linecap="round" stroke-linejoin="round"><path d="M2.614 2.057a.814.814 0 0 0-.505.396l-.089.167v7.76l.1.178c.11.197.294.34.515.401.198.055 7.532.055 7.73 0a.842.842 0 0 0 .515-.401l.1-.178V2.62l-.089-.167c-.106-.197-.269-.322-.52-.398-.262-.079-7.505-.077-7.757.002m11 1a.814.814 0 0 0-.505.396c-.074.139-.089.231-.089.547 0 .331.013.403.1.558.11.197.294.34.515.401.198.055 7.532.055 7.73 0a.842.842 0 0 0 .515-.401c.087-.156.1-.226.099-.558-.001-.433-.081-.645-.301-.801-.283-.202-.229-.199-4.194-.196-2.923.002-3.739.013-3.87.054M9 6.5V9H4V4h5v2.5m4.614 1.557a.814.814 0 0 0-.505.396c-.074.139-.089.231-.089.547 0 .331.013.403.1.558.11.197.294.34.515.401.198.055 7.532.055 7.73 0a.842.842 0 0 0 .515-.401c.087-.156.1-.226.099-.558-.001-.433-.081-.645-.301-.801-.283-.202-.229-.199-4.194-.196-2.923.002-3.739.013-3.87.054m-11 5a.814.814 0 0 0-.505.396l-.089.167v7.76l.1.178c.11.197.294.34.515.401.198.055 7.532.055 7.73 0a.842.842 0 0 0 .515-.401l.1-.178v-7.76l-.089-.167c-.106-.197-.269-.322-.52-.398-.262-.079-7.505-.077-7.757.002m11 1a.814.814 0 0 0-.505.396c-.074.139-.089.231-.089.547 0 .331.013.403.1.558.11.197.294.34.515.401.198.055 7.532.055 7.73 0a.842.842 0 0 0 .515-.401c.087-.156.1-.226.099-.558-.001-.433-.081-.645-.301-.801-.283-.202-.229-.199-4.194-.196-2.923.002-3.739.013-3.87.054M9 17.5V20H4v-5h5v2.5m4.614 1.557a.814.814 0 0 0-.505.396c-.074.139-.089.231-.089.547 0 .331.013.403.1.558.11.197.294.34.515.401.198.055 7.532.055 7.73 0a.842.842 0 0 0 .515-.401c.087-.156.1-.226.099-.558-.001-.433-.081-.645-.301-.801-.283-.202-.229-.199-4.194-.196-2.923.002-3.739.013-3.87.054" fill="#000" fill-rule="evenodd" stroke="none"/></svg>