<svg xmlns="http://www.w3.org/2000/svg" width="24" height="24" fill="none" stroke="currentColor" stroke-width="2" stroke-linecap="round" stroke-linejoin="round"><path d="M2.614 2.057a.814.814 0 0 0-.505.396l-.089.167v7.76l.1.178c.11.197.294.34.515.401.2.056 18.53.056 18.73 0a.842.842 0 0 0 .515-.401l.1-.178V2.62l-.089-.167c-.106-.197-.269-.322-.52-.398-.265-.079-18.503-.077-18.757.002M20 6.5V9H4V4h16v2.5M2.614 13.057a.814.814 0 0 0-.505.396l-.089.167v7.76l.1.178c.11.197.294.34.515.401.199.055 9.531.055 9.73 0a.842.842 0 0 0 .515-.401l.1-.178v-7.76l-.089-.167c-.106-.197-.269-.322-.52-.398-.263-.079-9.504-.077-9.757.002m13 0a.814.814 0 0 0-.505.396l-.089.167-.011 3.793c-.007 2.481.003 3.845.03 3.944a.84.84 0 0 0 .403.523l.178.1 2.792.011c1.814.007 2.845-.003 2.944-.03a.84.84 0 0 0 .524-.403l.1-.178v-7.76l-.089-.167c-.106-.197-.269-.322-.52-.398-.261-.078-5.506-.076-5.757.002M11 17.5V20H4v-5h7v2.5m9 0V20h-3v-5h3v2.5" fill-rule="evenodd" fill="#000" stroke="none"/></svg>