<svg xmlns="http://www.w3.org/2000/svg" width="24" height="24" fill="none" stroke="currentColor" stroke-width="2" stroke-linecap="round" stroke-linejoin="round"><path d="M3.614 3.057a.814.814 0 0 0-.505.396l-.089.167-.01 8.294c-.007 5.477.003 8.346.03 8.444.104.389.394.604.856.633.485.031.803-.109.984-.433l.1-.178V3.62l-.089-.167a.874.874 0 0 0-.213-.254c-.264-.189-.721-.249-1.064-.142m8 2a.814.814 0 0 0-.505.396l-.089.167-.01 7.294c-.007 4.811.003 7.345.029 7.444.105.389.395.604.857.633.485.031.803-.109.984-.433l.1-.178V5.62l-.089-.167a.874.874 0 0 0-.213-.254c-.264-.189-.721-.249-1.064-.142m4.012.023c-.459.179-.644.417-.636.819.004.19.439 1.759 2.043 7.361 1.121 3.916 2.057 7.168 2.08 7.226.058.148.276.386.423.463.392.205 1.197-.071 1.413-.485.15-.287.175-.19-1.982-7.724a1315.422 1315.422 0 0 0-2.08-7.226 1.188 1.188 0 0 0-.411-.456c-.161-.083-.612-.072-.85.022M7.614 7.057a.814.814 0 0 0-.505.396l-.089.167-.01 6.294c-.007 4.145.003 6.345.029 6.444.105.389.395.603.857.633.485.031.803-.109.984-.433l.1-.178V7.62l-.089-.167a.874.874 0 0 0-.213-.254c-.264-.189-.721-.249-1.064-.142" fill-rule="evenodd" fill="#000" stroke="none"/></svg>