<svg xmlns="http://www.w3.org/2000/svg" width="24" height="24" fill="none" stroke="currentColor" stroke-width="2" stroke-linecap="round" stroke-linejoin="round"><path d="m11.28 1.023-.56.06c-2.914.309-5.693 1.903-7.505 4.304a10.99 10.99 0 0 0 0 13.226 10.998 10.998 0 0 0 13.501 3.323 11.127 11.127 0 0 0 5.22-5.22c2.234-4.725.85-10.357-3.316-13.492a10.911 10.911 0 0 0-5.197-2.128C13 1.038 11.574.99 11.28 1.023m2.04 2.078c.943.143 1.735.39 2.622.819.53.256 1.436.82 1.587.987.066.073.017.128-1.35 1.494l-1.418 1.417-.39-.206c-.682-.359-1.143-.499-1.901-.576a3.994 3.994 0 0 0-.94 0c-.754.076-1.211.214-1.902.575l-.392.204-1.417-1.416C6.454 5.035 6.405 4.98 6.471 4.907c.15-.166 1.055-.73 1.587-.989 1.035-.504 1.968-.758 3.282-.894.322-.033 1.571.015 1.98.077M7.744 9.37c-.514.882-.724 1.645-.724 2.63 0 .985.21 1.749.724 2.629l.076.13-1.418 1.419c-1.367 1.368-1.422 1.417-1.495 1.351-.167-.151-.731-1.057-.987-1.587-.641-1.325-.897-2.449-.897-3.942 0-1.135.139-1.987.485-2.98.277-.793.875-1.902 1.323-2.454l.141-.174 1.424 1.424L7.82 9.241l-.076.129m11.745-2.352a9.315 9.315 0 0 1 1.244 2.822c.186.763.244 1.272.244 2.16 0 1.493-.256 2.617-.897 3.942-.256.53-.82 1.436-.987 1.587-.073.066-.128.017-1.492-1.348l-1.416-1.416.223-.433c.429-.831.572-1.415.572-2.332 0-.917-.143-1.501-.572-2.332l-.223-.433 1.416-1.416c1.364-1.365 1.419-1.414 1.492-1.348.042.038.22.284.396.547m-6.628 2.111c.489.143.827.351 1.243.767.412.413.62.747.771 1.243.083.273.098.403.098.861 0 .627-.085.981-.35 1.461-.215.388-.826.99-1.203 1.186-.503.262-.806.332-1.42.332-.614 0-.917-.07-1.42-.332-.377-.196-.988-.798-1.203-1.186-.265-.48-.35-.834-.35-1.461 0-.458.015-.588.098-.861.151-.496.359-.83.771-1.243.497-.497.946-.737 1.603-.856.333-.06 1.001-.017 1.362.089m-3.178 7.287c.811.42 1.404.564 2.317.564.917 0 1.501-.143 2.332-.572l.433-.223 1.417 1.417a68.5 68.5 0 0 1 1.417 1.438c-.001.011-.14.12-.31.243a9.025 9.025 0 0 1-9.928.428c-.265-.159-.83-.547-.959-.658-.02-.018 2.803-2.853 2.841-2.853.013 0 .211.097.44.216" fill="#000" fill-rule="evenodd" stroke="none"/></svg>