<svg xmlns="http://www.w3.org/2000/svg" width="24" height="24" fill="none" stroke="currentColor" stroke-width="2" stroke-linecap="round" stroke-linejoin="round"><path d="M1.626 1.045c-.206.109-.48.388-.588.599a.792.792 0 0 0 .002.719c.061.122.717.807 2.109 2.203C4.261 5.68 5.158 6.61 5.144 6.633 5.093 6.716 5 7.586 5 7.981c0 .973.21 1.825.665 2.701.269.519.568.92 1.129 1.518.663.706.898 1.097 1.081 1.8.117.447.158.554.277.714.206.281.684.366 1.15.205.273-.093.438-.233.542-.459.105-.227.094-.494-.044-1.006-.274-1.025-.668-1.705-1.472-2.541-.494-.514-.753-.859-.963-1.283-.161-.325-.325-.864-.325-1.066 0-.085 1.29 1.186 7.21 7.102 5.211 5.208 7.259 7.231 7.387 7.295.353.176.718.086 1.064-.26.346-.346.435-.711.26-1.064-.122-.245-20.345-20.472-20.589-20.593a.884.884 0 0 0-.746.001m9.614 0a6.876 6.876 0 0 0-2.315.678c-.545.267-.851.513-.928.746-.108.328.057.826.373 1.126.216.204.301.242.55.244.19.001.295-.035.8-.277.676-.324 1.152-.464 1.81-.531 1.139-.115 2.3.185 3.294.85.405.271 1.024.89 1.295 1.295.755 1.127 1.048 2.536.779 3.747-.082.37-.385 1.015-.637 1.354-.445.598-.457.969-.047 1.379.389.389.84.492 1.188.271.42-.267.97-1.121 1.27-1.972.248-.701.308-1.09.307-1.975-.001-.67-.017-.875-.093-1.26-.29-1.449-1.015-2.792-2.032-3.76-1.506-1.435-3.591-2.146-5.614-1.915M8.614 17.057a.814.814 0 0 0-.505.396c-.074.139-.089.231-.089.547 0 .331.013.403.1.558.11.197.294.34.515.401.197.055 6.533.055 6.73 0a.842.842 0 0 0 .515-.401c.087-.156.1-.226.099-.558-.001-.433-.081-.645-.301-.801-.28-.2-.267-.199-3.694-.196-2.512.002-3.24.014-3.37.054m1 4a.814.814 0 0 0-.505.396c-.074.139-.089.231-.089.547 0 .331.013.403.1.558.11.197.294.34.515.401.089.025 1 .041 2.365.041 1.365 0 2.276-.016 2.365-.041a.842.842 0 0 0 .515-.401c.087-.156.1-.226.099-.558-.001-.433-.081-.645-.301-.801-.272-.194-.342-.199-2.694-.196-1.691.002-2.243.014-2.37.054" fill-rule="evenodd" fill="#000" stroke="none"/></svg>