<svg xmlns="http://www.w3.org/2000/svg" width="24" height="24" fill="none" stroke="currentColor" stroke-width="2" stroke-linecap="round" stroke-linejoin="round"><path d="M11.54 1.023c-.825.079-1.29.177-1.92.404A7.011 7.011 0 0 0 5.456 5.53c-.266.697-.403 1.385-.443 2.213a5.527 5.527 0 0 0 .652 2.939c.269.519.568.92 1.129 1.518.663.706.898 1.097 1.081 1.8.117.447.158.554.277.714.206.281.684.366 1.15.205.273-.093.438-.233.542-.459.105-.227.094-.494-.044-1.006-.274-1.025-.668-1.705-1.472-2.541-.893-.929-1.244-1.627-1.312-2.607a5.807 5.807 0 0 1 .145-1.546 5.045 5.045 0 0 1 3.599-3.599c.933-.241 2.115-.178 2.992.159 1.523.585 2.688 1.883 3.087 3.44.109.425.175 1.118.147 1.54-.06.913-.399 1.653-1.094 2.388-.828.875-1.226 1.457-1.535 2.239-.128.326-.276.955-.276 1.173.002.542.44.901 1.096.899.545-.002.771-.242.943-.999.068-.303.321-.835.548-1.154.104-.146.352-.437.552-.646.448-.469.638-.7.87-1.06.91-1.415 1.14-3.1.674-4.926-.674-2.634-2.97-4.709-5.662-5.116-.376-.057-1.289-.101-1.562-.075M8.614 17.057a.814.814 0 0 0-.505.396c-.074.139-.089.231-.089.547 0 .331.013.403.1.558.11.197.294.34.515.401.197.055 6.533.055 6.73 0a.842.842 0 0 0 .515-.401c.087-.156.1-.226.099-.558-.001-.433-.081-.645-.301-.801-.28-.2-.267-.199-3.694-.196-2.512.002-3.24.014-3.37.054m1 4a.814.814 0 0 0-.505.396c-.074.139-.089.231-.089.547 0 .331.013.403.1.558.11.197.294.34.515.401.089.025 1 .041 2.365.041 1.365 0 2.276-.016 2.365-.041a.842.842 0 0 0 .515-.401c.087-.156.1-.226.099-.558-.001-.433-.081-.645-.301-.801-.272-.194-.342-.199-2.694-.196-1.691.002-2.243.014-2.37.054" fill-rule="evenodd" fill="#000" stroke="none"/></svg>