<svg xmlns="http://www.w3.org/2000/svg" width="24" height="24" fill="none" stroke="currentColor" stroke-width="2" stroke-linecap="round" stroke-linejoin="round"><path d="M1.626 1.045c-.206.109-.48.388-.588.599a.792.792 0 0 0 .002.719c.061.121.684.774 1.984 2.078C4.067 5.486 4.92 6.355 4.92 6.371c0 .016-.023.029-.052.029-.029 0-.204.073-.39.163-1.773.857-2.948 2.351-3.364 4.277-.13.606-.13 1.714 0 2.32.522 2.418 2.288 4.191 4.706 4.723.361.079.544.09 1.882.106.999.012 1.535.004 1.644-.025a.842.842 0 0 0 .534-.406c.087-.156.1-.226.099-.558-.001-.433-.081-.645-.301-.801-.254-.182-.41-.199-1.768-.199-1.133 0-1.323-.009-1.683-.083a3.986 3.986 0 0 1-3.169-3.312 3.416 3.416 0 0 1 0-1.21A3.986 3.986 0 0 1 5.16 8.464c.426-.218.762-.333 1.145-.393l.3-.046 1.487 1.487L9.58 11h-.884c-.939 0-1.135.028-1.374.199-.222.158-.302.369-.302.801 0 .331.013.403.1.558.11.197.294.34.515.401.088.025.895.041 2.045.041h1.899l4.941 4.936c3.541 3.538 4.99 4.961 5.117 5.025.353.176.718.087 1.064-.26.347-.346.436-.711.26-1.064-.076-.152-3.325-3.443-10.214-10.344L10.26 8.806a3351.89 3351.89 0 0 1-2.5-2.501L5.1 3.667C3.415 1.996 2.482 1.1 2.372 1.044a.884.884 0 0 0-.746.001m12.988 5.01c-.393.128-.575.382-.605.845-.031.481.11.799.433.98l.178.1 1.5.025c1.709.028 1.866.051 2.543.371.489.232.818.459 1.16.801a4.215 4.215 0 0 1 1.064 1.885c.133.535.125 1.406-.018 1.946a4.572 4.572 0 0 1-.622 1.326 3.62 3.62 0 0 0-.238.398c-.074.169-.06.489.028.662.174.341.659.645 1.028.646.381 0 .73-.333 1.172-1.12a6.005 6.005 0 0 0 .439-4.854c-.336-.986-.98-1.945-1.735-2.584a6.193 6.193 0 0 0-2.761-1.365c-.363-.079-.537-.089-1.9-.101-1.182-.012-1.535-.003-1.666.039" fill-rule="evenodd" fill="#000" stroke="none"/></svg>