<svg xmlns="http://www.w3.org/2000/svg" width="24" height="24" fill="none" stroke="currentColor" stroke-width="2" stroke-linecap="round" stroke-linejoin="round"><path d="M16.04 1.139c-.974.163-1.893.542-2.627 1.085-.346.256-2.266 2.102-2.492 2.396-.338.44-.294.843.141 1.271.221.218.48.349.688.348.309-.002.461-.119 1.547-1.192.574-.567 1.16-1.114 1.303-1.215a3.944 3.944 0 0 1 2.375-.751 3.984 3.984 0 0 1 3.748 2.701c.168.493.21.831.186 1.478-.017.446-.043.633-.127.918a4.451 4.451 0 0 1-.659 1.302c-.108.143-.968 1.027-1.91 1.964-1.812 1.802-1.985 1.949-2.612 2.221-.575.249-.866.307-1.561.311-.685.004-.961-.043-1.51-.259-.621-.243-1.152-.633-1.629-1.195-.363-.428-.564-.562-.845-.562-.36.001-.847.31-1.019.646-.109.213-.101.509.02.748.236.466 1.062 1.285 1.713 1.699a5.982 5.982 0 0 0 5.926.302c.809-.403 1.015-.579 3.008-2.572 1.306-1.306 1.914-1.942 2.085-2.183a6.041 6.041 0 0 0 1.126-3.063 5.94 5.94 0 0 0-.539-3.008c-.756-1.659-2.371-2.937-4.208-3.331-.512-.11-1.634-.141-2.128-.059M9.16 8.062c-1.221.171-2.288.682-3.249 1.555-.823.747-3.448 3.433-3.698 3.783-1.142 1.599-1.457 3.621-.846 5.417.322.947.729 1.609 1.425 2.318.845.861 1.845 1.407 3.089 1.685.443.099 1.553.123 2.059.046a6.033 6.033 0 0 0 2.66-1.098c.421-.307 2.499-2.379 2.604-2.597.172-.355.07-.736-.286-1.069-.231-.216-.479-.34-.678-.34-.297 0-.457.124-1.537 1.191-.574.568-1.15 1.11-1.281 1.207a4.779 4.779 0 0 1-1.282.625c-.336.103-.409.11-1.08.11-.669 0-.745-.008-1.08-.109-1.297-.393-2.29-1.34-2.714-2.588-.154-.453-.199-.824-.175-1.458.03-.811.22-1.391.68-2.08.177-.265 3.388-3.517 3.753-3.801a4.234 4.234 0 0 1 1.596-.766c.221-.053.453-.071.88-.07.731.002 1.118.09 1.745.396a3.91 3.91 0 0 1 1.35 1.056c.367.431.568.565.849.565.36-.001.847-.31 1.019-.646.109-.213.101-.509-.02-.748-.245-.484-1.094-1.317-1.752-1.72-1.25-.764-2.633-1.061-4.031-.864" fill-rule="evenodd" fill="#000" stroke="none"/></svg>