<svg xmlns="http://www.w3.org/2000/svg" width="24" height="24" fill="none" stroke="currentColor" stroke-width="2" stroke-linecap="round" stroke-linejoin="round"><path d="M6.38 6.043c-2.596.256-4.699 2.172-5.266 4.797-.13.606-.13 1.714 0 2.32.522 2.418 2.288 4.191 4.706 4.723.361.079.544.09 1.882.106.999.012 1.535.004 1.644-.025a.842.842 0 0 0 .534-.406c.087-.156.1-.226.099-.558-.001-.433-.081-.645-.301-.801-.254-.182-.41-.199-1.768-.199-1.133 0-1.323-.009-1.683-.083a3.986 3.986 0 0 1-3.169-3.312 3.416 3.416 0 0 1 0-1.21C3.28 9.926 4.324 8.69 5.755 8.203 6.228 8.042 6.692 8.001 8 8c.693 0 1.283-.018 1.365-.041a.842.842 0 0 0 .515-.401c.087-.156.1-.226.099-.558-.001-.433-.081-.645-.301-.801-.255-.182-.409-.199-1.734-.194-.684.003-1.388.02-1.564.038m8.234.014a.814.814 0 0 0-.505.396c-.074.139-.089.231-.089.547 0 .331.013.403.1.558.11.197.294.34.515.401.082.023.672.041 1.365.041 1.67.001 2.058.064 2.84.464.899.46 1.622 1.307 1.957 2.291.1.295.203.925.203 1.245 0 .322-.103.951-.204 1.245-.475 1.387-1.601 2.383-3.023 2.672-.36.074-.55.083-1.683.083-1.358 0-1.514.017-1.768.199-.222.158-.302.369-.302.801 0 .331.013.403.1.558a.842.842 0 0 0 .534.406c.109.029.645.037 1.644.025 1.632-.02 1.849-.046 2.642-.317 2.014-.69 3.486-2.374 3.945-4.512.13-.606.13-1.714 0-2.32-.259-1.209-.776-2.18-1.616-3.035a5.862 5.862 0 0 0-3.705-1.766c-.598-.058-2.749-.045-2.95.018m-7 5a.814.814 0 0 0-.505.396c-.074.139-.089.231-.089.547 0 .331.013.403.1.558.11.197.294.34.515.401.198.055 8.532.055 8.73 0a.842.842 0 0 0 .515-.401c.087-.156.1-.226.099-.558-.001-.433-.081-.645-.301-.801-.285-.203-.191-.199-4.694-.196-3.333.002-4.238.013-4.37.054" fill-rule="evenodd" fill="#000" stroke="none"/></svg>