<svg xmlns="http://www.w3.org/2000/svg" width="24" height="24" fill="none" stroke="currentColor" stroke-width="2" stroke-linecap="round" stroke-linejoin="round"><path d="M3.499 1.04a3.05 3.05 0 0 0-2.385 2.12c-.135.434-.135 1.246 0 1.68A3.086 3.086 0 0 0 3.16 6.886c.434.135 1.246.135 1.68 0A3.086 3.086 0 0 0 6.886 4.84c.135-.434.135-1.246 0-1.68-.305-.981-1.076-1.753-2.025-2.031C4.5 1.023 3.832.98 3.499 1.04m.811 2.021c.378.112.69.537.69.94 0 .33-.216.695-.516.871-.156.091-.23.108-.484.108s-.328-.017-.484-.108c-.581-.342-.683-1.098-.212-1.569.279-.279.612-.359 1.006-.242m11.23 3.962c-.825.079-1.29.177-1.92.404-2.142.771-3.823 2.606-4.384 4.787-.214.831-.207.68-.224 4.975-.011 2.704-.002 4.06.026 4.164.062.23.203.415.404.527l.178.1 2.291.011c1.481.008 2.345-.003 2.444-.03a.841.841 0 0 0 .525-.403l.1-.178.02-3.82c.022-4.28-.001-3.963.321-4.277.169-.163.456-.283.679-.283.237 0 .514.12.697.303.318.318.303.108.303 4.254 0 2.331.015 3.716.041 3.808a.842.842 0 0 0 .401.515l.178.1 2.291.011c1.481.008 2.345-.003 2.444-.03a.841.841 0 0 0 .525-.403l.1-.178v-4.02c0-4.229-.002-4.279-.184-5.02-.671-2.727-2.952-4.827-5.694-5.242-.376-.057-1.289-.101-1.562-.075M1.614 8.057a.814.814 0 0 0-.505.396l-.089.167-.01 6.294c-.007 4.145.003 6.345.029 6.444a.841.841 0 0 0 .403.522l.178.1 2.291.011c1.481.008 2.345-.003 2.444-.03a.841.841 0 0 0 .525-.403l.1-.178V8.62l-.089-.167c-.106-.197-.269-.322-.52-.398-.259-.078-4.507-.076-4.757.002m14.938.986c.213.023.523.077.688.119a5.039 5.039 0 0 1 3.598 3.598c.145.568.162.995.162 4.158V20H19.003l-.012-3.29-.012-3.29-.093-.28c-.329-.983-1.075-1.725-2.025-2.015-.273-.083-.403-.098-.861-.098-.458 0-.588.015-.861.098-.95.29-1.696 1.032-2.025 2.015l-.093.28-.012 3.29-.012 3.29H11v-3.082c0-1.906.016-3.229.043-3.47a4.976 4.976 0 0 1 5.509-4.405M5 15v5H3V10h2v5" fill-rule="evenodd" fill="#000" stroke="none"/></svg>