<svg xmlns="http://www.w3.org/2000/svg" width="24" height="24" fill="none" stroke="currentColor" stroke-width="2" stroke-linecap="round" stroke-linejoin="round"><path d="M3.614 5.057c-.391.123-.575.379-.605.843-.041.632.242 1.022.788 1.087L4 7.011v1.971l-.244.046c-.306.058-.529.204-.645.422-.076.142-.091.232-.091.55 0 .331.013.403.1.558.11.197.294.34.515.401.191.053 2.539.053 2.73 0a.842.842 0 0 0 .515-.401c.087-.156.1-.226.099-.558-.001-.315-.016-.409-.091-.55-.115-.218-.337-.364-.642-.422l-.242-.046-.012-1.681c-.012-1.65-.014-1.684-.101-1.848-.106-.197-.269-.322-.52-.398-.245-.073-1.52-.072-1.757.002m6 0a.814.814 0 0 0-.505.396c-.074.139-.089.231-.089.547 0 .331.013.403.1.558.11.197.294.34.515.401.199.056 11.531.056 11.73 0a.842.842 0 0 0 .515-.401c.087-.156.1-.226.099-.558-.001-.433-.081-.645-.301-.801-.289-.206-.074-.199-6.194-.196-4.565.002-5.737.013-5.87.054m0 6a.814.814 0 0 0-.505.396c-.074.139-.089.231-.089.547 0 .331.013.403.1.558.11.197.294.34.515.401.199.056 11.531.056 11.73 0a.842.842 0 0 0 .515-.401c.087-.156.1-.226.099-.558-.001-.433-.081-.645-.301-.801-.289-.206-.074-.199-6.194-.196-4.565.002-5.737.013-5.87.054M4.3 12.856c-.154.03-.397.102-.54.161-.742.302-.961.758-.669 1.393.274.598.679.757 1.295.51.335-.134.443-.146.556-.063.076.056.076.061.007.191-.04.073-.36.437-.713.808-.845.89-1.043 1.183-1.177 1.734-.168.696.054 1.224.576 1.369.191.053 2.539.053 2.73 0a.842.842 0 0 0 .515-.401c.087-.156.1-.226.099-.558-.001-.433-.081-.645-.301-.801A1.3 1.3 0 0 0 6.05 17h-.137l.248-.27c.437-.475.666-.858.774-1.293a1.924 1.924 0 0 0-.016-1.02c-.286-1.119-1.418-1.793-2.619-1.561m5.314 4.201a.814.814 0 0 0-.505.396c-.074.139-.089.231-.089.547 0 .331.013.403.1.558.11.197.294.34.515.401.199.056 11.531.056 11.73 0a.842.842 0 0 0 .515-.401c.087-.156.1-.226.099-.558-.001-.433-.081-.645-.301-.801-.289-.206-.074-.199-6.194-.196-4.565.002-5.737.013-5.87.054" fill-rule="evenodd" fill="#000" stroke="none"/></svg>