<svg xmlns="http://www.w3.org/2000/svg" width="24" height="24" fill="none" stroke="currentColor" stroke-width="2" stroke-linecap="round" stroke-linejoin="round"><path d="M2.614 5.057a.814.814 0 0 0-.505.396c-.074.139-.089.231-.089.547 0 .331.013.403.1.558.11.197.294.34.515.401.2.056 13.53.056 13.73 0a.842.842 0 0 0 .515-.401c.087-.156.1-.226.099-.558-.001-.433-.081-.645-.301-.801-.29-.207.003-.199-7.194-.196-5.386.002-6.737.013-6.87.054m12.012 3.988c-.369.194-.675.628-.675.955 0 .307.128.487.902 1.27l.722.73-.722.73c-.774.783-.902.963-.902 1.27 0 .477.572 1.049 1.049 1.049.307 0 .487-.128 1.27-.902l.73-.722.73.722c.783.774.963.902 1.27.902.477 0 1.049-.572 1.049-1.049 0-.307-.128-.487-.902-1.27l-.722-.73.722-.73c.433-.438.758-.801.812-.907.178-.351.089-.717-.258-1.064-.341-.341-.722-.431-1.073-.254-.095.049-.484.399-.898.808l-.73.722-.73-.722c-.414-.409-.803-.759-.898-.808a.877.877 0 0 0-.746 0M2.614 11.057a.814.814 0 0 0-.505.396c-.074.139-.089.231-.089.547 0 .331.013.403.1.558.11.197.294.34.515.401.198.055 8.532.055 8.73 0a.842.842 0 0 0 .515-.401c.087-.156.1-.226.099-.558-.001-.433-.081-.645-.301-.801-.285-.203-.191-.199-4.694-.196-3.333.002-4.238.013-4.37.054m0 6a.814.814 0 0 0-.505.396c-.074.139-.089.231-.089.547 0 .331.013.403.1.558.11.197.294.34.515.401.2.056 13.53.056 13.73 0a.842.842 0 0 0 .515-.401c.087-.156.1-.226.099-.558-.001-.433-.081-.645-.301-.801-.29-.207.003-.199-7.194-.196-5.386.002-6.737.013-6.87.054" fill-rule="evenodd" fill="#000" stroke="none"/></svg>