<svg xmlns="http://www.w3.org/2000/svg" width="24" height="24" fill="none" stroke="currentColor" stroke-width="2" stroke-linecap="round" stroke-linejoin="round"><path d="M5.62 4.047c-.088.046-.488.408-.888.804l-.729.721-.244-.227c-.314-.29-.501-.385-.759-.385-.251 0-.466.104-.701.339-.347.347-.436.712-.259 1.064.119.237 1.36 1.478 1.597 1.597a.8.8 0 0 0 .726 0c.244-.122 2.475-2.353 2.597-2.597.177-.353.088-.717-.259-1.064-.341-.341-.735-.433-1.081-.252m3.994 1.01a.814.814 0 0 0-.505.396c-.074.139-.089.231-.089.547 0 .331.013.403.1.558.11.197.294.34.515.401.199.056 11.531.056 11.73 0a.842.842 0 0 0 .515-.401c.087-.156.1-.226.099-.558-.001-.433-.081-.645-.301-.801-.289-.206-.074-.199-6.194-.196-4.565.002-5.737.013-5.87.054m-3.994 4.99c-.088.046-.488.408-.888.804l-.729.721-.244-.227c-.314-.29-.501-.385-.759-.385-.251 0-.466.104-.701.339-.347.347-.436.712-.259 1.064.119.237 1.36 1.478 1.597 1.597a.8.8 0 0 0 .726 0c.244-.122 2.475-2.353 2.597-2.597.177-.353.088-.717-.259-1.064-.341-.341-.735-.433-1.081-.252m3.994 1.01a.814.814 0 0 0-.505.396c-.074.139-.089.231-.089.547 0 .331.013.403.1.558.11.197.294.34.515.401.199.056 11.531.056 11.73 0a.842.842 0 0 0 .515-.401c.087-.156.1-.226.099-.558-.001-.433-.081-.645-.301-.801-.289-.206-.074-.199-6.194-.196-4.565.002-5.737.013-5.87.054m-3.994 4.99c-.088.046-.488.408-.888.804l-.729.721-.244-.227c-.314-.29-.501-.385-.759-.385-.251 0-.466.104-.701.339-.347.347-.436.712-.259 1.064.119.237 1.36 1.478 1.597 1.597a.8.8 0 0 0 .726 0c.244-.122 2.475-2.353 2.597-2.597.177-.353.088-.717-.259-1.064-.341-.341-.735-.433-1.081-.252m3.994 1.01a.814.814 0 0 0-.505.396c-.074.139-.089.231-.089.547 0 .331.013.403.1.558.11.197.294.34.515.401.199.056 11.531.056 11.73 0a.842.842 0 0 0 .515-.401c.087-.156.1-.226.099-.558-.001-.433-.081-.645-.301-.801-.289-.206-.074-.199-6.194-.196-4.565.002-5.737.013-5.87.054" fill="#000" fill-rule="evenodd" stroke="none"/></svg>