<svg xmlns="http://www.w3.org/2000/svg" width="24" height="24" fill="none" stroke="currentColor" stroke-width="2" stroke-linecap="round" stroke-linejoin="round"><path d="M11.36 2.024c-4.283.303-7.848 3.207-8.994 7.323-.263.944-.345 1.577-.345 2.653s.082 1.709.345 2.653a10.002 10.002 0 0 0 6.981 6.981c.94.262 1.571.344 2.653.345 1.075.001 1.706-.081 2.653-.345a10.002 10.002 0 0 0 6.981-6.981c.242-.868.34-1.556.343-2.413.003-.571-.004-.633-.088-.79-.311-.583-1.435-.601-1.757-.029-.102.182-.111.242-.17 1.129-.113 1.685-.64 3.043-1.735 4.47-.197.256-.862.928-1.167 1.179-1.158.951-2.626 1.563-4.231 1.763-.493.061-1.6.03-2.089-.059-2.254-.408-3.985-1.495-5.278-3.314-.38-.535-.874-1.495-1.058-2.058a8.393 8.393 0 0 1-.369-3.141c.104-1.287.44-2.366 1.076-3.455.414-.709 1.244-1.669 1.891-2.188C7.78 5.123 8.86 4.578 9.9 4.286a7.94 7.94 0 0 1 3.043-.228c.496.066.747.118 1.455.304.453.118.515.126.68.082.263-.071.421-.211.565-.504.176-.358.202-.724.07-.979a.902.902 0 0 0-.253-.288c-.291-.197-1.262-.458-2.136-.573-.462-.062-1.563-.104-1.964-.076" fill-rule="evenodd" fill="#000" stroke="none"/></svg>