<svg xmlns="http://www.w3.org/2000/svg" width="24" height="24" fill="none" stroke="currentColor" stroke-width="2" stroke-linecap="round" stroke-linejoin="round"><path d="M11.614 1.057a.814.814 0 0 0-.505.396c-.089.166-.089.176-.1 2.458-.008 1.481.003 2.345.03 2.444.105.392.394.606.857.636.485.031.803-.109.984-.433l.1-.178V1.62l-.089-.167a.874.874 0 0 0-.213-.254c-.264-.189-.721-.249-1.064-.142M4.559 3.978c-.22.115-.532.44-.617.643a.832.832 0 0 0 .021.659c.109.242 3.17 3.308 3.434 3.441.353.176.718.087 1.064-.26.347-.346.436-.711.26-1.064-.133-.264-3.199-3.325-3.441-3.434a.809.809 0 0 0-.721.015m14.161-.015c-.242.109-3.308 3.17-3.441 3.434-.176.353-.087.718.26 1.064.346.347.711.436 1.064.26.264-.133 3.325-3.199 3.434-3.441.16-.355.089-.669-.228-1.008-.349-.372-.717-.477-1.089-.309M1.614 11.057a.814.814 0 0 0-.505.396c-.074.139-.089.231-.089.547 0 .331.013.403.1.558.11.197.294.34.515.401.196.055 4.534.055 4.73 0a.842.842 0 0 0 .515-.401c.087-.156.1-.226.099-.558-.001-.433-.081-.645-.301-.801-.272-.194-.342-.199-2.694-.196-1.691.002-2.243.014-2.37.054m16 0a.814.814 0 0 0-.505.396c-.074.139-.089.231-.089.547 0 .331.013.403.1.558.11.197.294.34.515.401.196.055 4.534.055 4.73 0a.842.842 0 0 0 .515-.401c.087-.156.1-.226.099-.558-.001-.433-.081-.645-.301-.801-.272-.194-.342-.199-2.694-.196-1.691.002-2.243.014-2.37.054M7.38 15.286c-.095.049-.808.729-1.748 1.668-1.675 1.673-1.749 1.762-1.751 2.111-.001.234.094.433.325.677.345.366.701.463 1.074.295.242-.109 3.308-3.17 3.441-3.434.176-.353.087-.718-.26-1.064-.34-.34-.734-.432-1.081-.253m8.486-.001c-.206.109-.48.388-.588.599a.795.795 0 0 0 .001.719c.133.264 3.199 3.325 3.441 3.434.36.162.672.088 1.022-.243.366-.345.463-.701.295-1.074-.106-.236-3.169-3.308-3.425-3.436a.884.884 0 0 0-.746.001m-4.252 1.772a.814.814 0 0 0-.505.396c-.089.166-.089.176-.1 2.458-.008 1.481.003 2.345.03 2.444.105.392.394.606.857.636.485.031.803-.109.984-.433l.1-.178v-4.76l-.089-.167a.874.874 0 0 0-.213-.254c-.264-.189-.721-.249-1.064-.142" fill="#000" fill-rule="evenodd" stroke="none"/></svg>