<svg xmlns="http://www.w3.org/2000/svg" width="24" height="24" fill="none" stroke="currentColor" stroke-width="2" stroke-linecap="round" stroke-linejoin="round"><path d="M11.614 1.057a.814.814 0 0 0-.505.396c-.086.161-.089.214-.101 1.387l-.012 1.22-.491.088c-2.1.377-4.029 1.68-5.241 3.541A8.8 8.8 0 0 0 4.405 9.5c-.156.479-.325 1.203-.325 1.398V11H2.946c-1.205 0-1.374.021-1.624.199-.222.158-.302.369-.302.801 0 .331.013.403.1.558.11.197.294.34.515.401.082.023.648.041 1.295.041h1.15v.102c0 .195.169.919.325 1.398a7.892 7.892 0 0 0 2.041 3.241A7.375 7.375 0 0 0 8.529 19.2c.72.349 1.943.72 2.369.72H11v1.15c0 .647.018 1.213.041 1.295.107.385.396.597.855.626.485.031.803-.109.984-.433.1-.178.1-.181.113-1.408l.012-1.23h.1c.192 0 .919-.17 1.395-.325a7.892 7.892 0 0 0 3.241-2.041 7.375 7.375 0 0 0 1.459-2.083c.349-.72.72-1.943.72-2.369V13h1.15c.647 0 1.213-.018 1.295-.041a.842.842 0 0 0 .515-.401c.087-.156.1-.226.099-.558-.001-.433-.081-.645-.301-.801-.25-.178-.419-.199-1.624-.199H19.92v-.102c0-.195-.169-.919-.325-1.398a7.907 7.907 0 0 0-1.794-2.996 7.99 7.99 0 0 0-4.153-2.326 5.777 5.777 0 0 0-.555-.098h-.088l-.012-1.23c-.013-1.183-.016-1.236-.102-1.397a.874.874 0 0 0-.213-.254c-.264-.189-.721-.249-1.064-.142m.95 4.982a5.991 5.991 0 0 1 5.107 4.021c.497 1.457.397 3.191-.261 4.52-.86 1.736-2.354 2.898-4.25 3.305-.606.13-1.714.13-2.32 0-1.899-.407-3.389-1.566-4.25-3.305-.658-1.329-.758-3.063-.261-4.52a5.892 5.892 0 0 1 1.402-2.255 5.918 5.918 0 0 1 4.833-1.766m-1.206 2.022c-1.128.176-2.215.913-2.789 1.892a3.992 3.992 0 0 0 1.943 5.751 3.988 3.988 0 0 0 5.192-2.216 3.963 3.963 0 0 0 .001-2.972 3.978 3.978 0 0 0-3.1-2.458 3.728 3.728 0 0 0-1.247.003m1.165 2.012a2.011 2.011 0 0 1 1.444 1.617c.1.653-.094 1.243-.564 1.714-.401.403-.856.596-1.403.596-.515 0-.962-.178-1.347-.535-1.33-1.236-.464-3.46 1.347-3.46.143 0 .378.031.523.068" fill="#000" fill-rule="evenodd" stroke="none"/></svg>