<svg xmlns="http://www.w3.org/2000/svg" width="24" height="24" fill="none" stroke="currentColor" stroke-width="2" stroke-linecap="round" stroke-linejoin="round"><path d="M1.626 1.045c-.206.109-.48.388-.588.599a.792.792 0 0 0 .002.719c.061.123.79.88 2.387 2.481l2.299 2.303-.266.376a7.89 7.89 0 0 0-1.312 3.026l-.088.45L2.936 11c-1.194 0-1.365.021-1.614.199-.222.158-.302.369-.302.801 0 .331.013.403.1.558.11.197.294.34.515.401.082.023.646.041 1.29.041H4.07l.028.249c.039.342.231 1.071.406 1.541a8.042 8.042 0 0 0 4.706 4.706c.47.175 1.199.367 1.541.406l.249.028v1.145c0 .644.018 1.208.041 1.29.107.385.396.597.855.626.485.031.803-.109.984-.433.1-.177.1-.182.113-1.398l.012-1.22.449-.088a7.906 7.906 0 0 0 3.002-1.299l.397-.279 2.303 2.299c1.601 1.597 2.358 2.326 2.481 2.387.353.177.717.088 1.064-.259.346-.346.435-.711.26-1.064-.122-.245-20.345-20.472-20.589-20.593a.884.884 0 0 0-.746.001m9.988.012a.814.814 0 0 0-.505.396c-.086.161-.089.214-.101 1.393l-.012 1.226-.188.026c-.306.043-1.055.228-1.232.304-.275.117-.448.299-.52.545-.058.199-.058.242.002.51.077.344.237.616.434.738.235.145.465.147 1.028.008a6.08 6.08 0 0 1 2.76-.06c2.003.421 3.722 1.955 4.391 3.917.373 1.094.417 2.237.129 3.412-.134.551-.141.629-.072.86.089.296.408.526.864.623.585.124.93-.16 1.136-.936.058-.22.129-.539.157-.709l.051-.31h1.142c.642 0 1.205-.018 1.287-.041a.842.842 0 0 0 .515-.401c.087-.156.1-.226.099-.558-.001-.433-.081-.645-.301-.801-.25-.178-.419-.199-1.624-.199H19.92v-.102c0-.195-.169-.919-.325-1.398a8.057 8.057 0 0 0-3.255-4.218 8.348 8.348 0 0 0-2.844-1.134l-.491-.088-.012-1.22c-.013-1.172-.016-1.226-.102-1.387a.874.874 0 0 0-.213-.254c-.264-.189-.721-.249-1.064-.142M11.3 12.721c2.369 2.369 4.103 4.133 4.079 4.15-1.108.784-2.367 1.173-3.619 1.117a5.97 5.97 0 0 1-3.935-1.693c-1.461-1.442-2.091-3.441-1.7-5.394.101-.5.194-.78.42-1.261.171-.363.571-1.04.614-1.04.012 0 1.875 1.854 4.141 4.121" fill-rule="evenodd" fill="#000" stroke="none"/></svg>