<svg xmlns="http://www.w3.org/2000/svg" width="24" height="24" fill="none" stroke="currentColor" stroke-width="2" stroke-linecap="round" stroke-linejoin="round"><path d="M11.38 1.043c-2.588.255-4.682 2.156-5.264 4.777-.083.375-.09.52-.105 2.285l-.017 1.886-.767.019c-.66.017-.812.033-1.088.116a3.068 3.068 0 0 0-2.025 2.034l-.094.3v8.08l.094.3a3.086 3.086 0 0 0 2.046 2.046l.3.094h15.08l.3-.094a3.086 3.086 0 0 0 2.046-2.046l.094-.3v-8.08l-.094-.3a3.068 3.068 0 0 0-2.025-2.034c-.276-.083-.428-.099-1.088-.116l-.767-.019-.017-1.886c-.015-1.765-.022-1.91-.105-2.285-.268-1.207-.783-2.167-1.615-3.015C14.978 1.49 13.23.86 11.38 1.043m1.225 2.015a3.986 3.986 0 0 1 2.931 2.102c.419.82.463 1.127.464 3.23V10H8V8.39c.001-2.103.045-2.41.464-3.23a4.013 4.013 0 0 1 2.894-2.099 3.728 3.728 0 0 1 1.247-.003m6.705 9.003c.279.083.546.35.629.629.053.176.061.699.061 3.811 0 3.914.005 3.82-.221 4.117-.061.08-.194.195-.295.254l-.184.108H4.7l-.184-.108a1.051 1.051 0 0 1-.458-.556c-.089-.254-.087-7.325.003-7.626.079-.269.351-.547.612-.627.291-.089 14.336-.092 14.637-.002" fill-rule="evenodd" fill="#000" stroke="none"/></svg>