<svg xmlns="http://www.w3.org/2000/svg" width="24" height="24" fill="none" stroke="currentColor" stroke-width="2" stroke-linecap="round" stroke-linejoin="round"><path d="M4.499 2.043C3.383 2.23 2.461 3.048 2.114 4.16l-.094.3v15.08l.094.3a3.111 3.111 0 0 0 2.026 2.045c.279.093.292.093 2.668.106 1.581.009 2.441-.001 2.544-.029a.84.84 0 0 0 .528-.404c.087-.156.1-.226.099-.558-.002-.531-.127-.753-.524-.929-.087-.039-.678-.056-2.435-.071l-2.32-.02-.184-.108a1.199 1.199 0 0 1-.291-.249c-.239-.314-.225.172-.225-7.601 0-8.016-.025-7.391.303-7.719C4.609 3.997 4.582 4 7.057 4c1.326 0 2.219-.016 2.308-.041a.842.842 0 0 0 .515-.401c.087-.156.1-.226.099-.558-.001-.433-.081-.645-.301-.801-.273-.195-.338-.199-2.734-.194-1.234.002-2.335.02-2.445.038m11.127 4.002c-.206.109-.48.388-.588.599a.792.792 0 0 0 .002.719c.06.12.639.729 1.813 1.907L18.578 11h-4.883c-5.233 0-5.087-.005-5.373.199-.222.158-.302.369-.302.801 0 .331.013.403.1.558.11.197.294.34.515.401.094.026 1.885.041 5.044.041h4.899l-1.725 1.73c-1.174 1.178-1.753 1.787-1.813 1.907-.177.352-.088.717.259 1.064.347.347.711.436 1.064.259.123-.061.95-.857 2.698-2.594 1.387-1.378 2.573-2.54 2.635-2.582.154-.102.353-.545.353-.784 0-.256-.198-.679-.373-.799-.075-.051-1.261-1.213-2.636-2.583-1.661-1.654-2.557-2.518-2.668-2.574a.884.884 0 0 0-.746.001" fill-rule="evenodd" fill="#000" stroke="none"/></svg>