<svg xmlns="http://www.w3.org/2000/svg" width="24" height="24" fill="none" stroke="currentColor" stroke-width="2" stroke-linecap="round" stroke-linejoin="round"><path d="M3.499 3.043c-.641.108-1.104.355-1.603.853-.379.379-.591.702-.734 1.118-.184.534-.183.508-.162 7.226l.02 6.34.105.307c.171.5.371.817.771 1.217.4.4.717.6 1.217.771l.307.105h17.16l.307-.105c.5-.171.817-.371 1.217-.771.4-.4.6-.717.771-1.217l.105-.307.02-6.34c.021-6.718.022-6.692-.162-7.226-.143-.416-.355-.739-.734-1.118-.41-.41-.741-.616-1.243-.775l-.321-.101-8.42-.006c-4.631-.003-8.511.01-8.621.029m16.76 2.002c.209.057.463.236.55.385.066.113.066.122 0 .178-.221.189-8.758 6.129-8.809 6.129-.051 0-8.588-5.94-8.809-6.129-.066-.056-.066-.065 0-.178.083-.142.342-.329.532-.383.203-.059 16.326-.061 16.536-.002m-8.554 8.917c.19.062.4.062.59 0 .082-.028 2.075-1.397 4.428-3.044l4.278-2.995-.01 5.169c-.011 5.043-.013 5.172-.089 5.326a1.418 1.418 0 0 1-.232.307c-.306.297.399.275-8.67.275-9.069 0-8.364.022-8.67-.275a1.418 1.418 0 0 1-.232-.307c-.076-.154-.078-.283-.089-5.326l-.01-5.169 4.278 2.995c2.353 1.647 4.346 3.016 4.428 3.044" fill-rule="evenodd" fill="#000" stroke="none"/></svg>