<svg xmlns="http://www.w3.org/2000/svg" width="24" height="24" fill="none" stroke="currentColor" stroke-width="2" stroke-linecap="round" stroke-linejoin="round"><path d="M7.58 1.062a1.345 1.345 0 0 0-.3.172c-.077.061-1.651.974-3.498 2.029C1.934 4.317.37 5.224.306 5.278c-.065.054-.16.189-.211.3l-.094.202V14c0 5.384.013 8.27.04 8.365.132.475.644.734 1.187.597.119-.03 1.436-.759 3.477-1.925 1.807-1.032 3.305-1.877 3.33-1.877.053 0 7.138 3.552 7.405 3.712.162.097.218.108.56.108.406 0 .505-.033.8-.261.077-.059 1.63-.958 3.451-1.997 1.821-1.039 3.366-1.935 3.432-1.991.066-.055.16-.175.209-.266l.088-.165V1.62l-.091-.17c-.225-.421-.864-.568-1.365-.315-.101.051-1.579.89-3.284 1.865a223.376 223.376 0 0 1-3.2 1.812c-.088.033-.546-.186-3.7-1.768-1.98-.994-3.69-1.856-3.799-1.915-.243-.133-.701-.165-.961-.067m4.44 4.068L15 6.62v6.87c0 3.778-.009 6.87-.02 6.87-.011 0-1.361-.67-3-1.49L9 17.38v-6.87c0-3.778.009-6.87.02-6.87.011 0 1.361.67 3 1.49M7 10.572v6.851l-2.41 1.376a341.582 341.582 0 0 0-2.5 1.433l-.09.057v-6.854l.001-6.855L4.49 5.154c1.37-.785 2.495-1.428 2.5-1.43.005-.002.01 3.079.01 6.848m15 0v6.851l-2.41 1.376c-1.325.756-2.45 1.401-2.5 1.433l-.09.057v-6.854l.001-6.855 2.489-1.426a949.51 949.51 0 0 1 2.5-1.43c.006-.002.01 3.079.01 6.848" fill="#000" fill-rule="evenodd" stroke="none"/></svg>