<svg xmlns="http://www.w3.org/2000/svg" width="24" height="24" fill="none" stroke="currentColor" stroke-width="2" stroke-linecap="round" stroke-linejoin="round"><path d="M4.499 2.043c-1.107.186-2.017.986-2.384 2.097-.09.274-.092.321-.106 2.167-.009 1.246 0 1.94.028 2.044.107.397.394.61.859.64.485.031.803-.109.984-.433l.1-.178L4 6.56c.022-2.041.013-1.978.321-2.277C4.606 4.007 4.663 4 6.557 4c.991 0 1.722-.017 1.808-.041a.842.842 0 0 0 .515-.401c.087-.156.1-.226.099-.558-.001-.433-.081-.645-.301-.801-.266-.19-.375-.199-2.234-.194-.959.002-1.835.02-1.945.038m11.115.013a.823.823 0 0 0-.505.397c-.074.139-.089.231-.089.547 0 .331.013.403.1.558.11.197.294.34.515.401.086.024.817.041 1.808.041 1.919 0 1.956.005 2.254.303.298.298.303.335.303 2.254 0 .991.017 1.722.041 1.808.107.385.396.597.855.626.485.031.803-.109.984-.433l.1-.178V6.42c0-1.943-.001-1.963-.094-2.26a3.08 3.08 0 0 0-2.025-2.037c-.321-.1-.323-.1-2.201-.11-1.479-.008-1.916.001-2.046.043m-13 13.001a.814.814 0 0 0-.505.396c-.089.166-.089.177-.089 2.127 0 1.943.001 1.963.094 2.26a3.111 3.111 0 0 0 2.026 2.045c.274.09.321.092 2.167.106 1.246.009 1.94 0 2.044-.028a.847.847 0 0 0 .529-.405c.087-.156.1-.226.099-.558-.002-.531-.128-.755-.524-.929-.085-.037-.595-.055-1.935-.071l-1.82-.02-.184-.108a1.145 1.145 0 0 1-.446-.499c-.036-.082-.055-.606-.07-1.933-.02-1.786-.022-1.823-.109-1.987a.874.874 0 0 0-.213-.254c-.264-.189-.721-.249-1.064-.142m18 0a.814.814 0 0 0-.505.396c-.087.164-.089.201-.109 1.987-.015 1.321-.035 1.851-.071 1.933a1.137 1.137 0 0 1-.445.499l-.184.108-1.821.02-1.821.02-.199.102c-.34.175-.481.484-.45.982.03.465.243.752.64.859.104.028.798.037 2.044.028 1.846-.014 1.893-.016 2.167-.106a3.111 3.111 0 0 0 2.026-2.045c.093-.297.094-.317.094-2.26 0-1.95 0-1.961-.089-2.127a.874.874 0 0 0-.213-.254c-.264-.189-.721-.249-1.064-.142" fill-rule="evenodd" fill="#000" stroke="none"/></svg>