<svg xmlns="http://www.w3.org/2000/svg" width="24" height="24" fill="none" stroke="currentColor" stroke-width="2" stroke-linecap="round" stroke-linejoin="round"><path d="M11.76 7.524c-5.587 1.553-9.144 2.56-9.279 2.628a.739.739 0 0 0-.34.305l-.121.197v1.843c0 1.832.001 1.844.09 2.011.11.207.289.345.55.428.17.053 1.976.464 2.042.464.012 0 .01.149-.005.332-.088 1.085.359 2.272 1.159 3.081.516.52 1.149.881 1.884 1.073.517.135 1.444.136 1.94.001.887-.24 1.716-.797 2.237-1.503.213-.289.457-.743.545-1.014.037-.115.083-.21.103-.21.019 0 1.898.414 4.175.92s4.216.92 4.31.92c.376-.001.671-.157.83-.442l.1-.178.012-6.24c.011-5.789.007-6.257-.057-6.47-.073-.25-.273-.516-.457-.611-.305-.158-.042-.224-9.718 2.465M20 12.043c0 4.479-.004 4.721-.07 4.701-.038-.012-3.598-.804-7.91-1.762-4.312-.957-7.88-1.75-7.93-1.762-.089-.021-.09-.028-.09-.739v-.718l.15-.044c.319-.094 15.792-4.393 15.82-4.396.017-.002.03 2.122.03 4.72M8.66 16.284c1.012.223 1.855.42 1.874.437.063.058-.222.518-.453.731A1.935 1.935 0 0 1 8.7 18a1.879 1.879 0 0 1-1.4-.575c-.38-.385-.617-.935-.619-1.438-.001-.127.011-.149.069-.131.038.012.898.204 1.91.428" fill-rule="evenodd" fill="#000" stroke="none"/></svg>