<svg xmlns="http://www.w3.org/2000/svg" width="24" height="24" fill="none" stroke="currentColor" stroke-width="2" stroke-linecap="round" stroke-linejoin="round"><path d="M4.499 2.043C3.38 2.232 2.461 3.048 2.114 4.16l-.094.3V21.3l.109.186c.282.479.815.684 1.234.474.121-.061.784-.694 2.117-2.023l1.94-1.935 6.08-.011 6.08-.011.28-.094c.991-.332 1.722-1.07 2.026-2.046l.094-.3V4.46l-.094-.3a3.089 3.089 0 0 0-2.025-2.039l-.321-.101-7.42-.006c-4.081-.003-7.511.01-7.621.029M19.31 4.061c.279.083.546.35.629.629.053.178.061.856.061 5.311 0 4.211-.01 5.138-.055 5.289a1.02 1.02 0 0 1-.461.582l-.184.108-6.28.02c-5.927.019-6.289.024-6.439.092-.105.047-.57.481-1.37 1.278L4 18.577v-6.841c0-6.008.007-6.866.061-7.046.079-.269.351-.547.612-.627.291-.089 14.336-.092 14.637-.002" fill-rule="evenodd" fill="#000" stroke="none"/></svg>