<svg xmlns="http://www.w3.org/2000/svg" width="24" height="24" fill="none" stroke="currentColor" stroke-width="2" stroke-linecap="round" stroke-linejoin="round"><path d="M.508.123C.328.242.14.447.046.627c-.069.132-.058.634.018.785.035.07 1.834 1.901 3.998 4.068l3.933 3.94.016 1.62c.014 1.534.02 1.637.105 1.939a4.178 4.178 0 0 0 1.079 1.861 3.988 3.988 0 0 0 4.571.743l.267-.131.733.735.734.736-.1.077c-.508.389-1.565.817-2.388.966-.322.058-1.537.075-1.852.027-2.339-.362-4.192-1.945-4.893-4.178-.211-.67-.236-.922-.263-2.615-.024-1.54-.027-1.584-.115-1.75-.165-.309-.56-.48-1.015-.439-.444.04-.736.264-.838.642-.029.109-.037.679-.026 1.744.019 1.658.033 1.815.235 2.623a8.06 8.06 0 0 0 3.315 4.686c.847.564 2.042 1.053 2.962 1.212.142.025.308.054.368.066l.11.022V22H9.406c-1.696 0-1.822.012-2.084.199-.222.158-.302.369-.302.801 0 .331.013.403.1.558.11.197.294.34.515.401.198.055 8.532.055 8.73 0a.842.842 0 0 0 .515-.401c.087-.156.1-.226.099-.558-.001-.433-.081-.645-.301-.801-.262-.187-.388-.199-2.084-.199H13v-1.998l.09-.019c.049-.011.24-.048.423-.083 1.128-.216 2.278-.705 3.12-1.328l.297-.22 2.765 2.76c1.521 1.518 2.823 2.788 2.893 2.824.083.041.232.064.423.064.263 0 .316-.014.481-.123.18-.119.368-.324.462-.504.025-.048.046-.221.046-.384 0-.261-.014-.318-.116-.469-.063-.095-3.251-3.315-7.083-7.156L9.747 8.293C7.024 5.559 1.505.111 1.412.064 1.329.023 1.18 0 .989 0 .726 0 .673.014.508.123M11.46.028C10.158.199 8.926 1.11 8.371 2.31c-.147.32-.331.978-.331 1.185.001.536.453.905 1.109.905.496 0 .702-.187.893-.809.153-.498.328-.799.621-1.067a1.975 1.975 0 0 1 2.727.059c.29.289.509.705.571 1.079.022.138.039 1.423.039 3.061 0 3.123-.001 3.104.249 3.346.193.187.398.258.748.259.504.002.83-.199.944-.584.087-.294.087-5.931 0-6.429-.153-.875-.501-1.526-1.161-2.175A3.83 3.83 0 0 0 12.683.064 5.179 5.179 0 0 0 11.46.028m7.154 9.029a.814.814 0 0 0-.505.396c-.086.161-.09.217-.113 1.647-.013.814-.047 1.669-.076 1.9-.06.491-.026.682.161.895.191.218.478.323.882.324.303.001.361-.011.5-.103.232-.153.365-.429.446-.922.056-.34.069-.696.07-1.994.001-1.558 0-1.582-.088-1.747a.874.874 0 0 0-.213-.254c-.264-.189-.721-.249-1.064-.142m-6.143 4.885c-.013.014-.166.035-.338.047a1.929 1.929 0 0 1-1.515-.566c-.438-.439-.577-.785-.606-1.503l-.02-.5 1.252 1.248c.689.687 1.241 1.26 1.227 1.274" fill-rule="evenodd" fill="#000" stroke="none"/></svg>