<svg xmlns="http://www.w3.org/2000/svg" width="24" height="24" fill="none" stroke="currentColor" stroke-width="2" stroke-linecap="round" stroke-linejoin="round"><path d="M11.358.061C9.731.315 8.417 1.584 8.083 3.227 8.002 3.622 8 3.744 8 8c0 4.256.002 4.378.083 4.773a3.973 3.973 0 0 0 2.429 2.931 3.988 3.988 0 0 0 5.192-2.216c.075-.188.173-.516.217-.731C15.997 12.382 16 12.2 16 8c0-4.2-.003-4.382-.079-4.757-.2-.979-.724-1.828-1.483-2.4a3.945 3.945 0 0 0-1.833-.785 3.728 3.728 0 0 0-1.247.003m1.165 2.012c.499.13.993.526 1.249.998.229.423.227.373.227 4.929 0 4.554.002 4.502-.227 4.931-.147.277-.581.712-.842.844a2.044 2.044 0 0 1-1.847.006c-.267-.135-.634-.484-.802-.764-.288-.478-.276-.27-.279-4.989-.002-4.703-.01-4.559.263-5.014.381-.636 1.023-1.009 1.735-1.009.143 0 .378.031.523.068M4.614 9.057a.814.814 0 0 0-.505.396c-.086.162-.089.21-.102 1.527-.013 1.434.018 1.952.159 2.64a8.37 8.37 0 0 0 1.508 3.28c.259.339.932 1.025 1.286 1.311a8.348 8.348 0 0 0 2.54 1.384c.479.156 1.203.325 1.398.325H11V22H9.406c-1.696 0-1.822.012-2.084.199-.222.158-.302.369-.302.801 0 .331.013.403.1.558.11.197.294.34.515.401.198.055 8.532.055 8.73 0a.842.842 0 0 0 .515-.401c.087-.156.1-.226.099-.558-.001-.433-.081-.645-.301-.801-.262-.187-.388-.199-2.084-.199H13v-2.08h.102c.195 0 .919-.169 1.398-.325a8.348 8.348 0 0 0 2.54-1.384c.354-.286 1.027-.972 1.286-1.311a8.37 8.37 0 0 0 1.508-3.28c.142-.691.173-1.206.159-2.64-.013-1.325-.015-1.364-.104-1.53-.165-.31-.56-.48-1.015-.439-.435.04-.733.263-.833.624-.023.082-.041.668-.042 1.345-.002 1.641-.061 2.178-.328 2.96-.683 2.004-2.38 3.488-4.511 3.945-.35.075-.543.09-1.16.09-.821 0-1.246-.066-1.94-.303-1.695-.578-3.103-1.965-3.699-3.643-.292-.822-.325-1.092-.356-2.869-.026-1.484-.03-1.546-.115-1.707a.872.872 0 0 0-.212-.254c-.264-.189-.721-.249-1.064-.142" fill-rule="evenodd" fill="#000" stroke="none"/></svg>