<svg xmlns="http://www.w3.org/2000/svg" width="24" height="24" fill="none" stroke="currentColor" stroke-width="2" stroke-linecap="round" stroke-linejoin="round"><path d="M20.62 2.046c-.098.051-1.216 1.136-2.888 2.806l-2.728 2.723-.012-1.977c-.012-1.958-.013-1.98-.101-2.145-.106-.197-.269-.322-.52-.398-.509-.153-1.06.021-1.262.398l-.089.167-.027 3.16a962.553 962.553 0 0 1-.03 3.289c-.004.139.158.541.269.666.099.113.545.305.697.302a969.67 969.67 0 0 1 3.291-.03c3.129-.027 3.162-.028 3.32-.113.335-.179.438-.39.438-.894 0-.433-.079-.644-.3-.801-.267-.191-.367-.199-2.374-.199h-1.883l2.726-2.73c1.911-1.914 2.751-2.783 2.814-2.907.176-.353.087-.717-.26-1.064-.34-.34-.734-.432-1.081-.253M6.719 12.999l-3.061.021-.199.102c-.34.175-.481.484-.45.982.029.459.241.748.626.855.088.025.895.041 2.044.041h1.9l-2.726 2.73c-1.911 1.914-2.751 2.783-2.814 2.907-.176.353-.087.717.26 1.064.347.347.711.436 1.064.26.124-.063.993-.903 2.907-2.814L9 16.421v1.9c0 1.149.016 1.956.041 2.044.107.385.396.597.855.626.485.031.803-.109.984-.433l.1-.178.027-3.16c.015-1.738.028-3.219.03-3.291.004-.189-.202-.619-.347-.722-.224-.159-.485-.248-.703-.238-.114.005-1.585.019-3.268.03" fill="#000" fill-rule="evenodd" stroke="none"/></svg>