<svg xmlns="http://www.w3.org/2000/svg" width="24" height="24" fill="none" stroke="currentColor" stroke-width="2" stroke-linecap="round" stroke-linejoin="round"><path d="M13.499 3.042c-1.122.192-2.038 1.006-2.385 2.118l-.094.3v13.08l.094.3a3.086 3.086 0 0 0 2.046 2.046l.3.094h7.08l.3-.094a3.086 3.086 0 0 0 2.046-2.046l.094-.3V5.46l-.094-.3a3.086 3.086 0 0 0-2.025-2.038l-.321-.101-3.42-.007c-1.881-.003-3.511.009-3.621.028m-10 2.001C2.383 5.23 1.461 6.048 1.114 7.16l-.094.3v7.08l.094.3a3.111 3.111 0 0 0 2.026 2.045c.279.093.292.093 2.668.106 1.581.009 2.441-.001 2.544-.029a.84.84 0 0 0 .528-.404c.087-.156.1-.226.099-.558-.002-.531-.127-.753-.524-.929-.087-.039-.678-.056-2.435-.071l-2.32-.02-.184-.108a1.199 1.199 0 0 1-.291-.249c-.231-.303-.225-.2-.225-3.601 0-3.55-.012-3.404.303-3.719C3.609 6.997 3.582 7 6.057 7c1.326 0 2.219-.016 2.308-.041a.842.842 0 0 0 .515-.401c.087-.156.1-.226.099-.558-.001-.433-.081-.645-.301-.801-.273-.195-.338-.199-2.734-.194-1.234.002-2.335.02-2.445.038m16.811.018c.279.083.546.35.629.629.053.179.061.961.061 6.311 0 5.058-.009 6.138-.055 6.289a1.02 1.02 0 0 1-.461.582l-.184.108h-6.6l-.184-.108a1.051 1.051 0 0 1-.458-.556c-.09-.256-.087-12.323.003-12.626.079-.269.351-.547.612-.627.288-.088 6.34-.091 6.637-.002m-3.696 2.994c-.394.129-.575.382-.605.845-.031.481.11.799.433.98.155.087.227.1.558.1.312 0 .408-.016.54-.086.326-.176.46-.435.46-.894 0-.643-.287-.952-.917-.984-.19-.01-.365.005-.469.039m-.137 5.018c-.671.176-1.239.75-1.417 1.435a2.07 2.07 0 0 0 .165 1.422c.136.269.576.709.845.845a2.047 2.047 0 0 0 1.86 0c.266-.135.708-.575.841-.838a2.05 2.05 0 0 0 .169-1.408 1.806 1.806 0 0 0-.475-.876A1.972 1.972 0 0 0 17 13.005c-.143 0-.378.031-.523.068M5.18 19.039c-.465.12-.666.408-.668.958-.002.351.07.559.259.754.226.233.352.249 1.986.249.857 0 1.523-.017 1.608-.041a.842.842 0 0 0 .515-.401c.087-.156.1-.226.099-.558-.001-.433-.081-.645-.301-.801-.26-.186-.396-.199-1.934-.195-.794.002-1.498.018-1.564.035" fill-rule="evenodd" fill="#000" stroke="none"/></svg>