<svg xmlns="http://www.w3.org/2000/svg" width="24" height="24" fill="none" stroke="currentColor" stroke-width="2" stroke-linecap="round" stroke-linejoin="round"><path d="M1.626 1.045c-.206.109-.48.388-.588.599-.182.357-.093.682.305 1.112l.224.242-.127.223c-.172.3-.344.819-.399 1.203-.032.226-.042 1.869-.033 5.736l.012 5.42.094.28a3.143 3.143 0 0 0 2.026 2.026l.28.094 3.79.011 3.79.012V20H9.406c-1.696 0-1.822.012-2.084.199-.222.158-.302.369-.302.801 0 .331.013.403.1.558.11.197.294.34.515.401.198.055 8.532.055 8.73 0a.842.842 0 0 0 .515-.401c.087-.156.1-.226.099-.558-.001-.433-.081-.645-.301-.801-.262-.187-.388-.199-2.084-.199H13v-2H16.579l2.44 2.436c1.702 1.698 2.495 2.463 2.618 2.524.353.177.717.088 1.064-.259.347-.347.436-.711.259-1.064-.061-.122-.866-.961-2.607-2.717a2387.494 2387.494 0 0 0-2.619-2.64l-7.587-7.568C6.029 4.604 2.615 1.209 2.56 1.167c-.297-.226-.65-.272-.934-.122m6.988 1.012c-.237.075-.402.204-.505.396-.074.139-.089.231-.089.547 0 .331.013.403.1.558.11.197.294.34.515.401.094.026 2.138.041 5.808.041 6.379 0 5.929-.022 6.254.303.324.324.303-.067.303 5.754 0 3.335.015 5.214.041 5.308.107.385.396.597.855.626.485.031.803-.109.984-.433l.1-.178V4.46l-.094-.3a3.089 3.089 0 0 0-2.025-2.039l-.321-.101-5.88-.008c-4.76-.006-5.912.002-6.046.045m.226 8.203 5.74 5.741-5.44-.011-5.44-.01-.184-.108a1.199 1.199 0 0 1-.291-.249C2.988 15.312 3 15.608 3 10.021c0-4.766.01-5.501.075-5.501.014 0 2.608 2.583 5.765 5.74" fill-rule="evenodd" fill="#000" stroke="none"/></svg>