<svg xmlns="http://www.w3.org/2000/svg" width="24" height="24" fill="none" stroke="currentColor" stroke-width="2" stroke-linecap="round" stroke-linejoin="round"><path d="M3.499 2.043C2.38 2.232 1.461 3.048 1.114 4.16l-.094.3v11.08l.094.3c.304.976 1.035 1.714 2.026 2.046l.28.094 3.79.011 3.79.012V20H9.406c-1.696 0-1.822.012-2.084.199-.222.158-.302.369-.302.801 0 .331.013.403.1.558.11.197.294.34.515.401.198.055 8.532.055 8.73 0a.842.842 0 0 0 .515-.401c.087-.156.1-.226.099-.558-.001-.433-.081-.645-.301-.801-.262-.187-.388-.199-2.084-.199H13V18.003l3.79-.012 3.79-.011.28-.094c.991-.332 1.722-1.07 2.026-2.046l.094-.3V4.46l-.094-.3a3.089 3.089 0 0 0-2.025-2.039l-.321-.101-8.42-.006c-4.631-.003-8.511.01-8.621.029M20.31 4.061c.279.083.546.35.629.629.053.178.061.856.061 5.311 0 4.211-.01 5.138-.055 5.289a1.02 1.02 0 0 1-.461.582l-.184.108H3.7l-.184-.108a1.051 1.051 0 0 1-.458-.556c-.089-.255-.087-10.323.003-10.626.079-.269.351-.547.612-.627.16-.049 1.357-.058 8.31-.06 7.161-.003 8.147.004 8.327.058" fill="#000" fill-rule="evenodd" stroke="none"/></svg>