<svg xmlns="http://www.w3.org/2000/svg" width="24" height="24" fill="none" stroke="currentColor" stroke-width="2" stroke-linecap="round" stroke-linejoin="round"><path d="M10.536 2.08a10.022 10.022 0 0 0-6.317 3.652C3.169 7.041 2.447 8.678 2.158 10.4c-.121.723-.148 1.885-.061 2.64.537 4.675 4.172 8.324 8.823 8.858 2.595.298 5.228-.456 7.328-2.098.424-.332 1.264-1.166 1.593-1.58a10.178 10.178 0 0 0 2.122-5.036c.073-.564.011-.814-.277-1.117-.254-.267-.521-.364-.826-.299-.114.024-.344.145-.606.318-.787.518-1.406.778-2.334.978-.474.102-1.632.104-2.14.004-2.37-.469-4.194-2.184-4.754-4.468-.402-1.641-.12-3.295.808-4.727.133-.206.27-.441.304-.523.143-.341.023-.916-.239-1.145-.253-.223-.541-.249-1.363-.125M9.32 4.454c0 .007-.037.12-.081.25-.75 2.172-.415 4.779.869 6.77 1.81 2.806 5.187 4.215 8.399 3.503a9.15 9.15 0 0 0 1.038-.297c.059 0-.347.873-.623 1.34a8.017 8.017 0 0 1-5.933 3.88c-3.39.419-6.682-1.401-8.173-4.52a7.967 7.967 0 0 1-.17-6.46 8.103 8.103 0 0 1 3.431-3.902c.448-.257 1.243-.618 1.243-.564" fill-rule="evenodd" fill="#000" stroke="none"/></svg>