<svg xmlns="http://www.w3.org/2000/svg" width="24" height="24" fill="none" stroke="currentColor" stroke-width="2" stroke-linecap="round" stroke-linejoin="round"><path d="M7.78 1.988c-.221.041-.269.063-.402.179a1.213 1.213 0 0 0-.235.309c-.051.101-1.456 4.277-3.122 9.279L.99 20.851l.019.27c.032.444.248.733.626.838.095.027 3.632.041 10.333.041h10.189l.231-.086c.475-.176.704-.545.615-.993-.082-.42-5.074-15.324-5.187-15.486-.295-.426-.791-.589-1.188-.391-.111.056-.881.796-2.257 2.168-1.149 1.146-2.096 2.076-2.105 2.066-.01-.01-.786-1.557-1.726-3.438-1.851-3.703-1.82-3.651-2.207-3.772-.222-.07-.438-.101-.553-.08m1.916 6.645c.823 1.646 1.547 3.052 1.609 3.125.232.277.593.348 1.003.197.218-.08.353-.205 2.24-2.087 1.34-1.336 2.016-1.984 2.031-1.945.032.085 4.021 12.055 4.021 12.067 0 .005-3.872.01-8.604.01-6.867 0-8.601-.01-8.586-.05l2.394-7.18c1.307-3.922 2.38-7.13 2.386-7.13.005 0 .683 1.347 1.506 2.993" fill-rule="evenodd" fill="#000" stroke="none"/></svg>