<svg xmlns="http://www.w3.org/2000/svg" width="24" height="24" fill="none" stroke="currentColor" stroke-width="2" stroke-linecap="round" stroke-linejoin="round"><path d="M7.78 1.988c-.221.041-.269.063-.402.179a1.213 1.213 0 0 0-.235.309c-.051.101-1.456 4.277-3.122 9.279L.99 20.851l.019.27c.032.444.248.733.626.838.095.027 3.632.041 10.333.041h10.189l.231-.086c.476-.176.704-.545.615-.995-.042-.212-4.961-15.013-5.094-15.325-.078-.184-.336-.445-.546-.552a.863.863 0 0 0-.735.002c-.111.056-.881.796-2.257 2.168-1.149 1.146-2.096 2.076-2.105 2.066-.01-.01-.786-1.557-1.726-3.438-1.851-3.703-1.82-3.651-2.207-3.772-.222-.07-.438-.101-.553-.08m1.916 6.645c.823 1.646 1.547 3.052 1.609 3.125.232.277.593.348 1.003.197.218-.08.353-.205 2.24-2.087 1.34-1.336 2.016-1.984 2.031-1.945A915.27 915.27 0 0 1 19 15.224c0 .112-1.103.538-1.76.68-.474.103-1.487.104-1.96.004-.914-.195-1.699-.557-2.85-1.315-1.455-.958-2.64-1.413-4.059-1.558-.714-.074-1.784.02-2.521.221-.115.031-.21.045-.21.031 0-.037 2.537-7.647 2.55-7.647.005 0 .683 1.347 1.506 2.993M8.82 15.12c.852.19 1.586.532 2.66 1.238C13.222 17.504 14.677 18 16.297 18c.963 0 2.118-.265 3.105-.711l.262-.119.454 1.365c.249.751.462 1.387.472 1.415.015.04-1.72.05-8.59.05s-8.605-.01-8.59-.05l.688-2.06.669-2.011.177-.104c.53-.31 1.372-.606 2.038-.714.475-.078 1.348-.05 1.838.059" fill-rule="evenodd" fill="#000" stroke="none"/></svg>