<svg xmlns="http://www.w3.org/2000/svg" width="24" height="24" fill="none" stroke="currentColor" stroke-width="2" stroke-linecap="round" stroke-linejoin="round"><path d="M2.577 2.036c-.204.092-.395.321-.498.596-.104.277-.1.472.016.777.318.838 7.094 17.044 7.188 17.191.063.099.18.224.26.278.412.278 1.184.033 1.407-.447.043-.094.495-1.395 1.003-2.891l.991-2.914.066-.194 2.725 2.72c1.911 1.907 2.778 2.746 2.902 2.809.353.176.717.087 1.064-.26.347-.347.436-.711.26-1.064-.063-.124-.902-.991-2.808-2.901l-2.719-2.723.593-.206c.326-.113 1.679-.574 3.006-1.025 1.327-.451 2.471-.855 2.541-.898a.861.861 0 0 0 .364-.413c.082-.197.078-.37-.017-.677a.996.996 0 0 0-.518-.614c-.337-.17-17.047-7.112-17.241-7.163-.285-.074-.387-.071-.585.019m8.381 5.363c3.325 1.386 6.072 2.534 6.103 2.551.038.021-.803.325-2.397.866-1.35.458-2.531.878-2.623.933a.99.99 0 0 0-.278.273c-.063.099-.466 1.224-.945 2.635-.542 1.598-.847 2.442-.868 2.404-.038-.068-5.07-12.142-5.07-12.165 0-.009.007-.016.016-.016.009 0 2.736 1.134 6.062 2.519" fill-rule="evenodd" fill="#000" stroke="none"/></svg>