<svg xmlns="http://www.w3.org/2000/svg" width="24" height="24" fill="none" stroke="currentColor" stroke-width="2" stroke-linecap="round" stroke-linejoin="round"><path d="M6.813 1.314c-.437.151-.635.41-.63.826.003.31.815 3.357.962 3.611.202.347.577.475 1.045.355.288-.074.527-.214.642-.374.11-.156.179-.437.149-.608-.058-.325-.875-3.315-.942-3.444-.089-.173-.263-.341-.412-.397-.17-.065-.582-.049-.814.031M13.6 3.083c-.232.105-2.631 2.497-2.737 2.729-.11.243-.121.409-.041.618.086.225.413.585.638.701a.874.874 0 0 0 .72.012c.242-.115 2.632-2.509 2.737-2.743.16-.355.089-.669-.228-1.008-.349-.373-.717-.477-1.089-.309M1.891 6.197c-.311.078-.564.421-.651.881-.089.471.102.826.536.998.221.088 3.056.855 3.333.902a.843.843 0 0 0 .739-.255c.289-.337.39-.985.202-1.288-.19-.305-.281-.34-2.35-.891-1.321-.351-1.588-.403-1.809-.347m6.686 1.839c-.329.149-.6.637-.568 1.024.012.151.635 1.687 2.548 6.28 1.392 3.344 2.574 6.155 2.626 6.246.269.467.737.569 1.297.282.33-.17.373-.261 1.038-2.231.338-.999.63-1.861.65-1.914.033-.092.145.012 1.824 1.687 1.343 1.342 1.833 1.806 1.968 1.867.366.165.709.079 1.053-.264.343-.344.429-.687.264-1.053-.061-.135-.525-.625-1.867-1.968-1.182-1.184-1.765-1.796-1.727-1.81.031-.012.88-.3 1.885-.64 1.006-.34 1.898-.654 1.984-.698a.928.928 0 0 0 .45-.53c.099-.368-.115-.928-.431-1.127-.203-.128-12.22-5.132-12.451-5.184-.254-.058-.357-.052-.543.033m-2.614 2.77c-.244.071-.444.248-1.631 1.441-1.229 1.236-1.329 1.364-1.331 1.698-.001.234.094.433.325.677.345.366.701.463 1.074.295.233-.105 2.627-2.494 2.743-2.737a.876.876 0 0 0-.012-.721c-.092-.178-.414-.498-.595-.59a.875.875 0 0 0-.573-.063m8.616 1.601c1.958.815 3.566 1.487 3.572 1.492.006.005-.588.212-1.32.46-1.511.512-1.608.553-1.789.738-.14.145-.268.481-.84 2.196-.16.479-.295.866-.301.86-.011-.012-2.943-7.047-3.006-7.211-.024-.063-.016-.071.047-.047.042.016 1.678.697 3.637 1.512" fill-rule="evenodd" fill="#000" stroke="none"/></svg>