<svg xmlns="http://www.w3.org/2000/svg" width="24" height="24" fill="none" stroke="currentColor" stroke-width="2" stroke-linecap="round" stroke-linejoin="round"><path d="M3.577 3.036c-.301.137-.577.599-.577.967 0 .088.061.317.135.509.105.268 6.754 16.262 7.042 16.937.138.324.48.588.766.59.181.001.527-.111.705-.229a.98.98 0 0 0 .253-.268c.053-.09.628-1.728 1.278-3.641s1.195-3.489 1.211-3.502c.017-.014 1.578-.553 3.47-1.198 1.892-.645 3.534-1.216 3.649-1.269.4-.185.578-.532.49-.957-.091-.44-.258-.657-.639-.83-.698-.317-17.018-7.08-17.198-7.128-.284-.074-.387-.071-.585.019m8.447 5.386c3.362 1.397 6.118 2.546 6.124 2.553.006.006-1.081.385-2.417.842-1.335.457-2.506.867-2.6.912-.095.044-.232.15-.305.235-.138.161-.142.173-1.35 3.728-.268.788-.501 1.418-.517 1.4A2421.13 2421.13 0 0 1 5.898 5.95c-.015-.038-.017-.07-.006-.07.011 0 2.771 1.144 6.132 2.542" fill-rule="evenodd" fill="#000" stroke="none"/></svg>