<svg xmlns="http://www.w3.org/2000/svg" width="24" height="24" fill="none" stroke="currentColor" stroke-width="2" stroke-linecap="round" stroke-linejoin="round"><path d="M11.53 1.083c-.137.067-.281.169-.32.228-.038.058-.973 1.016-2.076 2.128C7.766 4.818 7.101 5.516 7.04 5.637c-.177.352-.088.717.259 1.064.347.347.712.436 1.064.259.116-.059.598-.508 1.407-1.313L11 4.423v15.154l-1.23-1.224c-.769-.765-1.293-1.255-1.398-1.308-.352-.177-.733-.087-1.073.254-.347.347-.436.712-.259 1.064.061.121.726.819 2.094 2.198 1.103 1.112 2.04 2.073 2.082 2.135.102.154.545.353.784.353s.682-.199.784-.353c.042-.062.979-1.023 2.082-2.135 1.368-1.379 2.033-2.077 2.094-2.198.177-.352.088-.717-.259-1.064-.34-.341-.721-.431-1.073-.254-.105.053-.629.543-1.398 1.308L13 19.577V4.423l1.23 1.224c.809.805 1.291 1.254 1.407 1.313.352.177.717.088 1.064-.259.347-.347.436-.712.259-1.064-.061-.121-.726-.819-2.094-2.198-1.103-1.112-2.038-2.07-2.077-2.129-.038-.058-.185-.161-.325-.228-.344-.164-.593-.164-.934.001" fill="#000" fill-rule="evenodd" stroke="none"/></svg>