<svg xmlns="http://www.w3.org/2000/svg" width="24" height="24" fill="none" stroke="currentColor" stroke-width="2" stroke-linecap="round" stroke-linejoin="round"><path d="M4.597 4.05a1.79 1.79 0 0 0-.286.157c-.146.103-.352.533-.348.722.002.072.016 1.553.03 3.291l.027 3.16.1.178c.167.298.452.442.88.442s.713-.144.88-.442l.1-.178L6 9.41l.02-1.97 5.28 5.28L16.58 18h-1.884c-2.007 0-2.107.008-2.374.199-.183.13-.292.374-.313.701-.031.481.11.799.433.98l.178.1 3.16.027c1.738.014 3.219.028 3.291.03.152.003.598-.189.697-.302.11-.125.273-.527.269-.666-.002-.071-.015-1.551-.03-3.289l-.027-3.16-.089-.167c-.106-.197-.269-.322-.52-.398-.509-.153-1.06.021-1.262.398-.088.165-.089.196-.109 2.137l-.02 1.97-5.28-5.28L7.42 6h1.9c1.149 0 1.957-.016 2.045-.041a.842.842 0 0 0 .515-.401c.087-.156.1-.226.099-.558-.001-.315-.016-.409-.091-.55-.104-.198-.314-.348-.568-.407-.116-.027-1.322-.046-3.369-.053-2.961-.009-3.201-.005-3.354.06" fill="#000" fill-rule="evenodd" stroke="none"/></svg>