<svg xmlns="http://www.w3.org/2000/svg" width="24" height="24" fill="none" stroke="currentColor" stroke-width="2" stroke-linecap="round" stroke-linejoin="round"><path d="m15.719 3.999-3.061.021-.199.102c-.34.175-.481.484-.45.982.029.459.241.748.626.855.088.025.896.041 2.045.041h1.9l-5.28 5.28-5.28 5.28L6 14.59c-.02-1.941-.021-1.972-.109-2.137-.202-.377-.753-.551-1.262-.398-.251.076-.414.201-.52.398l-.089.167-.027 3.16a962.553 962.553 0 0 1-.03 3.289c-.004.139.158.541.269.666.099.113.545.305.697.302a969.67 969.67 0 0 1 3.291-.03c2.982-.025 3.168-.031 3.3-.102.356-.19.458-.391.458-.905 0-.433-.079-.644-.3-.801-.267-.191-.367-.199-2.374-.199H7.42l5.28-5.28 5.28-5.28.02 1.97.02 1.97.1.178c.167.298.452.442.88.442s.713-.144.88-.442l.1-.178.027-3.16c.015-1.738.028-3.219.03-3.291.004-.189-.202-.619-.347-.722-.224-.159-.485-.248-.703-.238-.114.005-1.585.019-3.268.03" fill="#000" fill-rule="evenodd" stroke="none"/></svg>