<svg xmlns="http://www.w3.org/2000/svg" width="24" height="24" fill="none" stroke="currentColor" stroke-width="2" stroke-linecap="round" stroke-linejoin="round"><path d="M5.62 7.046c-.095.049-.968.886-2.16 2.072-1.1 1.095-2.061 2.032-2.136 2.083-.175.12-.373.544-.373.799 0 .239.199.682.353.784.062.042 1.023.979 2.135 2.082 1.379 1.368 2.077 2.033 2.198 2.094.352.177.717.088 1.064-.259.347-.347.436-.712.259-1.064-.059-.116-.508-.598-1.313-1.407L4.423 13h15.154l-1.224 1.23c-.805.809-1.254 1.291-1.313 1.407-.177.352-.088.717.259 1.064.347.347.712.436 1.064.259.121-.061.819-.726 2.198-2.094 1.112-1.103 2.073-2.04 2.135-2.082.154-.102.353-.545.353-.784 0-.255-.198-.679-.373-.799-.075-.051-1.036-.988-2.136-2.083-1.308-1.301-2.058-2.019-2.168-2.074-.352-.176-.733-.085-1.073.255-.347.347-.436.712-.259 1.064.059.116.508.598 1.313 1.407L19.577 11H4.423l1.224-1.23c.805-.809 1.254-1.291 1.313-1.407.177-.352.088-.717-.259-1.064-.34-.34-.734-.432-1.081-.253" fill="#000" fill-rule="evenodd" stroke="none"/></svg>