<svg xmlns="http://www.w3.org/2000/svg" width="24" height="24" fill="none" stroke="currentColor" stroke-width="2" stroke-linecap="round" stroke-linejoin="round"><path d="M11.53 1.083c-.137.067-.281.169-.32.227-.038.059-.747.791-1.575 1.628-1 1.011-1.536 1.582-1.595 1.699-.177.352-.088.717.259 1.064.347.347.713.436 1.064.258.106-.054.469-.379.907-.812l.73-.722V11H4.425l.722-.73c.433-.438.758-.801.812-.907.178-.351.089-.717-.258-1.064-.34-.34-.721-.431-1.073-.255-.107.054-.713.626-1.668 1.574-.825.82-1.561 1.532-1.636 1.583-.175.12-.373.544-.373.799 0 .238.199.682.352.784.063.042.798.753 1.635 1.581 1.011 1 1.582 1.536 1.699 1.595.352.177.717.088 1.064-.259.347-.347.436-.713.258-1.064-.054-.106-.379-.469-.812-.907L4.425 13H11V19.575l-.73-.722c-.414-.409-.803-.759-.898-.808-.351-.177-.732-.087-1.073.254-.347.347-.436.712-.259 1.064.059.117.595.688 1.595 1.699.828.837 1.539 1.572 1.581 1.635.102.153.546.352.784.352s.682-.199.784-.352c.042-.063.753-.798 1.581-1.635 1-1.011 1.536-1.582 1.595-1.699.177-.352.088-.717-.259-1.064-.341-.341-.722-.431-1.073-.254-.095.049-.484.399-.898.808l-.73.722V13H19.575l-.722.73c-.433.438-.758.801-.812.907-.178.351-.089.717.258 1.064.347.347.712.436 1.064.259.117-.059.688-.595 1.699-1.595.837-.828 1.572-1.539 1.635-1.581.153-.102.352-.546.352-.784 0-.255-.198-.679-.373-.799-.075-.051-.811-.763-1.636-1.583-.955-.948-1.561-1.52-1.668-1.574-.352-.176-.733-.085-1.073.255-.347.347-.436.713-.258 1.064.054.106.379.469.812.907l.722.73H13V4.425l.73.722c.438.433.801.758.907.812.351.178.717.089 1.064-.258.347-.347.436-.712.259-1.064-.059-.117-.595-.688-1.595-1.699-.828-.837-1.537-1.569-1.576-1.628-.038-.058-.185-.161-.325-.228-.344-.164-.593-.164-.934.001" fill="#000" fill-rule="evenodd" stroke="none"/></svg>