<svg xmlns="http://www.w3.org/2000/svg" width="24" height="24" fill="none" stroke="currentColor" stroke-width="2" stroke-linecap="round" stroke-linejoin="round"><path d="M11.78.979a1.675 1.675 0 0 1-.149.038c-.145.032-.378.24-.47.421-.166.325-7.134 19.313-7.152 19.488-.027.267.081.552.303.799.282.313.552.388.928.255.094-.033 1.653-.907 3.465-1.943L12 18.154l3.268 1.868c1.797 1.027 3.338 1.892 3.425 1.922.345.122.789.009 1.087-.278.224-.216.292-.431.23-.725-.056-.271-7.07-19.317-7.177-19.492-.152-.248-.448-.411-.833-.461a.952.952 0 0 0-.22-.009m2.754 10.792c1.38 3.747 2.519 6.852 2.532 6.9.019.071-.45-.182-2.272-1.223-1.262-.721-2.372-1.342-2.465-1.38a.871.871 0 0 0-.658 0c-.093.038-1.203.659-2.465 1.38-1.822 1.041-2.291 1.294-2.272 1.223C6.988 18.465 11.978 4.96 12 4.96c.013 0 1.154 3.065 2.534 6.811" fill="#000" fill-rule="evenodd" stroke="none"/></svg>