<svg xmlns="http://www.w3.org/2000/svg" width="24" height="24" fill="none" stroke="currentColor" stroke-width="2" stroke-linecap="round" stroke-linejoin="round"><path d="M21.74 1.037c-.162.059-17.729 8.368-19.011 8.991-.542.264-.726.535-.734 1.079-.005.361.162.624.485.764.077.034 1.84.487 3.918 1.007l3.778.946.946 3.785c.651 2.6.976 3.83 1.038 3.931.172.278.598.5.959.5.192 0 .47-.147.606-.32.102-.13 9.125-19.133 9.229-19.436.147-.431-.111-1.039-.527-1.24-.211-.103-.423-.105-.687-.007M19.825 4.25c-.031.071-1.474 3.118-3.206 6.77a4163.02 4163.02 0 0 0-3.23 6.82c-.071.157-.085.169-.115.1-.018-.044-.322-1.238-.674-2.654-.353-1.416-.67-2.64-.703-2.72a.87.87 0 0 0-.437-.449c-.088-.039-1.321-.361-2.74-.715a157.946 157.946 0 0 1-2.66-.677c-.072-.031-.067-.04.06-.095.077-.034 3.2-1.512 6.94-3.285 3.74-1.773 6.805-3.224 6.811-3.225a.507.507 0 0 1-.046.13" fill="#000" fill-rule="evenodd" stroke="none"/></svg>