<svg xmlns="http://www.w3.org/2000/svg" width="24" height="24" fill="none" stroke="currentColor" stroke-width="2" stroke-linecap="round" stroke-linejoin="round"><path d="M8.614 1.057a.814.814 0 0 0-.505.396l-.089.167-.011 3.292c-.007 2.148.003 3.345.03 3.444a.84.84 0 0 0 .403.524c.177.1.184.1 1.368.112l1.19.012V11H7.906c-3.307 0-3.305 0-3.584.199a.874.874 0 0 0-.213.254c-.087.164-.089.197-.101 1.855l-.011 1.688-1.17.012c-1.165.012-1.17.012-1.368.114a.794.794 0 0 0-.42.522c-.027.099-.037 1.296-.03 3.444l.011 3.292.1.178c.11.197.294.34.515.401.197.055 6.533.055 6.73 0a.842.842 0 0 0 .515-.401l.1-.178v-6.76l-.089-.167a.874.874 0 0 0-.213-.254C8.43 15.022 8.256 15 7.094 15H6v-2h12v1.996l-1.171.012c-1.167.012-1.172.012-1.37.114a.794.794 0 0 0-.42.522c-.027.099-.037 1.296-.03 3.444l.011 3.292.1.178c.11.197.294.34.515.401.197.055 6.533.055 6.73 0a.842.842 0 0 0 .515-.401l.1-.178v-6.76l-.089-.167a.874.874 0 0 0-.213-.254c-.248-.177-.422-.199-1.582-.199h-1.092l-.012-1.69c-.012-1.659-.014-1.693-.101-1.857a.874.874 0 0 0-.213-.254C19.399 11 19.401 11 16.094 11H13V9h1.11c.62 0 1.174-.018 1.255-.041a.842.842 0 0 0 .515-.401l.1-.178V1.62l-.089-.167c-.106-.197-.269-.322-.52-.398-.262-.078-6.505-.076-6.757.002M14 5v2h-4V3h4v2M7 19v2H3v-4h4v2m14 0v2h-4v-4h4v2" fill-rule="evenodd" fill="#000" stroke="none"/></svg>