<svg xmlns="http://www.w3.org/2000/svg" width="24" height="24" fill="none" stroke="currentColor" stroke-width="2" stroke-linecap="round" stroke-linejoin="round"><path d="M2.614 2.057a.814.814 0 0 0-.505.396c-.074.139-.089.231-.089.547 0 .331.013.403.1.558.11.197.294.34.515.401C2.726 3.984 3.81 4 5.527 4h2.746l2.889 8.67c1.589 4.769 2.921 8.733 2.96 8.81.039.077.131.198.205.268.27.26.151.252 3.688.252 2.024 0 3.258-.015 3.35-.041a.842.842 0 0 0 .515-.401c.087-.156.1-.226.099-.558-.001-.433-.081-.645-.301-.801-.276-.197-.305-.199-3.221-.199h-2.73l-2.889-8.67C11.249 6.561 9.923 2.606 9.89 2.54c-.106-.216-.336-.419-.547-.481-.275-.082-6.468-.083-6.729-.002m11 0a.814.814 0 0 0-.505.396c-.074.139-.089.231-.089.547 0 .331.013.403.1.558.11.197.294.34.515.401.198.055 7.532.055 7.73 0a.842.842 0 0 0 .515-.401c.087-.156.1-.226.099-.558-.001-.433-.081-.645-.301-.801-.283-.202-.229-.199-4.194-.196-2.923.002-3.739.013-3.87.054" fill-rule="evenodd" fill="#000" stroke="none"/></svg>