<svg xmlns="http://www.w3.org/2000/svg" width="24" height="24" fill="none" stroke="currentColor" stroke-width="2" stroke-linecap="round" stroke-linejoin="round"><path d="M11.541 1.042c-.536.084-.639.134-2.641 1.278-.836.477-1.583.889-1.66.915a1.007 1.007 0 0 0-.26.148c-.066.054-.926.561-1.912 1.126-1.021.584-1.882 1.104-2.002 1.208A3.14 3.14 0 0 0 2.114 7.2l-.094.3v9l.094.3c.236.756.681 1.35 1.307 1.746.43.272 6.978 3.996 7.279 4.139.48.23.765.294 1.3.294.512 0 .809-.063 1.24-.262.421-.195 2.314-1.285 2.485-1.431.39-.332.415-.756.077-1.282-.185-.29-.436-.444-.719-.444-.272.001-.391.054-1.332.594-.39.223-.718.406-.73.406-.011 0-.021-1.795-.021-3.99v-3.99l1.846-1.059a94.784 94.784 0 0 1 1.997-1.127c.083-.037.205-.107.271-.156.065-.048.737-.442 1.492-.876l1.374-.788.02.903c.019.87.024.909.12 1.081.167.298.452.442.88.442s.713-.144.88-.442l.1-.178V8.96c0-1.614-.008-1.672-.317-2.3a2.794 2.794 0 0 0-.73-.943c-.207-.18-7.143-4.177-7.694-4.433a3.512 3.512 0 0 0-.496-.182 3.826 3.826 0 0 0-1.202-.06m.748 2.011c.148.047 6.668 3.749 6.669 3.787 0 .011-.55.334-1.222.718-.964.549-1.237.689-1.289.657L12.99 6.223C11.126 5.149 9.6 4.259 9.6 4.245c.001-.041 1.949-1.141 2.111-1.192.082-.026.212-.047.289-.047.077 0 .207.021.289.047m-1.321 4.312c1.877 1.081 3.435 1.986 3.463 2.013.041.038-.207.196-1.19.758l-1.242.711L8.52 8.854C6.607 7.757 5.042 6.851 5.042 6.84c0-.016 2.477-1.439 2.506-1.44.005 0 1.544.884 3.42 1.965M9.63 11.794l1.37.786v3.99c0 2.195-.009 3.99-.02 3.99-.011 0-1.49-.84-3.287-1.867-2.292-1.309-3.312-1.913-3.419-2.024-.285-.294-.274-.121-.274-4.334V8.564l2.13 1.222 3.5 2.008m8.243.266a3.536 3.536 0 0 0-1.915 1.045c-.399.422-.644.852-.825 1.443-.095.315-.107.415-.107.952 0 .537.012.637.107.952.368 1.204 1.212 2.049 2.415 2.414.309.094.423.107.932.11.628.003.951-.06 1.451-.285l.232-.103.648.64c.699.69.889.821 1.189.821.477 0 1.049-.572 1.049-1.049 0-.3-.131-.49-.821-1.189l-.64-.648.103-.232a3.504 3.504 0 0 0-2.313-4.813c-.419-.109-1.098-.135-1.505-.058m1.246 2.083c.298.136.608.449.746.753.095.209.111.296.111.604s-.016.395-.111.604c-.14.309-.448.616-.765.764-.207.097-.29.112-.6.112s-.393-.015-.6-.112a1.675 1.675 0 0 1-.765-.764c-.095-.208-.111-.296-.111-.604-.001-.309.015-.394.11-.6.193-.422.615-.771 1.04-.861.267-.057.696-.009.945.104" fill-rule="evenodd" fill="#000" stroke="none"/></svg>