<svg xmlns="http://www.w3.org/2000/svg" width="24" height="24" fill="none" stroke="currentColor" stroke-width="2" stroke-linecap="round" stroke-linejoin="round"><path d="M11.541 1.042c-.535.084-.665.147-2.629 1.271-.808.462-1.528.852-1.6.867a1.208 1.208 0 0 0-.533.306c-.045.052-.851.534-1.792 1.071C3.262 5.542 3.028 5.7 2.66 6.128c-.243.283-.341.466-.509.952l-.131.38v9.04l.094.3c.236.756.681 1.35 1.307 1.746.326.206 6.896 3.951 7.199 4.104.154.077.397.178.54.224.143.045.332.11.42.143.205.076.635.076.84 0 .088-.033.277-.098.42-.143.143-.046.386-.147.54-.224.303-.153 6.873-3.898 7.199-4.104a2.901 2.901 0 0 0 1.083-1.206c.341-.692.316-.297.33-5.18.014-4.587.013-4.615-.171-5.158-.18-.527-.425-.882-.888-1.285-.207-.18-7.144-4.177-7.694-4.433a3.512 3.512 0 0 0-.496-.182 3.826 3.826 0 0 0-1.202-.06m.743 2.013c.097.03 1.639.892 3.427 1.915l3.252 1.86-1.229.71c-.93.538-1.243.701-1.291.673-.035-.021-1.588-.917-3.453-1.991C11.126 5.148 9.6 4.258 9.6 4.244c.001-.04 1.951-1.14 2.111-1.191a.873.873 0 0 1 .573.002m-1.314 4.31a296.722 296.722 0 0 1 3.46 2.011c.039.036-.221.203-1.158.745-.664.385-1.237.699-1.272.699-.035 0-1.616-.898-3.513-1.995L5.037 6.83l1.251-.715C6.977 5.722 7.544 5.4 7.55 5.4c.005 0 1.544.884 3.42 1.965M7.534 10.58l3.463 2 .002 3.99c0 2.195-.008 3.99-.019 3.99s-1.49-.84-3.287-1.867c-2.292-1.309-3.312-1.913-3.419-2.024-.285-.294-.274-.121-.274-4.34 0-2.218.015-3.77.036-3.762.02.007 1.594.913 3.498 2.013M20 12.333c0 4.215.011 4.042-.274 4.336-.107.111-1.127.715-3.419 2.024a363.268 363.268 0 0 1-3.287 1.867c-.011 0-.019-1.795-.019-3.99l.001-3.99 1.804-1.04c.992-.572 1.895-1.081 2.007-1.131.112-.051.238-.123.279-.16.077-.071 2.825-1.68 2.878-1.686.017-.002.03 1.695.03 3.77" fill-rule="evenodd" fill="#000" stroke="none"/></svg>