<svg xmlns="http://www.w3.org/2000/svg" width="24" height="24" fill="none" stroke="currentColor" stroke-width="2" stroke-linecap="round" stroke-linejoin="round"><path d="M11.069 1.039c-1.146.112-2.261.382-3.205.778-3.697 1.55-6.185 4.756-6.77 8.723-.099.673-.099 2.247 0 2.92.627 4.254 3.485 7.671 7.526 9a9.747 9.747 0 0 0 3.16.517c.728.003.772-.001 1.053-.104a2.548 2.548 0 0 0 1.026-.656c.323-.326.502-.607.652-1.024.096-.263.106-.349.107-.853.001-.511-.009-.587-.11-.875-.103-.292-.279-.593-.594-1.012a.676.676 0 0 1 .135-.94c.13-.092.145-.093 1.611-.118 1.541-.026 1.85-.056 2.5-.237a6.684 6.684 0 0 0 3.518-2.412c1.39-1.86 1.681-4.176.838-6.686-1.033-3.074-3.685-5.525-7.096-6.558a12.59 12.59 0 0 0-1.92-.403c-.565-.075-1.931-.108-2.431-.06m1.771 2.003c2.259.204 4.265 1.095 5.795 2.576 1.515 1.467 2.327 3.264 2.333 5.162.001.417-.019.698-.066.92-.387 1.827-1.724 3.185-3.547 3.602-.236.054-.614.073-1.895.096-1.47.025-1.62.035-1.851.111a2.783 2.783 0 0 0-1.704 1.689c-.108.307-.12.392-.121.822 0 .702.17 1.229.538 1.666.275.327.33.45.31.693-.021.255-.17.479-.376.565-.396.166-2.014-.046-3.078-.402-1.337-.447-2.47-1.153-3.501-2.181-1.195-1.19-1.964-2.513-2.373-4.082-.22-.842-.281-1.338-.281-2.279 0-.941.061-1.437.281-2.279.407-1.561 1.173-2.884 2.353-4.064 1.18-1.18 2.503-1.946 4.064-2.353a9.042 9.042 0 0 1 3.119-.262m.334 1.997c-.424.09-.845.438-1.042.861-.097.207-.112.29-.112.6 0 .311.015.394.113.604.143.309.452.617.767.764.207.097.29.112.6.112s.393-.015.6-.112c.315-.147.624-.455.767-.764.098-.21.113-.293.113-.604s-.015-.394-.113-.604a1.677 1.677 0 0 0-.748-.753 1.794 1.794 0 0 0-.945-.104m-5 1c-.424.09-.845.438-1.042.861-.097.207-.112.29-.112.6 0 .311.015.394.113.604.143.309.452.617.767.764.207.097.29.112.6.112s.393-.015.6-.112c.315-.147.624-.455.767-.764.098-.21.113-.293.113-.604s-.015-.394-.113-.604a1.677 1.677 0 0 0-.748-.753 1.794 1.794 0 0 0-.945-.104m5.55.023A.56.56 0 0 1 14 6.5c0 .248-.252.5-.5.5-.244 0-.5-.252-.5-.492 0-.251.248-.508.492-.508a.61.61 0 0 1 .232.062m-5 1a.488.488 0 0 1 .198.686.485.485 0 0 1-.844 0 .478.478 0 0 1 .174-.67.453.453 0 0 1 .472-.016m8.45 1.977c-.424.09-.845.438-1.042.861-.097.207-.112.29-.112.6 0 .311.015.394.113.604.143.309.452.617.767.764.207.097.29.112.6.112s.393-.015.6-.112c.315-.147.624-.455.767-.764.098-.21.113-.293.113-.604s-.015-.394-.113-.604a1.677 1.677 0 0 0-.748-.753 1.794 1.794 0 0 0-.945-.104m.55 1.023A.56.56 0 0 1 18 10.5c0 .248-.252.5-.5.5-.244 0-.5-.252-.5-.492 0-.251.248-.508.492-.508a.61.61 0 0 1 .232.062m-11.55.977c-.424.09-.845.438-1.042.861-.097.207-.112.29-.112.6 0 .311.015.394.113.604.143.309.452.617.767.764.207.097.29.112.6.112s.393-.015.6-.112c.315-.147.624-.455.767-.764.098-.21.113-.293.113-.604s-.015-.394-.113-.604a1.677 1.677 0 0 0-.748-.753 1.794 1.794 0 0 0-.945-.104m.55 1.023A.56.56 0 0 1 7 12.5c0 .248-.252.5-.5.5-.244 0-.5-.252-.5-.492 0-.251.248-.508.492-.508a.61.61 0 0 1 .232.062" fill-rule="evenodd" fill="#000" stroke="none"/></svg>