<svg xmlns="http://www.w3.org/2000/svg" width="24" height="24" fill="none" stroke="currentColor" stroke-width="2" stroke-linecap="round" stroke-linejoin="round"><path d="M6.825 2.043C4.4 2.258 2.239 3.808 1.401 5.934c-.265.674-.43 1.582-.392 2.166.03.469.242.755.639.862.098.027.619.038 1.404.03 1.417-.014 1.352 0 1.737-.364l.214-.202.189.186.189.187-.294.31c-1.253 1.325-1.899 2.896-1.902 4.631-.002 1.545.543 2.942 1.566 4.009.423.442.742.545 1.126.365.139-.065.998-.899 3.59-3.486l3.407-3.4.041.156c.317 1.183.595 2.698.751 4.076.085.752.097 2.708.02 3.36-.082.7-.266 1.695-.39 2.11-.02.064-.099.07-.919.07-.493 0-.897-.01-.897-.022 0-.012.089-.315.197-.672.375-1.238.507-2.189.471-3.404-.042-1.447-.224-2.109-.642-2.331-.164-.088-.659-.085-.903.005-.562.208-.689.545-.537 1.424.094.54.095 1.833.002 2.415-.127.799-.352 1.562-.795 2.701-.299.769-.346.975-.276 1.21.068.232.331.481.621.59.219.082.286.084 2.396.084 2.46 0 2.421.004 2.698-.296.129-.14.189-.267.341-.727.303-.917.465-1.662.615-2.817.098-.759.097-3.001-.001-3.86-.144-1.259-.309-2.26-.527-3.208l-.02-.087 1.09-.013c1.238-.014 1.199-.005 1.578-.363l.212-.201.212.201c.394.372.254.349 2.238.363 1.12.007 1.805-.004 1.904-.03.546-.147.72-.596.608-1.562-.201-1.731-1.14-3.236-2.654-4.253-1.832-1.231-4.329-1.486-6.389-.653l-.421.17-.209-.382c-1.209-2.205-3.753-3.48-6.464-3.239m1.642 2.058c1.613.324 2.893 1.394 3.353 2.803.119.364.125.434.034.399-.177-.068-.715-.191-1.064-.244C10.487 7.013 9.961 7 8.414 7H6.427l-.445-.435C5.476 6.071 5.296 5.96 5 5.96c-.296 0-.476.111-.982.605L3.573 7h-.206c-.12 0-.207-.018-.207-.043 0-.105.267-.668.45-.948.697-1.068 1.909-1.795 3.28-1.968a6.621 6.621 0 0 1 1.577.06m8.993 2.998c1.239.25 2.297.939 2.93 1.91.183.28.45.843.45.948 0 .029-.232.043-.707.043h-.706l-.445-.435c-.506-.494-.686-.605-.982-.605-.296 0-.476.111-.982.605l-.445.435h-1.96l-.31-1.073c-.171-.589-.304-1.115-.297-1.167.029-.2.944-.578 1.694-.7.443-.072 1.304-.052 1.76.039m-6.554 2.015c.346.091.854.302.854.354 0 .018-1.374 1.406-3.053 3.085-2.351 2.351-3.062 3.04-3.094 3-.059-.074-.238-.537-.317-.818-.09-.319-.122-1.328-.054-1.732.149-.896.605-1.784 1.278-2.496.708-.747 1.766-1.313 2.743-1.465.403-.063 1.273-.025 1.643.072" fill-rule="evenodd" fill="#000" stroke="none"/></svg>