<svg xmlns="http://www.w3.org/2000/svg" width="24" height="24" fill="none" stroke="currentColor" stroke-width="2" stroke-linecap="round" stroke-linejoin="round"><path d="M14.94.464a5.18 5.18 0 0 0-2.211.976c-.209.163-2.305 2.232-5.233 5.166-5.29 5.3-5.175 5.176-5.671 6.115a7.387 7.387 0 0 0-.751 2.259c-.066.412-.066 1.627 0 2.04.379 2.351 1.834 4.305 3.946 5.302a6.966 6.966 0 0 0 6.259-.147c.94-.497.813-.379 6.126-5.685 3.512-3.508 4.93-4.948 4.993-5.075.175-.351.084-.728-.257-1.064-.355-.349-.697-.435-1.058-.265-.14.066-1.333 1.233-5.083 4.974-5.166 5.153-5.081 5.074-5.795 5.421a4.779 4.779 0 0 1-2.025.505c-2.177.092-4.202-1.304-4.906-3.383a5.025 5.025 0 0 1 .737-4.609c.127-.17 2.298-2.367 5.135-5.198l4.914-4.904.38-.184a3.02 3.02 0 0 1 2.68.002c.324.158.436.241.764.568.327.326.41.438.57.762.228.461.304.804.305 1.364.001.704-.183 1.263-.594 1.798-.324.423-9.558 9.613-9.743 9.698a.99.99 0 0 1-1.411-.82c-.045-.49-.35-.15 4.53-5.04 3.011-3.017 4.438-4.473 4.495-4.588a.793.793 0 0 0-.012-.725 1.643 1.643 0 0 0-.589-.591c-.184-.097-.531-.097-.735 0-.184.088-8.676 8.534-9.06 9.011-.413.513-.595 1.004-.629 1.697-.028.561.055.976.289 1.456a3.062 3.062 0 0 0 1.839 1.576c.416.127 1.211.141 1.619.029.33-.091.693-.259.927-.43.102-.074 2.363-2.304 5.026-4.955 3.377-3.362 4.913-4.918 5.079-5.145a5.012 5.012 0 0 0 .699-4.654 4.845 4.845 0 0 0-1.149-1.824C18.358.905 17.124.393 15.743.404a6.033 6.033 0 0 0-.803.06" fill-rule="evenodd" fill="#000" stroke="none"/></svg>