<svg xmlns="http://www.w3.org/2000/svg" width="24" height="24" fill="none" stroke="currentColor" stroke-width="2" stroke-linecap="round" stroke-linejoin="round"><path d="M7.395 1.055c-.079.028-.196.09-.26.136-.227.165-5.969 5.952-6.041 6.089-.071.134-.074.34-.074 4.72v4.58l.107.18c.134.225 5.96 6.044 6.153 6.146.134.071.34.074 4.72.074s4.586-.003 4.72-.074c.193-.102 6.019-5.921 6.153-6.146l.107-.18V12c0-4.38-.003-4.586-.074-4.72-.102-.193-5.921-6.019-6.146-6.153l-.18-.107-4.52-.009c-3.626-.006-4.549.002-4.665.044M18.43 5.57 21 8.14v7.72l-2.57 2.57L15.86 21H8.14l-2.57-2.57L3 15.86V8.14l2.57-2.57L8.14 3h7.72l2.57 2.57M9.614 8.057a.814.814 0 0 0-.505.396l-.089.167-.011 3.292c-.007 2.148.003 3.345.03 3.444.105.391.395.605.857.635.485.031.803-.109.984-.433l.1-.178V8.62l-.089-.167a.874.874 0 0 0-.213-.254c-.264-.189-.721-.249-1.064-.142m4 0a.814.814 0 0 0-.505.396l-.089.167-.011 3.292c-.007 2.148.003 3.345.03 3.444.105.391.395.605.857.635.485.031.803-.109.984-.433l.1-.178V8.62l-.089-.167a.874.874 0 0 0-.213-.254c-.264-.189-.721-.249-1.064-.142" fill-rule="evenodd" fill="#000" stroke="none"/></svg>