<svg xmlns="http://www.w3.org/2000/svg" width="24" height="24" fill="none" stroke="currentColor" stroke-width="2" stroke-linecap="round" stroke-linejoin="round"><path d="M5.614 3.057a.814.814 0 0 0-.505.396l-.089.167-.01 8.294c-.007 5.477.003 8.346.03 8.444.06.226.203.411.402.522l.178.1 2.291.011c1.481.008 2.345-.003 2.444-.03a.841.841 0 0 0 .525-.403l.1-.178V3.62l-.089-.167c-.106-.197-.269-.322-.52-.398-.259-.078-4.507-.076-4.757.002m8 0a.814.814 0 0 0-.505.396l-.089.167-.01 8.294c-.007 5.477.003 8.346.03 8.444.06.226.203.411.402.522l.178.1 2.291.011c1.481.008 2.345-.003 2.444-.03a.841.841 0 0 0 .525-.403l.1-.178V3.62l-.089-.167c-.106-.197-.269-.322-.52-.398-.259-.078-4.507-.076-4.757.002M9 12v7H7V5h2v7m8 0v7h-2V5h2v7" fill="#000" fill-rule="evenodd" stroke="none"/></svg>