<svg xmlns="http://www.w3.org/2000/svg" width="24" height="24" fill="none" stroke="currentColor" stroke-width="2" stroke-linecap="round" stroke-linejoin="round"><path d="M1.637 1.015c-.272.097-.392.218-.576.583-.126.249-.145.521-.05.705.033.064.836 3.33 1.785 7.257.948 3.927 1.743 7.209 1.767 7.293.058.21.372.527.577.583.088.024 1.429.296 2.98.606 1.551.309 2.843.57 2.872.579.04.014.041.037.005.104-.075.141-.055.442.042.638.124.247 3.351 3.474 3.598 3.598a.807.807 0 0 0 .726 0c.126-.063 1.231-1.142 3.843-3.755 2.613-2.612 3.692-3.717 3.755-3.843a.807.807 0 0 0 0-.726c-.123-.245-3.351-3.474-3.596-3.596a.658.658 0 0 0-.4-.072c-.124.008-.25.023-.281.033-.045.014-.179-.593-.644-2.909-.323-1.61-.611-2.983-.639-3.052-.093-.224-.369-.424-.712-.515-.17-.046-3.448-.841-7.284-1.766-3.836-.926-7.026-1.709-7.088-1.741-.138-.072-.486-.074-.68-.004m8.837 4.061c2.823.681 5.143 1.248 5.155 1.26.013.012.307 1.44.654 3.173l.632 3.151-2.128 2.127-2.127 2.128-3.151-.632c-1.733-.347-3.161-.641-3.173-.654-.012-.012-.579-2.332-1.26-5.155A1370.56 1370.56 0 0 0 3.818 5.28c-.012-.033.986.948 2.218 2.18L8.275 9.7l-.126.36c-.116.335-.125.399-.127.92-.002.479.012.603.092.86a3.086 3.086 0 0 0 2.046 2.046c.434.135 1.246.135 1.68 0a3.086 3.086 0 0 0 2.046-2.046c.135-.434.135-1.246 0-1.68a3.073 3.073 0 0 0-2.025-2.035c-.273-.083-.403-.098-.861-.098-.465 0-.584.014-.86.101a8.094 8.094 0 0 0-.38.126c-.043.019-.71-.624-2.3-2.215-1.232-1.233-2.213-2.233-2.18-2.222.033.012 2.37.578 5.194 1.259m.836 4.985c.378.112.69.537.69.94 0 .33-.216.695-.516.871-.156.091-.23.108-.484.108s-.328-.017-.484-.108c-.581-.342-.683-1.098-.212-1.569.279-.279.612-.359 1.006-.242m8.49 4.159.78.78-2.79 2.79L15 20.58l-.79-.79-.79-.79 2.78-2.78a278.647 278.647 0 0 1 2.8-2.78c.012 0 .372.351.8.78" fill-rule="evenodd" fill="#000" stroke="none"/></svg>