<svg xmlns="http://www.w3.org/2000/svg" width="24" height="24" fill="none" stroke="currentColor" stroke-width="2" stroke-linecap="round" stroke-linejoin="round"><path d="M17.626 1.045c-.206.109-.48.388-.588.599a.795.795 0 0 0 .001.719c.125.249 4.349 4.473 4.598 4.598.353.176.718.087 1.064-.26.347-.346.436-.711.26-1.064-.121-.241-4.349-4.473-4.589-4.593a.884.884 0 0 0-.746.001M14.62 4.046c-.213.109-11.875 11.755-11.987 11.97-.044.086-.431 1.436-.859 3-.845 3.09-.865 3.192-.699 3.486.151.268.578.498.923.498.186 0 5.781-1.527 5.986-1.633.236-.123 11.863-11.777 11.977-12.004a.807.807 0 0 0 0-.726c-.121-.241-4.349-4.473-4.589-4.593a.894.894 0 0 0-.752.002M16.3 7.72 17.58 9l-5.305 5.305-5.304 5.304-1.75.478c-.962.263-1.757.47-1.766.461-.009-.009.199-.806.462-1.77l.479-1.754 5.292-5.292A959.5 959.5 0 0 1 15 6.44c.011 0 .596.576 1.3 1.28" fill-rule="evenodd" fill="#000" stroke="none"/></svg>