<svg xmlns="http://www.w3.org/2000/svg" width="24" height="24" fill="none" stroke="currentColor" stroke-width="2" stroke-linecap="round" stroke-linejoin="round"><path d="M11.477 3.073c-.671.176-1.239.75-1.417 1.435a2.07 2.07 0 0 0 .165 1.422c.136.269.576.709.845.845a2.047 2.047 0 0 0 1.86 0c.266-.135.708-.575.841-.838a2.05 2.05 0 0 0 .169-1.408 1.806 1.806 0 0 0-.475-.876 1.984 1.984 0 0 0-1.988-.58M5.78 6.989c-.218.039-.269.061-.402.178-.282.248-.47.813-.38 1.146.058.215.245.427.478.544.101.05 1.385.492 2.854.981l2.67.889v3.032l-1.503 3.01c-1.672 3.35-1.641 3.271-1.457 3.651.105.217.358.42.672.539.398.152.763.07.996-.224.067-.085.606-1.122 1.197-2.305.591-1.183 1.084-2.15 1.095-2.15.011 0 .509.978 1.106 2.172.598 1.195 1.137 2.233 1.198 2.306.141.166.384.28.604.281.382.002.899-.302 1.052-.619.184-.38.215-.301-1.457-3.651L13 13.759v-3.032l2.61-.869c1.436-.478 2.718-.917 2.85-.977.282-.126.478-.332.542-.568.081-.303-.07-.821-.316-1.087-.165-.177-.313-.235-.592-.233-.221.001-.617.123-3.173.974L12 8.939l-2.91-.966c-2.738-.908-3.112-1.02-3.31-.984" fill-rule="evenodd" fill="#000" stroke="none"/></svg>