<svg xmlns="http://www.w3.org/2000/svg" width="24" height="24" fill="none" stroke="currentColor" stroke-width="2" stroke-linecap="round" stroke-linejoin="round"><path d="m3.7 1.024-.3.061c-.859.172-1.725.911-2.071 1.767-.226.559-.26 1.107-.126 2.058a20.66 20.66 0 0 0 2.667 7.664c2.076 3.506 4.792 6.12 8.35 8.034 2.158 1.161 4.413 1.888 6.999 2.255.636.09.764.097 1.1.061.795-.087 1.28-.319 1.842-.882.31-.31.414-.446.551-.722.318-.639.328-.726.328-2.763 0-1.6-.008-1.829-.076-2.163-.092-.453-.198-.742-.386-1.054a3.064 3.064 0 0 0-1.626-1.314 8.053 8.053 0 0 0-.78-.165 12.525 12.525 0 0 1-2.098-.525c-.654-.215-.722-.229-1.176-.247-.407-.015-.538-.004-.84.071-.646.162-.985.372-1.665 1.031l-.469.456-.192-.13c-.958-.649-1.56-1.143-2.333-1.916a13.484 13.484 0 0 1-1.679-1.997l-.369-.526.457-.47c.486-.501.662-.73.834-1.085.216-.449.257-.655.255-1.303l-.001-.6-.231-.7a12.494 12.494 0 0 1-.521-2.085 7.999 7.999 0 0 0-.167-.78A3.002 3.002 0 0 0 8.46 1.318c-.602-.296-.571-.293-2.74-.302-1.067-.005-1.976-.002-2.02.008m9.971.016a.766.766 0 0 0-.498.43c-.092.189-.111.28-.112.549-.001.392.084.613.294.757.21.144.326.18.863.263.938.146 1.542.328 2.322.698a7.974 7.974 0 0 1 3.887 4.003c.283.637.449 1.21.578 1.999.043.264.098.547.122.629.06.199.249.42.427.499.198.088.651.087.913-.001.257-.087.515-.351.556-.568.044-.233-.007-.789-.122-1.35-.848-4.115-4.201-7.284-8.346-7.886-.462-.067-.714-.074-.884-.022M7.409 3.042c.206.057.474.27.579.461.052.093.123.357.171.638.167.955.327 1.59.62 2.457.166.491.181.769.058 1.042-.056.125-.312.413-.835.94-.438.442-.788.83-.837.928-.117.232-.112.532.012.799.113.241.605 1.035.905 1.458a17.337 17.337 0 0 0 4.438 4.344c.965.645 1.287.81 1.58.81.351-.001.493-.101 1.357-.953.866-.852.916-.886 1.33-.886.12 0 .36.055.615.141.877.297 1.549.466 2.45.616.544.091.744.184.935.435.225.295.23.346.232 2.248.001 1.924.012 1.833-.263 2.113-.3.304-.543.349-1.316.242-3.298-.455-6.369-1.753-9.06-3.83a18.503 18.503 0 0 1-4.046-4.325c-1.752-2.633-2.72-5.124-3.138-8.079-.089-.632-.093-.755-.027-.976.065-.223.401-.559.612-.615.215-.057 3.427-.064 3.628-.008m6.168 2.015c-.413.179-.668.956-.461 1.403.144.311.334.426.959.578 1.072.261 2.071 1.065 2.585 2.081.142.282.242.573.343 1.006.159.674.418.9.995.867.406-.024.718-.168.874-.403.221-.335.115-1.13-.273-2.039a6 6 0 0 0-2.859-3.02c-.845-.423-1.8-.632-2.163-.473" fill-rule="evenodd" fill="#000" stroke="none"/></svg>