<svg xmlns="http://www.w3.org/2000/svg" width="24" height="24" fill="none" stroke="currentColor" stroke-width="2" stroke-linecap="round" stroke-linejoin="round"><path d="M15.626 1.045c-.369.194-.675.628-.675.955 0 .333.105.467 1.402 1.77L17.577 5l-1.224 1.23C15.056 7.533 14.951 7.667 14.951 8c0 .477.572 1.049 1.049 1.049.333 0 .467-.105 1.77-1.402L19 6.423l1.23 1.224c1.303 1.297 1.437 1.402 1.77 1.402.477 0 1.049-.572 1.049-1.049 0-.333-.105-.467-1.402-1.77L20.423 5l1.224-1.23c.805-.809 1.254-1.291 1.313-1.407.177-.352.088-.717-.259-1.064-.34-.341-.721-.431-1.073-.254-.105.053-.629.543-1.398 1.308L19 3.577l-1.23-1.224c-.769-.765-1.293-1.255-1.398-1.308a.877.877 0 0 0-.746 0M3.62 1.042a3.041 3.041 0 0 0-2.156 1.557c-.354.679-.414 1.271-.246 2.421.405 2.776 1.276 5.267 2.655 7.6 1.643 2.779 3.795 5.078 6.343 6.778 2.191 1.463 4.282 2.405 6.644 2.997 1.202.301 2.569.525 3.202.525 1.086 0 2.154-.687 2.636-1.695.284-.594.282-.576.282-2.845 0-2.027-.001-2.042-.094-2.34-.3-.961-1.011-1.702-1.933-2.014a6.37 6.37 0 0 0-.68-.146c-.954-.159-1.253-.234-2.273-.569-.575-.189-.655-.205-1.102-.222-.406-.015-.538-.004-.84.071-.646.162-.985.372-1.665 1.031l-.469.456-.192-.13c-.958-.649-1.56-1.143-2.333-1.916a13.484 13.484 0 0 1-1.679-1.997l-.369-.526.457-.47c.486-.501.662-.73.834-1.085.216-.449.257-.655.255-1.303l-.001-.6-.231-.7a12.304 12.304 0 0 1-.522-2.085 7.908 7.908 0 0 0-.166-.78A3.002 3.002 0 0 0 8.46 1.318c-.601-.296-.573-.293-2.72-.302-1.056-.005-2.01.007-2.12.026m3.789 2c.204.056.472.269.579.459.048.086.117.328.153.538.17.998.337 1.668.638 2.559.166.491.181.769.058 1.042-.056.125-.312.413-.835.94-.438.442-.788.83-.837.928-.117.232-.112.532.012.799.113.241.605 1.035.905 1.458a17.337 17.337 0 0 0 4.438 4.344c.965.645 1.287.81 1.58.81.351-.001.493-.101 1.357-.953.866-.852.916-.886 1.33-.886.12 0 .36.055.615.141.877.297 1.549.466 2.45.616.293.049.535.114.638.171.197.109.41.375.468.583.052.187.055 3.364.004 3.586-.085.363-.466.698-.836.733-.368.036-1.883-.215-2.886-.477-4.11-1.074-7.841-3.559-10.345-6.893-1.805-2.402-2.987-5.035-3.53-7.86-.158-.819-.265-1.703-.23-1.887.032-.172.24-.494.387-.602.245-.18.331-.187 2.078-.189 1.026-.001 1.717.014 1.809.04" fill-rule="evenodd" fill="#000" stroke="none"/></svg>