<svg xmlns="http://www.w3.org/2000/svg" width="24" height="24" fill="none" stroke="currentColor" stroke-width="2" stroke-linecap="round" stroke-linejoin="round"><path d="M21.62 1.046c-.24.123-20.465 20.358-20.581 20.591-.175.353-.086.718.26 1.064.347.347.711.436 1.064.259.124-.062.976-.886 2.843-2.75l2.666-2.661.494.417c.654.553 1.225.987 1.831 1.392 2.873 1.923 5.893 3.069 9.163 3.479.497.063.687.07.955.04 1.059-.121 1.976-.78 2.401-1.723.271-.604.264-.526.264-2.774 0-2.027-.001-2.042-.094-2.34-.3-.961-1.011-1.702-1.933-2.014a6.37 6.37 0 0 0-.68-.146c-.954-.159-1.253-.234-2.273-.569-.575-.189-.655-.205-1.102-.222-.406-.015-.538-.004-.84.071-.647.162-.985.372-1.666 1.033l-.47.456-.491-.345c-.27-.19-.674-.494-.898-.675l-.407-.329 5.373-5.38c3.857-3.862 5.398-5.43 5.462-5.557.176-.353.086-.718-.26-1.064-.339-.34-.733-.432-1.081-.253m-18-.004a3.041 3.041 0 0 0-2.156 1.557c-.338.647-.407 1.23-.267 2.241a20.615 20.615 0 0 0 2.802 7.94c.532.881.724 1.066 1.112 1.072.368.006.9-.333 1.054-.672.154-.338.094-.543-.394-1.34a18.588 18.588 0 0 1-2.425-6.26c-.141-.745-.244-1.614-.211-1.787.06-.319.381-.664.7-.752.197-.055 3.377-.054 3.574.001.204.056.472.269.579.459.048.086.117.328.153.538.17.998.337 1.668.638 2.559.166.492.181.769.058 1.042-.057.125-.319.419-.858.963-.818.825-.936.989-.938 1.302-.001.234.094.433.325.677.234.248.485.378.724.377.328-.002.48-.113 1.353-.991.834-.838 1.005-1.044 1.199-1.445.216-.449.257-.655.255-1.303l-.001-.6-.231-.7a12.304 12.304 0 0 1-.522-2.085 7.908 7.908 0 0 0-.166-.78A3.002 3.002 0 0 0 8.46 1.318c-.601-.296-.573-.293-2.72-.302-1.056-.005-2.01.007-2.12.026m7.375 13.911a16.56 16.56 0 0 0 2.013 1.474c.635.398.845.492 1.092.492.351-.001.493-.101 1.357-.953.866-.852.916-.886 1.33-.886.12 0 .36.055.615.141.877.297 1.549.466 2.45.616.293.049.535.114.638.171.201.111.412.378.471.594.028.104.038.745.031 1.868-.012 1.665-.014 1.714-.098 1.87-.187.345-.506.546-.871.548-.425.002-1.874-.248-2.743-.473a19.171 19.171 0 0 1-6.74-3.269c-.522-.395-1.22-.977-1.22-1.019 0-.027 1.367-1.407 1.394-1.407.009 0 .135.105.281.233" fill-rule="evenodd" fill="#000" stroke="none"/></svg>