<svg xmlns="http://www.w3.org/2000/svg" width="24" height="24" fill="none" stroke="currentColor" stroke-width="2" stroke-linecap="round" stroke-linejoin="round"><path d="M21.62 1.046c-.097.05-1.041.962-2.388 2.306l-2.228 2.223-.012-1.978c-.012-1.957-.013-1.979-.101-2.144-.106-.197-.269-.322-.52-.398-.509-.153-1.06.021-1.262.398l-.089.167-.027 3.16a962.553 962.553 0 0 1-.03 3.289c-.004.139.158.541.269.666.099.113.545.305.697.302a969.67 969.67 0 0 1 3.291-.03c3.129-.027 3.162-.028 3.32-.113.335-.179.438-.39.438-.894 0-.433-.079-.644-.3-.801-.267-.191-.367-.199-2.374-.199h-1.882l2.225-2.23c1.542-1.546 2.252-2.284 2.313-2.407.177-.353.088-.717-.259-1.064-.34-.34-.734-.432-1.081-.253m-18-.004a3.041 3.041 0 0 0-2.156 1.557c-.354.679-.414 1.271-.246 2.421.405 2.776 1.276 5.267 2.655 7.6 1.643 2.779 3.795 5.078 6.343 6.778 2.191 1.463 4.282 2.405 6.644 2.997 1.202.301 2.569.525 3.202.525 1.086 0 2.154-.687 2.636-1.695.284-.594.282-.576.282-2.845 0-2.027-.001-2.042-.094-2.34-.3-.961-1.011-1.702-1.933-2.014a6.37 6.37 0 0 0-.68-.146c-.954-.159-1.253-.234-2.273-.569-.575-.189-.655-.205-1.102-.222-.406-.015-.538-.004-.84.071-.646.162-.985.372-1.665 1.031l-.469.456-.192-.13c-.958-.649-1.56-1.143-2.333-1.916a13.484 13.484 0 0 1-1.679-1.997l-.369-.526.457-.47c.486-.501.662-.73.834-1.085.216-.449.257-.655.255-1.303l-.001-.6-.231-.7a12.304 12.304 0 0 1-.522-2.085 7.908 7.908 0 0 0-.166-.78A3.002 3.002 0 0 0 8.46 1.318c-.601-.296-.573-.293-2.72-.302-1.056-.005-2.01.007-2.12.026m3.789 2c.204.056.472.269.579.459.048.086.117.328.153.538.17.998.337 1.668.638 2.559.166.491.181.769.058 1.042-.056.125-.312.413-.835.94-.438.442-.788.83-.837.928-.117.232-.112.532.012.799.113.241.605 1.035.905 1.458a17.337 17.337 0 0 0 4.438 4.344c.965.645 1.287.81 1.58.81.351-.001.493-.101 1.357-.953.866-.852.916-.886 1.33-.886.12 0 .36.055.615.141.877.297 1.549.466 2.45.616.293.049.535.114.638.171.197.109.41.375.468.583.052.187.055 3.364.004 3.586-.085.363-.466.698-.836.733-.368.036-1.883-.215-2.886-.477-4.11-1.074-7.841-3.559-10.345-6.893-1.805-2.402-2.987-5.035-3.53-7.86-.158-.819-.265-1.703-.23-1.887.032-.172.24-.494.387-.602.245-.18.331-.187 2.078-.189 1.026-.001 1.717.014 1.809.04" fill-rule="evenodd" fill="#000" stroke="none"/></svg>