<svg xmlns="http://www.w3.org/2000/svg" width="24" height="24" fill="none" stroke="currentColor" stroke-width="2" stroke-linecap="round" stroke-linejoin="round"><path d="M11.649 1.036a.934.934 0 0 0-.538.414l-.091.17v10.76l.1.178c.11.197.294.34.515.401.199.056 10.531.056 10.73 0a.833.833 0 0 0 .51-.395c.125-.225.152-.684.088-1.452a11.046 11.046 0 0 0-2.193-5.749c-.454-.608-1.523-1.677-2.13-2.128-1.596-1.187-3.293-1.882-5.217-2.138-.538-.071-1.594-.108-1.774-.061m-3.977.86c-.374.132-1.209.578-1.732.925a11.385 11.385 0 0 0-3.314 3.431 11.008 11.008 0 0 0-1.261 8.546 10.975 10.975 0 0 0 2.048 4.062c.425.533 1.305 1.401 1.842 1.817a10.959 10.959 0 0 0 9.483 1.965 10.868 10.868 0 0 0 4.854-2.704A11.035 11.035 0 0 0 21.791 17c.447-.878.526-1.206.372-1.545-.136-.3-.627-.577-1.033-.583-.431-.006-.61.155-.943.848-.561 1.167-1.107 1.928-1.995 2.783-1.006.969-2.123 1.63-3.498 2.072-2.792.897-5.885.333-8.238-1.502a10.943 10.943 0 0 1-1.46-1.433c-1.346-1.682-2.078-3.885-1.98-5.96.101-2.144.836-4.003 2.217-5.608.734-.854 1.657-1.556 2.87-2.183.58-.301.69-.373.795-.522.169-.241.172-.596.009-.947-.267-.574-.642-.733-1.235-.524m6.217 1.307c2.26.464 4.354 1.911 5.671 3.917.667 1.017 1.232 2.545 1.346 3.641l.025.239H13V3.069l.239.025c.131.013.423.062.65.109" fill-rule="evenodd" fill="#000" stroke="none"/></svg>