<svg xmlns="http://www.w3.org/2000/svg" width="24" height="24" fill="none" stroke="currentColor" stroke-width="2" stroke-linecap="round" stroke-linejoin="round"><path d="M18.354 4.063c-.861.155-1.796.691-2.518 1.442l-.264.275-.376-.09c-1.573-.377-3.491-.372-5.228.012-1.064.236-2.379.77-3.168 1.287-1.407.922-2.373 2.286-2.679 3.781-.043.213-.055.23-.157.23-.194 0-.477-.122-.634-.275-.281-.273-.305-.364-.331-1.285-.026-.93-.065-1.071-.35-1.258-.451-.295-1.223-.203-1.479.176-.159.236-.179.407-.161 1.342.016.807.026.905.119 1.187.163.493.365.814.768 1.217.542.541 1.104.816 1.797.879l.304.028.019.164c.116.979.186 1.284.417 1.817.258.591.683 1.173 1.237 1.69l.31.289.02 1.705.02 1.704.1.178c.11.197.294.34.515.401.196.055 4.534.055 4.73 0a.842.842 0 0 0 .515-.401c.094-.167.101-.22.114-.868l.014-.69h.985l.014.69c.012.649.019.701.113.868.11.197.294.34.515.401.196.055 4.534.055 4.73 0a.842.842 0 0 0 .515-.401l.1-.178.012-1.888.012-1.887.348-.231c.407-.27.969-.819 1.168-1.143l.14-.227.78-.002c.429-.001.845-.021.925-.043a.842.842 0 0 0 .515-.401l.1-.178V9.62l-.089-.167C22.695 9.087 22.43 9 21.517 9h-.671l-.048-.15c-.089-.278-.326-.687-.56-.966l-.234-.278-.012-1.493c-.012-1.455-.014-1.497-.101-1.66-.218-.407-.728-.537-1.537-.39m-.262 4.369c.04.072.209.279.376.46.387.418.49.637.532 1.129.037.432.137.66.355.807.213.143.382.172 1.035.172H21v2h-.573c-.939 0-1.133.104-1.403.755-.235.567-.574.889-1.376 1.305-.325.169-.531.38-.602.614-.031.107-.046.653-.046 1.741V19h-1.992l-.015-.69c-.014-.616-.025-.708-.103-.857-.104-.197-.267-.322-.519-.398-.267-.08-3.475-.08-3.742 0-.251.076-.414.201-.52.398-.08.15-.09.236-.102.857l-.014.69H8v-1.325c0-.933-.015-1.375-.049-1.49-.052-.175-.174-.308-.831-.905-.872-.792-1.067-1.271-1.109-2.722-.032-1.099.059-1.624.399-2.298.518-1.028 1.631-1.871 3.107-2.355.928-.303 1.678-.433 2.803-.486 1.039-.049 2.245.112 3.023.403.513.192.757.237.971.18.235-.064.454-.275.583-.563.126-.28.487-.687.843-.95l.24-.177.02.994c.017.857.03 1.012.092 1.126m-2.478 1.625c-.391.123-.575.379-.605.843-.044.678.26 1.051.887 1.091.485.031.803-.109.984-.433.087-.156.1-.226.099-.558-.001-.433-.081-.645-.301-.801-.264-.189-.721-.249-1.064-.142" fill-rule="evenodd" fill="#000" stroke="none"/></svg>