<svg xmlns="http://www.w3.org/2000/svg" width="24" height="24" fill="none" stroke="currentColor" stroke-width="2" stroke-linecap="round" stroke-linejoin="round"><path d="M6.614 2.057a.814.814 0 0 0-.505.396c-.074.139-.089.231-.089.547 0 .331.013.403.1.558.11.197.294.34.515.401.08.022.42.041.755.041H8v3.758l-.99 1.983-.99 1.983v2.656l.1.178c.11.197.294.34.515.401.089.025.965.041 2.255.041H11v3.11c0 1.96.015 3.164.041 3.255.107.385.396.597.855.626.485.031.803-.109.984-.433l.1-.178.011-3.19.011-3.19h2.109c1.289 0 2.165-.016 2.254-.041a.842.842 0 0 0 .515-.401l.1-.178v-2.656l-.99-1.983L16 7.758V4h.61c.335 0 .675-.019.755-.041a.842.842 0 0 0 .515-.401c.087-.156.1-.226.099-.558-.001-.433-.081-.645-.301-.801-.288-.205-.113-.199-5.694-.196-4.154.002-5.238.013-5.37.054m7.395 4.081.011 2.138.99 1.983.99 1.983V13H8v-.758l.99-1.983.99-1.983.011-2.138L10.002 4h3.996l.011 2.138" fill-rule="evenodd" fill="#000" stroke="none"/></svg>