<svg xmlns="http://www.w3.org/2000/svg" width="24" height="24" fill="none" stroke="currentColor" stroke-width="2" stroke-linecap="round" stroke-linejoin="round"><path d="M18.34 1.902a3.544 3.544 0 0 0-1.05.462c-.104.07-1.12 1.054-2.256 2.187l-2.067 2.06-.139-.086c-.217-.134-.501-.204-.828-.204-.618 0-.868.141-1.662.936-.653.655-.762.818-.882 1.33a1.99 1.99 0 0 0 .077 1.105l.094.261-3.196 3.193c-1.81 1.809-3.243 3.272-3.304 3.374l-.107.18-.012 1.44-.012 1.44-.933.94C1.07 21.521.951 21.679.951 22c0 .477.572 1.049 1.049 1.049.321 0 .479-.119 1.48-1.112l.94-.933 1.44-.012 1.44-.012.18-.107c.102-.061 1.565-1.494 3.374-3.304l3.193-3.196.261.094c.357.13.761.158 1.105.077.513-.121.674-.228 1.356-.905.529-.526.648-.665.752-.889.23-.491.23-1.006.002-1.49l-.113-.24 2.068-2.08c1.189-1.196 2.128-2.174 2.21-2.3.563-.87.629-2.002.171-2.94-.391-.801-1.259-1.544-2.059-1.764-.33-.09-1.119-.108-1.46-.034m1.049 2.017c.426.193.772.677.77 1.079-.002.422.011.407-2.355 2.782-1.409 1.415-2.227 2.265-2.29 2.381a1.709 1.709 0 0 0-.04 1.58l.117.25-.296.294-.296.294-1.789-1.789-1.789-1.789.291-.293.292-.294.216.109a1.79 1.79 0 0 0 1.051.159c.549-.093.513-.063 2.929-2.468 1.684-1.677 2.263-2.23 2.4-2.291.232-.105.564-.107.789-.004M11.8 12.22l.78.78-3 3-3 3H5v-1.58l2.99-2.99A322.113 322.113 0 0 1 11 11.44c.012 0 .371.351.8.78" fill-rule="evenodd" fill="#000" stroke="none"/></svg>