<svg xmlns="http://www.w3.org/2000/svg" width="24" height="24" fill="none" stroke="currentColor" stroke-width="2" stroke-linecap="round" stroke-linejoin="round"><path d="M19.68 1.825c-.691.084-1.408.314-2.12.679-.866.444-1.189.718-3.14 2.655l-1.76 1.749-3.78-.834c-2.079-.458-3.906-.847-4.06-.864-.66-.072-1.206.104-1.626.525-.271.272-.683.96-.793 1.325a2.098 2.098 0 0 0 .145 1.589c.205.409.439.589 2.754 2.111 1.21.796 2.222 1.468 2.249 1.494.039.037-.073.231-.516.897L6.468 14H5.181c-1.067 0-1.324.011-1.504.064-.197.059-.277.125-.883.73-.407.407-.7.735-.754.843-.158.316-.11.609.155.959.063.082.691.528 1.594 1.13l1.491.994.965 1.45c.53.798 1.021 1.51 1.09 1.584.283.301.635.364 1.025.183.164-.076.37-.251.813-.69.326-.323.641-.668.7-.767l.107-.18.02-1.39.02-1.39.839-.56c.659-.439.85-.548.887-.509.026.027.699 1.039 1.496 2.249.796 1.21 1.522 2.278 1.613 2.372.575.601 1.38.774 2.239.481.892-.304 1.362-.725 1.62-1.451.198-.556.203-.522-.749-4.837-.465-2.11-.845-3.864-.845-3.899 0-.035.762-.829 1.694-1.765.931-.936 1.787-1.815 1.901-1.954a6.747 6.747 0 0 0 1.354-2.718c.135-.544.153-1.388.038-1.802-.095-.341-.231-.64-.363-.795-.128-.152-.502-.336-.864-.426-.266-.066-.948-.112-1.2-.081m.487 2.235c-.036.674-.357 1.462-.88 2.16-.099.132-1.067 1.131-2.151 2.22-2.081 2.09-2.133 2.152-2.135 2.508-.001.093.403 2.01.896 4.26.493 2.251.903 4.137.91 4.191.011.081-.015.113-.14.172a1.457 1.457 0 0 1-.262.094c-.107.021-.161-.054-1.876-2.652-.971-1.471-1.825-2.73-1.897-2.799-.29-.275-.616-.328-.972-.157-.11.052-.92.578-1.8 1.169-1.444.97-1.611 1.093-1.72 1.271l-.12.196L8 17.931l-.02 1.238-.631-.944-.631-.943-.943-.631-.944-.631L6.046 16c1.257-.021 1.313-.028 1.56-.205.122-.086 2.228-3.206 2.358-3.491.091-.2.097-.507.015-.681a1.217 1.217 0 0 0-.21-.272c-.082-.078-1.341-.929-2.799-1.891-1.457-.961-2.65-1.773-2.65-1.803 0-.093.243-.457.304-.457.032 0 1.903.405 4.158.9 2.256.495 4.177.9 4.27.899.357-.002.415-.051 2.568-2.194 2.157-2.147 2.299-2.271 2.996-2.603a3.996 3.996 0 0 1 1.146-.359c.427-.057.42-.06.405.217" fill-rule="evenodd" fill="#000" stroke="none"/></svg>