<svg xmlns="http://www.w3.org/2000/svg" width="24" height="24" fill="none" stroke="currentColor" stroke-width="2" stroke-linecap="round" stroke-linejoin="round"><path d="M4.614 2.057a.814.814 0 0 0-.505.396l-.089.167-.01 9.259c-.012 10.342-.037 9.463.277 9.819.295.335.657.429 1.02.264.277-.125 14.258-9.13 14.406-9.277.288-.288.407-.765.266-1.062a1.217 1.217 0 0 0-.21-.272c-.19-.182-14.257-9.223-14.464-9.296a1.187 1.187 0 0 0-.691.002m7.06 6.423c2.995 1.925 5.445 3.509 5.445 3.52.001.016-10.854 7.014-11.063 7.132-.048.027-.056-.982-.056-7.134V4.832l.115.074 5.559 3.574" fill="#000" fill-rule="evenodd" stroke="none"/></svg>