<svg xmlns="http://www.w3.org/2000/svg" width="24" height="24" fill="none" stroke="currentColor" stroke-width="2" stroke-linecap="round" stroke-linejoin="round"><path d="M12.686 1.003a1.248 1.248 0 0 0-.215.124c-.164.116-2.342 2.845-2.435 3.05-.092.201-.097.507-.012.685.082.173.416.485.607.566.099.042.335.072.703.088l.554.024-.385.48c-.461.576-.543.73-.543 1.025 0 .173.024.258.114.4.228.358.614.595.971.595.385 0 .463-.075 1.704-1.628.611-.766 1.136-1.446 1.165-1.512.165-.365.074-.913-.191-1.152-.214-.194-.368-.228-1.033-.228-.313 0-.57-.016-.57-.035 0-.019.171-.249.381-.51.457-.571.539-.726.539-1.02a.622.622 0 0 0-.113-.398c-.286-.451-.86-.707-1.241-.554M9.76 9.52c-.343.061-.522.18-.666.445-.065.118-.076.263-.094 1.162l-.02 1.026-.32.164a3.104 3.104 0 0 0-1.546 1.843c-.092.293-.094.337-.094 1.84 0 1.503.002 1.547.094 1.84a3.099 3.099 0 0 0 2.026 2.042c.239.076.396.092 1.07.108l.79.019v1.106c0 .617.018 1.169.041 1.25.107.385.396.597.855.626.485.031.803-.109.984-.433.099-.177.1-.184.113-1.363l.012-1.186.788-.019c.671-.016.828-.032 1.067-.108a3.099 3.099 0 0 0 2.026-2.042c.092-.293.094-.337.094-1.84 0-1.503-.002-1.547-.094-1.84a3.093 3.093 0 0 0-1.556-1.847l-.33-.168v-.925c0-1.088-.03-1.25-.277-1.473-.187-.169-.372-.227-.723-.227s-.536.058-.723.227c-.243.22-.277.391-.277 1.4V12h-1.995l-.012-.95c-.013-.916-.016-.956-.108-1.116a.953.953 0 0 0-.2-.244c-.204-.151-.611-.225-.925-.17m4.55 4.541c.279.083.546.35.629.629.084.282.089 2.325.006 2.6a1.02 1.02 0 0 1-.461.582l-.184.108H9.7l-.184-.108a1.051 1.051 0 0 1-.458-.556c-.086-.245-.084-2.334.003-2.626.079-.269.351-.547.612-.627.285-.088 4.342-.09 4.637-.002" fill-rule="evenodd" fill="#000" stroke="none"/></svg>