<svg xmlns="http://www.w3.org/2000/svg" width="24" height="24" fill="none" stroke="currentColor" stroke-width="2" stroke-linecap="round" stroke-linejoin="round"><path d="M11.614 4.057a.814.814 0 0 0-.505.396l-.089.167-.011 3.19-.011 3.19H7.905c-3.306 0-3.304 0-3.583.199-.222.158-.302.369-.302.801 0 .331.013.403.1.558.11.197.294.34.515.401.091.026 1.295.041 3.255.041H11v3.11c0 1.96.015 3.164.041 3.255.107.385.396.597.855.626.485.031.803-.109.984-.433l.1-.178.011-3.19.011-3.19h3.109c1.959 0 3.163-.015 3.254-.041a.842.842 0 0 0 .515-.401c.087-.156.1-.226.099-.558-.001-.433-.081-.645-.301-.801C19.399 11 19.401 11 16.095 11h-3.093l-.011-3.19-.011-3.19-.089-.167a.874.874 0 0 0-.213-.254c-.264-.189-.721-.249-1.064-.142" fill="#000" fill-rule="evenodd" stroke="none"/></svg>