<svg xmlns="http://www.w3.org/2000/svg" width="24" height="24" fill="none" stroke="currentColor" stroke-width="2" stroke-linecap="round" stroke-linejoin="round"><path d="M4.499 2.043C3.38 2.232 2.461 3.048 2.114 4.16l-.094.3v15.08l.094.3a3.086 3.086 0 0 0 2.046 2.046l.3.094h15.08l.3-.094a3.086 3.086 0 0 0 2.046-2.046l.094-.3V4.46l-.094-.3a3.089 3.089 0 0 0-2.025-2.039l-.321-.101-7.42-.006c-4.081-.003-7.511.01-7.621.029M19.31 4.061c.279.083.546.35.629.629.054.18.061 1.065.061 7.311 0 5.906-.009 7.137-.055 7.289a1.02 1.02 0 0 1-.461.582l-.184.108H4.7l-.184-.108a1.199 1.199 0 0 1-.291-.249c-.239-.314-.225.172-.225-7.601 0-6.264.007-7.152.061-7.332.079-.269.351-.547.612-.627.291-.089 14.336-.092 14.637-.002m-7.696 2.996a.814.814 0 0 0-.505.396c-.087.164-.089.197-.101 1.857L10.997 11H9.405c-1.695 0-1.821.012-2.083.199-.222.158-.302.369-.302.801 0 .331.013.403.1.558.11.197.294.34.515.401.086.024.8.041 1.755.041H11v1.61c0 .955.017 1.669.041 1.755.107.385.396.597.855.626.485.031.803-.109.984-.433l.1-.178.012-1.69.012-1.69h1.608c.954 0 1.667-.017 1.753-.041a.842.842 0 0 0 .515-.401c.087-.156.1-.226.099-.558-.001-.433-.081-.645-.301-.801-.262-.187-.388-.199-2.082-.199h-1.592l-.012-1.69c-.012-1.659-.014-1.693-.101-1.857a.874.874 0 0 0-.213-.254c-.264-.189-.721-.249-1.064-.142" fill="#000" fill-rule="evenodd" stroke="none"/></svg>