<svg xmlns="http://www.w3.org/2000/svg" width="24" height="24" fill="none" stroke="currentColor" stroke-width="2" stroke-linecap="round" stroke-linejoin="round"><path d="M11.38 1.024c-3.236.246-5.947 1.82-7.741 4.496-.521.776-1.041 1.94-1.297 2.9a10.066 10.066 0 0 0-.099 4.76 9.992 9.992 0 0 0 3.955 5.956c.519.37.73.45 1.017.385.484-.109.942-.815.819-1.265-.065-.242-.207-.397-.695-.758-1.774-1.312-2.876-3.105-3.245-5.278-.095-.56-.095-1.889 0-2.44.311-1.811 1.098-3.319 2.37-4.54C8.27 3.505 10.73 2.727 13.23 3.102a8.036 8.036 0 0 1 4.473 2.304c1.202 1.237 1.933 2.709 2.205 4.442.085.542.092 1.669.015 2.212-.311 2.183-1.431 4.059-3.229 5.411-.528.397-.622.5-.692.762-.119.442.32 1.124.806 1.253.276.073.532-.021 1.019-.372a9.908 9.908 0 0 0 3.892-5.814 9.839 9.839 0 0 0-.277-5.56 9.783 9.783 0 0 0-2.36-3.783c-1.594-1.598-3.58-2.574-5.851-2.875-.339-.045-1.532-.082-1.851-.058m.04 4.003c-1.058.13-1.941.446-2.748.985-1.323.882-2.201 2.191-2.559 3.814-.127.577-.127 1.737.001 2.328.172.799.445 1.461.872 2.118.403.622.722.888 1.062.888.331-.001.78-.286.97-.615.216-.376.177-.567-.243-1.192-.469-.699-.649-1.15-.737-1.85a4.081 4.081 0 0 1 .42-2.373 4.1 4.1 0 0 1 2.567-2.019c.506-.127 1.481-.127 1.97.001 1.321.346 2.453 1.428 2.82 2.696.208.715.231 1.505.065 2.165-.096.381-.336.904-.6 1.307-.355.541-.358.874-.012 1.244.354.379.837.528 1.164.359.536-.277 1.187-1.502 1.457-2.743.125-.579.123-1.698-.004-2.3-.331-1.556-1.157-2.831-2.425-3.74-.53-.38-1.383-.775-1.989-.921-.613-.147-1.534-.216-2.051-.152m.057 4.046c-.671.176-1.239.75-1.417 1.435a2.07 2.07 0 0 0 .165 1.422c.136.269.576.709.845.845a2.047 2.047 0 0 0 1.86 0c.266-.135.708-.575.841-.838a2.05 2.05 0 0 0 .169-1.408 1.806 1.806 0 0 0-.475-.876A1.972 1.972 0 0 0 12 9.005c-.143 0-.378.031-.523.068m.167 5.932c-.543.09-1.096.519-1.343 1.041-.142.3-.222.693-.195.954.214 2.041.548 4.934.581 5.04.123.391.394.707.753.876.183.087.277.104.56.104.283 0 .377-.017.56-.104.359-.169.63-.485.753-.876.033-.106.367-2.999.581-5.04.027-.261-.053-.654-.195-.954a1.908 1.908 0 0 0-1.379-1.043 1.573 1.573 0 0 0-.676.002" fill-rule="evenodd" fill="#000" stroke="none"/></svg>