<svg xmlns="http://www.w3.org/2000/svg" width="24" height="24" fill="none" stroke="currentColor" stroke-width="2" stroke-linecap="round" stroke-linejoin="round"><path d="M7.499 1.04c-1.125.204-2.011.984-2.385 2.1l-.094.28-.011 4.254c-.01 3.77-.018 4.251-.072 4.23-.339-.13-.549-.162-1.037-.16-.592.002-.872.062-1.312.279a3.048 3.048 0 0 0-1.594 1.926c-.109.408-.119 1.117-.02 1.491.094.357.308.797.521 1.071.247.318 4.215 4.259 4.594 4.564 1.422 1.143 2.926 1.718 4.931 1.886.837.07 3.831.032 4.36-.056 1.935-.32 3.615-1.179 4.981-2.544 1.376-1.377 2.239-3.076 2.549-5.021.061-.381.07-.739.07-2.66 0-2.216 0-2.221-.094-2.52a3.073 3.073 0 0 0-2.025-2.035c-.454-.137-1.219-.144-1.674-.013a3.274 3.274 0 0 0-.468.169 1.638 1.638 0 0 1-.171.079c-.009 0-.107-.108-.218-.24-.422-.499-.898-.821-1.469-.995-.454-.137-1.219-.144-1.674-.013a3.274 3.274 0 0 0-.468.169 1.638 1.638 0 0 1-.171.079c-.009 0-.107-.108-.218-.24-.422-.499-.898-.821-1.469-.995-.267-.081-.409-.098-.841-.1-.307-.001-.594.019-.7.049l-.247.07c-.061.018-.068-.094-.082-1.352-.015-1.299-.021-1.387-.107-1.652-.32-.978-1.083-1.736-2.023-2.011C8.5 1.023 7.832.98 7.499 1.04m.811 2.021c.279.083.546.35.629.629.052.175.061.653.061 3.367 0 1.996.015 3.216.041 3.308.107.385.396.597.855.626.485.031.803-.109.983-.433.094-.168.101-.222.122-.998.026-.928.047-1.012.32-1.277C11.49 8.12 11.777 8 12 8c.237 0 .514.12.697.303.261.261.303.437.303 1.263 0 .754.044.967.247 1.179.287.302 1.01.344 1.398.083.207-.139.317-.376.353-.759.038-.407.108-.576.323-.786C15.49 9.12 15.777 9 16 9c.237 0 .514.12.697.303.261.261.303.437.303 1.263 0 .755.044.967.247 1.18.333.349 1.207.331 1.539-.032.112-.122.214-.432.214-.648 0-.468.286-.885.69-1.005.257-.076.363-.076.62 0a.887.887 0 0 1 .387.243c.313.312.314.324.292 2.53-.015 1.468-.034 1.984-.081 2.246-.28 1.556-.917 2.801-1.972 3.856a6.883 6.883 0 0 1-3.249 1.84c-.771.191-.959.204-2.867.204-1.524 0-1.868-.011-2.243-.07-1.171-.186-1.995-.512-2.907-1.148-.497-.347-4.557-4.369-4.677-4.632a1.171 1.171 0 0 1-.014-.794 1.11 1.11 0 0 1 .481-.508c.223-.119.656-.12.88-.001.088.047.309.245.49.439.681.729 1.593 1.583 1.81 1.694.348.177.714.088 1.061-.259s.436-.713.259-1.062c-.05-.096-.286-.376-.525-.621L7 13.573V8.714c0-5.472-.022-5.086.307-5.415.275-.275.611-.355 1.003-.238" fill-rule="evenodd" fill="#000" stroke="none"/></svg>