<svg xmlns="http://www.w3.org/2000/svg" width="24" height="24" fill="none" stroke="currentColor" stroke-width="2" stroke-linecap="round" stroke-linejoin="round"><path d="M13.393 2.039a5.42 5.42 0 0 0-1.262.305c-1.496.561-2.512 1.664-2.938 3.193C9.013 6.182 9 6.431 9 9.29V12H7.406c-1.696 0-1.822.012-2.084.199-.222.158-.302.369-.302.801 0 .331.013.403.1.558.11.197.294.34.515.401.086.024.8.041 1.755.041H9v6H7.406c-1.696 0-1.822.012-2.084.199-.222.158-.302.369-.302.801 0 .331.013.403.1.558.11.197.294.34.515.401.199.056 12.531.056 12.73 0a.842.842 0 0 0 .515-.401c.087-.156.1-.226.099-.558-.001-.433-.081-.645-.301-.801-.282-.201-.239-.199-4.084-.199H11v-6h2.61c1.625 0 2.665-.016 2.755-.041a.842.842 0 0 0 .515-.401c.087-.156.1-.226.099-.558-.001-.433-.081-.645-.301-.801-.275-.196-.315-.199-3.086-.199h-2.596l.014-2.81c.017-3.154.006-3.033.319-3.667.127-.257.239-.41.469-.64a2.739 2.739 0 0 1 1.579-.821 3.347 3.347 0 0 1 1.246 0 2.739 2.739 0 0 1 1.579.821c.515.515.726 1.053.794 2.018.027.401.051.523.129.664.161.291.45.435.875.435s.714-.144.875-.436c.227-.41.123-1.582-.222-2.499-.681-1.808-2.407-2.978-4.493-3.044a6.238 6.238 0 0 0-.767.018" fill-rule="evenodd" fill="#000" stroke="none"/></svg>