<svg xmlns="http://www.w3.org/2000/svg" width="24" height="24" fill="none" stroke="currentColor" stroke-width="2" stroke-linecap="round" stroke-linejoin="round"><path d="M11.614 1.057a.814.814 0 0 0-.505.396l-.089.167-.011 5.294c-.007 3.479.004 5.345.03 5.444.105.389.395.603.857.633.485.031.803-.109.984-.433l.1-.178V1.62l-.089-.167a.874.874 0 0 0-.213-.254c-.264-.189-.721-.249-1.064-.142M5.247 5.69c-.188.096-.637.545-1.042 1.043-1.065 1.308-1.832 3.06-2.107 4.809-.089.564-.12 1.811-.06 2.398.19 1.881.861 3.599 1.998 5.118.384.514 1.387 1.516 1.908 1.907a10.383 10.383 0 0 0 4.634 1.944c.626.098 2.181.098 2.822-.002 1.796-.277 3.454-.993 4.82-2.081 2.471-1.968 3.886-5.036 3.766-8.166a9.114 9.114 0 0 0-.291-2.06c-.419-1.703-1.302-3.303-2.492-4.521-.357-.365-.558-.479-.843-.479-.251 0-.466.104-.701.339-.341.341-.436.714-.266 1.047.045.088.229.321.41.517 1.303 1.417 2.002 3.009 2.162 4.924a8.263 8.263 0 0 1-.391 3.133c-1.103 3.243-4.162 5.442-7.568 5.44a8.014 8.014 0 0 1-6.71-3.628 9.246 9.246 0 0 1-.892-1.864A7.948 7.948 0 0 1 4.8 9.529c.37-.769.749-1.322 1.376-2.009.19-.209.382-.453.425-.543.163-.336.071-.69-.268-1.03-.35-.349-.73-.439-1.086-.257" fill-rule="evenodd" fill="#000" stroke="none"/></svg>