<svg xmlns="http://www.w3.org/2000/svg" width="24" height="24" fill="none" stroke="currentColor" stroke-width="2" stroke-linecap="round" stroke-linejoin="round"><path d="M1.626 1.045c-.206.109-.48.388-.588.599a.792.792 0 0 0 .002.719c.06.121.659.749 1.881 1.977l1.793 1.8-.358.42c-1.168 1.369-1.923 3.021-2.24 4.898-.106.631-.146 1.885-.078 2.508.21 1.941.938 3.742 2.112 5.231.609.773 1.582 1.66 2.418 2.206.481.315 1.537.833 2.071 1.016 1.724.593 3.459.733 5.161.416a10.01 10.01 0 0 0 4.66-2.21l.4-.342 1.3 1.294c.86.856 1.36 1.324 1.477 1.383.352.177.717.088 1.064-.259.346-.346.435-.711.26-1.064-.122-.245-20.345-20.472-20.589-20.593a.884.884 0 0 0-.746.001m9.988.012a.814.814 0 0 0-.505.396c-.089.166-.089.176-.1 2.458-.008 1.481.003 2.345.03 2.444.105.392.394.606.857.636.485.031.803-.109.984-.433l.1-.178V1.62l-.089-.167a.874.874 0 0 0-.213-.254c-.264-.189-.721-.249-1.064-.142m6.372 4.628c-.369.194-.675.628-.675.955 0 .253.108.447.47.841.635.692 1.051 1.295 1.418 2.059a8.018 8.018 0 0 1 .639 5c-.128.658-.097.884.154 1.149.354.371 1.199.42 1.493.085.253-.287.458-1.278.503-2.434.08-2.055-.551-4.244-1.711-5.94-.51-.744-1.25-1.566-1.545-1.715a.877.877 0 0 0-.746 0m-6.192 7.529 5.655 5.655-.339.282c-1.069.894-2.36 1.48-3.87 1.757-.535.099-1.945.099-2.48 0-1.756-.323-3.079-.981-4.269-2.124-.718-.69-1.213-1.353-1.63-2.184-1.291-2.573-1.108-5.647.478-8.02.235-.351.755-1.02.793-1.02.004 0 2.553 2.544 5.662 5.654" fill-rule="evenodd" fill="#000" stroke="none"/></svg>