<svg xmlns="http://www.w3.org/2000/svg" width="24" height="24" fill="none" stroke="currentColor" stroke-width="2" stroke-linecap="round" stroke-linejoin="round"><path d="M5.614 1.057a.814.814 0 0 0-.505.396l-.089.167-.011 3.185-.011 3.186-.769.019c-.662.017-.813.033-1.09.116a3.068 3.068 0 0 0-2.025 2.034l-.094.3v6.08l.094.3a3.099 3.099 0 0 0 2.026 2.042c.239.076.396.092 1.068.108l.789.019.011 1.686.012 1.685.1.178c.11.197.294.34.515.401.199.056 12.531.056 12.73 0a.842.842 0 0 0 .515-.401l.1-.178.012-1.685.012-1.686.788-.019c.672-.016.829-.032 1.068-.108a3.099 3.099 0 0 0 2.026-2.042l.094-.3v-6.08l-.094-.3a3.068 3.068 0 0 0-2.025-2.034c-.277-.083-.428-.099-1.09-.116l-.769-.019-.011-3.186-.011-3.185-.089-.167c-.106-.197-.269-.322-.52-.398-.264-.079-12.503-.077-12.757.002M17 5.5V8H7V3h10v2.5m3.31 4.561c.279.083.546.35.629.629.086.289.092 5.316.006 5.6a1.02 1.02 0 0 1-.461.582c-.176.103-.212.109-.832.121l-.648.014-.012-1.694c-.012-1.663-.014-1.696-.101-1.86-.106-.197-.269-.322-.52-.398-.273-.082-12.469-.082-12.742 0-.251.076-.414.201-.52.398-.087.164-.089.197-.101 1.86l-.011 1.694-.649-.014c-.62-.012-.656-.018-.832-.121a1.051 1.051 0 0 1-.458-.556c-.088-.252-.086-5.326.003-5.626.079-.269.351-.547.612-.627.16-.049 1.357-.058 8.31-.06 7.161-.003 8.147.004 8.327.058M17 18v3H7v-6h10v3" fill-rule="evenodd" fill="#000" stroke="none"/></svg>