<svg xmlns="http://www.w3.org/2000/svg" width="24" height="24" fill="none" stroke="currentColor" stroke-width="2" stroke-linecap="round" stroke-linejoin="round"><path d="M1.614 1.057a.814.814 0 0 0-.505.396l-.089.167v8.76l.1.178c.11.197.294.34.515.401.198.055 8.532.055 8.73 0a.842.842 0 0 0 .515-.401l.1-.178V1.62l-.089-.167c-.106-.197-.269-.322-.52-.398-.263-.079-8.504-.077-8.757.002m12 0a.814.814 0 0 0-.505.396l-.089.167v8.76l.1.178c.11.197.294.34.515.401.198.055 8.532.055 8.73 0a.842.842 0 0 0 .515-.401l.1-.178V1.62l-.089-.167c-.106-.197-.269-.322-.52-.398-.263-.079-8.504-.077-8.757.002M9 6v3H3V3h6v3m12 0v3h-6V3h6v3M5.614 5.055c-.394.129-.575.382-.605.845-.031.481.11.799.433.98.155.087.227.1.558.1.312 0 .408-.016.54-.086C6.866 6.718 7 6.459 7 6c0-.643-.287-.952-.917-.984-.19-.01-.365.005-.469.039m12 0c-.394.129-.575.382-.605.845-.031.481.11.799.433.98.155.087.227.1.558.1.409 0 .6-.065.789-.267.282-.303.282-1.123 0-1.426-.227-.242-.8-.356-1.175-.232m-16 8.002a.814.814 0 0 0-.505.396l-.089.167v8.76l.1.178c.11.197.294.34.515.401.198.055 8.532.055 8.73 0a.842.842 0 0 0 .515-.401l.1-.178v-8.76l-.089-.167c-.106-.197-.269-.322-.52-.398-.263-.079-8.504-.077-8.757.002m12-.002c-.394.129-.575.382-.605.845-.031.481.11.799.433.98.155.087.227.1.558.1.312 0 .408-.016.54-.086.326-.176.46-.435.46-.894 0-.643-.287-.952-.917-.984-.19-.01-.365.005-.469.039m4 .002a.814.814 0 0 0-.505.396c-.074.139-.089.231-.089.547 0 .331.013.403.1.558.11.197.294.34.515.401.196.055 4.534.055 4.73 0a.842.842 0 0 0 .515-.401c.087-.156.1-.226.099-.558-.001-.433-.081-.645-.301-.801-.272-.194-.342-.199-2.694-.196-1.691.002-2.243.014-2.37.054M9 18v3H3v-6h6v3m-3.386-.945c-.394.129-.575.382-.605.845-.031.481.11.799.433.98.155.087.227.1.558.1.312 0 .408-.016.54-.086.326-.176.46-.435.46-.894 0-.643-.287-.952-.917-.984-.19-.01-.365.005-.469.039m8 .002a.814.814 0 0 0-.505.396c-.089.166-.089.176-.1 2.458-.008 1.481.003 2.345.03 2.444.105.392.394.606.857.636.485.031.803-.109.984-.433l.1-.178v-4.76l-.089-.167a.874.874 0 0 0-.213-.254c-.264-.189-.721-.249-1.064-.142m4-.002c-.394.129-.575.382-.605.845-.031.481.11.799.433.98.155.087.227.1.558.1.312 0 .408-.016.54-.086.326-.176.46-.435.46-.894 0-.643-.287-.952-.917-.984-.19-.01-.365.005-.469.039m4 .002a.814.814 0 0 0-.505.396c-.087.164-.089.197-.101 1.857L20.997 21h-1.592c-1.695 0-1.821.012-2.083.199-.222.158-.302.369-.302.801 0 .331.013.403.1.558.11.197.294.34.515.401.196.055 4.534.055 4.73 0a.842.842 0 0 0 .515-.401l.1-.178v-4.76l-.089-.167a.874.874 0 0 0-.213-.254c-.264-.189-.721-.249-1.064-.142" fill-rule="evenodd" fill="#000" stroke="none"/></svg>