<svg xmlns="http://www.w3.org/2000/svg" width="24" height="24" fill="none" stroke="currentColor" stroke-width="2" stroke-linecap="round" stroke-linejoin="round"><path d="M3.42 2.044a2.702 2.702 0 0 0-1.601.812c-.356.36-.555.695-.705 1.185l-.092.299-.013 3.44c-.009 2.374 0 3.536.031 3.749.054.378.194.8.366 1.103.177.313.675.803.994.977.416.227 1.019.39 1.45.391H4v.53c0 .292-.019.598-.042.681-.063.225-.346.548-.594.678-.182.095-.261.111-.539.111-.925.001-1.46.283-1.709.902l-.096.238v3.72l.104.246c.169.402.372.604.77.768.582.24 2.638.127 3.826-.211 1.298-.369 2.19-.879 3.04-1.741.494-.5.852-1.01 1.198-1.702.414-.831.667-1.63.839-2.647.182-1.083.183-1.11.183-6.253 0-5.515.022-5.105-.309-5.799-.132-.276-.224-.401-.506-.681-.382-.379-.705-.573-1.206-.725-.296-.09-.326-.091-2.799-.099-1.375-.005-2.608.008-2.74.028m12 0a2.702 2.702 0 0 0-1.601.812c-.356.36-.555.695-.705 1.185l-.092.299-.013 3.44c-.014 3.643-.008 3.815.171 4.341.145.426.322.706.657 1.042.446.447.945.692 1.622.798.153.024.286.051.296.06.009.01-.003.267-.027.572-.09 1.132-.303 1.327-1.532 1.402-.63.038-.863.121-1.026.363-.168.249-.175.355-.162 2.474l.012 2.028.104.246c.169.402.372.604.77.768.582.24 2.638.127 3.826-.211 1.298-.369 2.19-.879 3.04-1.741.494-.5.852-1.01 1.198-1.702.499-1.001.746-1.877.952-3.38.054-.392.066-1.171.079-5.26.017-5.08.015-5.16-.169-5.701-.148-.435-.323-.709-.677-1.06a2.625 2.625 0 0 0-1.184-.704c-.296-.09-.326-.091-2.799-.099-1.375-.005-2.608.008-2.74.028M8.581 4.112a.78.78 0 0 1 .376.528c.054.238.057 8.614.003 9.38-.195 2.763-1.105 4.513-2.782 5.352-.698.349-1.976.625-2.908.627L3 20v-1.982l.332-.046c1.232-.168 2.349-1.214 2.61-2.445.068-.319.08-1.998.018-2.329-.085-.447-.347-.827-.694-1.005-.234-.12-.641-.192-1.089-.192a2.592 2.592 0 0 1-.605-.061.752.752 0 0 1-.529-.588c-.032-.151-.042-1.19-.034-3.494.012-3.618-.004-3.39.261-3.638.229-.213.273-.217 2.81-.208l2.34.008.161.092m12 0a.78.78 0 0 1 .376.528c.054.238.057 8.614.003 9.38-.195 2.763-1.105 4.513-2.782 5.352-.698.349-1.976.625-2.908.627L15 20v-2.064l.367-.089c1.113-.271 1.831-.908 2.151-1.907.186-.583.222-.927.222-2.14 0-1.225-.012-1.299-.249-1.535-.213-.214-.432-.265-1.131-.265-.718 0-.929-.051-1.132-.276a.746.746 0 0 1-.185-.372c-.032-.151-.042-1.19-.034-3.494.012-3.618-.004-3.39.261-3.638.229-.213.273-.217 2.81-.208l2.34.008.161.092" fill-rule="evenodd" fill="#000" stroke="none"/></svg>