<svg xmlns="http://www.w3.org/2000/svg" width="24" height="24" fill="none" stroke="currentColor" stroke-width="2" stroke-linecap="round" stroke-linejoin="round"><path d="M3.499 7.043C2.38 7.232 1.461 8.048 1.114 9.16l-.094.3v5.08l.094.3c.369 1.184 1.397 2.036 2.584 2.144l.302.027v.605c0 .332.019.669.041.749.107.385.396.597.855.626.485.031.803-.109.984-.433.094-.167.101-.22.114-.868l.014-.69H18v.61c0 .335.019.675.041.755.107.385.396.597.855.626.485.031.803-.109.984-.433.094-.167.101-.22.114-.863l.014-.685.298-.027c1.183-.107 2.211-.961 2.58-2.143l.094-.3V9.46l-.094-.3a3.089 3.089 0 0 0-2.025-2.039l-.321-.101-8.42-.006c-4.631-.003-8.511.01-8.621.029M20.31 9.061c.279.083.546.35.629.629.086.288.091 4.317.006 4.6a1.02 1.02 0 0 1-.461.582l-.184.108H3.7l-.184-.108a1.02 1.02 0 0 1-.461-.582c-.085-.283-.08-4.312.006-4.6.079-.269.351-.547.612-.627.16-.049 1.357-.058 8.31-.06 7.161-.003 8.147.004 8.327.058m-2.696 1.996c-.391.123-.575.379-.605.843-.044.678.26 1.051.887 1.091.485.031.803-.109.984-.433.087-.156.1-.226.099-.558-.001-.433-.081-.645-.301-.801-.264-.189-.721-.249-1.064-.142" fill-rule="evenodd" fill="#000" stroke="none"/></svg>