<svg xmlns="http://www.w3.org/2000/svg" width="24" height="24" fill="none" stroke="currentColor" stroke-width="2" stroke-linecap="round" stroke-linejoin="round"><path d="M4.557 3.979c-.372.194-1.319 1.294-1.894 2.201-.743 1.172-1.318 2.744-1.551 4.24-.126.809-.126 2.351 0 3.16.233 1.496.808 3.068 1.551 4.24.584.92 1.559 2.047 1.917 2.216.357.168.718.075 1.055-.271.244-.25.34-.451.34-.705 0-.263-.074-.393-.468-.829-.737-.815-1.157-1.418-1.568-2.251-.645-1.308-.915-2.481-.915-3.98s.27-2.672.915-3.98c.411-.833.831-1.436 1.568-2.251.394-.436.468-.566.468-.829 0-.257-.102-.469-.344-.712-.348-.349-.717-.435-1.074-.249m14.173-.02c-.209.095-.526.406-.631.621-.097.199-.099.512-.003.694.038.073.217.296.397.495.737.815 1.157 1.419 1.567 2.251.545 1.105.813 2.1.908 3.368a8.993 8.993 0 0 1-1.439 5.532c-.293.448-.51.722-1.034 1.305-.392.436-.469.572-.472.835-.003.255.099.464.346.712.34.341.697.43 1.052.263.117-.055.327-.239.6-.525 1.518-1.596 2.512-3.651 2.867-5.93.126-.809.126-2.351 0-3.16-.354-2.27-1.343-4.322-2.852-5.914-.581-.613-.882-.74-1.306-.547M7.566 6.725c-.237.07-.432.223-.774.607-2.239 2.515-2.386 6.255-.351 8.907.337.439.753.857.956.96.351.178.717.09 1.064-.258.34-.339.436-.715.268-1.044a3.33 3.33 0 0 0-.368-.477c-1.01-1.126-1.475-2.501-1.323-3.92.12-1.13.535-2.054 1.304-2.902.345-.381.465-.604.465-.863 0-.559-.739-1.16-1.241-1.01m8.3.08c-.369.194-.675.628-.675.955 0 .248.102.435.448.82 1.01 1.126 1.474 2.5 1.324 3.92-.12 1.128-.546 2.069-1.317 2.915-.462.507-.555.818-.36 1.208.132.265.467.558.734.642.393.124.67-.015 1.188-.597a7.14 7.14 0 0 0 1.718-3.648c.028-.176.051-.635.051-1.02 0-.715-.042-1.094-.183-1.66a7.532 7.532 0 0 0-.833-1.999c-.387-.631-1.048-1.382-1.349-1.535a.874.874 0 0 0-.746-.001M11.499 9.04a3.05 3.05 0 0 0-2.385 2.12c-.135.434-.135 1.246 0 1.68a3.086 3.086 0 0 0 2.046 2.046c.434.135 1.246.135 1.68 0a3.086 3.086 0 0 0 2.046-2.046c.135-.434.135-1.246 0-1.68-.305-.981-1.076-1.753-2.025-2.031-.361-.106-1.029-.149-1.362-.089m.811 2.021c.378.112.69.537.69.94 0 .33-.216.695-.516.871-.156.091-.23.108-.484.108s-.328-.017-.484-.108c-.581-.342-.683-1.098-.212-1.569.279-.279.612-.359 1.006-.242" fill-rule="evenodd" fill="#000" stroke="none"/></svg>