<svg xmlns="http://www.w3.org/2000/svg" width="24" height="24" fill="none" stroke="currentColor" stroke-width="2" stroke-linecap="round" stroke-linejoin="round"><path d="M20.614 6.057a.814.814 0 0 0-.505.396c-.088.166-.089.184-.1 2.217-.007 1.127-.021 2.05-.032 2.05s-.348-.296-.749-.658a29.863 29.863 0 0 0-1.061-.919 10.002 10.002 0 0 0-8.013-1.965c-1.564.289-3.036.958-4.354 1.976-.497.384-1.371 1.278-1.767 1.806a10.04 10.04 0 0 0-1.992 5.114c-.052.526-.052 1.104 0 1.291.107.385.396.597.855.626.481.03.804-.11.978-.424.081-.147.099-.257.13-.779.082-1.378.328-2.345.866-3.402a7.98 7.98 0 0 1 10.99-3.376c.69.386 1.052.658 1.976 1.489l.536.481-1.857.02-1.857.02-.199.102c-.315.162-.459.438-.459.878 0 .428.144.713.442.88l.178.1 3.18.025c1.749.015 3.233.027 3.298.029.164.005.567-.184.681-.32.121-.144.262-.52.258-.686a948.43 948.43 0 0 1-.03-3.268l-.027-3.14-.089-.167a.874.874 0 0 0-.213-.254c-.264-.189-.721-.249-1.064-.142" fill-rule="evenodd" fill="#000" stroke="none"/></svg>