<svg xmlns="http://www.w3.org/2000/svg" width="24" height="24" fill="none" stroke="currentColor" stroke-width="2" stroke-linecap="round" stroke-linejoin="round"><path d="M20.614 1.057a.814.814 0 0 0-.505.396c-.088.166-.089.184-.1 2.217-.007 1.128-.022 2.05-.034 2.05-.012 0-.286-.24-.608-.533-1.131-1.027-1.631-1.412-2.427-1.87-1.152-.662-2.399-1.065-3.84-1.241-.661-.081-1.947-.062-2.568.037-2.455.393-4.632 1.609-6.166 3.444C3.24 6.905 2.499 8.446 2.18 10.104c-.158.823-.228 1.943-.139 2.261.106.384.385.588.849.623.483.036.809-.104.984-.421.079-.144.099-.258.13-.758.12-1.922.589-3.248 1.65-4.663C6.964 5.4 9.029 4.263 11.3 4.039c1.667-.164 3.678.337 5.06 1.263.444.297.779.568 1.455 1.178l.555.5-1.856.02-1.856.02-.199.102C14.144 7.284 14 7.56 14 8c0 .428.144.713.442.88l.178.1 3.18.025c1.749.015 3.233.027 3.298.029.164.005.567-.184.681-.32.121-.144.262-.52.258-.686a948.43 948.43 0 0 1-.03-3.268l-.027-3.14-.089-.167a.874.874 0 0 0-.213-.254c-.264-.189-.721-.249-1.064-.142m.035 9.982a.891.891 0 0 0-.534.411c-.071.138-.094.278-.121.75-.079 1.359-.29 2.221-.795 3.26-1.07 2.202-2.976 3.734-5.379 4.323-2.307.566-4.921-.025-6.8-1.537a26.31 26.31 0 0 1-.837-.726l-.557-.5L7.503 17c1.823-.019 1.882-.022 2.037-.106.335-.179.438-.39.438-.894 0-.433-.079-.644-.3-.801-.272-.194-.268-.194-3.732-.202L2.69 14.99l-.209.113a1.153 1.153 0 0 0-.283.209c-.106.134-.239.509-.235.66.002.07.016 1.541.03 3.268l.027 3.14.1.178c.167.298.452.442.88.442s.713-.144.88-.442l.1-.178.012-2.05c.006-1.127.021-2.05.033-2.05s.286.24.608.533c1.286 1.169 1.986 1.678 2.947 2.147.956.466 1.896.757 2.988.926.76.117 2.142.127 2.82.02 2.502-.393 4.698-1.612 6.246-3.463 1.155-1.384 1.892-2.939 2.204-4.657.109-.599.175-1.377.153-1.797-.029-.567-.187-.803-.62-.934a1.61 1.61 0 0 0-.722-.016" fill-rule="evenodd" fill="#000" stroke="none"/></svg>