<svg xmlns="http://www.w3.org/2000/svg" width="24" height="24" fill="none" stroke="currentColor" stroke-width="2" stroke-linecap="round" stroke-linejoin="round"><path d="M2.614 1.057a.814.814 0 0 0-.505.396l-.089.167-.027 3.14a948.43 948.43 0 0 1-.03 3.268c-.004.166.137.542.258.686.114.136.517.325.681.32.065-.002 1.549-.014 3.298-.029 3.15-.025 3.181-.026 3.34-.111.335-.179.438-.39.438-.894 0-.531-.125-.753-.523-.929-.085-.038-.591-.056-1.972-.071l-1.857-.02.557-.5c1.015-.912 1.5-1.261 2.277-1.64a7.995 7.995 0 0 1 7.52.234c1.397.792 2.562 2.058 3.262 3.546.469.996.67 1.847.754 3.189.031.5.051.614.13.758.175.316.501.457.979.421.79-.059.989-.49.856-1.857-.205-2.124-.965-3.943-2.327-5.574-1.533-1.833-3.712-3.051-6.166-3.444-.621-.099-1.907-.118-2.568-.037-1.441.176-2.688.579-3.84 1.241-.796.458-1.296.843-2.427 1.87-.322.293-.596.533-.608.533-.012 0-.027-.922-.033-2.05-.012-2.032-.013-2.051-.101-2.217a.874.874 0 0 0-.213-.254c-.264-.189-.721-.249-1.064-.142m0 9.998c-.24.079-.403.208-.503.398-.16.308-.139 1.285.051 2.333.311 1.715 1.048 3.273 2.204 4.657 1.548 1.852 3.743 3.069 6.246 3.463.678.107 2.06.097 2.82-.02a10.129 10.129 0 0 0 2.988-.926c.961-.469 1.661-.978 2.947-2.147.322-.293.597-.533.61-.533.013 0 .023.887.023 1.97 0 1.196.016 2.027.041 2.115.107.385.396.597.855.626.485.031.803-.109.984-.433l.1-.178.027-3.14c.014-1.727.028-3.198.03-3.268.004-.154-.13-.527-.24-.666a1.04 1.04 0 0 0-.299-.209l-.22-.108-3.241.008c-2.55.006-3.278.019-3.416.061-.397.119-.581.374-.612.842-.031.481.11.799.433.98l.178.1 1.877.02 1.877.02-.557.5c-1.033.928-1.503 1.265-2.317 1.66a8.044 8.044 0 0 1-4.42.761 7.997 7.997 0 0 1-6.279-4.481c-.505-1.039-.71-1.88-.797-3.269-.043-.696-.106-.855-.41-1.043-.154-.095-.242-.118-.5-.131-.2-.011-.374.003-.48.038" fill-rule="evenodd" fill="#000" stroke="none"/></svg>