<svg xmlns="http://www.w3.org/2000/svg" width="24" height="24" fill="none" stroke="currentColor" stroke-width="2" stroke-linecap="round" stroke-linejoin="round"><path d="M16.614 2.057a.814.814 0 0 0-.505.396c-.088.165-.089.193-.101 1.981-.009 1.478-.021 1.81-.064 1.793a89.555 89.555 0 0 1-1.468-.835 46.312 46.312 0 0 0-1.547-.869c-.173-.071-.531-.065-.678.011-.141.073-.38.331-.476.514-.128.245-.169.511-.113.733.08.315.288.468 1.872 1.378.784.45 1.426.83 1.426.843 0 .013-.652.4-1.45.859-.817.471-1.526.908-1.624.999-.37.347-.334.874.095 1.371.252.293.542.381.881.267.109-.037.849-.443 1.645-.903a67.154 67.154 0 0 1 1.47-.835c.013 0 .023.778.023 1.73 0 1.036.017 1.788.041 1.875.107.385.396.597.855.626.485.031.803-.109.984-.433l.1-.178.012-1.81c.006-.995.021-1.81.032-1.81.01 0 .679.381 1.486.847.807.465 1.549.871 1.649.901.327.099.616.006.86-.277.276-.32.395-.673.331-.984-.066-.321-.269-.472-1.86-1.387-.798-.459-1.45-.845-1.45-.858 0-.013.643-.392 1.428-.843 1.585-.909 1.815-1.08 1.881-1.403.04-.194-.011-.493-.119-.696-.097-.184-.344-.455-.478-.524-.15-.078-.506-.084-.681-.013-.072.029-.768.42-1.547.869-.779.448-1.439.824-1.468.835-.042.016-.054-.322-.064-1.793-.012-1.788-.013-1.816-.101-1.981a.874.874 0 0 0-.213-.254c-.264-.189-.721-.249-1.064-.142M4.499 14.042a3.047 3.047 0 0 0-2.385 2.118c-.092.293-.094.337-.094 1.84 0 1.503.002 1.547.094 1.84a3.086 3.086 0 0 0 2.046 2.046c.293.092.337.094 1.84.094 1.503 0 1.547-.002 1.84-.094a3.086 3.086 0 0 0 2.046-2.046c.092-.293.094-.337.094-1.84 0-1.503-.002-1.547-.094-1.84a3.077 3.077 0 0 0-2.025-2.036c-.313-.097-.357-.1-1.741-.109-.781-.005-1.511.007-1.621.027m2.835 2.022c.262.089.527.363.605.626.084.282.089 2.325.006 2.6a1.02 1.02 0 0 1-.461.582l-.184.108H4.7l-.184-.108a1.051 1.051 0 0 1-.458-.556c-.086-.245-.084-2.334.003-2.626.079-.269.351-.547.612-.627.288-.088 2.4-.088 2.661.001" fill-rule="evenodd" fill="#000" stroke="none"/></svg>