<svg xmlns="http://www.w3.org/2000/svg" width="24" height="24" fill="none" stroke="currentColor" stroke-width="2" stroke-linecap="round" stroke-linejoin="round"><path d="M6.62 6.046c-.236.121-5.466 5.361-5.581 5.591a.807.807 0 0 0 0 .726c.125.25 5.348 5.473 5.598 5.598.353.176.718.086 1.064-.26.347-.347.436-.711.259-1.064-.061-.123-.771-.861-2.313-2.407L3.422 12l2.225-2.23C7.189 8.224 7.899 7.486 7.96 7.363c.177-.353.088-.717-.259-1.064-.34-.34-.733-.432-1.081-.253m5 0c-.097.05-1.142 1.061-2.66 2.572-1.375 1.37-2.561 2.532-2.636 2.583-.175.12-.373.543-.373.799 0 .239.199.682.353.784.062.042 1.248 1.204 2.635 2.582 1.748 1.737 2.575 2.533 2.698 2.594.353.177.717.088 1.064-.259.347-.347.436-.712.259-1.064-.06-.12-.64-.73-1.814-1.908L9.42 12.998l4.56.011 4.56.011.321.101a3.08 3.08 0 0 1 2.015 2.018c.094.308.099.379.121 1.781l.023 1.46.1.178c.167.298.452.442.88.442s.713-.144.88-.442l.1-.178v-1.5c0-1.628-.017-1.803-.247-2.48a5.065 5.065 0 0 0-3.493-3.238c-.59-.151-.957-.162-5.447-.162H9.422l1.725-1.73c1.174-1.178 1.753-1.787 1.813-1.907.177-.352.088-.717-.259-1.064-.34-.34-.734-.432-1.081-.253" fill-rule="evenodd" fill="#000" stroke="none"/></svg>