<svg xmlns="http://www.w3.org/2000/svg" width="24" height="24" fill="none" stroke="currentColor" stroke-width="2" stroke-linecap="round" stroke-linejoin="round"><path d="M10.62 4.07c-.258.147-9.199 7.093-9.367 7.277-.19.208-.293.458-.293.708 0 .417-.177.264 4.82 4.156 2.508 1.954 4.637 3.598 4.732 3.655.117.071.25.11.42.123.443.035.77-.113.948-.431l.1-.178.011-3.515.011-3.514.118.162c.075.104 1.765 1.444 4.699 3.726 2.52 1.96 4.645 3.602 4.723 3.647.084.05.24.091.389.103.444.035.771-.113.949-.431l.1-.178.011-7.254c.007-4.93-.003-7.303-.032-7.408a1.15 1.15 0 0 0-.171-.325c-.325-.425-.752-.546-1.155-.326-.254.139-9.197 7.08-9.379 7.279a1.464 1.464 0 0 0-.189.266c-.058.118-.063-.151-.064-3.312-.001-2.244-.016-3.492-.043-3.589-.054-.195-.258-.459-.47-.608-.135-.095-.22-.122-.419-.133-.214-.011-.277.003-.449.1M10 12.019v4.939l-3.178-2.469C5.073 13.131 3.644 12.011 3.644 12c.001-.027 6.288-4.914 6.326-4.917.016-.002.03 2.22.03 4.936m11 0v4.939l-3.178-2.469c-1.749-1.358-3.178-2.478-3.178-2.489.001-.027 6.288-4.914 6.326-4.917.017-.002.03 2.22.03 4.936" fill="#000" fill-rule="evenodd" stroke="none"/></svg>