<svg xmlns="http://www.w3.org/2000/svg" width="24" height="24" fill="none" stroke="currentColor" stroke-width="2" stroke-linecap="round" stroke-linejoin="round"><path d="M3.133 1.074c-.423.146-.65.43-.652.815-.001.131.456 1.791 1.48 5.38a738.904 738.904 0 0 0 1.582 5.497c.069.209.145.351.241.45.242.249.344.274 1.228.295.435.01.786.034.78.053-.056.161-2.702 5.073-2.734 5.075-.069.002-.846-.634-1.332-1.09-.25-.234-.53-.463-.623-.508a.852.852 0 0 0-.733.008c-.259.13-.552.467-.636.733-.065.207-.065.229.003.448.063.205.121.279.537.69 3.022 2.986 7.457 4.421 11.742 3.798 2.894-.421 5.681-1.793 7.71-3.798.416-.411.474-.485.537-.69.069-.221.069-.239 0-.458-.055-.174-.124-.279-.297-.451-.27-.268-.453-.361-.709-.361-.285 0-.478.115-.983.589-.25.235-.642.576-.873.759l-.419.333-.076-.148a634.516 634.516 0 0 1-2.306-4.95c0-.008.382-.022.85-.031.939-.019 1.054-.044 1.301-.283.232-.225.314-.716.189-1.137a.823.823 0 0 0-.537-.531c-.111-.03-1.555-.049-4.553-.059a919.883 919.883 0 0 0-4.55-.009 54.81 54.81 0 0 1-1.1.007h-.94L5.837 6.54A773.659 773.659 0 0 0 4.381 1.5a.912.912 0 0 0-.382-.42C3.8.978 3.418.976 3.133 1.074M15.808 16.6l1.429 3.06-.288.134a12.005 12.005 0 0 1-9.882.01l-.274-.124.078-.13c.043-.071.785-1.458 1.649-3.08l1.57-2.951 2.144.011 2.144.01 1.43 3.06" fill-rule="evenodd" fill="#000" stroke="none"/></svg>