<svg xmlns="http://www.w3.org/2000/svg" width="24" height="24" fill="none" stroke="currentColor" stroke-width="2" stroke-linecap="round" stroke-linejoin="round"><path d="M21.22 1.025c-1.506.105-2.494.291-3.708.698a14.441 14.441 0 0 0-3.492 1.75c-1.02.709-2.26 1.866-2.941 2.744-.186.24-.375.48-.419.533l-.081.095-.399-.081A9.926 9.926 0 0 0 8 6.545c-.657 0-.846.015-1.2.09-.794.171-1.298.429-1.828.937-.366.352-.745.888-1.029 1.46-.503 1.008-.973 2.581-.932 3.115.033.42.256.71.624.812.09.025 1.061.041 2.545.041h2.4l1.21 1.21L11 15.42v2.4c0 1.484.016 2.455.041 2.545.1.361.388.587.795.624.316.029.884-.097 1.786-.393 1.55-.51 2.642-1.206 3.197-2.036.692-1.035.839-2.586.439-4.639-.053-.274-.084-.51-.067-.525.016-.014.263-.213.548-.441a15.53 15.53 0 0 0 2.595-2.67c1.671-2.253 2.636-5.136 2.644-7.908l.002-.763-.12-.195a.76.76 0 0 0-.319-.297c-.177-.091-.249-.103-.66-.107-.254-.002-.551.002-.661.01m-.26 2.026-.061.51c-.333 2.707-1.48 5.032-3.424 6.947-1.074 1.058-2.172 1.826-3.755 2.63-.628.319-1.383.662-1.455.662-.025 0-.502-.457-1.06-1.015-.903-.903-1.011-1.025-.985-1.11.047-.151.577-1.257.814-1.695 1.219-2.258 2.394-3.649 4.069-4.823a11.844 11.844 0 0 1 4.877-1.993c.264-.044.561-.087.66-.095l.25-.022c.038-.004.07-.002.07.004M9.09 8.603c.193.026.35.064.35.083 0 .02-.095.211-.211.425a30.78 30.78 0 0 0-.823 1.699l-.082.19H6.822c-.901 0-1.502-.015-1.502-.037 0-.083.256-.725.423-1.063.446-.899.814-1.193 1.697-1.356.17-.031 1.281.008 1.65.059m6.315 6.367c.081.624.072 1.584-.019 1.941-.139.541-.45.893-1.123 1.269-.247.138-.953.433-1.153.482l-.111.027.011-1.511.01-1.51.33-.138a25.61 25.61 0 0 0 1.14-.549c.445-.226.821-.413.836-.416.014-.003.049.18.079.405m-10.165.09c-1.328.266-2.32 1.378-3.02 3.384-.406 1.165-.783 2.897-.717 3.296.07.425.313.645.814.739.395.074 2.039-.281 3.239-.699 2.341-.817 3.447-2.003 3.448-3.7 0-.563-.09-.955-.333-1.44-.136-.271-.244-.413-.531-.7-.492-.492-.953-.751-1.573-.882-.327-.069-.977-.069-1.327.002m1.14 2.035c.221.103.374.242.51.461.077.123.09.2.09.524 0 .341-.011.399-.108.564-.187.317-.545.609-1.072.873-.439.219-1.492.597-1.859.665l-.152.029.029-.156c.065-.352.438-1.387.661-1.837.323-.652.7-1.066 1.072-1.178.23-.07.619-.044.829.055" fill-rule="evenodd" fill="#000" stroke="none"/></svg>