<svg xmlns="http://www.w3.org/2000/svg" width="24" height="24" fill="none" stroke="currentColor" stroke-width="2" stroke-linecap="round" stroke-linejoin="round"><path d="M20.614 1.057a.814.814 0 0 0-.505.396c-.088.166-.089.184-.1 2.217-.007 1.128-.022 2.05-.034 2.05-.012 0-.286-.239-.608-.531-1.067-.965-1.469-1.284-2.1-1.665-3.003-1.814-6.725-1.944-9.814-.344a10.046 10.046 0 0 0-5.255 7.191 9.634 9.634 0 0 0 .163 4.109 9.614 9.614 0 0 0 1.352 3.086c.397.6.718.989 1.285 1.555 1.618 1.614 3.685 2.606 6.001 2.879.5.059 1.628.049 2.219-.02 4.187-.49 7.642-3.599 8.578-7.72.111-.486.204-1.096.204-1.334 0-.544-.319-.855-.935-.913-.352-.033-.597.039-.79.232-.175.175-.21.281-.315.955a8.979 8.979 0 0 1-.541 1.95c-1.083 2.535-3.291 4.287-6.039 4.792-.558.102-1.81.123-2.38.04-2.358-.343-4.327-1.583-5.626-3.542-.746-1.124-1.173-2.375-1.29-3.775-.041-.493.008-1.528.095-2.005a8.017 8.017 0 0 1 3.756-5.457c2.299-1.388 5.236-1.513 7.632-.324.821.408 1.309.756 2.269 1.619l.536.482-1.857.02-1.857.02-.199.102C14.144 7.284 14 7.56 14 8c0 .428.144.713.442.88l.178.1 3.18.025c1.749.015 3.233.027 3.298.029.164.005.567-.184.681-.32.121-.144.262-.52.258-.686a948.43 948.43 0 0 1-.03-3.268l-.027-3.14-.089-.167a.874.874 0 0 0-.213-.254c-.264-.189-.721-.249-1.064-.142" fill-rule="evenodd" fill="#000" stroke="none"/></svg>