<svg xmlns="http://www.w3.org/2000/svg" width="24" height="24" fill="none" stroke="currentColor" stroke-width="2" stroke-linecap="round" stroke-linejoin="round"><path d="M2.614 1.057a.814.814 0 0 0-.505.396l-.089.167-.027 3.14a948.43 948.43 0 0 1-.03 3.268c-.004.166.137.542.258.686.114.136.517.325.681.32.065-.002 1.549-.014 3.298-.029 3.15-.025 3.181-.026 3.34-.111.335-.179.438-.39.438-.894 0-.531-.125-.753-.523-.929-.085-.038-.591-.056-1.971-.071l-1.856-.02.536-.482c.96-.863 1.448-1.211 2.269-1.619 2.395-1.189 5.334-1.064 7.632.324a8.024 8.024 0 0 1 3.833 5.997c.05.452.03 1.535-.037 1.98-.346 2.298-1.572 4.239-3.501 5.542-.926.625-2.131 1.08-3.325 1.256-.49.072-1.496.082-1.996.02-2.896-.358-5.315-2.174-6.458-4.848a8.979 8.979 0 0 1-.541-1.95 8.554 8.554 0 0 0-.122-.653c-.06-.212-.301-.441-.532-.505-.252-.071-.656-.031-.924.092-.485.222-.563.662-.324 1.84.423 2.089 1.41 3.869 2.964 5.349a10.028 10.028 0 0 0 5.68 2.657c.875.102 1.991.077 2.818-.064 1.22-.208 2.701-.776 3.7-1.42.871-.562 1.844-1.431 2.457-2.196a9.924 9.924 0 0 0 1.629-2.96c.884-2.588.722-5.245-.467-7.68a10.03 10.03 0 0 0-4.547-4.574c-2.704-1.354-6.095-1.355-8.826-.001-1.084.537-1.563.883-2.913 2.104-.322.292-.596.531-.608.531-.012 0-.027-.922-.033-2.05-.012-2.032-.013-2.051-.101-2.217a.874.874 0 0 0-.213-.254c-.264-.189-.721-.249-1.064-.142" fill-rule="evenodd" fill="#000" stroke="none"/></svg>