<svg xmlns="http://www.w3.org/2000/svg" width="24" height="24" fill="none" stroke="currentColor" stroke-width="2" stroke-linecap="round" stroke-linejoin="round"><path d="M3.614 3.057c-.391.123-.575.379-.605.843-.045.698.263 1.059.928 1.088 2.116.092 3.225.27 4.709.755a15.018 15.018 0 0 1 10.07 11.361c.154.777.283 2.045.284 2.796 0 .176.019.385.041.465.107.385.396.597.855.626.485.031.804-.11.982-.431.083-.15.1-.245.115-.622.045-1.18-.227-3.146-.627-4.538-.839-2.92-2.296-5.38-4.431-7.487-1.39-1.37-2.682-2.289-4.435-3.155-2.102-1.037-4.082-1.562-6.479-1.717-.822-.053-1.2-.048-1.407.016m0 7c-.391.123-.575.379-.605.843-.031.479.11.801.428.976.152.084.253.101.779.13 1.355.075 2.34.325 3.398.864 2.298 1.17 3.897 3.369 4.282 5.89.036.231.08.692.098 1.024.029.526.046.627.13.779.162.293.45.437.876.437.428 0 .713-.144.88-.442.096-.17.1-.206.097-.838-.008-2.059-.76-4.149-2.13-5.92-.337-.435-1.208-1.306-1.647-1.646-1.584-1.226-3.392-1.941-5.34-2.111-.626-.055-1.04-.05-1.246.014m.863 7.016c-.671.176-1.239.75-1.417 1.435a2.07 2.07 0 0 0 .165 1.422c.136.269.576.709.845.845a2.047 2.047 0 0 0 1.86 0c.266-.135.708-.575.841-.838a2.05 2.05 0 0 0 .169-1.408 1.806 1.806 0 0 0-.475-.876A1.972 1.972 0 0 0 5 17.005c-.143 0-.378.031-.523.068" fill-rule="evenodd" fill="#000" stroke="none"/></svg>