<svg xmlns="http://www.w3.org/2000/svg" width="24" height="24" fill="none" stroke="currentColor" stroke-width="2" stroke-linecap="round" stroke-linejoin="round"><path d="M15.62 1.046c-.239.122-14.465 14.359-14.581 14.591a.807.807 0 0 0 0 .726c.125.25 6.348 6.473 6.598 6.598a.807.807 0 0 0 .726 0c.252-.126 14.472-14.346 14.598-14.598a.807.807 0 0 0 0-.726c-.121-.243-6.347-6.473-6.589-6.593a.894.894 0 0 0-.752.002M18.3 5.72 20.58 8l-6.29 6.29L8 20.58l-2.29-2.29-2.289-2.289.538-.54.538-.539.761.752c.84.829.971.916 1.326.876.255-.029.592-.267.796-.564.144-.211.16-.258.16-.481 0-.343-.109-.498-.939-1.325l-.681-.679.788-.789.789-.789.761.752c.84.828.971.915 1.326.875.255-.029.592-.267.796-.564.144-.211.16-.258.16-.481 0-.343-.109-.498-.939-1.325l-.681-.679.788-.789.789-.789.761.752c.84.828.971.915 1.326.875.255-.029.592-.267.796-.564.144-.211.16-.258.16-.481 0-.343-.109-.498-.939-1.325l-.681-.679.788-.789.789-.789.761.752c.84.828.971.915 1.326.875.411-.047.927-.572.966-.985.033-.336-.073-.494-.896-1.326l-.732-.741.529-.529c.291-.291.538-.529.549-.529.011 0 1.046 1.026 2.3 2.28" fill-rule="evenodd" fill="#000" stroke="none"/></svg>