<svg xmlns="http://www.w3.org/2000/svg" width="24" height="24" fill="none" stroke="currentColor" stroke-width="2" stroke-linecap="round" stroke-linejoin="round"><path d="M8.64 2.036c-.315.1-.482.256-.576.535-.057.17-.064.599-.064 3.81V10H6.906c-1.162 0-1.336.022-1.584.199-.222.158-.302.369-.302.801 0 .331.013.403.1.558.11.197.294.34.515.401.081.023.635.041 1.255.041H8v2H6.906c-1.162 0-1.336.022-1.584.199-.222.158-.302.369-.302.801 0 .331.013.403.1.558.11.197.294.34.515.401.081.023.635.041 1.255.041H8v2.61c0 1.625.016 2.665.041 2.755.107.385.396.597.855.626.485.031.803-.109.984-.433l.1-.178.011-2.69.012-2.69h2.108c1.29 0 2.165-.016 2.254-.041a.842.842 0 0 0 .515-.401c.087-.156.1-.226.099-.558-.001-.433-.081-.645-.301-.801-.27-.193-.352-.199-2.584-.199H10v-2h2.197c1.333 0 2.32-.017 2.51-.043 1.974-.269 3.422-1.455 4.025-3.297.195-.596.247-.948.247-1.66 0-.48-.019-.753-.071-1-.341-1.624-1.202-2.787-2.568-3.469-.398-.199-.698-.302-1.205-.416-.386-.086-.465-.089-3.395-.1-1.65-.006-3.045.003-3.1.021m6.24 2.058c.473.125.901.369 1.237.704.465.465.709.934.821 1.579.247 1.415-.348 2.745-1.475 3.301-.606.299-.566.295-3.153.312l-2.31.014V3.995l2.31.016c2.02.013 2.343.023 2.57.083" fill-rule="evenodd" fill="#000" stroke="none"/></svg>