<svg xmlns="http://www.w3.org/2000/svg" width="24" height="24" fill="none" stroke="currentColor" stroke-width="2" stroke-linecap="round" stroke-linejoin="round"><path d="M4.499 2.043C3.383 2.23 2.461 3.048 2.114 4.16l-.094.3v15.08l.094.3a3.086 3.086 0 0 0 2.046 2.046l.3.094h15.08l.3-.094a3.086 3.086 0 0 0 2.046-2.046l.094-.3V7.7l-.107-.18c-.061-.102-1.243-1.313-2.72-2.786-2.526-2.52-2.62-2.609-2.83-2.67-.195-.057-.817-.064-5.92-.059-3.137.002-5.794.02-5.904.038m1.51 4.147.011 2.19.1.178c.11.197.294.34.515.401.198.055 8.532.055 8.73 0a.842.842 0 0 0 .515-.401c.087-.156.1-.226.099-.558-.001-.433-.081-.645-.301-.801-.282-.201-.239-.199-4.084-.199H8V4h7.58l2.21 2.21L20 8.42v5.344c0 4.412-.01 5.375-.055 5.526a1.02 1.02 0 0 1-.461.582c-.176.103-.212.109-.833.121l-.649.014-.011-3.694-.011-3.693-.089-.167c-.106-.197-.269-.322-.52-.398-.273-.082-10.469-.082-10.742 0-.251.076-.414.201-.52.398l-.089.167-.011 3.693-.011 3.694-.649-.014c-.621-.012-.657-.018-.833-.121a1.199 1.199 0 0 1-.291-.249c-.239-.314-.225.172-.225-7.601 0-8.017-.025-7.391.304-7.719.25-.25.424-.297 1.125-.3L5.997 4l.012 2.19M16 17v3H8v-6h8v3" fill-rule="evenodd" fill="#000" stroke="none"/></svg>