<svg xmlns="http://www.w3.org/2000/svg" width="24" height="24" fill="none" stroke="currentColor" stroke-width="2" stroke-linecap="round" stroke-linejoin="round"><path d="M11.614 2.057a.814.814 0 0 0-.505.396c-.082.154-.091.235-.109 1.047l-.02.88-.493.211C9.134 5.17 7.55 5.657 6.28 5.883c-.439.079-.69.092-2.061.113l-1.561.024-.199.102c-.34.175-.481.484-.45.982.029.459.241.748.626.855.08.022.403.041.719.041.443 0 .57.011.556.05l-1.452 3.87C.922 16.017.921 16.021 1.056 16.374c.08.212.227.354.664.646a6.164 6.164 0 0 0 2.092.868c.591.127 1.785.127 2.376 0a6.137 6.137 0 0 0 2.092-.869c.629-.419.743-.586.708-1.037-.019-.246-.206-.772-1.481-4.161L6.049 7.943l.545-.091c1.22-.205 3.021-.733 4.336-1.272.067-.027.07.307.07 6.696V20H8.906c-2.232 0-2.314.006-2.584.199-.222.158-.302.369-.302.801 0 .331.013.403.1.558.11.197.294.34.515.401.199.056 10.531.056 10.73 0a.842.842 0 0 0 .515-.401c.087-.156.1-.226.099-.558-.001-.433-.081-.645-.301-.801-.27-.193-.352-.199-2.584-.199H13v-6.724c0-6.389.003-6.723.07-6.696 1.315.539 3.116 1.067 4.335 1.272l.546.091-1.463 3.898c-1.568 4.181-1.567 4.179-1.432 4.533.08.212.227.354.664.646a6.164 6.164 0 0 0 2.092.868c.591.127 1.785.127 2.376 0a6.137 6.137 0 0 0 2.092-.869c.617-.412.739-.585.712-1.016-.014-.228-.209-.776-1.45-4.083L20.09 8.05c-.014-.039.113-.05.556-.05.316 0 .639-.019.719-.041a.842.842 0 0 0 .515-.401c.087-.156.1-.226.099-.558-.002-.531-.13-.759-.524-.927-.081-.035-.576-.057-1.675-.075-1.453-.023-1.6-.032-2.14-.131-1.309-.239-3.104-.805-4.368-1.379l-.265-.12-.014-.874c-.013-.811-.02-.886-.102-1.041a.874.874 0 0 0-.213-.254c-.264-.189-.721-.249-1.064-.142M5.895 13.24c.478 1.276.86 2.336.847 2.356-.041.067-.703.284-1.05.344a4.3 4.3 0 0 1-1.272.019c-.303-.043-1.011-.254-1.122-.335-.062-.046.006-.248.804-2.377.48-1.28.884-2.327.898-2.327.014 0 .417 1.044.895 2.32m14 0c.478 1.276.86 2.336.847 2.356-.041.067-.703.284-1.05.344a4.3 4.3 0 0 1-1.272.019c-.303-.043-1.011-.254-1.122-.335-.062-.046.006-.248.804-2.377.48-1.28.884-2.327.898-2.327.014 0 .417 1.044.895 2.32" fill-rule="evenodd" fill="#000" stroke="none"/></svg>