<svg xmlns="http://www.w3.org/2000/svg" width="24" height="24" fill="none" stroke="currentColor" stroke-width="2" stroke-linecap="round" stroke-linejoin="round"><path d="M4.499 2.043c-1.107.186-2.02.99-2.383 2.097-.087.265-.092.352-.107 1.664-.01.911-.001 1.439.028 1.544.107.4.393.613.859.643.485.031.803-.109.984-.433.1-.177.1-.182.121-1.498.023-1.483.024-1.489.32-1.777C4.593 4.02 4.714 4 6.057 4c.656 0 1.226-.018 1.308-.041a.842.842 0 0 0 .515-.401c.087-.156.1-.226.099-.558-.001-.433-.081-.645-.301-.801-.255-.182-.409-.199-1.734-.194-.684.002-1.335.02-1.445.038m12.115.013c-.238.077-.403.206-.505.397-.074.139-.089.231-.089.547 0 .331.013.403.1.558.11.197.294.34.515.401.082.023.652.041 1.308.041 1.365 0 1.469.018 1.754.303.285.285.303.389.303 1.754 0 .656.018 1.226.041 1.308.107.385.396.597.855.626.485.031.803-.109.984-.433l.1-.178V5.92c0-1.419-.003-1.468-.094-1.76a3.077 3.077 0 0 0-2.025-2.036c-.311-.096-.363-.1-1.701-.111-1.07-.008-1.417.001-1.546.043m-14 14.001a.814.814 0 0 0-.505.396c-.087.164-.089.194-.089 1.627 0 1.419.003 1.468.094 1.76a3.108 3.108 0 0 0 2.026 2.044c.265.087.352.092 1.664.107.911.01 1.439.001 1.544-.028a.842.842 0 0 0 .532-.405c.087-.156.1-.226.099-.558-.002-.531-.129-.757-.524-.928-.08-.035-.513-.056-1.435-.071L4.7 19.98l-.184-.108a1.136 1.136 0 0 1-.445-.499c-.034-.078-.056-.519-.07-1.433-.02-1.268-.025-1.327-.11-1.487a.874.874 0 0 0-.213-.254c-.264-.189-.721-.249-1.064-.142m18 0a.814.814 0 0 0-.505.396c-.085.16-.09.22-.11 1.487-.015.907-.037 1.355-.07 1.433a1.136 1.136 0 0 1-.445.499l-.184.108-1.321.02c-1.321.02-1.322.02-1.52.122-.34.175-.481.484-.45.982.03.466.243.752.643.859.105.029.633.038 1.544.028 1.312-.015 1.399-.02 1.664-.107a3.108 3.108 0 0 0 2.026-2.044c.091-.292.094-.341.094-1.76 0-1.433-.002-1.463-.089-1.627a.874.874 0 0 0-.213-.254c-.264-.189-.721-.249-1.064-.142" fill-rule="evenodd" fill="#000" stroke="none"/></svg>