<svg xmlns="http://www.w3.org/2000/svg" width="24" height="24" fill="none" stroke="currentColor" stroke-width="2" stroke-linecap="round" stroke-linejoin="round"><path d="M5.358 2.061c-1.128.176-2.215.913-2.789 1.892a3.992 3.992 0 0 0 1.943 5.751 3.965 3.965 0 0 0 2.982-.003c.19-.076.387-.166.437-.199.089-.058.122-.029 1.37 1.219L10.58 12l-1.277 1.277-1.277 1.277-.263-.131A4.21 4.21 0 0 0 6 14c-1.365 0-2.747.787-3.431 1.953a3.992 3.992 0 0 0 1.943 5.751 3.988 3.988 0 0 0 5.192-2.216 3.95 3.95 0 0 0 .217-2.245c-.078-.379-.302-1.005-.422-1.177-.057-.082.155-.299 5.657-5.805 4.112-4.115 5.741-5.771 5.805-5.898.176-.353.086-.718-.26-1.064-.34-.34-.721-.431-1.073-.255-.114.057-1.365 1.28-3.898 3.81L12 10.579l-1.279-1.278C9.473 8.053 9.444 8.02 9.502 7.931c.125-.191.342-.799.419-1.174a3.941 3.941 0 0 0-.216-2.241 3.978 3.978 0 0 0-3.1-2.458 3.728 3.728 0 0 0-1.247.003m1.165 2.012a2.011 2.011 0 0 1 1.27 2.807c-.155.318-.566.745-.863.895a2.07 2.07 0 0 1-1.422.165c-.685-.178-1.259-.746-1.435-1.417a2.001 2.001 0 0 1 2.45-2.45m7.562 9.458c-.257.131-.548.468-.631.731-.065.207-.065.23.002.448.07.226.127.286 3.038 3.196 2.097 2.097 3.018 2.992 3.143 3.055.353.176.718.086 1.064-.26.346-.346.435-.711.26-1.064-.131-.263-5.872-5.993-6.124-6.111a.859.859 0 0 0-.752.005m-7.562 2.542a2.011 2.011 0 0 1 1.444 1.617c.1.653-.094 1.243-.564 1.714C7.002 19.807 6.547 20 6 20c-.515 0-.962-.178-1.347-.535-1.33-1.236-.464-3.46 1.347-3.46.143 0 .378.031.523.068" fill="#000" fill-rule="evenodd" stroke="none"/></svg>