<svg xmlns="http://www.w3.org/2000/svg" width="24" height="24" fill="none" stroke="currentColor" stroke-width="2" stroke-linecap="round" stroke-linejoin="round"><path d="M16.626 2.045c-.369.194-.675.628-.675.955 0 .323.117.478 1.152 1.52l.974.98-.974.98C16.068 7.522 15.951 7.677 15.951 8c0 .477.572 1.049 1.049 1.049.323 0 .478-.117 1.52-1.152l.98-.974.98.974c1.042 1.035 1.197 1.152 1.52 1.152.477 0 1.049-.572 1.049-1.049 0-.323-.117-.478-1.152-1.52l-.974-.98.974-.98c.621-.625 1.006-1.044 1.063-1.157.177-.352.088-.717-.259-1.064-.341-.341-.722-.431-1.073-.254-.101.051-.556.47-1.148 1.058l-.98.974-.98-.974c-.593-.589-1.046-1.007-1.148-1.058a.877.877 0 0 0-.746 0M3.499 2.043C2.383 2.23 1.461 3.048 1.114 4.16l-.094.3v11.08l.094.3c.304.976 1.035 1.714 2.026 2.046l.28.094 3.79.011 3.79.012V20H9.406c-1.696 0-1.822.012-2.084.199-.222.158-.302.369-.302.801 0 .331.013.403.1.558.11.197.294.34.515.401.198.055 8.532.055 8.73 0a.842.842 0 0 0 .515-.401c.087-.156.1-.226.099-.558-.001-.433-.081-.645-.301-.801-.262-.187-.388-.199-2.084-.199H13V18.003l3.79-.012 3.79-.011.28-.094c.991-.332 1.722-1.07 2.026-2.046.093-.297.094-.317.094-2.26v-1.96l-.091-.17c-.165-.31-.56-.48-1.015-.439-.435.04-.733.263-.833.624-.024.086-.041.818-.041 1.809 0 1.806-.009 1.896-.221 2.174-.061.08-.194.195-.295.254l-.184.108H3.7l-.184-.108a1.199 1.199 0 0 1-.291-.249C2.988 15.312 3 15.608 3 10.022c0-5.782-.02-5.395.303-5.719C3.625 3.981 3.295 4 8.557 4c3 0 4.715-.015 4.808-.041a.842.842 0 0 0 .515-.401c.087-.156.1-.226.099-.558-.001-.433-.081-.645-.301-.801-.287-.204-.148-.199-5.234-.194-2.609.002-4.835.02-4.945.038" fill-rule="evenodd" fill="#000" stroke="none"/></svg>