<svg xmlns="http://www.w3.org/2000/svg" width="24" height="24" fill="none" stroke="currentColor" stroke-width="2" stroke-linecap="round" stroke-linejoin="round"><path d="M21.58 1.063c-.11.054-4.67 1.662-10.133 3.573-7.82 2.735-9.963 3.499-10.08 3.593-.181.146-.362.499-.394.768a.777.777 0 0 0 .274.7c.117.1 1.368.674 4.547 2.085 2.412 1.071 4.406 1.968 4.431 1.993.025.025.904 1.98 1.953 4.345 1.05 2.365 1.953 4.368 2.007 4.452.206.317.762.528 1.129.43a.927.927 0 0 0 .527-.444c.042-.082 1.642-4.623 3.556-10.092 1.914-5.469 3.519-10.019 3.566-10.112.166-.326.074-.727-.253-1.099-.267-.305-.737-.385-1.13-.192m-7.103 7.04-3.703 3.703-3.006-1.333C6.115 9.74 4.762 9.13 4.761 9.117 4.76 9.099 18.077 4.413 18.16 4.403c.011-.002-1.646 1.663-3.683 3.7m4.948-1.773-2.346 6.701c-1.195 3.416-2.187 6.197-2.204 6.18-.017-.017-.626-1.371-1.354-3.009l-1.324-2.979 3.691-3.691c2.031-2.031 3.696-3.692 3.701-3.692.005 0-.069.22-.164.49" fill="#000" fill-rule="evenodd" stroke="none"/></svg>