<svg xmlns="http://www.w3.org/2000/svg" width="24" height="24" fill="none" stroke="currentColor" stroke-width="2" stroke-linecap="round" stroke-linejoin="round"><path d="M11.614 2.057a.814.814 0 0 0-.505.396l-.089.167-.01 9.294c-.007 6.142.003 9.346.03 9.444.104.389.395.604.856.633.485.031.803-.109.984-.433l.1-.178V2.62l-.089-.167a.874.874 0 0 0-.213-.254c-.264-.189-.721-.249-1.064-.142M7.62 7.046c-.235.121-4.466 4.362-4.581 4.591a.807.807 0 0 0 0 .726c.125.249 4.349 4.473 4.598 4.598.353.176.718.087 1.064-.26.347-.347.436-.712.259-1.064-.06-.12-.639-.729-1.813-1.907L5.422 12l1.725-1.73C8.321 9.092 8.9 8.483 8.96 8.363c.177-.352.088-.717-.259-1.064-.34-.34-.733-.432-1.081-.253m8.006-.001c-.206.109-.48.388-.588.599a.792.792 0 0 0 .002.719c.06.12.639.729 1.813 1.907L18.578 12l-1.725 1.73c-1.174 1.178-1.753 1.787-1.813 1.907-.177.352-.088.717.259 1.064.346.347.711.436 1.064.26.249-.125 4.473-4.349 4.598-4.598a.896.896 0 0 0 .088-.363.896.896 0 0 0-.088-.363c-.121-.241-4.349-4.473-4.589-4.593a.884.884 0 0 0-.746.001" fill="#000" fill-rule="evenodd" stroke="none"/></svg>