<svg xmlns="http://www.w3.org/2000/svg" width="24" height="24" fill="none" stroke="currentColor" stroke-width="2" stroke-linecap="round" stroke-linejoin="round"><path d="M11.62 3.046c-.235.121-4.466 4.362-4.581 4.591-.176.353-.087.718.26 1.064.347.347.712.436 1.064.259.12-.06.729-.639 1.907-1.813L12 5.422l1.73 1.725c1.178 1.174 1.787 1.753 1.907 1.813.352.177.717.088 1.064-.259.347-.346.436-.711.26-1.064-.121-.241-4.349-4.473-4.589-4.593a.894.894 0 0 0-.752.002m-9.006 8.011a.814.814 0 0 0-.505.396c-.074.139-.089.231-.089.547 0 .331.013.403.1.558.11.197.294.34.515.401.2.056 18.53.056 18.73 0a.842.842 0 0 0 .515-.401c.087-.156.1-.226.099-.558-.001-.433-.081-.645-.301-.801-.293-.209.199-.199-9.694-.196-7.438.002-9.236.012-9.37.054m5.012 3.988c-.206.109-.48.388-.588.599a.795.795 0 0 0 .001.719c.125.249 4.349 4.473 4.598 4.598a.807.807 0 0 0 .726 0c.249-.125 4.473-4.349 4.598-4.598.176-.353.087-.718-.26-1.064-.34-.34-.721-.431-1.073-.255-.109.055-.775.69-1.898 1.809L12 18.578l-1.73-1.725c-1.123-1.119-1.789-1.754-1.898-1.809a.884.884 0 0 0-.746.001" fill="#000" fill-rule="evenodd" stroke="none"/></svg>