<svg xmlns="http://www.w3.org/2000/svg" width="24" height="24" fill="none" stroke="currentColor" stroke-width="2" stroke-linecap="round" stroke-linejoin="round"><path d="M1.626 1.045c-.206.109-.48.388-.588.599-.103.202-.114.489-.027.66.052.099.055.197.023.632-.021.283-.032 1.668-.025 3.079.013 2.563.013 2.565.106 2.845a3.14 3.14 0 0 0 2.025 2.026l.28.093 3.08.012 3.08.011.99.989.991.989L7.51 13l-4.05.021-.321.101a3.086 3.086 0 0 0-2.025 2.038l-.094.3v5.08l.094.3c.304.976 1.035 1.714 2.026 2.046l.28.094 8.635.011 8.635.01.313-.135c.293-.127.318-.131.375-.068.034.037.144.109.245.159.361.181.76.088 1.091-.253.337-.347.423-.722.246-1.075-.123-.246-20.343-20.463-20.588-20.585a.884.884 0 0 0-.746.001m4.988.012c-.237.075-.402.204-.505.396-.074.139-.089.231-.089.547 0 .331.013.403.1.558.11.197.294.34.515.401.095.027 2.468.041 6.808.041 7.496 0 6.927-.024 7.254.303.305.306.303.286.303 2.698 0 2.286-.004 2.332-.221 2.617-.061.08-.194.195-.295.254l-.184.108-2.821.02-2.821.02-.199.102c-.34.175-.481.484-.45.982.03.464.244.752.638.858.102.027 1.129.037 3.044.029l2.889-.012.28-.094c.989-.329 1.722-1.069 2.026-2.045l.094-.3V3.46l-.094-.3a3.089 3.089 0 0 0-2.025-2.039l-.321-.101-6.88-.008c-5.581-.006-6.911.002-7.046.045m.516 7.935c-.236.006-1.105.006-1.93 0L3.7 8.98l-.184-.108a1.199 1.199 0 0 1-.291-.249C3.002 8.331 3 8.309 3 6.285V4.42L5.28 6.7l2.281 2.28-.431.012m11.484 4.063c-.239.078-.403.207-.505.398-.074.139-.089.231-.089.547 0 .331.013.403.1.558.11.197.294.34.515.401.08.022.452.041.828.041.812 0 .97.039 1.237.306.257.257.3.438.3 1.251 0 .365.019.728.041.808.107.385.396.597.855.626.485.031.803-.109.984-.433.099-.176.1-.188.1-1.138 0-.895-.006-.98-.094-1.26a3.073 3.073 0 0 0-2.025-2.035c-.29-.088-.406-.098-1.201-.111-.663-.01-.921 0-1.046.041M16.58 18l3 3.001-7.94-.011-7.94-.01-.184-.108a1.199 1.199 0 0 1-.291-.249C3 20.327 3 20.332 3 18.022c0-2.436-.003-2.413.304-2.719.316-.317-.041-.297 5.416-.3L13.58 15l3 3m-10.966-.945c-.394.129-.575.382-.605.845-.031.481.11.799.433.98.155.087.227.1.558.1.312 0 .408-.016.54-.086.326-.176.46-.435.46-.894 0-.643-.287-.952-.917-.984-.19-.01-.365.005-.469.039" fill-rule="evenodd" fill="#000" stroke="none"/></svg>