<svg xmlns="http://www.w3.org/2000/svg" width="24" height="24" fill="none" stroke="currentColor" stroke-width="2" stroke-linecap="round" stroke-linejoin="round"><path d="M3.499 1.043C2.38 1.232 1.461 2.048 1.114 3.16l-.094.3v5.08l.094.3a3.108 3.108 0 0 0 2.026 2.044c.265.087.352.092 1.664.107.911.01 1.439.001 1.544-.028a.842.842 0 0 0 .532-.405c.087-.156.1-.226.099-.558-.002-.531-.129-.757-.524-.928-.08-.035-.513-.056-1.435-.071L3.7 8.98l-.184-.108a1.199 1.199 0 0 1-.291-.249C3 8.327 3 8.332 3 6.022c0-2.436-.003-2.413.303-2.719C3.632 2.974 2.892 3 12 3c9.108 0 8.368-.026 8.697.303.305.306.303.286.303 2.698 0 2.286-.004 2.332-.221 2.617-.061.08-.194.195-.295.254l-.184.108-1.321.02c-1.321.02-1.322.02-1.52.122-.34.175-.481.484-.45.982.03.466.243.752.643.859.105.029.633.038 1.544.028 1.312-.015 1.399-.02 1.664-.107a3.108 3.108 0 0 0 2.026-2.044l.094-.3V3.46l-.094-.3a3.089 3.089 0 0 0-2.025-2.039l-.321-.101-8.42-.006c-4.631-.003-8.511.01-8.621.029m9.121 3.983a1.37 1.37 0 0 0-.235.169c-.133.122-4.24 6.262-4.35 6.503-.091.2-.096.506-.011.684.035.074.144.209.242.299.338.311.214.297 2.664.319l2.19.02-1.506 2.258c-.828 1.243-1.538 2.332-1.579 2.42-.091.2-.096.506-.011.684.087.185.378.444.628.56.377.176.733.11 1.013-.188.209-.223 4.22-6.275 4.285-6.466.123-.359-.01-.903-.264-1.084-.26-.185-.238-.183-2.576-.204l-2.23-.02 1.506-2.258c.828-1.243 1.538-2.332 1.579-2.42.091-.2.096-.506.011-.684-.087-.185-.378-.444-.628-.56-.243-.114-.547-.127-.728-.032m-7.006.029c-.394.129-.575.382-.605.845-.031.481.11.799.433.98.155.087.227.1.558.1.312 0 .408-.016.54-.086C6.866 6.718 7 6.459 7 6c0-.643-.287-.952-.917-.984-.19-.01-.365.005-.469.039m-2.115 7.988c-1.116.187-2.038 1.005-2.385 2.117l-.094.3v5.08l.094.3a3.086 3.086 0 0 0 2.046 2.046l.3.094h17.08l.3-.094a3.086 3.086 0 0 0 2.046-2.046l.094-.3v-5.08l-.094-.3a3.08 3.08 0 0 0-2.025-2.036c-.308-.095-.373-.1-1.657-.115-1.428-.017-1.585-.002-1.853.173-.246.161-.331.371-.331.818 0 .331.013.403.1.558.11.197.294.34.515.401.082.023.659.041 1.328.041 1.364 0 1.445.014 1.737.306.302.302.3.286.3 2.695 0 2.286-.004 2.332-.221 2.617-.061.08-.194.195-.295.254l-.184.108H3.7l-.184-.108a1.199 1.199 0 0 1-.291-.249C3 20.327 3 20.332 3 18.022c0-2.436-.003-2.413.303-2.719.285-.285.389-.303 1.754-.303.656 0 1.226-.018 1.308-.041a.842.842 0 0 0 .515-.401c.087-.156.1-.226.099-.558-.001-.433-.081-.645-.301-.801-.255-.182-.409-.199-1.734-.194-.684.002-1.335.02-1.445.038m2.115 4.012c-.394.129-.575.382-.605.845-.031.481.11.799.433.98.155.087.227.1.558.1.312 0 .408-.016.54-.086.326-.176.46-.435.46-.894 0-.643-.287-.952-.917-.984-.19-.01-.365.005-.469.039" fill-rule="evenodd" fill="#000" stroke="none"/></svg>