<svg xmlns="http://www.w3.org/2000/svg" width="24" height="24" fill="none" stroke="currentColor" stroke-width="2" stroke-linecap="round" stroke-linejoin="round"><path d="M11.38 1.023c-.044.01-.179.037-.3.061-.642.128-1.376.638-1.795 1.249-.318.462-.464.936-.507 1.647-.041.675-.156.865-.727 1.199-.341.2-.627.282-.842.242-.082-.015-.347-.124-.589-.242-.559-.273-.852-.349-1.36-.352a3.05 3.05 0 0 0-1.42.321c-.329.157-.428.231-.74.547-.785.796-1.226 1.918-1.103 2.804.137.983.59 1.718 1.363 2.21.644.411.759.603.759 1.271 0 .242-.017.504-.039.583-.059.213-.284.449-.665.697-.187.122-.43.305-.539.408-.626.585-.994 1.631-.876 2.491.062.457.194.818.488 1.335.336.594.82 1.094 1.293 1.336.471.241.903.346 1.439.347.538.001.804-.065 1.38-.344.489-.236.667-.28.934-.23.231.043.736.321.935.514.211.205.278.4.309.903.015.242.052.552.084.689.201.882.925 1.727 1.775 2.073.731.297 1.995.297 2.726 0 .85-.346 1.574-1.191 1.775-2.073.032-.137.069-.447.084-.689.031-.503.098-.698.309-.903.199-.193.704-.471.935-.514.267-.05.445-.006.934.23.576.279.842.345 1.38.344 1.038-.003 1.966-.494 2.512-1.331.624-.957.827-1.675.694-2.458-.156-.923-.599-1.621-1.327-2.088a63.85 63.85 0 0 0-.364-.234 1.21 1.21 0 0 1-.26-.279c-.132-.194-.135-.207-.149-.684-.008-.275.005-.556.03-.649.06-.223.307-.491.637-.69.851-.514 1.346-1.315 1.466-2.37.033-.29-.037-.801-.159-1.162a5.462 5.462 0 0 0-.348-.726 3.278 3.278 0 0 0-.612-.811c-.312-.316-.411-.39-.74-.547a3.05 3.05 0 0 0-1.42-.321c-.508.003-.801.079-1.36.352-.242.118-.507.227-.589.242-.215.04-.501-.042-.842-.242-.571-.334-.686-.524-.727-1.199-.033-.533-.102-.853-.26-1.203a3.134 3.134 0 0 0-1.971-1.684c-.205-.058-1.429-.112-1.611-.07m1.28 2.085c.088.047.207.136.265.198.221.24.244.312.295.909.056.655.172 1.065.414 1.466.32.529.605.796 1.283 1.206 1.1.663 2.028.711 3.178.165.405-.193.507-.225.7-.224.453.003.764.244 1.056.816.18.355.201.657.066.955-.111.245-.16.292-.602.584-.532.351-.867.722-1.117 1.236-.256.524-.318.834-.318 1.581s.062 1.057.318 1.581c.251.517.584.885 1.124 1.24.549.362.678.549.678.98 0 .194-.029.289-.179.589-.222.443-.439.658-.759.751-.301.088-.473.054-.957-.189-.535-.268-.892-.356-1.445-.356-.536 0-.91.088-1.385.326-.767.384-1.215.749-1.558 1.27-.32.485-.455.92-.498 1.612-.032.511-.07.635-.264.855-.224.256-.461.34-.955.34-.496 0-.727-.083-.965-.347-.182-.203-.222-.332-.254-.832-.045-.696-.184-1.153-.498-1.628-.343-.521-.791-.886-1.558-1.27a2.793 2.793 0 0 0-1.385-.326c-.559 0-.911.088-1.465.367-.359.182-.447.21-.655.212-.447.004-.715-.186-1.019-.72-.212-.375-.258-.693-.143-.994.1-.263.19-.356.62-.64.634-.418 1.033-.912 1.276-1.581.133-.367.166-.617.166-1.256 0-.697-.068-1.048-.295-1.524-.259-.544-.596-.908-1.231-1.332-.344-.23-.44-.335-.536-.589-.115-.301-.069-.619.143-.994.213-.374.357-.527.599-.637.324-.146.559-.115 1.105.144 1.15.546 2.078.498 3.178-.165.68-.411.962-.676 1.286-1.211.222-.369.35-.809.397-1.376.051-.619.088-.751.263-.945.265-.293.453-.356 1.031-.342.357.009.47.026.6.095m-1.302 4.953c-1.128.176-2.215.913-2.789 1.892a3.992 3.992 0 0 0 1.943 5.751 3.988 3.988 0 0 0 5.192-2.216 3.963 3.963 0 0 0 .001-2.972 3.978 3.978 0 0 0-3.1-2.458 3.728 3.728 0 0 0-1.247.003m1.165 2.012a2.011 2.011 0 0 1 1.444 1.617c.1.653-.094 1.243-.564 1.714-.401.403-.856.596-1.403.596-.515 0-.962-.178-1.347-.535-1.33-1.236-.464-3.46 1.347-3.46.143 0 .378.031.523.068" fill-rule="evenodd" fill="#000" stroke="none"/></svg>