<svg xmlns="http://www.w3.org/2000/svg" width="24" height="24" fill="none" stroke="currentColor" stroke-width="2" stroke-linecap="round" stroke-linejoin="round"><path d="M6.358 3.061c-1.128.176-2.215.913-2.789 1.892a3.992 3.992 0 0 0 1.943 5.751 3.969 3.969 0 0 0 2.976 0 3.936 3.936 0 0 0 2.223-2.244c.067-.176.132-.351.144-.39.021-.066.28-.07 4.694-.07 3.006 0 4.723-.015 4.816-.041a.842.842 0 0 0 .515-.401c.087-.156.1-.226.099-.558-.001-.433-.081-.645-.301-.801-.286-.204-.157-.199-5.146-.199-4.398 0-4.656-.004-4.677-.07a12.924 12.924 0 0 0-.144-.39c-.498-1.308-1.703-2.27-3.106-2.482a3.728 3.728 0 0 0-1.247.003m1.165 2.012A2.011 2.011 0 0 1 8.967 6.69c.1.653-.094 1.243-.564 1.714C8.002 8.807 7.547 9 7 9c-.515 0-.962-.178-1.347-.535-1.33-1.236-.464-3.46 1.347-3.46.143 0 .378.031.523.068m8.835 7.988c-1.507.235-2.761 1.354-3.215 2.869-.019.066-.253.07-4.175.07-4.45 0-4.362-.004-4.646.199-.222.158-.302.369-.302.801 0 .331.013.403.1.558.11.197.294.34.515.401.093.026 1.645.041 4.316.041 3.938 0 4.173.004 4.192.07.367 1.222 1.219 2.17 2.369 2.634a3.988 3.988 0 0 0 5.192-2.216 3.963 3.963 0 0 0 .001-2.972 3.978 3.978 0 0 0-3.1-2.458 3.728 3.728 0 0 0-1.247.003m1.165 2.012a2.011 2.011 0 0 1 1.444 1.617c.1.653-.094 1.243-.564 1.714-.401.403-.856.596-1.403.596-.515 0-.962-.178-1.347-.535-1.33-1.236-.464-3.46 1.347-3.46.143 0 .378.031.523.068" fill-rule="evenodd" fill="#000" stroke="none"/></svg>