<svg xmlns="http://www.w3.org/2000/svg" width="24" height="24" fill="none" stroke="currentColor" stroke-width="2" stroke-linecap="round" stroke-linejoin="round"><path d="M7.65 2.566C3.905 3.97 3.462 4.145 3.304 4.285 2.983 4.568 3 4.32 3 8.638c0 2.359.016 3.954.041 4.163.18 1.491.698 2.839 1.622 4.219 1.272 1.902 3.472 3.873 6.017 5.39.796.475 1.016.57 1.32.57.304 0 .524-.095 1.32-.57 1.36-.811 2.683-1.794 3.74-2.782 2.358-2.202 3.604-4.383 3.899-6.827.025-.209.041-1.804.041-4.163 0-4.318.017-4.07-.304-4.353-.159-.14-.6-.314-4.35-1.72-3.199-1.199-4.215-1.565-4.35-1.564-.133 0-1.203.386-4.346 1.565m7.862 1.822 3.492 1.308-.015 3.522c-.015 3.398-.018 3.536-.099 3.908-.466 2.142-1.96 4.183-4.497 6.143-.741.573-2.261 1.571-2.393 1.571-.132 0-1.652-.998-2.393-1.571-2.537-1.96-4.031-4.001-4.497-6.143-.081-.372-.084-.51-.099-3.908l-.015-3.522 3.472-1.305c1.91-.718 3.49-1.307 3.512-1.309.022-.002 1.611.586 3.532 1.306M9.171 8.019c-.203.089-.534.421-.636.641-.23.49-.143.641 1.061 1.84.53.528.964.978.964 1 0 .022-.434.472-.964 1-1.009 1.004-1.155 1.194-1.155 1.5 0 .213.164.519.394.732.24.224.432.315.665.315.323 0 .433-.084 1.49-1.138L12 12.902l1.01 1.007c1.057 1.054 1.167 1.138 1.49 1.138.233 0 .425-.091.665-.315.23-.213.394-.519.394-.732 0-.306-.146-.496-1.155-1.5-.53-.528-.964-.978-.964-1 0-.022.434-.472.964-1 1.009-1.004 1.155-1.194 1.155-1.5 0-.317-.39-.837-.739-.982a.946.946 0 0 0-.651.004c-.097.04-.501.413-1.159 1.069L12 10.098l-1.01-1.007c-.658-.656-1.062-1.029-1.159-1.069a.99.99 0 0 0-.66-.003" fill-rule="evenodd" fill="#000" stroke="none"/></svg>