<svg xmlns="http://www.w3.org/2000/svg" width="24" height="24" fill="none" stroke="currentColor" stroke-width="2" stroke-linecap="round" stroke-linejoin="round"><path d="M.508.123C.328.242.14.447.046.627c-.07.133-.058.634.019.785.035.07.731.798 1.547 1.616l1.482 1.488-.047.157c-.061.205-.067 7.624-.006 8.128.18 1.491.698 2.839 1.622 4.219 1.272 1.902 3.472 3.873 6.017 5.39.699.417 1.011.561 1.261.582.256.021.339-.008.879-.305 1.529-.84 2.808-1.766 4.194-3.037l.634-.581 2.406 2.401c1.323 1.321 2.464 2.43 2.534 2.466.083.041.232.064.423.064.263 0 .316-.014.481-.123.18-.119.368-.324.462-.504.025-.048.046-.221.046-.384 0-.26-.014-.318-.114-.467C23.733 22.294 1.708.268 1.483.118 1.326.013 1.273 0 1 0 .725 0 .675.013.508.123m11.132.946c-1.028.361-3.372 1.273-3.495 1.36a.911.911 0 0 0-.241.271c-.216.414.019 1.158.445 1.408.315.184.491.144 2.178-.489l1.468-.551 3.504 1.314 3.505 1.314-.015 3.502c-.016 3.814-.005 3.613-.247 4.482-.175.63.007 1.029.565 1.24.502.19.947.091 1.169-.26.127-.2.29-.741.414-1.372.081-.414.085-.558.099-4.443.016-4.545.034-4.273-.292-4.559-.16-.141-.594-.312-4.351-1.721C11.884.892 12.021.936 11.64 1.069m4.171 16.969a19.088 19.088 0 0 1-2.531 2.028c-.592.395-1.218.774-1.278.774-.133 0-1.648-.993-2.395-1.571-2.537-1.96-4.033-4.003-4.497-6.143-.08-.37-.084-.519-.098-3.546l-.015-3.16 5.612 5.613 5.611 5.612-.409.393" fill-rule="evenodd" fill="#000" stroke="none"/></svg>