<svg xmlns="http://www.w3.org/2000/svg" width="24" height="24" fill="none" stroke="currentColor" stroke-width="2" stroke-linecap="round" stroke-linejoin="round"><path d="M15.78.989c-.218.039-.269.061-.402.178-.24.211-.341.465-.384.961-.082.952-.405 1.596-1.102 2.193a3.02 3.02 0 0 1-1.052.565c-.434.135-1.246.135-1.68 0a3.077 3.077 0 0 1-1.465-.975c-.418-.488-.628-1.042-.692-1.829-.055-.684-.183-.892-.632-1.027-.366-.11-.431-.094-2.845.71-2.732.91-2.872.971-3.387 1.491-.299.301-.394.429-.55.744-.428.86-.431 1.137-.033 3.48.335 1.978.364 2.113.511 2.425.145.306.562.726.862.868.4.189.63.227 1.378.227h.691l.011 4.79.011 4.79.105.307c.171.5.371.817.771 1.217.4.4.717.6 1.217.771l.307.105h9.12l.3-.094c.976-.304 1.714-1.035 2.046-2.026l.094-.28.011-4.786.011-4.787.789-.016c.747-.015.804-.021 1.069-.126.501-.196.93-.611 1.134-1.097.082-.193.6-3.062.73-4.044.082-.611-.01-1.115-.313-1.724-.156-.315-.25-.442-.55-.744-.517-.521-.654-.582-3.385-1.487-2.163-.718-2.501-.815-2.696-.78M7.535 4.235c.674 1.361 1.961 2.342 3.505 2.672.246.053.512.073.96.073.448 0 .714-.02.96-.073a5.134 5.134 0 0 0 3.079-1.967c.237-.32.591-1.006.703-1.364l.077-.243 1.68.559c1.088.362 1.74.6 1.848.674.23.157.387.48.383.788-.002.124-.131.986-.287 1.914a217.66 217.66 0 0 0-.283 1.708c0 .011-.563.025-1.251.032l-1.251.012-.199.102a.796.796 0 0 0-.418.513c-.026.094-.041 1.973-.041 5.309 0 4.259-.01 5.195-.055 5.346a1.02 1.02 0 0 1-.461.582l-.184.108-4.218.011c-4.704.012-4.451.026-4.751-.265a1.397 1.397 0 0 1-.233-.308c-.076-.154-.079-.294-.098-5.478l-.02-5.32-.089-.167a.874.874 0 0 0-.213-.254C6.427 9.02 6.261 9 5.014 9c-.646 0-1.174-.01-1.174-.022 0-.012-.128-.781-.284-1.71-.155-.928-.284-1.798-.285-1.933-.001-.309.151-.615.384-.771.089-.059.875-.345 1.838-.667l1.683-.562.106.302c.058.167.172.436.253.598" fill-rule="evenodd" fill="#000" stroke="none"/></svg>