<svg xmlns="http://www.w3.org/2000/svg" width="24" height="24" fill="none" stroke="currentColor" stroke-width="2" stroke-linecap="round" stroke-linejoin="round"><path d="M.614.057a.815.815 0 0 0-.505.396C.035.592.02.684.02 1c0 .331.013.403.1.558.11.197.294.34.515.401.087.024.83.041 1.845.041h1.701l.412 2.09c.227 1.149.431 2.171.453 2.27.023.099.416 2.053.874 4.342.579 2.891.867 4.243.941 4.431a3.037 3.037 0 0 0 2.299 1.825c.219.034 1.724.043 5.58.034l5.28-.012.324-.113c.574-.201.997-.49 1.396-.954.257-.299.394-.54.52-.913.057-.167.466-2.212.925-4.62.659-3.459.82-4.369.807-4.565-.021-.336-.152-.53-.46-.681L23.3 5.02l-8.241-.01-8.24-.011-.415-2.089C6.175 1.76 5.962.739 5.93.64a.88.88 0 0 0-.422-.53C5.34.02 5.338.02 3.06.012 1.267.006.744.015.614.057M21.776 7.07c-.009.039-.322 1.674-.695 3.634-.373 1.961-.697 3.613-.72 3.673-.07.184-.245.382-.437.495l-.184.108H9.34l-.184-.108a1.08 1.08 0 0 1-.439-.499c-.043-.11-1.477-7.222-1.477-7.322C7.24 7.01 8.674 7 14.516 7c6.91 0 7.276.004 7.26.07M8.477 19.073c-.671.176-1.239.75-1.417 1.435a2.07 2.07 0 0 0 .165 1.422c.136.269.576.709.845.845a2.047 2.047 0 0 0 1.86 0c.266-.135.708-.575.841-.838a2.05 2.05 0 0 0 .169-1.408 1.806 1.806 0 0 0-.475-.876A1.972 1.972 0 0 0 9 19.005c-.143 0-.378.031-.523.068m11 0c-.671.176-1.239.75-1.417 1.435a2.07 2.07 0 0 0 .165 1.422c.136.269.576.709.845.845a2.047 2.047 0 0 0 1.86 0c.266-.135.708-.575.841-.838a2.05 2.05 0 0 0 .169-1.408 1.806 1.806 0 0 0-.475-.876A1.972 1.972 0 0 0 20 19.005c-.143 0-.378.031-.523.068" fill-rule="evenodd" fill="#000" stroke="none"/></svg>