<svg xmlns="http://www.w3.org/2000/svg" width="24" height="24" fill="none" stroke="currentColor" stroke-width="2" stroke-linecap="round" stroke-linejoin="round"><path d="M5.699 1.055a1.33 1.33 0 0 0-.276.127c-.063.041-.763.94-1.555 1.997-.791 1.056-1.491 1.963-1.555 2.015a1.006 1.006 0 0 0-.204.26l-.089.166v14.92l.094.3a3.086 3.086 0 0 0 2.046 2.046l.3.094h15.08l.3-.094a3.086 3.086 0 0 0 2.046-2.046l.094-.3v-7.46c0-7.194-.003-7.465-.074-7.6a1.599 1.599 0 0 0-.235-.3c-.088-.088-.802-1.015-1.586-2.059-1.311-1.748-1.441-1.907-1.624-2l-.199-.101-6.201-.008c-4.909-.006-6.235.003-6.362.043M18.25 4 19 5H5l.75-1 .749-1h11.002l.749 1M20 13.554c0 5.437-.009 6.584-.055 6.736a1.02 1.02 0 0 1-.461.582l-.184.108H4.7l-.184-.108a1.199 1.199 0 0 1-.291-.249c-.239-.313-.225.12-.225-7.048V7h16v6.554M7.614 9.057a.814.814 0 0 0-.505.396c-.079.147-.089.226-.088.667.003 1.785 1.062 3.481 2.692 4.313.793.405 1.388.547 2.287.547.898 0 1.494-.142 2.286-.547 1.627-.829 2.692-2.535 2.693-4.313.001-.441-.01-.52-.088-.667-.202-.377-.753-.551-1.262-.398-.45.136-.584.352-.634 1.029-.073.979-.394 1.629-1.103 2.237a3.02 3.02 0 0 1-1.052.565c-.434.135-1.246.135-1.68 0a3.077 3.077 0 0 1-1.465-.975c-.418-.488-.628-1.042-.692-1.829-.043-.532-.118-.736-.325-.883-.264-.189-.721-.249-1.064-.142" fill-rule="evenodd" fill="#000" stroke="none"/></svg>