<svg xmlns="http://www.w3.org/2000/svg" width="24" height="24" fill="none" stroke="currentColor" stroke-width="2" stroke-linecap="round" stroke-linejoin="round"><path d="M16.629 1.043c-.333.176-1.181 1.075-1.481 1.572-.772 1.274-.889 2.8-.318 4.145.079.187.188.41.241.496l.097.156-2.833 2.833-2.833 2.833-.981-.974c-.593-.589-1.048-1.008-1.149-1.059a.87.87 0 0 0-.744-.001c-.213.107-5.346 5.215-5.501 5.476l-.107.18-.011 2.752c-.007 1.788.003 2.805.03 2.904a.84.84 0 0 0 .403.524l.178.1H7.3l.18-.107c.27-.161 5.369-5.288 5.48-5.51a.8.8 0 0 0 0-.726c-.057-.113-.444-.533-1.064-1.158l-.974-.981 2.833-2.833 2.833-2.833.156.097c.086.053.309.162.496.241 1.481.629 3.14.427 4.48-.545.336-.244 1.139-1.061 1.24-1.262a.804.804 0 0 0 .001-.726c-.121-.242-5.348-5.473-5.589-5.593a.889.889 0 0 0-.743-.001m3.86 6.009c-.09.1-.659.367-.907.426-.255.061-.909.061-1.164 0a3.607 3.607 0 0 1-.536-.207 2.577 2.577 0 0 1-1.15-1.151 3.034 3.034 0 0 1-.209-.552 3.862 3.862 0 0 1 .001-1.136c.049-.238.264-.715.399-.887l.089-.113 1.773 1.773c1.699 1.699 1.769 1.775 1.704 1.847M8.8 15.22 10.58 17l-2 2-2 2H3v-3.58l1.99-1.99A143.621 143.621 0 0 1 7 13.44c.011 0 .821.801 1.8 1.78" fill-rule="evenodd" fill="#000" stroke="none"/></svg>