<svg xmlns="http://www.w3.org/2000/svg" width="24" height="24" fill="none" stroke="currentColor" stroke-width="2" stroke-linecap="round" stroke-linejoin="round"><path d="M2.626 2.045c-.206.109-.48.388-.588.599a.792.792 0 0 0 .002.719c.061.123.77.86 2.311 2.405l2.223 2.227-1.38.013-1.38.012-.197.122c-.266.164-.384.383-.408.754-.031.485.109.803.433.984l.178.1 2.56.027c1.408.015 2.619.028 2.691.03.153.003.598-.19.697-.302.11-.125.273-.527.269-.666l-.03-2.689-.027-2.56-.1-.178a.86.86 0 0 0-.297-.3C9.399 3.228 9.361 3.22 9 3.22s-.399.008-.583.122a.86.86 0 0 0-.297.3l-.1.178-.012 1.377-.012 1.377-2.228-2.223C4.294 2.881 3.483 2.1 3.372 2.044a.884.884 0 0 0-.746.001m17.994.001c-.097.05-1.041.962-2.388 2.305l-2.227 2.223-.013-1.377-.012-1.377-.1-.178a.86.86 0 0 0-.297-.3c-.184-.114-.222-.122-.583-.122s-.399.008-.583.122a.86.86 0 0 0-.297.3l-.1.178-.027 2.56-.03 2.689c-.004.139.159.541.269.666.099.112.544.305.697.302l2.691-.03c2.514-.027 2.563-.029 2.72-.113.335-.179.438-.39.438-.894 0-.433-.079-.644-.3-.801-.255-.182-.409-.199-1.774-.199h-1.282l2.225-2.23c1.542-1.546 2.252-2.284 2.313-2.407.177-.353.088-.717-.259-1.064-.34-.34-.734-.432-1.081-.253M6.297 13.999l-2.483.021-.197.122c-.306.189-.397.386-.397.858 0 .331.013.403.1.558.11.197.294.34.515.401.083.023.697.041 1.444.041h1.299l-2.225 2.23c-1.542 1.546-2.252 2.284-2.313 2.407-.177.353-.088.717.259 1.064.347.347.711.436 1.064.259.123-.061.86-.77 2.405-2.311l2.227-2.223.013 1.377c.011 1.319.016 1.384.098 1.537.179.335.39.438.894.438s.715-.103.894-.438c.084-.157.086-.206.113-2.72l.03-2.691c.004-.186-.203-.619-.341-.717-.228-.16-.498-.252-.711-.243-.113.005-1.322.018-2.688.03m8.244.084a1.888 1.888 0 0 0-.285.16c-.104.085-.296.536-.293.686l.03 2.691c.027 2.514.029 2.563.113 2.72.179.335.39.438.894.438s.715-.103.894-.438c.082-.153.087-.218.098-1.537l.013-1.377 2.227 2.223c1.545 1.541 2.282 2.25 2.405 2.311.353.177.717.088 1.064-.259.347-.347.436-.711.259-1.064-.061-.123-.77-.86-2.311-2.405l-2.223-2.227 1.377-.013c1.319-.011 1.384-.016 1.537-.098.335-.179.438-.39.438-.894 0-.316-.015-.408-.09-.55-.104-.198-.314-.348-.568-.407-.112-.026-1.155-.046-2.772-.052l-2.591-.011-.216.103" fill-rule="evenodd" fill="#000" stroke="none"/></svg>