<svg xmlns="http://www.w3.org/2000/svg" width="24" height="24" fill="none" stroke="currentColor" stroke-width="2" stroke-linecap="round" stroke-linejoin="round"><path d="m18.219 1.999-2.561.021-.199.102c-.34.175-.481.484-.45.982.029.459.241.748.626.855.084.024.73.041 1.545.041h1.4l-7.726 7.73c-5.591 5.593-7.751 7.779-7.815 7.907-.175.353-.086.718.26 1.064.346.346.711.435 1.064.26.128-.064 2.314-2.224 7.907-7.815L20 5.42v1.4c0 .815.017 1.461.041 1.545.107.385.396.597.855.626.485.031.803-.109.984-.433l.1-.178.027-2.66.03-2.791c.004-.189-.203-.619-.347-.722-.224-.159-.485-.248-.703-.238-.114.005-1.36.019-2.768.03M3.626 3.045c-.206.109-.48.388-.588.599a.795.795 0 0 0 .001.719c.125.25 5.348 5.473 5.598 5.598.353.176.718.086 1.064-.26.346-.346.436-.711.26-1.064-.121-.242-5.348-5.473-5.589-5.593a.884.884 0 0 0-.746.001m11 11c-.206.109-.48.388-.588.599a.792.792 0 0 0 .002.719c.061.123.771.861 2.313 2.407L18.578 20h-1.382c-1.472 0-1.617.015-1.874.199-.183.13-.292.374-.313.701-.031.481.11.799.433.98l.178.1 2.66.027c1.463.015 2.719.028 2.791.03.153.003.598-.19.697-.302.11-.125.273-.527.269-.666l-.03-2.789-.027-2.66-.091-.17c-.165-.31-.56-.48-1.015-.439-.435.04-.733.263-.833.624-.024.084-.041.73-.041 1.544v1.399l-2.23-2.225c-1.475-1.472-2.287-2.253-2.398-2.309a.884.884 0 0 0-.746.001" fill="#000" fill-rule="evenodd" stroke="none"/></svg>