<svg xmlns="http://www.w3.org/2000/svg" width="24" height="24" fill="none" stroke="currentColor" stroke-width="2" stroke-linecap="round" stroke-linejoin="round"><path d="M4.499 2.043C3.38 2.232 2.461 3.048 2.114 4.16l-.094.3v15.08l.094.3a3.086 3.086 0 0 0 2.046 2.046l.3.094h15.08l.3-.094a3.086 3.086 0 0 0 2.046-2.046l.094-.3V4.46l-.094-.3a3.089 3.089 0 0 0-2.025-2.039l-.321-.101-7.42-.006c-4.081-.003-7.511.01-7.621.029M8 12.002v8.001l-1.65-.011-1.65-.012-.184-.108a1.199 1.199 0 0 1-.291-.249c-.239-.314-.225.172-.225-7.601 0-8.017-.025-7.391.304-7.719.292-.292.325-.297 2.126-.3L8 4v8.002m11.31-7.941c.279.083.546.35.629.629.054.18.061 1.065.061 7.311 0 5.906-.009 7.137-.055 7.289a1.02 1.02 0 0 1-.461.582l-.184.108-4.65.011-4.65.01V4h4.553c3.959 0 4.579.008 4.757.061m-6.684 2.984c-.206.109-.48.388-.588.599a.792.792 0 0 0 .002.719c.06.12.639.729 1.813 1.907L15.578 12l-1.725 1.73c-1.174 1.178-1.753 1.787-1.813 1.907-.177.352-.088.717.259 1.064.346.347.711.436 1.064.26.249-.125 4.473-4.349 4.598-4.598a.896.896 0 0 0 .088-.363.896.896 0 0 0-.088-.363c-.121-.241-4.349-4.473-4.589-4.593a.884.884 0 0 0-.746.001" fill-rule="evenodd" fill="#000" stroke="none"/></svg>