<svg xmlns="http://www.w3.org/2000/svg" width="24" height="24" fill="none" stroke="currentColor" stroke-width="2" stroke-linecap="round" stroke-linejoin="round"><path d="M5.614 3.057c-.238.075-.403.205-.5.395-.103.203-.139.588-.076.821.035.129.749 1.109 2.864 3.93 1.55 2.066 2.818 3.775 2.818 3.797 0 .022-1.269 1.732-2.819 3.799-1.551 2.068-2.847 3.825-2.88 3.905a.928.928 0 0 0 .016.69c.086.169.329.404.531.514.125.068.442.073 6.386.082 4.119.007 6.305-.003 6.404-.029a.841.841 0 0 0 .522-.403l.1-.178V18.5c0-1.878 0-1.88-.091-2.05-.165-.31-.56-.48-1.015-.439-.435.04-.733.263-.833.624-.023.081-.041.635-.041 1.255V19H8l2.408-3.21c1.324-1.765 2.453-3.289 2.507-3.386a.851.851 0 0 0 0-.808c-.054-.097-1.183-1.62-2.507-3.386L8 5h9v1.11c0 .62.018 1.174.041 1.255.107.385.396.597.855.626.485.031.803-.109.984-.433l.1-.178V5.5c0-1.867-.001-1.881-.089-2.047-.106-.197-.269-.322-.52-.398-.264-.079-12.503-.077-12.757.002" fill-rule="evenodd" fill="#000" stroke="none"/></svg>