<svg xmlns="http://www.w3.org/2000/svg" width="24" height="24" fill="none" stroke="currentColor" stroke-width="2" stroke-linecap="round" stroke-linejoin="round"><path d="M21.614 3.057a.814.814 0 0 0-.505.396l-.089.167-.01 8.294c-.007 5.477.003 8.346.03 8.444.104.389.394.604.856.633.485.031.803-.109.984-.433l.1-.178V3.62l-.089-.167a.874.874 0 0 0-.213-.254c-.264-.189-.721-.249-1.064-.142m-5 4a.814.814 0 0 0-.505.396l-.089.167-.01 6.294c-.007 4.145.003 6.345.029 6.444.105.389.395.603.857.633.485.031.803-.109.984-.433l.1-.178V7.62l-.089-.167a.874.874 0 0 0-.213-.254c-.264-.189-.721-.249-1.064-.142m-5 4a.814.814 0 0 0-.505.396l-.089.167-.011 4.293c-.007 2.814.004 4.345.03 4.444.105.39.395.604.857.634.485.031.803-.109.984-.433l.1-.178v-8.76l-.089-.167a.874.874 0 0 0-.213-.254c-.264-.189-.721-.249-1.064-.142m-5 4a.814.814 0 0 0-.505.396c-.089.166-.089.176-.1 2.458-.008 1.481.003 2.345.03 2.444.105.392.394.606.857.636.485.031.803-.109.984-.433l.1-.178v-4.76l-.089-.167a.874.874 0 0 0-.213-.254c-.264-.189-.721-.249-1.064-.142m-5 3.998c-.394.129-.575.382-.605.845-.031.481.11.799.433.98.155.087.227.1.558.1.312 0 .408-.016.54-.086.326-.176.46-.435.46-.894 0-.643-.287-.952-.917-.984-.19-.01-.365.005-.469.039" fill-rule="evenodd" fill="#000" stroke="none"/></svg>