<svg xmlns="http://www.w3.org/2000/svg" width="24" height="24" fill="none" stroke="currentColor" stroke-width="2" stroke-linecap="round" stroke-linejoin="round"><path d="M4.614 3.055c-.239.078-.403.207-.505.398l-.089.167-.01 8.254c-.007 5.604.003 8.304.031 8.409.057.211.263.471.5.631.185.124.218.133.463.119.208-.012.302-.039.436-.128.094-.062 2.459-1.945 5.255-4.184 5.62-4.499 5.311-4.226 5.337-4.72.012-.235.002-.28-.107-.449-.096-.149-1.189-1.043-5.233-4.279-2.812-2.25-5.184-4.127-5.271-4.171-.196-.098-.581-.12-.807-.047m14 1.002a.814.814 0 0 0-.505.396l-.089.167-.01 7.294c-.007 4.811.003 7.345.029 7.444.105.389.395.604.857.633.485.031.803-.109.984-.433l.1-.178V4.62l-.089-.167a.874.874 0 0 0-.213-.254c-.264-.189-.721-.249-1.064-.142M13.36 12c0 .018-1.656 1.357-3.68 2.976L6 17.92V6.08l3.68 2.944c2.024 1.619 3.68 2.958 3.68 2.976" fill="#000" fill-rule="evenodd" stroke="none"/></svg>