<svg xmlns="http://www.w3.org/2000/svg" width="24" height="24" fill="none" stroke="currentColor" stroke-width="2" stroke-linecap="round" stroke-linejoin="round"><path d="M18.62 3.07c-.11.062-2.495 1.95-5.3 4.196-5.636 4.513-5.326 4.239-5.352 4.733-.012.235-.002.28.107.449.096.149 1.187 1.042 5.229 4.275 2.809 2.247 5.168 4.122 5.243 4.166.079.047.239.089.384.1.444.035.771-.113.949-.431l.1-.178.01-8.254c.008-5.615-.002-8.303-.031-8.408-.053-.199-.256-.464-.471-.615-.135-.095-.22-.122-.419-.133-.214-.011-.277.003-.449.1m-14.006.987a.814.814 0 0 0-.505.396l-.089.167-.01 7.294c-.007 4.811.003 7.345.029 7.444.105.389.395.604.857.633.485.031.803-.109.984-.433l.1-.178V4.62l-.089-.167a.874.874 0 0 0-.213-.254c-.264-.189-.721-.249-1.064-.142M18 12v5.92l-3.682-2.945c-2.024-1.62-3.675-2.964-3.668-2.986.01-.03 7.296-5.893 7.34-5.906.005-.002.01 2.661.01 5.917" fill="#000" fill-rule="evenodd" stroke="none"/></svg>