<svg xmlns="http://www.w3.org/2000/svg" width="24" height="24" fill="none" stroke="currentColor" stroke-width="2" stroke-linecap="round" stroke-linejoin="round"><path d="m11.36 2.024-.52.057c-1.609.175-3.334.942-4.703 2.092-1.7 1.427-2.831 3.586-3.099 5.916-.103.893.001 2.173.258 3.177A9.024 9.024 0 0 0 4.959 16.6c.173.214.236.323.221.38l-.084.3c-.132.47-.112 1.151.048 1.629.035.105.13.325.21.489.257.524 1.085 1.27 1.535 1.383l.105.026.013.787c.012.752.017.794.113.964.11.197.294.34.515.401.198.055 8.532.055 8.73 0a.842.842 0 0 0 .515-.401c.096-.17.101-.213.114-.965l.013-.786.104-.026c.45-.113 1.278-.859 1.535-1.383.08-.164.175-.384.21-.489.16-.478.18-1.159.048-1.629l-.084-.3c-.015-.057.048-.166.221-.38a8.162 8.162 0 0 0 1.02-1.62c.605-1.237.882-2.359.927-3.751a8.258 8.258 0 0 0-.456-3.069c-.789-2.351-2.393-4.171-4.632-5.259a8.546 8.546 0 0 0-2.7-.821c-.359-.046-1.603-.084-1.84-.056m1.392 2.019c2.289.251 4.363 1.647 5.403 3.637.807 1.542 1.026 3.079.682 4.776-.261 1.288-1.002 2.643-1.937 3.544-.46.443-.493.835-.118 1.381.276.401.278.835.004 1.215-.179.25-.422.368-.84.406-.517.047-.76.204-.882.569-.048.143-.064.35-.064.81V21H9v-.61c0-.335-.019-.675-.041-.755-.109-.394-.38-.586-.895-.632-.395-.036-.652-.147-.823-.354a1.155 1.155 0 0 1-.241-.63c0-.191.101-.486.218-.641.375-.491.336-.94-.118-1.378-.934-.9-1.676-2.257-1.936-3.54-.209-1.03-.214-1.899-.019-2.88.159-.802.666-1.965 1.147-2.631 1.499-2.077 3.954-3.182 6.46-2.906m-4.275 6.03c-.671.176-1.239.75-1.417 1.435a2.07 2.07 0 0 0 .165 1.422c.136.269.576.709.845.845a2.047 2.047 0 0 0 1.86 0c.266-.135.708-.575.841-.838a2.05 2.05 0 0 0 .169-1.408 1.806 1.806 0 0 0-.475-.876A1.972 1.972 0 0 0 9 10.005c-.143 0-.378.031-.523.068m6 0c-.671.176-1.239.75-1.417 1.435a2.07 2.07 0 0 0 .165 1.422c.136.269.576.709.845.845a2.055 2.055 0 0 0 1.867-.004c.26-.132.702-.574.834-.834a2.05 2.05 0 0 0 .169-1.408 1.806 1.806 0 0 0-.475-.876A1.972 1.972 0 0 0 15 10.005c-.143 0-.378.031-.523.068m-2.749 4.963c-.366.126-.476.249-.817.907-.462.89-.533 1.178-.369 1.497.083.161.302.348.538.457.209.097.254.102.923.103.811 0 1.028-.044 1.226-.249.18-.186.255-.394.258-.716.003-.269-.007-.298-.336-.966-.376-.765-.474-.905-.725-1.026-.209-.101-.419-.104-.698-.007" fill-rule="evenodd" fill="#000" stroke="none"/></svg>