<svg xmlns="http://www.w3.org/2000/svg" width="24" height="24" fill="none" stroke="currentColor" stroke-width="2" stroke-linecap="round" stroke-linejoin="round"><path d="M7.96 1.062a2.885 2.885 0 0 0-1.128.577c-.3.268-.593.713-.714 1.083-.084.254-.098.372-.096.798.002.439.016.536.111.8A2.589 2.589 0 0 0 7.68 5.868c.295.107.318.109 1.404.124.71.009 1.16-.001 1.264-.029a.842.842 0 0 0 .532-.405l.1-.178v-2.4l-.111-.3A2.537 2.537 0 0 0 7.96 1.062m6 0a2.885 2.885 0 0 0-1.128.577c-.3.268-.593.713-.714 1.083l-.098.298v6l.111.3a2.6 2.6 0 0 0 1.549 1.548c.268.097.355.108.82.108.465 0 .552-.011.82-.108a2.6 2.6 0 0 0 1.549-1.548l.111-.3V2.98l-.111-.3a2.537 2.537 0 0 0-2.909-1.618m-5.236 2c.201.104.276.274.276.628V4h-.302c-.35 0-.504-.063-.62-.252a.478.478 0 0 1 .174-.67.453.453 0 0 1 .472-.016m6 0c.066.034.155.12.198.19.075.124.078.22.078 2.748s-.003 2.624-.078 2.748A.54.54 0 0 1 14.5 9a.54.54 0 0 1-.422-.252c-.075-.123-.078-.22-.078-2.74 0-2.883-.01-2.77.252-2.93a.453.453 0 0 1 .472-.016m5.236 3a2.885 2.885 0 0 0-1.128.577c-.3.268-.593.713-.714 1.083-.095.289-.098.335-.098 1.478v1.18l.1.178a.842.842 0 0 0 .532.405c.104.028.554.038 1.264.029 1.084-.015 1.109-.017 1.404-.124a2.591 2.591 0 0 0 1.547-1.548c.098-.269.109-.354.109-.82 0-.465-.011-.552-.108-.82a2.535 2.535 0 0 0-2.908-1.618m-17 1a2.885 2.885 0 0 0-1.128.577c-.3.268-.593.713-.714 1.083-.084.254-.098.372-.096.798.002.439.016.536.111.8a2.596 2.596 0 0 0 1.547 1.549l.3.111h6.04l.3-.111a2.593 2.593 0 0 0 1.547-1.549c.098-.269.109-.354.109-.82 0-.465-.011-.552-.108-.82A2.53 2.53 0 0 0 9.62 7.277c-.559-.277-.549-.276-3.64-.273-2.204.002-2.812.014-3.02.058m17.764 1A.56.56 0 0 1 21 8.5a.56.56 0 0 1-.276.438c-.077.04-.228.062-.422.062H20v-.302c0-.35.063-.504.252-.62a.453.453 0 0 1 .472-.016M8.748 9.078c.328.2.328.644 0 .844-.123.075-.22.078-2.74.078-2.883 0-2.77.01-2.93-.252a.478.478 0 0 1 .174-.67C3.376 9.003 3.472 9 6 9s2.624.003 2.748.078m6.212 2.984a2.885 2.885 0 0 0-1.128.577c-.3.268-.593.713-.714 1.083-.084.254-.098.372-.096.798.002.439.016.536.111.8a2.596 2.596 0 0 0 1.547 1.549l.3.111h6.04l.3-.111a2.593 2.593 0 0 0 1.547-1.549c.098-.269.109-.354.109-.82 0-.465-.011-.552-.108-.82a2.53 2.53 0 0 0-1.248-1.403c-.559-.277-.549-.276-3.64-.273-2.204.002-2.812.014-3.02.058m-12 1a2.885 2.885 0 0 0-1.128.577c-.3.268-.593.713-.714 1.083-.084.254-.098.372-.096.798.002.439.016.536.111.8a2.585 2.585 0 0 0 1.547 1.547c.269.098.354.109.82.109.465 0 .552-.011.82-.108a2.6 2.6 0 0 0 1.549-1.548l.111-.3v-1.2c0-1.164-.003-1.205-.089-1.367-.106-.197-.269-.322-.52-.398-.256-.077-2.044-.072-2.411.007m6 0a2.885 2.885 0 0 0-1.128.577c-.3.268-.593.713-.714 1.083l-.098.298v6l.111.3a2.6 2.6 0 0 0 1.549 1.548c.268.097.355.108.82.108.465 0 .552-.011.82-.108a2.6 2.6 0 0 0 1.549-1.548l.111-.3v-6.04l-.111-.3a2.537 2.537 0 0 0-2.909-1.618m11.788 1.016A.54.54 0 0 1 21 14.5a.54.54 0 0 1-.252.422c-.123.075-.22.078-2.74.078-2.883 0-2.77.01-2.93-.252a.478.478 0 0 1 .174-.67c.124-.075.22-.078 2.748-.078s2.624.003 2.748.078M4 15.31c0 .354-.075.524-.276.628a.483.483 0 0 1-.646-.19.478.478 0 0 1 .174-.67c.098-.059.201-.078.438-.078H4v.31m5.724-.248c.066.034.155.12.198.19.075.124.078.22.078 2.748s-.003 2.624-.078 2.748A.54.54 0 0 1 9.5 21a.54.54 0 0 1-.422-.252c-.075-.123-.078-.22-.078-2.74 0-2.883-.01-2.77.252-2.93a.453.453 0 0 1 .472-.016m3.89 2.995a.814.814 0 0 0-.505.396c-.086.162-.089.203-.089 1.367v1.2l.111.3c.265.721.83 1.286 1.549 1.547.269.098.354.109.82.109.465 0 .552-.011.82-.108a2.589 2.589 0 0 0 1.547-1.548c.098-.269.109-.354.109-.82 0-.465-.011-.552-.108-.82a2.775 2.775 0 0 0-.703-1.044 2.845 2.845 0 0 0-1.145-.576c-.373-.078-2.159-.08-2.406-.003m2.134 2.021A.54.54 0 0 1 16 20.5c0 .244-.252.5-.492.5a.537.537 0 0 1-.43-.252c-.059-.098-.078-.201-.078-.438V20h.31c.237 0 .34.019.438.078" fill-rule="evenodd" fill="#000" stroke="none"/></svg>