<svg xmlns="http://www.w3.org/2000/svg" width="24" height="24" fill="none" stroke="currentColor" stroke-width="2" stroke-linecap="round" stroke-linejoin="round"><path d="M3.614 2.057a.814.814 0 0 0-.505.396l-.089.167-.011 3.793c-.007 2.481.003 3.845.03 3.944.105.39.395.604.857.634.485.031.803-.109.984-.433l.1-.178V2.62l-.089-.167a.874.874 0 0 0-.213-.254c-.264-.189-.721-.249-1.064-.142m8 0a.814.814 0 0 0-.505.396c-.088.166-.089.18-.1 2.357L10.997 7H9.905c-1.161 0-1.335.022-1.583.199-.222.158-.302.369-.302.801 0 .331.013.403.1.558.11.197.294.34.515.401.197.055 6.533.055 6.73 0a.842.842 0 0 0 .515-.401c.087-.156.1-.226.099-.558-.001-.433-.081-.645-.301-.801C15.43 7.022 15.256 7 14.095 7h-1.092l-.011-2.19c-.012-2.177-.013-2.191-.101-2.357a.874.874 0 0 0-.213-.254c-.264-.189-.721-.249-1.064-.142m8 0a.814.814 0 0 0-.505.396l-.089.167-.011 4.793c-.007 3.147.004 4.845.03 4.944.105.39.395.604.857.634.485.031.803-.109.984-.433l.1-.178V2.62l-.089-.167a.874.874 0 0 0-.213-.254c-.264-.189-.721-.249-1.064-.142m-8 9a.814.814 0 0 0-.505.396l-.089.167-.011 4.793c-.007 3.147.004 4.845.03 4.944.105.39.395.604.857.634.485.031.803-.109.984-.433l.1-.178v-9.76l-.089-.167a.874.874 0 0 0-.213-.254c-.264-.189-.721-.249-1.064-.142m-11 2a.814.814 0 0 0-.505.396c-.074.139-.089.231-.089.547 0 .331.013.403.1.558.11.197.294.34.515.401.081.023.635.041 1.255.041H3v3.11c0 1.96.015 3.164.041 3.255.107.385.396.597.855.626.485.031.803-.109.984-.433l.1-.178.011-3.19.011-3.19h1.109c.62 0 1.173-.018 1.254-.041a.842.842 0 0 0 .515-.401c.087-.156.1-.226.099-.558-.001-.433-.081-.645-.301-.801-.28-.2-.267-.199-3.694-.196-2.512.002-3.24.014-3.37.054m16 2a.814.814 0 0 0-.505.396c-.074.139-.089.231-.089.547 0 .331.013.403.1.558.11.197.294.34.515.401.081.023.635.041 1.255.041H19v2.11c0 1.29.016 2.166.041 2.255.107.385.396.597.855.626.485.031.803-.109.984-.433l.1-.178.012-2.19.011-2.19h1.109c.619 0 1.172-.018 1.253-.041a.842.842 0 0 0 .515-.401c.087-.156.1-.226.099-.558-.001-.433-.081-.645-.301-.801-.28-.2-.267-.199-3.694-.196-2.512.002-3.24.014-3.37.054" fill="#000" fill-rule="evenodd" stroke="none"/></svg>