<svg xmlns="http://www.w3.org/2000/svg" width="24" height="24" fill="none" stroke="currentColor" stroke-width="2" stroke-linecap="round" stroke-linejoin="round"><path d="M6.499 1.043c-1.12.19-2.038 1.005-2.385 2.117l-.094.3v17.08l.094.3a3.086 3.086 0 0 0 2.046 2.046l.3.094h11.08l.3-.094a3.086 3.086 0 0 0 2.046-2.046l.094-.3V3.46l-.094-.3a3.089 3.089 0 0 0-2.025-2.039l-.321-.101-5.42-.006c-2.981-.003-5.511.01-5.621.029M17.31 3.061c.279.083.546.35.629.629.054.18.061 1.17.061 8.311 0 6.753-.009 8.137-.055 8.289a1.02 1.02 0 0 1-.461.582l-.184.108H6.7l-.184-.108a1.199 1.199 0 0 1-.291-.249c-.24-.315-.225.265-.225-8.601 0-9.134-.026-8.39.304-8.719.317-.318-.07-.297 5.679-.3 4.475-.003 5.148.005 5.327.058m-5.696 13.994c-.394.129-.575.382-.605.845-.031.481.11.799.433.98.155.087.227.1.558.1.312 0 .408-.016.54-.086.326-.176.46-.435.46-.894 0-.643-.287-.952-.917-.984-.19-.01-.365.005-.469.039" fill-rule="evenodd" fill="#000" stroke="none"/></svg>