<svg xmlns="http://www.w3.org/2000/svg" width="24" height="24" fill="none" stroke="currentColor" stroke-width="2" stroke-linecap="round" stroke-linejoin="round"><path d="M6.499 1.043c-1.12.19-2.038 1.005-2.385 2.117l-.094.3v17.08l.094.3a3.086 3.086 0 0 0 2.046 2.046l.3.094h11.08l.3-.094a3.086 3.086 0 0 0 2.046-2.046l.094-.3V3.46l-.094-.3a3.089 3.089 0 0 0-2.025-2.039l-.321-.101-5.42-.006c-2.981-.003-5.511.01-5.621.029M17.31 3.061c.279.083.546.35.629.629.054.18.061 1.17.061 8.311 0 6.753-.009 8.137-.055 8.289a1.02 1.02 0 0 1-.461.582l-.184.108H6.7l-.184-.108a1.199 1.199 0 0 1-.291-.249c-.24-.315-.225.265-.225-8.601 0-9.134-.026-8.39.304-8.719.317-.318-.07-.297 5.679-.3 4.475-.003 5.148.005 5.327.058m-5.002 3.955c-.061.027-.176.11-.255.185-.156.147-2.897 4.232-3.018 4.497-.091.2-.096.506-.011.684.035.074.144.209.242.299.319.294.331.297 1.663.319l1.19.02-.874 1.314c-.481.723-.895 1.382-.92 1.465-.102.34-.002.654.286.901.488.418.984.453 1.345.095.199-.197 2.923-4.297 2.994-4.507.123-.359-.01-.903-.264-1.084-.245-.174-.304-.182-1.575-.203l-1.23-.021.874-1.314c.481-.723.895-1.382.92-1.465.11-.368-.002-.671-.35-.944-.35-.275-.735-.366-1.017-.241" fill-rule="evenodd" fill="#000" stroke="none"/></svg>