<svg xmlns="http://www.w3.org/2000/svg" width="24" height="24" fill="none" stroke="currentColor" stroke-width="2" stroke-linecap="round" stroke-linejoin="round"><path d="M11.614 1.057a.814.814 0 0 0-.505.396c-.088.165-.089.187-.1 2.144l-.012 1.977-1.228-1.222C9 3.587 8.477 3.098 8.372 3.045c-.352-.177-.733-.087-1.073.254-.347.347-.436.712-.259 1.064.061.121.695.785 2.024 2.118L11 8.422V11H8.422L6.481 9.064C5.209 7.796 4.482 7.1 4.372 7.044c-.352-.176-.733-.085-1.073.255-.347.347-.436.712-.259 1.064.059.116.508.598 1.313 1.407L5.577 11H3.695c-2.006 0-2.106.008-2.373.199-.222.158-.302.369-.302.801 0 .331.013.403.1.558.11.197.294.34.515.401.088.025.895.041 2.044.041h1.898l-1.224 1.23c-.805.809-1.254 1.291-1.313 1.407-.177.352-.088.717.259 1.064.347.347.712.436 1.064.259.121-.061.785-.695 2.118-2.024L8.422 13H11v2.578l-1.936 1.941c-1.329 1.333-1.963 1.997-2.024 2.118-.177.352-.088.717.259 1.064.347.347.712.436 1.064.259.116-.059.598-.508 1.407-1.313L11 18.423v1.898c0 1.149.016 1.956.041 2.044.107.385.396.597.855.626.485.031.803-.109.984-.433l.1-.178.012-1.977.012-1.977 1.228 1.223c.807.803 1.289 1.252 1.405 1.311.352.177.717.088 1.064-.259.347-.347.436-.712.259-1.064-.061-.121-.695-.785-2.024-2.118L13 15.578V13h2.578l1.941 1.936c1.333 1.329 1.997 1.963 2.118 2.024.352.177.717.088 1.064-.259.347-.347.436-.712.259-1.064-.059-.116-.508-.598-1.313-1.407L18.423 13h1.898c1.149 0 1.956-.016 2.044-.041a.842.842 0 0 0 .515-.401c.087-.156.1-.226.099-.558-.001-.433-.081-.645-.301-.801-.267-.191-.367-.199-2.373-.199h-1.882l1.224-1.23c.805-.809 1.254-1.291 1.313-1.407.177-.352.088-.717-.259-1.064-.34-.34-.721-.431-1.073-.255-.11.056-.837.752-2.109 2.02L15.578 11H13V8.422l1.936-1.941c1.329-1.333 1.963-1.997 2.024-2.118.177-.352.088-.717-.259-1.064-.34-.341-.721-.431-1.073-.254-.105.053-.628.542-1.396 1.306l-1.228 1.223-.012-1.977c-.012-1.957-.013-1.979-.101-2.144a.874.874 0 0 0-.213-.254c-.264-.189-.721-.249-1.064-.142" fill-rule="evenodd" fill="#000" stroke="none"/></svg>