<svg xmlns="http://www.w3.org/2000/svg" width="24" height="24" fill="none" stroke="currentColor" stroke-width="2" stroke-linecap="round" stroke-linejoin="round"><path d="M5.614 3.057a.814.814 0 0 0-.505.396l-.089.167-.01 6.977-.011 6.977-.729-.721c-.414-.41-.803-.759-.898-.808-.351-.177-.732-.087-1.073.254-.347.346-.436.711-.26 1.064.124.247 3.351 3.474 3.598 3.598a.807.807 0 0 0 .726 0c.247-.124 3.474-3.351 3.598-3.598.176-.353.087-.718-.26-1.064-.341-.341-.722-.431-1.073-.254-.095.049-.484.398-.897.807l-.73.722-.01-6.977L6.98 3.62l-.089-.167a.874.874 0 0 0-.213-.254c-.264-.189-.721-.249-1.064-.142m5 1a.814.814 0 0 0-.505.396c-.074.139-.089.231-.089.547 0 .331.013.403.1.558.11.197.294.34.515.401.199.056 10.531.056 10.73 0a.842.842 0 0 0 .515-.401c.087-.156.1-.226.099-.558-.001-.433-.081-.645-.301-.801-.288-.205-.113-.199-5.694-.196-4.154.002-5.238.013-5.37.054m0 4a.814.814 0 0 0-.505.396c-.074.139-.089.231-.089.547 0 .331.013.403.1.558.11.197.294.34.515.401.198.055 7.532.055 7.73 0a.842.842 0 0 0 .515-.401c.087-.156.1-.226.099-.558-.001-.433-.081-.645-.301-.801-.283-.202-.229-.199-4.194-.196-2.923.002-3.739.013-3.87.054m0 4a.814.814 0 0 0-.505.396c-.074.139-.089.231-.089.547 0 .331.013.403.1.558.11.197.294.34.515.401.196.055 4.534.055 4.73 0a.842.842 0 0 0 .515-.401c.087-.156.1-.226.099-.558-.001-.433-.081-.645-.301-.801-.272-.194-.342-.199-2.694-.196-1.691.002-2.243.014-2.37.054" fill-rule="evenodd" fill="#000" stroke="none"/></svg>