<svg xmlns="http://www.w3.org/2000/svg" width="24" height="24" fill="none" stroke="currentColor" stroke-width="2" stroke-linecap="round" stroke-linejoin="round"><path d="M18.323 3.042c-1.997.191-3.404.781-4.584 1.924-.296.287-.507.531-.611.706a7.91 7.91 0 0 0-1.113 3.601c-.02.367-.043.475-.164.767-.078.187-.145.344-.149.35a2.893 2.893 0 0 1-.222-.3c-.325-.471-.732-.942-1.05-1.216-1.497-1.288-3.517-1.718-6.194-1.318-.538.08-.826.182-1.01.356-.3.286-.316.597-.067 1.33.709 2.093 1.748 3.518 3.149 4.32a6.356 6.356 0 0 0 2.306.76c.494.061 1.714.03 2.326-.061.242-.035.474-.068.517-.073.067-.007.085.044.148.432.335 2.041.229 2.73-.537 3.506-.233.235-.738.59-1.097.77L9.763 19H8.288c-1.57 0-1.707.014-1.966.199-.222.158-.302.369-.302.801 0 .331.013.403.1.558a.841.841 0 0 0 .527.404c.208.056 10.505.054 10.713-.002a.838.838 0 0 0 .52-.402c.087-.156.1-.226.099-.558-.001-.433-.081-.645-.301-.801-.27-.193-.35-.199-2.605-.199h-2.114l.143-.208c.335-.488.572-1.15.66-1.849.065-.518.03-1.257-.101-2.123-.236-1.553-.268-1.848-.27-2.42-.002-.46.014-.646.08-.9.091-.354.156-.54.188-.54.077 0 .894-.132 1.141-.185 1.417-.301 2.705-.933 3.374-1.655 1.11-1.2 1.704-2.779 1.811-4.82.037-.705-.066-.983-.433-1.172-.222-.114-.633-.143-1.229-.086M17.88 5.17c-.001.126-.203.918-.298 1.17a4.397 4.397 0 0 1-.831 1.372c-.438.482-1.419.925-2.541 1.149-.16.031-.163.003-.053-.47.112-.478.26-.87.516-1.366.193-.374.266-.472.519-.7.647-.583 1.371-.942 2.307-1.146.313-.068.381-.07.381-.009M6.7 9.441c1.683.158 2.723.89 3.543 2.492.097.188.162.355.146.371-.053.053-1.239.068-1.604.019-.922-.123-1.794-.574-2.388-1.236a6.679 6.679 0 0 1-.444-.585c-.229-.341-.553-.938-.553-1.018 0-.086.625-.106 1.3-.043" fill-rule="evenodd" fill="#000" stroke="none"/></svg>