<svg xmlns="http://www.w3.org/2000/svg" width="24" height="24" fill="none" stroke="currentColor" stroke-width="2" stroke-linecap="round" stroke-linejoin="round"><path d="M11.559 1.052c-.095.05-.223.153-.284.23-.061.076-.744 1.47-1.518 3.098a255.476 255.476 0 0 1-1.432 2.987c-.014.015-1.492.237-3.285.492-1.793.255-3.318.483-3.389.505-.183.059-.51.367-.611.577a.776.776 0 0 0 .006.727c.074.146.635.708 2.345 2.352a652.384 652.384 0 0 1 2.388 2.301l.141.14-.562 3.22c-.589 3.372-.602 3.479-.456 3.764.257.503.671.7 1.129.538.261-.092 6.451-3.3 6.656-3.449.357-.26.441-.654.237-1.114-.235-.53-.623-.749-1.099-.617-.085.024-1.163.564-2.396 1.201-1.232.637-2.25 1.148-2.262 1.136-.012-.012.172-1.14.41-2.507.286-1.642.425-2.54.412-2.649-.044-.352-.092-.406-1.972-2.212-1.758-1.69-1.819-1.753-1.71-1.782.062-.016 1.201-.184 2.531-.373 1.33-.188 2.482-.369 2.56-.402.217-.091.394-.285.563-.62.402-.793 2.963-6.213 3.022-6.393.169-.516-.099-.946-.725-1.166-.285-.1-.488-.096-.699.016" fill-rule="evenodd" fill="#000" stroke="none"/></svg>