<svg xmlns="http://www.w3.org/2000/svg" width="24" height="24" fill="none" stroke="currentColor" stroke-width="2" stroke-linecap="round" stroke-linejoin="round"><path d="M11.563 1.048a1.097 1.097 0 0 0-.288.234c-.061.076-.761 1.461-1.557 3.078a256.43 256.43 0 0 1-1.473 2.967c-.014.015-1.465.236-3.225.491-1.76.256-3.28.494-3.378.53-.517.189-.837.835-.621 1.255.112.217.193.299 2.609 2.653 1.26 1.227 2.29 2.236 2.29 2.242 0 .006-.245 1.431-.544 3.166-.299 1.736-.544 3.258-.544 3.382-.001.425.325.878.715.995.326.098.13.187 3.805-1.746 1.436-.756 2.628-1.375 2.648-1.375.021 0 1.203.614 2.627 1.364 1.424.75 2.731 1.434 2.903 1.521.416.209.637.25.937.172.501-.13.714-.394.707-.877-.002-.161-.237-1.627-.549-3.436-.3-1.735-.545-3.16-.545-3.166 0-.006 1.04-1.024 2.31-2.263 1.271-1.238 2.357-2.315 2.414-2.393.144-.196.196-.372.195-.658-.001-.45-.244-.761-.67-.86a182.68 182.68 0 0 0-3.369-.507c-1.749-.255-3.192-.475-3.206-.49A259.96 259.96 0 0 1 14.302 4.4c-.785-1.595-1.477-2.963-1.538-3.04-.155-.194-.497-.362-.788-.387-.197-.017-.265-.004-.413.075m1.585 5.542c1.208 2.447 1.245 2.507 1.599 2.608.084.024 1.26.207 2.612.406 1.353.198 2.463.365 2.468.37.005.005-.823.819-1.839 1.81-1.653 1.611-1.855 1.822-1.918 1.999-.039.108-.07.256-.07.328 0 .072.189 1.232.419 2.577.231 1.346.412 2.454.403 2.464-.01.009-1.013-.506-2.23-1.145-1.216-.639-2.298-1.183-2.402-1.209a.664.664 0 0 0-.38 0c-.105.026-1.186.57-2.403 1.209-1.216.639-2.22 1.153-2.23 1.143-.01-.009.172-1.117.403-2.461.231-1.343.42-2.503.42-2.576 0-.073-.031-.222-.07-.33-.063-.177-.265-.388-1.918-1.999a136.728 136.728 0 0 1-1.839-1.81c.004-.005 1.115-.171 2.468-.37 1.352-.199 2.527-.382 2.611-.406.351-.099.413-.201 1.611-2.628.611-1.237 1.122-2.25 1.137-2.25.014 0 .531 1.022 1.148 2.27" fill="#000" fill-rule="evenodd" stroke="none"/></svg>