<svg xmlns="http://www.w3.org/2000/svg" width="24" height="24" fill="none" stroke="currentColor" stroke-width="2" stroke-linecap="round" stroke-linejoin="round"><path d="M3.499 3.043C2.38 3.232 1.461 4.048 1.114 5.16c-.092.293-.094.337-.094 1.84 0 1.503.002 1.547.094 1.84a3.086 3.086 0 0 0 2.046 2.046l.3.094h17.08l.3-.094a3.086 3.086 0 0 0 2.046-2.046c.092-.293.094-.337.094-1.84 0-1.503-.002-1.547-.094-1.84a3.089 3.089 0 0 0-2.025-2.039l-.321-.101-8.42-.006c-4.631-.003-8.511.01-8.621.029M20.31 5.061c.279.083.546.35.629.629.084.282.089 2.325.006 2.6a1.02 1.02 0 0 1-.461.582l-.184.108H3.7l-.184-.108a1.051 1.051 0 0 1-.458-.556c-.086-.245-.084-2.334.003-2.626.079-.269.351-.547.612-.627.16-.049 1.357-.058 8.31-.06 7.161-.003 8.147.004 8.327.058M3.499 13.043c-1.119.189-2.038 1.005-2.385 2.117-.092.293-.094.337-.094 1.84 0 1.503.002 1.547.094 1.84a3.086 3.086 0 0 0 2.046 2.046l.3.094h17.08l.3-.094a3.086 3.086 0 0 0 2.046-2.046c.092-.293.094-.337.094-1.84 0-1.503-.002-1.547-.094-1.84a3.089 3.089 0 0 0-2.025-2.039l-.321-.101-8.42-.006c-4.631-.003-8.511.01-8.621.029m16.811 2.018c.279.083.546.35.629.629.084.282.089 2.325.006 2.6a1.02 1.02 0 0 1-.461.582l-.184.108H3.7l-.184-.108a1.199 1.199 0 0 1-.291-.249C3.014 18.347 3 18.245 3 17.022c0-1.324.019-1.435.301-1.716.326-.326-.448-.299 8.662-.303 7.179-.003 8.167.004 8.347.058" fill="#000" fill-rule="evenodd" stroke="none"/></svg>