<svg xmlns="http://www.w3.org/2000/svg" width="24" height="24" fill="none" stroke="currentColor" stroke-width="2" stroke-linecap="round" stroke-linejoin="round"><path d="M5.499 1.042A3.047 3.047 0 0 0 3.114 3.16l-.094.3v17.08l.094.3a3.086 3.086 0 0 0 2.046 2.046c.293.092.337.094 1.84.094 1.503 0 1.547-.002 1.84-.094a3.086 3.086 0 0 0 2.046-2.046l.094-.3V3.46l-.094-.3a3.077 3.077 0 0 0-2.025-2.036c-.313-.097-.357-.1-1.741-.109-.781-.005-1.511.007-1.621.027m10 0a3.047 3.047 0 0 0-2.385 2.118l-.094.3v17.08l.094.3a3.086 3.086 0 0 0 2.046 2.046c.293.092.337.094 1.84.094 1.503 0 1.547-.002 1.84-.094a3.086 3.086 0 0 0 2.046-2.046l.094-.3V3.46l-.094-.3a3.077 3.077 0 0 0-2.025-2.036c-.313-.097-.357-.1-1.741-.109-.781-.005-1.511.007-1.621.027M8.31 3.061c.279.083.546.35.629.629.054.18.061 1.17.061 8.311 0 6.753-.009 8.137-.055 8.289a1.02 1.02 0 0 1-.461.582l-.184.108H5.7l-.184-.108a1.199 1.199 0 0 1-.291-.249c-.24-.315-.225.265-.225-8.601 0-9.134-.026-8.39.304-8.719.28-.281.371-.297 1.679-.3.895-.002 1.164.009 1.327.058m10 0c.279.083.546.35.629.629.054.18.061 1.17.061 8.311 0 6.753-.009 8.137-.055 8.289a1.02 1.02 0 0 1-.461.582l-.184.108h-2.6l-.184-.108a1.199 1.199 0 0 1-.291-.249c-.24-.315-.225.265-.225-8.601 0-9.134-.026-8.39.304-8.719.28-.281.371-.297 1.679-.3.895-.002 1.164.009 1.327.058" fill="#000" fill-rule="evenodd" stroke="none"/></svg>