<svg xmlns="http://www.w3.org/2000/svg" width="24" height="24" fill="none" stroke="currentColor" stroke-width="2" stroke-linecap="round" stroke-linejoin="round"><path d="M8.46 3.045c-.651.08-1.473.438-2 .87-.66.542-1.1 1.245-1.348 2.158-.128.468-.126 1.375.002 1.867.232.882.554 1.182 1.143 1.062.57-.116.943-.467.943-.887a3.32 3.32 0 0 0-.1-.499c-.155-.596-.125-.994.111-1.496.154-.327.557-.737.876-.89.493-.237.355-.23 4.411-.23 2.37 0 3.775-.015 3.867-.041a.842.842 0 0 0 .515-.401c.087-.156.1-.226.099-.558-.001-.433-.081-.645-.301-.801-.283-.202-.226-.199-4.214-.194-2.048.003-3.85.021-4.004.04m-4.846 8.012c-.391.123-.575.379-.605.843-.031.481.11.799.433.98l.178.1 5.46.02 5.46.02.321.101a3.076 3.076 0 0 1 2.014 2.018c.083.273.098.403.098.861 0 .458-.015.588-.098.861-.29.95-1.032 1.696-2.015 2.025l-.28.093-4.461.021-4.461.02-.199.102c-.34.175-.481.484-.45.982.03.463.244.752.636.857.101.028 1.643.037 4.604.028 4.102-.012 4.475-.018 4.751-.084 1.543-.366 2.756-1.291 3.433-2.617.405-.794.547-1.389.547-2.288 0-.67-.058-1.043-.248-1.6a5.663 5.663 0 0 0-.577-1.17l-.156-.23h1.111c.62 0 1.174-.018 1.255-.041a.842.842 0 0 0 .515-.401c.087-.156.1-.226.099-.558-.001-.433-.081-.645-.301-.801-.292-.209.121-.199-8.694-.196-6.617.002-8.236.012-8.37.054" fill-rule="evenodd" fill="#000" stroke="none"/></svg>