<svg xmlns="http://www.w3.org/2000/svg" width="24" height="24" fill="none" stroke="currentColor" stroke-width="2" stroke-linecap="round" stroke-linejoin="round"><path d="M3.626 4.045c-.206.109-.48.388-.588.599a.792.792 0 0 0 .002.719c.06.12.639.729 1.813 1.907L6.578 9l-1.725 1.73C3.679 11.908 3.1 12.517 3.04 12.637c-.177.352-.088.717.259 1.064.347.347.712.436 1.064.259.12-.06.729-.639 1.907-1.813L8 10.422l1.73 1.725c1.178 1.174 1.787 1.753 1.907 1.813.352.177.717.088 1.064-.259.347-.347.436-.712.259-1.064-.06-.12-.639-.729-1.813-1.907L9.422 9l1.725-1.73c1.174-1.178 1.753-1.787 1.813-1.907.177-.352.088-.717-.259-1.064-.34-.34-.721-.431-1.073-.255-.109.055-.775.69-1.898 1.809L8 7.578 6.27 5.853C5.147 4.734 4.481 4.099 4.372 4.044a.884.884 0 0 0-.746.001m13.688 7.013c-.606.127-1.078.388-1.556.862-.281.278-.378.407-.528.707-.31.621-.335.996-.087 1.32.136.179.55.375.853.402.458.041.716-.136.943-.651.121-.274.292-.468.521-.591.228-.122.733-.122.96 0 .314.169.58.553.58.839 0 .331-.277.714-.733 1.014-.136.089-.587.335-1.002.547-1.163.592-1.591.959-1.913 1.642-.233.494-.324.953-.328 1.651-.004.548.002.59.096.758.11.197.294.34.515.401.196.055 4.534.055 4.73 0a.842.842 0 0 0 .515-.401c.087-.156.1-.226.099-.558-.002-.531-.127-.754-.524-.929-.084-.037-.545-.056-1.713-.071l-1.597-.02.131-.149c.091-.104.313-.241.734-.455 1.197-.606 1.707-.937 2.133-1.383.428-.449.652-.841.777-1.363.367-1.529-.603-3.097-2.181-3.528-.333-.091-1.091-.114-1.425-.044" fill-rule="evenodd" fill="#000" stroke="none"/></svg>