<svg xmlns="http://www.w3.org/2000/svg" width="24" height="24" fill="none" stroke="currentColor" stroke-width="2" stroke-linecap="round" stroke-linejoin="round"><path d="M11.614 1.057a.814.814 0 0 0-.505.396c-.086.161-.089.212-.101 1.455-.008.812.003 1.346.03 1.444.106.395.394.609.858.639.485.031.803-.109.984-.433l.1-.178V3c0-1.35-.002-1.384-.089-1.547a.874.874 0 0 0-.213-.254c-.264-.189-.721-.249-1.064-.142M4.626 4.045c-.369.194-.675.628-.675.955 0 .326.115.478 1.123 1.484 1.039 1.037 1.138 1.108 1.51 1.066.255-.029.592-.267.796-.564.144-.211.16-.258.16-.481 0-.209-.019-.277-.128-.446-.177-.277-1.83-1.908-2.04-2.014a.877.877 0 0 0-.746 0m13.994.001c-.245.127-1.997 1.893-2.097 2.114-.165.366-.072.702.294 1.058.382.374.749.435 1.132.189.28-.18 1.901-1.829 2.011-2.044.177-.352.088-.717-.259-1.064-.34-.34-.734-.432-1.081-.253M11.4 7.044c-1.639.185-3.139 1.246-3.874 2.741-.368.748-.506 1.351-.506 2.215 0 .67.058 1.044.248 1.6.578 1.691 1.985 2.925 3.772 3.307.471.101 1.449.101 1.92 0 1.528-.327 2.788-1.277 3.473-2.619.405-.794.547-1.389.547-2.288 0-.899-.142-1.494-.547-2.287a5.022 5.022 0 0 0-3.193-2.551 5.223 5.223 0 0 0-1.84-.118m1.461 2.085c.943.276 1.723 1.054 2.014 2.01.083.273.098.403.098.861 0 .458-.015.588-.098.861a3.073 3.073 0 0 1-2.035 2.025c-.434.135-1.246.135-1.68 0a3.073 3.073 0 0 1-2.035-2.025c-.083-.273-.098-.403-.098-.861 0-.458.015-.588.098-.861a3.042 3.042 0 0 1 2.374-2.099c.333-.06 1.001-.017 1.362.089M1.614 11.057a.814.814 0 0 0-.505.396c-.074.139-.089.231-.089.547 0 .331.013.403.1.558.11.197.294.34.515.401.191.053 2.539.053 2.73 0a.842.842 0 0 0 .515-.401c.087-.156.1-.226.099-.558-.001-.313-.017-.409-.089-.547-.104-.197-.267-.322-.519-.398-.254-.076-2.512-.074-2.757.002m18 0a.814.814 0 0 0-.505.396c-.074.139-.089.231-.089.547 0 .331.013.403.1.558.11.197.294.34.515.401.191.053 2.539.053 2.73 0a.842.842 0 0 0 .515-.401c.087-.156.1-.226.099-.558-.001-.313-.017-.409-.089-.547-.104-.197-.267-.322-.519-.398-.254-.076-2.512-.074-2.757.002M6.26 16.487c-.234.088-.45.275-1.285 1.119-.522.528-.879.922-.935 1.031-.177.352-.088.717.259 1.064.347.347.712.436 1.064.259.216-.11 1.865-1.732 2.045-2.013.247-.384.178-.765-.206-1.148-.297-.296-.662-.417-.942-.312m11 0c-.438.164-.821.642-.819 1.022.002.312.12.468 1.091 1.437.596.594.992.957 1.105 1.014.352.177.717.088 1.064-.259.347-.347.436-.712.259-1.064-.119-.238-1.879-1.996-2.098-2.096-.198-.091-.445-.113-.602-.054m-5.646 2.57a.814.814 0 0 0-.505.396c-.086.161-.089.212-.101 1.455-.008.812.003 1.346.03 1.444.106.395.394.609.858.639.485.031.803-.109.984-.433l.1-.178V21c0-1.35-.002-1.384-.089-1.547a.874.874 0 0 0-.213-.254c-.264-.189-.721-.249-1.064-.142" fill-rule="evenodd" fill="#000" stroke="none"/></svg>