<svg xmlns="http://www.w3.org/2000/svg" width="24" height="24" fill="none" stroke="currentColor" stroke-width="2" stroke-linecap="round" stroke-linejoin="round"><path d="M11.53 1.083c-.137.067-.281.169-.32.228-.038.058-.973 1.016-2.076 2.128C7.766 4.818 7.101 5.516 7.04 5.637c-.177.352-.088.717.259 1.064.347.347.712.436 1.064.259.116-.059.598-.508 1.407-1.313L11 4.423v2.898c0 1.819.015 2.953.041 3.044.107.385.396.597.855.626.485.031.803-.109.984-.433l.1-.178.011-2.977.011-2.978 1.229 1.223c.808.804 1.29 1.253 1.406 1.312.352.177.717.088 1.064-.259.347-.347.436-.712.259-1.064-.061-.121-.726-.819-2.094-2.198-1.103-1.112-2.038-2.07-2.077-2.129-.038-.058-.185-.161-.325-.228-.344-.164-.593-.164-.934.001m-6.704 9.162c-.206.109-.48.388-.588.599a.792.792 0 0 0 .002.719c.121.241 1.756 1.876 1.997 1.997.352.177.717.088 1.064-.259.347-.347.436-.712.259-1.064-.117-.234-1.756-1.876-1.988-1.993a.884.884 0 0 0-.746.001m13.594.001c-.227.117-1.868 1.768-1.98 1.991-.177.352-.088.717.259 1.064.347.347.712.436 1.064.259.241-.121 1.876-1.756 1.997-1.997.177-.352.088-.717-.259-1.064-.34-.34-.734-.432-1.081-.253m-7.02 2.798c-1.639.185-3.139 1.246-3.874 2.741a4.927 4.927 0 0 0-.515 1.975c-.031.631.082.926.427 1.116.206.114.651.157.906.089.452-.123.604-.363.659-1.042.021-.264.08-.621.129-.792.27-.932 1.054-1.716 2.007-2.006.273-.083.403-.098.861-.098.458 0 .588.015.861.098.954.291 1.737 1.074 2.008 2.009.052.181.106.518.126.788.028.377.054.506.13.643.161.291.45.435.875.435.428 0 .713-.144.88-.442.092-.164.1-.218.099-.678-.002-1.801-1.092-3.518-2.766-4.355a4.976 4.976 0 0 0-2.813-.481m-9.786 4.013a.814.814 0 0 0-.505.396c-.074.139-.089.231-.089.547 0 .331.013.403.1.558.11.197.294.34.515.401.191.053 2.539.053 2.73 0a.842.842 0 0 0 .515-.401c.087-.156.1-.226.099-.558-.001-.313-.017-.409-.089-.547-.104-.197-.267-.322-.519-.398-.254-.076-2.512-.074-2.757.002m18 0a.814.814 0 0 0-.505.396c-.074.139-.089.231-.089.547 0 .331.013.403.1.558.11.197.294.34.515.401.191.053 2.539.053 2.73 0a.842.842 0 0 0 .515-.401c.087-.156.1-.226.099-.558-.001-.313-.017-.409-.089-.547-.104-.197-.267-.322-.519-.398-.254-.076-2.512-.074-2.757.002m-18 4a.814.814 0 0 0-.505.396c-.074.139-.089.231-.089.547 0 .331.013.403.1.558.11.197.294.34.515.401.2.056 20.53.056 20.73 0a.842.842 0 0 0 .515-.401c.087-.156.1-.226.099-.558-.001-.433-.081-.645-.301-.801-.294-.21.277-.199-10.694-.196-8.259.002-10.236.012-10.37.054" fill-rule="evenodd" fill="#000" stroke="none"/></svg>