<svg xmlns="http://www.w3.org/2000/svg" width="24" height="24" fill="none" stroke="currentColor" stroke-width="2" stroke-linecap="round" stroke-linejoin="round"><path d="M17.38 4.057c-.95.188-1.76.783-2.154 1.583-.233.474-.297.765-.225 1.024.1.358.537.644 1.047.686.18.015.266.001.409-.069.206-.099.295-.209.484-.597.207-.426.584-.684.999-.684.395 0 .797.258.966.62.169.361.11.632-.212.979-.257.278-.598.492-1.526.96-1.053.53-1.501.923-1.816 1.59-.233.494-.324.953-.328 1.651-.004.548.002.59.096.758.11.197.294.34.515.401.089.025 1 .041 2.365.041 1.365 0 2.276-.016 2.365-.041a.842.842 0 0 0 .515-.401c.087-.156.1-.226.099-.558-.002-.531-.127-.754-.524-.929-.084-.037-.545-.056-1.713-.071l-1.597-.02.127-.145c.091-.103.366-.268.958-.573.963-.497 1.394-.773 1.781-1.138.702-.662 1.023-1.407.976-2.264-.038-.692-.244-1.23-.663-1.728-.43-.513-1.017-.89-1.604-1.031-.374-.09-1.003-.111-1.34-.044M3.626 10.045c-.206.109-.48.388-.588.599a.792.792 0 0 0 .002.719c.06.12.639.729 1.813 1.907L6.578 15l-1.725 1.73C3.679 17.908 3.1 18.517 3.04 18.637c-.177.352-.088.717.259 1.064.347.347.712.436 1.064.259.12-.06.729-.639 1.907-1.813L8 16.422l1.73 1.725c1.178 1.174 1.787 1.753 1.907 1.813.352.177.717.088 1.064-.259.347-.347.436-.712.259-1.064-.06-.12-.639-.729-1.813-1.907L9.422 15l1.725-1.73c1.174-1.178 1.753-1.787 1.813-1.907.177-.352.088-.717-.259-1.064-.34-.34-.721-.431-1.073-.255-.109.055-.775.69-1.898 1.809L8 13.578l-1.73-1.725c-1.123-1.119-1.789-1.754-1.898-1.809a.884.884 0 0 0-.746.001" fill-rule="evenodd" fill="#000" stroke="none"/></svg>