<svg xmlns="http://www.w3.org/2000/svg" width="24" height="24" fill="none" stroke="currentColor" stroke-width="2" stroke-linecap="round" stroke-linejoin="round"><path d="M9.614 2.057a.814.814 0 0 0-.505.396l-.089.167-.01 6.19L8.999 15H7.406c-1.696 0-1.822.012-2.084.199-.222.158-.302.369-.302.801 0 .331.013.403.1.558.11.197.294.34.515.401.086.024.8.041 1.755.041H9v2.11c0 1.29.016 2.166.041 2.255.107.385.396.597.855.626.485.031.803-.109.984-.433l.1-.178.012-2.19.011-2.19h2.109c1.289 0 2.164-.016 2.253-.041a.842.842 0 0 0 .515-.401c.087-.156.1-.226.099-.558-.001-.433-.081-.645-.301-.801-.27-.193-.352-.199-2.584-.199H11v-4.477l3.15-.011c3.501-.013 3.307.002 3.601-.283.232-.225.314-.716.189-1.137a.827.827 0 0 0-.527-.529c-.102-.028-1.2-.043-3.283-.043H11V4h3.61c2.295 0 3.663-.015 3.755-.041a.842.842 0 0 0 .515-.401c.087-.156.1-.226.099-.558-.001-.433-.081-.645-.301-.801-.285-.203-.191-.199-4.694-.196-3.333.002-4.238.013-4.37.054" fill-rule="evenodd" fill="#000" stroke="none"/></svg>