<svg xmlns="http://www.w3.org/2000/svg" width="24" height="24" fill="none" stroke="currentColor" stroke-width="2" stroke-linecap="round" stroke-linejoin="round"><path d="M5.626 1.045c-.369.194-.675.628-.675.955 0 .307.128.488.899 1.267l.72.727-1.555.015c-1.521.015-1.562.017-1.876.114A3.08 3.08 0 0 0 1.114 6.16l-.094.3v11.08l.094.3c.304.976 1.035 1.714 2.026 2.046l.28.094 3.891.011c2.581.008 3.942-.002 4.044-.03a.841.841 0 0 0 .525-.403c.087-.156.1-.226.099-.558-.002-.531-.127-.753-.524-.929-.089-.04-.962-.055-3.935-.071l-3.82-.02-.184-.108a1.199 1.199 0 0 1-.291-.249C2.988 17.312 3 17.608 3 12.022c0-5.782-.02-5.395.303-5.719.291-.291.37-.303 1.932-.303h1.34l-.722.73c-.433.438-.758.801-.812.907-.178.351-.089.717.258 1.064.347.347.712.436 1.064.259.117-.059.688-.595 1.699-1.595.837-.828 1.572-1.539 1.635-1.581.153-.102.352-.546.352-.784 0-.255-.198-.679-.373-.799-.075-.051-.811-.763-1.636-1.583-.955-.948-1.561-1.52-1.668-1.574a.88.88 0 0 0-.746.001m6.988 3.012a.815.815 0 0 0-.505.396c-.074.139-.089.231-.089.547 0 .331.013.403.1.558.11.197.294.34.515.401.092.026 1.477.041 3.808.041 4.146 0 3.936-.015 4.254.303.323.324.303-.06.303 5.698 0 4.211-.01 5.138-.055 5.289a1.02 1.02 0 0 1-.461.582l-.184.108-1.44.012-1.439.012.724-.732c.435-.439.76-.803.814-.909.178-.351.089-.717-.258-1.064-.34-.34-.721-.431-1.073-.255-.107.054-.713.626-1.668 1.574-.825.82-1.561 1.532-1.636 1.583-.175.12-.373.544-.373.799 0 .238.199.682.352.784.063.042.798.753 1.635 1.581 1.011 1 1.582 1.536 1.699 1.595.352.177.717.088 1.064-.259.347-.347.436-.713.258-1.064-.054-.106-.378-.468-.809-.904l-.72-.727 1.575-.015c1.515-.014 1.586-.018 1.855-.107a3.106 3.106 0 0 0 2.026-2.044l.094-.3V6.46l-.094-.3a3.089 3.089 0 0 0-2.025-2.039l-.321-.101-3.88-.008c-3.118-.006-3.913.002-4.046.045m-1.256 4.004c-1.128.176-2.215.913-2.789 1.892a3.992 3.992 0 0 0 1.943 5.751 3.988 3.988 0 0 0 5.192-2.216 3.963 3.963 0 0 0 .001-2.972 3.978 3.978 0 0 0-3.1-2.458 3.728 3.728 0 0 0-1.247.003m1.165 2.012a2.011 2.011 0 0 1 1.444 1.617c.1.653-.094 1.243-.564 1.714-.401.403-.856.596-1.403.596-.515 0-.962-.178-1.347-.535-1.33-1.236-.464-3.46 1.347-3.46.143 0 .378.031.523.068" fill-rule="evenodd" fill="#000" stroke="none"/></svg>