<svg xmlns="http://www.w3.org/2000/svg" width="24" height="24" fill="none" stroke="currentColor" stroke-width="2" stroke-linecap="round" stroke-linejoin="round"><path d="M1.614 1.057a.814.814 0 0 0-.505.396l-.089.167V12.3l.107.18c.157.263 9.787 9.864 10.092 10.061.513.332 1.012.473 1.661.468a2.846 2.846 0 0 0 1.371-.334c.323-.164.402-.24 4.293-4.131s3.967-3.97 4.131-4.293c.233-.456.33-.854.334-1.371.005-.649-.135-1.148-.467-1.661-.105-.162-1.752-1.837-5.078-5.166-4.814-4.817-4.929-4.928-5.141-4.99-.193-.056-.792-.063-5.38-.06-4.121.002-5.197.013-5.329.054M16.207 7.63c2.836 2.838 4.659 4.692 4.71 4.789.112.215.112.612 0 .861-.062.14-.906 1.005-3.769 3.868-3.998 3.999-3.848 3.863-4.289 3.863-.443 0-.145.275-5.189-4.765L3 11.58V3h8.58l4.627 4.63M6.614 6.055c-.394.129-.575.382-.605.845-.031.481.11.799.433.98.155.087.227.1.558.1.312 0 .408-.016.54-.086C7.866 7.718 8 7.459 8 7c0-.643-.287-.952-.917-.984-.19-.01-.365.005-.469.039" fill-rule="evenodd" fill="#000" stroke="none"/></svg>