<svg xmlns="http://www.w3.org/2000/svg" width="24" height="24" fill="none" stroke="currentColor" stroke-width="2" stroke-linecap="round" stroke-linejoin="round"><path d="M9.708 3.037c-.238.095-.511.301-.63.474-.118.173-.146.47-.065.707.035.101.439.854.899 1.673.461.819.859 1.53.885 1.581.044.084-.23.587-3.164 5.809L4.42 18.998l-.804.001c-.854.001-1.06.033-1.294.2-.222.158-.302.369-.302.801 0 .331.013.403.1.558a.841.841 0 0 0 .527.404c.217.058 18.489.058 18.706 0a.841.841 0 0 0 .527-.404c.087-.156.1-.226.099-.558-.001-.433-.081-.645-.301-.801-.234-.167-.44-.199-1.294-.2l-.804-.001-3.213-5.717c-2.934-5.222-3.208-5.725-3.164-5.809.026-.051.424-.762.885-1.581.46-.819.864-1.572.899-1.673.129-.378.018-.705-.329-.971-.403-.309-.861-.367-1.176-.149-.189.132-.299.301-.965 1.492-.273.489-.506.889-.517.889-.011 0-.243-.4-.517-.889-.612-1.098-.798-1.383-.985-1.508-.197-.132-.528-.151-.79-.045m4.873 11.149c1.408 2.5 2.591 4.606 2.63 4.68l.071.134h-1.718l-1.257-2.095c-.692-1.153-1.278-2.157-1.302-2.231-.055-.165-.41-.534-.613-.638-.2-.102-.584-.102-.784 0-.209.107-.522.433-.612.637-.042.095-.637 1.108-1.322 2.25L8.428 19h-1.71l.071-.134C7.054 18.365 11.982 9.64 12 9.64c.013 0 1.174 2.046 2.581 4.546m-1.947 3.82c.312.521.566.957.566.97 0 .013-.548.024-1.218.024h-1.218l.608-1.017c.454-.76.619-1.005.652-.97.025.026.299.473.61.993" fill-rule="evenodd" fill="#000" stroke="none"/></svg>