<svg xmlns="http://www.w3.org/2000/svg" width="24" height="24" fill="none" stroke="currentColor" stroke-width="2" stroke-linecap="round" stroke-linejoin="round"><path d="M3.626 4.045c-.206.109-.48.388-.588.599a.795.795 0 0 0 .001.719c.063.124.903.993 2.814 2.907L8.579 11l-2.726 2.73c-1.911 1.914-2.751 2.783-2.814 2.907-.176.353-.087.717.26 1.064.346.346.711.436 1.064.26.25-.125 6.473-6.348 6.598-6.598a.896.896 0 0 0 .088-.363.896.896 0 0 0-.088-.363c-.121-.243-6.347-6.473-6.589-6.593a.884.884 0 0 0-.746.001m7.988 14.012a.814.814 0 0 0-.505.396c-.074.139-.089.231-.089.547 0 .331.013.403.1.558.11.197.294.34.515.401.198.055 8.532.055 8.73 0a.842.842 0 0 0 .515-.401c.087-.156.1-.226.099-.558-.001-.433-.081-.645-.301-.801-.285-.203-.191-.199-4.694-.196-3.333.002-4.238.013-4.37.054" fill="#000" fill-rule="evenodd" stroke="none"/></svg>