<svg xmlns="http://www.w3.org/2000/svg" width="24" height="24" fill="none" stroke="currentColor" stroke-width="2" stroke-linecap="round" stroke-linejoin="round"><path d="M17.499 1.04c-.657.119-1.106.359-1.603.856-.4.4-.6.717-.771 1.217l-.105.307-.011 5.28-.011 5.28-.137.094c-.206.141-.782.753-.972 1.032a5.056 5.056 0 0 0-.51 4.759c.272.676.609 1.164 1.175 1.702a5.046 5.046 0 0 0 2.506 1.32c.319.069 1.561.069 1.88 0 1.009-.219 1.798-.641 2.548-1.361 1.743-1.673 2.004-4.385.618-6.426-.186-.274-.763-.887-.967-1.026l-.137-.094-.011-5.28-.011-5.28-.094-.28c-.331-.986-1.086-1.737-2.025-2.011-.361-.106-1.029-.149-1.362-.089m-5.885 1.017a.814.814 0 0 0-.505.396c-.086.161-.089.212-.101 1.455-.008.812.003 1.346.03 1.444.106.395.394.609.858.639.485.031.803-.109.984-.433l.1-.178V4c0-1.35-.002-1.384-.089-1.547a.874.874 0 0 0-.213-.254c-.264-.189-.721-.249-1.064-.142m6.696 1.004c.279.083.546.35.629.629.053.179.061.885.061 5.588 0 3.368.015 5.433.039 5.518.065.226.208.399.481.58.351.233.565.417.784.671.208.242.542.905.622 1.233.078.319.066 1.117-.021 1.44a3.078 3.078 0 0 1-2.065 2.127c-.252.078-.387.093-.84.093-.453 0-.588-.015-.84-.093a3.076 3.076 0 0 1-2.065-2.127c-.085-.312-.098-1.164-.022-1.44.219-.796.648-1.39 1.343-1.859.335-.226.478-.39.545-.625.024-.085.039-2.15.039-5.516 0-3.745.014-5.428.044-5.536.117-.421.506-.728.939-.74.067-.002.215.023.327.057M4.826 5.245c-.206.109-.48.388-.588.599a.792.792 0 0 0 .002.719c.121.241 1.756 1.876 1.997 1.997.352.177.717.088 1.064-.259.347-.347.436-.712.259-1.064-.117-.234-1.756-1.876-1.988-1.993a.884.884 0 0 0-.746.001m6.614 2.781-.4.059c-1.218.18-2.525 1.037-3.263 2.14-.628.939-.964 2.295-.821 3.315.227 1.616 1.083 2.953 2.39 3.732.411.245.678.317.926.25.512-.138.924-.981.697-1.424-.102-.198-.185-.273-.611-.552-1.196-.78-1.689-2.142-1.262-3.486.251-.79.836-1.434 1.63-1.795.391-.178.6-.225 1.173-.262.702-.045.912-.173 1.047-.636.083-.287.057-.687-.061-.917-.101-.198-.311-.349-.565-.407-.171-.039-.666-.049-.88-.017m-9.826 4.031a.814.814 0 0 0-.505.396c-.074.139-.089.231-.089.547 0 .331.013.403.1.558.11.197.294.34.515.401.191.053 2.539.053 2.73 0a.842.842 0 0 0 .515-.401c.087-.156.1-.226.099-.558-.001-.313-.017-.409-.089-.547-.104-.197-.267-.322-.519-.398-.254-.076-2.512-.074-2.757.002m4.606 5.389c-.227.117-1.868 1.768-1.98 1.991-.177.352-.088.717.259 1.064.347.347.712.436 1.064.259.241-.121 1.876-1.756 1.997-1.997.177-.352.088-.717-.259-1.064-.34-.34-.734-.432-1.081-.253" fill-rule="evenodd" fill="#000" stroke="none"/></svg>