<svg xmlns="http://www.w3.org/2000/svg" width="24" height="24" fill="none" stroke="currentColor" stroke-width="2" stroke-linecap="round" stroke-linejoin="round"><path d="M17.499 1.04c-1.125.204-2.011.984-2.385 2.1l-.094.28-.011 5.28-.011 5.28-.137.094c-.206.141-.782.753-.972 1.032a5.056 5.056 0 0 0-.51 4.759c.272.676.609 1.164 1.175 1.702a5.046 5.046 0 0 0 2.506 1.32c.319.069 1.561.069 1.88 0 1.009-.219 1.798-.641 2.548-1.361 1.743-1.673 2.004-4.385.618-6.426-.186-.274-.763-.887-.967-1.026l-.137-.094-.011-5.28-.011-5.28-.094-.28c-.331-.986-1.086-1.737-2.025-2.011-.361-.106-1.029-.149-1.362-.089M8.614 3.057a.814.814 0 0 0-.505.396c-.087.163-.089.205-.101 1.643l-.012 1.476-.728-.721c-.412-.408-.801-.757-.896-.806-.351-.177-.732-.087-1.073.254-.347.347-.436.712-.259 1.064.06.118.563.653 1.525 1.618L8 9.422V11H6.422L4.981 9.565c-.918-.916-1.502-1.467-1.609-1.52-.352-.177-.733-.086-1.073.254-.347.347-.436.713-.258 1.064.054.106.379.469.812.907l.722.73h-.881c-.937 0-1.133.028-1.372.199-.222.158-.302.369-.302.801 0 .331.013.403.1.558.11.197.294.34.515.401.08.022.549.041 1.043.041h.897l-.722.73c-.433.438-.758.801-.812.907-.178.351-.089.717.258 1.064.347.347.712.436 1.064.259.118-.06.653-.563 1.618-1.525L6.422 13H8v1.578l-1.435 1.441c-.962.965-1.465 1.5-1.525 1.618-.177.352-.088.717.259 1.064.347.347.713.436 1.064.258.106-.054.469-.379.907-.812l.73-.722v1.397c0 .813.017 1.459.041 1.543.107.385.396.597.855.626.485.031.803-.109.984-.433l.1-.178.012-1.487.012-1.487.184.082a.69.69 0 0 0 .381.062c.42-.04.941-.563.981-.985.032-.333-.076-.496-.857-1.287L10 14.575V13h1.11c.62 0 1.174-.018 1.255-.041a.842.842 0 0 0 .515-.401c.087-.156.1-.226.099-.558-.001-.433-.081-.645-.301-.801-.248-.177-.422-.199-1.584-.199H10V9.422l1.435-1.441c.962-.965 1.465-1.5 1.525-1.618.177-.352.088-.717-.259-1.064-.341-.341-.722-.431-1.073-.254-.095.049-.483.398-.896.806l-.727.72-.013-1.476c-.012-1.437-.014-1.479-.101-1.642a.874.874 0 0 0-.213-.254c-.264-.189-.721-.249-1.064-.142m9.696.004c.279.083.546.35.629.629.053.179.061.885.061 5.588 0 3.368.015 5.433.039 5.518.065.226.208.399.481.58.351.233.565.417.784.671.208.242.542.905.622 1.233.078.319.066 1.117-.021 1.44a3.078 3.078 0 0 1-2.065 2.127c-.252.078-.387.093-.84.093-.453 0-.588-.015-.84-.093a3.076 3.076 0 0 1-2.065-2.127c-.085-.312-.098-1.164-.022-1.44.219-.796.648-1.39 1.343-1.859.335-.226.478-.39.545-.625.024-.085.039-2.15.039-5.518 0-6.068-.021-5.65.304-5.975.279-.279.612-.359 1.006-.242" fill-rule="evenodd" fill="#000" stroke="none"/></svg>