<svg xmlns="http://www.w3.org/2000/svg" width="24" height="24" fill="none" stroke="currentColor" stroke-width="2" stroke-linecap="round" stroke-linejoin="round"><path d="M11.499 1.04c-1.125.204-2.011.984-2.385 2.1l-.094.28-.011 5.28-.011 5.28-.137.094c-.206.141-.782.753-.972 1.032a5.056 5.056 0 0 0-.51 4.759c.272.676.609 1.164 1.175 1.702a5.046 5.046 0 0 0 2.506 1.32c.319.069 1.561.069 1.88 0 1.009-.219 1.798-.641 2.548-1.361 1.743-1.673 2.004-4.385.618-6.426-.186-.274-.763-.887-.967-1.026l-.137-.094-.011-5.28-.011-5.28-.094-.28c-.331-.986-1.086-1.737-2.025-2.011-.361-.106-1.029-.149-1.362-.089m.811 2.021c.279.083.546.35.629.629.053.179.061.885.061 5.588 0 3.368.015 5.433.039 5.518.065.226.208.399.481.58.351.233.565.417.784.671.208.242.542.905.622 1.233.078.319.066 1.117-.021 1.44a3.078 3.078 0 0 1-2.065 2.127c-.252.078-.387.093-.84.093-.453 0-.588-.015-.84-.093a3.076 3.076 0 0 1-2.065-2.127c-.085-.312-.098-1.164-.022-1.44.219-.796.648-1.39 1.343-1.859.335-.226.478-.39.545-.625.024-.085.039-2.15.039-5.518 0-6.068-.021-5.65.304-5.975.279-.279.612-.359 1.006-.242" fill-rule="evenodd" fill="#000" stroke="none"/></svg>