<svg xmlns="http://www.w3.org/2000/svg" width="24" height="24" fill="none" stroke="currentColor" stroke-width="2" stroke-linecap="round" stroke-linejoin="round"><path d="M5.26 1.029c-1.075.148-2.048.963-2.403 2.011-.107.317-1.491 9.225-1.526 9.823-.085 1.461.942 2.773 2.408 3.075.249.052.701.062 2.779.062H9v1.684c0 1.544.007 1.717.083 2.089a4.033 4.033 0 0 0 1.873 2.663c.727.439 1.891.679 2.417.5.37-.126.33-.046 2.385-4.672L17.653 14h1.19c.859 0 1.271-.016 1.483-.056a3.346 3.346 0 0 0 2.544-2.264l.11-.34V3.66l-.11-.34a3.351 3.351 0 0 0-2.63-2.277c-.25-.041-14.691-.054-14.98-.014M16 7.89v4.89l-1.785 4.02c-.982 2.211-1.797 4.042-1.811 4.069-.041.077-.466-.143-.721-.373a2.658 2.658 0 0 1-.371-.433c-.296-.458-.287-.367-.31-3.043-.022-2.385-.023-2.401-.111-2.567a.857.857 0 0 0-.436-.382c-.089-.039-.837-.056-3.278-.071l-3.163-.02-.197-.121c-.24-.148-.443-.437-.48-.684-.021-.14.141-1.281.682-4.809.39-2.544.735-4.689.767-4.766.102-.247.369-.476.654-.563.055-.016 2.454-.032 5.33-.034L16 3v4.89m4.29-4.738c.308.152.515.376.633.686.074.195.077.345.077 3.662s-.003 3.467-.077 3.662a1.288 1.288 0 0 1-.61.681l-.253.137-1.03.012-1.03.013V2.994l1.011.013 1.011.013.268.132" fill-rule="evenodd" fill="#000" stroke="none"/></svg>