<svg xmlns="http://www.w3.org/2000/svg" width="24" height="24" fill="none" stroke="currentColor" stroke-width="2" stroke-linecap="round" stroke-linejoin="round"><path d="M10.72 1.037a.961.961 0 0 0-.471.305c-.07.085-.882 1.862-2.009 4.398L6.35 9.994l-1.445.015c-1.402.015-1.455.018-1.766.115a3.077 3.077 0 0 0-2.025 2.036l-.094.3v8.08l.094.3c.304.976 1.035 1.714 2.026 2.046l.28.094 7.58.011c6.835.01 7.611.005 7.9-.053.6-.121 1.055-.371 1.523-.835.353-.351.566-.689.719-1.142.104-.305 1.489-9.205 1.527-9.805.093-1.485-.955-2.813-2.443-3.096-.258-.049-.757-.06-2.77-.06H15V6.316c0-1.522-.008-1.721-.079-2.073a4.017 4.017 0 0 0-2.676-3.039c-.459-.157-1.267-.245-1.525-.167m1.369 2.289c.241.154.539.479.683.745.215.397.227.547.228 2.949 0 1.348.016 2.256.041 2.345a.842.842 0 0 0 .401.515l.178.1 3.183.02 3.183.02.197.121c.24.148.443.437.48.684.021.139-.142 1.285-.682 4.809-.39 2.544-.735 4.689-.767 4.766-.074.179-.27.383-.474.494l-.16.086-5.29.011-5.29.01V11.22l1.808-4.067 1.807-4.068.142.06c.078.032.228.114.332.181M6 16.502v4.503l-1.15-.013-1.15-.012-.184-.108a1.199 1.199 0 0 1-.291-.249C2.992 20.317 3 20.469 3 16.522c0-4.108-.015-3.901.304-4.219.278-.279.376-.297 1.626-.3L6 12v4.502" fill-rule="evenodd" fill="#000" stroke="none"/></svg>