<svg xmlns="http://www.w3.org/2000/svg" width="24" height="24" fill="none" stroke="currentColor" stroke-width="2" stroke-linecap="round" stroke-linejoin="round"><path d="M4.499 4.043c-1.109.188-2.02.99-2.383 2.097-.087.266-.092.352-.107 1.672-.013 1.223-.007 1.418.052 1.606.12.382.441.58.95.584.974.009 1.809.73 1.956 1.688a1.972 1.972 0 0 1-.49 1.646c-.397.434-.787.614-1.438.662-.618.046-.848.184-.979.588-.058.18-.064.379-.051 1.6.015 1.322.02 1.408.107 1.674a3.108 3.108 0 0 0 2.044 2.026l.3.094h15.08l.3-.094a3.108 3.108 0 0 0 2.044-2.026c.087-.265.092-.352.107-1.664.016-1.458.004-1.593-.162-1.84-.155-.23-.375-.321-.862-.357-.629-.047-1.013-.214-1.395-.607a1.998 1.998 0 0 1-.019-2.767c.2-.211.578-.453.824-.528a3.9 3.9 0 0 1 .605-.094c.598-.05.829-.192.958-.589.058-.18.064-.379.051-1.6-.015-1.322-.02-1.408-.107-1.674a3.109 3.109 0 0 0-2.023-2.019l-.321-.101-7.42-.006c-4.081-.003-7.511.01-7.621.029M12 6.61c0 .336.019.675.041.755.107.385.396.597.855.626.485.031.803-.109.984-.433.094-.167.101-.22.114-.868l.014-.69h2.549c2.905 0 2.829-.007 3.14.304.262.262.308.45.294 1.213l-.011.609-.26.091a4.006 4.006 0 0 0-2.637 3.01c-.383 1.878.673 3.804 2.457 4.484.176.067.352.132.39.144.063.02.07.087.07.637 0 .866-.101 1.136-.516 1.38l-.184.108-2.646.011-2.646.011-.015-.691c-.018-.788-.066-.947-.344-1.129-.45-.295-1.223-.203-1.479.176-.141.21-.17.381-.17 1.033v.611l-3.65-.011-3.65-.011-.184-.108a1.199 1.199 0 0 1-.291-.249C4.034 17.372 4 17.207 4 16.514c0-.571.007-.639.07-.659 1.272-.405 2.167-1.209 2.634-2.367.856-2.123-.24-4.506-2.424-5.271l-.26-.091-.011-.609c-.014-.763.032-.951.294-1.214.313-.312.105-.297 4.127-.3L12 6v.61m.614 3.447a.814.814 0 0 0-.505.396c-.086.161-.089.212-.101 1.455-.008.812.003 1.346.03 1.444.106.395.394.609.858.639.485.031.803-.109.984-.433l.1-.178V12c0-1.35-.002-1.384-.089-1.547a.874.874 0 0 0-.213-.254c-.264-.189-.721-.249-1.064-.142" fill-rule="evenodd" fill="#000" stroke="none"/></svg>