<svg xmlns="http://www.w3.org/2000/svg" width="24" height="24" fill="none" stroke="currentColor" stroke-width="2" stroke-linecap="round" stroke-linejoin="round"><path d="M1.626 1.045c-.206.109-.48.388-.588.599a.795.795 0 0 0 .001.719c.074.147 4.588 4.72 10.233 10.365 5.645 5.645 10.218 10.159 10.365 10.233.353.176.718.087 1.064-.26.347-.347.436-.712.259-1.064-.06-.118-.587-.678-1.599-1.697l-1.511-1.52.249-.513a8.985 8.985 0 0 0 .511-6.507 9.018 9.018 0 0 0-5.95-5.991c-.915-.281-1.663-.388-2.7-.387-1.432.002-2.646.28-3.905.896l-.475.233-2.52-2.512C3.384 1.969 2.484 1.1 2.372 1.044a.884.884 0 0 0-.746.001m7.988.012a.814.814 0 0 0-.505.396c-.074.139-.089.231-.089.547 0 .331.013.403.1.558.11.197.294.34.515.401.196.055 4.534.055 4.73 0a.842.842 0 0 0 .515-.401c.087-.156.1-.226.099-.558-.001-.433-.081-.645-.301-.801-.272-.194-.342-.199-2.694-.196-1.691.002-2.243.014-2.37.054M12.83 7.06a6.97 6.97 0 0 1 5.083 3.204c1.1 1.72 1.374 3.946.729 5.921a7.539 7.539 0 0 1-.203.551l-.088.195-2.672-2.672-2.673-2.673-.013-.983c-.012-.932-.018-.992-.104-1.153-.226-.423-.937-.582-1.443-.321-.165.085-.237.161-.386.407-.033.056-.199-.093-1.018-.913l-.978-.979.198-.086a7.028 7.028 0 0 1 3.568-.498m-8.61 2.947c-.307.114-.472.344-.693.967a10.533 10.533 0 0 0-.47 1.926c-.097.703-.061 1.923.078 2.66.362 1.919 1.168 3.464 2.504 4.802a8.811 8.811 0 0 0 4.541 2.451c.743.155 1.289.2 2.13.176a8.09 8.09 0 0 0 2.652-.492c.555-.193.68-.261.868-.475.231-.263.262-.47.129-.866-.174-.517-.444-.756-.851-.756-.161 0-.352.046-.676.161-.981.351-1.643.458-2.632.427-1.799-.057-3.351-.702-4.635-1.928-1.205-1.15-1.929-2.623-2.123-4.32-.12-1.049.02-2.144.416-3.232.189-.52.193-.777.019-1.041-.22-.331-.917-.586-1.257-.46" fill-rule="evenodd" fill="#000" stroke="none"/></svg>