<svg xmlns="http://www.w3.org/2000/svg" width="24" height="24" fill="none" stroke="currentColor" stroke-width="2" stroke-linecap="round" stroke-linejoin="round"><path d="M9.614 1.057a.814.814 0 0 0-.505.396c-.074.139-.089.231-.089.547 0 .331.013.403.1.558.11.197.294.34.515.401.196.055 4.534.055 4.73 0a.842.842 0 0 0 .515-.401c.087-.156.1-.226.099-.558-.001-.433-.081-.645-.301-.801-.272-.194-.342-.199-2.694-.196-1.691.002-2.243.014-2.37.054m1.626 3.968a11.5 11.5 0 0 0-1.521.258 9.014 9.014 0 0 0-6.474 6.397c-.372 1.407-.317 1.938.228 2.194.194.09.28.106.59.106.331 0 .378-.01.533-.113.217-.143.335-.396.425-.907.275-1.564.852-2.731 1.878-3.795A6.795 6.795 0 0 1 8.9 7.702c1.911-.931 4.343-.92 6.196.029 1.445.739 2.542 1.847 3.193 3.221.62 1.312.845 2.838.612 4.164-.412 2.344-1.831 4.219-3.95 5.222a6.432 6.432 0 0 1-2.691.649c-1.521.052-2.938-.344-4.14-1.157-.379-.256-.53-.38-1.431-1.18L5.956 18h1.632c.97 0 1.691-.017 1.777-.041a.842.842 0 0 0 .515-.401c.087-.156.1-.226.099-.558-.001-.433-.081-.645-.301-.801C9.402 16.002 9.37 16 6.5 16s-2.902.002-3.178.199c-.212.15-.29.363-.331.901-.02.264-.033.507-.03.54.004.033.018 1.113.033 2.4l.026 2.34.1.178c.167.298.452.442.88.442s.713-.144.88-.442c.099-.177.1-.185.12-1.445l.02-1.266.36.32c.726.647 1.25 1.069 1.664 1.341 2.427 1.595 5.481 1.93 8.155.894 1.299-.503 2.321-1.186 3.296-2.205 1.106-1.154 1.826-2.461 2.224-4.037.195-.773.257-1.294.257-2.16 0-.889-.063-1.4-.273-2.22a8.986 8.986 0 0 0-7.443-6.682c-.402-.058-1.683-.104-2.02-.073m.374 4.032a.814.814 0 0 0-.505.396c-.089.166-.089.176-.1 2.458-.008 1.481.003 2.345.03 2.444.105.392.394.606.857.636.485.031.803-.109.984-.433l.1-.178V9.62l-.089-.167a.874.874 0 0 0-.213-.254c-.264-.189-.721-.249-1.064-.142" fill-rule="evenodd" fill="#000" stroke="none"/></svg>