<svg xmlns="http://www.w3.org/2000/svg" width="24" height="24" fill="none" stroke="currentColor" stroke-width="2" stroke-linecap="round" stroke-linejoin="round"><path d="M9.614 1.057a.814.814 0 0 0-.505.396c-.074.139-.089.231-.089.547 0 .331.013.403.1.558.11.197.294.34.515.401.196.055 4.534.055 4.73 0a.842.842 0 0 0 .515-.401c.087-.156.1-.226.099-.558-.001-.433-.081-.645-.301-.801-.272-.194-.342-.199-2.694-.196-1.691.002-2.243.014-2.37.054m1.726 3.967c-1.314.136-2.249.391-3.28.894a8.874 8.874 0 0 0-4.121 4.102 8.91 8.91 0 0 0 0 7.96 8.46 8.46 0 0 0 1.682 2.357 8.97 8.97 0 0 0 10.319 1.747 8.74 8.74 0 0 0 2.418-1.726 8.973 8.973 0 0 0 1.726-10.298 8.996 8.996 0 0 0-6.764-4.959c-.409-.062-1.658-.11-1.98-.077m1.762 2.074c2.997.453 5.389 2.887 5.822 5.922.066.463.066 1.497 0 1.96-.437 3.067-2.798 5.444-5.904 5.946-.413.066-1.627.066-2.04 0-3.107-.502-5.467-2.879-5.904-5.946-.109-.763-.054-1.887.129-2.64A7.02 7.02 0 0 1 9.62 7.427c.63-.227 1.095-.325 1.92-.404.273-.026 1.186.018 1.562.075m1.518 2.948c-.233.12-3.466 3.363-3.581 3.591-.176.353-.087.718.26 1.064.346.347.711.436 1.064.26.247-.124 3.474-3.351 3.598-3.598.176-.353.087-.718-.26-1.064-.34-.34-.734-.432-1.081-.253" fill="#000" fill-rule="evenodd" stroke="none"/></svg>