<svg xmlns="http://www.w3.org/2000/svg" width="24" height="24" fill="none" stroke="currentColor" stroke-width="2" stroke-linecap="round" stroke-linejoin="round"><path d="M7.207 4.043A8.055 8.055 0 0 0 2.9 5.847 7.857 7.857 0 0 0 .8 8.529a7.993 7.993 0 0 0 .989 8.511c.286.354.972 1.027 1.311 1.286a8.23 8.23 0 0 0 4.068 1.632c.532.058 9.132.058 9.664 0a8.23 8.23 0 0 0 4.068-1.632c.339-.259 1.025-.932 1.311-1.286a7.993 7.993 0 0 0 .989-8.511 7.857 7.857 0 0 0-2.1-2.682 8.007 8.007 0 0 0-4.36-1.806c-.521-.049-9.025-.047-9.533.002m9.357 1.996a5.991 5.991 0 0 1 5.107 4.021c.497 1.457.397 3.191-.261 4.52-.86 1.736-2.338 2.886-4.25 3.307l-.42.093H7.26l-.42-.093c-1.915-.421-3.389-1.569-4.25-3.307-.764-1.543-.764-3.617 0-5.16.95-1.918 2.731-3.174 4.79-3.377.458-.046 8.722-.049 9.184-.004m-1.206 2.022c-1.128.176-2.215.913-2.789 1.892a3.992 3.992 0 0 0 1.943 5.751 3.988 3.988 0 0 0 5.192-2.216 3.963 3.963 0 0 0 .001-2.972 3.978 3.978 0 0 0-3.1-2.458 3.728 3.728 0 0 0-1.247.003m1.165 2.012a2.011 2.011 0 0 1 1.444 1.617c.1.653-.094 1.243-.564 1.714-.401.403-.856.596-1.403.596-.515 0-.962-.178-1.347-.535-1.33-1.236-.464-3.46 1.347-3.46.143 0 .378.031.523.068" fill="#000" fill-rule="evenodd" stroke="none"/></svg>