<svg xmlns="http://www.w3.org/2000/svg" width="24" height="24" fill="none" stroke="currentColor" stroke-width="2" stroke-linecap="round" stroke-linejoin="round"><path d="M9.499 1.042A3.057 3.057 0 0 0 7.118 3.14c-.076.239-.092.396-.108 1.07L6.991 5H4.902c-2.228 0-2.31.006-2.58.199-.222.158-.302.369-.302.801 0 .331.013.403.1.558.11.197.294.34.515.401.08.022.419.041.754.041h.609l.011 6.79.011 6.79.094.28c.332.991 1.07 1.722 2.046 2.026l.3.094h11.08l.3-.094c.976-.304 1.714-1.035 2.046-2.026l.094-.28.011-6.79.011-6.79h.609c.335 0 .674-.019.754-.041a.842.842 0 0 0 .515-.401c.087-.156.1-.226.099-.558-.001-.433-.081-.645-.301-.801-.27-.193-.352-.199-2.58-.199h-2.089l-.019-.79c-.016-.674-.032-.831-.108-1.07a3.096 3.096 0 0 0-2.021-2.018l-.321-.1-2.42-.007c-1.331-.004-2.511.008-2.621.027m4.811 2.019a.893.893 0 0 1 .387.242c.251.251.303.448.303 1.144V5H9v-.553c0-.697.052-.893.304-1.144.3-.301.265-.297 2.679-.3 1.789-.003 2.155.007 2.327.058M18 13.554c0 5.437-.009 6.584-.055 6.736a1.02 1.02 0 0 1-.461.582l-.184.108H6.7l-.184-.108a1.199 1.199 0 0 1-.291-.249c-.239-.313-.225.12-.225-7.048V7h12v6.554m-8.386-3.497a.814.814 0 0 0-.505.396l-.089.167-.011 3.292c-.007 2.148.003 3.345.03 3.444.105.391.395.605.857.635.485.031.803-.109.984-.433l.1-.178v-6.76l-.089-.167a.874.874 0 0 0-.213-.254c-.264-.189-.721-.249-1.064-.142m4 0a.814.814 0 0 0-.505.396l-.089.167-.011 3.292c-.007 2.148.003 3.345.03 3.444.105.391.395.605.857.635.485.031.803-.109.984-.433l.1-.178v-6.76l-.089-.167a.874.874 0 0 0-.213-.254c-.264-.189-.721-.249-1.064-.142" fill-rule="evenodd" fill="#000" stroke="none"/></svg>