<svg xmlns="http://www.w3.org/2000/svg" width="24" height="24" fill="none" stroke="currentColor" stroke-width="2" stroke-linecap="round" stroke-linejoin="round"><path d="M4.499 2.043C3.38 2.232 2.461 3.048 2.114 4.16l-.094.3v15.08l.094.3a3.086 3.086 0 0 0 2.046 2.046l.3.094h15.08l.3-.094a3.086 3.086 0 0 0 2.046-2.046l.094-.3V4.46l-.094-.3a3.089 3.089 0 0 0-2.025-2.039l-.321-.101-7.42-.006c-4.081-.003-7.511.01-7.621.029M19.31 4.061c.279.083.546.35.629.629.054.18.061 1.065.061 7.311 0 5.906-.009 7.137-.055 7.289a1.02 1.02 0 0 1-.461.582l-.184.108H4.7l-.184-.108a1.199 1.199 0 0 1-.291-.249c-.239-.314-.225.172-.225-7.601 0-6.264.007-7.152.061-7.332.079-.269.351-.547.612-.627.291-.089 14.336-.092 14.637-.002M6.614 6.057a.814.814 0 0 0-.505.396l-.089.167-.011 4.793c-.007 3.147.004 4.845.03 4.944a.84.84 0 0 0 .403.523l.178.1 1.79.012c1.147.007 1.845-.004 1.944-.03a.845.845 0 0 0 .526-.404l.1-.178V6.62l-.089-.167c-.106-.197-.269-.322-.52-.398-.257-.077-3.509-.075-3.757.002m7 0a.814.814 0 0 0-.505.396l-.089.167-.011 2.792c-.007 1.814.003 2.845.03 2.944a.84.84 0 0 0 .403.524l.178.1 1.79.012c1.147.007 1.845-.004 1.944-.03a.845.845 0 0 0 .526-.404l.1-.178V6.62l-.089-.167c-.106-.197-.269-.322-.52-.398-.257-.077-3.509-.075-3.757.002M9 11.5V15H8V8h1v3.5m7-2V11h-1V8h1v1.5" fill="#000" fill-rule="evenodd" stroke="none"/></svg>