<svg xmlns="http://www.w3.org/2000/svg" width="24" height="24" fill="none" stroke="currentColor" stroke-width="2" stroke-linecap="round" stroke-linejoin="round"><path d="M.66 5.027a1.533 1.533 0 0 0-.537.481C.013 5.675 0 5.725 0 6c0 .273.013.326.118.483.065.097 1.861 1.918 3.99 4.045 4.08 4.076 4.029 4.029 4.389 4.031.341.002.411-.059 2.763-2.404l2.241-2.234 3.539 3.539L20.58 17h-1.884c-2.007 0-2.107.008-2.374.199-.183.13-.292.374-.313.701-.031.481.11.799.433.98l.178.1 3.16.027c1.738.014 3.219.028 3.291.03.176.004.613-.199.719-.333.22-.28.214-.166.201-3.764l-.011-3.32-.091-.17c-.165-.31-.56-.48-1.015-.439-.435.04-.733.263-.833.624-.025.088-.041.895-.041 2.045v1.899l-3.99-3.983c-2.726-2.721-4.041-4.008-4.15-4.059a.927.927 0 0 0-.72 0c-.106.05-.909.823-2.4 2.309L8.5 12.079 5.02 8.603C2.663 6.25 1.486 5.101 1.372 5.044c-.204-.102-.538-.109-.712-.017" fill="#000" fill-rule="evenodd" stroke="none"/></svg>