<svg xmlns="http://www.w3.org/2000/svg" width="24" height="24" fill="none" stroke="currentColor" stroke-width="2" stroke-linecap="round" stroke-linejoin="round"><path d="m19.719 4.999-3.061.021-.199.102c-.34.175-.481.484-.45.982.029.459.241.748.626.855.088.025.896.041 2.045.041h1.9l-3.54 3.54-3.539 3.539-2.241-2.233c-1.49-1.485-2.294-2.259-2.4-2.309a.927.927 0 0 0-.72 0c-.186.087-7.828 7.69-8.022 7.98-.105.157-.118.21-.118.483 0 .275.013.325.123.492.322.487.824.676 1.24.469.125-.063 1.191-1.101 3.657-3.564l3.48-3.476 2.24 2.237c2.355 2.353 2.408 2.399 2.757 2.401.354.002.315.037 4.513-4.154L22 8.421v1.899c0 1.15.016 1.957.041 2.045.107.385.396.597.855.626.485.031.803-.109.984-.433l.1-.178.011-3.334.011-3.334-.096-.21c-.149-.325-.537-.55-.919-.533-.114.005-1.585.019-3.268.03" fill="#000" fill-rule="evenodd" stroke="none"/></svg>