<svg xmlns="http://www.w3.org/2000/svg" width="24" height="24" fill="none" stroke="currentColor" stroke-width="2" stroke-linecap="round" stroke-linejoin="round"><path d="M11.247 2.001c-.662.174-1.351.659-1.722 1.214-.304.454-8.603 14.33-8.708 14.561a2.99 2.99 0 0 0 .586 3.299c.327.33.629.538 1.005.692.601.246.068.233 9.597.233 9.57 0 8.976.015 9.596-.238a3.04 3.04 0 0 0 1.626-1.643 3.037 3.037 0 0 0-.063-2.379c-.121-.256-8.456-14.185-8.723-14.578-.348-.513-1.058-.998-1.703-1.163-.416-.106-1.082-.105-1.491.002m1.174 1.994c.088.04.213.129.277.196.156.165 8.651 14.35 8.702 14.529a.999.999 0 0 1-.635 1.219c-.159.054-1.168.061-8.762.061-5.789 0-8.631-.014-8.732-.042-.371-.103-.711-.54-.711-.913 0-.102.018-.248.04-.325.051-.18 8.545-14.362 8.701-14.528.174-.184.396-.27.699-.27.166 0 .318.026.421.073" fill-rule="evenodd" fill="#000" stroke="none"/></svg>