<svg xmlns="http://www.w3.org/2000/svg" width="24" height="24" fill="none" stroke="currentColor" stroke-width="2" stroke-linecap="round" stroke-linejoin="round"><path d="M1.614 4.057a.814.814 0 0 0-.505.396l-.089.167-.01 6.294c-.007 4.145.003 6.345.029 6.444a.841.841 0 0 0 .403.522c.177.1.183.1 1.379.112l1.201.012.089.348a3.495 3.495 0 0 0 6.778-.002l.09-.35h3.042l.09.35a3.495 3.495 0 0 0 6.778 0l.09-.35h.621c.341 0 .685-.019.765-.041a.842.842 0 0 0 .515-.401l.1-.178.012-2.036c.013-2.287-.004-2.509-.255-3.259a4.94 4.94 0 0 0-.711-1.384c-.13-.176-.742-.827-1.361-1.447-1.061-1.063-1.137-1.13-1.342-1.19-.187-.055-.51-.064-2.268-.064h-2.051l-.012-1.69c-.012-1.659-.014-1.693-.101-1.857-.106-.197-.269-.322-.52-.398-.264-.079-12.503-.077-12.757.002M13 11v5l-1.17-.001-1.17-.001-.16-.284c-.415-.738-1.24-1.36-2.122-1.6-.418-.113-1.261-.124-1.671-.022a3.66 3.66 0 0 0-1.64.902c-.255.246-.538.619-.651.856l-.071.15H3V6h10v5m6.485-.09c.968.976 1.006 1.022 1.213 1.44.265.536.273.599.291 2.2l.017 1.45-.173-.001c-.173-.001-.173-.002-.333-.285-.415-.738-1.24-1.36-2.122-1.6-.418-.113-1.261-.124-1.671-.022-.567.142-1.194.472-1.557.82l-.15.144V10h3.582l.903.91M8.119 16.143c.298.136.608.449.746.753.095.209.111.296.111.604s-.016.395-.111.604c-.14.309-.448.616-.765.764-.207.097-.29.112-.6.112s-.393-.015-.6-.112a1.675 1.675 0 0 1-.765-.764c-.095-.208-.111-.296-.111-.604-.001-.309.015-.394.11-.6.193-.422.615-.771 1.04-.861.267-.057.696-.009.945.104m10 0c.298.136.608.449.746.753.095.209.111.296.111.604s-.016.395-.111.604c-.14.309-.448.616-.765.764-.207.097-.29.112-.6.112s-.393-.015-.6-.112a1.675 1.675 0 0 1-.765-.764c-.095-.208-.111-.296-.111-.604-.001-.309.015-.394.11-.6.193-.422.615-.771 1.04-.861.267-.057.696-.009.945.104" fill-rule="evenodd" fill="#000" stroke="none"/></svg>