<svg xmlns="http://www.w3.org/2000/svg" width="24" height="24" fill="none" stroke="currentColor" stroke-width="2" stroke-linecap="round" stroke-linejoin="round"><path d="M6.626 1.045c-.206.109-.48.388-.588.599a.792.792 0 0 0 .002.719c.06.12.639.729 1.812 1.905l1.723 1.729-3.058.012-3.057.012-.321.101A3.086 3.086 0 0 0 1.114 8.16l-.094.3v12.08l.094.3a3.086 3.086 0 0 0 2.046 2.046l.3.094h17.08l.3-.094a3.086 3.086 0 0 0 2.046-2.046l.094-.3V8.46l-.094-.3a3.086 3.086 0 0 0-2.025-2.038l-.321-.101-3.057-.012-3.058-.012 1.723-1.729c1.173-1.176 1.752-1.785 1.812-1.905.177-.352.088-.717-.259-1.064-.34-.34-.721-.431-1.073-.255-.111.056-.923.837-2.398 2.309L12 5.578 9.77 3.353C8.295 1.881 7.483 1.1 7.372 1.044a.884.884 0 0 0-.746.001M12 8.03l4.077-.016c4.552-.018 4.297-.034 4.619.289.326.325.304-.12.304 6.198 0 4.635-.01 5.638-.055 5.789a1.02 1.02 0 0 1-.461.582l-.184.108H3.7l-.184-.108a1.199 1.199 0 0 1-.291-.249c-.238-.312-.225.032-.225-6.101 0-6.341-.022-5.894.304-6.219.316-.317.046-.3 4.596-.285l4.1.012" fill="#000" fill-rule="evenodd" stroke="none"/></svg>