<svg xmlns="http://www.w3.org/2000/svg" width="24" height="24" fill="none" stroke="currentColor" stroke-width="2" stroke-linecap="round" stroke-linejoin="round"><path d="M2.614 1.057a.814.814 0 0 0-.505.396l-.089.167-.01 8.294c-.007 5.477.003 8.346.03 8.444.06.226.203.411.402.522l.178.1 2.19.011 2.19.012v1.608c0 .955.017 1.668.041 1.754a.842.842 0 0 0 .401.515c.151.085.229.1.518.1.253-.001.376-.02.48-.075.077-.04 1.004-.935 2.06-1.988l1.92-1.915 2.44-.011c2.287-.01 2.449-.016 2.58-.085.193-.102 4.299-4.202 4.433-4.426l.107-.18V1.62l-.089-.167c-.106-.197-.269-.322-.52-.398-.265-.079-18.503-.077-18.757.002M20 8.29v5.29l-1.71 1.71L16.58 17h-2.343c-2.035 0-2.371.008-2.56.064-.205.061-.287.135-1.444 1.285L9.006 19.57l-.013-.975c-.012-.918-.018-.985-.102-1.142a.874.874 0 0 0-.213-.254c-.27-.193-.352-.199-2.584-.199H4V3h16v5.29m-9.386-2.233a.814.814 0 0 0-.505.396c-.089.166-.089.176-.1 2.458-.008 1.481.003 2.345.03 2.444.105.392.394.606.857.636.485.031.803-.109.984-.433l.1-.178V6.62l-.089-.167a.874.874 0 0 0-.213-.254c-.264-.189-.721-.249-1.064-.142m5 0a.814.814 0 0 0-.505.396c-.089.166-.089.176-.1 2.458-.008 1.481.003 2.345.03 2.444.105.392.394.606.857.636.485.031.803-.109.984-.433l.1-.178V6.62l-.089-.167a.874.874 0 0 0-.213-.254c-.264-.189-.721-.249-1.064-.142" fill-rule="evenodd" fill="#000" stroke="none"/></svg>