<svg xmlns="http://www.w3.org/2000/svg" width="24" height="24" fill="none" stroke="currentColor" stroke-width="2" stroke-linecap="round" stroke-linejoin="round"><path d="M15.84 2.024c-.854.156-1.197.259-1.74.518a5.459 5.459 0 0 0-2.856 3.318c-.135.439-.243 1.071-.244 1.429v.229l-.19-.022c-.924-.109-1.856-.332-2.57-.615-1.738-.69-3.164-1.775-4.259-3.241-.402-.539-.595-.68-.933-.68-.25 0-.641.19-.808.393-.289.35-.734 1.817-.955 3.147-.227 1.372-.214 2.947.036 4.168.232 1.136.751 2.397 1.356 3.293.738 1.094 1.749 2.086 2.913 2.858.159.106.29.199.29.207 0 .06-1.262.517-1.82.659-.802.205-1.702.314-2.6.315-.374 0-.745.019-.825.041a.794.794 0 0 0-.513.418c-.139.271-.145.757-.012 1.007.128.242.29.357 1.017.722 1.753.881 3.379 1.383 5.293 1.635.664.087 2.352.12 3.068.06a13.792 13.792 0 0 0 6.612-2.328c3.741-2.547 5.898-6.932 5.9-11.991v-.575l.173-.205a8.645 8.645 0 0 0 1.505-2.595c.333-.913.403-1.435.229-1.721-.141-.233-.421-.398-.762-.449-.305-.046-.475.01-.954.316-.248.159-.622.381-.831.493-.379.204-1.118.532-1.198.532-.023 0-.207-.125-.408-.278-.596-.452-1.366-.797-2.195-.982-.29-.064-1.491-.117-1.719-.076m1.28 2.034c.746.144 1.293.439 1.878 1.011.166.163.372.332.457.376.225.118.528.104.963-.043.196-.067.364-.122.372-.122.034 0-.159.239-.44.544-.422.458-.459.569-.392 1.184.052.492.04 1.117-.042 2.032-.382 4.271-2.632 7.78-6.136 9.567-.679.346-.93.454-1.569.676-.855.296-1.827.507-2.751.596-.598.058-1.925.048-2.56-.019-.663-.07-1.537-.223-1.857-.325-.031-.01.178-.098.466-.196a12.51 12.51 0 0 0 2.815-1.358c.423-.277.522-.389.638-.726.097-.282.098-.468.003-.677-.107-.234-.252-.337-.976-.693-2.18-1.069-3.607-2.508-4.349-4.383-.52-1.315-.649-3.031-.36-4.783.118-.717.084-.693.481-.329.896.82 1.707 1.383 2.739 1.9 1.168.585 2.204.912 3.596 1.136.485.078 2.029.119 2.248.059a.843.843 0 0 0 .536-.407c.097-.173.101-.209.125-1.178.021-.838.039-1.051.11-1.315.235-.876.863-1.697 1.626-2.126a3.582 3.582 0 0 1 2.379-.401" fill-rule="evenodd" fill="#000" stroke="none"/></svg>