<svg xmlns="http://www.w3.org/2000/svg" width="24" height="24" fill="none" stroke="currentColor" stroke-width="2" stroke-linecap="round" stroke-linejoin="round"><path d="M3.614 3.057a.814.814 0 0 0-.505.396c-.088.165-.089.194-.101 1.957-.007 1.147.004 1.845.03 1.944.106.393.395.607.858.637.485.031.803-.109.984-.433.099-.177.1-.184.113-1.368L5.005 5H11v14H9.906c-1.162 0-1.336.022-1.584.199-.222.158-.302.369-.302.801 0 .331.013.403.1.558.11.197.294.34.515.401.197.055 6.533.055 6.73 0a.842.842 0 0 0 .515-.401c.087-.156.1-.226.099-.558-.001-.433-.081-.645-.301-.801-.248-.177-.422-.199-1.584-.199H13V5h6v1.11c0 .62.018 1.174.041 1.255.107.385.396.597.855.626.485.031.803-.109.984-.433l.1-.178V5.5c0-1.867-.001-1.881-.089-2.047-.106-.197-.269-.322-.52-.398-.265-.079-16.503-.077-16.757.002" fill="#000" fill-rule="evenodd" stroke="none"/></svg>