<svg xmlns="http://www.w3.org/2000/svg" width="24" height="24" fill="none" stroke="currentColor" stroke-width="2" stroke-linecap="round" stroke-linejoin="round"><path d="M11.025 1.044c-2.085.172-4.03.856-5.784 2.036-1.155.776-2.362 1.972-3.171 3.14A12.628 12.628 0 0 0 .485 9.5c-.4 1.3-.574 2.66-.388 3.035.098.199.334.368.587.422.136.029 1.81.043 5.258.043H11v3.184c0 3.059.003 3.199.083 3.589a3.973 3.973 0 0 0 2.429 2.931 3.986 3.986 0 0 0 5.193-2.22c.297-.736.379-1.645.182-2.031-.192-.375-.748-.551-1.258-.398-.432.13-.58.354-.632.957-.019.22-.062.492-.095.606-.125.43-.568.952-.99 1.166a2.05 2.05 0 0 1-1.829-.003c-.267-.135-.634-.484-.802-.764-.281-.467-.276-.397-.279-3.887L13 13h5.11c3.3 0 5.161-.015 5.255-.041a.842.842 0 0 0 .515-.401c.089-.158.1-.223.097-.578-.007-1.121-.5-2.901-1.183-4.274-.625-1.257-1.256-2.132-2.271-3.151A11.755 11.755 0 0 0 15.7 1.586a12.298 12.298 0 0 0-4.675-.542M13.4 3.101c1.833.276 3.505 1.001 4.9 2.127A13.309 13.309 0 0 1 19.791 6.7c.606.742 1.215 1.791 1.582 2.724.123.315.37 1.128.444 1.466l.025.11H2.162l.025-.13c.119-.615.454-1.55.813-2.27.532-1.066 1.016-1.744 1.853-2.595A9.517 9.517 0 0 1 7.58 4.038a10.168 10.168 0 0 1 3.68-1.013c.401-.033 1.731.015 2.14.076" fill-rule="evenodd" fill="#000" stroke="none"/></svg>