<svg xmlns="http://www.w3.org/2000/svg" width="24" height="24" fill="none" stroke="currentColor" stroke-width="2" stroke-linecap="round" stroke-linejoin="round"><path d="M5.614 3.057a.814.814 0 0 0-.505.396l-.089.167v3.52c0 2.716.012 3.598.053 3.86.479 3.09 2.808 5.425 5.907 5.926.412.066 1.627.066 2.04 0 3.096-.5 5.429-2.84 5.907-5.926.041-.262.053-1.147.053-3.86V3.62l-.091-.17c-.165-.31-.56-.48-1.015-.439-.435.04-.733.263-.833.624-.026.092-.041 1.322-.041 3.337 0 3.273-.016 3.696-.161 4.268a5.063 5.063 0 0 1-2.627 3.236c-.745.366-1.35.504-2.212.504-.67 0-1.044-.058-1.6-.248a5.075 5.075 0 0 1-3.08-2.98 6.188 6.188 0 0 1-.249-.892c-.026-.124-.051-1.546-.066-3.72L6.98 3.62l-.089-.167a.874.874 0 0 0-.213-.254c-.264-.189-.721-.249-1.064-.142m-2 16a.814.814 0 0 0-.505.396c-.074.139-.089.231-.089.547 0 .331.013.403.1.558.11.197.294.34.515.401.2.056 16.53.056 16.73 0a.842.842 0 0 0 .515-.401c.087-.156.1-.226.099-.558-.001-.433-.081-.645-.301-.801-.292-.209.121-.199-8.694-.196-6.617.002-8.236.012-8.37.054" fill-rule="evenodd" fill="#000" stroke="none"/></svg>