<svg xmlns="http://www.w3.org/2000/svg" width="24" height="24" fill="none" stroke="currentColor" stroke-width="2" stroke-linecap="round" stroke-linejoin="round"><path d="M2.614 6.057a.814.814 0 0 0-.505.396l-.089.167-.027 3.14a948.43 948.43 0 0 1-.03 3.268c-.004.166.137.542.258.686.114.136.517.325.681.32.065-.002 1.549-.014 3.298-.029 3.15-.025 3.181-.026 3.34-.111.335-.179.438-.39.438-.894 0-.531-.125-.753-.523-.929-.085-.038-.591-.056-1.971-.071l-1.856-.02.536-.481c1.141-1.025 1.772-1.454 2.716-1.85 3.908-1.636 8.336-.022 10.25 3.737.539 1.058.789 2.043.864 3.398.029.526.046.627.13.779.162.293.45.437.876.437.428 0 .713-.144.88-.442.096-.17.1-.206.097-.838-.008-2.059-.76-4.149-2.13-5.92-.337-.435-1.208-1.306-1.647-1.646-1.644-1.272-3.468-1.972-5.533-2.123a10.742 10.742 0 0 0-2.327.111 10.387 10.387 0 0 0-3.292 1.182c-.78.449-1.2.769-2.276 1.739-.401.362-.738.657-.749.657-.011 0-.025-.923-.031-2.05-.012-2.032-.013-2.051-.101-2.217a.874.874 0 0 0-.213-.254c-.264-.189-.721-.249-1.064-.142" fill-rule="evenodd" fill="#000" stroke="none"/></svg>