<svg xmlns="http://www.w3.org/2000/svg" width="24" height="24" fill="none" stroke="currentColor" stroke-width="2" stroke-linecap="round" stroke-linejoin="round"><path d="M7.614 1.057a.814.814 0 0 0-.505.396c-.088.165-.089.194-.101 1.957-.007 1.147.004 1.845.03 1.944.106.393.395.607.858.637.485.031.803-.109.984-.433l.1-.178V3.5c0-1.867-.001-1.881-.089-2.047a.874.874 0 0 0-.213-.254c-.264-.189-.721-.249-1.064-.142m8.445.082c-.964.152-1.906.537-2.646 1.085-.346.256-2.266 2.102-2.492 2.396-.338.44-.294.843.141 1.271.221.218.48.349.688.348.309-.002.461-.119 1.547-1.192 1.074-1.061 1.353-1.294 1.854-1.545.547-.275.956-.38 1.594-.411 1.802-.088 3.399.988 3.973 2.677.167.491.216.868.191 1.481-.025.652-.117 1.022-.388 1.571-.29.588-.513.858-1.587 1.922-1.04 1.029-1.149 1.175-1.144 1.526.006.378.413.866.832.998.207.065.229.065.448-.002.219-.068.282-.123 1.353-1.198 1.166-1.169 1.443-1.501 1.79-2.146a5.971 5.971 0 0 0-.994-7.045 5.917 5.917 0 0 0-3.392-1.733c-.49-.073-1.312-.074-1.768-.003M1.614 7.057a.814.814 0 0 0-.505.396c-.074.139-.089.231-.089.547 0 .331.013.403.1.558.11.197.294.34.515.401C1.722 8.983 2.47 9 3.5 9s1.778-.017 1.865-.041a.842.842 0 0 0 .515-.401c.087-.156.1-.226.099-.558-.001-.313-.017-.409-.089-.547-.104-.197-.267-.322-.519-.398-.257-.077-3.509-.075-3.757.002m3.371 3.668c-.247.057-.462.243-1.526 1.321-1.035 1.048-1.343 1.423-1.672 2.034-.666 1.239-.886 2.713-.606 4.059.437 2.104 1.996 3.846 4.019 4.493.63.201.936.252 1.66.275.579.019.753.01 1.175-.062a5.945 5.945 0 0 0 2.565-1.079c.419-.303 2.498-2.376 2.604-2.595.172-.355.07-.736-.286-1.069-.231-.216-.479-.34-.678-.34-.297 0-.459.125-1.518 1.172-.562.556-1.144 1.103-1.293 1.215a4.427 4.427 0 0 1-1.29.636c-.335.103-.407.11-1.079.11-.669 0-.745-.008-1.08-.109-1.52-.46-2.618-1.688-2.861-3.199-.072-.443-.03-1.32.081-1.707.108-.379.34-.875.562-1.205.094-.14.651-.741 1.237-1.335.659-.668 1.094-1.141 1.141-1.24.171-.363.062-.744-.313-1.089-.296-.273-.542-.357-.842-.286m13.629 4.332a.814.814 0 0 0-.505.396c-.074.139-.089.231-.089.547 0 .331.013.403.1.558.11.197.294.34.515.401.087.024.835.041 1.865.041s1.778-.017 1.865-.041a.842.842 0 0 0 .515-.401c.087-.156.1-.226.099-.558-.001-.313-.017-.409-.089-.547-.104-.197-.267-.322-.519-.398-.257-.077-3.509-.075-3.757.002m-3 3a.814.814 0 0 0-.505.396c-.088.165-.089.194-.101 1.957-.007 1.147.004 1.845.03 1.944.106.393.395.607.858.637.485.031.803-.109.984-.433l.1-.178V20.5c0-1.867-.001-1.881-.089-2.047a.874.874 0 0 0-.213-.254c-.264-.189-.721-.249-1.064-.142" fill-rule="evenodd" fill="#000" stroke="none"/></svg>