<svg xmlns="http://www.w3.org/2000/svg" width="24" height="24" fill="none" stroke="currentColor" stroke-width="2" stroke-linecap="round" stroke-linejoin="round"><path d="M11.178 1.059a5.915 5.915 0 0 0-1.862.58 5.99 5.99 0 0 0-3.121 3.859c-.174.676-.194.958-.194 2.767L6 9.991l-.77.019c-.663.017-.814.033-1.091.116a3.068 3.068 0 0 0-2.025 2.034l-.094.3v8.08l.094.3a3.086 3.086 0 0 0 2.046 2.046l.3.094h15.08l.3-.094a3.086 3.086 0 0 0 2.046-2.046l.094-.3v-8.08l-.094-.3a3.089 3.089 0 0 0-2.025-2.039l-.321-.101-5.77-.011L8 9.998V8.346c0-1.821.027-2.127.243-2.719a4.006 4.006 0 0 1 2.537-2.438c.652-.204 1.569-.242 2.16-.089a4.116 4.116 0 0 1 2.548 1.939c.173.308.266.559.471 1.271.093.322.259.548.469.636.198.083.612.068.88-.032.389-.145.611-.44.612-.814 0-.168-.175-.866-.299-1.196a6.036 6.036 0 0 0-4.431-3.786c-.53-.11-1.5-.138-2.012-.059m8.132 11.002c.279.083.546.35.629.629.053.176.061.699.061 3.811 0 3.914.005 3.82-.221 4.117-.061.08-.194.195-.295.254l-.184.108H4.7l-.184-.108a1.051 1.051 0 0 1-.458-.556c-.089-.254-.087-7.325.003-7.626.079-.269.351-.547.612-.627.291-.089 14.336-.092 14.637-.002" fill-rule="evenodd" fill="#000" stroke="none"/></svg>