<svg xmlns="http://www.w3.org/2000/svg" width="24" height="24" fill="none" stroke="currentColor" stroke-width="2" stroke-linecap="round" stroke-linejoin="round"><path d="M11.53 2.083c-.137.067-.281.169-.32.228-.038.059-1.198 1.241-2.576 2.628C6.897 6.687 6.101 7.514 6.04 7.637c-.177.353-.088.717.259 1.064.347.347.712.436 1.064.259.12-.06.729-.639 1.907-1.813L11 5.422v4.899c0 3.159.015 4.95.041 5.044.107.385.396.597.855.626.485.031.803-.109.984-.433l.1-.178.011-4.978.011-4.978 1.729 1.723c1.177 1.174 1.786 1.753 1.906 1.813.352.177.717.088 1.064-.259.347-.347.436-.711.259-1.064-.061-.123-.857-.95-2.594-2.698-1.378-1.387-2.538-2.57-2.577-2.628-.038-.059-.185-.162-.325-.229-.344-.164-.593-.164-.934.001M2.614 14.057a.814.814 0 0 0-.505.396l-.089.167v4.92l.094.3c.184.59.495 1.053.995 1.481.282.242.651.441 1.051.565l.3.094h15.08l.3-.094a3.086 3.086 0 0 0 2.046-2.046l.094-.3v-4.92l-.091-.17c-.165-.31-.56-.48-1.015-.439-.435.04-.733.263-.833.624-.025.089-.041.983-.041 2.309 0 2.348-.003 2.388-.221 2.674-.061.08-.194.195-.295.254l-.184.108H4.7l-.184-.108a1.146 1.146 0 0 1-.446-.499c-.037-.084-.055-.7-.07-2.433-.02-2.304-.021-2.321-.109-2.487a.874.874 0 0 0-.213-.254c-.264-.189-.721-.249-1.064-.142" fill-rule="evenodd" fill="#000" stroke="none"/></svg>