<svg xmlns="http://www.w3.org/2000/svg" width="24" height="24" fill="none" stroke="currentColor" stroke-width="2" stroke-linecap="round" stroke-linejoin="round"><path d="M8.04 2.044c-1.322.15-2.614.664-3.792 1.51-1.713 1.229-2.872 3.179-3.19 5.365-.083.566-.061 1.868.04 2.401.317 1.679.981 3.005 2.08 4.155.304.319.585.484.822.484.213 0 .519-.164.732-.394.224-.24.315-.432.315-.665 0-.254-.085-.407-.464-.842-.798-.914-1.228-1.755-1.472-2.874-.074-.341-.088-.529-.088-1.204 0-.682.014-.862.091-1.218a6.083 6.083 0 0 1 3.898-4.437c1.317-.465 2.937-.423 4.237.108 1.606.657 2.905 2.045 3.431 3.667.161.497.314.709.598.832.063.027.605.054 1.422.07 1.17.023 1.355.035 1.631.111a3.544 3.544 0 0 1 2.552 2.785c.077.446.029 1.212-.102 1.622a3.465 3.465 0 0 1-1.194 1.733c-.508.41-.598.53-.619.827-.021.281.097.575.335.838.289.32.649.405 1.013.24.393-.178 1.14-.842 1.526-1.356.78-1.038 1.21-2.532 1.082-3.756-.204-1.949-1.276-3.55-2.961-4.419-.896-.463-1.418-.583-2.668-.615l-.885-.023-.175-.384c-.96-2.118-3.019-3.818-5.286-4.365-.917-.221-2.025-.296-2.909-.196m3.49 9.039c-.137.067-.281.169-.32.228-.038.058-.973 1.016-2.076 2.128-1.368 1.379-2.033 2.077-2.094 2.198-.177.352-.088.717.259 1.064.347.347.712.436 1.064.259.116-.059.598-.508 1.407-1.313L11 14.423v3.398c0 2.154.015 3.452.041 3.544.107.385.396.597.855.626.485.031.803-.109.984-.433l.1-.178.011-3.477.011-3.478 1.229 1.223c.808.804 1.29 1.253 1.406 1.312.352.177.717.088 1.064-.259.347-.347.436-.712.259-1.064-.061-.121-.726-.819-2.094-2.198-1.103-1.112-2.038-2.07-2.077-2.129-.038-.058-.185-.161-.325-.228-.344-.164-.593-.164-.934.001" fill-rule="evenodd" fill="#000" stroke="none"/></svg>