<svg xmlns="http://www.w3.org/2000/svg" width="24" height="24" fill="none" stroke="currentColor" stroke-width="2" stroke-linecap="round" stroke-linejoin="round"><path d="M7.891 2.044c-1.881.219-3.5 1.543-4.132 3.378-.338.983-.328 2.244.027 3.227.54 1.497 1.673 2.607 3.158 3.093 3.235 1.06 6.542-1.338 6.542-4.742a4.984 4.984 0 0 0-5.595-4.956m1.38 2.051c1.06.292 1.933 1.197 2.15 2.228a3.958 3.958 0 0 1-.006 1.369 2.987 2.987 0 0 1-2.304 2.244 2.986 2.986 0 0 1-3.057-1.202C5.684 8.216 5.52 7.683 5.52 7c0-.814.246-1.457.779-2.035.371-.403 1.023-.786 1.501-.881l.3-.062c.152-.035.961.015 1.171.073M22.62 8.046c-.095.049-.867.788-1.889 1.807l-1.73 1.724-.73-.723c-.415-.41-.804-.76-.899-.809-.351-.177-.732-.087-1.073.254-.347.347-.436.711-.259 1.064.122.244 2.353 2.475 2.597 2.597a.8.8 0 0 0 .726 0c.204-.102 4.322-4.182 4.519-4.477.105-.157.118-.21.118-.483 0-.275-.013-.325-.123-.492a1.489 1.489 0 0 0-.545-.483c-.179-.091-.514-.081-.712.021M4.4 14.044c-1.639.185-3.139 1.246-3.874 2.741A5.735 5.735 0 0 0 .097 18c-.056.245-.072.563-.086 1.744-.011.957-.003 1.499.026 1.604.107.4.393.613.859.643.485.031.803-.109.984-.433l.1-.178.024-1.46c.027-1.632.036-1.701.316-2.26a3.082 3.082 0 0 1 1.858-1.548l.322-.092h8l.322.092a3.073 3.073 0 0 1 2.054 2.027c.094.308.099.379.121 1.781l.023 1.46.1.178c.167.298.452.442.88.442s.713-.144.88-.442l.1-.178v-1.5c0-1.299-.01-1.545-.073-1.84-.282-1.319-1.044-2.464-2.107-3.166-.754-.499-1.404-.739-2.248-.831-.467-.052-7.698-.05-8.152.001" fill-rule="evenodd" fill="#000" stroke="none"/></svg>