<svg xmlns="http://www.w3.org/2000/svg" width="24" height="24" fill="none" stroke="currentColor" stroke-width="2" stroke-linecap="round" stroke-linejoin="round"><path d="M8.4 2.044c-1.639.185-3.139 1.246-3.874 2.741C4.158 5.533 4.02 6.136 4.02 7c0 .67.058 1.044.248 1.6.578 1.691 1.985 2.925 3.772 3.307.471.101 1.449.101 1.92 0 1.528-.327 2.788-1.277 3.473-2.619.405-.794.547-1.389.547-2.288 0-.899-.142-1.494-.547-2.287a5.022 5.022 0 0 0-3.193-2.551 5.223 5.223 0 0 0-1.84-.118m7.169.124c-.304.103-.568.587-.576 1.054-.004.204.015.285.101.431.132.226.277.316.788.488.224.075.491.185.593.244a3.115 3.115 0 0 1 1.411 1.775c.076.247.093.391.093.82.001.615-.045.831-.28 1.32-.382.795-.972 1.295-1.883 1.596-.619.204-.831.431-.823.88.008.471.192.853.491 1.021.246.139.565.123 1.089-.052.756-.253 1.376-.625 1.904-1.143 1.045-1.024 1.567-2.329 1.512-3.777-.023-.603-.087-.97-.255-1.459-.399-1.166-1.339-2.246-2.433-2.796-.719-.362-1.392-.518-1.732-.402M9.861 4.129c.943.276 1.723 1.054 2.014 2.01.083.273.098.403.098.861 0 .458-.015.588-.098.861A3.073 3.073 0 0 1 9.84 9.886c-.434.135-1.246.135-1.68 0a3.073 3.073 0 0 1-2.035-2.025c-.083-.273-.098-.403-.098-.861 0-.458.015-.588.098-.861A3.042 3.042 0 0 1 8.499 4.04c.333-.06 1.001-.017 1.362.089M4.4 14.044c-1.639.185-3.139 1.246-3.874 2.741A5.735 5.735 0 0 0 .097 18c-.056.245-.072.563-.086 1.744-.011.957-.003 1.499.026 1.604.107.4.393.613.859.643.485.031.803-.109.984-.433l.1-.178.024-1.46c.027-1.632.036-1.701.316-2.26a3.082 3.082 0 0 1 1.858-1.548l.322-.092h9l.322.092a3.073 3.073 0 0 1 2.054 2.027c.094.308.099.379.121 1.781l.023 1.46.1.178c.167.298.452.442.88.442s.713-.144.88-.442l.1-.178v-1.5c0-1.299-.01-1.545-.073-1.84-.282-1.319-1.044-2.464-2.107-3.166-.754-.499-1.404-.739-2.248-.831-.468-.052-8.697-.05-9.152.001m15.169.124c-.304.103-.568.587-.576 1.054-.008.462.213.702.827.899.583.187.944.409 1.343.825.433.452.697.975.795 1.577.023.141.042.806.042 1.477 0 .693.018 1.283.041 1.365.107.385.396.597.855.626.485.031.803-.109.984-.433l.1-.178v-1.52c0-1.334-.009-1.562-.075-1.86-.324-1.483-1.276-2.742-2.579-3.415-.717-.37-1.411-.535-1.757-.417" fill-rule="evenodd" fill="#000" stroke="none"/></svg>