<svg xmlns="http://www.w3.org/2000/svg" width="24" height="24" fill="none" stroke="currentColor" stroke-width="2" stroke-linecap="round" stroke-linejoin="round"><path d="M11.271 2.062a4.734 4.734 0 0 0-2.55 1.313l-.218.225h-.402c-1.613 0-3.17.934-3.936 2.36-.347.647-.513 1.261-.552 2.046l-.025.506-.288.298c-1.721 1.785-1.731 4.551-.022 6.362l.31.328.024.48c.067 1.358.606 2.489 1.593 3.338a4.547 4.547 0 0 0 2.88 1.097l.465.007.335.316c1.799 1.696 4.482 1.679 6.308-.039.308-.29.336-.307.477-.289.444.055 1.381-.119 1.983-.37.643-.268 1.383-.851 1.843-1.454a4.644 4.644 0 0 0 .923-2.656l.013-.45.285-.305c1.716-1.837 1.711-4.531-.012-6.362l-.302-.321v-.4a4.836 4.836 0 0 0-.269-1.501c-.134-.375-.217-.539-.475-.935a4.579 4.579 0 0 0-3.729-2.068l-.437-.008-.311-.29c-1.083-1.012-2.481-1.451-3.911-1.228M12.5 4.059c.624.111 1.218.505 1.661 1.102.323.436.614.564 1.089.477.345-.064.922-.053 1.21.021.47.122.811.323 1.18.697.384.388.591.75.702 1.224.065.278.063.73-.006 1.346a.668.668 0 0 0 .075.445c.081.178.158.263.417.46.436.332.702.636.893 1.021a2.56 2.56 0 0 1-.003 2.295 2.89 2.89 0 0 1-.879 1.014c-.438.324-.564.608-.48 1.075.064.353.056.941-.018 1.224-.121.465-.325.811-.697 1.184-.267.267-.412.377-.645.489a2.807 2.807 0 0 1-1.72.227c-.49-.089-.793.04-1.116.476-.694.936-1.723 1.345-2.731 1.087-.639-.163-1.085-.463-1.512-1.018-.43-.557-.605-.629-1.289-.527-.914.135-1.704-.126-2.313-.766a2.713 2.713 0 0 1-.641-1.172c-.06-.255-.068-.746-.02-1.262.045-.479-.027-.657-.364-.906a6.146 6.146 0 0 1-.536-.472 2.539 2.539 0 0 1-.319-3.209c.221-.329.352-.463.719-.738.141-.106.312-.262.38-.347.117-.145.123-.171.121-.5a8.388 8.388 0 0 0-.033-.666A2.46 2.46 0 0 1 5.884 7a2.643 2.643 0 0 1 1.16-1.153c.537-.258.822-.285 1.866-.182.394.039.608-.076.913-.491a2.93 2.93 0 0 1 1.026-.893c.532-.263 1.036-.33 1.651-.222m2.12 4.987c-.095.049-.867.788-1.889 1.807l-1.73 1.724-.73-.723c-.415-.41-.804-.76-.899-.809-.351-.177-.732-.087-1.073.254-.347.347-.436.712-.259 1.064.126.249 2.341 2.474 2.586 2.596a.83.83 0 0 0 .746.001c.25-.125 4.462-4.346 4.588-4.597.177-.353.088-.717-.259-1.064-.34-.34-.734-.432-1.081-.253" fill-rule="evenodd" fill="#000" stroke="none"/></svg>