<svg xmlns="http://www.w3.org/2000/svg" width="24" height="24" fill="none" stroke="currentColor" stroke-width="2" stroke-linecap="round" stroke-linejoin="round"><path d="M8.477 4.073c-.671.176-1.239.75-1.417 1.435C7.008 5.706 7 6.577 7 12c0 6.828-.012 6.462.225 6.93.136.269.576.709.845.845.452.229.384.225 3.923.225 3.546 0 3.486.003 3.944-.229.26-.132.702-.574.834-.834.241-.475.229-.107.228-6.923 0-6.767.009-6.485-.218-6.931-.135-.267-.484-.634-.764-.802-.469-.282-.381-.276-4.017-.276-2.953 0-3.285.006-3.523.068M15 12v6H9V6h6v6M1.626 7.045c-.369.194-.675.628-.675.955 0 .307.128.487.902 1.27l.722.73-.722.73c-.774.783-.902.963-.902 1.27 0 .307.128.487.902 1.27l.722.73-.722.73c-.774.783-.902.963-.902 1.27 0 .477.572 1.049 1.049 1.049.334 0 .468-.106 1.706-1.343C4.943 14.468 5.049 14.334 5.049 14c0-.307-.128-.487-.902-1.27L3.425 12l.722-.73c.433-.438.758-.801.812-.907a.795.795 0 0 0 .001-.726C4.842 9.4 2.608 7.162 2.372 7.044a.884.884 0 0 0-.746.001m19.994.001c-.23.119-2.467 2.365-2.58 2.591a.795.795 0 0 0 .001.726c.054.106.379.469.812.907l.722.73-.722.73c-.774.783-.902.963-.902 1.27 0 .334.106.468 1.343 1.706 1.238 1.237 1.372 1.343 1.706 1.343.477 0 1.049-.572 1.049-1.049 0-.307-.128-.487-.902-1.27l-.722-.73.722-.73c.774-.783.902-.963.902-1.27 0-.307-.128-.487-.902-1.27l-.722-.73.722-.73c.433-.438.758-.801.812-.907.178-.351.089-.717-.258-1.064-.34-.34-.734-.432-1.081-.253" fill-rule="evenodd" fill="#000" stroke="none"/></svg>