<svg xmlns="http://www.w3.org/2000/svg" width="24" height="24" fill="none" stroke="currentColor" stroke-width="2" stroke-linecap="round" stroke-linejoin="round"><path d="M.508.123C.328.242.14.447.046.627.021.675 0 .848 0 1.011c0 .261.014.316.118.472.065.097.649.707 1.298 1.354l1.179 1.177-.359.091C1.241 4.357.432 5.14.114 6.16l-.094.3v11.08l.094.3a3.086 3.086 0 0 0 2.046 2.046l.3.094h12.08l.3-.094c.759-.237 1.449-.795 1.804-1.461l.126-.234 2.845 2.84c1.565 1.562 2.903 2.869 2.973 2.905.083.041.232.064.423.064.263 0 .316-.014.481-.123.18-.119.368-.324.462-.504.069-.133.058-.634-.018-.785-.047-.094-4.606-4.72-7.189-7.295L5.76 4.305C4.551 3.081 1.506.112 1.412.065 1.328.023 1.181 0 .989 0 .726 0 .673.014.508.123m9.832 3.915c-.468.125-.666.409-.668.959-.002.351.07.559.259.754.232.24.318.249 2.349.249 2.1 0 2.116.002 2.417.303.301.301.303.317.303 2.414l.001 1.823.095.2c.119.251 1.329 1.464 1.554 1.558a.96.96 0 0 0 .664 0c.086-.035 1.171-.797 2.411-1.694l2.255-1.632.02 4.204.02 4.204.1.178c.167.298.452.442.88.442s.713-.144.88-.442l.1-.178.011-5.253c.007-3.561-.003-5.303-.031-5.408-.057-.211-.263-.472-.496-.629-.245-.165-.506-.176-.804-.034-.11.053-1.406.969-2.879 2.037-1.916 1.388-2.694 1.93-2.728 1.901-.035-.029-.051-.497-.062-1.807-.014-1.719-.017-1.775-.107-2.047a3.102 3.102 0 0 0-2.023-2.017l-.321-.1-2.04-.009c-1.122-.004-2.094.006-2.16.024m-.55 7.172L15 16.42v.344c0 .572-.149.892-.516 1.108l-.184.108H2.7l-.184-.108a1.199 1.199 0 0 1-.291-.249C1.988 17.312 2 17.608 2 12.022c0-5.782-.021-5.395.304-5.719.269-.27.397-.297 1.416-.3L4.58 6l5.21 5.21" fill-rule="evenodd" fill="#000" stroke="none"/></svg>