<svg xmlns="http://www.w3.org/2000/svg" width="24" height="24" fill="none" stroke="currentColor" stroke-width="2" stroke-linecap="round" stroke-linejoin="round"><path d="M2.499 4.043C1.379 4.233.461 5.048.114 6.16l-.094.3v11.08l.094.3a3.086 3.086 0 0 0 2.046 2.046l.3.094h12.08l.3-.094a3.108 3.108 0 0 0 2.044-2.026c.09-.271.093-.338.114-2.09l.022-1.81 2.72 1.945c1.496 1.069 2.81 1.987 2.92 2.039.248.118.527.125.734.019.169-.086.404-.329.514-.531.068-.125.072-.398.072-5.472V6.62l-.089-.167c-.195-.364-.719-.544-1.181-.405-.097.029-1.235.816-2.925 2.023l-2.765 1.975-.022-1.813c-.021-1.755-.024-1.822-.114-2.093a3.109 3.109 0 0 0-2.023-2.019l-.321-.101-5.92-.006c-3.256-.003-6.011.01-6.121.029M14.31 6.061c.277.082.546.35.628.625.052.175.06.89.06 5.315 0 4.175-.01 5.145-.054 5.292-.072.24-.237.448-.46.579l-.184.108H2.7l-.184-.108a1.051 1.051 0 0 1-.458-.556c-.089-.255-.087-10.323.003-10.626.079-.269.351-.547.612-.627.29-.089 11.337-.091 11.637-.002m7.68 7.462-.01 1.522-2.112-1.508c-1.161-.829-2.106-1.523-2.1-1.542.007-.019.957-.71 2.112-1.535l2.1-1.5.01 1.52c.006.836.006 2.205 0 3.043" fill="#000" fill-rule="evenodd" stroke="none"/></svg>