<svg xmlns="http://www.w3.org/2000/svg" width="24" height="24" fill="none" stroke="currentColor" stroke-width="2" stroke-linecap="round" stroke-linejoin="round"><path d="M4.499 2.043c-1.109.188-2.017.986-2.384 2.097-.09.274-.092.321-.106 2.167-.009 1.246 0 1.94.028 2.044.107.397.394.61.859.64.485.031.803-.109.984-.433l.1-.178L4 6.56c.022-2.041.013-1.978.321-2.277C4.635 3.979 4.062 4 12 4c7.991 0 7.369-.024 7.697.303.298.298.303.335.303 2.254 0 .991.017 1.722.041 1.808.107.385.396.597.855.626.485.031.803-.109.984-.433l.1-.178V6.42c0-1.943-.001-1.963-.094-2.26a3.089 3.089 0 0 0-2.025-2.039l-.321-.101-7.42-.006c-4.081-.003-7.511.01-7.621.029m6.741 4.001c-2.222.252-4.376 1.636-6.128 3.938-.305.401-.828 1.219-.979 1.532-.25.516-.177.779.497 1.806 1.512 2.302 3.558 3.919 5.63 4.451.681.175.962.209 1.74.209.792 0 1.067-.034 1.78-.221 2.047-.535 4.059-2.13 5.577-4.421.513-.774.623-1.011.623-1.338 0-.327-.11-.564-.623-1.338-1.6-2.415-3.766-4.064-5.911-4.501a7.087 7.087 0 0 0-2.206-.117M12.945 8.1c1.407.269 2.822 1.216 4.034 2.7.263.322.861 1.155.861 1.2 0 .045-.598.878-.861 1.2-1.211 1.482-2.563 2.39-4.031 2.706-.453.098-1.443.098-1.896 0-1.728-.372-3.289-1.559-4.653-3.536L6.144 12l.255-.37c1.222-1.772 2.668-2.956 4.165-3.41.272-.083.627-.15 1.036-.196.24-.028 1.041.017 1.345.076m-1.468 1.973c-.671.176-1.239.75-1.417 1.435a2.07 2.07 0 0 0 .165 1.422c.136.269.576.709.845.845a2.047 2.047 0 0 0 1.86 0c.266-.135.708-.575.841-.838a2.05 2.05 0 0 0 .169-1.408 1.806 1.806 0 0 0-.475-.876A1.972 1.972 0 0 0 12 10.005c-.143 0-.378.031-.523.068m-8.863 4.984a.814.814 0 0 0-.505.396c-.089.166-.089.177-.089 2.127 0 1.943.001 1.963.094 2.26a3.086 3.086 0 0 0 2.046 2.046l.3.094h15.08l.3-.094a3.086 3.086 0 0 0 2.046-2.046c.093-.297.094-.317.094-2.26v-1.96l-.091-.17c-.165-.31-.56-.48-1.015-.439-.435.04-.733.263-.833.624-.024.086-.041.818-.041 1.809 0 1.806-.009 1.896-.221 2.174-.061.08-.194.195-.295.254l-.184.108H4.7l-.184-.108a1.145 1.145 0 0 1-.446-.499c-.036-.082-.055-.606-.07-1.933-.02-1.786-.022-1.823-.109-1.987a.874.874 0 0 0-.213-.254c-.264-.189-.721-.249-1.064-.142" fill-rule="evenodd" fill="#000" stroke="none"/></svg>