<svg xmlns="http://www.w3.org/2000/svg" width="24" height="24" fill="none" stroke="currentColor" stroke-width="2" stroke-linecap="round" stroke-linejoin="round"><path d="M4.86 6.047a5.486 5.486 0 0 0-3.281 1.612c-2.096 2.112-2.099 5.542-.006 7.674a5.44 5.44 0 0 0 3.156 1.608c.584.088 13.958.088 14.542 0a5.408 5.408 0 0 0 2.492-1.026 5.478 5.478 0 0 0 1.152-7.678 5.505 5.505 0 0 0-6.496-1.819c-2.538 1.042-3.93 3.813-3.242 6.453.168.645.411 1.174.803 1.748l.26.381h-2.242c-1.686 0-2.236-.011-2.214-.046.016-.026.12-.174.232-.331.776-1.081 1.126-2.556.925-3.894a5.408 5.408 0 0 0-1.026-2.492 5.495 5.495 0 0 0-5.055-2.19m1.545 2.068c.97.251 1.827.979 2.273 1.931.228.486.3.835.3 1.454s-.072.968-.3 1.454a3.569 3.569 0 0 1-2.318 1.951c-.367.102-1.353.102-1.72 0-1.228-.34-2.203-1.304-2.529-2.5-.119-.437-.119-1.373 0-1.81.356-1.309 1.504-2.344 2.831-2.553.355-.056 1.108-.018 1.463.073m13 0c.97.251 1.827.979 2.273 1.931.228.486.3.835.3 1.454s-.072.968-.3 1.454a3.569 3.569 0 0 1-2.318 1.951c-.367.102-1.353.102-1.72 0-1.228-.34-2.203-1.304-2.529-2.5-.119-.437-.119-1.373 0-1.81.356-1.309 1.504-2.344 2.831-2.553.355-.056 1.108-.018 1.463.073" fill="#000" fill-rule="evenodd" stroke="none"/></svg>