<svg xmlns="http://www.w3.org/2000/svg" width="24" height="24" fill="none" stroke="currentColor" stroke-width="2" stroke-linecap="round" stroke-linejoin="round"><path d="M10.647 4.072c-.107.042-1.094.804-2.584 1.997l-2.41 1.928-1.998.012-1.997.011-.199.102a.796.796 0 0 0-.418.513c-.055.197-.055 6.533 0 6.73a.842.842 0 0 0 .401.515l.178.1 2.017.011 2.017.012 2.367 1.894a163.948 163.948 0 0 0 2.539 2.008c.134.089.228.116.436.128.245.014.278.005.463-.119.238-.16.443-.42.5-.632.029-.105.039-2.478.032-7.408L11.98 4.62l-.089-.167a.874.874 0 0 0-.213-.254 1.18 1.18 0 0 0-1.031-.127M10 12v4.921l-1.749-1.4c-1.228-.983-1.802-1.418-1.927-1.46-.147-.051-.45-.061-1.751-.061H3v-3.997l1.65-.011c1.295-.009 1.673-.024 1.756-.066.058-.03.886-.682 1.84-1.448.954-.765 1.739-1.393 1.744-1.395.005-.002.01 2.211.01 4.917m5.3-4.553c-.438.164-.821.642-.819 1.022.001.223.116.436.414.767.513.569.819 1.134.993 1.829.118.474.127 1.323.019 1.795-.155.671-.467 1.261-.988 1.863-.446.516-.526.772-.356 1.135.101.214.426.548.629.646a.868.868 0 0 0 .714-.015c.514-.267 1.356-1.441 1.712-2.387a5.992 5.992 0 0 0-1.303-6.265c-.364-.373-.708-.505-1.015-.39" fill-rule="evenodd" fill="#000" stroke="none"/></svg>