<svg xmlns="http://www.w3.org/2000/svg" width="24" height="24" fill="none" stroke="currentColor" stroke-width="2" stroke-linecap="round" stroke-linejoin="round"><path d="M10.647 4.072c-.107.042-1.094.804-2.584 1.997l-2.41 1.928-1.998.012-1.997.011-.199.102a.796.796 0 0 0-.418.513c-.055.197-.055 6.533 0 6.73a.842.842 0 0 0 .401.515l.178.1 2.017.011 2.017.012 2.367 1.894a163.948 163.948 0 0 0 2.539 2.008c.134.089.228.116.436.128.245.014.278.005.463-.119.238-.16.443-.42.5-.632.029-.105.039-2.478.032-7.408L11.98 4.62l-.089-.167a.874.874 0 0 0-.213-.254 1.18 1.18 0 0 0-1.031-.127M10 12v4.921l-1.749-1.4c-1.228-.983-1.802-1.418-1.927-1.46-.147-.051-.45-.061-1.751-.061H3v-3.997l1.65-.011c1.295-.009 1.673-.024 1.756-.066.058-.03.886-.682 1.84-1.448.954-.765 1.739-1.393 1.744-1.395.005-.002.01 2.211.01 4.917m6.626-3.955c-.369.194-.675.628-.675.955 0 .333.105.467 1.402 1.77L18.577 12l-1.224 1.23c-1.297 1.303-1.402 1.437-1.402 1.77 0 .477.572 1.049 1.049 1.049.333 0 .467-.105 1.77-1.402L20 13.423l1.23 1.224c1.304 1.297 1.437 1.402 1.771 1.402.301 0 .656-.226.876-.557.109-.165.123-.218.123-.481 0-.193-.022-.339-.065-.423-.036-.07-.615-.681-1.288-1.358L21.423 12l1.224-1.23c.673-.676 1.252-1.288 1.288-1.358.043-.084.065-.23.065-.423 0-.263-.014-.316-.123-.481-.32-.483-.832-.673-1.249-.463-.105.053-.629.543-1.398 1.308L20 10.577l-1.23-1.224c-.769-.765-1.293-1.255-1.398-1.308a.877.877 0 0 0-.746 0" fill="#000" fill-rule="evenodd" stroke="none"/></svg>