<svg xmlns="http://www.w3.org/2000/svg" width="24" height="24" fill="none" stroke="currentColor" stroke-width="2" stroke-linecap="round" stroke-linejoin="round"><path d="M5.499 3.043c-.639.107-1.104.355-1.603.853-.4.4-.6.717-.771 1.217l-.105.307v13.16l.105.307c.171.5.371.817.771 1.217.4.4.717.6 1.217.771l.307.105 7.393.011c4.914.007 7.444-.003 7.544-.03a.84.84 0 0 0 .523-.403l.1-.178.012-1.69.012-1.69h.608c.334 0 .673-.019.753-.041a.842.842 0 0 0 .515-.401l.1-.178v-4.76l-.089-.167c-.191-.356-.468-.453-1.295-.453h-.592l-.012-1.69c-.012-1.659-.014-1.693-.101-1.857C20.7 7.097 20.423 7 19.596 7h-.592l-.012-1.69c-.012-1.659-.014-1.693-.101-1.857a.874.874 0 0 0-.213-.254c-.29-.207-.031-.199-6.734-.194-3.434.002-6.335.02-6.445.038M17 6.001v1l-5.653-.01-5.653-.011-.192-.12c-.373-.233-.557-.636-.473-1.037.079-.377.347-.677.697-.777.083-.024 2.252-.04 5.704-.042L17 5v1.001M5.22 8.91c.186.065.659.071 6.99.081l6.79.011V10.991l-.77.019c-.663.017-.814.033-1.091.116a3.068 3.068 0 0 0-2.025 2.034c-.081.258-.094.379-.091.86.003.488.016.6.105.867.164.494.366.814.768 1.217.404.403.725.605 1.217.767.275.09.39.103 1.097.12l.79.018V19h-6.573c-7.319 0-6.793.02-7.097-.275a1.418 1.418 0 0 1-.232-.307c-.076-.154-.078-.28-.089-4.868-.005-2.591-.005-4.71 0-4.71.006.001.101.032.211.07M21 14v1h-1.573c-1.764 0-1.821-.007-2.097-.275-.419-.406-.43-1.019-.027-1.422.293-.292.325-.297 2.127-.3L21 13v1" fill-rule="evenodd" fill="#000" stroke="none"/></svg>