<svg xmlns="http://www.w3.org/2000/svg" width="24" height="24" fill="none" stroke="currentColor" stroke-width="2" stroke-linecap="round" stroke-linejoin="round"><path d="M14.614 1.057a.814.814 0 0 0-.505.396c-.086.161-.089.212-.101 1.455-.008.812.003 1.346.03 1.444.106.395.394.609.858.639.485.031.803-.109.984-.433l.1-.178V3c0-1.35-.002-1.384-.089-1.547a.874.874 0 0 0-.213-.254c-.264-.189-.721-.249-1.064-.142m-3.988 2.988c-.206.109-.48.388-.588.599a.792.792 0 0 0 .002.719c.12.239 1.558 1.677 1.797 1.797.352.177.717.088 1.064-.259.347-.347.436-.712.259-1.064-.117-.232-1.558-1.677-1.788-1.793a.88.88 0 0 0-.746.001m7.994.001c-.225.117-1.668 1.569-1.78 1.791-.177.352-.088.717.259 1.064.347.347.712.436 1.064.259.239-.12 1.677-1.558 1.797-1.797.177-.352.088-.717-.259-1.064-.34-.34-.734-.432-1.081-.253M7.614 8.057a.814.814 0 0 0-.505.396c-.074.139-.089.231-.089.547 0 .331.013.403.1.558.11.197.294.34.515.401.191.053 2.539.053 2.73 0a.842.842 0 0 0 .515-.401c.087-.156.1-.226.099-.558-.001-.313-.017-.409-.089-.547-.104-.197-.267-.322-.519-.398-.254-.076-2.512-.074-2.757.002m7 0c-.391.123-.575.379-.605.843-.044.678.26 1.051.887 1.091.485.031.803-.109.984-.433.087-.156.1-.226.099-.558-.001-.433-.081-.645-.301-.801-.264-.189-.721-.249-1.064-.142m5 0a.814.814 0 0 0-.505.396c-.074.139-.089.231-.089.547 0 .331.013.403.1.558.11.197.294.34.515.401.191.053 2.539.053 2.73 0a.842.842 0 0 0 .515-.401c.087-.156.1-.226.099-.558-.001-.313-.017-.409-.089-.547-.104-.197-.267-.322-.519-.398-.254-.076-2.512-.074-2.757.002m-2.188 2.788c-.369.194-.675.628-.675.955 0 .315.123.485.943 1.306.479.478.833.798.943.854.352.177.717.088 1.064-.259.347-.347.436-.712.259-1.064-.117-.232-1.558-1.677-1.788-1.793a.88.88 0 0 0-.746.001m-5.806.201c-.238.122-9.465 9.359-9.581 9.591-.175.353-.086.718.26 1.064.346.346.711.435 1.064.26.251-.126 9.472-9.347 9.598-9.598.175-.353.086-.718-.26-1.064-.339-.34-.733-.432-1.081-.253m2.994 2.011a.814.814 0 0 0-.505.396c-.086.161-.089.212-.101 1.455-.008.812.003 1.346.03 1.444.106.395.394.609.858.639.485.031.803-.109.984-.433l.1-.178V15c0-1.35-.002-1.384-.089-1.547a.874.874 0 0 0-.213-.254c-.264-.189-.721-.249-1.064-.142" fill-rule="evenodd" fill="#000" stroke="none"/></svg>