<svg xmlns="http://www.w3.org/2000/svg" width="24" height="24" fill="none" stroke="currentColor" stroke-width="2" stroke-linecap="round" stroke-linejoin="round"><path d="M9.26.059c-.516.099-.867.263-1.308.614a2.97 2.97 0 0 0-1.089 1.911c-.014.108-.096.958-.182 1.89l-.157 1.693-.333.347C4.8 7.961 4 9.964 4 12c0 2.033.8 4.039 2.187 5.482l.329.342.164 1.798c.09.989.189 1.907.219 2.04.25 1.083 1.006 1.884 2.101 2.225l.3.093h5.4l.3-.094c1.124-.351 1.932-1.256 2.119-2.374.023-.139.113-1.023.199-1.965l.156-1.713.334-.347C19.2 16.039 20 14.037 20 12a8 8 0 0 0-2.183-5.48l-.325-.34-.166-1.842c-.176-1.949-.22-2.209-.449-2.669A3.143 3.143 0 0 0 15.384.246C14.871.02 14.949.025 12.14.015 10.1.007 9.48.017 9.26.059m5.363 2.048c.189.101.418.341.489.513.042.101.254 2.057.227 2.092-.005.006-.16-.05-.344-.126-1.857-.766-4.211-.763-6.015.008-.154.066-.285.114-.292.107-.022-.022.155-1.837.194-1.981a.921.921 0 0 1 .335-.5c.29-.222.245-.218 2.843-.209 2.38.009 2.401.01 2.563.096m-2.059 3.932c.523.051.942.141 1.41.303.622.215 1.439.671 1.721.961.069.071.216.198.326.283.484.371 1.005 1.059 1.389 1.834.658 1.329.758 3.063.261 4.52a6.13 6.13 0 0 1-.881 1.66c-.215.289-.737.84-.795.84-.02 0-.153.108-.294.24-.585.543-1.516.985-2.541 1.205-.606.13-1.714.13-2.32 0-1.007-.216-2.104-.737-2.549-1.211a1.328 1.328 0 0 0-.265-.22c-.35-.184-1.053-1.102-1.436-1.874-.658-1.329-.758-3.063-.261-4.52A6.13 6.13 0 0 1 7.21 8.4c.213-.286.737-.84.794-.84.02 0 .159-.114.311-.252.991-.91 2.698-1.42 4.249-1.269m-.95 2.018a.814.814 0 0 0-.505.396c-.088.166-.089.181-.089 2.007v1.84l.106.18c.059.099.509.578 1 1.064.982.97 1.093 1.047 1.458 1.006.411-.047.927-.572.966-.985.032-.333-.076-.496-.855-1.285l-.69-.7-.013-1.48c-.012-1.442-.014-1.484-.101-1.647a.874.874 0 0 0-.213-.254c-.264-.189-.721-.249-1.064-.142M9.68 19.655a8.004 8.004 0 0 0 5.31-.236c.182-.073.33-.115.33-.094 0 .174-.172 1.847-.202 1.959-.056.214-.25.456-.466.583l-.192.113H12c-2.455 0-2.46 0-2.624-.088-.188-.1-.402-.33-.478-.511-.045-.107-.218-1.696-.218-1.996v-.099l.33.133c.181.073.483.179.67.236" fill-rule="evenodd" fill="#000" stroke="none"/></svg>