<svg xmlns="http://www.w3.org/2000/svg" width="24" height="24" fill="none" stroke="currentColor" stroke-width="2" stroke-linecap="round" stroke-linejoin="round"><path d="M8.915 4.043a4.072 4.072 0 0 0-1.608.526c-.15.087-.546.364-.88.616-.334.251-.715.511-.847.576-.615.305-1.535.315-2.147.023a3.364 3.364 0 0 1-.473-.305c-.496-.386-.684-.493-.905-.511-.291-.024-.466.048-.718.293-.396.386-.491.823-.259 1.189.193.304 1.133 1.003 1.604 1.193 1.219.489 2.56.474 3.703-.043.295-.133.576-.319 1.305-.866.853-.639 1.046-.713 1.85-.71.766.003 1.015.104 1.8.733.492.394 1.075.779 1.34.885 1.225.491 2.561.475 3.705-.042.295-.133.576-.319 1.305-.866.853-.639 1.046-.713 1.85-.71.746.002.979.091 1.69.644.181.141.395.283.476.317.342.143.727.03 1.019-.298.343-.386.414-.795.197-1.137-.193-.305-.968-.886-1.537-1.152-1.131-.529-2.726-.512-3.83.04-.358.179-.6.341-1.255.84a6.24 6.24 0 0 1-.72.484c-.616.304-1.536.314-2.147.022a3.364 3.364 0 0 1-.473-.305c-.835-.651-1.14-.863-1.5-1.039-.751-.369-1.586-.499-2.545-.397m0 6a4.072 4.072 0 0 0-1.608.526c-.15.087-.546.364-.88.616-.334.251-.715.511-.847.576-.615.305-1.535.315-2.147.023a3.364 3.364 0 0 1-.473-.305c-.496-.386-.684-.493-.905-.511-.291-.024-.466.048-.718.293-.396.386-.491.823-.259 1.189.193.304 1.133 1.003 1.604 1.193 1.219.489 2.56.474 3.703-.043.295-.133.576-.319 1.305-.866.853-.639 1.046-.713 1.85-.71.766.003 1.015.104 1.8.733.492.394 1.075.779 1.34.885 1.225.491 2.561.475 3.705-.042.295-.133.576-.319 1.305-.866.853-.639 1.046-.713 1.85-.71.746.002.979.091 1.69.644.181.141.395.283.476.317.342.143.727.03 1.019-.298.343-.386.414-.795.197-1.137-.193-.305-.968-.886-1.537-1.152-1.131-.529-2.726-.512-3.83.04-.358.179-.6.341-1.255.84a6.24 6.24 0 0 1-.72.484c-.616.304-1.536.314-2.147.022a3.364 3.364 0 0 1-.473-.305c-.835-.651-1.14-.863-1.5-1.039-.751-.369-1.586-.499-2.545-.397m0 6a4.072 4.072 0 0 0-1.608.526c-.15.087-.546.364-.88.616-.334.251-.715.511-.847.576-.615.305-1.535.315-2.147.023a3.364 3.364 0 0 1-.473-.305c-.496-.386-.684-.493-.905-.511-.291-.024-.466.048-.718.293-.396.386-.491.823-.259 1.189.193.304 1.133 1.003 1.604 1.193 1.219.489 2.56.474 3.703-.043.295-.133.576-.319 1.305-.866.853-.639 1.046-.713 1.85-.71.766.003 1.015.104 1.8.733.492.394 1.075.779 1.34.885 1.225.491 2.561.475 3.705-.042.295-.133.576-.319 1.305-.866.853-.639 1.046-.713 1.85-.71.746.002.979.091 1.69.644.181.141.395.283.476.317.342.143.727.03 1.019-.298.343-.386.414-.795.197-1.137-.193-.305-.968-.886-1.537-1.152-1.131-.529-2.726-.512-3.83.04-.358.179-.6.341-1.255.84a6.24 6.24 0 0 1-.72.484c-.616.304-1.536.314-2.147.022a3.364 3.364 0 0 1-.473-.305c-.835-.651-1.14-.863-1.5-1.039-.751-.369-1.586-.499-2.545-.397" fill-rule="evenodd" fill="#000" stroke="none"/></svg>