<svg xmlns="http://www.w3.org/2000/svg" width="24" height="24" fill="none" stroke="currentColor" stroke-width="2" stroke-linecap="round" stroke-linejoin="round"><path d="M11.34 1.024c-1.314.136-2.249.391-3.28.894A8.874 8.874 0 0 0 3.939 6.02a8.91 8.91 0 0 0 0 7.96 8.878 8.878 0 0 0 4.121 4.102c.846.412 1.725.69 2.56.811l.36.051.011 1.028.01 1.028H8.907c-2.233 0-2.315.006-2.585.199-.222.158-.302.369-.302.801 0 .331.013.403.1.558.11.197.294.34.515.401.199.056 10.531.056 10.73 0a.842.842 0 0 0 .515-.401c.087-.156.1-.226.099-.558-.001-.433-.081-.645-.301-.801-.27-.193-.352-.199-2.585-.199h-2.094l.01-1.028.011-1.028.36-.051c1.472-.212 3.065-.918 4.277-1.895.174-.14.489-.428.701-.64A8.973 8.973 0 0 0 20.084 6.06a8.996 8.996 0 0 0-6.764-4.959c-.409-.062-1.658-.11-1.98-.077m1.762 2.074c2.997.453 5.389 2.887 5.822 5.922.066.463.066 1.497 0 1.96-.437 3.067-2.798 5.444-5.904 5.946-.413.066-1.627.066-2.04 0-3.107-.502-5.467-2.879-5.904-5.946-.109-.763-.054-1.887.129-2.64a7.038 7.038 0 0 1 5.135-5.135c.284-.07.724-.136 1.2-.182.273-.026 1.186.018 1.562.075m-1.744 2.963c-1.128.176-2.215.913-2.789 1.892a3.992 3.992 0 0 0 1.943 5.751 3.988 3.988 0 0 0 5.192-2.216 3.963 3.963 0 0 0 .001-2.972 3.978 3.978 0 0 0-3.1-2.458 3.728 3.728 0 0 0-1.247.003m1.165 2.012a2.011 2.011 0 0 1 1.444 1.617c.1.653-.094 1.243-.564 1.714-.401.403-.856.596-1.403.596-.515 0-.962-.178-1.347-.535-1.33-1.236-.464-3.46 1.347-3.46.143 0 .378.031.523.068" fill-rule="evenodd" fill="#000" stroke="none"/></svg>