<svg xmlns="http://www.w3.org/2000/svg" width="24" height="24" fill="none" stroke="currentColor" stroke-width="2" stroke-linecap="round" stroke-linejoin="round"><path d="M10.903 4.04c-2.936.23-5.565 1.143-7.923 2.751-.93.635-1.802 1.379-1.946 1.661a.831.831 0 0 0 .012.731c.109.219.449.549.654.634.347.145.598.056 1.147-.408 1.735-1.467 3.637-2.455 5.744-2.984C9.769 6.13 10.67 6.024 12 6.024c1.295 0 2.191.102 3.323.378 2.142.524 4.058 1.512 5.833 3.01.546.461.798.55 1.144.405.205-.085.545-.415.654-.634a.831.831 0 0 0 .012-.731c-.158-.31-1.139-1.128-2.146-1.791-2.178-1.433-4.486-2.266-7.1-2.562-.651-.074-2.213-.106-2.817-.059m.137 5.144c-.977.116-1.41.198-2.12.403-1.591.458-3.032 1.267-4.32 2.422-.486.436-.649.685-.649.987 0 .484.565 1.053 1.045 1.053.259 0 .442-.103.865-.488C7.618 11.964 9.672 11.16 12 11.16c2.318 0 4.39.81 6.139 2.401.421.383.606.488.861.488.479 0 1.049-.572 1.049-1.053 0-.302-.163-.551-.649-.987-1.671-1.5-3.565-2.397-5.8-2.75-.402-.063-2.209-.116-2.56-.075m.34 4.921c-.859.13-1.363.273-1.957.557-.785.374-1.728 1.119-1.901 1.502-.158.348-.063.698.287 1.048.474.476.872.46 1.459-.059a4.249 4.249 0 0 1 1.765-.962c.445-.123 1.489-.123 1.934 0a4.249 4.249 0 0 1 1.765.962c.587.519.985.535 1.459.059.497-.499.484-.956-.041-1.462a6.065 6.065 0 0 0-3.063-1.574c-.334-.062-1.46-.108-1.707-.071m.234 4.95c-.394.129-.575.382-.605.845-.031.481.11.799.433.98.155.087.227.1.558.1.312 0 .408-.016.54-.086.326-.176.46-.435.46-.894 0-.643-.287-.952-.917-.984-.19-.01-.365.005-.469.039" fill-rule="evenodd" fill="#000" stroke="none"/></svg>