<svg xmlns="http://www.w3.org/2000/svg" width="24" height="24" fill="none" stroke="currentColor" stroke-width="2" stroke-linecap="round" stroke-linejoin="round"><path d="M1.626 1.045c-.206.109-.48.388-.588.599a.792.792 0 0 0 .002.719c.06.12.623.713 1.752 1.846.915.918 1.656 1.675 1.646 1.682-.01.008-.216.128-.458.267-1.213.698-2.737 1.884-2.945 2.291-.179.352-.067.756.308 1.11.337.319.631.395.957.247.088-.041.387-.263.665-.494a14.21 14.21 0 0 1 2.516-1.704l.462-.246 1.189 1.19 1.189 1.19-.31.113c-.466.171-1.43.674-1.975 1.031-.849.555-1.822 1.41-1.995 1.751-.178.351-.089.717.258 1.064.341.341.714.436 1.048.266.089-.046.311-.22.493-.387.949-.871 1.845-1.452 2.86-1.852.449-.177 1.053-.368 1.166-.368.044 0 .626.551 1.444 1.37l1.37 1.37-.69.001c-1.008.002-1.725.159-2.567.561-.785.374-1.728 1.119-1.901 1.502-.158.348-.063.698.287 1.048.474.476.872.46 1.459-.059a4.249 4.249 0 0 1 1.765-.962c.445-.123 1.489-.123 1.934 0a4.249 4.249 0 0 1 1.765.962c.45.397.748.488 1.088.331l.16-.075 2.74 2.732c1.918 1.911 2.793 2.757 2.917 2.82.353.176.717.087 1.064-.26.347-.346.436-.711.26-1.064-.064-.127-1.772-1.865-6.028-6.137l-6.006-6.027A2019.33 2019.33 0 0 0 2.56 1.168c-.296-.226-.65-.273-.934-.123m9.052 2.957c-.396.035-.606.112-.787.287-.164.159-.226.342-.226.671 0 .456.173.792.495.964.078.041.441.053 1.64.056 1.617.003 1.861.022 2.88.222 2.422.476 4.59 1.537 6.52 3.191.575.493.947.544 1.38.189.343-.281.535-.708.454-1.01-.063-.234-.213-.424-.589-.744-2.576-2.193-5.617-3.492-8.917-3.809-.654-.062-2.237-.072-2.85-.017m5.782 6.27c-.286.134-.587.575-.648.947a.82.82 0 0 0 .211.636c.073.076.337.264.585.418a9.22 9.22 0 0 1 1.496 1.127c.509.468.69.577.954.576.257-.001.457-.098.707-.341.332-.323.433-.678.291-1.019-.188-.448-1.659-1.654-2.705-2.216-.378-.203-.649-.242-.891-.128m-4.846 8.783c-.394.129-.575.382-.605.845-.031.481.11.799.433.98.155.087.227.1.558.1.312 0 .408-.016.54-.086.326-.176.46-.435.46-.894 0-.643-.287-.952-.917-.984-.19-.01-.365.005-.469.039" fill-rule="evenodd" fill="#000" stroke="none"/></svg>