<svg xmlns="http://www.w3.org/2000/svg" width="24" height="24" fill="none" stroke="currentColor" stroke-width="2" stroke-linecap="round" stroke-linejoin="round"><path d="M10.553 3.038c-.856.157-1.637.658-1.933 1.239-.16.316-.024.775.319 1.071.473.408.862.403 1.341-.018.288-.253.422-.309.74-.307.319.003.519.086.728.303.457.477.303 1.28-.304 1.582-.135.068-.43.073-4.965.092l-4.821.02-.199.102c-.34.175-.481.484-.45.982.029.459.241.748.626.855.093.026 1.843.041 4.917.041 5.191 0 5.043.006 5.612-.224A3.063 3.063 0 0 0 13.7 7.344c.25-.52.315-.796.315-1.344 0-.552-.065-.824-.323-1.359-.156-.324-.235-.431-.547-.741-.304-.303-.428-.395-.745-.552a4.189 4.189 0 0 0-.62-.25c-.289-.074-.969-.107-1.227-.06m8.487 2.985-.34.061c-.541.098-1.114.39-1.607.821-.278.244-.453.546-.453.783 0 .461.593 1.068 1.045 1.071.205.001.368-.078.735-.356.396-.3.618-.382 1.042-.382.293-.001.35.013.628.15.515.255.789.666.822 1.232.041.704-.352 1.294-1.01 1.517-.235.079-.329.08-9.163.08-9.592 0-9.124-.01-9.417.199-.222.158-.302.369-.302.801 0 .331.013.403.1.558a.843.843 0 0 0 .523.403c.1.027 3.21.037 9.283.029l9.134-.01.3-.092c2.268-.694 3.26-3.211 2.055-5.213-.452-.752-1.241-1.332-2.115-1.556-.306-.078-1.044-.134-1.26-.096M1.614 15.057c-.391.123-.575.379-.605.843-.031.481.11.799.433.98l.178.1 6.34.02 6.34.02.161.086c.599.321.741 1.094.287 1.568-.213.221-.409.304-.728.304-.318 0-.454-.057-.74-.308-.256-.225-.442-.31-.68-.31-.345 0-.732.264-.936.64-.221.405-.127.753.316 1.18.41.395.879.636 1.468.757.672.137 1.275.05 1.952-.283.32-.158.438-.245.745-.552.311-.311.392-.421.547-.743.258-.535.323-.807.323-1.359 0-.548-.065-.824-.313-1.34a2.955 2.955 0 0 0-1.401-1.366c-.622-.295-.009-.271-7.121-.281-5.189-.007-6.431.001-6.566.044" fill-rule="evenodd" fill="#000" stroke="none"/></svg>