<svg xmlns="http://www.w3.org/2000/svg" width="24" height="24" fill="none" stroke="currentColor" stroke-width="2" stroke-linecap="round" stroke-linejoin="round"><path d="M2.614 5.057a.814.814 0 0 0-.505.396c-.074.139-.089.231-.089.547 0 .331.013.403.1.558.11.197.294.34.515.401.2.056 18.53.056 18.73 0a.842.842 0 0 0 .515-.401c.087-.156.1-.226.099-.558-.001-.433-.081-.645-.301-.801-.293-.209.199-.199-9.694-.196-7.438.002-9.236.012-9.37.054m0 6a.814.814 0 0 0-.505.396c-.074.139-.089.231-.089.547 0 .331.013.403.1.558.11.197.294.34.515.401.095.027 2.83.041 7.885.043 8.635.003 8.004-.018 8.497.279a2.023 2.023 0 0 1 .776 2.599c-.155.318-.566.745-.863.895-.387.196-.589.225-1.583.225h-.916l.225-.243c.399-.431.488-.755.306-1.113a1.639 1.639 0 0 0-.597-.601.86.86 0 0 0-.737.002c-.101.051-.567.479-1.168 1.074-.55.543-1.061 1.03-1.136 1.081-.175.121-.373.545-.373.8 0 .238.199.682.352.784.062.042.573.528 1.135 1.081 1.084 1.066 1.24 1.184 1.562 1.184.477 0 1.049-.572 1.049-1.049 0-.24-.11-.451-.393-.757L16.431 19h.968c.809 0 1.033-.013 1.358-.079 1.36-.278 2.436-1.166 2.947-2.433a3.963 3.963 0 0 0 .001-2.972 3.978 3.978 0 0 0-3.1-2.458c-.543-.081-15.73-.082-15.991-.001m0 6a.814.814 0 0 0-.505.396c-.074.139-.089.231-.089.547 0 .331.013.403.1.558.11.197.294.34.515.401.198.055 7.532.055 7.73 0a.842.842 0 0 0 .515-.401c.087-.156.1-.226.099-.558-.001-.433-.081-.645-.301-.801-.283-.202-.229-.199-4.194-.196-2.923.002-3.739.013-3.87.054" fill-rule="evenodd" fill="#000" stroke="none"/></svg>