<svg xmlns="http://www.w3.org/2000/svg" width="24" height="24" fill="none" stroke="currentColor" stroke-width="2" stroke-linecap="round" stroke-linejoin="round"><path d="M15.105 1.062c-1.15.157-2.077.501-2.985 1.11A6.965 6.965 0 0 0 9.268 6.08c-.206.734-.248 1.072-.245 1.98.002.88.052 1.251.256 1.907l.079.253-3.352 3.36C3.813 15.778 2.6 17.022 2.5 17.177a3.03 3.03 0 0 0-.487 1.861c.012.232.052.53.088.662.278 1.024 1.175 1.921 2.199 2.199.132.036.43.076.662.088a3.03 3.03 0 0 0 1.861-.487c.155-.1 1.399-1.313 3.597-3.506l3.36-3.352.253.079c.66.205 1.027.255 1.907.257.916.002 1.29-.045 2.02-.257 1.171-.34 2.095-.891 2.983-1.778 1.065-1.066 1.692-2.269 1.96-3.763.089-.498.118-1.47.059-1.981-.104-.89-.479-2.028-.776-2.35-.206-.223-.489-.369-.715-.368-.361.002-.418.05-2.501 2.131l-1.971 1.967-.789-.789-.789-.789 1.943-1.951c1.204-1.208 1.968-2.005 2.009-2.095.283-.622.108-1.051-.553-1.357-1.098-.508-2.467-.706-3.715-.536m1.355 1.963c.05.02-.269.363-1.329 1.43-1.303 1.312-1.404 1.424-1.522 1.686a1.985 1.985 0 0 0 .017 1.747c.127.267.228.381 1.166 1.316.937.934 1.055 1.038 1.328 1.17.584.284 1.175.284 1.767 0 .27-.13.396-.243 1.681-1.524 1.108-1.104 1.395-1.369 1.416-1.313.049.126-.019 1.152-.099 1.523-.215.985-.628 1.733-1.36 2.465-.976.976-2.174 1.475-3.542 1.475-.665 0-1.186-.106-1.919-.388-.406-.157-.691-.178-.932-.069-.101.047-1.361 1.275-3.792 3.698-3.325 3.315-3.657 3.634-3.837 3.694a1.131 1.131 0 0 1-1.383-.56c-.129-.252-.14-.708-.023-.955.051-.109 1.238-1.326 3.706-3.8l3.631-3.64.067-.234c.08-.28.068-.355-.144-.899-.264-.673-.331-1.041-.334-1.807-.002-.498.016-.748.073-1.02.203-.973.617-1.763 1.288-2.46.822-.852 1.676-1.301 2.856-1.501.32-.054 1.109-.076 1.22-.034" fill-rule="evenodd" fill="#000" stroke="none"/></svg>