<svg xmlns="http://www.w3.org/2000/svg" width="24" height="24" fill="none" stroke="currentColor" stroke-width="2" stroke-linecap="round" stroke-linejoin="round"><path d="M7.54 1.061a1.639 1.639 0 0 1-.179.058A370.74 370.74 0 0 0 4.266 4.19C1.807 6.646 1.173 7.3 1.096 7.46l-.095.2V12c.001 4.266.002 4.343.081 4.52.122.27 6.094 6.248 6.378 6.384l.2.095h8.68l.2-.095c.284-.136 6.256-6.114 6.378-6.384.079-.177.08-.253.08-4.52 0-4.267-.001-4.343-.08-4.52-.063-.139-.776-.876-3.13-3.233-1.742-1.744-3.117-3.09-3.208-3.14l-.16-.087-4.36-.009c-3.724-.007-4.383 0-4.52.05M18.37 5.63 21 8.26v7.48l-2.63 2.63L15.74 21H8.26l-2.63-2.63L3 15.74V8.26l2.63-2.63L8.26 3h7.48l2.63 2.63M8.626 8.045c-.369.194-.675.628-.675.955 0 .333.105.467 1.402 1.77L10.577 12l-1.224 1.23C8.056 14.533 7.951 14.667 7.951 15c0 .477.572 1.049 1.049 1.049.333 0 .467-.105 1.77-1.402L12 13.423l1.23 1.224c1.303 1.297 1.437 1.402 1.77 1.402.477 0 1.049-.572 1.049-1.049 0-.333-.105-.467-1.402-1.77L13.423 12l1.224-1.23c.805-.809 1.254-1.291 1.313-1.407.177-.352.088-.717-.259-1.064-.34-.341-.721-.431-1.073-.254-.105.053-.629.543-1.398 1.308L12 10.577l-1.23-1.224c-.769-.765-1.293-1.255-1.398-1.308a.877.877 0 0 0-.746 0" fill="#000" fill-rule="evenodd" stroke="none"/></svg>