<svg xmlns="http://www.w3.org/2000/svg" width="24" height="24" fill="none" stroke="currentColor" stroke-width="2" stroke-linecap="round" stroke-linejoin="round"><path d="M5.626 5.045c-.206.109-.48.388-.588.599a.795.795 0 0 0 .001.719c.063.124.903.993 2.814 2.907L10.579 12l-2.726 2.73c-1.911 1.914-2.751 2.783-2.814 2.907-.176.353-.087.717.26 1.064.347.347.711.436 1.064.26.124-.063.993-.903 2.907-2.814L12 13.421l2.73 2.726c1.914 1.911 2.783 2.751 2.907 2.814.353.176.717.087 1.064-.26.347-.347.436-.711.26-1.064-.063-.124-.903-.993-2.814-2.907L13.421 12l2.726-2.73c1.911-1.914 2.751-2.783 2.814-2.907.176-.353.087-.717-.26-1.064-.34-.34-.721-.431-1.073-.255-.112.056-1.07.985-2.898 2.809L12 10.579 9.27 7.853C7.442 6.029 6.484 5.1 6.372 5.044a.884.884 0 0 0-.746.001" fill="#000" fill-rule="evenodd" stroke="none"/></svg>