<svg xmlns="http://www.w3.org/2000/svg" width="24" height="24" fill="none" stroke="currentColor" stroke-width="2" stroke-linecap="round" stroke-linejoin="round"><path d="M8.98 3.043c-3.174.08-5.236.253-5.972.5C1.826 3.939.911 4.85.564 5.976c-.153.497-.365 2-.491 3.484-.068.795-.069 3.802-.002 4.6.128 1.523.359 3.124.507 3.519.209.554.476.981.858 1.372.801.818 1.551 1.097 3.404 1.266 1.741.159 4.019.233 7.16.233 3.823 0 6.751-.127 8.22-.356.986-.154 1.75-.533 2.346-1.165.622-.66.874-1.216 1.052-2.329.276-1.724.361-2.885.361-4.9 0-1.997-.088-3.195-.357-4.862-.188-1.166-.457-1.75-1.103-2.397a3.996 3.996 0 0 0-1.639-.976c-1.221-.343-6.962-.546-11.9-.422M14.9 5.04c1.943.046 3.131.099 4.135.184 1.294.109 1.602.197 2.018.577.332.303.459.582.571 1.254.255 1.527.35 2.787.351 4.645 0 1.837-.1 3.18-.348 4.64-.113.671-.226.93-.544 1.245-.396.393-.775.514-1.983.633-1.545.152-3.975.232-7.1.232-3.867 0-6.824-.13-8.036-.353-.638-.117-1.059-.387-1.35-.867-.125-.206-.158-.316-.241-.804-.248-1.472-.348-2.805-.348-4.666 0-1.871.095-3.131.351-4.665.112-.672.239-.951.571-1.254a1.83 1.83 0 0 1 .913-.457c1.367-.282 6.68-.448 11.04-.344M9.33 7.522c-.206.105-.352.27-.477.543l-.095.206.011 3.574.011 3.575.11.187c.154.263.438.4.826.4.243 0 .318-.019.552-.14.545-.28 5.748-3.259 5.924-3.391.351-.262.438-.651.243-1.076a1.435 1.435 0 0 0-.223-.342c-.097-.097-5.394-3.143-6.09-3.502-.253-.131-.575-.145-.792-.034m4.099 4.227c.007.024-2.479 1.461-2.636 1.524-.018.008-.033-.679-.033-1.526v-1.54l1.33.755c.731.416 1.334.77 1.339.787" fill-rule="evenodd" fill="#000" stroke="none"/></svg>