<svg xmlns="http://www.w3.org/2000/svg" width="24" height="24" fill="none" stroke="currentColor" stroke-width="2" stroke-linecap="round" stroke-linejoin="round"><path d="M.508.123C.328.242.14.447.046.627c-.069.132-.058.634.018.785.036.07 1.531 1.596 3.323 3.391l3.258 3.263-2.267 2.717c-1.247 1.494-2.3 2.789-2.342 2.877a1.023 1.023 0 0 0-.075.385.588.588 0 0 0 .129.419c.155.23.415.437.621.494.098.027 1.518.042 4.152.042h4.002l-.434 3.45c-.475 3.768-.482 3.869-.293 4.154.137.208.45.358.805.386.22.018.284.006.474-.087.206-.1.368-.285 2.432-2.763l2.211-2.656 3.2 3.194c1.76 1.756 3.258 3.222 3.328 3.258.083.041.232.064.423.064.263 0 .316-.014.481-.123.18-.119.368-.324.462-.504.025-.048.046-.221.046-.384 0-.261-.014-.316-.118-.472C23.72 22.275 1.572.144 1.412.064 1.329.023 1.179 0 .989 0 .726 0 .673.014.508.123m12.157.933a1.202 1.202 0 0 0-.289.171c-.238.201-2.66 3.144-2.76 3.353-.132.278-.126.507.022.765.207.36.606.615.964.615.274 0 .491-.125.769-.443.104-.119.189-.198.19-.176.001.021-.039.384-.088.807-.086.741-.087.775-.02.988a.835.835 0 0 0 .548.54c.669.2 1.186-.003 1.337-.524.099-.342.671-5.05.649-5.343-.024-.34-.158-.542-.446-.674-.269-.123-.662-.158-.876-.079m2.675 7.983c-.465.12-.666.408-.668.958-.002.339.069.555.24.738.229.244.222.243 2.16.265l1.771.02-.556.667c-.643.772-.724.897-.755 1.16-.033.277.065.501.329.75.477.451.907.482 1.329.096.264-.241 2.69-3.175 2.774-3.353.044-.096.075-.251.075-.385a.588.588 0 0 0-.129-.419c-.155-.23-.415-.437-.621-.494-.175-.049-5.76-.051-5.949-.003M9.96 12.99c-.88.006-2.322.006-3.205 0l-1.605-.01 1.455-1.748L8.06 9.484l1.75 1.748 1.75 1.748-1.6.01m4.648 3.111c-.112.186-2.15 2.576-2.159 2.532-.01-.049.427-3.658.495-4.088l.025-.155.833.832c.505.505.823.851.806.879" fill="#000" fill-rule="evenodd" stroke="none"/></svg>