<svg xmlns="http://www.w3.org/2000/svg" width="24" height="24" fill="none" stroke="currentColor" stroke-width="2" stroke-linecap="round" stroke-linejoin="round"><path d="M12.665 1.056a1.202 1.202 0 0 0-.289.171c-.215.182-10.257 12.257-10.34 12.433a1.023 1.023 0 0 0-.075.385.588.588 0 0 0 .129.419c.155.23.415.437.621.494.098.027 1.518.042 4.152.042h4.002l-.434 3.45c-.475 3.768-.482 3.869-.293 4.154.137.208.45.358.805.386.219.018.284.006.474-.087.208-.102.493-.434 5.346-6.255 2.819-3.382 5.159-6.22 5.201-6.308.044-.096.075-.251.075-.385a.588.588 0 0 0-.129-.419c-.155-.23-.415-.437-.621-.494C21.191 9.015 19.771 9 17.137 9h-4.002l.434-3.45c.475-3.768.482-3.869.293-4.154-.199-.301-.824-.479-1.197-.34m-1.387 6.626c-.182 1.444-.277 2.338-.266 2.481.031.36.172.584.468.742.133.071.321.076 3.755.095l3.615.02-3.195 3.834c-1.757 2.109-3.2 3.809-3.206 3.779-.007-.031.116-1.073.273-2.315.2-1.589.278-2.326.262-2.488-.038-.385-.196-.612-.529-.759-.089-.04-.919-.055-3.71-.071l-3.595-.02 3.195-3.834c1.757-2.109 3.2-3.809 3.206-3.779.007.031-.116 1.073-.273 2.315" fill="#000" fill-rule="evenodd" stroke="none"/></svg>