<svg xmlns="http://www.w3.org/2000/svg" width="24" height="24" fill="none" stroke="currentColor" stroke-width="2" stroke-linecap="round" stroke-linejoin="round"><path d="M10.34 2.024c-1.314.136-2.249.391-3.28.894A8.874 8.874 0 0 0 2.939 7.02a8.91 8.91 0 0 0 0 7.96 8.46 8.46 0 0 0 1.682 2.357 8.968 8.968 0 0 0 10.319 1.746 9.582 9.582 0 0 0 1.498-.91l.177-.136 1.923 1.917c1.319 1.316 1.978 1.945 2.099 2.006.352.177.717.088 1.064-.259.347-.347.436-.712.259-1.064-.061-.121-.69-.78-2.006-2.099l-1.917-1.923.136-.177c.306-.401.652-.97.91-1.498a8.95 8.95 0 0 0 .001-7.88 8.996 8.996 0 0 0-6.764-4.959c-.409-.062-1.658-.11-1.98-.077m1.762 2.074c2.997.453 5.389 2.887 5.822 5.922.066.463.066 1.497 0 1.96-.437 3.067-2.798 5.444-5.904 5.946-.413.066-1.627.066-2.04 0-3.107-.502-5.467-2.879-5.904-5.946-.109-.763-.054-1.887.129-2.64A7.038 7.038 0 0 1 9.34 4.205c.284-.07.724-.136 1.2-.182.273-.026 1.186.018 1.562.075m-4.488 5.959a.814.814 0 0 0-.505.396c-.074.139-.089.231-.089.547 0 .331.013.403.1.558.11.197.294.34.515.401.197.055 6.533.055 6.73 0a.842.842 0 0 0 .515-.401c.087-.156.1-.226.099-.558-.001-.433-.081-.645-.301-.801-.28-.2-.267-.199-3.694-.196-2.512.002-3.24.014-3.37.054" fill="#000" fill-rule="evenodd" stroke="none"/></svg>